M48
;Layer_Color=9474304
;FILE_FORMAT=2:5
INCH,TZ
;TYPE=PLATED
T1F00S00C0.01575
T2F00S00C0.03150
T3F00S00C0.03543
T5F00S00C0.04016
T6F00S00C0.12402
%
T01
X197815Y52185
X203870Y50370
X210185Y53315
X212500Y59370
X209685Y64815
X203500Y68000
X196685Y65185
X194870Y59000
X196850Y78740
X236221
X275591
X314961
X354331
X374016Y118110
X413386
X427000Y125500
X432721Y96220
X433071Y78740
X424000Y87000
X400500Y149000
X334646Y118110
X328000Y123500
X486711Y117268
X492126Y118110
X475500Y97000
X479815Y67815
X486000Y64630
X488815Y59185
X486500Y53130
X480185Y50185
X474130Y52000
X471185Y58815
X473000Y65000
X472441Y157480
X492126Y196850
X485854Y252126
X471230Y293236
X464186Y274032
X461000Y237000
X433000Y239500
X423000Y237500
X422500Y243500
X420000Y248500
X419500Y254500
X422000Y260000
X426500Y265000
X431500Y266500
X413386Y275591
X401000Y261000
X395000Y255000
X374016Y275591
Y196850
X413386
X452756
X433000Y223000
X334646Y196850
X314961Y236221
X275591
X295276Y275591
X255906
X216535
Y196850
X236221Y157480
X275591
X196850
X216535Y354331
X255906
X295276
Y433071
X255906
X216535
X210000Y444130
X212315Y450185
X209500Y455630
X203315Y458815
X196500Y456000
X194685Y449815
X197630Y443000
X203685Y441185
X334646Y433071
X374016
X413386
X433071Y393701
X452756Y354331
X413386
X374016
X334646
X319000Y360500
X318000Y367500
X354331Y393701
X393701Y314961
X433071
X472500Y391500
X478000Y392500
X483000Y393500
X490000Y387000
X493000Y379000
X496500Y372500
X479500Y414500
X479685Y440185
X473630Y442000
X470685Y448815
X472500Y455000
X479315Y457815
X485500Y454630
X488315Y449185
X486000Y443130
X492126Y433071
T02
X358500Y219500
Y229500
Y239500
Y249500
Y259500
Y269500
Y279500
Y289500
X388500
Y279500
Y269500
Y259500
Y249500
Y239500
Y229500
Y219500
T03
X189500Y93500
X199500
Y103500
X189500
Y113500
X199500
Y123500
X189500
Y133500
X199500
Y143500
X189500
Y183500
X199500
Y193500
X189500
Y203500
X199500
Y213500
X189500
Y223500
X199500
Y233500
X189500
Y273500
X199500
Y283500
X189500
Y293500
X199500
Y303500
X189500
Y313500
X199500
Y323500
X189500
Y363500
X199500
Y373500
X189500
Y383500
X199500
Y393500
X189500
Y403500
X199500
Y413500
X189500
T05
X263500Y98500
Y108500
Y118500
Y128500
Y138500
X273500
Y128500
Y118500
Y108500
Y98500
Y188500
X263500
Y198500
Y208500
Y218500
Y228500
X273500
Y218500
Y208500
Y198500
Y278500
X263500
Y288500
Y298500
Y308500
X273500
Y298500
Y288500
Y318500
X263500
Y368500
Y378500
Y388500
Y398500
Y408500
X273500
Y398500
Y388500
Y378500
Y368500
T06
X203685Y59185
X480000Y59000
X203500Y450000
X479500Y449000
M30
