M48
;Layer_Color=9474304
;FILE_FORMAT=2:5
INCH,TZ
;TYPE=PLATED
T4F00S00C0.03543
%
G90
G05
T04
G00X460035Y83425
M15
G01X452949
M16
G00X460035Y140512
M15
G01X452949
M16
G00X481531Y140512
M15
G01X478382
M16
G00X481531Y83425
M15
G01X478382
M16
G00X481575Y226913
M15
G01X478425
M16
G00X481575Y284000
M15
G01X478425
M16
G00X460079Y284000
M15
G01X452992
M16
G00X460079Y226913
M15
G01X452992
M16
G00X460035Y370488
M15
G01X452949
M16
G00X460035Y427575
M15
G01X452949
M16
G00X481531Y427575
M15
G01X478382
M16
G00X481531Y370488
M15
G01X478382
M16
M17
M30
