G04*
G04 #@! TF.GenerationSoftware,Altium Limited,Altium Designer,20.1.12 (249)*
G04*
G04 Layer_Color=8388736*
%FSLAX25Y25*%
%MOIN*%
G70*
G04*
G04 #@! TF.SameCoordinates,19FB753C-3B76-4D90-9414-1966AEB0D9B2*
G04*
G04*
G04 #@! TF.FilePolarity,Negative*
G04*
G01*
G75*
%ADD13R,0.10630X0.01575*%
%ADD14C,0.06706*%
%ADD15R,0.06706X0.06706*%
%ADD16R,0.06706X0.06706*%
%ADD17R,0.05918X0.05918*%
%ADD18C,0.05918*%
%ADD19O,0.09855X0.06706*%
%ADD20O,0.13792X0.06706*%
D13*
X453500Y129685D02*
D03*
Y127717D02*
D03*
Y125748D02*
D03*
Y123779D02*
D03*
Y121811D02*
D03*
Y119843D02*
D03*
Y117874D02*
D03*
Y115905D02*
D03*
Y113937D02*
D03*
Y111969D02*
D03*
Y110000D02*
D03*
Y108031D02*
D03*
Y106063D02*
D03*
Y104095D02*
D03*
Y102126D02*
D03*
Y100157D02*
D03*
Y98189D02*
D03*
Y96220D02*
D03*
Y94252D02*
D03*
X453543Y273173D02*
D03*
Y271205D02*
D03*
Y269236D02*
D03*
Y267268D02*
D03*
Y265299D02*
D03*
Y263331D02*
D03*
Y261362D02*
D03*
Y259394D02*
D03*
Y257425D02*
D03*
Y255457D02*
D03*
Y253488D02*
D03*
Y251520D02*
D03*
Y249551D02*
D03*
Y247583D02*
D03*
Y245614D02*
D03*
Y243646D02*
D03*
Y241677D02*
D03*
Y239709D02*
D03*
Y237740D02*
D03*
X453500Y416748D02*
D03*
Y414780D02*
D03*
Y412811D02*
D03*
Y410843D02*
D03*
Y408874D02*
D03*
Y406906D02*
D03*
Y404937D02*
D03*
Y402969D02*
D03*
Y401000D02*
D03*
Y399031D02*
D03*
Y397063D02*
D03*
Y395094D02*
D03*
Y393126D02*
D03*
Y391158D02*
D03*
Y389189D02*
D03*
Y387221D02*
D03*
Y385252D02*
D03*
Y383283D02*
D03*
Y381315D02*
D03*
D14*
X263500Y288500D02*
D03*
Y298500D02*
D03*
Y308500D02*
D03*
Y278500D02*
D03*
X273500D02*
D03*
Y308500D02*
D03*
Y298500D02*
D03*
Y288500D02*
D03*
X189500Y93500D02*
D03*
X199500D02*
D03*
X189500Y103500D02*
D03*
X199500D02*
D03*
X189500Y113500D02*
D03*
X199500D02*
D03*
X189500Y123500D02*
D03*
X199500D02*
D03*
X189500Y133500D02*
D03*
X199500D02*
D03*
X189500Y143500D02*
D03*
Y183500D02*
D03*
X199500D02*
D03*
X189500Y193500D02*
D03*
X199500D02*
D03*
X189500Y203500D02*
D03*
X199500D02*
D03*
X189500Y213500D02*
D03*
X199500D02*
D03*
X189500Y223500D02*
D03*
X199500D02*
D03*
X189500Y233500D02*
D03*
Y273500D02*
D03*
X199500D02*
D03*
X189500Y283500D02*
D03*
X199500D02*
D03*
X189500Y293500D02*
D03*
X199500D02*
D03*
X189500Y303500D02*
D03*
X199500D02*
D03*
X189500Y313500D02*
D03*
X199500D02*
D03*
X189500Y323500D02*
D03*
Y363500D02*
D03*
X199500D02*
D03*
X189500Y373500D02*
D03*
X199500D02*
D03*
X189500Y383500D02*
D03*
X199500D02*
D03*
X189500Y393500D02*
D03*
X199500D02*
D03*
X189500Y403500D02*
D03*
X199500D02*
D03*
X189500Y413500D02*
D03*
X263500Y108500D02*
D03*
Y118500D02*
D03*
Y128500D02*
D03*
Y98500D02*
D03*
X273500D02*
D03*
Y128500D02*
D03*
Y118500D02*
D03*
Y108500D02*
D03*
X263500Y198500D02*
D03*
Y208500D02*
D03*
Y218500D02*
D03*
Y188500D02*
D03*
X273500D02*
D03*
Y218500D02*
D03*
Y208500D02*
D03*
Y198500D02*
D03*
X263500Y378500D02*
D03*
Y388500D02*
D03*
Y398500D02*
D03*
Y368500D02*
D03*
X273500D02*
D03*
Y398500D02*
D03*
Y388500D02*
D03*
Y378500D02*
D03*
D15*
X263500Y318500D02*
D03*
X273500D02*
D03*
X263500Y138500D02*
D03*
X273500D02*
D03*
X263500Y228500D02*
D03*
X273500D02*
D03*
X263500Y408500D02*
D03*
X273500D02*
D03*
D16*
X199500Y143500D02*
D03*
Y233500D02*
D03*
Y323500D02*
D03*
Y413500D02*
D03*
D17*
X358500Y289500D02*
D03*
D18*
Y279500D02*
D03*
Y269500D02*
D03*
Y259500D02*
D03*
Y249500D02*
D03*
Y239500D02*
D03*
Y229500D02*
D03*
Y219500D02*
D03*
X388500Y289500D02*
D03*
Y279500D02*
D03*
Y269500D02*
D03*
Y259500D02*
D03*
Y249500D02*
D03*
Y239500D02*
D03*
Y229500D02*
D03*
Y219500D02*
D03*
D19*
X479957Y83425D02*
D03*
Y140512D02*
D03*
X480000Y226913D02*
D03*
Y284000D02*
D03*
X479957Y370488D02*
D03*
Y427575D02*
D03*
D20*
X456492Y83425D02*
D03*
Y140512D02*
D03*
X456535Y226913D02*
D03*
Y284000D02*
D03*
X456492Y370488D02*
D03*
Y427575D02*
D03*
M02*
