G04*
G04 #@! TF.GenerationSoftware,Altium Limited,Altium Designer,20.1.12 (249)*
G04*
G04 Layer_Physical_Order=2*
G04 Layer_Color=16711680*
%FSLAX25Y25*%
%MOIN*%
G70*
G04*
G04 #@! TF.SameCoordinates,19FB753C-3B76-4D90-9414-1966AEB0D9B2*
G04*
G04*
G04 #@! TF.FilePolarity,Positive*
G04*
G01*
G75*
%ADD10C,0.01000*%
%ADD22C,0.05906*%
%ADD23R,0.05906X0.05906*%
%ADD24R,0.05906X0.05906*%
%ADD25R,0.05118X0.05118*%
%ADD26C,0.05118*%
%ADD27O,0.09055X0.05906*%
%ADD28O,0.12992X0.05906*%
%ADD29C,0.03543*%
%ADD30C,0.23622*%
G36*
X474275Y391280D02*
X474290Y391087D01*
X474315Y390905D01*
X474352Y390732D01*
X474400Y390568D01*
X474459Y390415D01*
X474530Y390272D01*
X474611Y390138D01*
X474703Y390014D01*
X474807Y389900D01*
X474100Y389193D01*
X473986Y389297D01*
X473862Y389389D01*
X473728Y389470D01*
X473585Y389541D01*
X473431Y389600D01*
X473268Y389648D01*
X473095Y389685D01*
X472913Y389710D01*
X472720Y389725D01*
X472518Y389728D01*
X474272Y391482D01*
X474275Y391280D01*
D02*
G37*
G36*
X499000Y373927D02*
X498500Y373776D01*
X498210Y374210D01*
X497425Y374734D01*
X496500Y374918D01*
X495575Y374734D01*
X494790Y374210D01*
X494790Y374210D01*
X494784Y374207D01*
X494652Y374080D01*
X494535Y373980D01*
X494423Y373895D01*
X494314Y373825D01*
X494210Y373768D01*
X494110Y373724D01*
X494014Y373691D01*
X493921Y373668D01*
X493829Y373655D01*
X493706Y373649D01*
X493649Y373622D01*
X491965D01*
X475309Y390277D01*
X475288Y390337D01*
X475205Y390428D01*
X475150Y390502D01*
X475100Y390584D01*
X475055Y390675D01*
X475016Y390777D01*
X474982Y390891D01*
X474955Y391018D01*
X474936Y391157D01*
X474924Y391310D01*
X474921Y391494D01*
X474918Y391500D01*
X474918Y391500D01*
X474734Y392425D01*
X474210Y393210D01*
X473425Y393734D01*
X472500Y393918D01*
X471575Y393734D01*
X470790Y393210D01*
X470266Y392425D01*
X470082Y391500D01*
X470266Y390575D01*
X470790Y389790D01*
X471575Y389266D01*
X472500Y389082D01*
X472500Y389082D01*
X472507Y389079D01*
X472690Y389076D01*
X472843Y389064D01*
X472982Y389045D01*
X473109Y389018D01*
X473223Y388984D01*
X473325Y388945D01*
X473416Y388900D01*
X473498Y388850D01*
X473572Y388795D01*
X473663Y388712D01*
X473723Y388691D01*
X490707Y371707D01*
X490707Y371707D01*
X491071Y371464D01*
X491500Y371378D01*
X491500Y371378D01*
X493649D01*
X493706Y371351D01*
X493829Y371345D01*
X493921Y371332D01*
X494014Y371309D01*
X494110Y371276D01*
X494210Y371232D01*
X494314Y371175D01*
X494423Y371105D01*
X494535Y371020D01*
X494652Y370920D01*
X494784Y370793D01*
X494790Y370790D01*
X494790Y370790D01*
X495575Y370266D01*
X496500Y370082D01*
X497425Y370266D01*
X498210Y370790D01*
X498500Y371224D01*
X499000Y371073D01*
Y39500D01*
X184000D01*
Y96707D01*
X184500Y96914D01*
X185326Y96088D01*
X185344Y96033D01*
X185455Y95905D01*
X185534Y95783D01*
X185612Y95626D01*
X185684Y95433D01*
X185749Y95204D01*
X185804Y94939D01*
X185846Y94646D01*
X185895Y93929D01*
X185898Y93525D01*
X185920Y93472D01*
X186039Y92573D01*
X186397Y91708D01*
X186966Y90966D01*
X187708Y90397D01*
X188573Y90039D01*
X189500Y89917D01*
X190427Y90039D01*
X191292Y90397D01*
X192011Y90949D01*
X192064Y90970D01*
X192353Y91254D01*
X192894Y91727D01*
X193131Y91904D01*
X193357Y92053D01*
X193565Y92169D01*
X193753Y92254D01*
X193918Y92310D01*
X194061Y92340D01*
X194229Y92352D01*
X194281Y92378D01*
X194719D01*
X194771Y92352D01*
X194939Y92340D01*
X195082Y92310D01*
X195247Y92254D01*
X195435Y92169D01*
X195643Y92053D01*
X195869Y91904D01*
X196106Y91727D01*
X196647Y91254D01*
X196935Y90970D01*
X196989Y90949D01*
X197708Y90397D01*
X198573Y90039D01*
X199500Y89917D01*
X200427Y90039D01*
X201292Y90397D01*
X202034Y90966D01*
X202603Y91708D01*
X202961Y92573D01*
X203083Y93500D01*
X202961Y94427D01*
X202603Y95292D01*
X202034Y96034D01*
X201292Y96603D01*
X200427Y96961D01*
X199500Y97083D01*
X198573Y96961D01*
X197708Y96603D01*
X196989Y96051D01*
X196935Y96030D01*
X196647Y95746D01*
X196106Y95273D01*
X195869Y95096D01*
X195643Y94947D01*
X195435Y94831D01*
X195247Y94746D01*
X195082Y94690D01*
X194939Y94660D01*
X194771Y94648D01*
X194719Y94622D01*
X194281D01*
X194229Y94648D01*
X194061Y94660D01*
X193918Y94690D01*
X193753Y94746D01*
X193565Y94831D01*
X193357Y94947D01*
X193131Y95096D01*
X192894Y95273D01*
X192353Y95746D01*
X192064Y96030D01*
X192011Y96051D01*
X191292Y96603D01*
X190427Y96961D01*
X189528Y97080D01*
X189475Y97102D01*
X189071Y97105D01*
X188354Y97154D01*
X188061Y97196D01*
X187796Y97251D01*
X187567Y97316D01*
X187374Y97388D01*
X187217Y97466D01*
X187095Y97545D01*
X186967Y97656D01*
X186912Y97674D01*
X186122Y98465D01*
Y100632D01*
X186595Y100793D01*
X186681Y100681D01*
X187507Y100047D01*
X188468Y99649D01*
X189000Y99579D01*
Y103500D01*
Y107421D01*
X188468Y107351D01*
X187507Y106953D01*
X186681Y106319D01*
X186595Y106207D01*
X186122Y106368D01*
Y111246D01*
X186622Y111415D01*
X186966Y110966D01*
X187708Y110397D01*
X188573Y110039D01*
X189500Y109917D01*
X190427Y110039D01*
X191292Y110397D01*
X192034Y110966D01*
X192603Y111708D01*
X192961Y112573D01*
X193083Y113500D01*
X192961Y114427D01*
X192603Y115292D01*
X192034Y116034D01*
X191292Y116603D01*
X190427Y116961D01*
X189500Y117083D01*
X188573Y116961D01*
X187708Y116603D01*
X186966Y116034D01*
X186622Y115585D01*
X186122Y115754D01*
Y121246D01*
X186622Y121415D01*
X186966Y120966D01*
X187708Y120397D01*
X188573Y120039D01*
X189500Y119917D01*
X190427Y120039D01*
X191292Y120397D01*
X192034Y120966D01*
X192603Y121708D01*
X192961Y122573D01*
X193083Y123500D01*
X192961Y124427D01*
X192603Y125292D01*
X192034Y126034D01*
X191292Y126603D01*
X190427Y126961D01*
X189500Y127083D01*
X188573Y126961D01*
X187708Y126603D01*
X186966Y126034D01*
X186622Y125585D01*
X186122Y125754D01*
Y131246D01*
X186622Y131415D01*
X186966Y130966D01*
X187708Y130397D01*
X188573Y130039D01*
X189500Y129917D01*
X190427Y130039D01*
X191292Y130397D01*
X192034Y130966D01*
X192603Y131708D01*
X192961Y132573D01*
X193083Y133500D01*
X192961Y134427D01*
X192603Y135292D01*
X192034Y136034D01*
X191292Y136603D01*
X190427Y136961D01*
X189500Y137083D01*
X188573Y136961D01*
X187708Y136603D01*
X186966Y136034D01*
X186622Y135585D01*
X186122Y135755D01*
Y141245D01*
X186622Y141415D01*
X186966Y140966D01*
X187708Y140397D01*
X188573Y140039D01*
X189500Y139917D01*
X190427Y140039D01*
X191292Y140397D01*
X192034Y140966D01*
X192603Y141708D01*
X192961Y142573D01*
X193083Y143500D01*
X192961Y144427D01*
X192603Y145292D01*
X192034Y146034D01*
X191292Y146603D01*
X190427Y146961D01*
X189500Y147083D01*
X188573Y146961D01*
X187708Y146603D01*
X186966Y146034D01*
X186622Y145585D01*
X186122Y145755D01*
Y178535D01*
X186912Y179326D01*
X186967Y179344D01*
X187095Y179455D01*
X187217Y179534D01*
X187374Y179612D01*
X187567Y179684D01*
X187796Y179749D01*
X188061Y179804D01*
X188354Y179846D01*
X189071Y179895D01*
X189475Y179898D01*
X189528Y179920D01*
X190427Y180039D01*
X191292Y180397D01*
X192011Y180949D01*
X192064Y180970D01*
X192353Y181254D01*
X192894Y181727D01*
X193131Y181904D01*
X193357Y182053D01*
X193565Y182169D01*
X193753Y182254D01*
X193918Y182310D01*
X194061Y182340D01*
X194229Y182352D01*
X194281Y182378D01*
X194719D01*
X194771Y182352D01*
X194939Y182340D01*
X195082Y182310D01*
X195247Y182254D01*
X195435Y182169D01*
X195643Y182053D01*
X195869Y181904D01*
X196106Y181727D01*
X196647Y181254D01*
X196935Y180970D01*
X196989Y180949D01*
X197708Y180397D01*
X198573Y180039D01*
X199500Y179917D01*
X200427Y180039D01*
X201292Y180397D01*
X202034Y180966D01*
X202603Y181708D01*
X202961Y182573D01*
X203083Y183500D01*
X202961Y184427D01*
X202603Y185292D01*
X202034Y186034D01*
X201292Y186603D01*
X200427Y186961D01*
X199500Y187083D01*
X198573Y186961D01*
X197708Y186603D01*
X196989Y186051D01*
X196935Y186030D01*
X196647Y185746D01*
X196106Y185273D01*
X195869Y185096D01*
X195643Y184947D01*
X195435Y184831D01*
X195247Y184746D01*
X195082Y184690D01*
X194939Y184660D01*
X194771Y184648D01*
X194719Y184622D01*
X194281D01*
X194229Y184648D01*
X194061Y184660D01*
X193918Y184690D01*
X193753Y184746D01*
X193565Y184831D01*
X193357Y184947D01*
X193131Y185096D01*
X192894Y185273D01*
X192353Y185746D01*
X192064Y186030D01*
X192011Y186051D01*
X191292Y186603D01*
X190427Y186961D01*
X189528Y187080D01*
X189475Y187102D01*
X189071Y187105D01*
X188354Y187154D01*
X188061Y187196D01*
X187796Y187251D01*
X187567Y187316D01*
X187374Y187388D01*
X187217Y187466D01*
X187095Y187545D01*
X186967Y187656D01*
X186912Y187674D01*
X186122Y188465D01*
Y190632D01*
X186595Y190793D01*
X186681Y190681D01*
X187507Y190047D01*
X188468Y189649D01*
X189000Y189579D01*
Y193500D01*
Y197421D01*
X188468Y197351D01*
X187507Y196953D01*
X186681Y196319D01*
X186595Y196207D01*
X186122Y196368D01*
Y201245D01*
X186622Y201415D01*
X186966Y200966D01*
X187708Y200397D01*
X188573Y200039D01*
X189500Y199917D01*
X190427Y200039D01*
X191292Y200397D01*
X192034Y200966D01*
X192603Y201708D01*
X192961Y202573D01*
X193083Y203500D01*
X192961Y204427D01*
X192603Y205292D01*
X192034Y206034D01*
X191292Y206603D01*
X190427Y206961D01*
X189500Y207083D01*
X188573Y206961D01*
X187708Y206603D01*
X186966Y206034D01*
X186622Y205585D01*
X186122Y205754D01*
Y211245D01*
X186622Y211415D01*
X186966Y210966D01*
X187708Y210397D01*
X188573Y210039D01*
X189500Y209917D01*
X190427Y210039D01*
X191292Y210397D01*
X192034Y210966D01*
X192603Y211708D01*
X192961Y212573D01*
X193083Y213500D01*
X192961Y214427D01*
X192603Y215292D01*
X192034Y216034D01*
X191292Y216603D01*
X190427Y216961D01*
X189500Y217083D01*
X188573Y216961D01*
X187708Y216603D01*
X186966Y216034D01*
X186622Y215585D01*
X186122Y215755D01*
Y221246D01*
X186622Y221415D01*
X186966Y220966D01*
X187708Y220397D01*
X188573Y220039D01*
X189500Y219917D01*
X190427Y220039D01*
X191292Y220397D01*
X192034Y220966D01*
X192603Y221708D01*
X192961Y222573D01*
X193083Y223500D01*
X192961Y224427D01*
X192603Y225292D01*
X192034Y226034D01*
X191292Y226603D01*
X190427Y226961D01*
X189500Y227083D01*
X188573Y226961D01*
X187708Y226603D01*
X186966Y226034D01*
X186622Y225585D01*
X186122Y225754D01*
Y231245D01*
X186622Y231415D01*
X186966Y230966D01*
X187708Y230397D01*
X188573Y230039D01*
X189500Y229917D01*
X190427Y230039D01*
X191292Y230397D01*
X192034Y230966D01*
X192603Y231708D01*
X192961Y232573D01*
X193083Y233500D01*
X192961Y234427D01*
X192603Y235292D01*
X192034Y236034D01*
X191292Y236603D01*
X190427Y236961D01*
X189500Y237083D01*
X188573Y236961D01*
X187708Y236603D01*
X186966Y236034D01*
X186622Y235585D01*
X186122Y235754D01*
Y267535D01*
X187564Y268978D01*
X187619Y268996D01*
X187722Y269084D01*
X187826Y269154D01*
X188215Y269351D01*
X188443Y269444D01*
X189886Y269886D01*
X190333Y269995D01*
X190333Y269996D01*
X190334Y269996D01*
X190385Y270033D01*
X190427Y270039D01*
X191292Y270397D01*
X192011Y270949D01*
X192064Y270970D01*
X192353Y271254D01*
X192894Y271727D01*
X193131Y271904D01*
X193357Y272053D01*
X193565Y272169D01*
X193753Y272254D01*
X193918Y272310D01*
X194061Y272340D01*
X194229Y272352D01*
X194281Y272378D01*
X194719D01*
X194771Y272352D01*
X194939Y272340D01*
X195082Y272310D01*
X195247Y272254D01*
X195435Y272169D01*
X195643Y272053D01*
X195869Y271904D01*
X196106Y271727D01*
X196647Y271254D01*
X196935Y270970D01*
X196989Y270949D01*
X197708Y270397D01*
X198573Y270039D01*
X199500Y269917D01*
X200427Y270039D01*
X201292Y270397D01*
X202034Y270966D01*
X202603Y271708D01*
X202961Y272573D01*
X203083Y273500D01*
X202961Y274427D01*
X202603Y275292D01*
X202034Y276034D01*
X201292Y276603D01*
X200427Y276961D01*
X199500Y277083D01*
X198573Y276961D01*
X197708Y276603D01*
X196989Y276051D01*
X196935Y276030D01*
X196647Y275746D01*
X196106Y275273D01*
X195869Y275096D01*
X195643Y274947D01*
X195435Y274831D01*
X195247Y274746D01*
X195082Y274690D01*
X194939Y274660D01*
X194771Y274648D01*
X194719Y274622D01*
X194281D01*
X194229Y274648D01*
X194061Y274660D01*
X193918Y274690D01*
X193753Y274746D01*
X193565Y274831D01*
X193357Y274947D01*
X193131Y275096D01*
X192894Y275273D01*
X192353Y275746D01*
X192064Y276030D01*
X192011Y276051D01*
X191292Y276603D01*
X190427Y276961D01*
X189528Y277080D01*
X189475Y277102D01*
X189071Y277105D01*
X188354Y277154D01*
X188061Y277196D01*
X187796Y277251D01*
X187567Y277316D01*
X187374Y277388D01*
X187217Y277466D01*
X187095Y277545D01*
X186967Y277656D01*
X186912Y277674D01*
X186569Y278017D01*
Y280137D01*
X187069Y280383D01*
X187507Y280047D01*
X188468Y279649D01*
X189000Y279579D01*
Y283500D01*
Y287421D01*
X188468Y287351D01*
X187507Y286953D01*
X187069Y286617D01*
X186569Y286863D01*
Y290731D01*
X187069Y290887D01*
X187708Y290397D01*
X188573Y290039D01*
X189500Y289917D01*
X190427Y290039D01*
X191292Y290397D01*
X192034Y290966D01*
X192603Y291708D01*
X192961Y292573D01*
X193083Y293500D01*
X192961Y294427D01*
X192603Y295292D01*
X192034Y296034D01*
X191292Y296603D01*
X190427Y296961D01*
X189500Y297083D01*
X188573Y296961D01*
X187708Y296603D01*
X187069Y296113D01*
X186569Y296269D01*
Y300730D01*
X187069Y300887D01*
X187708Y300397D01*
X188573Y300039D01*
X189500Y299917D01*
X190427Y300039D01*
X191292Y300397D01*
X192034Y300966D01*
X192603Y301708D01*
X192961Y302573D01*
X193083Y303500D01*
X192961Y304427D01*
X192603Y305292D01*
X192034Y306034D01*
X191292Y306603D01*
X190427Y306961D01*
X189500Y307083D01*
X188573Y306961D01*
X187708Y306603D01*
X187069Y306113D01*
X186569Y306270D01*
Y310731D01*
X187069Y310887D01*
X187708Y310397D01*
X188573Y310039D01*
X189500Y309917D01*
X190427Y310039D01*
X191292Y310397D01*
X192034Y310966D01*
X192603Y311708D01*
X192961Y312573D01*
X193083Y313500D01*
X192961Y314427D01*
X192603Y315292D01*
X192034Y316034D01*
X191292Y316603D01*
X190427Y316961D01*
X189500Y317083D01*
X188573Y316961D01*
X187708Y316603D01*
X187069Y316113D01*
X186569Y316269D01*
Y320730D01*
X187069Y320887D01*
X187708Y320397D01*
X188573Y320039D01*
X189500Y319917D01*
X190427Y320039D01*
X191292Y320397D01*
X192034Y320966D01*
X192603Y321708D01*
X192961Y322573D01*
X193083Y323500D01*
X192961Y324427D01*
X192603Y325292D01*
X192034Y326034D01*
X191292Y326603D01*
X190427Y326961D01*
X189500Y327083D01*
X188573Y326961D01*
X187708Y326603D01*
X187069Y326113D01*
X186569Y326270D01*
Y355483D01*
X189354Y358268D01*
X189354Y358268D01*
X189598Y358632D01*
X189649Y358890D01*
X189708Y359004D01*
X189707Y359010D01*
X189709Y359014D01*
X189721Y359177D01*
X189745Y359282D01*
X189785Y359383D01*
X189845Y359485D01*
X189929Y359591D01*
X190042Y359702D01*
X190189Y359816D01*
X190370Y359931D01*
X190587Y360045D01*
X190858Y360164D01*
X190870Y360176D01*
X190887Y360177D01*
X190957Y360258D01*
X191292Y360397D01*
X192011Y360949D01*
X192064Y360970D01*
X192353Y361254D01*
X192894Y361727D01*
X193131Y361904D01*
X193357Y362053D01*
X193565Y362169D01*
X193753Y362254D01*
X193918Y362310D01*
X194061Y362340D01*
X194229Y362352D01*
X194281Y362379D01*
X194719D01*
X194771Y362352D01*
X194939Y362340D01*
X195082Y362310D01*
X195247Y362254D01*
X195435Y362169D01*
X195643Y362053D01*
X195869Y361904D01*
X196106Y361727D01*
X196647Y361254D01*
X196935Y360970D01*
X196989Y360949D01*
X197708Y360397D01*
X198573Y360039D01*
X199500Y359917D01*
X200427Y360039D01*
X201292Y360397D01*
X202034Y360966D01*
X202603Y361708D01*
X202961Y362573D01*
X203083Y363500D01*
X202961Y364427D01*
X202603Y365292D01*
X202034Y366034D01*
X201292Y366603D01*
X200427Y366961D01*
X199500Y367083D01*
X198573Y366961D01*
X197708Y366603D01*
X196989Y366051D01*
X196935Y366030D01*
X196647Y365746D01*
X196106Y365273D01*
X195869Y365096D01*
X195643Y364947D01*
X195435Y364831D01*
X195247Y364746D01*
X195082Y364690D01*
X194939Y364660D01*
X194771Y364648D01*
X194719Y364621D01*
X194281D01*
X194229Y364648D01*
X194061Y364660D01*
X193918Y364690D01*
X193753Y364746D01*
X193565Y364831D01*
X193357Y364947D01*
X193131Y365096D01*
X192894Y365273D01*
X192353Y365746D01*
X192064Y366030D01*
X192011Y366051D01*
X191292Y366603D01*
X190427Y366961D01*
X189500Y367083D01*
X188573Y366961D01*
X187708Y366603D01*
X186966Y366034D01*
X186397Y365292D01*
X186039Y364427D01*
X185917Y363500D01*
X186039Y362573D01*
X186387Y361731D01*
X186390Y361685D01*
X186405Y361673D01*
X186407Y361654D01*
X186792Y360976D01*
X186940Y360684D01*
X187185Y360126D01*
X187269Y359890D01*
X187334Y359669D01*
X187379Y359471D01*
X187379Y359466D01*
X184654Y356740D01*
X184500Y356510D01*
X184000Y356661D01*
Y469500D01*
X499000D01*
Y373927D01*
D02*
G37*
G36*
X495235Y371260D02*
X495089Y371400D01*
X494943Y371526D01*
X494795Y371637D01*
X494647Y371733D01*
X494498Y371815D01*
X494347Y371882D01*
X494196Y371933D01*
X494044Y371970D01*
X493891Y371993D01*
X493737Y372000D01*
Y373000D01*
X493891Y373007D01*
X494044Y373030D01*
X494196Y373067D01*
X494347Y373118D01*
X494498Y373185D01*
X494647Y373267D01*
X494795Y373363D01*
X494943Y373474D01*
X495089Y373600D01*
X495235Y373740D01*
Y371260D01*
D02*
G37*
G36*
X197391Y361433D02*
X197089Y361731D01*
X196515Y362232D01*
X196242Y362436D01*
X195980Y362608D01*
X195728Y362749D01*
X195485Y362859D01*
X195253Y362937D01*
X195031Y362984D01*
X194818Y363000D01*
Y364000D01*
X195031Y364016D01*
X195253Y364063D01*
X195485Y364141D01*
X195728Y364251D01*
X195980Y364392D01*
X196242Y364564D01*
X196515Y364768D01*
X197089Y365269D01*
X197391Y365567D01*
Y361433D01*
D02*
G37*
G36*
X191911Y365269D02*
X192485Y364768D01*
X192758Y364564D01*
X193020Y364392D01*
X193272Y364251D01*
X193515Y364141D01*
X193747Y364063D01*
X193969Y364016D01*
X194182Y364000D01*
Y363000D01*
X193969Y362984D01*
X193747Y362937D01*
X193515Y362859D01*
X193272Y362749D01*
X193020Y362608D01*
X192758Y362436D01*
X192485Y362232D01*
X191911Y361731D01*
X191609Y361433D01*
Y365567D01*
X191911Y365269D01*
D02*
G37*
G36*
X190598Y360759D02*
X190306Y360631D01*
X190045Y360494D01*
X189814Y360348D01*
X189614Y360192D01*
X189445Y360027D01*
X189307Y359852D01*
X189200Y359669D01*
X189123Y359476D01*
X189077Y359273D01*
X189061Y359061D01*
X188061Y359150D01*
X188050Y359361D01*
X188018Y359589D01*
X187963Y359832D01*
X187887Y360091D01*
X187789Y360365D01*
X187528Y360962D01*
X187364Y361284D01*
X186972Y361975D01*
X190598Y360759D01*
D02*
G37*
G36*
X186704Y277025D02*
X186895Y276901D01*
X187115Y276792D01*
X187364Y276698D01*
X187642Y276620D01*
X187949Y276556D01*
X188286Y276507D01*
X189046Y276456D01*
X189471Y276453D01*
X186547Y273530D01*
X186544Y273954D01*
X186493Y274714D01*
X186444Y275051D01*
X186381Y275358D01*
X186302Y275637D01*
X186208Y275886D01*
X186099Y276105D01*
X185975Y276296D01*
X185836Y276457D01*
X186543Y277164D01*
X186704Y277025D01*
D02*
G37*
G36*
X197391Y271433D02*
X197089Y271731D01*
X196515Y272232D01*
X196242Y272436D01*
X195980Y272608D01*
X195728Y272749D01*
X195485Y272859D01*
X195253Y272937D01*
X195031Y272984D01*
X194818Y273000D01*
Y274000D01*
X195031Y274016D01*
X195253Y274063D01*
X195485Y274141D01*
X195728Y274251D01*
X195980Y274392D01*
X196242Y274564D01*
X196515Y274768D01*
X197089Y275269D01*
X197391Y275567D01*
Y271433D01*
D02*
G37*
G36*
X191911Y275269D02*
X192485Y274768D01*
X192758Y274564D01*
X193020Y274392D01*
X193272Y274251D01*
X193515Y274141D01*
X193747Y274063D01*
X193969Y274016D01*
X194182Y274000D01*
Y273000D01*
X193969Y272984D01*
X193747Y272937D01*
X193515Y272859D01*
X193272Y272749D01*
X193020Y272608D01*
X192758Y272436D01*
X192485Y272232D01*
X191911Y271731D01*
X191609Y271433D01*
Y275567D01*
X191911Y275269D01*
D02*
G37*
G36*
X190178Y270626D02*
X189714Y270512D01*
X188225Y270057D01*
X187945Y269943D01*
X187496Y269715D01*
X187327Y269602D01*
X187195Y269488D01*
X186311Y270018D01*
X186462Y270194D01*
X186588Y270392D01*
X186687Y270611D01*
X186759Y270853D01*
X186805Y271117D01*
X186825Y271402D01*
X186818Y271710D01*
X186785Y272039D01*
X186726Y272391D01*
X186640Y272764D01*
X190178Y270626D01*
D02*
G37*
G36*
X186704Y187025D02*
X186895Y186901D01*
X187115Y186792D01*
X187364Y186698D01*
X187642Y186619D01*
X187949Y186556D01*
X188286Y186507D01*
X189046Y186456D01*
X189471Y186453D01*
X186547Y183529D01*
X186544Y183954D01*
X186493Y184714D01*
X186444Y185051D01*
X186381Y185358D01*
X186302Y185636D01*
X186208Y185886D01*
X186099Y186105D01*
X185975Y186296D01*
X185836Y186457D01*
X186543Y187164D01*
X186704Y187025D01*
D02*
G37*
G36*
X197391Y181433D02*
X197089Y181731D01*
X196515Y182232D01*
X196242Y182436D01*
X195980Y182608D01*
X195728Y182749D01*
X195485Y182859D01*
X195253Y182937D01*
X195031Y182984D01*
X194818Y183000D01*
Y184000D01*
X195031Y184016D01*
X195253Y184063D01*
X195485Y184141D01*
X195728Y184251D01*
X195980Y184392D01*
X196242Y184564D01*
X196515Y184768D01*
X197089Y185269D01*
X197391Y185567D01*
Y181433D01*
D02*
G37*
G36*
X191911Y185269D02*
X192485Y184768D01*
X192758Y184564D01*
X193020Y184392D01*
X193272Y184251D01*
X193515Y184141D01*
X193747Y184063D01*
X193969Y184016D01*
X194182Y184000D01*
Y183000D01*
X193969Y182984D01*
X193747Y182937D01*
X193515Y182859D01*
X193272Y182749D01*
X193020Y182608D01*
X192758Y182436D01*
X192485Y182232D01*
X191911Y181731D01*
X191609Y181433D01*
Y185567D01*
X191911Y185269D01*
D02*
G37*
G36*
X189471Y180547D02*
X189046Y180544D01*
X188286Y180493D01*
X187949Y180444D01*
X187642Y180380D01*
X187364Y180302D01*
X187115Y180208D01*
X186895Y180099D01*
X186704Y179975D01*
X186543Y179836D01*
X185836Y180543D01*
X185975Y180704D01*
X186099Y180895D01*
X186208Y181114D01*
X186302Y181363D01*
X186381Y181642D01*
X186444Y181949D01*
X186493Y182285D01*
X186544Y183046D01*
X186547Y183470D01*
X189471Y180547D01*
D02*
G37*
G36*
X186704Y97025D02*
X186895Y96901D01*
X187115Y96792D01*
X187364Y96698D01*
X187642Y96619D01*
X187949Y96556D01*
X188286Y96507D01*
X189046Y96456D01*
X189471Y96453D01*
X186547Y93529D01*
X186544Y93954D01*
X186493Y94714D01*
X186444Y95051D01*
X186381Y95358D01*
X186302Y95636D01*
X186208Y95885D01*
X186099Y96105D01*
X185975Y96296D01*
X185836Y96457D01*
X186543Y97164D01*
X186704Y97025D01*
D02*
G37*
G36*
X197391Y91433D02*
X197089Y91731D01*
X196515Y92232D01*
X196242Y92436D01*
X195980Y92608D01*
X195728Y92749D01*
X195485Y92859D01*
X195253Y92937D01*
X195031Y92984D01*
X194818Y93000D01*
Y94000D01*
X195031Y94016D01*
X195253Y94063D01*
X195485Y94141D01*
X195728Y94251D01*
X195980Y94392D01*
X196242Y94564D01*
X196515Y94768D01*
X197089Y95269D01*
X197391Y95567D01*
Y91433D01*
D02*
G37*
G36*
X191911Y95269D02*
X192485Y94768D01*
X192758Y94564D01*
X193020Y94392D01*
X193272Y94251D01*
X193515Y94141D01*
X193747Y94063D01*
X193969Y94016D01*
X194182Y94000D01*
Y93000D01*
X193969Y92984D01*
X193747Y92937D01*
X193515Y92859D01*
X193272Y92749D01*
X193020Y92608D01*
X192758Y92436D01*
X192485Y92232D01*
X191911Y91731D01*
X191609Y91433D01*
Y95567D01*
X191911Y95269D01*
D02*
G37*
%LPC*%
G36*
X204000Y462811D02*
Y450500D01*
X216311D01*
X216192Y452010D01*
X215722Y453971D01*
X214950Y455834D01*
X213896Y457553D01*
X212587Y459087D01*
X211053Y460396D01*
X209334Y461450D01*
X207471Y462222D01*
X205510Y462692D01*
X204000Y462811D01*
D02*
G37*
G36*
X203000D02*
X201490Y462692D01*
X199529Y462222D01*
X197666Y461450D01*
X195947Y460396D01*
X194413Y459087D01*
X193104Y457553D01*
X192050Y455834D01*
X191278Y453971D01*
X190808Y452010D01*
X190689Y450500D01*
X203000D01*
Y462811D01*
D02*
G37*
G36*
X480000Y461811D02*
Y449500D01*
X492311D01*
X492192Y451010D01*
X491722Y452971D01*
X490950Y454834D01*
X489896Y456553D01*
X488587Y458087D01*
X487053Y459396D01*
X485334Y460450D01*
X483471Y461222D01*
X481510Y461692D01*
X480000Y461811D01*
D02*
G37*
G36*
X479000D02*
X477490Y461692D01*
X475529Y461222D01*
X473666Y460450D01*
X471947Y459396D01*
X470413Y458087D01*
X469104Y456553D01*
X468050Y454834D01*
X467278Y452971D01*
X466808Y451010D01*
X466689Y449500D01*
X479000D01*
Y461811D01*
D02*
G37*
G36*
X216311Y449500D02*
X204000D01*
Y437189D01*
X205510Y437308D01*
X207471Y437778D01*
X209334Y438550D01*
X211053Y439604D01*
X212587Y440913D01*
X213896Y442447D01*
X214950Y444166D01*
X215722Y446029D01*
X216192Y447990D01*
X216311Y449500D01*
D02*
G37*
G36*
X203000D02*
X190689D01*
X190808Y447990D01*
X191278Y446029D01*
X192050Y444166D01*
X193104Y442447D01*
X194413Y440913D01*
X195947Y439604D01*
X197666Y438550D01*
X199529Y437778D01*
X201490Y437308D01*
X203000Y437189D01*
Y449500D01*
D02*
G37*
G36*
X492311Y448500D02*
X480000D01*
Y436189D01*
X481510Y436308D01*
X483471Y436778D01*
X485334Y437550D01*
X487053Y438604D01*
X488587Y439913D01*
X489896Y441447D01*
X490950Y443166D01*
X491722Y445029D01*
X492192Y446990D01*
X492311Y448500D01*
D02*
G37*
G36*
X479000D02*
X466689D01*
X466808Y446990D01*
X467278Y445029D01*
X468050Y443166D01*
X469104Y441447D01*
X470413Y439913D01*
X471947Y438604D01*
X473666Y437550D01*
X475529Y436778D01*
X477490Y436308D01*
X479000Y436189D01*
Y448500D01*
D02*
G37*
G36*
X492626Y435801D02*
Y433571D01*
X494856D01*
X494826Y433794D01*
X494547Y434469D01*
X494103Y435048D01*
X493524Y435492D01*
X492849Y435771D01*
X492626Y435801D01*
D02*
G37*
G36*
X491626D02*
X491402Y435771D01*
X490728Y435492D01*
X490149Y435048D01*
X489705Y434469D01*
X489426Y433794D01*
X489396Y433571D01*
X491626D01*
Y435801D01*
D02*
G37*
G36*
X413886D02*
Y433571D01*
X416116D01*
X416086Y433794D01*
X415807Y434469D01*
X415363Y435048D01*
X414784Y435492D01*
X414109Y435771D01*
X413886Y435801D01*
D02*
G37*
G36*
X412886D02*
X412662Y435771D01*
X411988Y435492D01*
X411409Y435048D01*
X410965Y434469D01*
X410685Y433794D01*
X410656Y433571D01*
X412886D01*
Y435801D01*
D02*
G37*
G36*
X374516D02*
Y433571D01*
X376746D01*
X376716Y433794D01*
X376437Y434469D01*
X375992Y435048D01*
X375413Y435492D01*
X374739Y435771D01*
X374516Y435801D01*
D02*
G37*
G36*
X373516D02*
X373292Y435771D01*
X372618Y435492D01*
X372039Y435048D01*
X371595Y434469D01*
X371316Y433794D01*
X371286Y433571D01*
X373516D01*
Y435801D01*
D02*
G37*
G36*
X335146D02*
Y433571D01*
X337375D01*
X337346Y433794D01*
X337067Y434469D01*
X336622Y435048D01*
X336044Y435492D01*
X335369Y435771D01*
X335146Y435801D01*
D02*
G37*
G36*
X334146D02*
X333922Y435771D01*
X333248Y435492D01*
X332669Y435048D01*
X332225Y434469D01*
X331945Y433794D01*
X331916Y433571D01*
X334146D01*
Y435801D01*
D02*
G37*
G36*
X295776D02*
Y433571D01*
X298005D01*
X297976Y433794D01*
X297697Y434469D01*
X297252Y435048D01*
X296673Y435492D01*
X295999Y435771D01*
X295776Y435801D01*
D02*
G37*
G36*
X294776D02*
X294552Y435771D01*
X293878Y435492D01*
X293299Y435048D01*
X292855Y434469D01*
X292575Y433794D01*
X292546Y433571D01*
X294776D01*
Y435801D01*
D02*
G37*
G36*
X256405D02*
Y433571D01*
X258635D01*
X258606Y433794D01*
X258327Y434469D01*
X257882Y435048D01*
X257303Y435492D01*
X256629Y435771D01*
X256405Y435801D01*
D02*
G37*
G36*
X255405D02*
X255182Y435771D01*
X254508Y435492D01*
X253929Y435048D01*
X253485Y434469D01*
X253205Y433794D01*
X253176Y433571D01*
X255405D01*
Y435801D01*
D02*
G37*
G36*
X217035D02*
Y433571D01*
X219265D01*
X219236Y433794D01*
X218956Y434469D01*
X218512Y435048D01*
X217933Y435492D01*
X217259Y435771D01*
X217035Y435801D01*
D02*
G37*
G36*
X216035D02*
X215812Y435771D01*
X215138Y435492D01*
X214559Y435048D01*
X214114Y434469D01*
X213835Y433794D01*
X213806Y433571D01*
X216035D01*
Y435801D01*
D02*
G37*
G36*
X494856Y432571D02*
X492626D01*
Y430341D01*
X492849Y430371D01*
X493524Y430650D01*
X494103Y431094D01*
X494547Y431673D01*
X494826Y432347D01*
X494856Y432571D01*
D02*
G37*
G36*
X491626D02*
X489396D01*
X489426Y432347D01*
X489705Y431673D01*
X490149Y431094D01*
X490728Y430650D01*
X491402Y430371D01*
X491626Y430341D01*
Y432571D01*
D02*
G37*
G36*
X416116D02*
X413886D01*
Y430341D01*
X414109Y430371D01*
X414784Y430650D01*
X415363Y431094D01*
X415807Y431673D01*
X416086Y432347D01*
X416116Y432571D01*
D02*
G37*
G36*
X412886D02*
X410656D01*
X410685Y432347D01*
X410965Y431673D01*
X411409Y431094D01*
X411988Y430650D01*
X412662Y430371D01*
X412886Y430341D01*
Y432571D01*
D02*
G37*
G36*
X376746D02*
X374516D01*
Y430341D01*
X374739Y430371D01*
X375413Y430650D01*
X375992Y431094D01*
X376437Y431673D01*
X376716Y432347D01*
X376746Y432571D01*
D02*
G37*
G36*
X373516D02*
X371286D01*
X371316Y432347D01*
X371595Y431673D01*
X372039Y431094D01*
X372618Y430650D01*
X373292Y430371D01*
X373516Y430341D01*
Y432571D01*
D02*
G37*
G36*
X337375D02*
X335146D01*
Y430341D01*
X335369Y430371D01*
X336044Y430650D01*
X336622Y431094D01*
X337067Y431673D01*
X337346Y432347D01*
X337375Y432571D01*
D02*
G37*
G36*
X334146D02*
X331916D01*
X331945Y432347D01*
X332225Y431673D01*
X332669Y431094D01*
X333248Y430650D01*
X333922Y430371D01*
X334146Y430341D01*
Y432571D01*
D02*
G37*
G36*
X298005D02*
X295776D01*
Y430341D01*
X295999Y430371D01*
X296673Y430650D01*
X297252Y431094D01*
X297697Y431673D01*
X297976Y432347D01*
X298005Y432571D01*
D02*
G37*
G36*
X294776D02*
X292546D01*
X292575Y432347D01*
X292855Y431673D01*
X293299Y431094D01*
X293878Y430650D01*
X294552Y430371D01*
X294776Y430341D01*
Y432571D01*
D02*
G37*
G36*
X258635D02*
X256405D01*
Y430341D01*
X256629Y430371D01*
X257303Y430650D01*
X257882Y431094D01*
X258327Y431673D01*
X258606Y432347D01*
X258635Y432571D01*
D02*
G37*
G36*
X255405D02*
X253176D01*
X253205Y432347D01*
X253485Y431673D01*
X253929Y431094D01*
X254508Y430650D01*
X255182Y430371D01*
X255405Y430341D01*
Y432571D01*
D02*
G37*
G36*
X219265D02*
X217035D01*
Y430341D01*
X217259Y430371D01*
X217933Y430650D01*
X218512Y431094D01*
X218956Y431673D01*
X219236Y432347D01*
X219265Y432571D01*
D02*
G37*
G36*
X216035D02*
X213806D01*
X213835Y432347D01*
X214114Y431673D01*
X214559Y431094D01*
X215138Y430650D01*
X215812Y430371D01*
X216035Y430341D01*
Y432571D01*
D02*
G37*
G36*
X481531Y431158D02*
X478382D01*
X477454Y431036D01*
X476590Y430678D01*
X475848Y430109D01*
X475279Y429366D01*
X474921Y428502D01*
X474798Y427575D01*
X474921Y426647D01*
X475279Y425783D01*
X475848Y425041D01*
X476590Y424472D01*
X477454Y424114D01*
X478382Y423991D01*
X481531D01*
X482459Y424114D01*
X483323Y424472D01*
X484065Y425041D01*
X484635Y425783D01*
X484993Y426647D01*
X485115Y427575D01*
X484993Y428502D01*
X484635Y429366D01*
X484065Y430109D01*
X483323Y430678D01*
X482459Y431036D01*
X481531Y431158D01*
D02*
G37*
G36*
X460035D02*
X452949D01*
X452021Y431036D01*
X451157Y430678D01*
X450415Y430109D01*
X449846Y429366D01*
X449487Y428502D01*
X449365Y427575D01*
X449487Y426647D01*
X449846Y425783D01*
X450415Y425041D01*
X451157Y424472D01*
X452021Y424114D01*
X452949Y423991D01*
X460035D01*
X460963Y424114D01*
X461827Y424472D01*
X462569Y425041D01*
X463139Y425783D01*
X463497Y426647D01*
X463619Y427575D01*
X463497Y428502D01*
X463139Y429366D01*
X462569Y430109D01*
X461827Y430678D01*
X460963Y431036D01*
X460035Y431158D01*
D02*
G37*
G36*
X480000Y417230D02*
Y415000D01*
X482230D01*
X482200Y415224D01*
X481921Y415898D01*
X481477Y416477D01*
X480898Y416921D01*
X480224Y417200D01*
X480000Y417230D01*
D02*
G37*
G36*
X479000D02*
X478777Y417200D01*
X478102Y416921D01*
X477523Y416477D01*
X477079Y415898D01*
X476800Y415224D01*
X476770Y415000D01*
X479000D01*
Y417230D01*
D02*
G37*
G36*
X482230Y414000D02*
X480000D01*
Y411770D01*
X480224Y411800D01*
X480898Y412079D01*
X481477Y412523D01*
X481921Y413102D01*
X482200Y413776D01*
X482230Y414000D01*
D02*
G37*
G36*
X479000D02*
X476770D01*
X476800Y413776D01*
X477079Y413102D01*
X477523Y412523D01*
X478102Y412079D01*
X478777Y411800D01*
X479000Y411770D01*
Y414000D01*
D02*
G37*
G36*
X203053Y417053D02*
X195947D01*
Y409947D01*
X203053D01*
Y417053D01*
D02*
G37*
G36*
X259500Y423622D02*
X259500Y423622D01*
X198500D01*
X198071Y423536D01*
X197707Y423293D01*
X197707Y423293D01*
X192088Y417674D01*
X192033Y417656D01*
X191905Y417545D01*
X191783Y417466D01*
X191626Y417388D01*
X191433Y417316D01*
X191204Y417251D01*
X190939Y417196D01*
X190646Y417154D01*
X189929Y417105D01*
X189525Y417102D01*
X189472Y417080D01*
X188573Y416961D01*
X187708Y416603D01*
X186966Y416034D01*
X186397Y415292D01*
X186039Y414428D01*
X185917Y413500D01*
X186039Y412572D01*
X186397Y411708D01*
X186966Y410966D01*
X187708Y410397D01*
X188573Y410039D01*
X189500Y409917D01*
X190427Y410039D01*
X191292Y410397D01*
X192034Y410966D01*
X192603Y411708D01*
X192961Y412572D01*
X193080Y413472D01*
X193102Y413525D01*
X193105Y413929D01*
X193154Y414646D01*
X193196Y414939D01*
X193251Y415204D01*
X193316Y415433D01*
X193388Y415626D01*
X193466Y415783D01*
X193545Y415905D01*
X193656Y416033D01*
X193674Y416088D01*
X198965Y421378D01*
X259035D01*
X269354Y411060D01*
X269377Y410998D01*
X269731Y410618D01*
X269845Y410475D01*
X269931Y410353D01*
X269947Y410325D01*
Y410088D01*
X269922Y410027D01*
X269943Y409976D01*
X269930Y409923D01*
X269947Y409895D01*
Y404947D01*
X277053D01*
Y412053D01*
X272105D01*
X272077Y412070D01*
X272024Y412057D01*
X271973Y412078D01*
X271912Y412053D01*
X271675D01*
X271647Y412069D01*
X271532Y412150D01*
X271202Y412430D01*
X271010Y412615D01*
X270946Y412640D01*
X260293Y423293D01*
X259929Y423536D01*
X259500Y423622D01*
D02*
G37*
G36*
X267053Y412053D02*
X259947D01*
Y404947D01*
X267053D01*
Y412053D01*
D02*
G37*
G36*
X199500Y407083D02*
X198573Y406961D01*
X197708Y406603D01*
X196966Y406034D01*
X196397Y405292D01*
X196039Y404427D01*
X195917Y403500D01*
X196039Y402573D01*
X196397Y401708D01*
X196966Y400966D01*
X197708Y400397D01*
X198573Y400039D01*
X199500Y399917D01*
X200427Y400039D01*
X201292Y400397D01*
X202034Y400966D01*
X202603Y401708D01*
X202961Y402573D01*
X203083Y403500D01*
X202961Y404427D01*
X202603Y405292D01*
X202034Y406034D01*
X201292Y406603D01*
X200427Y406961D01*
X199500Y407083D01*
D02*
G37*
G36*
X189500D02*
X188573Y406961D01*
X187708Y406603D01*
X186966Y406034D01*
X186397Y405292D01*
X186039Y404427D01*
X185917Y403500D01*
X186039Y402573D01*
X186397Y401708D01*
X186966Y400966D01*
X187708Y400397D01*
X188573Y400039D01*
X189500Y399917D01*
X190427Y400039D01*
X191292Y400397D01*
X192034Y400966D01*
X192603Y401708D01*
X192961Y402573D01*
X193083Y403500D01*
X192961Y404427D01*
X192603Y405292D01*
X192034Y406034D01*
X191292Y406603D01*
X190427Y406961D01*
X189500Y407083D01*
D02*
G37*
G36*
X273500Y402083D02*
X272573Y401961D01*
X271708Y401603D01*
X270966Y401034D01*
X270397Y400292D01*
X270039Y399427D01*
X269917Y398500D01*
X270039Y397573D01*
X270397Y396708D01*
X270966Y395966D01*
X271708Y395397D01*
X272573Y395039D01*
X273500Y394917D01*
X274427Y395039D01*
X275292Y395397D01*
X276034Y395966D01*
X276603Y396708D01*
X276961Y397573D01*
X277083Y398500D01*
X276961Y399427D01*
X276603Y400292D01*
X276034Y401034D01*
X275292Y401603D01*
X274427Y401961D01*
X273500Y402083D01*
D02*
G37*
G36*
X263500D02*
X262573Y401961D01*
X261708Y401603D01*
X260966Y401034D01*
X260397Y400292D01*
X260039Y399427D01*
X259917Y398500D01*
X260039Y397573D01*
X260397Y396708D01*
X260966Y395966D01*
X261708Y395397D01*
X262573Y395039D01*
X263500Y394917D01*
X264427Y395039D01*
X265292Y395397D01*
X266034Y395966D01*
X266603Y396708D01*
X266961Y397573D01*
X267083Y398500D01*
X266961Y399427D01*
X266603Y400292D01*
X266034Y401034D01*
X265292Y401603D01*
X264427Y401961D01*
X263500Y402083D01*
D02*
G37*
G36*
X433571Y396430D02*
Y394201D01*
X435801D01*
X435771Y394424D01*
X435492Y395099D01*
X435048Y395678D01*
X434469Y396122D01*
X433794Y396401D01*
X433571Y396430D01*
D02*
G37*
G36*
X432571D02*
X432347Y396401D01*
X431673Y396122D01*
X431094Y395678D01*
X430650Y395099D01*
X430371Y394424D01*
X430341Y394201D01*
X432571D01*
Y396430D01*
D02*
G37*
G36*
X354831D02*
Y394201D01*
X357061D01*
X357031Y394424D01*
X356752Y395099D01*
X356308Y395678D01*
X355729Y396122D01*
X355054Y396401D01*
X354831Y396430D01*
D02*
G37*
G36*
X353831D02*
X353607Y396401D01*
X352933Y396122D01*
X352354Y395678D01*
X351910Y395099D01*
X351630Y394424D01*
X351601Y394201D01*
X353831D01*
Y396430D01*
D02*
G37*
G36*
X483000Y395918D02*
X482075Y395734D01*
X481290Y395210D01*
X480766Y394425D01*
X480629Y393735D01*
X480098Y393629D01*
X479710Y394210D01*
X478925Y394734D01*
X478000Y394918D01*
X477075Y394734D01*
X476290Y394210D01*
X475766Y393425D01*
X475582Y392500D01*
X475766Y391575D01*
X476290Y390790D01*
X477075Y390266D01*
X478000Y390082D01*
X478000Y390082D01*
X478007Y390079D01*
X478190Y390076D01*
X478343Y390064D01*
X478482Y390045D01*
X478609Y390018D01*
X478723Y389984D01*
X478825Y389945D01*
X478916Y389900D01*
X478998Y389850D01*
X479072Y389795D01*
X479163Y389712D01*
X479223Y389691D01*
X489652Y379261D01*
X489679Y379195D01*
X489865Y379007D01*
X490486Y378334D01*
X490704Y378068D01*
X490871Y377837D01*
X490935Y377736D01*
X490944Y377730D01*
X490946Y377720D01*
X491048Y377653D01*
X491290Y377290D01*
X492075Y376766D01*
X493000Y376582D01*
X493925Y376766D01*
X494710Y377290D01*
X495234Y378075D01*
X495418Y379000D01*
X495234Y379925D01*
X494710Y380710D01*
X493925Y381234D01*
X493000Y381418D01*
X492075Y381234D01*
X491680Y380971D01*
X491561Y380946D01*
X491468Y380883D01*
X491421Y380859D01*
X491390Y380849D01*
X491372Y380846D01*
X491359Y380847D01*
X491341Y380850D01*
X491310Y380862D01*
X491263Y380888D01*
X491199Y380934D01*
X491101Y381024D01*
X491041Y381046D01*
X491022Y381065D01*
X490992Y381104D01*
X490980Y381106D01*
X480809Y391277D01*
X480788Y391337D01*
X480705Y391428D01*
X480650Y391502D01*
X480600Y391584D01*
X480555Y391675D01*
X480545Y391701D01*
X480583Y391949D01*
X481106Y392065D01*
X481290Y391790D01*
X482075Y391266D01*
X483000Y391082D01*
X483000Y391082D01*
X483006Y391079D01*
X483190Y391076D01*
X483343Y391064D01*
X483482Y391045D01*
X483609Y391018D01*
X483723Y390984D01*
X483825Y390945D01*
X483916Y390900D01*
X483998Y390850D01*
X484072Y390795D01*
X484163Y390712D01*
X484223Y390691D01*
X487046Y387867D01*
X487069Y387807D01*
X487149Y387719D01*
X487210Y387641D01*
X487270Y387550D01*
X487329Y387447D01*
X487386Y387330D01*
X487440Y387200D01*
X487489Y387062D01*
X487585Y386719D01*
X487625Y386529D01*
X487696Y386426D01*
X487766Y386075D01*
X488290Y385290D01*
X489075Y384766D01*
X490000Y384582D01*
X490925Y384766D01*
X491710Y385290D01*
X492234Y386075D01*
X492418Y387000D01*
X492234Y387925D01*
X491710Y388710D01*
X490925Y389234D01*
X490000Y389418D01*
X489635Y389346D01*
X489516Y389372D01*
X489355Y389343D01*
X489229Y389331D01*
X489116Y389330D01*
X489016Y389338D01*
X488926Y389355D01*
X488846Y389380D01*
X488771Y389411D01*
X488701Y389452D01*
X488632Y389502D01*
X488539Y389586D01*
X488488Y389604D01*
X488457Y389649D01*
X488433Y389653D01*
X485809Y392277D01*
X485788Y392337D01*
X485705Y392428D01*
X485650Y392502D01*
X485600Y392584D01*
X485555Y392675D01*
X485516Y392777D01*
X485482Y392891D01*
X485455Y393018D01*
X485436Y393157D01*
X485424Y393310D01*
X485421Y393494D01*
X485418Y393500D01*
X485418Y393500D01*
X485234Y394425D01*
X484710Y395210D01*
X483925Y395734D01*
X483000Y395918D01*
D02*
G37*
G36*
X435801Y393201D02*
X433571D01*
Y390971D01*
X433794Y391001D01*
X434469Y391280D01*
X435048Y391724D01*
X435492Y392303D01*
X435771Y392977D01*
X435801Y393201D01*
D02*
G37*
G36*
X432571D02*
X430341D01*
X430371Y392977D01*
X430650Y392303D01*
X431094Y391724D01*
X431673Y391280D01*
X432347Y391001D01*
X432571Y390971D01*
Y393201D01*
D02*
G37*
G36*
X357061D02*
X354831D01*
Y390971D01*
X355054Y391001D01*
X355729Y391280D01*
X356308Y391724D01*
X356752Y392303D01*
X357031Y392977D01*
X357061Y393201D01*
D02*
G37*
G36*
X353831D02*
X351601D01*
X351630Y392977D01*
X351910Y392303D01*
X352354Y391724D01*
X352933Y391280D01*
X353607Y391001D01*
X353831Y390971D01*
Y393201D01*
D02*
G37*
G36*
X199500Y397083D02*
X198573Y396961D01*
X197708Y396603D01*
X196966Y396034D01*
X196397Y395292D01*
X196039Y394427D01*
X195917Y393500D01*
X196039Y392573D01*
X196397Y391708D01*
X196966Y390966D01*
X197708Y390397D01*
X198573Y390039D01*
X199500Y389917D01*
X200427Y390039D01*
X201292Y390397D01*
X202034Y390966D01*
X202603Y391708D01*
X202961Y392573D01*
X203083Y393500D01*
X202961Y394427D01*
X202603Y395292D01*
X202034Y396034D01*
X201292Y396603D01*
X200427Y396961D01*
X199500Y397083D01*
D02*
G37*
G36*
X189500D02*
X188573Y396961D01*
X187708Y396603D01*
X186966Y396034D01*
X186397Y395292D01*
X186039Y394427D01*
X185917Y393500D01*
X186039Y392573D01*
X186397Y391708D01*
X186966Y390966D01*
X187708Y390397D01*
X188573Y390039D01*
X189500Y389917D01*
X190427Y390039D01*
X191292Y390397D01*
X192034Y390966D01*
X192603Y391708D01*
X192961Y392573D01*
X193083Y393500D01*
X192961Y394427D01*
X192603Y395292D01*
X192034Y396034D01*
X191292Y396603D01*
X190427Y396961D01*
X189500Y397083D01*
D02*
G37*
G36*
X263500Y392083D02*
X262573Y391961D01*
X261708Y391603D01*
X260966Y391034D01*
X260397Y390292D01*
X260039Y389427D01*
X259917Y388500D01*
X260039Y387573D01*
X260397Y386708D01*
X260966Y385966D01*
X261708Y385397D01*
X262573Y385039D01*
X263500Y384917D01*
X264427Y385039D01*
X265292Y385397D01*
X266034Y385966D01*
X266603Y386708D01*
X266961Y387573D01*
X267083Y388500D01*
X266961Y389427D01*
X266603Y390292D01*
X266034Y391034D01*
X265292Y391603D01*
X264427Y391961D01*
X263500Y392083D01*
D02*
G37*
G36*
X199500Y387083D02*
X198573Y386961D01*
X197708Y386603D01*
X196966Y386034D01*
X196397Y385292D01*
X196039Y384427D01*
X195917Y383500D01*
X196039Y382573D01*
X196397Y381708D01*
X196966Y380966D01*
X197708Y380397D01*
X198573Y380039D01*
X199500Y379917D01*
X200427Y380039D01*
X201292Y380397D01*
X202034Y380966D01*
X202603Y381708D01*
X202961Y382573D01*
X203083Y383500D01*
X202961Y384427D01*
X202603Y385292D01*
X202034Y386034D01*
X201292Y386603D01*
X200427Y386961D01*
X199500Y387083D01*
D02*
G37*
G36*
X189500D02*
X188573Y386961D01*
X187708Y386603D01*
X186966Y386034D01*
X186397Y385292D01*
X186039Y384427D01*
X185917Y383500D01*
X186039Y382573D01*
X186397Y381708D01*
X186966Y380966D01*
X187708Y380397D01*
X188573Y380039D01*
X189500Y379917D01*
X190427Y380039D01*
X191292Y380397D01*
X192034Y380966D01*
X192603Y381708D01*
X192961Y382573D01*
X193083Y383500D01*
X192961Y384427D01*
X192603Y385292D01*
X192034Y386034D01*
X191292Y386603D01*
X190427Y386961D01*
X189500Y387083D01*
D02*
G37*
G36*
X263500Y382083D02*
X262573Y381961D01*
X261708Y381603D01*
X260966Y381034D01*
X260397Y380292D01*
X260039Y379427D01*
X259917Y378500D01*
X260039Y377573D01*
X260397Y376708D01*
X260966Y375966D01*
X261708Y375397D01*
X262573Y375039D01*
X263500Y374917D01*
X264427Y375039D01*
X265292Y375397D01*
X266034Y375966D01*
X266603Y376708D01*
X266961Y377573D01*
X267083Y378500D01*
X266961Y379427D01*
X266603Y380292D01*
X266034Y381034D01*
X265292Y381603D01*
X264427Y381961D01*
X263500Y382083D01*
D02*
G37*
G36*
X200000Y377421D02*
Y374000D01*
X203421D01*
X203351Y374532D01*
X202953Y375493D01*
X202319Y376319D01*
X201493Y376953D01*
X200532Y377351D01*
X200000Y377421D01*
D02*
G37*
G36*
X190000D02*
Y374000D01*
X193421D01*
X193351Y374532D01*
X192953Y375493D01*
X192319Y376319D01*
X191493Y376953D01*
X190532Y377351D01*
X190000Y377421D01*
D02*
G37*
G36*
X199000D02*
X198468Y377351D01*
X197507Y376953D01*
X196681Y376319D01*
X196047Y375493D01*
X195649Y374532D01*
X195579Y374000D01*
X199000D01*
Y377421D01*
D02*
G37*
G36*
X189000D02*
X188468Y377351D01*
X187507Y376953D01*
X186681Y376319D01*
X186047Y375493D01*
X185649Y374532D01*
X185579Y374000D01*
X189000D01*
Y377421D01*
D02*
G37*
G36*
X203421Y373000D02*
X200000D01*
Y369579D01*
X200532Y369649D01*
X201493Y370047D01*
X202319Y370681D01*
X202953Y371507D01*
X203351Y372468D01*
X203421Y373000D01*
D02*
G37*
G36*
X193421D02*
X190000D01*
Y369579D01*
X190532Y369649D01*
X191493Y370047D01*
X192319Y370681D01*
X192953Y371507D01*
X193351Y372468D01*
X193421Y373000D01*
D02*
G37*
G36*
X199000D02*
X195579D01*
X195649Y372468D01*
X196047Y371507D01*
X196681Y370681D01*
X197507Y370047D01*
X198468Y369649D01*
X199000Y369579D01*
Y373000D01*
D02*
G37*
G36*
X189000D02*
X185579D01*
X185649Y372468D01*
X186047Y371507D01*
X186681Y370681D01*
X187507Y370047D01*
X188468Y369649D01*
X189000Y369579D01*
Y373000D01*
D02*
G37*
G36*
X274000Y372421D02*
Y369000D01*
X277421D01*
X277351Y369532D01*
X276953Y370493D01*
X276319Y371319D01*
X275493Y371953D01*
X274532Y372351D01*
X274000Y372421D01*
D02*
G37*
G36*
X273000D02*
X272468Y372351D01*
X271507Y371953D01*
X270681Y371319D01*
X270047Y370493D01*
X269649Y369532D01*
X269579Y369000D01*
X273000D01*
Y372421D01*
D02*
G37*
G36*
X264000D02*
Y369000D01*
X267421D01*
X267351Y369532D01*
X266953Y370493D01*
X266319Y371319D01*
X265493Y371953D01*
X264532Y372351D01*
X264000Y372421D01*
D02*
G37*
G36*
X263000D02*
X262468Y372351D01*
X261507Y371953D01*
X260681Y371319D01*
X260047Y370493D01*
X259649Y369532D01*
X259579Y369000D01*
X263000D01*
Y372421D01*
D02*
G37*
G36*
X481531Y374072D02*
X478382D01*
X477454Y373950D01*
X476590Y373591D01*
X475848Y373022D01*
X475279Y372280D01*
X474921Y371416D01*
X474798Y370488D01*
X474921Y369561D01*
X475279Y368696D01*
X475848Y367954D01*
X476590Y367385D01*
X477454Y367027D01*
X478382Y366905D01*
X481531D01*
X482459Y367027D01*
X483323Y367385D01*
X484065Y367954D01*
X484635Y368696D01*
X484993Y369561D01*
X485115Y370488D01*
X484993Y371416D01*
X484635Y372280D01*
X484065Y373022D01*
X483323Y373591D01*
X482459Y373950D01*
X481531Y374072D01*
D02*
G37*
G36*
X460035D02*
X452949D01*
X452021Y373950D01*
X451157Y373591D01*
X450415Y373022D01*
X449846Y372280D01*
X449487Y371416D01*
X449365Y370488D01*
X449487Y369561D01*
X449846Y368696D01*
X450415Y367954D01*
X451157Y367385D01*
X452021Y367027D01*
X452949Y366905D01*
X460035D01*
X460963Y367027D01*
X461827Y367385D01*
X462569Y367954D01*
X463139Y368696D01*
X463497Y369561D01*
X463619Y370488D01*
X463497Y371416D01*
X463139Y372280D01*
X462569Y373022D01*
X461827Y373591D01*
X460963Y373950D01*
X460035Y374072D01*
D02*
G37*
G36*
X273500Y392083D02*
X272573Y391961D01*
X271708Y391603D01*
X270966Y391034D01*
X270397Y390292D01*
X270039Y389427D01*
X269917Y388500D01*
X270039Y387573D01*
X270397Y386708D01*
X270966Y385966D01*
X271708Y385397D01*
X272573Y385039D01*
X273500Y384917D01*
X274427Y385039D01*
X275292Y385397D01*
X275985Y385929D01*
X295207Y366707D01*
X295207Y366707D01*
X295571Y366464D01*
X296000Y366378D01*
X296000Y366378D01*
X315149D01*
X315206Y366351D01*
X315329Y366345D01*
X315421Y366332D01*
X315514Y366309D01*
X315610Y366276D01*
X315710Y366232D01*
X315814Y366175D01*
X315923Y366105D01*
X316035Y366020D01*
X316152Y365920D01*
X316284Y365793D01*
X316290Y365790D01*
X316290Y365790D01*
X317075Y365266D01*
X318000Y365082D01*
X318925Y365266D01*
X319710Y365790D01*
X320234Y366575D01*
X320418Y367500D01*
X320234Y368425D01*
X319710Y369210D01*
X318925Y369734D01*
X318000Y369918D01*
X317075Y369734D01*
X316290Y369210D01*
X316290Y369210D01*
X316284Y369207D01*
X316152Y369080D01*
X316035Y368980D01*
X315923Y368895D01*
X315814Y368825D01*
X315710Y368768D01*
X315610Y368724D01*
X315514Y368691D01*
X315421Y368668D01*
X315329Y368655D01*
X315206Y368649D01*
X315149Y368621D01*
X296465D01*
X277192Y387895D01*
X277019Y388010D01*
X277083Y388500D01*
X276961Y389427D01*
X276603Y390292D01*
X276034Y391034D01*
X275292Y391603D01*
X274427Y391961D01*
X273500Y392083D01*
D02*
G37*
G36*
X277421Y368000D02*
X274000D01*
Y364579D01*
X274532Y364649D01*
X275493Y365047D01*
X276319Y365681D01*
X276953Y366507D01*
X277351Y367468D01*
X277421Y368000D01*
D02*
G37*
G36*
X273000D02*
X269579D01*
X269649Y367468D01*
X270047Y366507D01*
X270681Y365681D01*
X271507Y365047D01*
X272468Y364649D01*
X273000Y364579D01*
Y368000D01*
D02*
G37*
G36*
X267421D02*
X264000D01*
Y364579D01*
X264532Y364649D01*
X265493Y365047D01*
X266319Y365681D01*
X266953Y366507D01*
X267351Y367468D01*
X267421Y368000D01*
D02*
G37*
G36*
X263000D02*
X259579D01*
X259649Y367468D01*
X260047Y366507D01*
X260681Y365681D01*
X261507Y365047D01*
X262468Y364649D01*
X263000Y364579D01*
Y368000D01*
D02*
G37*
G36*
X273500Y382083D02*
X272573Y381961D01*
X271708Y381603D01*
X270966Y381034D01*
X270397Y380292D01*
X270039Y379427D01*
X269917Y378500D01*
X270039Y377573D01*
X270397Y376708D01*
X270966Y375966D01*
X271708Y375397D01*
X272573Y375039D01*
X273472Y374920D01*
X273525Y374898D01*
X273929Y374895D01*
X274646Y374846D01*
X274939Y374804D01*
X275204Y374749D01*
X275433Y374684D01*
X275626Y374612D01*
X275783Y374534D01*
X275905Y374455D01*
X276033Y374344D01*
X276088Y374326D01*
X290707Y359707D01*
X290707Y359707D01*
X291071Y359464D01*
X291500Y359379D01*
X316149D01*
X316206Y359351D01*
X316329Y359345D01*
X316421Y359332D01*
X316514Y359309D01*
X316610Y359276D01*
X316710Y359232D01*
X316814Y359175D01*
X316923Y359105D01*
X317035Y359020D01*
X317152Y358920D01*
X317284Y358793D01*
X317290Y358790D01*
X317290Y358790D01*
X318075Y358266D01*
X319000Y358082D01*
X319925Y358266D01*
X320710Y358790D01*
X321234Y359575D01*
X321418Y360500D01*
X321234Y361425D01*
X320710Y362210D01*
X319925Y362734D01*
X319000Y362918D01*
X318075Y362734D01*
X317290Y362210D01*
X317290Y362210D01*
X317284Y362207D01*
X317152Y362080D01*
X317035Y361980D01*
X316923Y361895D01*
X316814Y361825D01*
X316710Y361768D01*
X316610Y361724D01*
X316514Y361691D01*
X316421Y361668D01*
X316329Y361655D01*
X316206Y361649D01*
X316149Y361621D01*
X291965D01*
X277674Y375912D01*
X277656Y375967D01*
X277545Y376095D01*
X277466Y376217D01*
X277388Y376374D01*
X277316Y376567D01*
X277251Y376796D01*
X277196Y377061D01*
X277154Y377354D01*
X277105Y378071D01*
X277102Y378475D01*
X277080Y378528D01*
X276961Y379427D01*
X276603Y380292D01*
X276034Y381034D01*
X275292Y381603D01*
X274427Y381961D01*
X273500Y382083D01*
D02*
G37*
G36*
X453256Y357061D02*
Y354831D01*
X455486D01*
X455456Y355054D01*
X455177Y355729D01*
X454733Y356308D01*
X454154Y356752D01*
X453479Y357031D01*
X453256Y357061D01*
D02*
G37*
G36*
X452256D02*
X452032Y357031D01*
X451358Y356752D01*
X450779Y356308D01*
X450335Y355729D01*
X450056Y355054D01*
X450026Y354831D01*
X452256D01*
Y357061D01*
D02*
G37*
G36*
X413886D02*
Y354831D01*
X416116D01*
X416086Y355054D01*
X415807Y355729D01*
X415363Y356308D01*
X414784Y356752D01*
X414109Y357031D01*
X413886Y357061D01*
D02*
G37*
G36*
X412886D02*
X412662Y357031D01*
X411988Y356752D01*
X411409Y356308D01*
X410965Y355729D01*
X410685Y355054D01*
X410656Y354831D01*
X412886D01*
Y357061D01*
D02*
G37*
G36*
X374516D02*
Y354831D01*
X376746D01*
X376716Y355054D01*
X376437Y355729D01*
X375992Y356308D01*
X375413Y356752D01*
X374739Y357031D01*
X374516Y357061D01*
D02*
G37*
G36*
X373516D02*
X373292Y357031D01*
X372618Y356752D01*
X372039Y356308D01*
X371595Y355729D01*
X371316Y355054D01*
X371286Y354831D01*
X373516D01*
Y357061D01*
D02*
G37*
G36*
X335146D02*
Y354831D01*
X337375D01*
X337346Y355054D01*
X337067Y355729D01*
X336622Y356308D01*
X336044Y356752D01*
X335369Y357031D01*
X335146Y357061D01*
D02*
G37*
G36*
X334146D02*
X333922Y357031D01*
X333248Y356752D01*
X332669Y356308D01*
X332225Y355729D01*
X331945Y355054D01*
X331916Y354831D01*
X334146D01*
Y357061D01*
D02*
G37*
G36*
X295776D02*
Y354831D01*
X298005D01*
X297976Y355054D01*
X297697Y355729D01*
X297252Y356308D01*
X296673Y356752D01*
X295999Y357031D01*
X295776Y357061D01*
D02*
G37*
G36*
X294776D02*
X294552Y357031D01*
X293878Y356752D01*
X293299Y356308D01*
X292855Y355729D01*
X292575Y355054D01*
X292546Y354831D01*
X294776D01*
Y357061D01*
D02*
G37*
G36*
X256405D02*
Y354831D01*
X258635D01*
X258606Y355054D01*
X258327Y355729D01*
X257882Y356308D01*
X257303Y356752D01*
X256629Y357031D01*
X256405Y357061D01*
D02*
G37*
G36*
X255405D02*
X255182Y357031D01*
X254508Y356752D01*
X253929Y356308D01*
X253485Y355729D01*
X253205Y355054D01*
X253176Y354831D01*
X255405D01*
Y357061D01*
D02*
G37*
G36*
X217035D02*
Y354831D01*
X219265D01*
X219236Y355054D01*
X218956Y355729D01*
X218512Y356308D01*
X217933Y356752D01*
X217259Y357031D01*
X217035Y357061D01*
D02*
G37*
G36*
X216035D02*
X215812Y357031D01*
X215138Y356752D01*
X214559Y356308D01*
X214114Y355729D01*
X213835Y355054D01*
X213806Y354831D01*
X216035D01*
Y357061D01*
D02*
G37*
G36*
X455486Y353831D02*
X453256D01*
Y351601D01*
X453479Y351630D01*
X454154Y351910D01*
X454733Y352354D01*
X455177Y352933D01*
X455456Y353607D01*
X455486Y353831D01*
D02*
G37*
G36*
X452256D02*
X450026D01*
X450056Y353607D01*
X450335Y352933D01*
X450779Y352354D01*
X451358Y351910D01*
X452032Y351630D01*
X452256Y351601D01*
Y353831D01*
D02*
G37*
G36*
X416116D02*
X413886D01*
Y351601D01*
X414109Y351630D01*
X414784Y351910D01*
X415363Y352354D01*
X415807Y352933D01*
X416086Y353607D01*
X416116Y353831D01*
D02*
G37*
G36*
X412886D02*
X410656D01*
X410685Y353607D01*
X410965Y352933D01*
X411409Y352354D01*
X411988Y351910D01*
X412662Y351630D01*
X412886Y351601D01*
Y353831D01*
D02*
G37*
G36*
X376746D02*
X374516D01*
Y351601D01*
X374739Y351630D01*
X375413Y351910D01*
X375992Y352354D01*
X376437Y352933D01*
X376716Y353607D01*
X376746Y353831D01*
D02*
G37*
G36*
X373516D02*
X371286D01*
X371316Y353607D01*
X371595Y352933D01*
X372039Y352354D01*
X372618Y351910D01*
X373292Y351630D01*
X373516Y351601D01*
Y353831D01*
D02*
G37*
G36*
X337375D02*
X335146D01*
Y351601D01*
X335369Y351630D01*
X336044Y351910D01*
X336622Y352354D01*
X337067Y352933D01*
X337346Y353607D01*
X337375Y353831D01*
D02*
G37*
G36*
X334146D02*
X331916D01*
X331945Y353607D01*
X332225Y352933D01*
X332669Y352354D01*
X333248Y351910D01*
X333922Y351630D01*
X334146Y351601D01*
Y353831D01*
D02*
G37*
G36*
X298005D02*
X295776D01*
Y351601D01*
X295999Y351630D01*
X296673Y351910D01*
X297252Y352354D01*
X297697Y352933D01*
X297976Y353607D01*
X298005Y353831D01*
D02*
G37*
G36*
X294776D02*
X292546D01*
X292575Y353607D01*
X292855Y352933D01*
X293299Y352354D01*
X293878Y351910D01*
X294552Y351630D01*
X294776Y351601D01*
Y353831D01*
D02*
G37*
G36*
X258635D02*
X256405D01*
Y351601D01*
X256629Y351630D01*
X257303Y351910D01*
X257882Y352354D01*
X258327Y352933D01*
X258606Y353607D01*
X258635Y353831D01*
D02*
G37*
G36*
X255405D02*
X253176D01*
X253205Y353607D01*
X253485Y352933D01*
X253929Y352354D01*
X254508Y351910D01*
X255182Y351630D01*
X255405Y351601D01*
Y353831D01*
D02*
G37*
G36*
X219265D02*
X217035D01*
Y351601D01*
X217259Y351630D01*
X217933Y351910D01*
X218512Y352354D01*
X218956Y352933D01*
X219236Y353607D01*
X219265Y353831D01*
D02*
G37*
G36*
X216035D02*
X213806D01*
X213835Y353607D01*
X214114Y352933D01*
X214559Y352354D01*
X215138Y351910D01*
X215812Y351630D01*
X216035Y351601D01*
Y353831D01*
D02*
G37*
G36*
X203053Y327053D02*
X195947D01*
Y319947D01*
X203053D01*
Y327053D01*
D02*
G37*
G36*
X277053Y322053D02*
X269947D01*
Y318799D01*
X269447Y318592D01*
X268746Y319293D01*
X268382Y319536D01*
X267953Y319622D01*
X267953Y319621D01*
X267520D01*
X267458Y319649D01*
X267285Y319654D01*
X267158Y319665D01*
X267061Y319681D01*
X267053Y319683D01*
Y322053D01*
X259947D01*
Y314947D01*
X267053D01*
Y317098D01*
X267466Y317203D01*
X267818Y316908D01*
Y315034D01*
X267818Y315034D01*
X267903Y314605D01*
X268146Y314241D01*
X270227Y312160D01*
X270227Y312160D01*
X270591Y311917D01*
X271020Y311831D01*
X271020Y311831D01*
X271184D01*
X271354Y311331D01*
X270966Y311034D01*
X270397Y310292D01*
X270039Y309427D01*
X269917Y308500D01*
X269980Y308016D01*
X269507Y307782D01*
X268746Y308543D01*
X268382Y308786D01*
X268115Y308839D01*
X267997Y308898D01*
X267828Y308910D01*
X267713Y308934D01*
X267603Y308975D01*
X267493Y309035D01*
X267379Y309118D01*
X267262Y309228D01*
X267141Y309369D01*
X267020Y309542D01*
X266899Y309749D01*
X266771Y310007D01*
X266753Y310023D01*
X266750Y310048D01*
X266684Y310098D01*
X266603Y310292D01*
X266034Y311034D01*
X265292Y311603D01*
X264427Y311961D01*
X263500Y312083D01*
X262573Y311961D01*
X261708Y311603D01*
X260966Y311034D01*
X260397Y310292D01*
X260039Y309427D01*
X259917Y308500D01*
X260039Y307573D01*
X260397Y306708D01*
X260966Y305966D01*
X261708Y305397D01*
X262573Y305039D01*
X263500Y304917D01*
X264427Y305039D01*
X265292Y305397D01*
X265483Y305544D01*
X265570Y305556D01*
X265588Y305579D01*
X265616Y305585D01*
X265906Y305789D01*
X266458Y306130D01*
X266705Y306258D01*
X266945Y306367D01*
X267172Y306454D01*
X267386Y306520D01*
X267558Y306559D01*
X271895Y302222D01*
X271898Y301939D01*
X271820Y301650D01*
X271708Y301603D01*
X270966Y301034D01*
X270397Y300292D01*
X270039Y299427D01*
X269917Y298500D01*
X270039Y297573D01*
X270397Y296708D01*
X270966Y295966D01*
X271708Y295397D01*
X272573Y295039D01*
X273500Y294917D01*
X274427Y295039D01*
X275292Y295397D01*
X276034Y295966D01*
X276603Y296708D01*
X276961Y297573D01*
X277083Y298500D01*
X276961Y299427D01*
X276603Y300292D01*
X276034Y301034D01*
X275646Y301331D01*
X275816Y301831D01*
X287583D01*
X316648Y272766D01*
X317012Y272523D01*
X317441Y272438D01*
X317441Y272438D01*
X356318D01*
X356487Y271937D01*
X356247Y271753D01*
X355741Y271093D01*
X355422Y270325D01*
X355314Y269500D01*
X355422Y268675D01*
X355741Y267907D01*
X356247Y267247D01*
X356487Y267062D01*
X356318Y266563D01*
X297024D01*
X277674Y285912D01*
X277656Y285967D01*
X277545Y286095D01*
X277466Y286217D01*
X277388Y286374D01*
X277316Y286567D01*
X277251Y286796D01*
X277196Y287061D01*
X277154Y287354D01*
X277105Y288071D01*
X277102Y288475D01*
X277080Y288528D01*
X276961Y289427D01*
X276603Y290292D01*
X276034Y291034D01*
X275292Y291603D01*
X274427Y291961D01*
X273500Y292083D01*
X272573Y291961D01*
X271708Y291603D01*
X270966Y291034D01*
X270397Y290292D01*
X270039Y289427D01*
X269917Y288500D01*
X270039Y287573D01*
X270397Y286708D01*
X270966Y285966D01*
X271708Y285397D01*
X272573Y285039D01*
X273472Y284920D01*
X273525Y284898D01*
X273929Y284895D01*
X274646Y284846D01*
X274939Y284804D01*
X275204Y284749D01*
X275433Y284684D01*
X275626Y284612D01*
X275783Y284534D01*
X275905Y284455D01*
X276033Y284344D01*
X276088Y284326D01*
X295766Y264648D01*
X295766Y264648D01*
X296130Y264405D01*
X296559Y264319D01*
X296559Y264319D01*
X365009D01*
X366879Y262450D01*
Y250000D01*
X366878Y250000D01*
X366964Y249571D01*
X367207Y249207D01*
X377707Y238707D01*
X377707Y238707D01*
X378071Y238464D01*
X378500Y238379D01*
X384358D01*
X384412Y238352D01*
X384565Y238342D01*
X384689Y238318D01*
X384829Y238274D01*
X384986Y238207D01*
X385159Y238115D01*
X385346Y237997D01*
X385538Y237857D01*
X385983Y237475D01*
X386218Y237245D01*
X386284Y237218D01*
X386907Y236741D01*
X387675Y236422D01*
X388500Y236314D01*
X389325Y236422D01*
X390093Y236741D01*
X390753Y237247D01*
X391259Y237907D01*
X391578Y238675D01*
X391686Y239500D01*
X391578Y240325D01*
X391259Y241093D01*
X390753Y241753D01*
X390093Y242259D01*
X389325Y242578D01*
X388500Y242686D01*
X387675Y242578D01*
X386907Y242259D01*
X386295Y241790D01*
X386227Y241764D01*
X385750Y241315D01*
X385545Y241147D01*
X385345Y241003D01*
X385159Y240885D01*
X384986Y240793D01*
X384829Y240726D01*
X384689Y240682D01*
X384565Y240658D01*
X384412Y240648D01*
X384358Y240621D01*
X378965D01*
X369122Y250465D01*
Y262326D01*
X369621Y262533D01*
X383447Y248707D01*
X383447Y248707D01*
X383811Y248464D01*
X384240Y248378D01*
X384240Y248378D01*
X384358D01*
X384412Y248352D01*
X384565Y248342D01*
X384689Y248318D01*
X384829Y248274D01*
X384986Y248207D01*
X385159Y248115D01*
X385346Y247997D01*
X385538Y247857D01*
X385983Y247475D01*
X386218Y247245D01*
X386284Y247218D01*
X386907Y246741D01*
X387675Y246422D01*
X388500Y246314D01*
X389325Y246422D01*
X390093Y246741D01*
X390753Y247247D01*
X391259Y247907D01*
X391578Y248675D01*
X391686Y249500D01*
X391578Y250325D01*
X391259Y251093D01*
X390753Y251753D01*
X390093Y252259D01*
X389325Y252578D01*
X388500Y252686D01*
X387675Y252578D01*
X386907Y252259D01*
X386295Y251790D01*
X386227Y251764D01*
X385750Y251315D01*
X385545Y251148D01*
X385345Y251003D01*
X385159Y250885D01*
X384986Y250793D01*
X384829Y250726D01*
X384689Y250682D01*
X384651Y250675D01*
X360974Y274352D01*
X360611Y274595D01*
X360181Y274681D01*
X360181Y274681D01*
X317905D01*
X288840Y303746D01*
X288476Y303989D01*
X288047Y304074D01*
X288047Y304074D01*
X273215D01*
X272782Y304507D01*
X273016Y304980D01*
X273500Y304917D01*
X274427Y305039D01*
X275292Y305397D01*
X276034Y305966D01*
X276603Y306708D01*
X276961Y307573D01*
X277083Y308500D01*
X276961Y309427D01*
X276603Y310292D01*
X276034Y311034D01*
X275646Y311331D01*
X275816Y311831D01*
X352083D01*
X363207Y300707D01*
X363207Y300707D01*
X363571Y300464D01*
X364000Y300378D01*
X364000Y300378D01*
X366035D01*
X384778Y281636D01*
X384797Y281579D01*
X384898Y281464D01*
X384969Y281359D01*
X385037Y281228D01*
X385101Y281070D01*
X385158Y280883D01*
X385207Y280668D01*
X385244Y280433D01*
X385289Y279848D01*
X385292Y279520D01*
X385320Y279453D01*
X385422Y278675D01*
X385741Y277907D01*
X386247Y277247D01*
X386907Y276741D01*
X387675Y276422D01*
X388500Y276314D01*
X389325Y276422D01*
X390093Y276741D01*
X390753Y277247D01*
X391259Y277907D01*
X391578Y278675D01*
X391686Y279500D01*
X391578Y280325D01*
X391259Y281093D01*
X390753Y281753D01*
X390093Y282259D01*
X389325Y282578D01*
X388560Y282678D01*
X388494Y282708D01*
X387839Y282728D01*
X387576Y282755D01*
X387332Y282793D01*
X387117Y282842D01*
X386930Y282899D01*
X386772Y282963D01*
X386641Y283031D01*
X386536Y283102D01*
X386421Y283203D01*
X386364Y283222D01*
X367293Y302293D01*
X366929Y302536D01*
X366500Y302622D01*
X366500Y302622D01*
X364465D01*
X353340Y313746D01*
X352976Y313989D01*
X352547Y314074D01*
X352547Y314074D01*
X271485D01*
X271074Y314485D01*
X271265Y314947D01*
X277053D01*
Y322053D01*
D02*
G37*
G36*
X433571Y317690D02*
Y315461D01*
X435801D01*
X435771Y315684D01*
X435492Y316358D01*
X435048Y316937D01*
X434469Y317382D01*
X433794Y317661D01*
X433571Y317690D01*
D02*
G37*
G36*
X432571D02*
X432347Y317661D01*
X431673Y317382D01*
X431094Y316937D01*
X430650Y316358D01*
X430371Y315684D01*
X430341Y315461D01*
X432571D01*
Y317690D01*
D02*
G37*
G36*
X394201D02*
Y315461D01*
X396430D01*
X396401Y315684D01*
X396122Y316358D01*
X395678Y316937D01*
X395099Y317382D01*
X394424Y317661D01*
X394201Y317690D01*
D02*
G37*
G36*
X393201D02*
X392977Y317661D01*
X392303Y317382D01*
X391724Y316937D01*
X391280Y316358D01*
X391001Y315684D01*
X390971Y315461D01*
X393201D01*
Y317690D01*
D02*
G37*
G36*
X435801Y314461D02*
X433571D01*
Y312231D01*
X433794Y312260D01*
X434469Y312540D01*
X435048Y312984D01*
X435492Y313563D01*
X435771Y314237D01*
X435801Y314461D01*
D02*
G37*
G36*
X432571D02*
X430341D01*
X430371Y314237D01*
X430650Y313563D01*
X431094Y312984D01*
X431673Y312540D01*
X432347Y312260D01*
X432571Y312231D01*
Y314461D01*
D02*
G37*
G36*
X396430D02*
X394201D01*
Y312231D01*
X394424Y312260D01*
X395099Y312540D01*
X395678Y312984D01*
X396122Y313563D01*
X396401Y314237D01*
X396430Y314461D01*
D02*
G37*
G36*
X393201D02*
X390971D01*
X391001Y314237D01*
X391280Y313563D01*
X391724Y312984D01*
X392303Y312540D01*
X392977Y312260D01*
X393201Y312231D01*
Y314461D01*
D02*
G37*
G36*
X199500Y317083D02*
X198573Y316961D01*
X197708Y316603D01*
X196966Y316034D01*
X196397Y315292D01*
X196039Y314427D01*
X195917Y313500D01*
X196039Y312573D01*
X196397Y311708D01*
X196966Y310966D01*
X197708Y310397D01*
X198573Y310039D01*
X199500Y309917D01*
X200427Y310039D01*
X201292Y310397D01*
X202034Y310966D01*
X202603Y311708D01*
X202961Y312573D01*
X203083Y313500D01*
X202961Y314427D01*
X202603Y315292D01*
X202034Y316034D01*
X201292Y316603D01*
X200427Y316961D01*
X199500Y317083D01*
D02*
G37*
G36*
Y307083D02*
X198573Y306961D01*
X197708Y306603D01*
X196966Y306034D01*
X196397Y305292D01*
X196039Y304427D01*
X195917Y303500D01*
X196039Y302573D01*
X196397Y301708D01*
X196966Y300966D01*
X197708Y300397D01*
X198573Y300039D01*
X199500Y299917D01*
X200427Y300039D01*
X201292Y300397D01*
X202034Y300966D01*
X202603Y301708D01*
X202961Y302573D01*
X203083Y303500D01*
X202961Y304427D01*
X202603Y305292D01*
X202034Y306034D01*
X201292Y306603D01*
X200427Y306961D01*
X199500Y307083D01*
D02*
G37*
G36*
X263500Y302083D02*
X262573Y301961D01*
X261708Y301603D01*
X260966Y301034D01*
X260397Y300292D01*
X260039Y299427D01*
X259917Y298500D01*
X260039Y297573D01*
X260397Y296708D01*
X260966Y295966D01*
X261708Y295397D01*
X262573Y295039D01*
X263500Y294917D01*
X264427Y295039D01*
X265292Y295397D01*
X266034Y295966D01*
X266603Y296708D01*
X266961Y297573D01*
X267083Y298500D01*
X266961Y299427D01*
X266603Y300292D01*
X266034Y301034D01*
X265292Y301603D01*
X264427Y301961D01*
X263500Y302083D01*
D02*
G37*
G36*
X199500Y297083D02*
X198573Y296961D01*
X197708Y296603D01*
X196966Y296034D01*
X196397Y295292D01*
X196039Y294427D01*
X195917Y293500D01*
X196039Y292573D01*
X196397Y291708D01*
X196966Y290966D01*
X197708Y290397D01*
X198573Y290039D01*
X199500Y289917D01*
X200427Y290039D01*
X201292Y290397D01*
X202034Y290966D01*
X202603Y291708D01*
X202961Y292573D01*
X203083Y293500D01*
X202961Y294427D01*
X202603Y295292D01*
X202034Y296034D01*
X201292Y296603D01*
X200427Y296961D01*
X199500Y297083D01*
D02*
G37*
G36*
X361659Y292659D02*
X355341D01*
Y286341D01*
X361659D01*
Y292659D01*
D02*
G37*
G36*
X388500Y292686D02*
X387675Y292578D01*
X386907Y292259D01*
X386247Y291753D01*
X385741Y291093D01*
X385422Y290325D01*
X385314Y289500D01*
X385422Y288675D01*
X385741Y287907D01*
X386247Y287247D01*
X386907Y286741D01*
X387675Y286422D01*
X388500Y286314D01*
X389325Y286422D01*
X390093Y286741D01*
X390753Y287247D01*
X391259Y287907D01*
X391578Y288675D01*
X391686Y289500D01*
X391578Y290325D01*
X391259Y291093D01*
X390753Y291753D01*
X390093Y292259D01*
X389325Y292578D01*
X388500Y292686D01*
D02*
G37*
G36*
X263500Y292083D02*
X262573Y291961D01*
X261708Y291603D01*
X260966Y291034D01*
X260397Y290292D01*
X260039Y289427D01*
X259917Y288500D01*
X260039Y287573D01*
X260397Y286708D01*
X260966Y285966D01*
X261708Y285397D01*
X262573Y285039D01*
X263500Y284917D01*
X264427Y285039D01*
X265292Y285397D01*
X266034Y285966D01*
X266603Y286708D01*
X266961Y287573D01*
X267083Y288500D01*
X266961Y289427D01*
X266603Y290292D01*
X266034Y291034D01*
X265292Y291603D01*
X264427Y291961D01*
X263500Y292083D01*
D02*
G37*
G36*
X200000Y287421D02*
Y284000D01*
X203421D01*
X203351Y284532D01*
X202953Y285493D01*
X202319Y286319D01*
X201493Y286953D01*
X200532Y287351D01*
X200000Y287421D01*
D02*
G37*
G36*
X190000D02*
Y284000D01*
X193421D01*
X193351Y284532D01*
X192953Y285493D01*
X192319Y286319D01*
X191493Y286953D01*
X190532Y287351D01*
X190000Y287421D01*
D02*
G37*
G36*
X199000D02*
X198468Y287351D01*
X197507Y286953D01*
X196681Y286319D01*
X196047Y285493D01*
X195649Y284532D01*
X195579Y284000D01*
X199000D01*
Y287421D01*
D02*
G37*
G36*
X481575Y287583D02*
X478425D01*
X477498Y287461D01*
X476634Y287103D01*
X475891Y286534D01*
X475322Y285792D01*
X474964Y284927D01*
X474842Y284000D01*
X474964Y283073D01*
X475322Y282208D01*
X475891Y281466D01*
X476634Y280897D01*
X477498Y280539D01*
X478425Y280417D01*
X481575D01*
X482502Y280539D01*
X483366Y280897D01*
X484109Y281466D01*
X484678Y282208D01*
X485036Y283073D01*
X485158Y284000D01*
X485036Y284927D01*
X484678Y285792D01*
X484109Y286534D01*
X483366Y287103D01*
X482502Y287461D01*
X481575Y287583D01*
D02*
G37*
G36*
X460079D02*
X452992D01*
X452065Y287461D01*
X451200Y287103D01*
X450458Y286534D01*
X449889Y285792D01*
X449531Y284927D01*
X449409Y284000D01*
X449531Y283073D01*
X449889Y282208D01*
X450458Y281466D01*
X451200Y280897D01*
X452065Y280539D01*
X452992Y280417D01*
X460079D01*
X461006Y280539D01*
X461870Y280897D01*
X462613Y281466D01*
X463182Y282208D01*
X463540Y283073D01*
X463662Y284000D01*
X463540Y284927D01*
X463182Y285792D01*
X462613Y286534D01*
X461870Y287103D01*
X461006Y287461D01*
X460079Y287583D01*
D02*
G37*
G36*
X203421Y283000D02*
X200000D01*
Y279579D01*
X200532Y279649D01*
X201493Y280047D01*
X202319Y280681D01*
X202953Y281507D01*
X203351Y282468D01*
X203421Y283000D01*
D02*
G37*
G36*
X193421D02*
X190000D01*
Y279579D01*
X190532Y279649D01*
X191493Y280047D01*
X192319Y280681D01*
X192953Y281507D01*
X193351Y282468D01*
X193421Y283000D01*
D02*
G37*
G36*
X199000D02*
X195579D01*
X195649Y282468D01*
X196047Y281507D01*
X196681Y280681D01*
X197507Y280047D01*
X198468Y279649D01*
X199000Y279579D01*
Y283000D01*
D02*
G37*
G36*
X274000Y282421D02*
Y279000D01*
X277421D01*
X277351Y279532D01*
X276953Y280493D01*
X276319Y281319D01*
X275493Y281953D01*
X274532Y282351D01*
X274000Y282421D01*
D02*
G37*
G36*
X273000D02*
X272468Y282351D01*
X271507Y281953D01*
X270681Y281319D01*
X270047Y280493D01*
X269649Y279532D01*
X269579Y279000D01*
X273000D01*
Y282421D01*
D02*
G37*
G36*
X264000D02*
Y279000D01*
X267421D01*
X267351Y279532D01*
X266953Y280493D01*
X266319Y281319D01*
X265493Y281953D01*
X264532Y282351D01*
X264000Y282421D01*
D02*
G37*
G36*
X263000D02*
X262468Y282351D01*
X261507Y281953D01*
X260681Y281319D01*
X260047Y280493D01*
X259649Y279532D01*
X259579Y279000D01*
X263000D01*
Y282421D01*
D02*
G37*
G36*
X358500Y282686D02*
X357675Y282578D01*
X356907Y282259D01*
X356247Y281753D01*
X355741Y281093D01*
X355422Y280325D01*
X355314Y279500D01*
X355422Y278675D01*
X355741Y277907D01*
X356247Y277247D01*
X356907Y276741D01*
X357675Y276422D01*
X358500Y276314D01*
X359325Y276422D01*
X360093Y276741D01*
X360753Y277247D01*
X361259Y277907D01*
X361578Y278675D01*
X361686Y279500D01*
X361578Y280325D01*
X361259Y281093D01*
X360753Y281753D01*
X360093Y282259D01*
X359325Y282578D01*
X358500Y282686D01*
D02*
G37*
G36*
X413886Y278320D02*
Y276091D01*
X416116D01*
X416086Y276314D01*
X415807Y276988D01*
X415363Y277567D01*
X414784Y278012D01*
X414109Y278291D01*
X413886Y278320D01*
D02*
G37*
G36*
X412886D02*
X412662Y278291D01*
X411988Y278012D01*
X411409Y277567D01*
X410965Y276988D01*
X410685Y276314D01*
X410656Y276091D01*
X412886D01*
Y278320D01*
D02*
G37*
G36*
X374516D02*
Y276091D01*
X376746D01*
X376716Y276314D01*
X376437Y276988D01*
X375992Y277567D01*
X375413Y278012D01*
X374739Y278291D01*
X374516Y278320D01*
D02*
G37*
G36*
X373516D02*
X373292Y278291D01*
X372618Y278012D01*
X372039Y277567D01*
X371595Y276988D01*
X371316Y276314D01*
X371286Y276091D01*
X373516D01*
Y278320D01*
D02*
G37*
G36*
X295776D02*
Y276091D01*
X298005D01*
X297976Y276314D01*
X297697Y276988D01*
X297252Y277567D01*
X296673Y278012D01*
X295999Y278291D01*
X295776Y278320D01*
D02*
G37*
G36*
X294776D02*
X294552Y278291D01*
X293878Y278012D01*
X293299Y277567D01*
X292855Y276988D01*
X292575Y276314D01*
X292546Y276091D01*
X294776D01*
Y278320D01*
D02*
G37*
G36*
X256405D02*
Y276091D01*
X258635D01*
X258606Y276314D01*
X258327Y276988D01*
X257882Y277567D01*
X257303Y278012D01*
X256629Y278291D01*
X256405Y278320D01*
D02*
G37*
G36*
X255405D02*
X255182Y278291D01*
X254508Y278012D01*
X253929Y277567D01*
X253485Y276988D01*
X253205Y276314D01*
X253176Y276091D01*
X255405D01*
Y278320D01*
D02*
G37*
G36*
X217035D02*
Y276091D01*
X219265D01*
X219236Y276314D01*
X218956Y276988D01*
X218512Y277567D01*
X217933Y278012D01*
X217259Y278291D01*
X217035Y278320D01*
D02*
G37*
G36*
X216035D02*
X215812Y278291D01*
X215138Y278012D01*
X214559Y277567D01*
X214114Y276988D01*
X213835Y276314D01*
X213806Y276091D01*
X216035D01*
Y278320D01*
D02*
G37*
G36*
X277421Y278000D02*
X274000D01*
Y274579D01*
X274532Y274649D01*
X275493Y275047D01*
X276319Y275681D01*
X276953Y276507D01*
X277351Y277468D01*
X277421Y278000D01*
D02*
G37*
G36*
X273000D02*
X269579D01*
X269649Y277468D01*
X270047Y276507D01*
X270681Y275681D01*
X271507Y275047D01*
X272468Y274649D01*
X273000Y274579D01*
Y278000D01*
D02*
G37*
G36*
X267421D02*
X264000D01*
Y274579D01*
X264532Y274649D01*
X265493Y275047D01*
X266319Y275681D01*
X266953Y276507D01*
X267351Y277468D01*
X267421Y278000D01*
D02*
G37*
G36*
X263000D02*
X259579D01*
X259649Y277468D01*
X260047Y276507D01*
X260681Y275681D01*
X261507Y275047D01*
X262468Y274649D01*
X263000Y274579D01*
Y278000D01*
D02*
G37*
G36*
X464686Y276762D02*
Y274533D01*
X466916D01*
X466887Y274756D01*
X466607Y275430D01*
X466163Y276009D01*
X465584Y276453D01*
X464910Y276733D01*
X464686Y276762D01*
D02*
G37*
G36*
X463686D02*
X463463Y276733D01*
X462788Y276453D01*
X462209Y276009D01*
X461765Y275430D01*
X461486Y274756D01*
X461456Y274533D01*
X463686D01*
Y276762D01*
D02*
G37*
G36*
X416116Y275091D02*
X413886D01*
Y272861D01*
X414109Y272890D01*
X414784Y273169D01*
X415363Y273614D01*
X415807Y274193D01*
X416086Y274867D01*
X416116Y275091D01*
D02*
G37*
G36*
X412886D02*
X410656D01*
X410685Y274867D01*
X410965Y274193D01*
X411409Y273614D01*
X411988Y273169D01*
X412662Y272890D01*
X412886Y272861D01*
Y275091D01*
D02*
G37*
G36*
X376746D02*
X374516D01*
Y272861D01*
X374739Y272890D01*
X375413Y273169D01*
X375992Y273614D01*
X376437Y274193D01*
X376716Y274867D01*
X376746Y275091D01*
D02*
G37*
G36*
X373516D02*
X371286D01*
X371316Y274867D01*
X371595Y274193D01*
X372039Y273614D01*
X372618Y273169D01*
X373292Y272890D01*
X373516Y272861D01*
Y275091D01*
D02*
G37*
G36*
X298005D02*
X295776D01*
Y272861D01*
X295999Y272890D01*
X296673Y273169D01*
X297252Y273614D01*
X297697Y274193D01*
X297976Y274867D01*
X298005Y275091D01*
D02*
G37*
G36*
X294776D02*
X292546D01*
X292575Y274867D01*
X292855Y274193D01*
X293299Y273614D01*
X293878Y273169D01*
X294552Y272890D01*
X294776Y272861D01*
Y275091D01*
D02*
G37*
G36*
X258635D02*
X256405D01*
Y272861D01*
X256629Y272890D01*
X257303Y273169D01*
X257882Y273614D01*
X258327Y274193D01*
X258606Y274867D01*
X258635Y275091D01*
D02*
G37*
G36*
X255405D02*
X253176D01*
X253205Y274867D01*
X253485Y274193D01*
X253929Y273614D01*
X254508Y273169D01*
X255182Y272890D01*
X255405Y272861D01*
Y275091D01*
D02*
G37*
G36*
X219265D02*
X217035D01*
Y272861D01*
X217259Y272890D01*
X217933Y273169D01*
X218512Y273614D01*
X218956Y274193D01*
X219236Y274867D01*
X219265Y275091D01*
D02*
G37*
G36*
X216035D02*
X213806D01*
X213835Y274867D01*
X214114Y274193D01*
X214559Y273614D01*
X215138Y273169D01*
X215812Y272890D01*
X216035Y272861D01*
Y275091D01*
D02*
G37*
G36*
X466916Y273533D02*
X464686D01*
Y271303D01*
X464910Y271332D01*
X465584Y271611D01*
X466163Y272056D01*
X466607Y272635D01*
X466887Y273309D01*
X466916Y273533D01*
D02*
G37*
G36*
X463686D02*
X461456D01*
X461486Y273309D01*
X461765Y272635D01*
X462209Y272056D01*
X462788Y271611D01*
X463463Y271332D01*
X463686Y271303D01*
Y273533D01*
D02*
G37*
G36*
X388500Y272686D02*
X387675Y272578D01*
X386907Y272259D01*
X386247Y271753D01*
X385741Y271093D01*
X385422Y270325D01*
X385314Y269500D01*
X385422Y268675D01*
X385741Y267907D01*
X386247Y267247D01*
X386907Y266741D01*
X387675Y266422D01*
X388500Y266314D01*
X389325Y266422D01*
X390093Y266741D01*
X390753Y267247D01*
X391259Y267907D01*
X391578Y268675D01*
X391686Y269500D01*
X391578Y270325D01*
X391259Y271093D01*
X390753Y271753D01*
X390093Y272259D01*
X389325Y272578D01*
X388500Y272686D01*
D02*
G37*
G36*
X429000Y270122D02*
X429000Y270122D01*
X415000D01*
X414571Y270036D01*
X414207Y269793D01*
X414207Y269793D01*
X403924Y259510D01*
X403500Y259793D01*
X403700Y260277D01*
X403730Y260500D01*
X401500D01*
Y258270D01*
X401723Y258300D01*
X402207Y258500D01*
X402490Y258076D01*
X400707Y256293D01*
X400464Y255929D01*
X400378Y255500D01*
X400379Y255500D01*
Y206965D01*
X377535Y184122D01*
X317965D01*
X278340Y223746D01*
X277976Y223989D01*
X277547Y224074D01*
X277547Y224074D01*
X271485D01*
X271074Y224485D01*
X271265Y224947D01*
X277053D01*
Y232053D01*
X269947D01*
Y228799D01*
X269447Y228592D01*
X268746Y229293D01*
X268382Y229536D01*
X267953Y229622D01*
X267953Y229622D01*
X267520D01*
X267458Y229649D01*
X267285Y229654D01*
X267158Y229665D01*
X267061Y229681D01*
X267053Y229683D01*
Y232053D01*
X259947D01*
Y224947D01*
X267053D01*
Y227098D01*
X267466Y227203D01*
X267818Y226908D01*
Y225034D01*
X267818Y225034D01*
X267903Y224605D01*
X268146Y224241D01*
X270227Y222160D01*
X270227Y222160D01*
X270591Y221917D01*
X271020Y221831D01*
X271020Y221831D01*
X271184D01*
X271354Y221331D01*
X270966Y221034D01*
X270397Y220292D01*
X270039Y219427D01*
X269917Y218500D01*
X269980Y218016D01*
X269507Y217782D01*
X268746Y218543D01*
X268382Y218786D01*
X268115Y218839D01*
X267997Y218898D01*
X267828Y218910D01*
X267713Y218934D01*
X267603Y218975D01*
X267493Y219035D01*
X267379Y219118D01*
X267262Y219228D01*
X267141Y219369D01*
X267020Y219542D01*
X266899Y219749D01*
X266771Y220007D01*
X266753Y220023D01*
X266750Y220048D01*
X266684Y220098D01*
X266603Y220292D01*
X266034Y221034D01*
X265292Y221603D01*
X264427Y221961D01*
X263500Y222083D01*
X262573Y221961D01*
X261708Y221603D01*
X260966Y221034D01*
X260397Y220292D01*
X260039Y219427D01*
X259917Y218500D01*
X260039Y217573D01*
X260397Y216708D01*
X260966Y215966D01*
X261708Y215397D01*
X262573Y215039D01*
X263500Y214917D01*
X264427Y215039D01*
X265292Y215397D01*
X265483Y215544D01*
X265570Y215556D01*
X265588Y215579D01*
X265616Y215585D01*
X265906Y215789D01*
X266458Y216129D01*
X266705Y216258D01*
X266945Y216367D01*
X267172Y216454D01*
X267386Y216520D01*
X267558Y216559D01*
X270879Y213238D01*
X271243Y212995D01*
X271672Y212909D01*
X271672Y212909D01*
X276005D01*
X317707Y171207D01*
X317707Y171207D01*
X318071Y170964D01*
X318500Y170878D01*
X318500Y170878D01*
X379500D01*
X379500Y170878D01*
X379929Y170964D01*
X380293Y171207D01*
X404093Y195007D01*
X404093Y195007D01*
X404336Y195371D01*
X404422Y195800D01*
Y251335D01*
X416965Y263878D01*
X423649D01*
X423706Y263851D01*
X423829Y263845D01*
X423920Y263832D01*
X424014Y263809D01*
X424110Y263776D01*
X424210Y263732D01*
X424314Y263675D01*
X424423Y263605D01*
X424535Y263520D01*
X424652Y263420D01*
X424784Y263293D01*
X424790Y263290D01*
X424790Y263290D01*
X425575Y262766D01*
X426500Y262582D01*
X427425Y262766D01*
X428210Y263290D01*
X428734Y264075D01*
X428918Y265000D01*
X428863Y265278D01*
X429334Y265473D01*
X429790Y264790D01*
X430575Y264266D01*
X431500Y264082D01*
X432425Y264266D01*
X433210Y264790D01*
X433734Y265575D01*
X433918Y266500D01*
X433734Y267425D01*
X433210Y268210D01*
X432425Y268734D01*
X431500Y268918D01*
X431500Y268918D01*
X431494Y268921D01*
X431310Y268924D01*
X431157Y268936D01*
X431018Y268955D01*
X430891Y268982D01*
X430777Y269016D01*
X430675Y269055D01*
X430584Y269100D01*
X430502Y269150D01*
X430428Y269205D01*
X430337Y269288D01*
X430277Y269309D01*
X429793Y269793D01*
X429429Y270036D01*
X429000Y270122D01*
D02*
G37*
G36*
X401500Y263730D02*
Y261500D01*
X403730D01*
X403700Y261723D01*
X403421Y262398D01*
X402977Y262977D01*
X402398Y263421D01*
X401723Y263700D01*
X401500Y263730D01*
D02*
G37*
G36*
X400500D02*
X400277Y263700D01*
X399602Y263421D01*
X399023Y262977D01*
X398579Y262398D01*
X398300Y261723D01*
X398270Y261500D01*
X400500D01*
Y263730D01*
D02*
G37*
G36*
Y260500D02*
X398270D01*
X398300Y260277D01*
X398579Y259602D01*
X399023Y259023D01*
X399602Y258579D01*
X400277Y258300D01*
X400500Y258270D01*
Y260500D01*
D02*
G37*
G36*
X422000Y262418D02*
X421075Y262234D01*
X420290Y261710D01*
X419766Y260925D01*
X419582Y260000D01*
X419766Y259075D01*
X420290Y258290D01*
X421075Y257766D01*
X422000Y257582D01*
X422925Y257766D01*
X423710Y258290D01*
X424234Y259075D01*
X424418Y260000D01*
X424234Y260925D01*
X423710Y261710D01*
X422925Y262234D01*
X422000Y262418D01*
D02*
G37*
G36*
X388500Y262686D02*
X387675Y262578D01*
X386907Y262259D01*
X386247Y261753D01*
X385741Y261093D01*
X385422Y260325D01*
X385314Y259500D01*
X385422Y258675D01*
X385741Y257907D01*
X386247Y257247D01*
X386907Y256741D01*
X387675Y256422D01*
X388500Y256314D01*
X389325Y256422D01*
X390093Y256741D01*
X390753Y257247D01*
X391259Y257907D01*
X391578Y258675D01*
X391686Y259500D01*
X391578Y260325D01*
X391259Y261093D01*
X390753Y261753D01*
X390093Y262259D01*
X389325Y262578D01*
X388500Y262686D01*
D02*
G37*
G36*
X358500D02*
X357675Y262578D01*
X356907Y262259D01*
X356247Y261753D01*
X355741Y261093D01*
X355422Y260325D01*
X355314Y259500D01*
X355422Y258675D01*
X355741Y257907D01*
X356247Y257247D01*
X356907Y256741D01*
X357675Y256422D01*
X358500Y256314D01*
X359325Y256422D01*
X360093Y256741D01*
X360753Y257247D01*
X361259Y257907D01*
X361578Y258675D01*
X361686Y259500D01*
X361578Y260325D01*
X361259Y261093D01*
X360753Y261753D01*
X360093Y262259D01*
X359325Y262578D01*
X358500Y262686D01*
D02*
G37*
G36*
X395500Y257730D02*
Y255500D01*
X397730D01*
X397700Y255724D01*
X397421Y256398D01*
X396977Y256977D01*
X396398Y257421D01*
X395724Y257700D01*
X395500Y257730D01*
D02*
G37*
G36*
X394500D02*
X394276Y257700D01*
X393602Y257421D01*
X393023Y256977D01*
X392579Y256398D01*
X392300Y255724D01*
X392270Y255500D01*
X394500D01*
Y257730D01*
D02*
G37*
G36*
X486354Y254856D02*
Y252626D01*
X488584D01*
X488555Y252850D01*
X488275Y253524D01*
X487831Y254103D01*
X487252Y254547D01*
X486578Y254827D01*
X486354Y254856D01*
D02*
G37*
G36*
X485354D02*
X485131Y254827D01*
X484457Y254547D01*
X483878Y254103D01*
X483433Y253524D01*
X483154Y252850D01*
X483125Y252626D01*
X485354D01*
Y254856D01*
D02*
G37*
G36*
X397730Y254500D02*
X395500D01*
Y252270D01*
X395724Y252300D01*
X396398Y252579D01*
X396977Y253023D01*
X397421Y253602D01*
X397700Y254276D01*
X397730Y254500D01*
D02*
G37*
G36*
X394500D02*
X392270D01*
X392300Y254276D01*
X392579Y253602D01*
X393023Y253023D01*
X393602Y252579D01*
X394276Y252300D01*
X394500Y252270D01*
Y254500D01*
D02*
G37*
G36*
X419500Y256918D02*
X418575Y256734D01*
X417790Y256210D01*
X417266Y255425D01*
X417082Y254500D01*
X417266Y253575D01*
X417790Y252790D01*
X418575Y252266D01*
X419500Y252082D01*
X420425Y252266D01*
X421210Y252790D01*
X421734Y253575D01*
X421918Y254500D01*
X421734Y255425D01*
X421210Y256210D01*
X420425Y256734D01*
X419500Y256918D01*
D02*
G37*
G36*
X488584Y251626D02*
X486354D01*
Y249396D01*
X486578Y249426D01*
X487252Y249705D01*
X487831Y250149D01*
X488275Y250729D01*
X488555Y251403D01*
X488584Y251626D01*
D02*
G37*
G36*
X485354D02*
X483125D01*
X483154Y251403D01*
X483433Y250729D01*
X483878Y250149D01*
X484457Y249705D01*
X485131Y249426D01*
X485354Y249396D01*
Y251626D01*
D02*
G37*
G36*
X358500Y252686D02*
X357675Y252578D01*
X356907Y252259D01*
X356247Y251753D01*
X355741Y251093D01*
X355422Y250325D01*
X355314Y249500D01*
X355422Y248675D01*
X355741Y247907D01*
X356247Y247247D01*
X356907Y246741D01*
X357675Y246422D01*
X358500Y246314D01*
X359325Y246422D01*
X360093Y246741D01*
X360753Y247247D01*
X361259Y247907D01*
X361578Y248675D01*
X361686Y249500D01*
X361578Y250325D01*
X361259Y251093D01*
X360753Y251753D01*
X360093Y252259D01*
X359325Y252578D01*
X358500Y252686D01*
D02*
G37*
G36*
X420000Y250918D02*
X419075Y250734D01*
X418290Y250210D01*
X417766Y249425D01*
X417582Y248500D01*
X417766Y247575D01*
X418290Y246790D01*
X419075Y246266D01*
X420000Y246082D01*
X420925Y246266D01*
X421710Y246790D01*
X422234Y247575D01*
X422418Y248500D01*
X422234Y249425D01*
X421710Y250210D01*
X420925Y250734D01*
X420000Y250918D01*
D02*
G37*
G36*
X422500Y245918D02*
X421575Y245734D01*
X420790Y245210D01*
X420266Y244425D01*
X420082Y243500D01*
X420266Y242575D01*
X420790Y241790D01*
X421575Y241266D01*
X422500Y241082D01*
X423425Y241266D01*
X424210Y241790D01*
X424734Y242575D01*
X424918Y243500D01*
X424734Y244425D01*
X424210Y245210D01*
X423425Y245734D01*
X422500Y245918D01*
D02*
G37*
G36*
X423500Y240230D02*
Y238000D01*
X425730D01*
X425700Y238224D01*
X425421Y238898D01*
X424977Y239477D01*
X424398Y239921D01*
X423724Y240200D01*
X423500Y240230D01*
D02*
G37*
G36*
X422500D02*
X422276Y240200D01*
X421602Y239921D01*
X421023Y239477D01*
X420579Y238898D01*
X420300Y238224D01*
X420270Y238000D01*
X422500D01*
Y240230D01*
D02*
G37*
G36*
X461500Y239730D02*
Y237500D01*
X463730D01*
X463700Y237723D01*
X463421Y238398D01*
X462977Y238977D01*
X462398Y239421D01*
X461724Y239700D01*
X461500Y239730D01*
D02*
G37*
G36*
X460500D02*
X460277Y239700D01*
X459602Y239421D01*
X459023Y238977D01*
X458579Y238398D01*
X458300Y237723D01*
X458270Y237500D01*
X460500D01*
Y239730D01*
D02*
G37*
G36*
X315461Y238950D02*
Y236720D01*
X317690D01*
X317661Y236944D01*
X317382Y237618D01*
X316937Y238197D01*
X316358Y238642D01*
X315684Y238921D01*
X315461Y238950D01*
D02*
G37*
G36*
X314461D02*
X314237Y238921D01*
X313563Y238642D01*
X312984Y238197D01*
X312540Y237618D01*
X312260Y236944D01*
X312231Y236720D01*
X314461D01*
Y238950D01*
D02*
G37*
G36*
X276091D02*
Y236720D01*
X278320D01*
X278291Y236944D01*
X278012Y237618D01*
X277567Y238197D01*
X276988Y238642D01*
X276314Y238921D01*
X276091Y238950D01*
D02*
G37*
G36*
X275091D02*
X274867Y238921D01*
X274193Y238642D01*
X273614Y238197D01*
X273169Y237618D01*
X272890Y236944D01*
X272861Y236720D01*
X275091D01*
Y238950D01*
D02*
G37*
G36*
X358500Y242686D02*
X357675Y242578D01*
X356907Y242259D01*
X356247Y241753D01*
X355741Y241093D01*
X355422Y240325D01*
X355314Y239500D01*
X355422Y238675D01*
X355741Y237907D01*
X356247Y237247D01*
X356907Y236741D01*
X357675Y236422D01*
X358500Y236314D01*
X359325Y236422D01*
X360093Y236741D01*
X360753Y237247D01*
X361259Y237907D01*
X361578Y238675D01*
X361686Y239500D01*
X361578Y240325D01*
X361259Y241093D01*
X360753Y241753D01*
X360093Y242259D01*
X359325Y242578D01*
X358500Y242686D01*
D02*
G37*
G36*
X425730Y237000D02*
X423500D01*
Y234770D01*
X423724Y234800D01*
X424398Y235079D01*
X424977Y235523D01*
X425421Y236102D01*
X425700Y236776D01*
X425730Y237000D01*
D02*
G37*
G36*
X422500D02*
X420270D01*
X420300Y236776D01*
X420579Y236102D01*
X421023Y235523D01*
X421602Y235079D01*
X422276Y234800D01*
X422500Y234770D01*
Y237000D01*
D02*
G37*
G36*
X463730Y236500D02*
X461500D01*
Y234270D01*
X461724Y234300D01*
X462398Y234579D01*
X462977Y235023D01*
X463421Y235602D01*
X463700Y236277D01*
X463730Y236500D01*
D02*
G37*
G36*
X460500D02*
X458270D01*
X458300Y236277D01*
X458579Y235602D01*
X459023Y235023D01*
X459602Y234579D01*
X460277Y234300D01*
X460500Y234270D01*
Y236500D01*
D02*
G37*
G36*
X317690Y235720D02*
X315461D01*
Y233491D01*
X315684Y233520D01*
X316358Y233799D01*
X316937Y234244D01*
X317382Y234823D01*
X317661Y235497D01*
X317690Y235720D01*
D02*
G37*
G36*
X314461D02*
X312231D01*
X312260Y235497D01*
X312540Y234823D01*
X312984Y234244D01*
X313563Y233799D01*
X314237Y233520D01*
X314461Y233491D01*
Y235720D01*
D02*
G37*
G36*
X278320D02*
X276091D01*
Y233491D01*
X276314Y233520D01*
X276988Y233799D01*
X277567Y234244D01*
X278012Y234823D01*
X278291Y235497D01*
X278320Y235720D01*
D02*
G37*
G36*
X275091D02*
X272861D01*
X272890Y235497D01*
X273169Y234823D01*
X273614Y234244D01*
X274193Y233799D01*
X274867Y233520D01*
X275091Y233491D01*
Y235720D01*
D02*
G37*
G36*
X203053Y237053D02*
X195947D01*
Y229947D01*
X203053D01*
Y237053D01*
D02*
G37*
G36*
X388500Y232686D02*
X387675Y232578D01*
X386907Y232259D01*
X386247Y231753D01*
X385741Y231093D01*
X385422Y230325D01*
X385314Y229500D01*
X385422Y228675D01*
X385741Y227907D01*
X386247Y227247D01*
X386907Y226741D01*
X387675Y226422D01*
X388500Y226314D01*
X389325Y226422D01*
X390093Y226741D01*
X390753Y227247D01*
X391259Y227907D01*
X391578Y228675D01*
X391686Y229500D01*
X391578Y230325D01*
X391259Y231093D01*
X390753Y231753D01*
X390093Y232259D01*
X389325Y232578D01*
X388500Y232686D01*
D02*
G37*
G36*
X358500D02*
X357675Y232578D01*
X356907Y232259D01*
X356247Y231753D01*
X355741Y231093D01*
X355422Y230325D01*
X355314Y229500D01*
X355422Y228675D01*
X355741Y227907D01*
X356247Y227247D01*
X356907Y226741D01*
X357675Y226422D01*
X358500Y226314D01*
X359325Y226422D01*
X360093Y226741D01*
X360753Y227247D01*
X361259Y227907D01*
X361578Y228675D01*
X361686Y229500D01*
X361578Y230325D01*
X361259Y231093D01*
X360753Y231753D01*
X360093Y232259D01*
X359325Y232578D01*
X358500Y232686D01*
D02*
G37*
G36*
X481575Y230497D02*
X478425D01*
X477498Y230375D01*
X476634Y230017D01*
X475891Y229447D01*
X475322Y228705D01*
X474964Y227841D01*
X474842Y226913D01*
X474964Y225986D01*
X475322Y225122D01*
X475891Y224379D01*
X476634Y223810D01*
X477498Y223452D01*
X478425Y223330D01*
X481575D01*
X482502Y223452D01*
X483366Y223810D01*
X484109Y224379D01*
X484678Y225122D01*
X485036Y225986D01*
X485158Y226913D01*
X485036Y227841D01*
X484678Y228705D01*
X484109Y229447D01*
X483366Y230017D01*
X482502Y230375D01*
X481575Y230497D01*
D02*
G37*
G36*
X460079D02*
X452992D01*
X452065Y230375D01*
X451200Y230017D01*
X450458Y229447D01*
X449889Y228705D01*
X449531Y227841D01*
X449409Y226913D01*
X449531Y225986D01*
X449889Y225122D01*
X450458Y224379D01*
X451200Y223810D01*
X452065Y223452D01*
X452992Y223330D01*
X460079D01*
X461006Y223452D01*
X461870Y223810D01*
X462613Y224379D01*
X463182Y225122D01*
X463540Y225986D01*
X463662Y226913D01*
X463540Y227841D01*
X463182Y228705D01*
X462613Y229447D01*
X461870Y230017D01*
X461006Y230375D01*
X460079Y230497D01*
D02*
G37*
G36*
X471230Y295655D02*
X470305Y295471D01*
X469520Y294946D01*
X468996Y294162D01*
X468812Y293236D01*
X468996Y292311D01*
X469280Y291886D01*
X469308Y291765D01*
X469533Y291451D01*
X469610Y291323D01*
X469679Y291195D01*
X469735Y291073D01*
X469778Y290958D01*
X469811Y290849D01*
X469833Y290747D01*
X469846Y290651D01*
X469851Y290530D01*
X469878Y290472D01*
Y222965D01*
X468535Y221621D01*
X435965D01*
X435809Y221777D01*
X435788Y221837D01*
X435705Y221928D01*
X435650Y222002D01*
X435600Y222084D01*
X435555Y222175D01*
X435516Y222277D01*
X435482Y222391D01*
X435455Y222518D01*
X435436Y222657D01*
X435424Y222810D01*
X435421Y222993D01*
X435418Y223000D01*
X435418Y223000D01*
X435234Y223925D01*
X434710Y224710D01*
X434710Y224710D01*
X434707Y224716D01*
X434580Y224848D01*
X434480Y224965D01*
X434395Y225077D01*
X434325Y225186D01*
X434268Y225290D01*
X434224Y225390D01*
X434191Y225486D01*
X434168Y225579D01*
X434155Y225671D01*
X434149Y225794D01*
X434122Y225851D01*
Y236649D01*
X434149Y236706D01*
X434155Y236829D01*
X434168Y236920D01*
X434191Y237014D01*
X434224Y237110D01*
X434268Y237210D01*
X434325Y237314D01*
X434395Y237423D01*
X434480Y237535D01*
X434580Y237652D01*
X434707Y237784D01*
X434710Y237790D01*
X434710Y237790D01*
X435234Y238575D01*
X435418Y239500D01*
X435234Y240425D01*
X434710Y241210D01*
X433925Y241734D01*
X433000Y241918D01*
X432075Y241734D01*
X431290Y241210D01*
X430766Y240425D01*
X430582Y239500D01*
X430766Y238575D01*
X431131Y238028D01*
X431164Y237922D01*
X431286Y237775D01*
X431383Y237645D01*
X431467Y237519D01*
X431536Y237398D01*
X431593Y237283D01*
X431637Y237174D01*
X431670Y237070D01*
X431693Y236971D01*
X431706Y236876D01*
X431711Y236755D01*
X431739Y236697D01*
Y225803D01*
X431711Y225745D01*
X431706Y225624D01*
X431693Y225529D01*
X431670Y225430D01*
X431637Y225326D01*
X431593Y225217D01*
X431536Y225102D01*
X431471Y224989D01*
X431280Y224718D01*
X431164Y224578D01*
X431131Y224472D01*
X430766Y223925D01*
X430582Y223000D01*
X430766Y222075D01*
X431131Y221528D01*
X431164Y221422D01*
X431280Y221282D01*
X431471Y221011D01*
X431536Y220898D01*
X431593Y220783D01*
X431637Y220674D01*
X431670Y220570D01*
X431693Y220471D01*
X431706Y220376D01*
X431711Y220255D01*
X431739Y220197D01*
Y99121D01*
X431713Y99072D01*
X431716Y99061D01*
X431712Y99050D01*
X431706Y98927D01*
X431692Y98838D01*
X431670Y98750D01*
X431637Y98662D01*
X431594Y98572D01*
X431538Y98479D01*
X431468Y98383D01*
X431384Y98284D01*
X431284Y98182D01*
X431152Y98065D01*
X431124Y98006D01*
X431011Y97930D01*
X430486Y97146D01*
X430302Y96220D01*
X430486Y95295D01*
X431011Y94511D01*
X431795Y93986D01*
X432721Y93802D01*
X433646Y93986D01*
X434430Y94511D01*
X434955Y95295D01*
X435139Y96220D01*
X434955Y97146D01*
X434589Y97693D01*
X434556Y97799D01*
X434435Y97945D01*
X434337Y98076D01*
X434254Y98202D01*
X434184Y98322D01*
X434128Y98437D01*
X434083Y98547D01*
X434050Y98651D01*
X434028Y98750D01*
X434015Y98844D01*
X434009Y98966D01*
X433982Y99023D01*
Y219725D01*
X434482Y219932D01*
X434707Y219707D01*
X434707Y219707D01*
X435071Y219464D01*
X435500Y219378D01*
X469000D01*
X469000Y219378D01*
X469429Y219464D01*
X469793Y219707D01*
X471793Y221707D01*
X471793Y221707D01*
X472036Y222071D01*
X472122Y222500D01*
X472122Y222500D01*
Y290297D01*
X472144Y290335D01*
X472136Y290363D01*
X472149Y290390D01*
X472155Y290514D01*
X472168Y290601D01*
X472191Y290685D01*
X472222Y290768D01*
X472264Y290851D01*
X472319Y290937D01*
X472387Y291025D01*
X472470Y291115D01*
X472570Y291208D01*
X472703Y291315D01*
X472748Y291399D01*
X472940Y291527D01*
X473464Y292311D01*
X473648Y293236D01*
X473464Y294162D01*
X472940Y294946D01*
X472155Y295471D01*
X471230Y295655D01*
D02*
G37*
G36*
X199500Y227083D02*
X198573Y226961D01*
X197708Y226603D01*
X196966Y226034D01*
X196397Y225292D01*
X196039Y224427D01*
X195917Y223500D01*
X196039Y222573D01*
X196397Y221708D01*
X196966Y220966D01*
X197708Y220397D01*
X198573Y220039D01*
X199500Y219917D01*
X200427Y220039D01*
X201292Y220397D01*
X202034Y220966D01*
X202603Y221708D01*
X202961Y222573D01*
X203083Y223500D01*
X202961Y224427D01*
X202603Y225292D01*
X202034Y226034D01*
X201292Y226603D01*
X200427Y226961D01*
X199500Y227083D01*
D02*
G37*
G36*
X388500Y222686D02*
X387675Y222578D01*
X386907Y222259D01*
X386247Y221753D01*
X385741Y221093D01*
X385422Y220325D01*
X385314Y219500D01*
X385422Y218675D01*
X385741Y217907D01*
X386247Y217247D01*
X386907Y216741D01*
X387675Y216422D01*
X388500Y216314D01*
X389325Y216422D01*
X390093Y216741D01*
X390753Y217247D01*
X391259Y217907D01*
X391578Y218675D01*
X391686Y219500D01*
X391578Y220325D01*
X391259Y221093D01*
X390753Y221753D01*
X390093Y222259D01*
X389325Y222578D01*
X388500Y222686D01*
D02*
G37*
G36*
X358500D02*
X357675Y222578D01*
X356907Y222259D01*
X356247Y221753D01*
X355741Y221093D01*
X355422Y220325D01*
X355314Y219500D01*
X355422Y218675D01*
X355741Y217907D01*
X356247Y217247D01*
X356907Y216741D01*
X357675Y216422D01*
X358500Y216314D01*
X359325Y216422D01*
X360093Y216741D01*
X360753Y217247D01*
X361259Y217907D01*
X361578Y218675D01*
X361686Y219500D01*
X361578Y220325D01*
X361259Y221093D01*
X360753Y221753D01*
X360093Y222259D01*
X359325Y222578D01*
X358500Y222686D01*
D02*
G37*
G36*
X199500Y217083D02*
X198573Y216961D01*
X197708Y216603D01*
X196966Y216034D01*
X196397Y215292D01*
X196039Y214427D01*
X195917Y213500D01*
X196039Y212573D01*
X196397Y211708D01*
X196966Y210966D01*
X197708Y210397D01*
X198573Y210039D01*
X199500Y209917D01*
X200427Y210039D01*
X201292Y210397D01*
X202034Y210966D01*
X202603Y211708D01*
X202961Y212573D01*
X203083Y213500D01*
X202961Y214427D01*
X202603Y215292D01*
X202034Y216034D01*
X201292Y216603D01*
X200427Y216961D01*
X199500Y217083D01*
D02*
G37*
G36*
X273500Y212083D02*
X272573Y211961D01*
X271708Y211603D01*
X270966Y211034D01*
X270397Y210292D01*
X270039Y209427D01*
X269917Y208500D01*
X270039Y207573D01*
X270397Y206708D01*
X270966Y205966D01*
X271708Y205397D01*
X272573Y205039D01*
X273500Y204917D01*
X274427Y205039D01*
X275292Y205397D01*
X276034Y205966D01*
X276603Y206708D01*
X276961Y207573D01*
X277083Y208500D01*
X276961Y209427D01*
X276603Y210292D01*
X276034Y211034D01*
X275292Y211603D01*
X274427Y211961D01*
X273500Y212083D01*
D02*
G37*
G36*
X263500D02*
X262573Y211961D01*
X261708Y211603D01*
X260966Y211034D01*
X260397Y210292D01*
X260039Y209427D01*
X259917Y208500D01*
X260039Y207573D01*
X260397Y206708D01*
X260966Y205966D01*
X261708Y205397D01*
X262573Y205039D01*
X263500Y204917D01*
X264427Y205039D01*
X265292Y205397D01*
X266034Y205966D01*
X266603Y206708D01*
X266961Y207573D01*
X267083Y208500D01*
X266961Y209427D01*
X266603Y210292D01*
X266034Y211034D01*
X265292Y211603D01*
X264427Y211961D01*
X263500Y212083D01*
D02*
G37*
G36*
X199500Y207083D02*
X198573Y206961D01*
X197708Y206603D01*
X196966Y206034D01*
X196397Y205292D01*
X196039Y204427D01*
X195917Y203500D01*
X196039Y202573D01*
X196397Y201708D01*
X196966Y200966D01*
X197708Y200397D01*
X198573Y200039D01*
X199500Y199917D01*
X200427Y200039D01*
X201292Y200397D01*
X202034Y200966D01*
X202603Y201708D01*
X202961Y202573D01*
X203083Y203500D01*
X202961Y204427D01*
X202603Y205292D01*
X202034Y206034D01*
X201292Y206603D01*
X200427Y206961D01*
X199500Y207083D01*
D02*
G37*
G36*
X492626Y199580D02*
Y197350D01*
X494856D01*
X494826Y197574D01*
X494547Y198248D01*
X494103Y198827D01*
X493524Y199271D01*
X492849Y199551D01*
X492626Y199580D01*
D02*
G37*
G36*
X491626D02*
X491402Y199551D01*
X490728Y199271D01*
X490149Y198827D01*
X489705Y198248D01*
X489426Y197574D01*
X489396Y197350D01*
X491626D01*
Y199580D01*
D02*
G37*
G36*
X453256D02*
Y197350D01*
X455486D01*
X455456Y197574D01*
X455177Y198248D01*
X454733Y198827D01*
X454154Y199271D01*
X453479Y199551D01*
X453256Y199580D01*
D02*
G37*
G36*
X452256D02*
X452032Y199551D01*
X451358Y199271D01*
X450779Y198827D01*
X450335Y198248D01*
X450056Y197574D01*
X450026Y197350D01*
X452256D01*
Y199580D01*
D02*
G37*
G36*
X413886D02*
Y197350D01*
X416116D01*
X416086Y197574D01*
X415807Y198248D01*
X415363Y198827D01*
X414784Y199271D01*
X414109Y199551D01*
X413886Y199580D01*
D02*
G37*
G36*
X412886D02*
X412662Y199551D01*
X411988Y199271D01*
X411409Y198827D01*
X410965Y198248D01*
X410685Y197574D01*
X410656Y197350D01*
X412886D01*
Y199580D01*
D02*
G37*
G36*
X374516D02*
Y197350D01*
X376746D01*
X376716Y197574D01*
X376437Y198248D01*
X375992Y198827D01*
X375413Y199271D01*
X374739Y199551D01*
X374516Y199580D01*
D02*
G37*
G36*
X373516D02*
X373292Y199551D01*
X372618Y199271D01*
X372039Y198827D01*
X371595Y198248D01*
X371316Y197574D01*
X371286Y197350D01*
X373516D01*
Y199580D01*
D02*
G37*
G36*
X335146D02*
Y197350D01*
X337375D01*
X337346Y197574D01*
X337067Y198248D01*
X336622Y198827D01*
X336044Y199271D01*
X335369Y199551D01*
X335146Y199580D01*
D02*
G37*
G36*
X334146D02*
X333922Y199551D01*
X333248Y199271D01*
X332669Y198827D01*
X332225Y198248D01*
X331945Y197574D01*
X331916Y197350D01*
X334146D01*
Y199580D01*
D02*
G37*
G36*
X217035D02*
Y197350D01*
X219265D01*
X219236Y197574D01*
X218956Y198248D01*
X218512Y198827D01*
X217933Y199271D01*
X217259Y199551D01*
X217035Y199580D01*
D02*
G37*
G36*
X216035D02*
X215812Y199551D01*
X215138Y199271D01*
X214559Y198827D01*
X214114Y198248D01*
X213835Y197574D01*
X213806Y197350D01*
X216035D01*
Y199580D01*
D02*
G37*
G36*
X273500Y202083D02*
X272573Y201961D01*
X271708Y201603D01*
X270966Y201034D01*
X270397Y200292D01*
X270039Y199427D01*
X269917Y198500D01*
X270039Y197573D01*
X270397Y196708D01*
X270966Y195966D01*
X271708Y195397D01*
X272573Y195039D01*
X273500Y194917D01*
X274427Y195039D01*
X275292Y195397D01*
X276034Y195966D01*
X276603Y196708D01*
X276961Y197573D01*
X277083Y198500D01*
X276961Y199427D01*
X276603Y200292D01*
X276034Y201034D01*
X275292Y201603D01*
X274427Y201961D01*
X273500Y202083D01*
D02*
G37*
G36*
X263500D02*
X262573Y201961D01*
X261708Y201603D01*
X260966Y201034D01*
X260397Y200292D01*
X260039Y199427D01*
X259917Y198500D01*
X260039Y197573D01*
X260397Y196708D01*
X260966Y195966D01*
X261708Y195397D01*
X262573Y195039D01*
X263500Y194917D01*
X264427Y195039D01*
X265292Y195397D01*
X266034Y195966D01*
X266603Y196708D01*
X266961Y197573D01*
X267083Y198500D01*
X266961Y199427D01*
X266603Y200292D01*
X266034Y201034D01*
X265292Y201603D01*
X264427Y201961D01*
X263500Y202083D01*
D02*
G37*
G36*
X494856Y196350D02*
X492626D01*
Y194121D01*
X492849Y194150D01*
X493524Y194429D01*
X494103Y194874D01*
X494547Y195453D01*
X494826Y196127D01*
X494856Y196350D01*
D02*
G37*
G36*
X491626D02*
X489396D01*
X489426Y196127D01*
X489705Y195453D01*
X490149Y194874D01*
X490728Y194429D01*
X491402Y194150D01*
X491626Y194121D01*
Y196350D01*
D02*
G37*
G36*
X455486D02*
X453256D01*
Y194121D01*
X453479Y194150D01*
X454154Y194429D01*
X454733Y194874D01*
X455177Y195453D01*
X455456Y196127D01*
X455486Y196350D01*
D02*
G37*
G36*
X452256D02*
X450026D01*
X450056Y196127D01*
X450335Y195453D01*
X450779Y194874D01*
X451358Y194429D01*
X452032Y194150D01*
X452256Y194121D01*
Y196350D01*
D02*
G37*
G36*
X416116D02*
X413886D01*
Y194121D01*
X414109Y194150D01*
X414784Y194429D01*
X415363Y194874D01*
X415807Y195453D01*
X416086Y196127D01*
X416116Y196350D01*
D02*
G37*
G36*
X412886D02*
X410656D01*
X410685Y196127D01*
X410965Y195453D01*
X411409Y194874D01*
X411988Y194429D01*
X412662Y194150D01*
X412886Y194121D01*
Y196350D01*
D02*
G37*
G36*
X376746D02*
X374516D01*
Y194121D01*
X374739Y194150D01*
X375413Y194429D01*
X375992Y194874D01*
X376437Y195453D01*
X376716Y196127D01*
X376746Y196350D01*
D02*
G37*
G36*
X373516D02*
X371286D01*
X371316Y196127D01*
X371595Y195453D01*
X372039Y194874D01*
X372618Y194429D01*
X373292Y194150D01*
X373516Y194121D01*
Y196350D01*
D02*
G37*
G36*
X337375D02*
X335146D01*
Y194121D01*
X335369Y194150D01*
X336044Y194429D01*
X336622Y194874D01*
X337067Y195453D01*
X337346Y196127D01*
X337375Y196350D01*
D02*
G37*
G36*
X334146D02*
X331916D01*
X331945Y196127D01*
X332225Y195453D01*
X332669Y194874D01*
X333248Y194429D01*
X333922Y194150D01*
X334146Y194121D01*
Y196350D01*
D02*
G37*
G36*
X219265D02*
X217035D01*
Y194121D01*
X217259Y194150D01*
X217933Y194429D01*
X218512Y194874D01*
X218956Y195453D01*
X219236Y196127D01*
X219265Y196350D01*
D02*
G37*
G36*
X216035D02*
X213806D01*
X213835Y196127D01*
X214114Y195453D01*
X214559Y194874D01*
X215138Y194429D01*
X215812Y194150D01*
X216035Y194121D01*
Y196350D01*
D02*
G37*
G36*
X200000Y197421D02*
Y194000D01*
X203421D01*
X203351Y194532D01*
X202953Y195493D01*
X202319Y196319D01*
X201493Y196953D01*
X200532Y197351D01*
X200000Y197421D01*
D02*
G37*
G36*
X190000D02*
Y194000D01*
X193421D01*
X193351Y194532D01*
X192953Y195493D01*
X192319Y196319D01*
X191493Y196953D01*
X190532Y197351D01*
X190000Y197421D01*
D02*
G37*
G36*
X199000D02*
X198468Y197351D01*
X197507Y196953D01*
X196681Y196319D01*
X196047Y195493D01*
X195649Y194532D01*
X195579Y194000D01*
X199000D01*
Y197421D01*
D02*
G37*
G36*
X203421Y193000D02*
X200000D01*
Y189579D01*
X200532Y189649D01*
X201493Y190047D01*
X202319Y190681D01*
X202953Y191507D01*
X203351Y192468D01*
X203421Y193000D01*
D02*
G37*
G36*
X193421D02*
X190000D01*
Y189579D01*
X190532Y189649D01*
X191493Y190047D01*
X192319Y190681D01*
X192953Y191507D01*
X193351Y192468D01*
X193421Y193000D01*
D02*
G37*
G36*
X199000D02*
X195579D01*
X195649Y192468D01*
X196047Y191507D01*
X196681Y190681D01*
X197507Y190047D01*
X198468Y189649D01*
X199000Y189579D01*
Y193000D01*
D02*
G37*
G36*
X274000Y192421D02*
Y189000D01*
X277421D01*
X277351Y189532D01*
X276953Y190493D01*
X276319Y191319D01*
X275493Y191953D01*
X274532Y192351D01*
X274000Y192421D01*
D02*
G37*
G36*
X273000D02*
X272468Y192351D01*
X271507Y191953D01*
X270681Y191319D01*
X270047Y190493D01*
X269649Y189532D01*
X269579Y189000D01*
X273000D01*
Y192421D01*
D02*
G37*
G36*
X264000D02*
Y189000D01*
X267421D01*
X267351Y189532D01*
X266953Y190493D01*
X266319Y191319D01*
X265493Y191953D01*
X264532Y192351D01*
X264000Y192421D01*
D02*
G37*
G36*
X263000D02*
X262468Y192351D01*
X261507Y191953D01*
X260681Y191319D01*
X260047Y190493D01*
X259649Y189532D01*
X259579Y189000D01*
X263000D01*
Y192421D01*
D02*
G37*
G36*
X277421Y188000D02*
X274000D01*
Y184579D01*
X274532Y184649D01*
X275493Y185047D01*
X276319Y185681D01*
X276953Y186507D01*
X277351Y187468D01*
X277421Y188000D01*
D02*
G37*
G36*
X273000D02*
X269579D01*
X269649Y187468D01*
X270047Y186507D01*
X270681Y185681D01*
X271507Y185047D01*
X272468Y184649D01*
X273000Y184579D01*
Y188000D01*
D02*
G37*
G36*
X267421D02*
X264000D01*
Y184579D01*
X264532Y184649D01*
X265493Y185047D01*
X266319Y185681D01*
X266953Y186507D01*
X267351Y187468D01*
X267421Y188000D01*
D02*
G37*
G36*
X263000D02*
X259579D01*
X259649Y187468D01*
X260047Y186507D01*
X260681Y185681D01*
X261507Y185047D01*
X262468Y184649D01*
X263000Y184579D01*
Y188000D01*
D02*
G37*
G36*
X472941Y160210D02*
Y157980D01*
X475171D01*
X475141Y158204D01*
X474862Y158878D01*
X474418Y159457D01*
X473839Y159901D01*
X473165Y160181D01*
X472941Y160210D01*
D02*
G37*
G36*
X471941D02*
X471717Y160181D01*
X471043Y159901D01*
X470464Y159457D01*
X470020Y158878D01*
X469741Y158204D01*
X469711Y157980D01*
X471941D01*
Y160210D01*
D02*
G37*
G36*
X276091D02*
Y157980D01*
X278320D01*
X278291Y158204D01*
X278012Y158878D01*
X277567Y159457D01*
X276988Y159901D01*
X276314Y160181D01*
X276091Y160210D01*
D02*
G37*
G36*
X275091D02*
X274867Y160181D01*
X274193Y159901D01*
X273614Y159457D01*
X273169Y158878D01*
X272890Y158204D01*
X272861Y157980D01*
X275091D01*
Y160210D01*
D02*
G37*
G36*
X236720D02*
Y157980D01*
X238950D01*
X238921Y158204D01*
X238642Y158878D01*
X238197Y159457D01*
X237618Y159901D01*
X236944Y160181D01*
X236720Y160210D01*
D02*
G37*
G36*
X235720D02*
X235497Y160181D01*
X234823Y159901D01*
X234244Y159457D01*
X233799Y158878D01*
X233520Y158204D01*
X233491Y157980D01*
X235720D01*
Y160210D01*
D02*
G37*
G36*
X197350D02*
Y157980D01*
X199580D01*
X199551Y158204D01*
X199271Y158878D01*
X198827Y159457D01*
X198248Y159901D01*
X197574Y160181D01*
X197350Y160210D01*
D02*
G37*
G36*
X196350D02*
X196127Y160181D01*
X195453Y159901D01*
X194874Y159457D01*
X194429Y158878D01*
X194150Y158204D01*
X194121Y157980D01*
X196350D01*
Y160210D01*
D02*
G37*
G36*
X475171Y156980D02*
X472941D01*
Y154751D01*
X473165Y154780D01*
X473839Y155059D01*
X474418Y155503D01*
X474862Y156082D01*
X475141Y156757D01*
X475171Y156980D01*
D02*
G37*
G36*
X471941D02*
X469711D01*
X469741Y156757D01*
X470020Y156082D01*
X470464Y155503D01*
X471043Y155059D01*
X471717Y154780D01*
X471941Y154751D01*
Y156980D01*
D02*
G37*
G36*
X278320D02*
X276091D01*
Y154751D01*
X276314Y154780D01*
X276988Y155059D01*
X277567Y155503D01*
X278012Y156082D01*
X278291Y156757D01*
X278320Y156980D01*
D02*
G37*
G36*
X275091D02*
X272861D01*
X272890Y156757D01*
X273169Y156082D01*
X273614Y155503D01*
X274193Y155059D01*
X274867Y154780D01*
X275091Y154751D01*
Y156980D01*
D02*
G37*
G36*
X238950D02*
X236720D01*
Y154751D01*
X236944Y154780D01*
X237618Y155059D01*
X238197Y155503D01*
X238642Y156082D01*
X238921Y156757D01*
X238950Y156980D01*
D02*
G37*
G36*
X235720D02*
X233491D01*
X233520Y156757D01*
X233799Y156082D01*
X234244Y155503D01*
X234823Y155059D01*
X235497Y154780D01*
X235720Y154751D01*
Y156980D01*
D02*
G37*
G36*
X199580D02*
X197350D01*
Y154751D01*
X197574Y154780D01*
X198248Y155059D01*
X198827Y155503D01*
X199271Y156082D01*
X199551Y156757D01*
X199580Y156980D01*
D02*
G37*
G36*
X196350D02*
X194121D01*
X194150Y156757D01*
X194429Y156082D01*
X194874Y155503D01*
X195453Y155059D01*
X196127Y154780D01*
X196350Y154751D01*
Y156980D01*
D02*
G37*
G36*
X400500Y151418D02*
X399575Y151234D01*
X398790Y150710D01*
X398266Y149925D01*
X398082Y149000D01*
X398082Y149000D01*
X398079Y148994D01*
X398076Y148810D01*
X398064Y148657D01*
X398045Y148518D01*
X398018Y148391D01*
X397984Y148277D01*
X397945Y148175D01*
X397900Y148084D01*
X397850Y148002D01*
X397795Y147928D01*
X397712Y147837D01*
X397691Y147777D01*
X392035Y142122D01*
X281754D01*
X278530Y145346D01*
X278166Y145589D01*
X277737Y145674D01*
X277737Y145674D01*
X269263D01*
X269263Y145674D01*
X268834Y145589D01*
X268470Y145346D01*
X266076Y142952D01*
X265833Y142588D01*
X265748Y142159D01*
X265263Y142053D01*
X259947D01*
Y134947D01*
X267053D01*
Y140027D01*
X267540Y140582D01*
X267684Y140728D01*
X267737Y140857D01*
X267905Y141109D01*
X267991Y141539D01*
Y141694D01*
X269728Y143431D01*
X277272D01*
X280497Y140207D01*
X280497Y140207D01*
X280860Y139964D01*
X281290Y139878D01*
X281290Y139878D01*
X392500D01*
X392500Y139878D01*
X392929Y139964D01*
X393293Y140207D01*
X399277Y146191D01*
X399337Y146212D01*
X399428Y146295D01*
X399502Y146350D01*
X399584Y146400D01*
X399675Y146445D01*
X399777Y146484D01*
X399891Y146518D01*
X400018Y146545D01*
X400157Y146564D01*
X400310Y146576D01*
X400493Y146579D01*
X400500Y146582D01*
X400500Y146582D01*
X401425Y146766D01*
X402210Y147290D01*
X402734Y148075D01*
X402918Y149000D01*
X402734Y149925D01*
X402210Y150710D01*
X401425Y151234D01*
X400500Y151418D01*
D02*
G37*
G36*
X203053Y147053D02*
X195947D01*
Y139947D01*
X203053D01*
Y147053D01*
D02*
G37*
G36*
X481531Y144095D02*
X478382D01*
X477454Y143973D01*
X476590Y143615D01*
X475848Y143046D01*
X475279Y142304D01*
X474921Y141439D01*
X474798Y140512D01*
X474921Y139584D01*
X475279Y138720D01*
X475848Y137978D01*
X476590Y137408D01*
X477454Y137050D01*
X478382Y136928D01*
X481531D01*
X482459Y137050D01*
X483323Y137408D01*
X484065Y137978D01*
X484635Y138720D01*
X484993Y139584D01*
X485115Y140512D01*
X484993Y141439D01*
X484635Y142304D01*
X484065Y143046D01*
X483323Y143615D01*
X482459Y143973D01*
X481531Y144095D01*
D02*
G37*
G36*
X460035D02*
X452949D01*
X452021Y143973D01*
X451157Y143615D01*
X450415Y143046D01*
X449846Y142304D01*
X449487Y141439D01*
X449365Y140512D01*
X449487Y139584D01*
X449846Y138720D01*
X450415Y137978D01*
X451157Y137408D01*
X452021Y137050D01*
X452949Y136928D01*
X460035D01*
X460963Y137050D01*
X461827Y137408D01*
X462569Y137978D01*
X463139Y138720D01*
X463497Y139584D01*
X463619Y140512D01*
X463497Y141439D01*
X463139Y142304D01*
X462569Y143046D01*
X461827Y143615D01*
X460963Y143973D01*
X460035Y144095D01*
D02*
G37*
G36*
X199500Y137083D02*
X198573Y136961D01*
X197708Y136603D01*
X196966Y136034D01*
X196397Y135292D01*
X196039Y134427D01*
X195917Y133500D01*
X196039Y132573D01*
X196397Y131708D01*
X196966Y130966D01*
X197708Y130397D01*
X198573Y130039D01*
X199500Y129917D01*
X200427Y130039D01*
X201292Y130397D01*
X202034Y130966D01*
X202603Y131708D01*
X202961Y132573D01*
X203083Y133500D01*
X202961Y134427D01*
X202603Y135292D01*
X202034Y136034D01*
X201292Y136603D01*
X200427Y136961D01*
X199500Y137083D01*
D02*
G37*
G36*
X273500Y132083D02*
X272573Y131961D01*
X271708Y131603D01*
X270966Y131034D01*
X270397Y130292D01*
X270039Y129427D01*
X269917Y128500D01*
X270039Y127573D01*
X270397Y126708D01*
X270966Y125966D01*
X271708Y125397D01*
X272573Y125039D01*
X273500Y124917D01*
X274427Y125039D01*
X275292Y125397D01*
X276034Y125966D01*
X276603Y126708D01*
X276961Y127573D01*
X277083Y128500D01*
X276961Y129427D01*
X276603Y130292D01*
X276034Y131034D01*
X275292Y131603D01*
X274427Y131961D01*
X273500Y132083D01*
D02*
G37*
G36*
X263500D02*
X262573Y131961D01*
X261708Y131603D01*
X260966Y131034D01*
X260397Y130292D01*
X260039Y129427D01*
X259917Y128500D01*
X260039Y127573D01*
X260397Y126708D01*
X260966Y125966D01*
X261708Y125397D01*
X262573Y125039D01*
X263500Y124917D01*
X264427Y125039D01*
X265292Y125397D01*
X266034Y125966D01*
X266603Y126708D01*
X266961Y127573D01*
X267083Y128500D01*
X266961Y129427D01*
X266603Y130292D01*
X266034Y131034D01*
X265292Y131603D01*
X264427Y131961D01*
X263500Y132083D01*
D02*
G37*
G36*
X427000Y127918D02*
X426075Y127734D01*
X425290Y127210D01*
X424766Y126425D01*
X424582Y125500D01*
X424584Y125491D01*
X424579Y125480D01*
X424577Y125300D01*
X424566Y125151D01*
X424547Y125015D01*
X424521Y124891D01*
X424487Y124779D01*
X424448Y124678D01*
X424420Y124622D01*
X330851D01*
X330794Y124649D01*
X330671Y124655D01*
X330579Y124668D01*
X330486Y124691D01*
X330390Y124724D01*
X330290Y124768D01*
X330186Y124825D01*
X330077Y124895D01*
X329965Y124980D01*
X329848Y125080D01*
X329716Y125207D01*
X329710Y125210D01*
X329710Y125210D01*
X328925Y125734D01*
X328000Y125918D01*
X327075Y125734D01*
X326290Y125210D01*
X325766Y124425D01*
X325582Y123500D01*
X325766Y122575D01*
X326290Y121790D01*
X327075Y121266D01*
X328000Y121082D01*
X328925Y121266D01*
X329710Y121790D01*
X329710Y121790D01*
X329716Y121793D01*
X329848Y121920D01*
X329965Y122020D01*
X330077Y122105D01*
X330186Y122175D01*
X330290Y122232D01*
X330390Y122276D01*
X330486Y122309D01*
X330579Y122332D01*
X330671Y122345D01*
X330794Y122351D01*
X330851Y122378D01*
X425000D01*
X425000Y122378D01*
X425429Y122464D01*
X425760Y122685D01*
X425837Y122713D01*
X425929Y122797D01*
X426005Y122853D01*
X426087Y122904D01*
X426178Y122948D01*
X426279Y122987D01*
X426391Y123021D01*
X426515Y123047D01*
X426651Y123066D01*
X426800Y123077D01*
X426980Y123079D01*
X426991Y123084D01*
X427000Y123082D01*
X427925Y123266D01*
X428710Y123790D01*
X429234Y124575D01*
X429418Y125500D01*
X429234Y126425D01*
X428710Y127210D01*
X427925Y127734D01*
X427000Y127918D01*
D02*
G37*
G36*
X199500Y127083D02*
X198573Y126961D01*
X197708Y126603D01*
X196966Y126034D01*
X196397Y125292D01*
X196039Y124427D01*
X195917Y123500D01*
X196039Y122573D01*
X196397Y121708D01*
X196966Y120966D01*
X197708Y120397D01*
X198573Y120039D01*
X199500Y119917D01*
X200427Y120039D01*
X201292Y120397D01*
X202034Y120966D01*
X202603Y121708D01*
X202961Y122573D01*
X203083Y123500D01*
X202961Y124427D01*
X202603Y125292D01*
X202034Y126034D01*
X201292Y126603D01*
X200427Y126961D01*
X199500Y127083D01*
D02*
G37*
G36*
X491626Y120840D02*
X491402Y120810D01*
X490728Y120531D01*
X490149Y120087D01*
X489705Y119508D01*
X489498Y119009D01*
X489032Y118900D01*
X488940Y118916D01*
X488687Y119245D01*
X488108Y119689D01*
X487434Y119968D01*
X487211Y119998D01*
Y117268D01*
Y114538D01*
X487434Y114568D01*
X488108Y114847D01*
X488687Y115291D01*
X489132Y115870D01*
X489338Y116369D01*
X489805Y116478D01*
X489897Y116462D01*
X490149Y116133D01*
X490728Y115689D01*
X491402Y115410D01*
X491626Y115381D01*
Y118110D01*
Y120840D01*
D02*
G37*
G36*
X492626D02*
Y118610D01*
X494856D01*
X494826Y118834D01*
X494547Y119508D01*
X494103Y120087D01*
X493524Y120531D01*
X492849Y120810D01*
X492626Y120840D01*
D02*
G37*
G36*
X413886D02*
Y118610D01*
X416116D01*
X416086Y118834D01*
X415807Y119508D01*
X415363Y120087D01*
X414784Y120531D01*
X414109Y120810D01*
X413886Y120840D01*
D02*
G37*
G36*
X412886D02*
X412662Y120810D01*
X411988Y120531D01*
X411409Y120087D01*
X410965Y119508D01*
X410685Y118834D01*
X410656Y118610D01*
X412886D01*
Y120840D01*
D02*
G37*
G36*
X374516D02*
Y118610D01*
X376746D01*
X376716Y118834D01*
X376437Y119508D01*
X375992Y120087D01*
X375413Y120531D01*
X374739Y120810D01*
X374516Y120840D01*
D02*
G37*
G36*
X373516D02*
X373292Y120810D01*
X372618Y120531D01*
X372039Y120087D01*
X371595Y119508D01*
X371316Y118834D01*
X371286Y118610D01*
X373516D01*
Y120840D01*
D02*
G37*
G36*
X335146D02*
Y118610D01*
X337375D01*
X337346Y118834D01*
X337067Y119508D01*
X336622Y120087D01*
X336044Y120531D01*
X335369Y120810D01*
X335146Y120840D01*
D02*
G37*
G36*
X334146D02*
X333922Y120810D01*
X333248Y120531D01*
X332669Y120087D01*
X332225Y119508D01*
X331945Y118834D01*
X331916Y118610D01*
X334146D01*
Y120840D01*
D02*
G37*
G36*
X486211Y119998D02*
X485987Y119968D01*
X485313Y119689D01*
X484734Y119245D01*
X484290Y118666D01*
X484010Y117991D01*
X483981Y117768D01*
X486211D01*
Y119998D01*
D02*
G37*
G36*
X494856Y117610D02*
X492626D01*
Y115381D01*
X492849Y115410D01*
X493524Y115689D01*
X494103Y116133D01*
X494547Y116712D01*
X494826Y117387D01*
X494856Y117610D01*
D02*
G37*
G36*
X416116D02*
X413886D01*
Y115381D01*
X414109Y115410D01*
X414784Y115689D01*
X415363Y116133D01*
X415807Y116712D01*
X416086Y117387D01*
X416116Y117610D01*
D02*
G37*
G36*
X412886D02*
X410656D01*
X410685Y117387D01*
X410965Y116712D01*
X411409Y116133D01*
X411988Y115689D01*
X412662Y115410D01*
X412886Y115381D01*
Y117610D01*
D02*
G37*
G36*
X376746D02*
X374516D01*
Y115381D01*
X374739Y115410D01*
X375413Y115689D01*
X375992Y116133D01*
X376437Y116712D01*
X376716Y117387D01*
X376746Y117610D01*
D02*
G37*
G36*
X373516D02*
X371286D01*
X371316Y117387D01*
X371595Y116712D01*
X372039Y116133D01*
X372618Y115689D01*
X373292Y115410D01*
X373516Y115381D01*
Y117610D01*
D02*
G37*
G36*
X337375D02*
X335146D01*
Y115381D01*
X335369Y115410D01*
X336044Y115689D01*
X336622Y116133D01*
X337067Y116712D01*
X337346Y117387D01*
X337375Y117610D01*
D02*
G37*
G36*
X334146D02*
X331916D01*
X331945Y117387D01*
X332225Y116712D01*
X332669Y116133D01*
X333248Y115689D01*
X333922Y115410D01*
X334146Y115381D01*
Y117610D01*
D02*
G37*
G36*
X263500Y122083D02*
X262573Y121961D01*
X261708Y121603D01*
X260966Y121034D01*
X260397Y120292D01*
X260039Y119427D01*
X259917Y118500D01*
X260039Y117573D01*
X260397Y116708D01*
X260966Y115966D01*
X261708Y115397D01*
X262573Y115039D01*
X263500Y114917D01*
X264427Y115039D01*
X265292Y115397D01*
X266034Y115966D01*
X266603Y116708D01*
X266961Y117573D01*
X267083Y118500D01*
X266961Y119427D01*
X266603Y120292D01*
X266034Y121034D01*
X265292Y121603D01*
X264427Y121961D01*
X263500Y122083D01*
D02*
G37*
G36*
X486211Y116768D02*
X483981D01*
X484010Y116544D01*
X484290Y115870D01*
X484734Y115291D01*
X485313Y114847D01*
X485987Y114568D01*
X486211Y114538D01*
Y116768D01*
D02*
G37*
G36*
X199500Y117083D02*
X198573Y116961D01*
X197708Y116603D01*
X196966Y116034D01*
X196397Y115292D01*
X196039Y114427D01*
X195917Y113500D01*
X196039Y112573D01*
X196397Y111708D01*
X196966Y110966D01*
X197708Y110397D01*
X198573Y110039D01*
X199500Y109917D01*
X200427Y110039D01*
X201292Y110397D01*
X202034Y110966D01*
X202603Y111708D01*
X202961Y112573D01*
X203083Y113500D01*
X202961Y114427D01*
X202603Y115292D01*
X202034Y116034D01*
X201292Y116603D01*
X200427Y116961D01*
X199500Y117083D01*
D02*
G37*
G36*
X273500Y112083D02*
X272573Y111961D01*
X271708Y111603D01*
X270966Y111034D01*
X270397Y110292D01*
X270039Y109427D01*
X269917Y108500D01*
X270039Y107573D01*
X270397Y106708D01*
X270966Y105966D01*
X271708Y105397D01*
X272573Y105039D01*
X273500Y104917D01*
X274427Y105039D01*
X275292Y105397D01*
X276034Y105966D01*
X276603Y106708D01*
X276961Y107573D01*
X277083Y108500D01*
X276961Y109427D01*
X276603Y110292D01*
X276034Y111034D01*
X275292Y111603D01*
X274427Y111961D01*
X273500Y112083D01*
D02*
G37*
G36*
X263500D02*
X262573Y111961D01*
X261708Y111603D01*
X260966Y111034D01*
X260397Y110292D01*
X260039Y109427D01*
X259917Y108500D01*
X260039Y107573D01*
X260397Y106708D01*
X260966Y105966D01*
X261708Y105397D01*
X262573Y105039D01*
X263500Y104917D01*
X264427Y105039D01*
X265292Y105397D01*
X266034Y105966D01*
X266603Y106708D01*
X266961Y107573D01*
X267083Y108500D01*
X266961Y109427D01*
X266603Y110292D01*
X266034Y111034D01*
X265292Y111603D01*
X264427Y111961D01*
X263500Y112083D01*
D02*
G37*
G36*
X200000Y107421D02*
Y104000D01*
X203421D01*
X203351Y104532D01*
X202953Y105493D01*
X202319Y106319D01*
X201493Y106953D01*
X200532Y107351D01*
X200000Y107421D01*
D02*
G37*
G36*
X190000D02*
Y104000D01*
X193421D01*
X193351Y104532D01*
X192953Y105493D01*
X192319Y106319D01*
X191493Y106953D01*
X190532Y107351D01*
X190000Y107421D01*
D02*
G37*
G36*
X199000D02*
X198468Y107351D01*
X197507Y106953D01*
X196681Y106319D01*
X196047Y105493D01*
X195649Y104532D01*
X195579Y104000D01*
X199000D01*
Y107421D01*
D02*
G37*
G36*
X203421Y103000D02*
X200000D01*
Y99579D01*
X200532Y99649D01*
X201493Y100047D01*
X202319Y100681D01*
X202953Y101507D01*
X203351Y102468D01*
X203421Y103000D01*
D02*
G37*
G36*
X193421D02*
X190000D01*
Y99579D01*
X190532Y99649D01*
X191493Y100047D01*
X192319Y100681D01*
X192953Y101507D01*
X193351Y102468D01*
X193421Y103000D01*
D02*
G37*
G36*
X199000D02*
X195579D01*
X195649Y102468D01*
X196047Y101507D01*
X196681Y100681D01*
X197507Y100047D01*
X198468Y99649D01*
X199000Y99579D01*
Y103000D01*
D02*
G37*
G36*
X274000Y102421D02*
Y99000D01*
X277421D01*
X277351Y99532D01*
X276953Y100493D01*
X276319Y101319D01*
X275493Y101953D01*
X274532Y102351D01*
X274000Y102421D01*
D02*
G37*
G36*
X273000D02*
X272468Y102351D01*
X271507Y101953D01*
X270681Y101319D01*
X270047Y100493D01*
X269649Y99532D01*
X269579Y99000D01*
X273000D01*
Y102421D01*
D02*
G37*
G36*
X263500Y102083D02*
X262573Y101961D01*
X261708Y101603D01*
X260966Y101034D01*
X260397Y100292D01*
X260039Y99427D01*
X259917Y98500D01*
X260039Y97573D01*
X260397Y96708D01*
X260966Y95966D01*
X261708Y95397D01*
X262573Y95039D01*
X263500Y94917D01*
X264427Y95039D01*
X265292Y95397D01*
X266034Y95966D01*
X266603Y96708D01*
X266961Y97573D01*
X267083Y98500D01*
X266961Y99427D01*
X266603Y100292D01*
X266034Y101034D01*
X265292Y101603D01*
X264427Y101961D01*
X263500Y102083D01*
D02*
G37*
G36*
X273500Y122083D02*
X272573Y121961D01*
X271708Y121603D01*
X270966Y121034D01*
X270397Y120292D01*
X270039Y119427D01*
X269917Y118500D01*
X270039Y117573D01*
X270397Y116708D01*
X270966Y115966D01*
X271708Y115397D01*
X272573Y115039D01*
X273500Y114917D01*
X274427Y115039D01*
X275292Y115397D01*
X276034Y115966D01*
X276282Y116289D01*
X276392Y116353D01*
X276626Y116656D01*
X276845Y116912D01*
X277057Y117133D01*
X277260Y117318D01*
X277452Y117467D01*
X277633Y117583D01*
X277800Y117667D01*
X277953Y117723D01*
X278092Y117753D01*
X278271Y117766D01*
X278292Y117777D01*
X278316Y117771D01*
X278351Y117793D01*
X306121D01*
X354707Y69207D01*
X355071Y68964D01*
X355500Y68878D01*
X355500Y68878D01*
X454000D01*
X454000Y68878D01*
X454429Y68964D01*
X454793Y69207D01*
X468800Y83214D01*
X468800Y83214D01*
X469043Y83578D01*
X469128Y84007D01*
Y89042D01*
X474277Y94191D01*
X474337Y94212D01*
X474428Y94295D01*
X474502Y94350D01*
X474584Y94400D01*
X474675Y94445D01*
X474777Y94484D01*
X474891Y94518D01*
X475018Y94545D01*
X475157Y94564D01*
X475310Y94576D01*
X475493Y94579D01*
X475500Y94582D01*
X475500Y94582D01*
X476425Y94766D01*
X477210Y95290D01*
X477734Y96075D01*
X477918Y97000D01*
X477734Y97925D01*
X477210Y98710D01*
X476425Y99234D01*
X475500Y99418D01*
X474575Y99234D01*
X473790Y98710D01*
X473266Y97925D01*
X473082Y97000D01*
X473082Y97000D01*
X473079Y96993D01*
X473076Y96810D01*
X473064Y96657D01*
X473045Y96518D01*
X473018Y96391D01*
X472984Y96277D01*
X472945Y96175D01*
X472900Y96084D01*
X472850Y96002D01*
X472795Y95928D01*
X472712Y95837D01*
X472691Y95777D01*
X467214Y90300D01*
X466970Y89936D01*
X466885Y89507D01*
X466885Y89507D01*
Y84471D01*
X453535Y71122D01*
X355965D01*
X307379Y119707D01*
X307015Y119950D01*
X306586Y120036D01*
X306586Y120036D01*
X278179D01*
X278127Y120062D01*
X277974Y120073D01*
X277834Y120101D01*
X277659Y120156D01*
X277453Y120238D01*
X277220Y120350D01*
X276971Y120485D01*
X276034Y121103D01*
X275687Y121362D01*
X275565Y121393D01*
X275292Y121603D01*
X274427Y121961D01*
X273500Y122083D01*
D02*
G37*
G36*
X277421Y98000D02*
X274000D01*
Y94579D01*
X274532Y94649D01*
X275493Y95047D01*
X276319Y95681D01*
X276953Y96507D01*
X277351Y97468D01*
X277421Y98000D01*
D02*
G37*
G36*
X273000D02*
X269579D01*
X269649Y97468D01*
X270047Y96507D01*
X270681Y95681D01*
X271507Y95047D01*
X272468Y94649D01*
X273000Y94579D01*
Y98000D01*
D02*
G37*
G36*
X277053Y142053D02*
X269947D01*
Y134947D01*
X274877D01*
X274925Y134918D01*
X274977Y134930D01*
X275026Y134910D01*
X275117Y134947D01*
X275319D01*
X275358Y134925D01*
X275472Y134846D01*
X275800Y134568D01*
X275990Y134385D01*
X276055Y134359D01*
X281707Y128707D01*
X281707Y128707D01*
X282071Y128464D01*
X282500Y128378D01*
X315035D01*
X363207Y80207D01*
X363207Y80207D01*
X363571Y79964D01*
X364000Y79878D01*
X364000Y79878D01*
X417500D01*
X417500Y79878D01*
X417929Y79964D01*
X418293Y80207D01*
X422433Y84347D01*
X422457Y84351D01*
X422488Y84396D01*
X422539Y84414D01*
X422632Y84498D01*
X422701Y84548D01*
X422771Y84588D01*
X422846Y84620D01*
X422926Y84645D01*
X423016Y84662D01*
X423116Y84670D01*
X423229Y84669D01*
X423355Y84657D01*
X423516Y84628D01*
X423635Y84654D01*
X424000Y84582D01*
X424925Y84766D01*
X425710Y85290D01*
X426234Y86075D01*
X426418Y87000D01*
X426234Y87925D01*
X425710Y88710D01*
X424925Y89234D01*
X424000Y89418D01*
X423075Y89234D01*
X422290Y88710D01*
X421766Y87925D01*
X421696Y87574D01*
X421625Y87471D01*
X421585Y87281D01*
X421489Y86938D01*
X421440Y86800D01*
X421386Y86670D01*
X421329Y86553D01*
X421270Y86450D01*
X421210Y86359D01*
X421149Y86281D01*
X421069Y86194D01*
X421046Y86133D01*
X417035Y82122D01*
X364465D01*
X316293Y130293D01*
X315929Y130536D01*
X315500Y130622D01*
X315500Y130622D01*
X282965D01*
X277647Y135939D01*
X277624Y136001D01*
X277272Y136380D01*
X277160Y136521D01*
X277075Y136642D01*
X277053Y136681D01*
Y136883D01*
X277090Y136974D01*
X277070Y137023D01*
X277082Y137075D01*
X277053Y137123D01*
Y142053D01*
D02*
G37*
G36*
X481531Y87009D02*
X478382D01*
X477454Y86887D01*
X476590Y86528D01*
X475848Y85959D01*
X475279Y85217D01*
X474921Y84353D01*
X474798Y83425D01*
X474921Y82498D01*
X475279Y81634D01*
X475848Y80891D01*
X476590Y80322D01*
X477454Y79964D01*
X478382Y79842D01*
X481531D01*
X482459Y79964D01*
X483323Y80322D01*
X484065Y80891D01*
X484635Y81634D01*
X484993Y82498D01*
X485115Y83425D01*
X484993Y84353D01*
X484635Y85217D01*
X484065Y85959D01*
X483323Y86528D01*
X482459Y86887D01*
X481531Y87009D01*
D02*
G37*
G36*
X460035D02*
X452949D01*
X452021Y86887D01*
X451157Y86528D01*
X450415Y85959D01*
X449846Y85217D01*
X449487Y84353D01*
X449365Y83425D01*
X449487Y82498D01*
X449846Y81634D01*
X450415Y80891D01*
X451157Y80322D01*
X452021Y79964D01*
X452949Y79842D01*
X460035D01*
X460963Y79964D01*
X461827Y80322D01*
X462569Y80891D01*
X463139Y81634D01*
X463497Y82498D01*
X463619Y83425D01*
X463497Y84353D01*
X463139Y85217D01*
X462569Y85959D01*
X461827Y86528D01*
X460963Y86887D01*
X460035Y87009D01*
D02*
G37*
G36*
X433571Y81470D02*
Y79240D01*
X435801D01*
X435771Y79464D01*
X435492Y80138D01*
X435048Y80717D01*
X434469Y81161D01*
X433794Y81441D01*
X433571Y81470D01*
D02*
G37*
G36*
X432571D02*
X432347Y81441D01*
X431673Y81161D01*
X431094Y80717D01*
X430650Y80138D01*
X430371Y79464D01*
X430341Y79240D01*
X432571D01*
Y81470D01*
D02*
G37*
G36*
X354831D02*
Y79240D01*
X357061D01*
X357031Y79464D01*
X356752Y80138D01*
X356308Y80717D01*
X355729Y81161D01*
X355054Y81441D01*
X354831Y81470D01*
D02*
G37*
G36*
X353831D02*
X353607Y81441D01*
X352933Y81161D01*
X352354Y80717D01*
X351910Y80138D01*
X351630Y79464D01*
X351601Y79240D01*
X353831D01*
Y81470D01*
D02*
G37*
G36*
X315461D02*
Y79240D01*
X317690D01*
X317661Y79464D01*
X317382Y80138D01*
X316937Y80717D01*
X316358Y81161D01*
X315684Y81441D01*
X315461Y81470D01*
D02*
G37*
G36*
X314461D02*
X314237Y81441D01*
X313563Y81161D01*
X312984Y80717D01*
X312540Y80138D01*
X312260Y79464D01*
X312231Y79240D01*
X314461D01*
Y81470D01*
D02*
G37*
G36*
X276091D02*
Y79240D01*
X278320D01*
X278291Y79464D01*
X278012Y80138D01*
X277567Y80717D01*
X276988Y81161D01*
X276314Y81441D01*
X276091Y81470D01*
D02*
G37*
G36*
X275091D02*
X274867Y81441D01*
X274193Y81161D01*
X273614Y80717D01*
X273169Y80138D01*
X272890Y79464D01*
X272861Y79240D01*
X275091D01*
Y81470D01*
D02*
G37*
G36*
X236720D02*
Y79240D01*
X238950D01*
X238921Y79464D01*
X238642Y80138D01*
X238197Y80717D01*
X237618Y81161D01*
X236944Y81441D01*
X236720Y81470D01*
D02*
G37*
G36*
X235720D02*
X235497Y81441D01*
X234823Y81161D01*
X234244Y80717D01*
X233799Y80138D01*
X233520Y79464D01*
X233491Y79240D01*
X235720D01*
Y81470D01*
D02*
G37*
G36*
X197350D02*
Y79240D01*
X199580D01*
X199551Y79464D01*
X199271Y80138D01*
X198827Y80717D01*
X198248Y81161D01*
X197574Y81441D01*
X197350Y81470D01*
D02*
G37*
G36*
X196350D02*
X196127Y81441D01*
X195453Y81161D01*
X194874Y80717D01*
X194429Y80138D01*
X194150Y79464D01*
X194121Y79240D01*
X196350D01*
Y81470D01*
D02*
G37*
G36*
X435801Y78240D02*
X433571D01*
Y76010D01*
X433794Y76040D01*
X434469Y76319D01*
X435048Y76763D01*
X435492Y77342D01*
X435771Y78017D01*
X435801Y78240D01*
D02*
G37*
G36*
X432571D02*
X430341D01*
X430371Y78017D01*
X430650Y77342D01*
X431094Y76763D01*
X431673Y76319D01*
X432347Y76040D01*
X432571Y76010D01*
Y78240D01*
D02*
G37*
G36*
X357061D02*
X354831D01*
Y76010D01*
X355054Y76040D01*
X355729Y76319D01*
X356308Y76763D01*
X356752Y77342D01*
X357031Y78017D01*
X357061Y78240D01*
D02*
G37*
G36*
X353831D02*
X351601D01*
X351630Y78017D01*
X351910Y77342D01*
X352354Y76763D01*
X352933Y76319D01*
X353607Y76040D01*
X353831Y76010D01*
Y78240D01*
D02*
G37*
G36*
X317690D02*
X315461D01*
Y76010D01*
X315684Y76040D01*
X316358Y76319D01*
X316937Y76763D01*
X317382Y77342D01*
X317661Y78017D01*
X317690Y78240D01*
D02*
G37*
G36*
X314461D02*
X312231D01*
X312260Y78017D01*
X312540Y77342D01*
X312984Y76763D01*
X313563Y76319D01*
X314237Y76040D01*
X314461Y76010D01*
Y78240D01*
D02*
G37*
G36*
X278320D02*
X276091D01*
Y76010D01*
X276314Y76040D01*
X276988Y76319D01*
X277567Y76763D01*
X278012Y77342D01*
X278291Y78017D01*
X278320Y78240D01*
D02*
G37*
G36*
X275091D02*
X272861D01*
X272890Y78017D01*
X273169Y77342D01*
X273614Y76763D01*
X274193Y76319D01*
X274867Y76040D01*
X275091Y76010D01*
Y78240D01*
D02*
G37*
G36*
X238950D02*
X236720D01*
Y76010D01*
X236944Y76040D01*
X237618Y76319D01*
X238197Y76763D01*
X238642Y77342D01*
X238921Y78017D01*
X238950Y78240D01*
D02*
G37*
G36*
X235720D02*
X233491D01*
X233520Y78017D01*
X233799Y77342D01*
X234244Y76763D01*
X234823Y76319D01*
X235497Y76040D01*
X235720Y76010D01*
Y78240D01*
D02*
G37*
G36*
X199580D02*
X197350D01*
Y76010D01*
X197574Y76040D01*
X198248Y76319D01*
X198827Y76763D01*
X199271Y77342D01*
X199551Y78017D01*
X199580Y78240D01*
D02*
G37*
G36*
X196350D02*
X194121D01*
X194150Y78017D01*
X194429Y77342D01*
X194874Y76763D01*
X195453Y76319D01*
X196127Y76040D01*
X196350Y76010D01*
Y78240D01*
D02*
G37*
G36*
X204185Y71996D02*
Y59685D01*
X216496D01*
X216377Y61195D01*
X215907Y63156D01*
X215135Y65019D01*
X214081Y66738D01*
X212772Y68272D01*
X211239Y69581D01*
X209519Y70635D01*
X207656Y71407D01*
X205695Y71877D01*
X204185Y71996D01*
D02*
G37*
G36*
X203185D02*
X201675Y71877D01*
X199714Y71407D01*
X197851Y70635D01*
X196132Y69581D01*
X194598Y68272D01*
X193289Y66738D01*
X192235Y65019D01*
X191463Y63156D01*
X190993Y61195D01*
X190874Y59685D01*
X203185D01*
Y71996D01*
D02*
G37*
G36*
X480500Y71811D02*
Y59500D01*
X492811D01*
X492692Y61010D01*
X492222Y62971D01*
X491450Y64834D01*
X490396Y66553D01*
X489087Y68087D01*
X487553Y69396D01*
X485834Y70450D01*
X483971Y71222D01*
X482010Y71692D01*
X480500Y71811D01*
D02*
G37*
G36*
X479500D02*
X477990Y71692D01*
X476029Y71222D01*
X474166Y70450D01*
X472447Y69396D01*
X470913Y68087D01*
X469604Y66553D01*
X468550Y64834D01*
X467778Y62971D01*
X467308Y61010D01*
X467189Y59500D01*
X479500D01*
Y71811D01*
D02*
G37*
G36*
X216496Y58685D02*
X204185D01*
Y46374D01*
X205695Y46493D01*
X207656Y46963D01*
X209519Y47735D01*
X211239Y48789D01*
X212772Y50098D01*
X214081Y51632D01*
X215135Y53351D01*
X215907Y55214D01*
X216377Y57175D01*
X216496Y58685D01*
D02*
G37*
G36*
X203185D02*
X190874D01*
X190993Y57175D01*
X191463Y55214D01*
X192235Y53351D01*
X193289Y51632D01*
X194598Y50098D01*
X196132Y48789D01*
X197851Y47735D01*
X199714Y46963D01*
X201675Y46493D01*
X203185Y46374D01*
Y58685D01*
D02*
G37*
G36*
X492811Y58500D02*
X480500D01*
Y46189D01*
X482010Y46308D01*
X483971Y46778D01*
X485834Y47550D01*
X487553Y48604D01*
X489087Y49913D01*
X490396Y51447D01*
X491450Y53166D01*
X492222Y55029D01*
X492692Y56990D01*
X492811Y58500D01*
D02*
G37*
G36*
X479500D02*
X467189D01*
X467308Y56990D01*
X467778Y55029D01*
X468550Y53166D01*
X469604Y51447D01*
X470913Y49913D01*
X472447Y48604D01*
X474166Y47550D01*
X476029Y46778D01*
X477990Y46308D01*
X479500Y46189D01*
Y58500D01*
D02*
G37*
%LPD*%
G36*
X193164Y416457D02*
X193025Y416296D01*
X192901Y416105D01*
X192792Y415885D01*
X192698Y415636D01*
X192620Y415358D01*
X192556Y415051D01*
X192507Y414714D01*
X192456Y413954D01*
X192453Y413529D01*
X189530Y416453D01*
X189954Y416456D01*
X190715Y416507D01*
X191051Y416556D01*
X191358Y416619D01*
X191637Y416698D01*
X191885Y416792D01*
X192105Y416901D01*
X192296Y417025D01*
X192457Y417164D01*
X193164Y416457D01*
D02*
G37*
G36*
X270765Y411949D02*
X271134Y411635D01*
X271298Y411521D01*
X271446Y411435D01*
X271580Y411377D01*
X271700Y411347D01*
X271806Y411346D01*
X271897Y411373D01*
X271973Y411429D01*
X270571Y410027D01*
X270627Y410103D01*
X270654Y410194D01*
X270653Y410300D01*
X270623Y410420D01*
X270565Y410554D01*
X270479Y410703D01*
X270365Y410865D01*
X270222Y411043D01*
X269852Y411441D01*
X270559Y412148D01*
X270765Y411949D01*
D02*
G37*
G36*
X484775Y393280D02*
X484790Y393087D01*
X484815Y392905D01*
X484852Y392732D01*
X484900Y392568D01*
X484959Y392415D01*
X485030Y392272D01*
X485111Y392138D01*
X485203Y392014D01*
X485307Y391900D01*
X484600Y391193D01*
X484486Y391297D01*
X484362Y391389D01*
X484228Y391470D01*
X484085Y391541D01*
X483931Y391600D01*
X483768Y391648D01*
X483595Y391685D01*
X483413Y391710D01*
X483220Y391725D01*
X483018Y391728D01*
X484772Y393482D01*
X484775Y393280D01*
D02*
G37*
G36*
X479775Y392280D02*
X479790Y392087D01*
X479815Y391905D01*
X479852Y391732D01*
X479900Y391568D01*
X479959Y391415D01*
X480030Y391272D01*
X480111Y391138D01*
X480203Y391014D01*
X480307Y390900D01*
X479600Y390193D01*
X479486Y390297D01*
X479362Y390389D01*
X479228Y390470D01*
X479085Y390541D01*
X478932Y390600D01*
X478768Y390648D01*
X478595Y390685D01*
X478413Y390710D01*
X478220Y390725D01*
X478018Y390728D01*
X479772Y392482D01*
X479775Y392280D01*
D02*
G37*
G36*
X488222Y388997D02*
X488348Y388905D01*
X488482Y388829D01*
X488624Y388768D01*
X488772Y388723D01*
X488929Y388694D01*
X489092Y388680D01*
X489264Y388682D01*
X489443Y388700D01*
X489629Y388732D01*
X488261Y386664D01*
X488216Y386873D01*
X488109Y387258D01*
X488047Y387434D01*
X487978Y387598D01*
X487904Y387750D01*
X487823Y387891D01*
X487737Y388021D01*
X487645Y388139D01*
X487547Y388246D01*
X488103Y389104D01*
X488222Y388997D01*
D02*
G37*
G36*
X490788Y380430D02*
X490913Y380339D01*
X491039Y380270D01*
X491164Y380223D01*
X491290Y380198D01*
X491417Y380196D01*
X491543Y380216D01*
X491670Y380258D01*
X491798Y380322D01*
X491925Y380408D01*
X491483Y378085D01*
X491408Y378203D01*
X491219Y378464D01*
X490977Y378760D01*
X490335Y379456D01*
X490141Y379651D01*
X490663Y380544D01*
X490788Y380430D01*
D02*
G37*
G36*
X316735Y366260D02*
X316589Y366401D01*
X316443Y366526D01*
X316295Y366637D01*
X316147Y366734D01*
X315998Y366815D01*
X315847Y366882D01*
X315696Y366933D01*
X315544Y366970D01*
X315391Y366993D01*
X315237Y367000D01*
Y368000D01*
X315391Y368007D01*
X315544Y368030D01*
X315696Y368067D01*
X315847Y368118D01*
X315998Y368185D01*
X316147Y368267D01*
X316295Y368363D01*
X316443Y368474D01*
X316589Y368600D01*
X316735Y368740D01*
Y366260D01*
D02*
G37*
G36*
X276456Y378046D02*
X276507Y377286D01*
X276556Y376949D01*
X276620Y376642D01*
X276698Y376363D01*
X276792Y376115D01*
X276901Y375895D01*
X277025Y375704D01*
X277164Y375543D01*
X276457Y374836D01*
X276296Y374975D01*
X276105Y375099D01*
X275886Y375208D01*
X275637Y375302D01*
X275358Y375380D01*
X275051Y375444D01*
X274714Y375493D01*
X273954Y375544D01*
X273530Y375547D01*
X276453Y378470D01*
X276456Y378046D01*
D02*
G37*
G36*
X317735Y359260D02*
X317589Y359401D01*
X317443Y359526D01*
X317295Y359637D01*
X317147Y359734D01*
X316998Y359815D01*
X316847Y359882D01*
X316696Y359933D01*
X316544Y359970D01*
X316391Y359993D01*
X316237Y360000D01*
Y361000D01*
X316391Y361007D01*
X316544Y361030D01*
X316696Y361067D01*
X316847Y361118D01*
X316998Y361185D01*
X317147Y361266D01*
X317295Y361363D01*
X317443Y361474D01*
X317589Y361599D01*
X317735Y361740D01*
Y359260D01*
D02*
G37*
G36*
X266439Y319405D02*
X266469Y319320D01*
X266520Y319245D01*
X266591Y319180D01*
X266682Y319125D01*
X266793Y319080D01*
X266925Y319045D01*
X267076Y319020D01*
X267249Y319005D01*
X267441Y319000D01*
Y318000D01*
X267249Y317995D01*
X267076Y317980D01*
X266925Y317955D01*
X266793Y317920D01*
X266682Y317875D01*
X266591Y317820D01*
X266520Y317755D01*
X266469Y317680D01*
X266439Y317595D01*
X266429Y317500D01*
Y319500D01*
X266439Y319405D01*
D02*
G37*
G36*
X266327Y309441D02*
X266473Y309191D01*
X266628Y308970D01*
X266791Y308779D01*
X266963Y308618D01*
X267144Y308485D01*
X267333Y308382D01*
X267531Y308309D01*
X267738Y308265D01*
X267953Y308250D01*
X267947Y307250D01*
X267712Y307239D01*
X267470Y307205D01*
X267219Y307148D01*
X266961Y307069D01*
X266694Y306967D01*
X266420Y306842D01*
X266137Y306695D01*
X265549Y306332D01*
X265243Y306116D01*
X266189Y309720D01*
X266327Y309441D01*
D02*
G37*
G36*
X276456Y288046D02*
X276507Y287285D01*
X276556Y286949D01*
X276620Y286642D01*
X276698Y286364D01*
X276792Y286115D01*
X276901Y285895D01*
X277025Y285704D01*
X277164Y285543D01*
X276457Y284836D01*
X276296Y284975D01*
X276105Y285099D01*
X275886Y285208D01*
X275637Y285302D01*
X275358Y285381D01*
X275051Y285444D01*
X274714Y285493D01*
X273954Y285544D01*
X273530Y285547D01*
X276453Y288471D01*
X276456Y288046D01*
D02*
G37*
G36*
X386139Y282586D02*
X386308Y282472D01*
X386499Y282372D01*
X386713Y282286D01*
X386950Y282214D01*
X387210Y282155D01*
X387492Y282110D01*
X387796Y282079D01*
X388474Y282059D01*
X385941Y279526D01*
X385938Y279876D01*
X385890Y280508D01*
X385845Y280790D01*
X385786Y281050D01*
X385714Y281287D01*
X385628Y281501D01*
X385528Y281692D01*
X385414Y281861D01*
X385286Y282007D01*
X385993Y282714D01*
X386139Y282586D01*
D02*
G37*
G36*
X386672Y247709D02*
X386422Y247954D01*
X385941Y248367D01*
X385710Y248535D01*
X385485Y248677D01*
X385267Y248793D01*
X385054Y248884D01*
X384848Y248948D01*
X384648Y248987D01*
X384455Y249000D01*
Y250000D01*
X384648Y250013D01*
X384848Y250052D01*
X385054Y250116D01*
X385267Y250207D01*
X385485Y250323D01*
X385710Y250465D01*
X385941Y250633D01*
X386179Y250827D01*
X386672Y251291D01*
Y247709D01*
D02*
G37*
G36*
Y237709D02*
X386422Y237954D01*
X385941Y238367D01*
X385710Y238535D01*
X385485Y238677D01*
X385267Y238793D01*
X385054Y238884D01*
X384848Y238948D01*
X384648Y238987D01*
X384455Y239000D01*
Y240000D01*
X384648Y240013D01*
X384848Y240052D01*
X385054Y240116D01*
X385267Y240207D01*
X385485Y240323D01*
X385710Y240465D01*
X385941Y240633D01*
X386179Y240827D01*
X386672Y241291D01*
Y237709D01*
D02*
G37*
G36*
X430014Y268703D02*
X430138Y268611D01*
X430272Y268530D01*
X430415Y268459D01*
X430569Y268400D01*
X430732Y268352D01*
X430905Y268315D01*
X431087Y268290D01*
X431280Y268275D01*
X431482Y268272D01*
X429728Y266518D01*
X429725Y266720D01*
X429710Y266913D01*
X429685Y267095D01*
X429648Y267268D01*
X429600Y267431D01*
X429541Y267585D01*
X429470Y267728D01*
X429389Y267862D01*
X429297Y267986D01*
X429193Y268100D01*
X429900Y268807D01*
X430014Y268703D01*
D02*
G37*
G36*
X426301Y267378D02*
X425575Y267234D01*
X424790Y266710D01*
X424790Y266710D01*
X424784Y266707D01*
X424652Y266580D01*
X424535Y266480D01*
X424423Y266395D01*
X424314Y266325D01*
X424210Y266268D01*
X424110Y266224D01*
X424014Y266191D01*
X423921Y266168D01*
X423829Y266155D01*
X423706Y266149D01*
X423649Y266122D01*
X416500D01*
X416500Y266122D01*
X416071Y266036D01*
X415707Y265793D01*
X415707Y265793D01*
X403084Y253170D01*
X402622Y253361D01*
Y255035D01*
X415465Y267879D01*
X426251D01*
X426301Y267378D01*
D02*
G37*
G36*
X425235Y263760D02*
X425089Y263900D01*
X424943Y264026D01*
X424795Y264137D01*
X424647Y264233D01*
X424498Y264315D01*
X424347Y264382D01*
X424196Y264433D01*
X424044Y264470D01*
X423891Y264493D01*
X423737Y264500D01*
Y265500D01*
X423891Y265507D01*
X424044Y265530D01*
X424196Y265567D01*
X424347Y265618D01*
X424498Y265685D01*
X424647Y265767D01*
X424795Y265863D01*
X424943Y265974D01*
X425089Y266100D01*
X425235Y266240D01*
Y263760D01*
D02*
G37*
G36*
X266439Y229405D02*
X266469Y229320D01*
X266520Y229245D01*
X266591Y229180D01*
X266682Y229125D01*
X266793Y229080D01*
X266925Y229045D01*
X267076Y229020D01*
X267249Y229005D01*
X267441Y229000D01*
Y228000D01*
X267249Y227995D01*
X267076Y227980D01*
X266925Y227955D01*
X266793Y227920D01*
X266682Y227875D01*
X266591Y227820D01*
X266520Y227755D01*
X266469Y227680D01*
X266439Y227595D01*
X266429Y227500D01*
Y229500D01*
X266439Y229405D01*
D02*
G37*
G36*
X266327Y219441D02*
X266473Y219191D01*
X266628Y218970D01*
X266791Y218779D01*
X266963Y218618D01*
X267144Y218485D01*
X267333Y218382D01*
X267531Y218309D01*
X267738Y218265D01*
X267953Y218250D01*
X267947Y217250D01*
X267712Y217239D01*
X267470Y217205D01*
X267219Y217148D01*
X266961Y217069D01*
X266694Y216967D01*
X266420Y216842D01*
X266137Y216694D01*
X265549Y216332D01*
X265243Y216116D01*
X266189Y219720D01*
X266327Y219441D01*
D02*
G37*
G36*
X316707Y182207D02*
X316707Y182207D01*
X317071Y181964D01*
X317500Y181878D01*
X317500Y181878D01*
X378000D01*
X378000Y181878D01*
X378429Y181964D01*
X378793Y182207D01*
X401717Y205130D01*
X402178Y204939D01*
Y196265D01*
X379035Y173122D01*
X318965D01*
X277262Y214824D01*
X276899Y215067D01*
X276469Y215152D01*
X276469Y215152D01*
X275795D01*
X275625Y215652D01*
X276034Y215966D01*
X276603Y216708D01*
X276961Y217573D01*
X277083Y218500D01*
X276961Y219427D01*
X276603Y220292D01*
X276034Y221034D01*
X275646Y221331D01*
X275816Y221831D01*
X277083D01*
X316707Y182207D01*
D02*
G37*
G36*
X472295Y291821D02*
X472144Y291699D01*
X472009Y291574D01*
X471890Y291444D01*
X471786Y291310D01*
X471699Y291172D01*
X471627Y291030D01*
X471572Y290884D01*
X471532Y290735D01*
X471508Y290581D01*
X471500Y290423D01*
X470500Y290559D01*
X470493Y290708D01*
X470473Y290859D01*
X470440Y291012D01*
X470394Y291167D01*
X470334Y291324D01*
X470261Y291483D01*
X470175Y291645D01*
X470075Y291809D01*
X469836Y292143D01*
X472295Y291821D01*
D02*
G37*
G36*
X432950Y238235D02*
X434240D01*
X434099Y238089D01*
X433974Y237943D01*
X433863Y237795D01*
X433767Y237647D01*
X433685Y237498D01*
X433618Y237348D01*
X433567Y237196D01*
X433530Y237044D01*
X433507Y236891D01*
X433500Y236737D01*
X433362D01*
X433360Y236702D01*
X432936Y236737D01*
X432500D01*
X432498Y236773D01*
X432360Y236785D01*
X432353Y236936D01*
X432332Y237088D01*
X432298Y237240D01*
X432249Y237394D01*
X432186Y237549D01*
X432110Y237704D01*
X432019Y237861D01*
X431915Y238019D01*
X431796Y238177D01*
X431664Y238337D01*
X432950Y238235D01*
D02*
G37*
G36*
X433362Y225763D02*
X433500D01*
X433507Y225609D01*
X433530Y225456D01*
X433567Y225304D01*
X433618Y225152D01*
X433685Y225002D01*
X433767Y224853D01*
X433863Y224705D01*
X433974Y224557D01*
X434099Y224411D01*
X434240Y224265D01*
X434044D01*
X432804Y223000D01*
X431664Y224163D01*
X431796Y224323D01*
X432019Y224639D01*
X432110Y224796D01*
X432186Y224951D01*
X432249Y225106D01*
X432298Y225260D01*
X432332Y225412D01*
X432353Y225564D01*
X432360Y225715D01*
X432498Y225727D01*
X432500Y225763D01*
X432936D01*
X433360Y225798D01*
X433362Y225763D01*
D02*
G37*
G36*
X433787Y221998D02*
X434772Y222982D01*
X434775Y222780D01*
X434790Y222587D01*
X434815Y222405D01*
X434852Y222232D01*
X434900Y222069D01*
X434959Y221915D01*
X435030Y221772D01*
X435111Y221638D01*
X435203Y221514D01*
X435307Y221400D01*
X434600Y220693D01*
X434486Y220797D01*
X434362Y220889D01*
X434228Y220970D01*
X434085Y221041D01*
X433931Y221100D01*
X433768Y221148D01*
X433687Y221165D01*
X433640Y221099D01*
X433554Y220957D01*
X433484Y220812D01*
X433430Y220663D01*
X433391Y220513D01*
X433368Y220359D01*
X433360Y220202D01*
X432360Y220285D01*
X432353Y220436D01*
X432332Y220588D01*
X432298Y220740D01*
X432249Y220894D01*
X432186Y221049D01*
X432110Y221204D01*
X432019Y221361D01*
X431796Y221677D01*
X431664Y221837D01*
X432804Y223000D01*
X433787Y221998D01*
D02*
G37*
G36*
X433360Y98936D02*
X433367Y98785D01*
X433388Y98633D01*
X433423Y98480D01*
X433472Y98326D01*
X433534Y98172D01*
X433611Y98016D01*
X433701Y97859D01*
X433806Y97702D01*
X433924Y97543D01*
X434057Y97384D01*
X431584Y97580D01*
X431732Y97711D01*
X431863Y97845D01*
X431980Y97982D01*
X432081Y98121D01*
X432166Y98264D01*
X432236Y98409D01*
X432290Y98557D01*
X432329Y98708D01*
X432352Y98862D01*
X432360Y99018D01*
X433360Y98936D01*
D02*
G37*
G36*
X400482Y147228D02*
X400280Y147225D01*
X400087Y147210D01*
X399905Y147185D01*
X399732Y147148D01*
X399569Y147100D01*
X399415Y147041D01*
X399272Y146970D01*
X399138Y146889D01*
X399014Y146797D01*
X398900Y146693D01*
X398193Y147400D01*
X398297Y147514D01*
X398389Y147638D01*
X398470Y147772D01*
X398541Y147915D01*
X398600Y148068D01*
X398648Y148232D01*
X398685Y148405D01*
X398710Y148587D01*
X398725Y148780D01*
X398728Y148982D01*
X400482Y147228D01*
D02*
G37*
G36*
X267223Y141185D02*
X267064Y141025D01*
X266447Y140321D01*
X266429Y140279D01*
X266429Y140253D01*
X265914Y141429D01*
X265928Y141416D01*
X265952Y141417D01*
X265986Y141430D01*
X266031Y141457D01*
X266086Y141497D01*
X266151Y141550D01*
X266409Y141787D01*
X266516Y141892D01*
X267223Y141185D01*
D02*
G37*
G36*
X426972Y123729D02*
X426773Y123726D01*
X426583Y123712D01*
X426402Y123687D01*
X426231Y123651D01*
X426069Y123603D01*
X425916Y123544D01*
X425773Y123473D01*
X425639Y123391D01*
X425515Y123298D01*
X425400Y123193D01*
X424693Y123900D01*
X424798Y124015D01*
X424891Y124139D01*
X424973Y124273D01*
X425043Y124416D01*
X425103Y124569D01*
X425151Y124731D01*
X425187Y124902D01*
X425212Y125083D01*
X425226Y125273D01*
X425229Y125472D01*
X426972Y123729D01*
D02*
G37*
G36*
X329411Y124600D02*
X329557Y124474D01*
X329705Y124363D01*
X329853Y124267D01*
X330002Y124185D01*
X330153Y124118D01*
X330304Y124067D01*
X330456Y124030D01*
X330609Y124007D01*
X330763Y124000D01*
Y123000D01*
X330609Y122993D01*
X330456Y122970D01*
X330304Y122933D01*
X330153Y122882D01*
X330002Y122815D01*
X329853Y122733D01*
X329705Y122637D01*
X329557Y122526D01*
X329411Y122400D01*
X329265Y122260D01*
Y124740D01*
X329411Y124600D01*
D02*
G37*
G36*
X275661Y120571D02*
X276636Y119928D01*
X276923Y119771D01*
X277192Y119643D01*
X277442Y119543D01*
X277673Y119471D01*
X277886Y119429D01*
X278079Y119414D01*
X278223Y118414D01*
X277998Y118398D01*
X277771Y118348D01*
X277542Y118264D01*
X277310Y118148D01*
X277077Y117998D01*
X276841Y117815D01*
X276604Y117598D01*
X276364Y117349D01*
X276122Y117066D01*
X275878Y116749D01*
X275298Y120842D01*
X275661Y120571D01*
D02*
G37*
G36*
X475482Y95228D02*
X475280Y95225D01*
X475087Y95210D01*
X474905Y95185D01*
X474732Y95148D01*
X474569Y95100D01*
X474415Y95041D01*
X474272Y94970D01*
X474138Y94889D01*
X474014Y94797D01*
X473900Y94693D01*
X473193Y95400D01*
X473297Y95514D01*
X473389Y95638D01*
X473470Y95772D01*
X473541Y95915D01*
X473600Y96069D01*
X473648Y96232D01*
X473685Y96405D01*
X473710Y96587D01*
X473725Y96780D01*
X473728Y96982D01*
X475482Y95228D01*
D02*
G37*
G36*
X276384Y136896D02*
X276356Y136804D01*
Y136698D01*
X276384Y136577D01*
X276441Y136443D01*
X276526Y136295D01*
X276639Y136132D01*
X276780Y135955D01*
X277148Y135559D01*
X276441Y134852D01*
X276236Y135050D01*
X275868Y135361D01*
X275705Y135474D01*
X275557Y135559D01*
X275423Y135616D01*
X275302Y135644D01*
X275196D01*
X275104Y135616D01*
X275026Y135559D01*
X276441Y136974D01*
X276384Y136896D01*
D02*
G37*
G36*
X423629Y85268D02*
X423443Y85300D01*
X423264Y85318D01*
X423093Y85320D01*
X422929Y85306D01*
X422772Y85277D01*
X422623Y85232D01*
X422482Y85171D01*
X422348Y85095D01*
X422222Y85004D01*
X422103Y84896D01*
X421547Y85754D01*
X421645Y85861D01*
X421737Y85979D01*
X421824Y86109D01*
X421904Y86250D01*
X421978Y86402D01*
X422047Y86566D01*
X422109Y86742D01*
X422216Y87127D01*
X422261Y87336D01*
X423629Y85268D01*
D02*
G37*
D10*
X185000Y98000D02*
X189500Y93500D01*
X185000Y179000D02*
X189500Y183500D01*
X185000Y98000D02*
Y179000D01*
Y188000D02*
X189500Y183500D01*
X185000Y188000D02*
Y268000D01*
X189500Y272500D02*
Y273500D01*
X185000Y268000D02*
X189500Y272500D01*
X185447Y277553D02*
Y355947D01*
Y277553D02*
X189500Y273500D01*
X188561Y362561D02*
X189500Y363500D01*
X188561Y359061D02*
Y362561D01*
X185447Y355947D02*
X188561Y359061D01*
X189500Y273500D02*
X199500D01*
X189500Y183500D02*
X199500D01*
X189500Y93500D02*
X199500D01*
X189500Y363500D02*
X199500D01*
X491500Y372500D02*
X496500D01*
X472500Y391500D02*
X491500Y372500D01*
X468007Y89507D02*
X475500Y97000D01*
X468007Y84007D02*
Y89507D01*
X403300Y251800D02*
X416500Y265000D01*
X426500D01*
X415000Y269000D02*
X429000D01*
X431500Y266500D01*
X423500Y87000D02*
X424000D01*
X417500Y81000D02*
X423500Y87000D01*
X432721Y96220D02*
X432860Y96360D01*
Y239360D01*
X433000Y239500D01*
X328000Y123500D02*
X425000D01*
X427000Y125500D01*
X282500Y129500D02*
X315500D01*
X364000Y81000D02*
X417500D01*
X315500Y129500D02*
X364000Y81000D01*
X273914Y118914D02*
X306586D01*
X355500Y70000D02*
X454000D01*
X306586Y118914D02*
X355500Y70000D01*
X277737Y144553D02*
X281290Y141000D01*
X392500D02*
X400500Y149000D01*
X281290Y141000D02*
X392500D01*
X269263Y144553D02*
X277737D01*
X265953Y140953D02*
X266283D01*
X266869Y142159D02*
X269263Y144553D01*
X266283Y140953D02*
X266869Y141539D01*
Y142159D01*
X263500Y138500D02*
X265953Y140953D01*
X273500Y138500D02*
X282500Y129500D01*
X471000Y293007D02*
X471230Y293236D01*
X471000Y222500D02*
Y293007D01*
X469000Y220500D02*
X471000Y222500D01*
X435500Y220500D02*
X469000D01*
X433000Y223000D02*
Y239500D01*
Y223000D02*
X435500Y220500D01*
X454000Y70000D02*
X468007Y84007D01*
X271020Y222953D02*
X277547D01*
X317500Y183000D02*
X378000D01*
X277547Y222953D02*
X317500Y183000D01*
X318500Y172000D02*
X379500D01*
X271672Y214031D02*
X276469D01*
X318500Y172000D01*
X264250Y217750D02*
X267953D01*
X271672Y214031D01*
X401500Y255500D02*
X415000Y269000D01*
X403300Y195800D02*
Y251800D01*
X378000Y183000D02*
X401500Y206500D01*
Y255500D01*
X379500Y172000D02*
X403300Y195800D01*
X296000Y367500D02*
X318000D01*
X273500Y388500D02*
X274827D01*
X276226Y387101D01*
X276399D01*
X296000Y367500D01*
X273500Y378500D02*
X291500Y360500D01*
X319000D01*
X259500Y422500D02*
X273500Y408500D01*
X189500Y413500D02*
X198500Y422500D01*
X259500D01*
X317441Y273559D02*
X360181D01*
X384240Y249500D01*
X388500D01*
X263500Y308500D02*
X264250Y307750D01*
X267953D01*
X272750Y302953D01*
X288047D01*
X317441Y273559D01*
X263500Y318500D02*
X267953D01*
X268939Y317513D01*
Y315034D02*
Y317513D01*
Y315034D02*
X271020Y312953D01*
X352547D01*
X364000Y301500D01*
X366500D02*
X388500Y279500D01*
X364000Y301500D02*
X366500D01*
X368000Y250000D02*
Y262914D01*
X273500Y288500D02*
X296559Y265441D01*
X365473D01*
X368000Y262914D01*
Y250000D02*
X378500Y239500D01*
X388500D01*
X263500Y228500D02*
X267953D01*
X268939Y227513D01*
Y225034D02*
Y227513D01*
Y225034D02*
X271020Y222953D01*
X263500Y218500D02*
X264250Y217750D01*
X273500Y118500D02*
X273914Y118914D01*
X478000Y392500D02*
X491500Y379000D01*
X493000D01*
X489500Y387000D02*
X490000D01*
X483000Y393500D02*
X489500Y387000D01*
D22*
X263500Y288500D02*
D03*
Y298500D02*
D03*
Y308500D02*
D03*
Y278500D02*
D03*
X273500D02*
D03*
Y308500D02*
D03*
Y298500D02*
D03*
Y288500D02*
D03*
X189500Y93500D02*
D03*
X199500D02*
D03*
X189500Y103500D02*
D03*
X199500D02*
D03*
X189500Y113500D02*
D03*
X199500D02*
D03*
X189500Y123500D02*
D03*
X199500D02*
D03*
X189500Y133500D02*
D03*
X199500D02*
D03*
X189500Y143500D02*
D03*
Y183500D02*
D03*
X199500D02*
D03*
X189500Y193500D02*
D03*
X199500D02*
D03*
X189500Y203500D02*
D03*
X199500D02*
D03*
X189500Y213500D02*
D03*
X199500D02*
D03*
X189500Y223500D02*
D03*
X199500D02*
D03*
X189500Y233500D02*
D03*
Y273500D02*
D03*
X199500D02*
D03*
X189500Y283500D02*
D03*
X199500D02*
D03*
X189500Y293500D02*
D03*
X199500D02*
D03*
X189500Y303500D02*
D03*
X199500D02*
D03*
X189500Y313500D02*
D03*
X199500D02*
D03*
X189500Y323500D02*
D03*
Y363500D02*
D03*
X199500D02*
D03*
X189500Y373500D02*
D03*
X199500D02*
D03*
X189500Y383500D02*
D03*
X199500D02*
D03*
X189500Y393500D02*
D03*
X199500D02*
D03*
X189500Y403500D02*
D03*
X199500D02*
D03*
X189500Y413500D02*
D03*
X263500Y108500D02*
D03*
Y118500D02*
D03*
Y128500D02*
D03*
Y98500D02*
D03*
X273500D02*
D03*
Y128500D02*
D03*
Y118500D02*
D03*
Y108500D02*
D03*
X263500Y198500D02*
D03*
Y208500D02*
D03*
Y218500D02*
D03*
Y188500D02*
D03*
X273500D02*
D03*
Y218500D02*
D03*
Y208500D02*
D03*
Y198500D02*
D03*
X263500Y378500D02*
D03*
Y388500D02*
D03*
Y398500D02*
D03*
Y368500D02*
D03*
X273500D02*
D03*
Y398500D02*
D03*
Y388500D02*
D03*
Y378500D02*
D03*
D23*
X263500Y318500D02*
D03*
X273500D02*
D03*
X263500Y138500D02*
D03*
X273500D02*
D03*
X263500Y228500D02*
D03*
X273500D02*
D03*
X263500Y408500D02*
D03*
X273500D02*
D03*
D24*
X199500Y143500D02*
D03*
Y233500D02*
D03*
Y323500D02*
D03*
Y413500D02*
D03*
D25*
X358500Y289500D02*
D03*
D26*
Y279500D02*
D03*
Y269500D02*
D03*
Y259500D02*
D03*
Y249500D02*
D03*
Y239500D02*
D03*
Y229500D02*
D03*
Y219500D02*
D03*
X388500Y289500D02*
D03*
Y279500D02*
D03*
Y269500D02*
D03*
Y259500D02*
D03*
Y249500D02*
D03*
Y239500D02*
D03*
Y229500D02*
D03*
Y219500D02*
D03*
D27*
X479957Y83425D02*
D03*
Y140512D02*
D03*
X480000Y226913D02*
D03*
Y284000D02*
D03*
X479957Y370488D02*
D03*
Y427575D02*
D03*
D28*
X456492Y83425D02*
D03*
Y140512D02*
D03*
X456535Y226913D02*
D03*
Y284000D02*
D03*
X456492Y370488D02*
D03*
Y427575D02*
D03*
D29*
X492126Y433071D02*
D03*
Y196850D02*
D03*
X472441Y157480D02*
D03*
X492126Y118110D02*
D03*
X433071Y393701D02*
D03*
X452756Y354331D02*
D03*
X433071Y314961D02*
D03*
X452756Y196850D02*
D03*
X433071Y78740D02*
D03*
X413386Y433071D02*
D03*
Y354331D02*
D03*
X393701Y314961D02*
D03*
X413386Y275591D02*
D03*
Y196850D02*
D03*
Y118110D02*
D03*
X374016Y433071D02*
D03*
X354331Y393701D02*
D03*
X374016Y354331D02*
D03*
Y275591D02*
D03*
Y196850D02*
D03*
Y118110D02*
D03*
X354331Y78740D02*
D03*
X334646Y433071D02*
D03*
Y354331D02*
D03*
X314961Y236221D02*
D03*
X334646Y196850D02*
D03*
Y118110D02*
D03*
X314961Y78740D02*
D03*
X295276Y433071D02*
D03*
Y354331D02*
D03*
Y275591D02*
D03*
X275591Y236221D02*
D03*
Y157480D02*
D03*
Y78740D02*
D03*
X255906Y433071D02*
D03*
Y354331D02*
D03*
Y275591D02*
D03*
X236221Y157480D02*
D03*
Y78740D02*
D03*
X216535Y433071D02*
D03*
Y354331D02*
D03*
Y275591D02*
D03*
Y196850D02*
D03*
X196850Y157480D02*
D03*
Y78740D02*
D03*
X471185Y58815D02*
D03*
X480185Y50185D02*
D03*
X486500Y53130D02*
D03*
X486000Y64630D02*
D03*
X473000Y65000D02*
D03*
X479815Y67815D02*
D03*
X488815Y59185D02*
D03*
X474130Y52000D02*
D03*
X461000Y237000D02*
D03*
X423000Y237500D02*
D03*
X401000Y261000D02*
D03*
X395000Y255000D02*
D03*
X464186Y274032D02*
D03*
X496500Y372500D02*
D03*
X475500Y97000D02*
D03*
X426500Y265000D02*
D03*
X431500Y266500D02*
D03*
X422000Y260000D02*
D03*
X424000Y87000D02*
D03*
X486711Y117268D02*
D03*
X485854Y252126D02*
D03*
X479500Y414500D02*
D03*
X433000Y223000D02*
D03*
X432721Y96220D02*
D03*
X427000Y125500D02*
D03*
X328000Y123500D02*
D03*
X400500Y149000D02*
D03*
X433000Y239500D02*
D03*
X471230Y293236D02*
D03*
X319000Y360500D02*
D03*
X318000Y367500D02*
D03*
X420000Y248500D02*
D03*
X419500Y254500D02*
D03*
X422500Y243500D02*
D03*
X472500Y391500D02*
D03*
X493000Y379000D02*
D03*
X490000Y387000D02*
D03*
X483000Y393500D02*
D03*
X478000Y392500D02*
D03*
X479315Y457815D02*
D03*
X479685Y440185D02*
D03*
X488315Y449185D02*
D03*
X470685Y448815D02*
D03*
X486000Y443130D02*
D03*
X485500Y454630D02*
D03*
X472500Y455000D02*
D03*
X473630Y442000D02*
D03*
X203315Y458815D02*
D03*
X203685Y441185D02*
D03*
X212315Y450185D02*
D03*
X194685Y449815D02*
D03*
X210000Y444130D02*
D03*
X209500Y455630D02*
D03*
X196500Y456000D02*
D03*
X197630Y443000D02*
D03*
X197815Y52185D02*
D03*
X196685Y65185D02*
D03*
X209685Y64815D02*
D03*
X210185Y53315D02*
D03*
X194870Y59000D02*
D03*
X212500Y59370D02*
D03*
X203870Y50370D02*
D03*
X203500Y68000D02*
D03*
D30*
X480000Y59000D02*
D03*
X203500Y450000D02*
D03*
X479500Y449000D02*
D03*
X203685Y59185D02*
D03*
M02*
