G04*
G04 #@! TF.GenerationSoftware,Altium Limited,Altium Designer,20.1.12 (249)*
G04*
G04 Layer_Color=16711935*
%FSLAX25Y25*%
%MOIN*%
G70*
G04*
G04 #@! TF.SameCoordinates,19FB753C-3B76-4D90-9414-1966AEB0D9B2*
G04*
G04*
G04 #@! TF.FilePolarity,Positive*
G04*
G01*
G75*
G36*
X465682Y100906D02*
X462333D01*
X462339Y100900D01*
X462364Y100869D01*
X462401Y100831D01*
X462444Y100770D01*
X462500Y100701D01*
X462562Y100615D01*
X462630Y100516D01*
X462698Y100404D01*
Y100398D01*
X462705Y100392D01*
X462729Y100355D01*
X462760Y100293D01*
X462797Y100219D01*
X462841Y100132D01*
X462884Y100039D01*
X462927Y99946D01*
X462964Y99853D01*
X462457D01*
Y99860D01*
X462444Y99872D01*
X462438Y99897D01*
X462420Y99928D01*
X462401Y99965D01*
X462376Y100008D01*
X462315Y100113D01*
X462246Y100237D01*
X462160Y100361D01*
X462061Y100491D01*
X461955Y100621D01*
X461949Y100627D01*
X461943Y100633D01*
X461925Y100652D01*
X461906Y100677D01*
X461844Y100732D01*
X461770Y100807D01*
X461683Y100881D01*
X461584Y100961D01*
X461485Y101030D01*
X461380Y101092D01*
Y101432D01*
X465682D01*
Y100906D01*
D02*
G37*
G36*
X464456Y98733D02*
X464506D01*
X464623Y98721D01*
X464760Y98708D01*
X464902Y98684D01*
X465032Y98646D01*
X465156Y98603D01*
X465162D01*
X465168Y98597D01*
X465205Y98578D01*
X465255Y98547D01*
X465323Y98504D01*
X465391Y98442D01*
X465465Y98374D01*
X465540Y98287D01*
X465601Y98188D01*
X465608Y98176D01*
X465626Y98139D01*
X465651Y98083D01*
X465676Y98003D01*
X465707Y97904D01*
X465731Y97792D01*
X465750Y97668D01*
X465756Y97532D01*
Y97477D01*
X465750Y97439D01*
X465744Y97390D01*
X465738Y97340D01*
X465713Y97210D01*
X465676Y97074D01*
X465620Y96932D01*
X465583Y96858D01*
X465540Y96789D01*
X465490Y96728D01*
X465434Y96666D01*
X465428Y96659D01*
X465422Y96653D01*
X465397Y96641D01*
X465372Y96622D01*
X465341Y96597D01*
X465298Y96573D01*
X465249Y96548D01*
X465193Y96517D01*
X465131Y96492D01*
X465057Y96468D01*
X464982Y96443D01*
X464896Y96418D01*
X464803Y96406D01*
X464698Y96387D01*
X464593Y96381D01*
X464475D01*
X464401Y96895D01*
X464407D01*
X464419D01*
X464444D01*
X464481Y96901D01*
X464518Y96907D01*
X464562D01*
X464667Y96926D01*
X464778Y96944D01*
X464890Y96981D01*
X464989Y97018D01*
X465032Y97043D01*
X465069Y97074D01*
X465075Y97080D01*
X465094Y97105D01*
X465125Y97142D01*
X465156Y97192D01*
X465193Y97260D01*
X465218Y97334D01*
X465242Y97427D01*
X465249Y97526D01*
Y97563D01*
X465242Y97600D01*
X465236Y97656D01*
X465224Y97712D01*
X465211Y97774D01*
X465187Y97835D01*
X465156Y97897D01*
X465149Y97904D01*
X465137Y97922D01*
X465112Y97947D01*
X465088Y97984D01*
X465044Y98015D01*
X465001Y98052D01*
X464952Y98083D01*
X464890Y98108D01*
X464883D01*
X464859Y98120D01*
X464815Y98127D01*
X464760Y98139D01*
X464685Y98151D01*
X464593Y98157D01*
X464481Y98170D01*
X464351D01*
X461398D01*
Y98739D01*
X464320D01*
X464326D01*
X464345D01*
X464370D01*
X464407D01*
X464456Y98733D01*
D02*
G37*
G36*
X464555Y245743D02*
X464605Y245737D01*
X464661Y245725D01*
X464722Y245712D01*
X464790Y245700D01*
X464939Y245651D01*
X465020Y245613D01*
X465094Y245576D01*
X465174Y245527D01*
X465255Y245471D01*
X465335Y245409D01*
X465410Y245335D01*
X465416Y245329D01*
X465428Y245316D01*
X465447Y245291D01*
X465471Y245261D01*
X465502Y245223D01*
X465533Y245174D01*
X465570Y245118D01*
X465601Y245050D01*
X465638Y244982D01*
X465676Y244901D01*
X465707Y244821D01*
X465738Y244728D01*
X465762Y244629D01*
X465781Y244524D01*
X465793Y244419D01*
X465800Y244301D01*
Y244245D01*
X465793Y244208D01*
X465787Y244159D01*
X465781Y244103D01*
X465768Y244041D01*
X465756Y243973D01*
X465719Y243825D01*
X465657Y243670D01*
X465620Y243589D01*
X465577Y243515D01*
X465521Y243441D01*
X465465Y243366D01*
X465459Y243360D01*
X465447Y243348D01*
X465428Y243329D01*
X465403Y243311D01*
X465372Y243280D01*
X465329Y243249D01*
X465286Y243212D01*
X465230Y243175D01*
X465168Y243137D01*
X465106Y243100D01*
X464958Y243032D01*
X464784Y242976D01*
X464691Y242958D01*
X464592Y242946D01*
X464524Y243472D01*
X464531D01*
X464543Y243478D01*
X464568Y243484D01*
X464599Y243490D01*
X464636Y243496D01*
X464679Y243509D01*
X464772Y243540D01*
X464883Y243583D01*
X464989Y243639D01*
X465088Y243701D01*
X465174Y243775D01*
X465180Y243787D01*
X465205Y243812D01*
X465236Y243862D01*
X465267Y243923D01*
X465304Y243998D01*
X465335Y244091D01*
X465360Y244196D01*
X465366Y244307D01*
Y244344D01*
X465360Y244369D01*
X465354Y244437D01*
X465335Y244524D01*
X465304Y244623D01*
X465261Y244728D01*
X465199Y244833D01*
X465112Y244933D01*
X465100Y244945D01*
X465063Y244976D01*
X465007Y245013D01*
X464933Y245062D01*
X464840Y245112D01*
X464735Y245149D01*
X464611Y245180D01*
X464475Y245193D01*
X464469D01*
X464456D01*
X464438D01*
X464413Y245186D01*
X464345Y245180D01*
X464264Y245162D01*
X464165Y245137D01*
X464066Y245093D01*
X463967Y245031D01*
X463874Y244951D01*
X463862Y244939D01*
X463837Y244908D01*
X463800Y244858D01*
X463757Y244790D01*
X463714Y244704D01*
X463676Y244598D01*
X463652Y244481D01*
X463639Y244351D01*
Y244295D01*
X463645Y244252D01*
X463652Y244196D01*
X463664Y244134D01*
X463676Y244060D01*
X463695Y243979D01*
X463231Y244041D01*
Y244072D01*
X463237Y244097D01*
Y244177D01*
X463224Y244245D01*
X463212Y244326D01*
X463194Y244419D01*
X463163Y244524D01*
X463119Y244623D01*
X463063Y244728D01*
Y244734D01*
X463057Y244741D01*
X463032Y244772D01*
X462989Y244815D01*
X462933Y244864D01*
X462853Y244914D01*
X462760Y244957D01*
X462655Y244988D01*
X462593Y245001D01*
X462525D01*
X462519D01*
X462513D01*
X462475D01*
X462426Y244988D01*
X462358Y244976D01*
X462284Y244951D01*
X462203Y244920D01*
X462123Y244871D01*
X462048Y244802D01*
X462042Y244796D01*
X462017Y244765D01*
X461986Y244722D01*
X461949Y244666D01*
X461918Y244592D01*
X461887Y244505D01*
X461863Y244406D01*
X461857Y244295D01*
Y244245D01*
X461869Y244190D01*
X461881Y244115D01*
X461906Y244035D01*
X461937Y243954D01*
X461986Y243868D01*
X462048Y243787D01*
X462054Y243781D01*
X462085Y243756D01*
X462129Y243719D01*
X462191Y243676D01*
X462271Y243633D01*
X462370Y243589D01*
X462488Y243552D01*
X462624Y243527D01*
X462531Y243001D01*
X462525D01*
X462506Y243007D01*
X462482Y243014D01*
X462444Y243020D01*
X462401Y243032D01*
X462352Y243051D01*
X462234Y243088D01*
X462098Y243150D01*
X461962Y243224D01*
X461832Y243317D01*
X461714Y243435D01*
X461708Y243441D01*
X461702Y243453D01*
X461689Y243472D01*
X461671Y243496D01*
X461646Y243527D01*
X461621Y243571D01*
X461596Y243614D01*
X461565Y243670D01*
X461516Y243794D01*
X461467Y243936D01*
X461436Y244103D01*
X461423Y244190D01*
Y244344D01*
X461429Y244412D01*
X461442Y244493D01*
X461460Y244592D01*
X461491Y244704D01*
X461528Y244815D01*
X461578Y244926D01*
Y244933D01*
X461584Y244939D01*
X461603Y244976D01*
X461640Y245031D01*
X461683Y245093D01*
X461745Y245168D01*
X461813Y245242D01*
X461894Y245316D01*
X461986Y245378D01*
X461999Y245384D01*
X462030Y245403D01*
X462085Y245428D01*
X462154Y245459D01*
X462234Y245490D01*
X462327Y245514D01*
X462432Y245533D01*
X462537Y245539D01*
X462550D01*
X462587D01*
X462636Y245533D01*
X462705Y245520D01*
X462785Y245502D01*
X462872Y245471D01*
X462958Y245434D01*
X463045Y245384D01*
X463057Y245378D01*
X463082Y245360D01*
X463125Y245322D01*
X463175Y245273D01*
X463231Y245211D01*
X463293Y245137D01*
X463348Y245050D01*
X463404Y244945D01*
Y244951D01*
X463410Y244963D01*
X463416Y244982D01*
X463422Y245007D01*
X463447Y245075D01*
X463484Y245162D01*
X463534Y245261D01*
X463596Y245360D01*
X463676Y245452D01*
X463769Y245539D01*
X463781Y245545D01*
X463819Y245570D01*
X463881Y245607D01*
X463961Y245644D01*
X464060Y245682D01*
X464178Y245719D01*
X464314Y245743D01*
X464462Y245750D01*
X464469D01*
X464487D01*
X464518D01*
X464555Y245743D01*
D02*
G37*
G36*
X464500Y242221D02*
X464549D01*
X464667Y242209D01*
X464803Y242196D01*
X464945Y242172D01*
X465075Y242135D01*
X465199Y242091D01*
X465205D01*
X465211Y242085D01*
X465249Y242067D01*
X465298Y242036D01*
X465366Y241992D01*
X465434Y241930D01*
X465509Y241862D01*
X465583Y241776D01*
X465645Y241676D01*
X465651Y241664D01*
X465669Y241627D01*
X465694Y241571D01*
X465719Y241491D01*
X465750Y241392D01*
X465775Y241280D01*
X465793Y241157D01*
X465800Y241020D01*
Y240965D01*
X465793Y240928D01*
X465787Y240878D01*
X465781Y240828D01*
X465756Y240699D01*
X465719Y240562D01*
X465663Y240420D01*
X465626Y240346D01*
X465583Y240278D01*
X465533Y240216D01*
X465478Y240154D01*
X465471Y240148D01*
X465465Y240141D01*
X465441Y240129D01*
X465416Y240110D01*
X465385Y240086D01*
X465341Y240061D01*
X465292Y240036D01*
X465236Y240005D01*
X465174Y239981D01*
X465100Y239956D01*
X465026Y239931D01*
X464939Y239906D01*
X464846Y239894D01*
X464741Y239875D01*
X464636Y239869D01*
X464518D01*
X464444Y240383D01*
X464450D01*
X464462D01*
X464487D01*
X464524Y240389D01*
X464562Y240395D01*
X464605D01*
X464710Y240414D01*
X464821Y240432D01*
X464933Y240470D01*
X465032Y240507D01*
X465075Y240531D01*
X465112Y240562D01*
X465119Y240568D01*
X465137Y240593D01*
X465168Y240630D01*
X465199Y240680D01*
X465236Y240748D01*
X465261Y240822D01*
X465286Y240915D01*
X465292Y241014D01*
Y241051D01*
X465286Y241089D01*
X465279Y241144D01*
X465267Y241200D01*
X465255Y241262D01*
X465230Y241324D01*
X465199Y241386D01*
X465193Y241392D01*
X465180Y241410D01*
X465156Y241435D01*
X465131Y241472D01*
X465088Y241503D01*
X465044Y241540D01*
X464995Y241571D01*
X464933Y241596D01*
X464927D01*
X464902Y241609D01*
X464859Y241615D01*
X464803Y241627D01*
X464729Y241639D01*
X464636Y241646D01*
X464524Y241658D01*
X464394D01*
X461442D01*
Y242228D01*
X464363D01*
X464370D01*
X464388D01*
X464413D01*
X464450D01*
X464500Y242221D01*
D02*
G37*
G36*
X465682Y386440D02*
X465676D01*
X465651D01*
X465614D01*
X465564Y386446D01*
X465509Y386452D01*
X465447Y386465D01*
X465385Y386477D01*
X465317Y386502D01*
X465310D01*
X465304Y386508D01*
X465267Y386520D01*
X465211Y386545D01*
X465137Y386582D01*
X465051Y386632D01*
X464952Y386694D01*
X464852Y386762D01*
X464747Y386848D01*
X464741D01*
X464735Y386861D01*
X464698Y386892D01*
X464642Y386947D01*
X464562Y387028D01*
X464469Y387121D01*
X464357Y387238D01*
X464233Y387381D01*
X464103Y387536D01*
X464097Y387542D01*
X464079Y387566D01*
X464048Y387603D01*
X464011Y387647D01*
X463961Y387703D01*
X463905Y387771D01*
X463843Y387839D01*
X463775Y387919D01*
X463627Y388074D01*
X463478Y388229D01*
X463404Y388303D01*
X463330Y388371D01*
X463262Y388433D01*
X463194Y388482D01*
X463187D01*
X463181Y388495D01*
X463163Y388507D01*
X463138Y388520D01*
X463070Y388563D01*
X462989Y388613D01*
X462890Y388656D01*
X462785Y388699D01*
X462667Y388724D01*
X462556Y388736D01*
X462550D01*
X462544D01*
X462506Y388730D01*
X462444Y388724D01*
X462376Y388705D01*
X462290Y388681D01*
X462203Y388637D01*
X462116Y388582D01*
X462030Y388507D01*
X462017Y388495D01*
X461993Y388464D01*
X461962Y388421D01*
X461918Y388352D01*
X461881Y388266D01*
X461844Y388167D01*
X461819Y388049D01*
X461813Y387919D01*
Y387882D01*
X461819Y387857D01*
X461826Y387783D01*
X461844Y387696D01*
X461869Y387603D01*
X461912Y387498D01*
X461968Y387399D01*
X462042Y387306D01*
X462055Y387294D01*
X462085Y387269D01*
X462135Y387232D01*
X462209Y387195D01*
X462296Y387152D01*
X462407Y387115D01*
X462531Y387090D01*
X462674Y387077D01*
X462618Y386539D01*
X462612D01*
X462593Y386545D01*
X462562D01*
X462519Y386551D01*
X462469Y386564D01*
X462414Y386576D01*
X462346Y386595D01*
X462277Y386613D01*
X462129Y386663D01*
X461980Y386737D01*
X461906Y386780D01*
X461832Y386836D01*
X461764Y386892D01*
X461702Y386954D01*
X461695Y386960D01*
X461689Y386972D01*
X461671Y386991D01*
X461652Y387022D01*
X461627Y387059D01*
X461603Y387102D01*
X461572Y387152D01*
X461541Y387214D01*
X461510Y387282D01*
X461479Y387356D01*
X461454Y387436D01*
X461429Y387523D01*
X461411Y387616D01*
X461392Y387715D01*
X461386Y387820D01*
X461380Y387932D01*
Y387994D01*
X461386Y388037D01*
X461392Y388086D01*
X461398Y388148D01*
X461411Y388216D01*
X461423Y388284D01*
X461467Y388445D01*
X461528Y388606D01*
X461565Y388687D01*
X461609Y388767D01*
X461665Y388842D01*
X461727Y388910D01*
X461733Y388916D01*
X461739Y388928D01*
X461764Y388941D01*
X461788Y388965D01*
X461819Y388996D01*
X461863Y389027D01*
X461906Y389058D01*
X461962Y389095D01*
X462079Y389157D01*
X462228Y389219D01*
X462302Y389244D01*
X462389Y389256D01*
X462475Y389269D01*
X462568Y389275D01*
X462581D01*
X462612D01*
X462661Y389269D01*
X462729Y389263D01*
X462804Y389250D01*
X462890Y389225D01*
X462983Y389201D01*
X463076Y389163D01*
X463088Y389157D01*
X463119Y389145D01*
X463169Y389120D01*
X463237Y389083D01*
X463311Y389033D01*
X463404Y388971D01*
X463497Y388897D01*
X463602Y388811D01*
X463614Y388798D01*
X463652Y388767D01*
X463683Y388736D01*
X463714Y388705D01*
X463751Y388668D01*
X463800Y388619D01*
X463850Y388569D01*
X463905Y388507D01*
X463967Y388445D01*
X464035Y388371D01*
X464103Y388291D01*
X464184Y388204D01*
X464264Y388105D01*
X464351Y388006D01*
X464357Y388000D01*
X464370Y387987D01*
X464388Y387963D01*
X464413Y387932D01*
X464450Y387895D01*
X464487Y387851D01*
X464568Y387752D01*
X464661Y387647D01*
X464753Y387548D01*
X464834Y387461D01*
X464865Y387424D01*
X464896Y387393D01*
X464902Y387387D01*
X464921Y387368D01*
X464945Y387344D01*
X464982Y387313D01*
X465026Y387282D01*
X465069Y387245D01*
X465174Y387170D01*
Y389281D01*
X465682D01*
Y386440D01*
D02*
G37*
G36*
X464456Y385796D02*
X464506D01*
X464623Y385784D01*
X464760Y385771D01*
X464902Y385747D01*
X465032Y385709D01*
X465156Y385666D01*
X465162D01*
X465168Y385660D01*
X465205Y385641D01*
X465255Y385610D01*
X465323Y385567D01*
X465391Y385505D01*
X465465Y385437D01*
X465540Y385350D01*
X465601Y385251D01*
X465608Y385239D01*
X465626Y385202D01*
X465651Y385146D01*
X465676Y385066D01*
X465707Y384967D01*
X465731Y384855D01*
X465750Y384731D01*
X465756Y384595D01*
Y384540D01*
X465750Y384502D01*
X465744Y384453D01*
X465738Y384403D01*
X465713Y384273D01*
X465676Y384137D01*
X465620Y383995D01*
X465583Y383921D01*
X465540Y383852D01*
X465490Y383790D01*
X465434Y383729D01*
X465428Y383722D01*
X465422Y383716D01*
X465397Y383704D01*
X465372Y383685D01*
X465341Y383661D01*
X465298Y383636D01*
X465249Y383611D01*
X465193Y383580D01*
X465131Y383555D01*
X465057Y383530D01*
X464982Y383506D01*
X464896Y383481D01*
X464803Y383469D01*
X464698Y383450D01*
X464593Y383444D01*
X464475D01*
X464401Y383958D01*
X464407D01*
X464419D01*
X464444D01*
X464481Y383964D01*
X464518Y383970D01*
X464562D01*
X464667Y383989D01*
X464778Y384007D01*
X464890Y384044D01*
X464989Y384081D01*
X465032Y384106D01*
X465069Y384137D01*
X465075Y384143D01*
X465094Y384168D01*
X465125Y384205D01*
X465156Y384255D01*
X465193Y384323D01*
X465218Y384397D01*
X465242Y384490D01*
X465249Y384589D01*
Y384626D01*
X465242Y384663D01*
X465236Y384719D01*
X465224Y384775D01*
X465211Y384837D01*
X465187Y384898D01*
X465156Y384960D01*
X465149Y384967D01*
X465137Y384985D01*
X465112Y385010D01*
X465088Y385047D01*
X465044Y385078D01*
X465001Y385115D01*
X464952Y385146D01*
X464890Y385171D01*
X464883D01*
X464859Y385183D01*
X464815Y385189D01*
X464760Y385202D01*
X464685Y385214D01*
X464593Y385220D01*
X464481Y385233D01*
X464351D01*
X461398D01*
Y385802D01*
X464320D01*
X464326D01*
X464345D01*
X464370D01*
X464407D01*
X464456Y385796D01*
D02*
G37*
M02*
