G04*
G04 #@! TF.GenerationSoftware,Altium Limited,Altium Designer,20.1.12 (249)*
G04*
G04 Layer_Color=16711935*
%FSLAX25Y25*%
%MOIN*%
G70*
G04*
G04 #@! TF.SameCoordinates,4A7F9F3E-6CFA-4FBA-8C7F-EFD49E1ADEB1*
G04*
G04*
G04 #@! TF.FilePolarity,Positive*
G04*
G01*
G75*
%ADD13C,0.01000*%
%ADD15C,0.00591*%
D13*
X1418500Y863000D02*
X1418500Y42000D01*
X315500Y863000D02*
X1418500D01*
X315500Y42000D02*
X1418500D01*
X315500Y863000D02*
X315500Y42000D01*
D15*
X1087421Y100771D02*
Y98147D01*
X1087946Y97622D01*
X1088996D01*
X1089520Y98147D01*
Y100771D01*
X1090570Y98147D02*
X1091095Y97622D01*
X1092144D01*
X1092669Y98147D01*
Y100246D01*
X1092144Y100771D01*
X1091095D01*
X1090570Y100246D01*
Y99721D01*
X1091095Y99196D01*
X1092669D01*
X1087799Y166271D02*
Y163647D01*
X1088324Y163122D01*
X1089373D01*
X1089898Y163647D01*
Y166271D01*
X1090948Y165746D02*
X1091473Y166271D01*
X1092522D01*
X1093047Y165746D01*
Y165221D01*
X1092522Y164696D01*
X1093047Y164172D01*
Y163647D01*
X1092522Y163122D01*
X1091473D01*
X1090948Y163647D01*
Y164172D01*
X1091473Y164696D01*
X1090948Y165221D01*
Y165746D01*
X1091473Y164696D02*
X1092522D01*
X1168299Y166271D02*
Y163647D01*
X1168824Y163122D01*
X1169874D01*
X1170398Y163647D01*
Y166271D01*
X1173547D02*
X1172497Y165746D01*
X1171448Y164696D01*
Y163647D01*
X1171973Y163122D01*
X1173022D01*
X1173547Y163647D01*
Y164172D01*
X1173022Y164696D01*
X1171448D01*
X1130299Y229271D02*
Y226647D01*
X1130824Y226122D01*
X1131874D01*
X1132398Y226647D01*
Y229271D01*
X1135547D02*
X1133448D01*
Y227696D01*
X1134497Y228221D01*
X1135022D01*
X1135547Y227696D01*
Y226647D01*
X1135022Y226122D01*
X1133973D01*
X1133448Y226647D01*
X1167421Y101771D02*
Y99147D01*
X1167946Y98622D01*
X1168996D01*
X1169520Y99147D01*
Y101771D01*
X1170570Y101246D02*
X1171095Y101771D01*
X1172144D01*
X1172669Y101246D01*
Y100721D01*
X1172144Y100196D01*
X1171619D01*
X1172144D01*
X1172669Y99672D01*
Y99147D01*
X1172144Y98622D01*
X1171095D01*
X1170570Y99147D01*
M02*
