G04*
G04 #@! TF.GenerationSoftware,Altium Limited,Altium Designer,20.1.12 (249)*
G04*
G04 Layer_Color=32768*
%FSLAX25Y25*%
%MOIN*%
G70*
G04*
G04 #@! TF.SameCoordinates,4A7F9F3E-6CFA-4FBA-8C7F-EFD49E1ADEB1*
G04*
G04*
G04 #@! TF.FilePolarity,Positive*
G04*
G01*
G75*
%ADD12C,0.00787*%
%ADD13C,0.01000*%
%ADD14C,0.00197*%
%ADD16C,0.00315*%
%ADD17C,0.00276*%
%ADD18C,0.00394*%
%ADD120C,0.00709*%
D12*
X1405193Y200500D02*
X1405011Y201473D01*
X1404490Y202314D01*
X1403700Y202910D01*
X1402748Y203181D01*
X1401763Y203090D01*
X1400877Y202649D01*
X1400211Y201918D01*
X1399853Y200995D01*
Y200005D01*
X1400211Y199083D01*
X1400877Y198351D01*
X1401763Y197910D01*
X1402748Y197819D01*
X1403700Y198090D01*
X1404490Y198686D01*
X1405011Y199527D01*
X1405193Y200500D01*
Y210500D02*
X1405011Y211473D01*
X1404490Y212314D01*
X1403700Y212910D01*
X1402748Y213181D01*
X1401763Y213090D01*
X1400877Y212649D01*
X1400211Y211917D01*
X1399853Y210995D01*
Y210005D01*
X1400211Y209083D01*
X1400877Y208351D01*
X1401763Y207910D01*
X1402748Y207819D01*
X1403700Y208090D01*
X1404490Y208686D01*
X1405011Y209527D01*
X1405193Y210500D01*
Y220500D02*
X1405011Y221473D01*
X1404490Y222314D01*
X1403700Y222910D01*
X1402748Y223181D01*
X1401763Y223090D01*
X1400877Y222649D01*
X1400211Y221918D01*
X1399853Y220995D01*
Y220005D01*
X1400211Y219082D01*
X1400877Y218351D01*
X1401763Y217910D01*
X1402748Y217819D01*
X1403700Y218090D01*
X1404490Y218686D01*
X1405011Y219527D01*
X1405193Y220500D01*
Y230500D02*
X1405011Y231473D01*
X1404490Y232314D01*
X1403700Y232910D01*
X1402748Y233181D01*
X1401763Y233090D01*
X1400877Y232649D01*
X1400211Y231918D01*
X1399853Y230995D01*
Y230005D01*
X1400211Y229082D01*
X1400877Y228351D01*
X1401763Y227910D01*
X1402748Y227819D01*
X1403700Y228090D01*
X1404490Y228686D01*
X1405011Y229527D01*
X1405193Y230500D01*
Y240500D02*
X1405011Y241473D01*
X1404490Y242314D01*
X1403700Y242910D01*
X1402748Y243181D01*
X1401763Y243090D01*
X1400877Y242649D01*
X1400211Y241917D01*
X1399853Y240995D01*
Y240005D01*
X1400211Y239083D01*
X1400877Y238351D01*
X1401763Y237910D01*
X1402748Y237819D01*
X1403700Y238090D01*
X1404490Y238686D01*
X1405011Y239527D01*
X1405193Y240500D01*
X1415193D02*
X1415011Y241473D01*
X1414490Y242314D01*
X1413700Y242910D01*
X1412748Y243181D01*
X1411763Y243090D01*
X1410877Y242649D01*
X1410211Y241917D01*
X1409853Y240995D01*
Y240005D01*
X1410211Y239083D01*
X1410877Y238351D01*
X1411763Y237910D01*
X1412748Y237819D01*
X1413700Y238090D01*
X1414490Y238686D01*
X1415011Y239527D01*
X1415193Y240500D01*
Y230500D02*
X1415011Y231473D01*
X1414490Y232314D01*
X1413700Y232910D01*
X1412748Y233181D01*
X1411763Y233090D01*
X1410877Y232649D01*
X1410211Y231918D01*
X1409853Y230995D01*
Y230005D01*
X1410211Y229082D01*
X1410877Y228351D01*
X1411763Y227910D01*
X1412748Y227819D01*
X1413700Y228090D01*
X1414490Y228686D01*
X1415011Y229527D01*
X1415193Y230500D01*
Y220500D02*
X1415011Y221473D01*
X1414490Y222314D01*
X1413700Y222910D01*
X1412748Y223181D01*
X1411763Y223090D01*
X1410877Y222649D01*
X1410211Y221918D01*
X1409853Y220995D01*
Y220005D01*
X1410211Y219082D01*
X1410877Y218351D01*
X1411763Y217910D01*
X1412748Y217819D01*
X1413700Y218090D01*
X1414490Y218686D01*
X1415011Y219527D01*
X1415193Y220500D01*
Y210500D02*
X1415011Y211473D01*
X1414490Y212314D01*
X1413700Y212910D01*
X1412748Y213181D01*
X1411763Y213090D01*
X1410877Y212649D01*
X1410211Y211917D01*
X1409853Y210995D01*
Y210005D01*
X1410211Y209083D01*
X1410877Y208351D01*
X1411763Y207910D01*
X1412748Y207819D01*
X1413700Y208090D01*
X1414490Y208686D01*
X1415011Y209527D01*
X1415193Y210500D01*
X1405193Y254500D02*
X1405011Y255473D01*
X1404490Y256314D01*
X1403700Y256910D01*
X1402748Y257181D01*
X1401763Y257090D01*
X1400877Y256649D01*
X1400211Y255918D01*
X1399853Y254995D01*
Y254005D01*
X1400211Y253082D01*
X1400877Y252351D01*
X1401763Y251910D01*
X1402748Y251819D01*
X1403700Y252090D01*
X1404490Y252686D01*
X1405011Y253527D01*
X1405193Y254500D01*
Y264500D02*
X1405011Y265473D01*
X1404490Y266314D01*
X1403700Y266910D01*
X1402748Y267181D01*
X1401763Y267090D01*
X1400877Y266649D01*
X1400211Y265917D01*
X1399853Y264995D01*
Y264005D01*
X1400211Y263083D01*
X1400877Y262351D01*
X1401763Y261910D01*
X1402748Y261819D01*
X1403700Y262090D01*
X1404490Y262686D01*
X1405011Y263527D01*
X1405193Y264500D01*
Y274500D02*
X1405011Y275473D01*
X1404490Y276314D01*
X1403700Y276910D01*
X1402748Y277181D01*
X1401763Y277090D01*
X1400877Y276649D01*
X1400211Y275918D01*
X1399853Y274995D01*
Y274005D01*
X1400211Y273082D01*
X1400877Y272351D01*
X1401763Y271910D01*
X1402748Y271819D01*
X1403700Y272090D01*
X1404490Y272686D01*
X1405011Y273527D01*
X1405193Y274500D01*
Y284500D02*
X1405011Y285473D01*
X1404490Y286314D01*
X1403700Y286910D01*
X1402748Y287181D01*
X1401763Y287090D01*
X1400877Y286649D01*
X1400211Y285917D01*
X1399853Y284995D01*
Y284005D01*
X1400211Y283083D01*
X1400877Y282351D01*
X1401763Y281910D01*
X1402748Y281819D01*
X1403700Y282090D01*
X1404490Y282686D01*
X1405011Y283527D01*
X1405193Y284500D01*
Y294500D02*
X1405011Y295473D01*
X1404490Y296314D01*
X1403700Y296910D01*
X1402748Y297181D01*
X1401763Y297090D01*
X1400877Y296649D01*
X1400211Y295918D01*
X1399853Y294995D01*
Y294005D01*
X1400211Y293082D01*
X1400877Y292351D01*
X1401763Y291910D01*
X1402748Y291819D01*
X1403700Y292090D01*
X1404490Y292686D01*
X1405011Y293527D01*
X1405193Y294500D01*
X1415193D02*
X1415011Y295473D01*
X1414490Y296314D01*
X1413700Y296910D01*
X1412748Y297181D01*
X1411763Y297090D01*
X1410877Y296649D01*
X1410211Y295918D01*
X1409853Y294995D01*
Y294005D01*
X1410211Y293082D01*
X1410877Y292351D01*
X1411763Y291910D01*
X1412748Y291819D01*
X1413700Y292090D01*
X1414490Y292686D01*
X1415011Y293527D01*
X1415193Y294500D01*
Y284500D02*
X1415011Y285473D01*
X1414490Y286314D01*
X1413700Y286910D01*
X1412748Y287181D01*
X1411763Y287090D01*
X1410877Y286649D01*
X1410211Y285917D01*
X1409853Y284995D01*
Y284005D01*
X1410211Y283083D01*
X1410877Y282351D01*
X1411763Y281910D01*
X1412748Y281819D01*
X1413700Y282090D01*
X1414490Y282686D01*
X1415011Y283527D01*
X1415193Y284500D01*
Y274500D02*
X1415011Y275473D01*
X1414490Y276314D01*
X1413700Y276910D01*
X1412748Y277181D01*
X1411763Y277090D01*
X1410877Y276649D01*
X1410211Y275918D01*
X1409853Y274995D01*
Y274005D01*
X1410211Y273082D01*
X1410877Y272351D01*
X1411763Y271910D01*
X1412748Y271819D01*
X1413700Y272090D01*
X1414490Y272686D01*
X1415011Y273527D01*
X1415193Y274500D01*
Y264500D02*
X1415011Y265473D01*
X1414490Y266314D01*
X1413700Y266910D01*
X1412748Y267181D01*
X1411763Y267090D01*
X1410877Y266649D01*
X1410211Y265917D01*
X1409853Y264995D01*
Y264005D01*
X1410211Y263083D01*
X1410877Y262351D01*
X1411763Y261910D01*
X1412748Y261819D01*
X1413700Y262090D01*
X1414490Y262686D01*
X1415011Y263527D01*
X1415193Y264500D01*
X1365504Y535504D02*
Y548496D01*
Y535504D02*
X1378496D01*
Y548496D01*
X1365504D02*
X1378496D01*
X1402000Y521000D02*
X1412000D01*
X1402000Y501000D02*
Y521000D01*
Y501000D02*
X1412000D01*
Y521000D01*
X1396500Y374000D02*
X1416500D01*
X1396500D02*
Y424000D01*
X1416500Y374000D02*
Y424000D01*
X1396500D02*
X1416500D01*
X1279000Y53000D02*
Y73000D01*
X1229000Y53000D02*
X1279000D01*
X1229000Y73000D02*
X1279000D01*
X1229000Y53000D02*
Y73000D01*
X1402000Y550000D02*
X1412000D01*
X1402000Y530000D02*
Y550000D01*
Y530000D02*
X1412000D01*
Y550000D01*
X1417500Y195500D02*
Y245382D01*
X1397500Y195500D02*
Y245382D01*
Y195500D02*
X1417500D01*
X1407500Y205500D02*
X1417500D01*
X1407500Y195500D02*
Y205500D01*
X1410000Y198000D02*
Y203000D01*
X1415000D01*
Y198000D02*
Y203000D01*
X1410000Y198000D02*
X1415000D01*
X1397500Y245382D02*
X1417500D01*
Y249500D02*
Y299382D01*
X1397500Y249500D02*
Y299382D01*
Y249500D02*
X1417500D01*
X1407500Y259500D02*
X1417500D01*
X1407500Y249500D02*
Y259500D01*
X1410000Y252000D02*
Y257000D01*
X1415000D01*
Y252000D02*
Y257000D01*
X1410000Y252000D02*
X1415000D01*
X1397500Y299382D02*
X1417500D01*
D13*
X1018603Y845827D02*
X1018520Y846831D01*
X1018273Y847808D01*
X1017868Y848732D01*
X1017316Y849576D01*
X1016634Y850317D01*
X1015838Y850936D01*
X1014952Y851416D01*
X1013998Y851743D01*
X1013004Y851909D01*
X1011996D01*
X1011002Y851743D01*
X1010048Y851416D01*
X1009162Y850936D01*
X1008366Y850317D01*
X1007684Y849576D01*
X1007132Y848732D01*
X1006727Y847808D01*
X1006480Y846831D01*
X1006397Y845827D01*
X1006480Y844822D01*
X1006727Y843845D01*
X1007132Y842922D01*
X1007684Y842078D01*
X1008366Y841337D01*
X1009162Y840717D01*
X1010048Y840238D01*
X1011002Y839910D01*
X1011996Y839744D01*
X1013004D01*
X1013998Y839910D01*
X1014952Y840238D01*
X1015838Y840717D01*
X1016634Y841337D01*
X1017316Y842078D01*
X1017868Y842922D01*
X1018273Y843845D01*
X1018520Y844822D01*
X1018603Y845827D01*
Y831327D02*
X1018520Y832331D01*
X1018273Y833309D01*
X1017868Y834232D01*
X1017316Y835075D01*
X1016634Y835817D01*
X1015838Y836436D01*
X1014952Y836916D01*
X1013998Y837243D01*
X1013004Y837409D01*
X1011996D01*
X1011002Y837243D01*
X1010048Y836916D01*
X1009162Y836436D01*
X1008366Y835817D01*
X1007684Y835075D01*
X1007132Y834232D01*
X1006727Y833309D01*
X1006480Y832331D01*
X1006397Y831327D01*
X1006480Y830322D01*
X1006727Y829345D01*
X1007132Y828422D01*
X1007684Y827578D01*
X1008366Y826836D01*
X1009162Y826217D01*
X1010048Y825738D01*
X1011002Y825410D01*
X1011996Y825244D01*
X1013004D01*
X1013998Y825410D01*
X1014952Y825738D01*
X1015838Y826217D01*
X1016634Y826836D01*
X1017316Y827578D01*
X1017868Y828422D01*
X1018273Y829345D01*
X1018520Y830322D01*
X1018603Y831327D01*
X1018103Y816827D02*
X1018020Y817831D01*
X1017773Y818808D01*
X1017368Y819732D01*
X1016816Y820576D01*
X1016134Y821317D01*
X1015338Y821936D01*
X1014452Y822416D01*
X1013498Y822743D01*
X1012504Y822909D01*
X1011496D01*
X1010502Y822743D01*
X1009548Y822416D01*
X1008662Y821936D01*
X1007866Y821317D01*
X1007184Y820576D01*
X1006632Y819732D01*
X1006227Y818808D01*
X1005980Y817831D01*
X1005897Y816827D01*
X1005980Y815822D01*
X1006227Y814845D01*
X1006632Y813922D01*
X1007184Y813078D01*
X1007866Y812337D01*
X1008662Y811717D01*
X1009548Y811238D01*
X1010502Y810910D01*
X1011496Y810744D01*
X1012504D01*
X1013498Y810910D01*
X1014452Y811238D01*
X1015338Y811717D01*
X1016134Y812337D01*
X1016816Y813078D01*
X1017368Y813922D01*
X1017773Y814845D01*
X1018020Y815822D01*
X1018103Y816827D01*
X1411603Y565500D02*
X1411520Y566505D01*
X1411273Y567482D01*
X1410868Y568405D01*
X1410316Y569249D01*
X1409634Y569990D01*
X1408838Y570610D01*
X1407952Y571089D01*
X1406998Y571417D01*
X1406004Y571582D01*
X1404996D01*
X1404002Y571417D01*
X1403048Y571089D01*
X1402162Y570610D01*
X1401366Y569990D01*
X1400684Y569249D01*
X1400132Y568405D01*
X1399727Y567482D01*
X1399480Y566505D01*
X1399397Y565500D01*
X1399480Y564495D01*
X1399727Y563518D01*
X1400132Y562595D01*
X1400684Y561751D01*
X1401366Y561010D01*
X1402162Y560391D01*
X1403048Y559911D01*
X1404002Y559584D01*
X1404996Y559418D01*
X1406004D01*
X1406998Y559584D01*
X1407952Y559911D01*
X1408838Y560391D01*
X1409634Y561010D01*
X1410316Y561751D01*
X1410868Y562595D01*
X1411273Y563518D01*
X1411520Y564495D01*
X1411603Y565500D01*
X622557Y812757D02*
X683557D01*
X622557D02*
Y858634D01*
X683557D01*
Y812757D02*
Y858634D01*
D14*
X1029567Y728615D02*
X1053681D01*
X1026319Y731863D02*
X1029567Y728615D01*
X1026319Y731863D02*
Y752040D01*
X1053681D01*
Y728615D02*
Y752040D01*
X1149543Y729862D02*
X1173657D01*
X1146295Y733111D02*
X1149543Y729862D01*
X1146295Y733111D02*
Y753288D01*
X1173657D01*
Y729862D02*
Y753288D01*
X1252567Y729937D02*
X1276681D01*
X1249319Y733185D02*
X1252567Y729937D01*
X1249319Y733185D02*
Y753363D01*
X1276681D01*
Y729937D02*
Y753363D01*
X1357567Y729788D02*
X1381681D01*
X1354319Y733036D02*
X1357567Y729788D01*
X1354319Y733036D02*
Y753213D01*
X1381681D01*
Y729788D02*
Y753213D01*
X1368961Y95496D02*
Y116362D01*
X1348095Y95496D02*
X1368961D01*
X1348095D02*
Y113212D01*
X1351244Y116362D01*
X1368961D01*
X1077283Y77346D02*
X1109961D01*
X1077283Y120653D02*
X1109961D01*
Y77346D02*
Y120653D01*
X1077283Y77346D02*
Y120653D01*
X1077661Y142847D02*
X1110339D01*
X1077661Y186153D02*
X1110339D01*
Y142847D02*
Y186153D01*
X1077661Y142847D02*
Y186153D01*
X1158161Y142847D02*
X1190839D01*
X1158161Y186153D02*
X1190839D01*
Y142847D02*
Y186153D01*
X1158161Y142847D02*
Y186153D01*
X1120161Y205847D02*
X1152839D01*
X1120161Y249153D02*
X1152839D01*
Y205847D02*
Y249153D01*
X1120161Y205847D02*
Y249153D01*
X1247488Y173488D02*
X1308512D01*
X1247488Y234512D02*
X1308512D01*
Y173488D02*
Y234512D01*
X1247488Y173488D02*
Y234512D01*
X1157283Y78347D02*
X1189961D01*
X1157283Y121653D02*
X1189961D01*
Y78347D02*
Y121653D01*
X1157283Y78347D02*
Y121653D01*
X351028Y124598D02*
X372779D01*
X346598Y99402D02*
X372779D01*
X346598Y120169D02*
X351028Y124598D01*
X346598Y99402D02*
Y120169D01*
X372779Y99402D02*
Y124598D01*
X740429D02*
X762181D01*
X736000Y99402D02*
X762181D01*
X736000Y120169D02*
X740429Y124598D01*
X736000Y99402D02*
Y120169D01*
X762181Y99402D02*
Y124598D01*
X818028D02*
X839779D01*
X813598Y99402D02*
X839779D01*
X813598Y120169D02*
X818028Y124598D01*
X813598Y99402D02*
Y120169D01*
X839779Y99402D02*
Y124598D01*
X896429Y125028D02*
X918181D01*
X892000Y99831D02*
X918181D01*
X892000Y120598D02*
X896429Y125028D01*
X892000Y99831D02*
Y120598D01*
X918181Y99831D02*
Y125028D01*
X428929Y124598D02*
X450681D01*
X424500Y99402D02*
X450681D01*
X424500Y120169D02*
X428929Y124598D01*
X424500Y99402D02*
Y120169D01*
X450681Y99402D02*
Y124598D01*
X506929Y125098D02*
X528681D01*
X502500Y99902D02*
X528681D01*
X502500Y120669D02*
X506929Y125098D01*
X502500Y99902D02*
Y120669D01*
X528681Y99902D02*
Y125098D01*
X584929Y124598D02*
X606681D01*
X580500Y99402D02*
X606681D01*
X580500Y120169D02*
X584929Y124598D01*
X580500Y99402D02*
Y120169D01*
X606681Y99402D02*
Y124598D01*
X663028Y124598D02*
X684780D01*
X658598Y99402D02*
X684780D01*
X658598Y120169D02*
X663028Y124598D01*
X658598Y99402D02*
Y120169D01*
X684780Y99402D02*
Y124598D01*
X350528Y282098D02*
X372280D01*
X346098Y256902D02*
X372280D01*
X346098Y277669D02*
X350528Y282098D01*
X346098Y256902D02*
Y277669D01*
X372280Y256902D02*
Y282098D01*
X739929D02*
X761681D01*
X735500Y256902D02*
X761681D01*
X735500Y277669D02*
X739929Y282098D01*
X735500Y256902D02*
Y277669D01*
X761681Y256902D02*
Y282098D01*
X817528D02*
X839279D01*
X813098Y256902D02*
X839279D01*
X813098Y277669D02*
X817528Y282098D01*
X813098Y256902D02*
Y277669D01*
X839279Y256902D02*
Y282098D01*
X895929Y282528D02*
X917681D01*
X891500Y257331D02*
X917681D01*
X891500Y278099D02*
X895929Y282528D01*
X891500Y257331D02*
Y278099D01*
X917681Y257331D02*
Y282528D01*
X428429Y282098D02*
X450181D01*
X424000Y256902D02*
X450181D01*
X424000Y277669D02*
X428429Y282098D01*
X424000Y256902D02*
Y277669D01*
X450181Y256902D02*
Y282098D01*
X506429Y282598D02*
X528181D01*
X502000Y257402D02*
X528181D01*
X502000Y278169D02*
X506429Y282598D01*
X502000Y257402D02*
Y278169D01*
X528181Y257402D02*
Y282598D01*
X584429Y282098D02*
X606181D01*
X580000Y256902D02*
X606181D01*
X580000Y277669D02*
X584429Y282098D01*
X580000Y256902D02*
Y277669D01*
X606181Y256902D02*
Y282098D01*
X662528Y282098D02*
X684279D01*
X658098Y256902D02*
X684279D01*
X658098Y277669D02*
X662528Y282098D01*
X658098Y256902D02*
Y277669D01*
X684279Y256902D02*
Y282098D01*
X351028Y202598D02*
X372779D01*
X346598Y177402D02*
X372779D01*
X346598Y198169D02*
X351028Y202598D01*
X346598Y177402D02*
Y198169D01*
X372779Y177402D02*
Y202598D01*
X740429D02*
X762181D01*
X736000Y177402D02*
X762181D01*
X736000Y198169D02*
X740429Y202598D01*
X736000Y177402D02*
Y198169D01*
X762181Y177402D02*
Y202598D01*
X818028D02*
X839779D01*
X813598Y177402D02*
X839779D01*
X813598Y198169D02*
X818028Y202598D01*
X813598Y177402D02*
Y198169D01*
X839779Y177402D02*
Y202598D01*
X896429Y203028D02*
X918181D01*
X892000Y177831D02*
X918181D01*
X892000Y198599D02*
X896429Y203028D01*
X892000Y177831D02*
Y198599D01*
X918181Y177831D02*
Y203028D01*
X428929Y202598D02*
X450681D01*
X424500Y177402D02*
X450681D01*
X424500Y198169D02*
X428929Y202598D01*
X424500Y177402D02*
Y198169D01*
X450681Y177402D02*
Y202598D01*
X506929Y203098D02*
X528681D01*
X502500Y177902D02*
X528681D01*
X502500Y198669D02*
X506929Y203098D01*
X502500Y177902D02*
Y198669D01*
X528681Y177902D02*
Y203098D01*
X584929Y202598D02*
X606681D01*
X580500Y177402D02*
X606681D01*
X580500Y198169D02*
X584929Y202598D01*
X580500Y177402D02*
Y198169D01*
X606681Y177402D02*
Y202598D01*
X663028Y202598D02*
X684780D01*
X658598Y177402D02*
X684780D01*
X658598Y198169D02*
X663028Y202598D01*
X658598Y177402D02*
Y198169D01*
X684780Y177402D02*
Y202598D01*
X1391528Y187598D02*
X1413280D01*
X1387098Y162402D02*
X1413280D01*
X1387098Y183169D02*
X1391528Y187598D01*
X1387098Y162402D02*
Y183169D01*
X1413280Y162402D02*
Y187598D01*
X1259579Y322488D02*
X1281331D01*
X1255150Y297291D02*
X1281331D01*
X1255150Y318059D02*
X1259579Y322488D01*
X1255150Y297291D02*
Y318059D01*
X1281331Y297291D02*
Y322488D01*
X1259579Y401228D02*
X1281331D01*
X1255150Y376031D02*
X1281331D01*
X1255150Y396799D02*
X1259579Y401228D01*
X1255150Y376031D02*
Y396799D01*
X1281331Y376031D02*
Y401228D01*
X1180839Y322488D02*
X1202591D01*
X1176409Y297291D02*
X1202591D01*
X1176409Y318059D02*
X1180839Y322488D01*
X1176409Y297291D02*
Y318059D01*
X1202591Y297291D02*
Y322488D01*
X1180839Y401228D02*
X1202591D01*
X1176409Y376031D02*
X1202591D01*
X1176409Y396799D02*
X1180839Y401228D01*
X1176409Y376031D02*
Y396799D01*
X1202591Y376031D02*
Y401228D01*
X1259579Y361858D02*
X1281331D01*
X1255150Y336661D02*
X1281331D01*
X1255150Y357429D02*
X1259579Y361858D01*
X1255150Y336661D02*
Y357429D01*
X1281331Y336661D02*
Y361858D01*
X1259579Y440598D02*
X1281331D01*
X1255150Y415402D02*
X1281331D01*
X1255150Y436169D02*
X1259579Y440598D01*
X1255150Y415402D02*
Y436169D01*
X1281331Y415402D02*
Y440598D01*
X1180839Y361858D02*
X1202591D01*
X1176409Y336661D02*
X1202591D01*
X1176409Y357429D02*
X1180839Y361858D01*
X1176409Y336661D02*
Y357429D01*
X1202591Y336661D02*
Y361858D01*
X1180839Y440598D02*
X1202591D01*
X1176409Y415402D02*
X1202591D01*
X1176409Y436169D02*
X1180839Y440598D01*
X1176409Y415402D02*
Y436169D01*
X1202591Y415402D02*
Y440598D01*
X1022370Y724972D02*
Y734028D01*
X1018630D02*
X1022370D01*
X1018630Y724972D02*
Y734028D01*
Y724972D02*
X1022370D01*
X1142870Y721610D02*
Y730665D01*
X1139130D02*
X1142870D01*
X1139130Y721610D02*
Y730665D01*
Y721610D02*
X1142870D01*
X1246370Y726972D02*
Y736028D01*
X1242630D02*
X1246370D01*
X1242630Y726972D02*
Y736028D01*
Y726972D02*
X1246370D01*
X1350870Y724335D02*
Y733390D01*
X1347130D02*
X1350870D01*
X1347130Y724335D02*
Y733390D01*
Y724335D02*
X1350870D01*
X1017370Y724972D02*
Y734028D01*
X1013630D02*
X1017370D01*
X1013630Y724972D02*
Y734028D01*
Y724972D02*
X1017370D01*
X1137870Y721472D02*
Y730528D01*
X1134130D02*
X1137870D01*
X1134130Y721472D02*
Y730528D01*
Y721472D02*
X1137870D01*
X1240870Y726972D02*
Y736028D01*
X1237130D02*
X1240870D01*
X1237130Y726972D02*
Y736028D01*
Y726972D02*
X1240870D01*
X1345370Y724335D02*
Y733390D01*
X1341630D02*
X1345370D01*
X1341630Y724335D02*
Y733390D01*
Y724335D02*
X1345370D01*
X353835Y94890D02*
X362890D01*
X353835Y91150D02*
Y94890D01*
Y91150D02*
X362890D01*
Y94890D01*
X743835Y94870D02*
X752890D01*
X743835Y91130D02*
Y94870D01*
Y91130D02*
X752890D01*
Y94870D01*
X820835D02*
X829890D01*
X820835Y91130D02*
Y94870D01*
Y91130D02*
X829890D01*
Y94870D01*
X899835D02*
X908890D01*
X899835Y91130D02*
Y94870D01*
Y91130D02*
X908890D01*
Y94870D01*
X431835D02*
X440890D01*
X431835Y91130D02*
Y94870D01*
Y91130D02*
X440890D01*
Y94870D01*
X509835Y94370D02*
X518890D01*
X509835Y90630D02*
Y94370D01*
Y90630D02*
X518890D01*
Y94370D01*
X587835D02*
X596890D01*
X587835Y90630D02*
Y94370D01*
Y90630D02*
X596890D01*
Y94370D01*
X665835D02*
X674890D01*
X665835Y90630D02*
Y94370D01*
Y90630D02*
X674890D01*
Y94370D01*
X1252370Y156972D02*
Y166028D01*
X1248630D02*
X1252370D01*
X1248630Y156972D02*
Y166028D01*
Y156972D02*
X1252370D01*
X353972Y252370D02*
X363028D01*
X353972Y248630D02*
Y252370D01*
Y248630D02*
X363028D01*
Y252370D01*
X743335D02*
X752390D01*
X743335Y248630D02*
Y252370D01*
Y248630D02*
X752390D01*
Y252370D01*
X820835D02*
X829890D01*
X820835Y248630D02*
Y252370D01*
Y248630D02*
X829890D01*
Y252370D01*
X899335D02*
X908390D01*
X899335Y248630D02*
Y252370D01*
Y248630D02*
X908390D01*
Y252370D01*
X431335Y252870D02*
X440390D01*
X431335Y249130D02*
Y252870D01*
Y249130D02*
X440390D01*
Y252870D01*
X509835D02*
X518890D01*
X509835Y249130D02*
Y252870D01*
Y249130D02*
X518890D01*
Y252870D01*
X587335Y252370D02*
X596390D01*
X587335Y248630D02*
Y252370D01*
Y248630D02*
X596390D01*
Y252370D01*
X665835D02*
X674890D01*
X665835Y248630D02*
Y252370D01*
Y248630D02*
X674890D01*
Y252370D01*
X1241870Y156610D02*
Y165665D01*
X1238130D02*
X1241870D01*
X1238130Y156610D02*
Y165665D01*
Y156610D02*
X1241870D01*
X352972Y731870D02*
X362028D01*
X352972Y728130D02*
Y731870D01*
Y728130D02*
X362028D01*
Y731870D01*
X742472Y731130D02*
X751528D01*
Y734870D01*
X742472D02*
X751528D01*
X742472Y731130D02*
Y734870D01*
X820610Y731130D02*
X829665D01*
Y734870D01*
X820610D02*
X829665D01*
X820610Y731130D02*
Y734870D01*
X898110Y732130D02*
X907165D01*
Y735870D01*
X898110D02*
X907165D01*
X898110Y732130D02*
Y735870D01*
X430835Y730630D02*
X439890D01*
Y734370D01*
X430835D02*
X439890D01*
X430835Y730630D02*
Y734370D01*
X508972Y730630D02*
X518028D01*
Y734370D01*
X508972D02*
X518028D01*
X508972Y730630D02*
Y734370D01*
X587110Y730630D02*
X596165D01*
Y734370D01*
X587110D02*
X596165D01*
X587110Y730630D02*
Y734370D01*
X665110Y731630D02*
X674165D01*
Y735370D01*
X665110D02*
X674165D01*
X665110Y731630D02*
Y735370D01*
X355472Y173870D02*
X364528D01*
X355472Y170130D02*
Y173870D01*
Y170130D02*
X364528D01*
Y173870D01*
X743835Y172870D02*
X752890D01*
X743835Y169130D02*
Y172870D01*
Y169130D02*
X752890D01*
Y172870D01*
X821335Y172370D02*
X830390D01*
X821335Y168630D02*
Y172370D01*
Y168630D02*
X830390D01*
Y172370D01*
X899835Y173370D02*
X908890D01*
X899835Y169630D02*
Y173370D01*
Y169630D02*
X908890D01*
Y173370D01*
X431835Y172870D02*
X440890D01*
X431835Y169130D02*
Y172870D01*
Y169130D02*
X440890D01*
Y172870D01*
X509835Y173370D02*
X518890D01*
X509835Y169630D02*
Y173370D01*
Y169630D02*
X518890D01*
Y173370D01*
X587835Y172870D02*
X596890D01*
X587835Y169130D02*
Y172870D01*
Y169130D02*
X596890D01*
Y172870D01*
X666335Y172370D02*
X675390D01*
X666335Y168630D02*
Y172370D01*
Y168630D02*
X675390D01*
Y172370D01*
X707370Y804610D02*
Y813665D01*
X703630D02*
X707370D01*
X703630Y804610D02*
Y813665D01*
Y804610D02*
X707370D01*
X717370Y804472D02*
Y813528D01*
X713630D02*
X717370D01*
X713630Y804472D02*
Y813528D01*
Y804472D02*
X717370D01*
X1328130Y75681D02*
Y84736D01*
Y75681D02*
X1331870D01*
Y84736D01*
X1328130D02*
X1331870D01*
X1384630Y115181D02*
Y124236D01*
Y115181D02*
X1388370D01*
Y124236D01*
X1384630D02*
X1388370D01*
X1335130Y115681D02*
Y124736D01*
Y115681D02*
X1338870D01*
Y124736D01*
X1335130D02*
X1338870D01*
X1328130Y65681D02*
Y74736D01*
Y65681D02*
X1331870D01*
Y74736D01*
X1328130D02*
X1331870D01*
X1362370Y68819D02*
Y77874D01*
X1358630D02*
X1362370D01*
X1358630Y68819D02*
Y77874D01*
Y68819D02*
X1362370D01*
X1359835Y120338D02*
X1368890D01*
Y124078D01*
X1359835D02*
X1368890D01*
X1359835Y120338D02*
Y124078D01*
X1357370Y68819D02*
Y77874D01*
X1353630D02*
X1357370D01*
X1353630Y68819D02*
Y77874D01*
Y68819D02*
X1357370D01*
X1350870Y125681D02*
Y134736D01*
X1347130D02*
X1350870D01*
X1347130Y125681D02*
Y134736D01*
Y125681D02*
X1350870D01*
X1355870D02*
Y134736D01*
X1352130D02*
X1355870D01*
X1352130Y125681D02*
Y134736D01*
Y125681D02*
X1355870D01*
X1375373Y152582D02*
X1382656D01*
X1375373D02*
Y167124D01*
X1382656Y152582D02*
Y167124D01*
X1375373D02*
X1382656D01*
X1026500Y59500D02*
X1033500D01*
X1026500Y46500D02*
X1033500D01*
Y59500D01*
X1026500Y46500D02*
Y59500D01*
X994500Y79831D02*
X1001500D01*
X994500Y92831D02*
X1001500D01*
X994500Y79831D02*
Y92831D01*
X1001500Y79831D02*
Y92831D01*
X1380870Y169472D02*
Y178528D01*
X1377130D02*
X1380870D01*
X1377130Y169472D02*
Y178528D01*
Y169472D02*
X1380870D01*
X1312500Y189000D02*
X1319500D01*
X1312500Y176000D02*
X1319500D01*
Y189000D01*
X1312500Y176000D02*
Y189000D01*
X993500Y48445D02*
X1000500D01*
X993500Y61445D02*
X1000500D01*
X993500Y48445D02*
Y61445D01*
X1000500Y48445D02*
Y61445D01*
X1323500Y189000D02*
X1330500D01*
X1323500Y176000D02*
X1330500D01*
Y189000D01*
X1323500Y176000D02*
Y189000D01*
X1001000Y61445D02*
X1008000D01*
X1001000Y48445D02*
X1008000D01*
Y61445D01*
X1001000Y48445D02*
Y61445D01*
X1307370Y239472D02*
Y248528D01*
X1303630D02*
X1307370D01*
X1303630Y239472D02*
Y248528D01*
Y239472D02*
X1307370D01*
X1017500Y175500D02*
X1024500D01*
X1017500Y162500D02*
X1024500D01*
Y175500D01*
X1017500Y162500D02*
Y175500D01*
X994500Y204000D02*
X1001500D01*
X994500Y217000D02*
X1001500D01*
X994500Y204000D02*
Y217000D01*
X1001500Y204000D02*
Y217000D01*
X1135500Y77445D02*
X1142500D01*
X1135500Y90445D02*
X1142500D01*
X1135500Y77445D02*
Y90445D01*
X1142500Y77445D02*
Y90445D01*
X1135500Y93000D02*
X1142500D01*
X1135500Y106000D02*
X1142500D01*
X1135500Y93000D02*
Y106000D01*
X1142500Y93000D02*
Y106000D01*
X996000Y162000D02*
X1003000D01*
X996000Y175000D02*
X1003000D01*
X996000Y162000D02*
Y175000D01*
X1003000Y162000D02*
Y175000D01*
X1427870Y6972D02*
Y16028D01*
X1424130D02*
X1427870D01*
X1424130Y6972D02*
Y16028D01*
Y6972D02*
X1427870D01*
X1003500Y175000D02*
X1010500D01*
X1003500Y162000D02*
X1010500D01*
Y175000D01*
X1003500Y162000D02*
Y175000D01*
X1260870Y494110D02*
Y503165D01*
X1257130D02*
X1260870D01*
X1257130Y494110D02*
Y503165D01*
Y494110D02*
X1260870D01*
X1260370Y572610D02*
Y581665D01*
X1256630D02*
X1260370D01*
X1256630Y572610D02*
Y581665D01*
Y572610D02*
X1260370D01*
X1181870Y493972D02*
Y503028D01*
X1178130D02*
X1181870D01*
X1178130Y493972D02*
Y503028D01*
Y493972D02*
X1181870D01*
X1182370Y572610D02*
Y581665D01*
X1178630D02*
X1182370D01*
X1178630Y572610D02*
Y581665D01*
Y572610D02*
X1182370D01*
X1260870Y533110D02*
Y542165D01*
X1257130D02*
X1260870D01*
X1257130Y533110D02*
Y542165D01*
Y533110D02*
X1260870D01*
Y612110D02*
Y621165D01*
X1257130D02*
X1260870D01*
X1257130Y612110D02*
Y621165D01*
Y612110D02*
X1260870D01*
X1237685Y302610D02*
Y311665D01*
X1233945D02*
X1237685D01*
X1233945Y302610D02*
Y311665D01*
Y302610D02*
X1237685D01*
Y382110D02*
Y391165D01*
X1233945D02*
X1237685D01*
X1233945Y382110D02*
Y391165D01*
Y382110D02*
X1237685D01*
X1182370Y532972D02*
Y542028D01*
X1178630D02*
X1182370D01*
X1178630Y532972D02*
Y542028D01*
Y532972D02*
X1182370D01*
Y611972D02*
Y621028D01*
X1178630D02*
X1182370D01*
X1178630Y611972D02*
Y621028D01*
Y611972D02*
X1182370D01*
X1158685Y303110D02*
Y312165D01*
X1154945D02*
X1158685D01*
X1154945Y303110D02*
Y312165D01*
Y303110D02*
X1158685D01*
X1158370Y381335D02*
Y390390D01*
X1154630D02*
X1158370D01*
X1154630Y381335D02*
Y390390D01*
Y381335D02*
X1158370D01*
X1408370Y622972D02*
Y632028D01*
X1404630D02*
X1408370D01*
X1404630Y622972D02*
Y632028D01*
Y622972D02*
X1408370D01*
X1395299D02*
Y632028D01*
X1391558D02*
X1395299D01*
X1391558Y622972D02*
Y632028D01*
Y622972D02*
X1395299D01*
X1356084D02*
Y632028D01*
X1352344D02*
X1356084D01*
X1352344Y622972D02*
Y632028D01*
Y622972D02*
X1356084D01*
X1343013D02*
Y632028D01*
X1339273D02*
X1343013D01*
X1339273Y622972D02*
Y632028D01*
Y622972D02*
X1343013D01*
X1408870Y641472D02*
Y650528D01*
X1405130D02*
X1408870D01*
X1405130Y641472D02*
Y650528D01*
Y641472D02*
X1408870D01*
X1395799D02*
Y650528D01*
X1392058D02*
X1395799D01*
X1392058Y641472D02*
Y650528D01*
Y641472D02*
X1395799D01*
X1356584D02*
Y650528D01*
X1352844D02*
X1356584D01*
X1352844Y641472D02*
Y650528D01*
Y641472D02*
X1356584D01*
X1343513D02*
Y650528D01*
X1339773D02*
X1343513D01*
X1339773Y641472D02*
Y650528D01*
Y641472D02*
X1343513D01*
X1237685Y342110D02*
Y351165D01*
X1233945D02*
X1237685D01*
X1233945Y342110D02*
Y351165D01*
Y342110D02*
X1237685D01*
Y420610D02*
Y429665D01*
X1233945D02*
X1237685D01*
X1233945Y420610D02*
Y429665D01*
Y420610D02*
X1237685D01*
X1382227Y622972D02*
Y632028D01*
X1378487D02*
X1382227D01*
X1378487Y622972D02*
Y632028D01*
Y622972D02*
X1382227D01*
X1369156D02*
Y632028D01*
X1365416D02*
X1369156D01*
X1365416Y622972D02*
Y632028D01*
Y622972D02*
X1369156D01*
X1329941D02*
Y632028D01*
X1326201D02*
X1329941D01*
X1326201Y622972D02*
Y632028D01*
Y622972D02*
X1329941D01*
X1316870D02*
Y632028D01*
X1313130D02*
X1316870D01*
X1313130Y622972D02*
Y632028D01*
Y622972D02*
X1316870D01*
X1158685Y342610D02*
Y351665D01*
X1154945D02*
X1158685D01*
X1154945Y342610D02*
Y351665D01*
Y342610D02*
X1158685D01*
X1158370Y420472D02*
Y429528D01*
X1154630D02*
X1158370D01*
X1154630Y420472D02*
Y429528D01*
Y420472D02*
X1158370D01*
X1382727Y641472D02*
Y650528D01*
X1378987D02*
X1382727D01*
X1378987Y641472D02*
Y650528D01*
Y641472D02*
X1382727D01*
X1369656D02*
Y650528D01*
X1365916D02*
X1369656D01*
X1365916Y641472D02*
Y650528D01*
Y641472D02*
X1369656D01*
X1330441D02*
Y650528D01*
X1326701D02*
X1330441D01*
X1326701Y641472D02*
Y650528D01*
Y641472D02*
X1330441D01*
X1317370D02*
Y650528D01*
X1313630D02*
X1317370D01*
X1313630Y641472D02*
Y650528D01*
Y641472D02*
X1317370D01*
X1375373Y515905D02*
X1382656D01*
X1375373D02*
Y530447D01*
X1382656Y515905D02*
Y530447D01*
X1375373D02*
X1382656D01*
X1385630Y520972D02*
Y530028D01*
Y520972D02*
X1389370D01*
Y530028D01*
X1385630D02*
X1389370D01*
X350953Y746500D02*
X352953Y748500D01*
X350953D02*
X363953D01*
Y740500D02*
Y748500D01*
X350953Y740500D02*
X363953D01*
X350953D02*
Y748500D01*
X739665Y746500D02*
X741665Y748500D01*
X739665D02*
X752665D01*
Y740500D02*
Y748500D01*
X739665Y740500D02*
X752665D01*
X739665D02*
Y748500D01*
X817264Y746500D02*
X819264Y748500D01*
X817264D02*
X830264D01*
Y740500D02*
Y748500D01*
X817264Y740500D02*
X830264D01*
X817264D02*
Y748500D01*
X895665Y746500D02*
X897665Y748500D01*
X895665D02*
X908665D01*
Y740500D02*
Y748500D01*
X895665Y740500D02*
X908665D01*
X895665D02*
Y748500D01*
X428000Y746500D02*
X430000Y748500D01*
X428000D02*
X441000D01*
Y740500D02*
Y748500D01*
X428000Y740500D02*
X441000D01*
X428000D02*
Y748500D01*
X506165Y746500D02*
X508165Y748500D01*
X506165D02*
X519165D01*
Y740500D02*
Y748500D01*
X506165Y740500D02*
X519165D01*
X506165D02*
Y748500D01*
X584165Y746500D02*
X586165Y748500D01*
X584165D02*
X597165D01*
Y740500D02*
Y748500D01*
X584165Y740500D02*
X597165D01*
X584165D02*
Y748500D01*
X662264Y746500D02*
X664264Y748500D01*
X662264D02*
X675264D01*
Y740500D02*
Y748500D01*
X662264Y740500D02*
X675264D01*
X662264D02*
Y748500D01*
X1321500Y250000D02*
X1323500Y248000D01*
Y237000D02*
Y250000D01*
X1315500Y237000D02*
X1323500D01*
X1315500D02*
Y250000D01*
X1323500D01*
X1264240Y491843D02*
X1266240Y489843D01*
X1264240D02*
Y502843D01*
X1272240D01*
Y489843D02*
Y502843D01*
X1264240Y489843D02*
X1272240D01*
X1264240Y570583D02*
X1266240Y568583D01*
X1264240D02*
Y581583D01*
X1272240D01*
Y568583D02*
Y581583D01*
X1264240Y568583D02*
X1272240D01*
X1185500Y491843D02*
X1187500Y489843D01*
X1185500D02*
Y502843D01*
X1193500D01*
Y489843D02*
Y502843D01*
X1185500Y489843D02*
X1193500D01*
X1185500Y570583D02*
X1187500Y568583D01*
X1185500D02*
Y581583D01*
X1193500D01*
Y568583D02*
Y581583D01*
X1185500Y568583D02*
X1193500D01*
X1264240Y531213D02*
X1266240Y529213D01*
X1264240D02*
Y542213D01*
X1272240D01*
Y529213D02*
Y542213D01*
X1264240Y529213D02*
X1272240D01*
X1264240Y609953D02*
X1266240Y607953D01*
X1264240D02*
Y620953D01*
X1272240D01*
Y607953D02*
Y620953D01*
X1264240Y607953D02*
X1272240D01*
X1185500Y531213D02*
X1187500Y529213D01*
X1185500D02*
Y542213D01*
X1193500D01*
Y529213D02*
Y542213D01*
X1185500Y529213D02*
X1193500D01*
X1185500Y610000D02*
X1187500Y608000D01*
X1185500D02*
Y621000D01*
X1193500D01*
Y608000D02*
Y621000D01*
X1185500Y608000D02*
X1193500D01*
X969295Y175795D02*
Y200205D01*
X993705Y175795D02*
Y200205D01*
X969295Y175795D02*
X993705D01*
X969295Y200205D02*
X993705D01*
X968295Y58626D02*
Y83035D01*
X992705Y58626D02*
Y83035D01*
X968295Y58626D02*
X992705D01*
X968295Y83035D02*
X992705D01*
D16*
X1372000Y529547D02*
X1373500Y528047D01*
X1373000Y530547D02*
X1373500D01*
Y530047D02*
Y530547D01*
Y517047D02*
Y530047D01*
X1365500Y517047D02*
X1373500D01*
X1365500D02*
Y530547D01*
X1373000D01*
X1371000D02*
X1372000Y529547D01*
X1377000Y72500D02*
X1386000D01*
X1377000Y92500D02*
X1386000D01*
X1377000Y72500D02*
Y92500D01*
X1386000Y72500D02*
Y92500D01*
X1333500Y97708D02*
X1335000Y96208D01*
X1333500Y95208D02*
X1334000D01*
X1333500D02*
Y95708D01*
Y108708D01*
X1341500D01*
Y95208D02*
Y108708D01*
X1334000Y95208D02*
X1341500D01*
X1335000Y96208D02*
X1336000Y95208D01*
X1382500Y97708D02*
X1384000Y96208D01*
X1382500Y95208D02*
X1383000D01*
X1382500D02*
Y95708D01*
Y108708D01*
X1390500D01*
Y95208D02*
Y108708D01*
X1383000Y95208D02*
X1390500D01*
X1384000Y96208D02*
X1385000Y95208D01*
X1006024Y751512D02*
X1009370D01*
X1005630Y751905D02*
X1006024Y751512D01*
X1005630Y751905D02*
Y760764D01*
X1009370D01*
Y751512D02*
Y760764D01*
X1122024Y753736D02*
X1125370D01*
X1121630Y754130D02*
X1122024Y753736D01*
X1121630Y754130D02*
Y762988D01*
X1125370D01*
Y753736D02*
Y762988D01*
X1231024Y760012D02*
X1234370D01*
X1230630Y760405D02*
X1231024Y760012D01*
X1230630Y760405D02*
Y769264D01*
X1234370D01*
Y760012D02*
Y769264D01*
X1324524Y762874D02*
X1327870D01*
X1324130Y763268D02*
X1324524Y762874D01*
X1324130Y763268D02*
Y772126D01*
X1327870D01*
Y762874D02*
Y772126D01*
X1018839Y751539D02*
Y765122D01*
X1011161D02*
X1018839D01*
X1011161Y753508D02*
Y765122D01*
Y753508D02*
X1013130Y751539D01*
X1018839D01*
X1135839Y753378D02*
Y766961D01*
X1128161D02*
X1135839D01*
X1128161Y755346D02*
Y766961D01*
Y755346D02*
X1130130Y753378D01*
X1135839D01*
X1243339Y759539D02*
Y773122D01*
X1235661D02*
X1243339D01*
X1235661Y761508D02*
Y773122D01*
Y761508D02*
X1237630Y759539D01*
X1243339D01*
X1337839Y762709D02*
Y776291D01*
X1330161D02*
X1337839D01*
X1330161Y764677D02*
Y776291D01*
Y764677D02*
X1332130Y762709D01*
X1337839D01*
X1021024Y751374D02*
X1024370D01*
X1020630Y751768D02*
X1021024Y751374D01*
X1020630Y751768D02*
Y760626D01*
X1024370D01*
Y751374D02*
Y760626D01*
X1139524Y752374D02*
X1142870D01*
X1139130Y752768D02*
X1139524Y752374D01*
X1139130Y752768D02*
Y761626D01*
X1142870D01*
Y752374D02*
Y761626D01*
X1245024Y759236D02*
X1248370D01*
X1244630Y759630D02*
X1245024Y759236D01*
X1244630Y759630D02*
Y768488D01*
X1248370D01*
Y759236D02*
Y768488D01*
X1340524Y762374D02*
X1343870D01*
X1340130Y762768D02*
X1340524Y762374D01*
X1340130Y762768D02*
Y771626D01*
X1343870D01*
Y762374D02*
Y771626D01*
X1248630Y155126D02*
X1251976D01*
X1252370Y154732D01*
Y145874D02*
Y154732D01*
X1248630Y145874D02*
X1252370D01*
X1248630D02*
Y155126D01*
X1238130Y154988D02*
X1241476D01*
X1241870Y154595D01*
Y145736D02*
Y154595D01*
X1238130Y145736D02*
X1241870D01*
X1238130D02*
Y154988D01*
X353736Y85150D02*
Y88496D01*
X354130Y88890D01*
X362988D01*
Y85150D02*
Y88890D01*
X353736Y85150D02*
X362988D01*
X743736Y85130D02*
Y88476D01*
X744130Y88870D01*
X752988D01*
Y85130D02*
Y88870D01*
X743736Y85130D02*
X752988D01*
X820736D02*
Y88476D01*
X821130Y88870D01*
X829988D01*
Y85130D02*
Y88870D01*
X820736Y85130D02*
X829988D01*
X899736D02*
Y88476D01*
X900130Y88870D01*
X908988D01*
Y85130D02*
Y88870D01*
X899736Y85130D02*
X908988D01*
X431736D02*
Y88476D01*
X432130Y88870D01*
X440988D01*
Y85130D02*
Y88870D01*
X431736Y85130D02*
X440988D01*
X509736Y84630D02*
Y87976D01*
X510130Y88370D01*
X518988D01*
Y84630D02*
Y88370D01*
X509736Y84630D02*
X518988D01*
X587736D02*
Y87976D01*
X588130Y88370D01*
X596988D01*
Y84630D02*
Y88370D01*
X587736Y84630D02*
X596988D01*
X665736D02*
Y87976D01*
X666130Y88370D01*
X674988D01*
Y84630D02*
Y88370D01*
X665736Y84630D02*
X674988D01*
X354012Y242630D02*
Y245976D01*
X354405Y246370D01*
X363264D01*
Y242630D02*
Y246370D01*
X354012Y242630D02*
X363264D01*
X743236D02*
Y245976D01*
X743630Y246370D01*
X752488D01*
Y242630D02*
Y246370D01*
X743236Y242630D02*
X752488D01*
X820736D02*
Y245976D01*
X821130Y246370D01*
X829988D01*
Y242630D02*
Y246370D01*
X820736Y242630D02*
X829988D01*
X899236D02*
Y245976D01*
X899630Y246370D01*
X908488D01*
Y242630D02*
Y246370D01*
X899236Y242630D02*
X908488D01*
X431236Y243130D02*
Y246476D01*
X431630Y246870D01*
X440488D01*
Y243130D02*
Y246870D01*
X431236Y243130D02*
X440488D01*
X509736D02*
Y246476D01*
X510130Y246870D01*
X518988D01*
Y243130D02*
Y246870D01*
X509736Y243130D02*
X518988D01*
X587236Y242630D02*
Y245976D01*
X587630Y246370D01*
X596488D01*
Y242630D02*
Y246370D01*
X587236Y242630D02*
X596488D01*
X665736D02*
Y245976D01*
X666130Y246370D01*
X674988D01*
Y242630D02*
Y246370D01*
X665736Y242630D02*
X674988D01*
X355512Y164130D02*
Y167476D01*
X355906Y167870D01*
X364764D01*
Y164130D02*
Y167870D01*
X355512Y164130D02*
X364764D01*
X743736Y163130D02*
Y166476D01*
X744130Y166870D01*
X752988D01*
Y163130D02*
Y166870D01*
X743736Y163130D02*
X752988D01*
X821236Y162630D02*
Y165976D01*
X821630Y166370D01*
X830488D01*
Y162630D02*
Y166370D01*
X821236Y162630D02*
X830488D01*
X899736Y163630D02*
Y166976D01*
X900130Y167370D01*
X908988D01*
Y163630D02*
Y167370D01*
X899736Y163630D02*
X908988D01*
X431736Y163130D02*
Y166476D01*
X432130Y166870D01*
X440988D01*
Y163130D02*
Y166870D01*
X431736Y163130D02*
X440988D01*
X509736Y163630D02*
Y166976D01*
X510130Y167370D01*
X518988D01*
Y163630D02*
Y167370D01*
X509736Y163630D02*
X518988D01*
X587736Y163130D02*
Y166476D01*
X588130Y166870D01*
X596988D01*
Y163130D02*
Y166870D01*
X587736Y163130D02*
X596988D01*
X666236Y162630D02*
Y165976D01*
X666630Y166370D01*
X675488D01*
Y162630D02*
Y166370D01*
X666236Y162630D02*
X675488D01*
X1011839Y732536D02*
Y746118D01*
X1004161D02*
X1011839D01*
X1004161Y734504D02*
Y746118D01*
Y734504D02*
X1006130Y732536D01*
X1011839D01*
X1131815Y733783D02*
Y747366D01*
X1124138D02*
X1131815D01*
X1124138Y735752D02*
Y747366D01*
Y735752D02*
X1126106Y733783D01*
X1131815D01*
X1234839Y733858D02*
Y747441D01*
X1227161D02*
X1234839D01*
X1227161Y735827D02*
Y747441D01*
Y735827D02*
X1229130Y733858D01*
X1234839D01*
X1339839Y733709D02*
Y747291D01*
X1332161D02*
X1339839D01*
X1332161Y735677D02*
Y747291D01*
Y735677D02*
X1334130Y733709D01*
X1339839D01*
X1371130Y101197D02*
X1374477D01*
X1374870Y100803D01*
Y91945D02*
Y100803D01*
X1371130Y91945D02*
X1374870D01*
X1371130D02*
Y101197D01*
X1378524Y103082D02*
X1381870D01*
X1378130Y103476D02*
X1378524Y103082D01*
X1378130Y103476D02*
Y112334D01*
X1381870D01*
Y103082D02*
Y112334D01*
X1373024Y103082D02*
X1376370D01*
X1372630Y103476D02*
X1373024Y103082D01*
X1372630Y103476D02*
Y112334D01*
X1376370D01*
Y103082D02*
Y112334D01*
X1266709Y169339D02*
X1280291D01*
X1266709Y161661D02*
Y169339D01*
Y161661D02*
X1278323D01*
X1280291Y163630D01*
Y169339D01*
X1019661Y59709D02*
Y73291D01*
Y59709D02*
X1027339D01*
Y71323D01*
X1025370Y73291D02*
X1027339Y71323D01*
X1019661Y73291D02*
X1025370D01*
X1008661Y59709D02*
Y73291D01*
Y59709D02*
X1016339D01*
Y71323D01*
X1014370Y73291D02*
X1016339Y71323D01*
X1008661Y73291D02*
X1014370D01*
X1112161Y105209D02*
Y118791D01*
Y105209D02*
X1119839D01*
Y116823D01*
X1117870Y118791D02*
X1119839Y116823D01*
X1112161Y118791D02*
X1117870D01*
X1123661Y105209D02*
Y118791D01*
Y105209D02*
X1131339D01*
Y116823D01*
X1129370Y118791D02*
X1131339Y116823D01*
X1123661Y118791D02*
X1129370D01*
X1266709Y160339D02*
X1280291D01*
X1266709Y152661D02*
Y160339D01*
Y152661D02*
X1278323D01*
X1280291Y154630D01*
Y160339D01*
X1266709Y151339D02*
X1280291D01*
X1266709Y143661D02*
Y151339D01*
Y143661D02*
X1278323D01*
X1280291Y145630D01*
Y151339D01*
X1367630Y178626D02*
X1370976D01*
X1371370Y178232D01*
Y169374D02*
Y178232D01*
X1367630Y169374D02*
X1371370D01*
X1367630D02*
Y178626D01*
X1122661Y170209D02*
Y183791D01*
Y170209D02*
X1130339D01*
Y181823D01*
X1128370Y183791D02*
X1130339Y181823D01*
X1122661Y183791D02*
X1128370D01*
X1112161Y170209D02*
Y183791D01*
Y170209D02*
X1119839D01*
Y181823D01*
X1117870Y183791D02*
X1119839Y181823D01*
X1112161Y183791D02*
X1117870D01*
X1343339Y202209D02*
Y215791D01*
X1335661D02*
X1343339D01*
X1335661Y204177D02*
Y215791D01*
Y204177D02*
X1337630Y202209D01*
X1343339D01*
X1331839D02*
Y215791D01*
X1324161D02*
X1331839D01*
X1324161Y204177D02*
Y215791D01*
Y204177D02*
X1326130Y202209D01*
X1331839D01*
X1321339D02*
Y215791D01*
X1313661D02*
X1321339D01*
X1313661Y204177D02*
Y215791D01*
Y204177D02*
X1315630Y202209D01*
X1321339D01*
X1235161Y188209D02*
Y201791D01*
Y188209D02*
X1242839D01*
Y199823D01*
X1240870Y201791D02*
X1242839Y199823D01*
X1235161Y201791D02*
X1240870D01*
X1203161Y172709D02*
Y186291D01*
Y172709D02*
X1210839D01*
Y184323D01*
X1208870Y186291D02*
X1210839Y184323D01*
X1203161Y186291D02*
X1208870D01*
X1192161Y172709D02*
Y186291D01*
Y172709D02*
X1199839D01*
Y184323D01*
X1197870Y186291D02*
X1199839Y184323D01*
X1192161Y186291D02*
X1197870D01*
X1166161Y233709D02*
Y247291D01*
Y233709D02*
X1173839D01*
Y245323D01*
X1171870Y247291D02*
X1173839Y245323D01*
X1166161Y247291D02*
X1171870D01*
X1155161Y233709D02*
Y247291D01*
Y233709D02*
X1162839D01*
Y245323D01*
X1160870Y247291D02*
X1162839Y245323D01*
X1155161Y247291D02*
X1160870D01*
X1010161Y176709D02*
Y190291D01*
Y176709D02*
X1017839D01*
Y188323D01*
X1015870Y190291D02*
X1017839Y188323D01*
X1010161Y190291D02*
X1015870D01*
X1000661Y176709D02*
Y190291D01*
Y176709D02*
X1008339D01*
Y188323D01*
X1006370Y190291D02*
X1008339Y188323D01*
X1000661Y190291D02*
X1006370D01*
X1269709Y239661D02*
X1283291D01*
Y247339D01*
X1271677D02*
X1283291D01*
X1269709Y245370D02*
X1271677Y247339D01*
X1269709Y239661D02*
Y245370D01*
Y257661D02*
X1283291D01*
Y265339D01*
X1271677D02*
X1283291D01*
X1269709Y263370D02*
X1271677Y265339D01*
X1269709Y257661D02*
Y263370D01*
Y248661D02*
X1283291D01*
Y256339D01*
X1271677D02*
X1283291D01*
X1269709Y254370D02*
X1271677Y256339D01*
X1269709Y248661D02*
Y254370D01*
X1201661Y106709D02*
Y120291D01*
Y106709D02*
X1209339D01*
Y118323D01*
X1207370Y120291D02*
X1209339Y118323D01*
X1201661Y120291D02*
X1207370D01*
X1190661Y106209D02*
Y119791D01*
Y106209D02*
X1198339D01*
Y117823D01*
X1196370Y119791D02*
X1198339Y117823D01*
X1190661Y119791D02*
X1196370D01*
X1224630Y311626D02*
X1227976D01*
X1228370Y311232D01*
Y302374D02*
Y311232D01*
X1224630Y302374D02*
X1228370D01*
X1224630D02*
Y311626D01*
X1225130Y391126D02*
X1228476D01*
X1228870Y390732D01*
Y381874D02*
Y390732D01*
X1225130Y381874D02*
X1228870D01*
X1225130D02*
Y391126D01*
X1146130Y312126D02*
X1149476D01*
X1149870Y311732D01*
Y302874D02*
Y311732D01*
X1146130Y302874D02*
X1149870D01*
X1146130D02*
Y312126D01*
X1145630Y390626D02*
X1148976D01*
X1149370Y390232D01*
Y381374D02*
Y390232D01*
X1145630Y381374D02*
X1149370D01*
X1145630D02*
Y390626D01*
X1225130Y351264D02*
X1228476D01*
X1228870Y350870D01*
Y342012D02*
Y350870D01*
X1225130Y342012D02*
X1228870D01*
X1225130D02*
Y351264D01*
X1224630Y429626D02*
X1227976D01*
X1228370Y429232D01*
Y420374D02*
Y429232D01*
X1224630Y420374D02*
X1228370D01*
X1224630D02*
Y429626D01*
X1145630Y351626D02*
X1148976D01*
X1149370Y351232D01*
Y342374D02*
Y351232D01*
X1145630Y342374D02*
X1149370D01*
X1145630D02*
Y351626D01*
Y429626D02*
X1148976D01*
X1149370Y429232D01*
Y420374D02*
Y429232D01*
X1145630Y420374D02*
X1149370D01*
X1145630D02*
Y429626D01*
X1392839Y545709D02*
Y559291D01*
X1385161D02*
X1392839D01*
X1385161Y547677D02*
Y559291D01*
Y547677D02*
X1387130Y545709D01*
X1392839D01*
X1353024Y543874D02*
X1356370D01*
X1352630Y544268D02*
X1353024Y543874D01*
X1352630Y544268D02*
Y553126D01*
X1356370D01*
Y543874D02*
Y553126D01*
X1358524Y543874D02*
X1361870D01*
X1358130Y544268D02*
X1358524Y543874D01*
X1358130Y544268D02*
Y553126D01*
X1361870D01*
Y543874D02*
Y553126D01*
X1380524Y545874D02*
X1383870D01*
X1380130Y546268D02*
X1380524Y545874D01*
X1380130Y546268D02*
Y555126D01*
X1383870D01*
Y545874D02*
Y555126D01*
D17*
X1381500Y80532D02*
Y84469D01*
X1379531Y82500D02*
X1383468D01*
D18*
X1341725Y62700D02*
X1345662Y66637D01*
X1341725D02*
X1377158D01*
Y47937D02*
Y66637D01*
X1344678Y47937D02*
X1377158D01*
X1341725D02*
X1344678D01*
X1341725D02*
Y66637D01*
X1356559Y105929D02*
X1360496D01*
X1358528Y103960D02*
Y107897D01*
X1093622Y97031D02*
Y100969D01*
X1091654Y99000D02*
X1095591D01*
X1094000Y162531D02*
Y166469D01*
X1092031Y164500D02*
X1095969D01*
X1174500Y162531D02*
Y166469D01*
X1172532Y164500D02*
X1176468D01*
X1136500Y225532D02*
Y229468D01*
X1134531Y227500D02*
X1138468D01*
X1278000Y202031D02*
Y205968D01*
X1276031Y204000D02*
X1279968D01*
X1173622Y98032D02*
Y101969D01*
X1171653Y100000D02*
X1175591D01*
X1377032Y159839D02*
X1380968D01*
X1379000Y157870D02*
Y161807D01*
X1030000Y51032D02*
Y54969D01*
X1028032Y53000D02*
X1031968D01*
X998000Y84362D02*
Y88299D01*
X996031Y86331D02*
X999969D01*
X1316000Y180532D02*
Y184468D01*
X1314032Y182500D02*
X1317968D01*
X997000Y52976D02*
Y56913D01*
X995032Y54945D02*
X998969D01*
X1327000Y180532D02*
Y184468D01*
X1325031Y182500D02*
X1328969D01*
X1004500Y52976D02*
Y56913D01*
X1002532Y54945D02*
X1006468D01*
X1021000Y167032D02*
Y170968D01*
X1019032Y169000D02*
X1022968D01*
X998000Y208531D02*
Y212469D01*
X996031Y210500D02*
X999969D01*
X1139000Y81976D02*
Y85913D01*
X1137031Y83945D02*
X1140969D01*
X1139000Y97531D02*
Y101469D01*
X1137031Y99500D02*
X1140969D01*
X999500Y166532D02*
Y170468D01*
X997532Y168500D02*
X1001468D01*
X1007000Y166532D02*
Y170468D01*
X1005031Y168500D02*
X1008969D01*
X1377032Y523161D02*
X1380968D01*
X1379000Y521193D02*
Y525130D01*
X356453Y744500D02*
X358953Y747000D01*
Y742500D02*
Y747000D01*
Y742000D02*
Y742500D01*
X356453Y744500D02*
X358953Y742000D01*
X356453Y744500D02*
Y747000D01*
Y742000D02*
Y744500D01*
X353953D02*
X356453D01*
X358953D02*
X361953D01*
X745165D02*
X747665Y747000D01*
Y742500D02*
Y747000D01*
Y742000D02*
Y742500D01*
X745165Y744500D02*
X747665Y742000D01*
X745165Y744500D02*
Y747000D01*
Y742000D02*
Y744500D01*
X742665D02*
X745165D01*
X747665D02*
X750665D01*
X822764D02*
X825264Y747000D01*
Y742500D02*
Y747000D01*
Y742000D02*
Y742500D01*
X822764Y744500D02*
X825264Y742000D01*
X822764Y744500D02*
Y747000D01*
Y742000D02*
Y744500D01*
X820264D02*
X822764D01*
X825264D02*
X828264D01*
X901165D02*
X903665Y747000D01*
Y742500D02*
Y747000D01*
Y742000D02*
Y742500D01*
X901165Y744500D02*
X903665Y742000D01*
X901165Y744500D02*
Y747000D01*
Y742000D02*
Y744500D01*
X898665D02*
X901165D01*
X903665D02*
X906665D01*
X433500D02*
X436000Y747000D01*
Y742500D02*
Y747000D01*
Y742000D02*
Y742500D01*
X433500Y744500D02*
X436000Y742000D01*
X433500Y744500D02*
Y747000D01*
Y742000D02*
Y744500D01*
X431000D02*
X433500D01*
X436000D02*
X439000D01*
X511665D02*
X514165Y747000D01*
Y742500D02*
Y747000D01*
Y742000D02*
Y742500D01*
X511665Y744500D02*
X514165Y742000D01*
X511665Y744500D02*
Y747000D01*
Y742000D02*
Y744500D01*
X509165D02*
X511665D01*
X514165D02*
X517165D01*
X589665D02*
X592165Y747000D01*
Y742500D02*
Y747000D01*
Y742000D02*
Y742500D01*
X589665Y744500D02*
X592165Y742000D01*
X589665Y744500D02*
Y747000D01*
Y742000D02*
Y744500D01*
X587165D02*
X589665D01*
X592165D02*
X595165D01*
X667764D02*
X670264Y747000D01*
Y742500D02*
Y747000D01*
Y742000D02*
Y742500D01*
X667764Y744500D02*
X670264Y742000D01*
X667764Y744500D02*
Y747000D01*
Y742000D02*
Y744500D01*
X665264D02*
X667764D01*
X670264D02*
X673264D01*
X1319500Y244500D02*
X1322000Y242000D01*
X1317500D02*
X1322000D01*
X1317000D02*
X1317500D01*
X1317000D02*
X1319500Y244500D01*
X1322000D01*
X1317000D02*
X1319500D01*
Y247000D01*
Y239000D02*
Y242000D01*
X1265740Y497843D02*
X1268240Y495342D01*
X1265740Y497843D02*
X1270240D01*
X1270740D01*
X1268240Y495342D02*
X1270740Y497843D01*
X1265740Y495342D02*
X1268240D01*
X1270740D01*
X1268240Y492842D02*
Y495342D01*
Y497843D02*
Y500843D01*
X1265740Y576583D02*
X1268240Y574083D01*
X1265740Y576583D02*
X1270240D01*
X1270740D01*
X1268240Y574083D02*
X1270740Y576583D01*
X1265740Y574083D02*
X1268240D01*
X1270740D01*
X1268240Y571583D02*
Y574083D01*
Y576583D02*
Y579583D01*
X1187000Y497843D02*
X1189500Y495342D01*
X1187000Y497843D02*
X1191500D01*
X1192000D01*
X1189500Y495342D02*
X1192000Y497843D01*
X1187000Y495342D02*
X1189500D01*
X1192000D01*
X1189500Y492842D02*
Y495342D01*
Y497843D02*
Y500843D01*
X1187000Y576583D02*
X1189500Y574083D01*
X1187000Y576583D02*
X1191500D01*
X1192000D01*
X1189500Y574083D02*
X1192000Y576583D01*
X1187000Y574083D02*
X1189500D01*
X1192000D01*
X1189500Y571583D02*
Y574083D01*
Y576583D02*
Y579583D01*
X1265740Y537213D02*
X1268240Y534713D01*
X1265740Y537213D02*
X1270240D01*
X1270740D01*
X1268240Y534713D02*
X1270740Y537213D01*
X1265740Y534713D02*
X1268240D01*
X1270740D01*
X1268240Y532213D02*
Y534713D01*
Y537213D02*
Y540213D01*
X1265740Y615953D02*
X1268240Y613453D01*
X1265740Y615953D02*
X1270240D01*
X1270740D01*
X1268240Y613453D02*
X1270740Y615953D01*
X1265740Y613453D02*
X1268240D01*
X1270740D01*
X1268240Y610953D02*
Y613453D01*
Y615953D02*
Y618953D01*
X1187000Y537213D02*
X1189500Y534713D01*
X1187000Y537213D02*
X1191500D01*
X1192000D01*
X1189500Y534713D02*
X1192000Y537213D01*
X1187000Y534713D02*
X1189500D01*
X1192000D01*
X1189500Y532213D02*
Y534713D01*
Y537213D02*
Y540213D01*
X1187000Y616000D02*
X1189500Y613500D01*
X1187000Y616000D02*
X1191500D01*
X1192000D01*
X1189500Y613500D02*
X1192000Y616000D01*
X1187000Y613500D02*
X1189500D01*
X1192000D01*
X1189500Y611000D02*
Y613500D01*
Y616000D02*
Y619000D01*
X1369500Y525547D02*
X1372000Y523047D01*
X1367500D02*
X1372000D01*
X1367000D02*
X1367500D01*
X1367000D02*
X1369500Y525547D01*
X1372000D01*
X1367000D02*
X1369500D01*
Y528047D01*
Y520047D02*
Y523047D01*
X420449Y61051D02*
X426551D01*
Y54949D02*
Y61051D01*
X420449Y54949D02*
Y61051D01*
Y54949D02*
X426551D01*
X411949Y61051D02*
X418051D01*
Y54949D02*
Y61051D01*
X411949Y54949D02*
Y61051D01*
Y54949D02*
X418051D01*
X403449Y61051D02*
X409551D01*
Y54949D02*
Y61051D01*
X403449Y54949D02*
Y61051D01*
Y54949D02*
X409551D01*
X1342449Y195449D02*
X1348551D01*
X1342449D02*
Y201551D01*
X1348551Y195449D02*
Y201551D01*
X1342449D02*
X1348551D01*
Y186949D02*
Y193051D01*
X1342449Y186949D02*
X1348551D01*
X1342449Y193051D02*
X1348551D01*
X1342449Y186949D02*
Y193051D01*
Y178949D02*
X1348551D01*
X1342449D02*
Y185051D01*
X1348551Y178949D02*
Y185051D01*
X1342449D02*
X1348551D01*
X1335000Y102708D02*
X1337500Y100208D01*
X1335000Y102708D02*
X1339500D01*
X1340000D01*
X1337500Y100208D02*
X1340000Y102708D01*
X1335000Y100208D02*
X1337500D01*
X1340000D01*
X1337500Y97708D02*
Y100208D01*
Y102708D02*
Y105708D01*
X1384000Y102708D02*
X1386500Y100208D01*
X1384000Y102708D02*
X1388500D01*
X1389000D01*
X1386500Y100208D02*
X1389000Y102708D01*
X1384000Y100208D02*
X1386500D01*
X1389000D01*
X1386500Y97708D02*
Y100208D01*
Y102708D02*
Y105708D01*
X1065000Y823500D02*
X1070453D01*
X1064500Y823000D02*
X1065000Y823500D01*
X1064500Y817646D02*
Y823000D01*
Y817646D02*
X1070453D01*
Y823500D01*
X1185000Y824500D02*
X1190453D01*
X1184500Y824000D02*
X1185000Y824500D01*
X1184500Y818646D02*
Y824000D01*
Y818646D02*
X1190453D01*
Y824500D01*
X1288000D02*
X1293453D01*
X1287500Y824000D02*
X1288000Y824500D01*
X1287500Y818646D02*
Y824000D01*
Y818646D02*
X1293453D01*
Y824500D01*
X1393000D02*
X1398453D01*
X1392500Y824000D02*
X1393000Y824500D01*
X1392500Y818646D02*
Y824000D01*
Y818646D02*
X1398453D01*
Y824500D01*
X1065425Y809190D02*
X1070878D01*
X1064925Y808690D02*
X1065425Y809190D01*
X1064925Y803336D02*
Y808690D01*
Y803336D02*
X1070878D01*
Y809190D01*
X1185402Y810438D02*
X1190854D01*
X1184902Y809938D02*
X1185402Y810438D01*
X1184902Y804584D02*
Y809938D01*
Y804584D02*
X1190854D01*
Y810438D01*
X1288425Y810513D02*
X1293878D01*
X1287925Y810013D02*
X1288425Y810513D01*
X1287925Y804659D02*
Y810013D01*
Y804659D02*
X1293878D01*
Y810513D01*
X1393425Y810364D02*
X1398878D01*
X1392925Y809864D02*
X1393425Y810364D01*
X1392925Y804509D02*
Y809864D01*
Y804509D02*
X1398878D01*
Y810364D01*
X1065500Y795500D02*
X1070953D01*
X1065000Y795000D02*
X1065500Y795500D01*
X1065000Y789646D02*
Y795000D01*
Y789646D02*
X1070953D01*
Y795500D01*
X1185500Y796500D02*
X1190953D01*
X1185000Y796000D02*
X1185500Y796500D01*
X1185000Y790646D02*
Y796000D01*
Y790646D02*
X1190953D01*
Y796500D01*
X1288500D02*
X1293953D01*
X1288000Y796000D02*
X1288500Y796500D01*
X1288000Y790646D02*
Y796000D01*
Y790646D02*
X1293953D01*
Y796500D01*
X1393075Y796327D02*
X1398528D01*
X1392575Y795827D02*
X1393075Y796327D01*
X1392575Y790472D02*
Y795827D01*
Y790472D02*
X1398528D01*
Y796327D01*
X1065425Y780918D02*
X1070878D01*
X1064925Y780418D02*
X1065425Y780918D01*
X1064925Y775063D02*
Y780418D01*
Y775063D02*
X1070878D01*
Y780918D01*
X1185402Y782166D02*
X1190854D01*
X1184902Y781666D02*
X1185402Y782166D01*
X1184902Y776311D02*
Y781666D01*
Y776311D02*
X1190854D01*
Y782166D01*
X1288425Y782240D02*
X1293878D01*
X1287925Y781741D02*
X1288425Y782240D01*
X1287925Y776386D02*
Y781741D01*
Y776386D02*
X1293878D01*
Y782240D01*
X1393425Y782091D02*
X1398878D01*
X1392925Y781591D02*
X1393425Y782091D01*
X1392925Y776236D02*
Y781591D01*
Y776236D02*
X1398878D01*
Y782091D01*
X1065575Y767327D02*
X1071028D01*
X1065075Y766827D02*
X1065575Y767327D01*
X1065075Y761472D02*
Y766827D01*
Y761472D02*
X1071028D01*
Y767327D01*
X1185000Y768000D02*
X1190453D01*
X1184500Y767500D02*
X1185000Y768000D01*
X1184500Y762146D02*
Y767500D01*
Y762146D02*
X1190453D01*
Y768000D01*
X1288500D02*
X1293953D01*
X1288000Y767500D02*
X1288500Y768000D01*
X1288000Y762146D02*
Y767500D01*
Y762146D02*
X1293953D01*
Y768000D01*
X1393500Y767500D02*
X1398953D01*
X1393000Y767000D02*
X1393500Y767500D01*
X1393000Y761646D02*
Y767000D01*
Y761646D02*
X1398953D01*
Y767500D01*
X1065425Y752645D02*
X1070878D01*
X1064925Y752145D02*
X1065425Y752645D01*
X1064925Y746791D02*
Y752145D01*
Y746791D02*
X1070878D01*
Y752645D01*
X1185500Y754000D02*
X1190953D01*
X1185000Y753500D02*
X1185500Y754000D01*
X1185000Y748146D02*
Y753500D01*
Y748146D02*
X1190953D01*
Y754000D01*
X1288425Y753968D02*
X1293878D01*
X1287925Y753468D02*
X1288425Y753968D01*
X1287925Y748113D02*
Y753468D01*
Y748113D02*
X1293878D01*
Y753968D01*
X1393425Y753818D02*
X1398878D01*
X1392925Y753318D02*
X1393425Y753818D01*
X1392925Y747964D02*
Y753318D01*
Y747964D02*
X1398878D01*
Y753818D01*
X1065425Y738509D02*
X1070878D01*
X1064925Y738009D02*
X1065425Y738509D01*
X1064925Y732654D02*
Y738009D01*
Y732654D02*
X1070878D01*
Y738509D01*
X1185575Y739827D02*
X1191028D01*
X1185075Y739327D02*
X1185575Y739827D01*
X1185075Y733972D02*
Y739327D01*
Y733972D02*
X1191028D01*
Y739827D01*
X1288425Y739831D02*
X1293878D01*
X1287925Y739331D02*
X1288425Y739831D01*
X1287925Y733977D02*
Y739331D01*
Y733977D02*
X1293878D01*
Y739831D01*
X1393575Y739827D02*
X1399028D01*
X1393075Y739327D02*
X1393575Y739827D01*
X1393075Y733972D02*
Y739327D01*
Y733972D02*
X1399028D01*
Y739827D01*
X1065425Y724372D02*
X1070878D01*
X1064925Y723872D02*
X1065425Y724372D01*
X1064925Y718518D02*
Y723872D01*
Y718518D02*
X1070878D01*
Y724372D01*
X1185402Y725620D02*
X1190854D01*
X1184902Y725120D02*
X1185402Y725620D01*
X1184902Y719766D02*
Y725120D01*
Y719766D02*
X1190854D01*
Y725620D01*
X1288425Y725695D02*
X1293878D01*
X1287925Y725195D02*
X1288425Y725695D01*
X1287925Y719841D02*
Y725195D01*
Y719841D02*
X1293878D01*
Y725695D01*
X1393425Y725545D02*
X1398878D01*
X1392925Y725045D02*
X1393425Y725545D01*
X1392925Y719691D02*
Y725045D01*
Y719691D02*
X1398878D01*
Y725545D01*
X1065500Y710500D02*
X1070953D01*
X1065000Y710000D02*
X1065500Y710500D01*
X1065000Y704646D02*
Y710000D01*
Y704646D02*
X1070953D01*
Y710500D01*
X1185500Y711500D02*
X1190953D01*
X1185000Y711000D02*
X1185500Y711500D01*
X1185000Y705646D02*
Y711000D01*
Y705646D02*
X1190953D01*
Y711500D01*
X1288425Y711559D02*
X1293878D01*
X1287925Y711059D02*
X1288425Y711559D01*
X1287925Y705704D02*
Y711059D01*
Y705704D02*
X1293878D01*
Y711559D01*
X1393000Y711500D02*
X1398453D01*
X1392500Y711000D02*
X1393000Y711500D01*
X1392500Y705646D02*
Y711000D01*
Y705646D02*
X1398453D01*
Y711500D01*
X1065500Y696500D02*
X1070953D01*
X1065000Y696000D02*
X1065500Y696500D01*
X1065000Y690646D02*
Y696000D01*
Y690646D02*
X1070953D01*
Y696500D01*
X1185500Y697500D02*
X1190953D01*
X1185000Y697000D02*
X1185500Y697500D01*
X1185000Y691646D02*
Y697000D01*
Y691646D02*
X1190953D01*
Y697500D01*
X1288425Y697422D02*
X1293878D01*
X1287925Y696922D02*
X1288425Y697422D01*
X1287925Y691568D02*
Y696922D01*
Y691568D02*
X1293878D01*
Y697422D01*
X1393000Y697500D02*
X1398453D01*
X1392500Y697000D02*
X1393000Y697500D01*
X1392500Y691646D02*
Y697000D01*
Y691646D02*
X1398453D01*
Y697500D01*
X1065575Y682327D02*
X1071028D01*
X1065075Y681827D02*
X1065575Y682327D01*
X1065075Y676472D02*
Y681827D01*
Y676472D02*
X1071028D01*
Y682327D01*
X1185500Y683000D02*
X1190953D01*
X1185000Y682500D02*
X1185500Y683000D01*
X1185000Y677146D02*
Y682500D01*
Y677146D02*
X1190953D01*
Y683000D01*
X1288500D02*
X1293953D01*
X1288000Y682500D02*
X1288500Y683000D01*
X1288000Y677146D02*
Y682500D01*
Y677146D02*
X1293953D01*
Y683000D01*
X1393000D02*
X1398453D01*
X1392500Y682500D02*
X1393000Y683000D01*
X1392500Y677146D02*
Y682500D01*
Y677146D02*
X1398453D01*
Y683000D01*
X1065425Y667827D02*
X1070878D01*
X1064925Y667327D02*
X1065425Y667827D01*
X1064925Y661973D02*
Y667327D01*
Y661973D02*
X1070878D01*
Y667827D01*
X1185402Y669075D02*
X1190854D01*
X1184902Y668575D02*
X1185402Y669075D01*
X1184902Y663221D02*
Y668575D01*
Y663221D02*
X1190854D01*
Y669075D01*
X1288425Y669150D02*
X1293878D01*
X1287925Y668650D02*
X1288425Y669150D01*
X1287925Y663295D02*
Y668650D01*
Y663295D02*
X1293878D01*
Y669150D01*
X1393425Y669000D02*
X1398878D01*
X1392925Y668500D02*
X1393425Y669000D01*
X1392925Y663146D02*
Y668500D01*
Y663146D02*
X1398878D01*
Y669000D01*
X1015000Y756559D02*
Y760102D01*
X1013228Y758331D02*
X1016772D01*
X1132000Y758398D02*
Y761941D01*
X1130228Y760169D02*
X1133772D01*
X1239500Y764559D02*
Y768102D01*
X1237728Y766331D02*
X1241272D01*
X1334000Y767728D02*
Y771272D01*
X1332228Y769500D02*
X1335772D01*
X1008000Y737555D02*
Y741098D01*
X1006228Y739327D02*
X1009772D01*
X1127976Y738803D02*
Y742346D01*
X1126205Y740575D02*
X1129748D01*
X1231000Y738878D02*
Y742421D01*
X1229228Y740650D02*
X1232772D01*
X1336000Y738728D02*
Y742272D01*
X1334228Y740500D02*
X1337772D01*
X1271728Y165500D02*
X1275272D01*
X1273500Y163728D02*
Y167272D01*
X1023500Y64728D02*
Y68272D01*
X1021728Y66500D02*
X1025272D01*
X1012500Y64728D02*
Y68272D01*
X1010728Y66500D02*
X1014272D01*
X1116000Y110228D02*
Y113772D01*
X1114228Y112000D02*
X1117772D01*
X1127500Y110228D02*
Y113772D01*
X1125728Y112000D02*
X1129272D01*
X1271728Y156500D02*
X1275272D01*
X1273500Y154728D02*
Y158272D01*
X1271728Y147500D02*
X1275272D01*
X1273500Y145728D02*
Y149272D01*
X1126500Y175228D02*
Y178772D01*
X1124728Y177000D02*
X1128272D01*
X1116000Y175228D02*
Y178772D01*
X1114228Y177000D02*
X1117772D01*
X1339500Y207228D02*
Y210772D01*
X1337728Y209000D02*
X1341272D01*
X1328000Y207228D02*
Y210772D01*
X1326228Y209000D02*
X1329772D01*
X1317500Y207228D02*
Y210772D01*
X1315728Y209000D02*
X1319272D01*
X1239000Y193228D02*
Y196772D01*
X1237228Y195000D02*
X1240772D01*
X1207000Y177728D02*
Y181272D01*
X1205228Y179500D02*
X1208772D01*
X1196000Y177728D02*
Y181272D01*
X1194228Y179500D02*
X1197772D01*
X1170000Y238728D02*
Y242272D01*
X1168228Y240500D02*
X1171772D01*
X1159000Y238728D02*
Y242272D01*
X1157228Y240500D02*
X1160772D01*
X1014000Y181728D02*
Y185272D01*
X1012228Y183500D02*
X1015772D01*
X1004500Y181728D02*
Y185272D01*
X1002728Y183500D02*
X1006272D01*
X1274728Y243500D02*
X1278272D01*
X1276500Y241728D02*
Y245272D01*
X1274728Y261500D02*
X1278272D01*
X1276500Y259728D02*
Y263272D01*
X1274728Y252500D02*
X1278272D01*
X1276500Y250728D02*
Y254272D01*
X1205500Y111728D02*
Y115272D01*
X1203728Y113500D02*
X1207272D01*
X1194500Y111228D02*
Y114772D01*
X1192728Y113000D02*
X1196272D01*
X1389000Y550728D02*
Y554272D01*
X1387228Y552500D02*
X1390772D01*
X979531Y188000D02*
X983469D01*
X981500Y186031D02*
Y189969D01*
X978531Y70831D02*
X982469D01*
X980500Y68862D02*
Y72799D01*
D120*
X1320531Y315154D02*
Y397043D01*
X1324469Y400980D01*
X1354390D01*
Y315154D02*
Y400980D01*
X1320531Y315154D02*
X1354390D01*
X1385500Y580500D02*
Y617500D01*
Y580500D02*
X1412500D01*
Y614000D01*
X1409000Y617500D02*
X1412500Y614000D01*
X1385500Y617500D02*
X1409000D01*
M02*
