G04*
G04 #@! TF.GenerationSoftware,Altium Limited,Altium Designer,20.1.12 (249)*
G04*
G04 Layer_Color=8388736*
%FSLAX25Y25*%
%MOIN*%
G70*
G04*
G04 #@! TF.SameCoordinates,4A7F9F3E-6CFA-4FBA-8C7F-EFD49E1ADEB1*
G04*
G04*
G04 #@! TF.FilePolarity,Positive*
G04*
G01*
G75*
G36*
X1361331Y78473D02*
X1361364Y78426D01*
X1361401Y78380D01*
X1361436Y78339D01*
X1361471Y78304D01*
X1361497Y78275D01*
X1361509Y78266D01*
X1361518Y78258D01*
X1361521Y78255D01*
X1361524Y78252D01*
X1361585Y78202D01*
X1361646Y78156D01*
X1361704Y78115D01*
X1361762Y78083D01*
X1361812Y78054D01*
X1361832Y78042D01*
X1361849Y78034D01*
X1361864Y78025D01*
X1361876Y78022D01*
X1361882Y78016D01*
X1361884D01*
Y77777D01*
X1361841Y77795D01*
X1361797Y77815D01*
X1361753Y77836D01*
X1361713Y77856D01*
X1361678Y77873D01*
X1361649Y77888D01*
X1361631Y77900D01*
X1361628Y77903D01*
X1361625D01*
X1361573Y77935D01*
X1361526Y77967D01*
X1361486Y77996D01*
X1361454Y78022D01*
X1361425Y78042D01*
X1361407Y78060D01*
X1361393Y78071D01*
X1361390Y78074D01*
Y76500D01*
X1361142D01*
Y78522D01*
X1361302D01*
X1361331Y78473D01*
D02*
G37*
G36*
X1359766D02*
X1359798Y78426D01*
X1359836Y78380D01*
X1359871Y78339D01*
X1359906Y78304D01*
X1359932Y78275D01*
X1359943Y78266D01*
X1359952Y78258D01*
X1359955Y78255D01*
X1359958Y78252D01*
X1360019Y78202D01*
X1360080Y78156D01*
X1360138Y78115D01*
X1360197Y78083D01*
X1360246Y78054D01*
X1360266Y78042D01*
X1360284Y78034D01*
X1360299Y78025D01*
X1360310Y78022D01*
X1360316Y78016D01*
X1360319D01*
Y77777D01*
X1360275Y77795D01*
X1360232Y77815D01*
X1360188Y77836D01*
X1360147Y77856D01*
X1360112Y77873D01*
X1360083Y77888D01*
X1360066Y77900D01*
X1360063Y77903D01*
X1360060D01*
X1360007Y77935D01*
X1359961Y77967D01*
X1359920Y77996D01*
X1359888Y78022D01*
X1359859Y78042D01*
X1359842Y78060D01*
X1359827Y78071D01*
X1359824Y78074D01*
Y76500D01*
X1359577D01*
Y78522D01*
X1359737D01*
X1359766Y78473D01*
D02*
G37*
G36*
X1364000Y77350D02*
Y77292D01*
X1363997Y77236D01*
X1363994Y77184D01*
X1363988Y77134D01*
X1363982Y77091D01*
X1363977Y77050D01*
X1363968Y77012D01*
X1363962Y76977D01*
X1363956Y76945D01*
X1363948Y76919D01*
X1363942Y76896D01*
X1363936Y76878D01*
X1363930Y76864D01*
X1363927Y76852D01*
X1363924Y76846D01*
Y76843D01*
X1363892Y76779D01*
X1363852Y76721D01*
X1363811Y76675D01*
X1363767Y76634D01*
X1363729Y76602D01*
X1363697Y76579D01*
X1363686Y76573D01*
X1363677Y76567D01*
X1363671Y76561D01*
X1363668D01*
X1363595Y76529D01*
X1363520Y76506D01*
X1363441Y76488D01*
X1363369Y76477D01*
X1363336Y76474D01*
X1363305Y76471D01*
X1363275Y76468D01*
X1363252D01*
X1363232Y76465D01*
X1363206D01*
X1363101Y76471D01*
X1363054Y76477D01*
X1363011Y76482D01*
X1362967Y76491D01*
X1362929Y76500D01*
X1362894Y76509D01*
X1362862Y76520D01*
X1362833Y76532D01*
X1362810Y76541D01*
X1362786Y76550D01*
X1362769Y76558D01*
X1362755Y76567D01*
X1362746Y76570D01*
X1362740Y76576D01*
X1362737D01*
X1362673Y76619D01*
X1362621Y76669D01*
X1362580Y76715D01*
X1362545Y76762D01*
X1362519Y76803D01*
X1362501Y76835D01*
X1362496Y76846D01*
X1362490Y76855D01*
X1362487Y76861D01*
Y76864D01*
X1362475Y76899D01*
X1362463Y76937D01*
X1362446Y77015D01*
X1362434Y77097D01*
X1362426Y77175D01*
X1362423Y77210D01*
X1362420Y77245D01*
Y77274D01*
X1362417Y77300D01*
Y77321D01*
Y77335D01*
Y77347D01*
Y77350D01*
Y78514D01*
X1362685D01*
Y77350D01*
Y77283D01*
X1362691Y77219D01*
X1362696Y77163D01*
X1362705Y77111D01*
X1362714Y77065D01*
X1362725Y77021D01*
X1362734Y76983D01*
X1362746Y76951D01*
X1362757Y76925D01*
X1362769Y76899D01*
X1362781Y76881D01*
X1362789Y76864D01*
X1362798Y76852D01*
X1362804Y76843D01*
X1362807Y76841D01*
X1362810Y76838D01*
X1362836Y76814D01*
X1362865Y76794D01*
X1362929Y76762D01*
X1362996Y76739D01*
X1363066Y76724D01*
X1363130Y76712D01*
X1363156Y76710D01*
X1363182D01*
X1363200Y76707D01*
X1363229D01*
X1363290Y76710D01*
X1363345Y76718D01*
X1363398Y76727D01*
X1363438Y76741D01*
X1363473Y76753D01*
X1363500Y76762D01*
X1363514Y76771D01*
X1363520Y76774D01*
X1363561Y76800D01*
X1363595Y76832D01*
X1363625Y76864D01*
X1363645Y76893D01*
X1363662Y76922D01*
X1363677Y76942D01*
X1363683Y76957D01*
X1363686Y76963D01*
X1363694Y76989D01*
X1363700Y77015D01*
X1363712Y77076D01*
X1363721Y77140D01*
X1363727Y77204D01*
X1363729Y77259D01*
Y77286D01*
X1363732Y77306D01*
Y77324D01*
Y77338D01*
Y77347D01*
Y77350D01*
Y78514D01*
X1364000D01*
Y77350D01*
D02*
G37*
M02*
