M48
;Layer_Color=9474304
;FILE_FORMAT=2:5
INCH,TZ
;TYPE=PLATED
T9F00S00C0.07480
%
G90
G05
T09
G00X337500Y371532
M15
G01Y375468
M16
G00X378028Y375468
M15
G01Y371532
M16
G00X415402Y371532
M15
G01Y375468
M16
G00X455929Y375468
M15
G01Y371532
M16
G00X493402Y372031
M15
G01Y375969
M16
G00X533929Y375969
M15
G01Y372031
M16
G00X571402Y371532
M15
G01Y375468
M16
G00X611929Y375468
M15
G01Y371532
M16
G00X649500Y371532
M15
G01Y375468
M16
G00X690028Y375468
M15
G01Y371532
M16
G00X726902Y371532
M15
G01Y375468
M16
G00X767429Y375468
M15
G01Y371532
M16
G00X804500Y371532
M15
G01Y375468
M16
G00X845028Y375468
M15
G01Y371532
M16
G00X882902Y371961
M15
G01Y375898
M16
G00X923429Y375898
M15
G01Y371961
M16
G00X999500Y417606
M15
G01Y421543
M16
G00X1040028Y421543
M15
G01Y417606
M16
G00X1078240Y417606
M15
G01Y421543
M16
G00X1078240Y319181
M15
G01Y323118
M16
G00X1040028Y323118
M15
G01Y319181
M16
G00X999500Y319181
M15
G01Y323118
M16
G00X1118768Y323118
M15
G01Y319181
M16
G00X1118768Y421543
M15
G01Y417606
M16
G00X1118768Y519969
M15
G01Y516032
M16
G00X1118768Y618394
M15
G01Y614457
M16
G00X1078240Y614457
M15
G01Y618394
M16
G00X1040028Y618394
M15
G01Y614457
M16
G00X999500Y614457
M15
G01Y618394
M16
G00X999500Y516032
M15
G01Y519969
M16
G00X1040028Y519969
M15
G01Y516032
M16
G00X1078240Y516032
M15
G01Y519969
M16
G00X923429Y533378
M15
G01Y529441
M16
G00X882902Y529441
M15
G01Y533378
M16
G00X845028Y532949
M15
G01Y529012
M16
G00X804500Y529012
M15
G01Y532949
M16
G00X767429Y532949
M15
G01Y529012
M16
G00X726902Y529012
M15
G01Y532949
M16
G00X690028Y532949
M15
G01Y529012
M16
G00X649500Y529012
M15
G01Y532949
M16
G00X611929Y532949
M15
G01Y529012
M16
G00X571402Y529012
M15
G01Y532949
M16
G00X533929Y533449
M15
G01Y529512
M16
G00X493402Y529512
M15
G01Y533449
M16
G00X455929Y532949
M15
G01Y529012
M16
G00X415402Y529012
M15
G01Y532949
M16
G00X378028Y532949
M15
G01Y529012
M16
G00X337500Y529012
M15
G01Y532949
M16
G00X337500Y686492
M15
G01Y690429
M16
G00X378028Y690429
M15
G01Y686492
M16
G00X415402Y686492
M15
G01Y690429
M16
G00X455929Y690429
M15
G01Y686492
M16
G00X493402Y686992
M15
G01Y690929
M16
G00X533929Y690929
M15
G01Y686992
M16
G00X571402Y686492
M15
G01Y690429
M16
G00X611929Y690429
M15
G01Y686492
M16
G00X649500Y686492
M15
G01Y690429
M16
G00X690028Y690429
M15
G01Y686492
M16
G00X726902Y686492
M15
G01Y690429
M16
G00X767429Y690429
M15
G01Y686492
M16
G00X804500Y686492
M15
G01Y690429
M16
G00X845028Y690429
M15
G01Y686492
M16
G00X882902Y686921
M15
G01Y690858
M16
G00X923429Y690858
M15
G01Y686921
M16
M30
