M48
;Layer_Color=9474304
;FILE_FORMAT=2:5
INCH,TZ
;TYPE=PLATED
T1F00S00C0.00787
T2F00S00C0.01181
T3F00S00C0.01575
T4F00S00C0.03150
T5F00S00C0.03543
T7F00S00C0.04016
T8F00S00C0.05000
T10F00S00C0.12402
%
T01
X976169Y66500
Y70831
Y75161
X980500
X984831
Y70831
Y66500
X980500
X981500Y183669
X977169
Y188000
Y192331
X981500
X985831
Y188000
Y183669
T02
X1355575Y105929
X1361480
X1358527Y108881
Y102976
T03
X354331Y78740
X360724Y93020
X393701Y78740
X433071
X438724Y93000
X453750Y130250
X458000Y135500
X453000Y141500
X472441Y78740
X516724Y92500
X551181Y78740
X590551
X594724Y92500
X610500Y76000
X610000Y71000
Y66000
X628474Y67500
X626061Y71513
X628000Y76000
X669291Y78740
X685000Y78000
X687500Y73500
X685000Y69500
Y64500
X685500Y59500
Y54500
X699000Y55000
X702500Y59000
X706500Y63500
X714000Y69500
X717500Y73000
X721000Y77500
X748032Y78740
X750724Y93000
X672724Y92500
X696500Y129500
X700000Y135500
X703000Y142000
X707000Y147500
X806500Y135500
X812838Y135751
X814000Y154500
X828500Y150500
X834000Y147000
X840500Y143000
X843500Y155000
X852000
X827724Y93000
X826772Y78740
X866142
X905512
X906724Y93000
X925197Y118110
X923172Y130500
X920500Y134500
X923000Y138500
X936000Y130500
X787402Y78740
X944882
X997979Y82616
X1009000Y81000
X1005500Y92500
X1017877Y96604
X1023622Y78740
X1018000Y70831
X1023000Y56000
X1002000Y64000
X988390Y103110
X985000Y108000
X982000Y112000
X979500Y116250
X977000Y120500
X974500Y125000
X972500Y129500
X969500Y134000
X938500Y134500
X941500Y138500
X946500Y145500
X949844Y149583
X954000Y153500
X1007500Y148000
X1083979Y138116
X1073979Y91616
X1074000Y85000
X1101500Y76000
X1113500Y81000
X1118000Y86500
X1122000Y91500
X1125000Y73000
X1136000Y69500
X1139000Y103000
X1127500Y116500
X1108501Y126665
X1108879Y137939
X1102000Y141500
X1113000Y147000
X1117247Y152383
X1134541Y145021
X1153000Y122500
X1194500Y117500
X1206841Y101476
X1215773Y87428
X1220473Y78740
X1196500Y78500
X1190500Y75000
X1185000Y71500
X1179500Y67500
X1174500Y62500
X1166500Y57500
X1259843Y78740
X1289479Y57116
X1311683Y58799
X1335500Y67208
X1346224Y72500
X1346646Y52070
X1372237
X1368224Y72996
X1365500Y86500
X1360500Y85500
X1355500Y89208
X1344000Y102208
X1345500Y110708
X1346500Y116208
X1340500Y128708
X1344500Y139000
X1359000Y138500
X1319500Y129000
X1310500Y132500
X1290500Y129500
X1290948Y138535
X1280000Y138500
Y130000
X1279528Y118110
X1330500Y99208
X1330000Y82570
X1378500Y99208
X1393000Y122208
X1379000Y171000
X1360000Y160000
X1349284Y160167
X1328000Y160500
X1320500Y167000
X1324039Y171211
X1334500Y171000
X1327405Y179206
X1311000Y173000
X1307500Y163000
X1301500Y167000
X1297500Y161000
X1287449Y185949
X1291000Y192000
X1290500Y197500
Y203000
X1268000Y217000
X1263000Y212500
X1266979Y245616
X1261979Y249616
X1265413Y255635
X1330500Y279000
X1335000Y284000
X1346250Y285750
X1348500Y281000
X1351000Y277000
X1354000Y273500
X1357500Y269000
X1338583Y236221
X1339500Y213331
X1346500Y213500
Y205500
X1327500Y204500
X1397638Y196850
X1377953Y236221
X1251000Y164500
X1240390Y163910
X1238000Y220500
X1220473Y236221
X1181102
X1182479Y211116
X1177000Y209000
X1170000Y214000
X1165500Y220000
X1154500
Y215000
Y210000
X1161417Y196850
X1189000Y215500
X1196500Y184000
X1127000Y181000
X1106979Y189116
X1109479Y219116
X1135500Y245500
X1161417Y275591
X1157000Y305000
X1200787Y275591
X1240158
X1245686Y255366
X1236000Y304500
X1122250Y157250
X1093500Y177000
X1082677Y196850
X1023000Y204500
X997979Y207171
X998000Y214000
X992500Y229000
Y235500
Y241500
X993000Y248000
X992500Y254500
X992000Y261000
Y267500
Y274000
Y280500
Y287500
Y292500
Y300000
X991761Y306239
X939000Y308500
X939643Y217000
X944882Y157480
X959500Y169000
X995000Y159500
X1006424Y159141
X1007000Y165000
X1012000Y183500
X1004500Y187500
X1038000Y257500
X915713Y269929
X921000Y293500
X919000Y311000
X906224Y250500
X936572Y210428
X933500Y204000
X925197Y196850
X925000Y159000
X932500Y158500
X906724Y171500
X828224Y170500
X809563Y200042
X827724Y250500
X836811Y270000
X805000Y303000
X750224Y250500
X725000Y215000
X722250Y198750
X750724Y171000
X767000Y157000
X778000Y156500
X695000Y158000
X669000Y160000
X671000Y183000
X633000Y192500
X628485Y196015
X672724Y250500
X688976Y275591
X649606
X648000Y282000
X610236Y275591
X570866
X553000Y291500
X572500Y241500
X573500Y235000
X594224Y250500
X516724Y251000
X492126Y275591
X516724Y171500
X534500Y160000
X546000
X594724Y171000
X614500Y159500
X621000
X624250Y200250
X438724Y171000
X362362Y172000
X373000Y207500
X382000Y213000
X381500Y201500
X360862Y250500
X413386Y275591
X438224Y251000
X594207Y313739
X702500Y337514
X762000Y448500
X771000Y453500
X768500Y467500
X789500
X784000Y454000
X783729Y448000
X784000Y441500
X783750Y433750
X783500Y426000
Y419000
X784000Y410500
Y402500
X825000Y462000
X852500Y323500
X992000Y333000
Y340000
Y346500
X992500Y355000
X992000Y360500
Y367000
X991500Y373000
Y379250
Y385000
X992000Y391500
Y397000
X939000Y402500
Y411000
Y419500
X938500Y426500
X938750Y433750
X938500Y441500
Y448000
Y454000
X938000Y459500
Y464500
X1161417Y433071
X1156500Y421500
Y382500
X1141732Y393701
X1161417Y354331
X1157000Y344000
X1141732Y314961
X1220473
X1236000Y344000
X1240158Y354331
X1236000Y384000
X1220473Y393701
X1236000Y422000
X1240158Y433071
X1318898
X1358268
X1397638
X1384000Y386500
X1397638Y354331
X1377953Y314961
X1299213
X1338500Y373500
X1410500Y428000
X1412500Y621500
X1397638Y590551
X1358268
X1318898
X1300944Y611459
X1259000Y614276
X1258500Y574500
X1259000Y535000
Y496000
X1279528Y511811
X1318898
X1299213Y551181
X1377953
X1389000Y548000
X1397638Y511811
X1377953Y472441
X1299213
X1220473
X1181102
X1180000Y496000
X1161417Y511811
X1200787
X1240158
X1220473Y551181
X1180500Y535000
Y574500
X1200787Y590551
X1240158
X1180500Y613000
X938500Y470000
X919500Y477500
X892750Y476750
X883000Y477000
X820170Y476500
X805000
X809979Y470116
X789366Y475678
X769500Y476000
X703000Y499500
Y513500
X702648Y525281
X702500Y534500
Y543500
X703500Y567000
X711500
X749500
X638500
Y548000
Y541500
Y520500
Y512500
X618000Y472500
X577000Y475000
X556149Y473105
X498902Y478402
X607000Y563000
X612000Y567500
X607500Y574000
X443958Y573308
X420902Y477902
X396500Y635500
X393701Y708661
X433071
X452756Y748032
X413386
X374016
X361500Y723000
X354331Y708661
X472441
X511811
X551181
X590551
X610236Y748032
X570866
X531496
X492126
X576500Y637500
X620000Y635000
X655000Y637500
X703000Y628500
X714000Y633000
X730000Y629000
X746853Y632693
X754000Y627500
X767000
X766045Y632089
X748032Y708661
X767717Y748032
X728346
X688976
X649606
X639077Y753412
X668852Y769648
X669291Y708661
X787402
X826772
X815500Y733000
X807087Y748032
X846457
X885827
X925197
X905512Y708661
X866142
X791250Y627750
X964567Y669291
X1003937
X1043307
X1062946Y654676
X1023622Y708661
X1027500Y726000
X1020500Y727138
X1015500Y727000
Y737500
X1014979Y743616
X1015000Y754000
X1002500Y746500
X989500Y744000
X984500Y737500
X984252Y708661
X1002500Y725500
X1040000Y740327
X964567Y748032
X1121719Y746435
X1134955Y744864
X1135476Y738748
X1136000Y723638
X1141000Y723500
X1141732Y708661
X1121000Y722500
X1102362Y708661
X1122047Y669291
X1147038Y673798
X1161417Y669291
X1194000Y673000
X1240158Y669291
X1220473Y708661
X1222293Y730631
X1239000Y729138
X1244500
X1238500Y738823
X1237979Y744939
X1234000Y753000
X1236000Y757418
X1228673Y760219
X1248500Y755000
X1241000Y778000
X1160476Y742075
X1132000Y756000
X1141732Y629921
X1299000Y625000
X1309000Y633500
X1305000Y639000
X1315500Y648500
X1318898Y669291
X1283500Y668000
X1352101Y662356
X1354500Y648500
X1341500
X1336500Y639000
X1322205Y630096
X1363500Y643000
X1368000Y648500
X1381000
X1394500
X1394000Y668000
X1338583Y708661
X1343500Y726500
X1349000
X1355000Y728500
X1343500Y738673
X1342979Y744789
X1346500Y761000
X1355000Y752500
X1367500Y741500
X1326542Y733540
X1318898Y748032
X1307500Y749500
X1310500Y753500
X1262500Y742500
X1250500Y725000
X1407000Y648500
X1415500Y626500
X1404500Y816500
X1355000Y798500
X1338583Y787402
X1346500Y826000
X1228673Y825673
X1241701Y796548
X1220473Y787402
X1141732
X1102362
X1078500Y823500
X1069500Y818850
X1058500Y823500
X1043307Y826772
X1029387Y815663
X1023622Y787402
X984252
X944882
X964567Y826772
X1003937
X925197
X885827
X846457
X807087
X826772Y787402
X866142
X905512
X787402
X748032
X715500Y811362
X705500Y811500
X728346Y826772
X767717
X651000Y829500
X647000Y837500
X669000Y797000
X629921Y787402
X590551
X551181
X511811
X472441
X492126Y826772
X531496
X570866
X610236
X452756
X413386
X374016
X393701Y787402
X433071
X354331
T04
X1322500Y323500
Y333500
Y343500
Y353500
Y363500
Y373500
Y383500
Y393500
X1352500
Y383500
Y373500
Y363500
Y353500
Y343500
Y333500
Y323500
X1394000Y584000
X1404000
Y614000
X1394000
T05
X406500Y58000
X415000
X423500
X1345500Y182000
Y190000
Y198500
T07
X1234000Y58000
X1244000
Y68000
X1234000
X1254000
Y58000
X1264000
X1274000
Y68000
X1264000
X1412500Y200500
Y210500
Y220500
Y230500
Y240500
Y254500
Y264500
Y274500
Y284500
Y294500
X1402500
Y284500
Y274500
Y264500
Y254500
Y240500
Y230500
Y220500
Y210500
Y200500
X1113268Y281650
X1098504
X1083740
X1034528
X1019764
X1005000
X450429Y334000
X435665
X420902
X372528Y334000
X357764
X343000
X498902Y334500
X513665
X528429
X576902Y334000
X591665
X606429
X655000Y334000
X669764
X684528
X732402
X747165
X761929
X810000
X824764
X839528
X888402Y334429
X903165
X917929
X1005000Y380075
X1019764
X1034528
X1083740
X1098504
X1113268
X1401500Y379000
Y389000
Y399000
Y409000
Y419000
X1411500
Y409000
Y399000
Y389000
Y379000
X1407000Y506000
Y516000
Y535000
Y545000
X1113268Y576925
X1098504
Y478500
X1113268
X1083740
X1034528
X1019764
X1005000
Y576925
X1019764
X1034528
X1083740
X917929Y491910
X903165
X888402
X839528Y491480
X824764
X810000
X761929
X747165
X732402
X684528
X669764
X655000
X606429Y491480
X591665
X576902
X528429Y491980
X513665
X498902
X450429Y491480
X435665
X420902
X372528Y491480
X357764
X343000
Y648961
X357764
X372528
X420902Y648961
X435665
X450429
X498902Y649461
X513665
X528429
X576902Y648961
X591665
X606429
X655000Y648961
X669764
X684528
X732402
X747165
X761929
X810000
X824764
X839528
X888402Y649390
X903165
X917929
T08
X1405500Y565500
X1012000Y816827
X1012500Y831327
Y845827
T10
X335185Y61685
X1398815
Y843315
X335185
M30
