G04*
G04 #@! TF.GenerationSoftware,Altium Limited,Altium Designer,20.1.12 (249)*
G04*
G04 Layer_Color=8388736*
%FSLAX25Y25*%
%MOIN*%
G70*
G04*
G04 #@! TF.SameCoordinates,4A7F9F3E-6CFA-4FBA-8C7F-EFD49E1ADEB1*
G04*
G04*
G04 #@! TF.FilePolarity,Negative*
G04*
G01*
G75*
%ADD20R,0.02375X0.06115*%
%ADD21R,0.05524X0.05918*%
%ADD22R,0.09265X0.08280*%
%ADD23R,0.01587X0.03950*%
%ADD24R,0.03950X0.01587*%
%ADD25R,0.15958X0.12020*%
%ADD26O,0.03753X0.01981*%
%ADD27O,0.01981X0.03753*%
%ADD28R,0.09068X0.09068*%
G04:AMPARAMS|DCode=29|XSize=33.59mil|YSize=72.96mil|CornerRadius=5.92mil|HoleSize=0mil|Usage=FLASHONLY|Rotation=90.000|XOffset=0mil|YOffset=0mil|HoleType=Round|Shape=RoundedRectangle|*
%AMROUNDEDRECTD29*
21,1,0.03359,0.06112,0,0,90.0*
21,1,0.02175,0.07296,0,0,90.0*
1,1,0.01184,0.03056,0.01088*
1,1,0.01184,0.03056,-0.01088*
1,1,0.01184,-0.03056,-0.01088*
1,1,0.01184,-0.03056,0.01088*
%
%ADD29ROUNDEDRECTD29*%
%ADD30O,0.02965X0.08280*%
%ADD31O,0.08280X0.02965*%
%ADD32R,0.06890X0.09843*%
%ADD33C,0.01595*%
%ADD34R,0.08674X0.07887*%
%ADD35R,0.03162X0.03753*%
%ADD36R,0.03753X0.03162*%
%ADD37R,0.06509X0.05918*%
%ADD38R,0.06115X0.05131*%
%ADD39R,0.03950X0.03950*%
%ADD40R,0.03950X0.03950*%
%ADD41R,0.01575X0.10630*%
%ADD42R,0.08280X0.04934*%
%ADD43R,0.02375X0.02375*%
%ADD44R,0.03162X0.03950*%
%ADD45R,0.06706X0.03950*%
%ADD46R,0.03950X0.03162*%
%ADD47R,0.03950X0.06706*%
%ADD48R,0.13202X0.13202*%
%ADD49O,0.04343X0.01784*%
%ADD50O,0.04934X0.01784*%
%ADD51O,0.01784X0.04934*%
%ADD52R,0.05918X0.05918*%
%ADD53C,0.05918*%
%ADD54R,0.05918X0.05918*%
%ADD55C,0.07493*%
%ADD56R,0.12611X0.16548*%
%ADD57C,0.06706*%
%ADD58R,0.06706X0.06706*%
%ADD59R,0.06706X0.06706*%
%ADD60C,0.05524*%
%ADD61C,0.11000*%
%ADD62O,0.06706X0.09855*%
%ADD63O,0.06706X0.13792*%
%ADD64C,0.03162*%
%ADD65C,0.24422*%
%ADD66C,0.02769*%
G36*
X1366980Y539146D02*
X1367157Y539146D01*
X1367482Y539011D01*
X1367731Y538762D01*
X1367866Y538436D01*
X1367866Y538260D01*
X1367866D01*
X1367866Y538084D01*
X1367731Y537758D01*
X1367482Y537509D01*
X1367157Y537374D01*
X1366980Y537374D01*
X1363500D01*
Y539146D01*
X1366980Y539146D01*
D02*
G37*
G36*
Y542886D02*
X1367157Y542886D01*
X1367482Y542751D01*
X1367731Y542502D01*
X1367866Y542176D01*
X1367866Y542000D01*
X1367866D01*
X1367866Y541824D01*
X1367731Y541498D01*
X1367482Y541249D01*
X1367157Y541114D01*
X1366980Y541114D01*
X1366980Y541114D01*
X1363500D01*
Y542886D01*
X1366980Y542886D01*
D02*
G37*
G36*
Y546626D02*
X1367157D01*
X1367482Y546491D01*
X1367731Y546242D01*
X1367866Y545916D01*
Y545740D01*
X1367866Y545564D01*
X1367731Y545238D01*
X1367482Y544989D01*
X1367157Y544854D01*
X1366980Y544854D01*
X1366980Y544854D01*
X1363500D01*
Y546626D01*
X1366980Y546626D01*
D02*
G37*
G36*
X1380000Y537374D02*
X1377020Y537374D01*
X1376843D01*
X1376518Y537509D01*
X1376269Y537758D01*
X1376134Y538084D01*
Y538260D01*
X1376134Y538436D01*
X1376269Y538762D01*
X1376518Y539011D01*
X1376843Y539146D01*
X1377020Y539146D01*
X1377020Y539146D01*
X1380000D01*
Y537374D01*
D02*
G37*
G36*
Y541114D02*
X1377020D01*
X1376843Y541114D01*
X1376518Y541249D01*
X1376269Y541498D01*
X1376134Y541824D01*
X1376134Y542000D01*
X1376134Y542176D01*
X1376269Y542502D01*
X1376518Y542751D01*
X1376843Y542886D01*
X1377020Y542886D01*
X1377020Y542886D01*
X1380000D01*
Y541114D01*
D02*
G37*
G36*
Y544854D02*
X1377020D01*
X1376843Y544854D01*
X1376518Y544989D01*
X1376269Y545238D01*
X1376134Y545564D01*
X1376134Y545740D01*
Y545740D01*
Y545916D01*
X1376269Y546242D01*
X1376518Y546491D01*
X1376843Y546626D01*
X1377020Y546626D01*
X1377020Y546626D01*
X1380000D01*
Y544854D01*
D02*
G37*
D20*
X1364559Y62208D02*
D03*
X1362000D02*
D03*
X1359441D02*
D03*
X1356882D02*
D03*
X1354323D02*
D03*
D21*
X1369284Y63882D02*
D03*
X1349599D02*
D03*
D22*
X1372237Y52070D02*
D03*
X1346646D02*
D03*
D23*
X1030551Y730682D02*
D03*
X1032126D02*
D03*
X1033700D02*
D03*
X1035275D02*
D03*
X1036850D02*
D03*
X1038425D02*
D03*
X1040000D02*
D03*
X1041574D02*
D03*
X1043149D02*
D03*
X1044724D02*
D03*
X1046299D02*
D03*
X1047874D02*
D03*
X1049448D02*
D03*
Y749973D02*
D03*
X1047874D02*
D03*
X1046299D02*
D03*
X1044724D02*
D03*
X1043149D02*
D03*
X1041574D02*
D03*
X1040000D02*
D03*
X1038425D02*
D03*
X1036850D02*
D03*
X1035275D02*
D03*
X1033700D02*
D03*
X1032126D02*
D03*
X1030551D02*
D03*
X1150527Y731929D02*
D03*
X1152102D02*
D03*
X1153677D02*
D03*
X1155252D02*
D03*
X1156826D02*
D03*
X1158401D02*
D03*
X1159976D02*
D03*
X1161551D02*
D03*
X1163126D02*
D03*
X1164701D02*
D03*
X1166275D02*
D03*
X1167850D02*
D03*
X1169425D02*
D03*
Y751221D02*
D03*
X1167850D02*
D03*
X1166275D02*
D03*
X1164701D02*
D03*
X1163126D02*
D03*
X1161551D02*
D03*
X1159976D02*
D03*
X1158401D02*
D03*
X1156826D02*
D03*
X1155252D02*
D03*
X1153677D02*
D03*
X1152102D02*
D03*
X1150527D02*
D03*
X1253551Y732004D02*
D03*
X1255126D02*
D03*
X1256701D02*
D03*
X1258275D02*
D03*
X1259850D02*
D03*
X1261425D02*
D03*
X1263000D02*
D03*
X1264575D02*
D03*
X1266149D02*
D03*
X1267724D02*
D03*
X1269299D02*
D03*
X1270874D02*
D03*
X1272449D02*
D03*
Y751296D02*
D03*
X1270874D02*
D03*
X1269299D02*
D03*
X1267724D02*
D03*
X1266149D02*
D03*
X1264575D02*
D03*
X1263000D02*
D03*
X1261425D02*
D03*
X1259850D02*
D03*
X1258275D02*
D03*
X1256701D02*
D03*
X1255126D02*
D03*
X1253551D02*
D03*
X1358551Y731855D02*
D03*
X1360126D02*
D03*
X1361701D02*
D03*
X1363275D02*
D03*
X1364850D02*
D03*
X1366425D02*
D03*
X1368000D02*
D03*
X1369575D02*
D03*
X1371149D02*
D03*
X1372724D02*
D03*
X1374299D02*
D03*
X1375874D02*
D03*
X1377448D02*
D03*
Y751146D02*
D03*
X1375874D02*
D03*
X1374299D02*
D03*
X1372724D02*
D03*
X1371149D02*
D03*
X1369575D02*
D03*
X1368000D02*
D03*
X1366425D02*
D03*
X1364850D02*
D03*
X1363275D02*
D03*
X1361701D02*
D03*
X1360126D02*
D03*
X1358551D02*
D03*
D24*
X1051614Y733241D02*
D03*
Y734815D02*
D03*
Y736390D02*
D03*
Y737965D02*
D03*
Y739540D02*
D03*
Y741115D02*
D03*
Y742689D02*
D03*
Y744264D02*
D03*
Y745839D02*
D03*
Y747414D02*
D03*
X1028386D02*
D03*
Y745839D02*
D03*
Y744264D02*
D03*
Y742689D02*
D03*
Y741115D02*
D03*
Y739540D02*
D03*
Y737965D02*
D03*
Y736390D02*
D03*
Y734815D02*
D03*
Y733241D02*
D03*
X1171590Y734488D02*
D03*
Y736063D02*
D03*
Y737638D02*
D03*
Y739213D02*
D03*
Y740788D02*
D03*
Y742362D02*
D03*
Y743937D02*
D03*
Y745512D02*
D03*
Y747087D02*
D03*
Y748662D02*
D03*
X1148362D02*
D03*
Y747087D02*
D03*
Y745512D02*
D03*
Y743937D02*
D03*
Y742362D02*
D03*
Y740788D02*
D03*
Y739213D02*
D03*
Y737638D02*
D03*
Y736063D02*
D03*
Y734488D02*
D03*
X1274614Y734563D02*
D03*
Y736138D02*
D03*
Y737713D02*
D03*
Y739288D02*
D03*
Y740863D02*
D03*
Y742437D02*
D03*
Y744012D02*
D03*
Y745587D02*
D03*
Y747162D02*
D03*
Y748736D02*
D03*
X1251385D02*
D03*
Y747162D02*
D03*
Y745587D02*
D03*
Y744012D02*
D03*
Y742437D02*
D03*
Y740863D02*
D03*
Y739288D02*
D03*
Y737713D02*
D03*
Y736138D02*
D03*
Y734563D02*
D03*
X1379614Y734414D02*
D03*
Y735989D02*
D03*
Y737563D02*
D03*
Y739138D02*
D03*
Y740713D02*
D03*
Y742288D02*
D03*
Y743862D02*
D03*
Y745437D02*
D03*
Y747012D02*
D03*
Y748587D02*
D03*
X1356386D02*
D03*
Y747012D02*
D03*
Y745437D02*
D03*
Y743862D02*
D03*
Y742288D02*
D03*
Y740713D02*
D03*
Y739138D02*
D03*
Y737563D02*
D03*
Y735989D02*
D03*
Y734414D02*
D03*
D25*
X1040000Y740327D02*
D03*
X1159976Y741575D02*
D03*
X1263000Y741650D02*
D03*
X1368000Y741500D02*
D03*
D26*
X1350555Y109767D02*
D03*
Y107208D02*
D03*
Y104649D02*
D03*
Y102090D02*
D03*
X1366500D02*
D03*
Y104649D02*
D03*
Y107208D02*
D03*
Y109767D02*
D03*
D27*
X1354689Y97956D02*
D03*
X1357248D02*
D03*
X1359807D02*
D03*
X1362366D02*
D03*
Y113901D02*
D03*
X1359807D02*
D03*
X1357248D02*
D03*
X1354689D02*
D03*
D28*
X1358528Y105929D02*
D03*
D29*
X1104744Y81500D02*
D03*
Y86500D02*
D03*
Y91500D02*
D03*
Y96500D02*
D03*
Y101500D02*
D03*
Y106500D02*
D03*
Y111500D02*
D03*
Y116500D02*
D03*
X1082500Y81500D02*
D03*
Y86500D02*
D03*
Y91500D02*
D03*
Y96500D02*
D03*
Y101500D02*
D03*
Y106500D02*
D03*
Y111500D02*
D03*
Y116500D02*
D03*
X1105122Y147000D02*
D03*
Y152000D02*
D03*
Y157000D02*
D03*
Y162000D02*
D03*
Y167000D02*
D03*
Y172000D02*
D03*
Y177000D02*
D03*
Y182000D02*
D03*
X1082878Y147000D02*
D03*
Y152000D02*
D03*
Y157000D02*
D03*
Y162000D02*
D03*
Y167000D02*
D03*
Y172000D02*
D03*
Y177000D02*
D03*
Y182000D02*
D03*
X1185622Y147000D02*
D03*
Y152000D02*
D03*
Y157000D02*
D03*
Y162000D02*
D03*
Y167000D02*
D03*
Y172000D02*
D03*
Y177000D02*
D03*
Y182000D02*
D03*
X1163378Y147000D02*
D03*
Y152000D02*
D03*
Y157000D02*
D03*
Y162000D02*
D03*
Y167000D02*
D03*
Y172000D02*
D03*
Y177000D02*
D03*
Y182000D02*
D03*
X1147622Y210000D02*
D03*
Y215000D02*
D03*
Y220000D02*
D03*
Y225000D02*
D03*
Y230000D02*
D03*
Y235000D02*
D03*
Y240000D02*
D03*
Y245000D02*
D03*
X1125378Y210000D02*
D03*
Y215000D02*
D03*
Y220000D02*
D03*
Y225000D02*
D03*
Y230000D02*
D03*
Y235000D02*
D03*
Y240000D02*
D03*
Y245000D02*
D03*
X1184744Y82500D02*
D03*
Y87500D02*
D03*
Y92500D02*
D03*
Y97500D02*
D03*
Y102500D02*
D03*
Y107500D02*
D03*
Y112500D02*
D03*
Y117500D02*
D03*
X1162500Y82500D02*
D03*
Y87500D02*
D03*
Y92500D02*
D03*
Y97500D02*
D03*
Y102500D02*
D03*
Y107500D02*
D03*
Y112500D02*
D03*
Y117500D02*
D03*
D30*
X1262252Y229787D02*
D03*
X1265402D02*
D03*
X1268551D02*
D03*
X1271701D02*
D03*
X1274850D02*
D03*
X1278000D02*
D03*
X1281150D02*
D03*
X1284299D02*
D03*
X1287449D02*
D03*
X1290598D02*
D03*
X1293748D02*
D03*
Y178213D02*
D03*
X1290598D02*
D03*
X1287449D02*
D03*
X1284299D02*
D03*
X1281150D02*
D03*
X1278000D02*
D03*
X1274850D02*
D03*
X1271701D02*
D03*
X1268551D02*
D03*
X1265402D02*
D03*
X1262252D02*
D03*
D31*
X1303787Y219748D02*
D03*
Y216598D02*
D03*
Y213449D02*
D03*
Y210299D02*
D03*
Y207150D02*
D03*
Y204000D02*
D03*
Y200850D02*
D03*
Y197701D02*
D03*
Y194551D02*
D03*
Y191402D02*
D03*
Y188252D02*
D03*
X1252213D02*
D03*
Y191402D02*
D03*
Y194551D02*
D03*
Y197701D02*
D03*
Y200850D02*
D03*
Y204000D02*
D03*
Y207150D02*
D03*
Y210299D02*
D03*
Y213449D02*
D03*
Y216598D02*
D03*
Y219748D02*
D03*
D32*
X1372000Y542000D02*
D03*
D33*
X1377203Y545740D02*
D03*
Y542000D02*
D03*
X1377118Y538260D02*
D03*
X1366798D02*
D03*
Y542000D02*
D03*
X1366882Y545740D02*
D03*
D34*
X347189Y112000D02*
D03*
X370811D02*
D03*
X736590D02*
D03*
X760213D02*
D03*
X814189D02*
D03*
X837811D02*
D03*
X892591Y112429D02*
D03*
X916213D02*
D03*
X425091Y112000D02*
D03*
X448713D02*
D03*
X503090Y112500D02*
D03*
X526713D02*
D03*
X581090Y112000D02*
D03*
X604713D02*
D03*
X659189Y112000D02*
D03*
X682811D02*
D03*
X346689Y269500D02*
D03*
X370311D02*
D03*
X736091D02*
D03*
X759713D02*
D03*
X813689D02*
D03*
X837311D02*
D03*
X892091Y269929D02*
D03*
X915713D02*
D03*
X424590Y269500D02*
D03*
X448213D02*
D03*
X502591Y270000D02*
D03*
X526213D02*
D03*
X580590Y269500D02*
D03*
X604213D02*
D03*
X658689Y269500D02*
D03*
X682311D02*
D03*
X347189Y190000D02*
D03*
X370811D02*
D03*
X736590D02*
D03*
X760213D02*
D03*
X814189D02*
D03*
X837811D02*
D03*
X892591Y190429D02*
D03*
X916213D02*
D03*
X425091Y190000D02*
D03*
X448713D02*
D03*
X503090Y190500D02*
D03*
X526713D02*
D03*
X581090Y190000D02*
D03*
X604713D02*
D03*
X659189Y190000D02*
D03*
X682811D02*
D03*
X1387689Y175000D02*
D03*
X1411311D02*
D03*
X1255740Y309890D02*
D03*
X1279362D02*
D03*
X1255740Y388630D02*
D03*
X1279362D02*
D03*
X1177000Y309890D02*
D03*
X1200622D02*
D03*
X1177000Y388630D02*
D03*
X1200622D02*
D03*
X1255740Y349260D02*
D03*
X1279362D02*
D03*
X1255740Y428000D02*
D03*
X1279362D02*
D03*
X1177000Y349260D02*
D03*
X1200622D02*
D03*
X1177000Y428000D02*
D03*
X1200622D02*
D03*
D35*
X1020500Y731862D02*
D03*
Y727138D02*
D03*
X1141000Y728500D02*
D03*
Y723776D02*
D03*
X1244500Y733862D02*
D03*
Y729138D02*
D03*
X1349000Y731224D02*
D03*
Y726500D02*
D03*
X1015500Y731862D02*
D03*
Y727138D02*
D03*
X1136000Y728362D02*
D03*
Y723638D02*
D03*
X1239000Y733862D02*
D03*
Y729138D02*
D03*
X1343500Y731224D02*
D03*
Y726500D02*
D03*
X1250500Y163862D02*
D03*
Y159138D02*
D03*
X1240000Y163500D02*
D03*
Y158776D02*
D03*
X705500Y811500D02*
D03*
Y806776D02*
D03*
X715500Y811362D02*
D03*
Y806638D02*
D03*
X1330000Y77846D02*
D03*
Y82570D02*
D03*
X1386500Y117346D02*
D03*
Y122071D02*
D03*
X1337000Y117846D02*
D03*
Y122571D02*
D03*
X1330000Y67846D02*
D03*
Y72571D02*
D03*
X1360500Y75708D02*
D03*
Y70984D02*
D03*
X1355500Y75708D02*
D03*
Y70984D02*
D03*
X1349000Y132571D02*
D03*
Y127846D02*
D03*
X1354000Y132571D02*
D03*
Y127846D02*
D03*
X1379000Y176362D02*
D03*
Y171638D02*
D03*
X1305500Y246362D02*
D03*
Y241638D02*
D03*
X1426000Y13862D02*
D03*
Y9138D02*
D03*
X1259000Y501000D02*
D03*
Y496276D02*
D03*
X1258500Y579500D02*
D03*
Y574776D02*
D03*
X1180000Y500862D02*
D03*
Y496138D02*
D03*
X1180500Y579500D02*
D03*
Y574776D02*
D03*
X1259000Y540000D02*
D03*
Y535276D02*
D03*
Y619000D02*
D03*
Y614276D02*
D03*
X1235815Y309500D02*
D03*
Y304776D02*
D03*
Y389000D02*
D03*
Y384276D02*
D03*
X1180500Y539862D02*
D03*
Y535138D02*
D03*
Y618862D02*
D03*
Y614138D02*
D03*
X1156815Y310000D02*
D03*
Y305276D02*
D03*
X1156500Y388224D02*
D03*
Y383500D02*
D03*
X1406500Y629862D02*
D03*
Y625138D02*
D03*
X1393429Y629862D02*
D03*
Y625138D02*
D03*
X1354214Y629862D02*
D03*
Y625138D02*
D03*
X1341143Y629862D02*
D03*
Y625138D02*
D03*
X1407000Y648362D02*
D03*
Y643638D02*
D03*
X1393929Y648362D02*
D03*
Y643638D02*
D03*
X1354714Y648362D02*
D03*
Y643638D02*
D03*
X1341643Y648362D02*
D03*
Y643638D02*
D03*
X1235815Y349000D02*
D03*
Y344276D02*
D03*
Y427500D02*
D03*
Y422776D02*
D03*
X1380357Y629862D02*
D03*
Y625138D02*
D03*
X1367286Y629862D02*
D03*
Y625138D02*
D03*
X1328071Y629862D02*
D03*
Y625138D02*
D03*
X1315000Y629862D02*
D03*
Y625138D02*
D03*
X1156815Y349500D02*
D03*
Y344776D02*
D03*
X1156500Y427362D02*
D03*
Y422638D02*
D03*
X1380857Y648362D02*
D03*
Y643638D02*
D03*
X1367786Y648362D02*
D03*
Y643638D02*
D03*
X1328571Y648362D02*
D03*
Y643638D02*
D03*
X1315500Y648362D02*
D03*
Y643638D02*
D03*
X1387500Y523138D02*
D03*
Y527862D02*
D03*
D36*
X356000Y93020D02*
D03*
X360724D02*
D03*
X746000Y93000D02*
D03*
X750724D02*
D03*
X823000D02*
D03*
X827724D02*
D03*
X902000D02*
D03*
X906724D02*
D03*
X434000D02*
D03*
X438724D02*
D03*
X512000Y92500D02*
D03*
X516724D02*
D03*
X590000D02*
D03*
X594724D02*
D03*
X668000D02*
D03*
X672724D02*
D03*
X356138Y250500D02*
D03*
X360862D02*
D03*
X745500D02*
D03*
X750224D02*
D03*
X823000D02*
D03*
X827724D02*
D03*
X901500D02*
D03*
X906224D02*
D03*
X433500Y251000D02*
D03*
X438224D02*
D03*
X512000D02*
D03*
X516724D02*
D03*
X589500Y250500D02*
D03*
X594224D02*
D03*
X668000D02*
D03*
X672724D02*
D03*
X355138Y730000D02*
D03*
X359862D02*
D03*
X749362Y733000D02*
D03*
X744638D02*
D03*
X827500D02*
D03*
X822776D02*
D03*
X905000Y734000D02*
D03*
X900276D02*
D03*
X437724Y732500D02*
D03*
X433000D02*
D03*
X515862D02*
D03*
X511138D02*
D03*
X594000D02*
D03*
X589276D02*
D03*
X672000Y733500D02*
D03*
X667276D02*
D03*
X357638Y172000D02*
D03*
X362362D02*
D03*
X746000Y171000D02*
D03*
X750724D02*
D03*
X823500Y170500D02*
D03*
X828224D02*
D03*
X902000Y171500D02*
D03*
X906724D02*
D03*
X434000Y171000D02*
D03*
X438724D02*
D03*
X512000Y171500D02*
D03*
X516724D02*
D03*
X590000Y171000D02*
D03*
X594724D02*
D03*
X668500Y170500D02*
D03*
X673224D02*
D03*
X1366725Y122208D02*
D03*
X1362000D02*
D03*
D37*
X1379000Y163677D02*
D03*
Y156000D02*
D03*
Y527000D02*
D03*
Y519323D02*
D03*
D38*
X1030000Y56445D02*
D03*
Y49555D02*
D03*
X998000Y82886D02*
D03*
Y89776D02*
D03*
X1316000Y185945D02*
D03*
Y179055D02*
D03*
X997000Y51500D02*
D03*
Y58390D02*
D03*
X1327000Y185945D02*
D03*
Y179055D02*
D03*
X1004500Y58390D02*
D03*
Y51500D02*
D03*
X1021000Y172445D02*
D03*
Y165555D02*
D03*
X998000Y207055D02*
D03*
Y213945D02*
D03*
X1139000Y80500D02*
D03*
Y87390D02*
D03*
Y96055D02*
D03*
Y102945D02*
D03*
X999500Y165055D02*
D03*
Y171945D02*
D03*
X1007000D02*
D03*
Y165055D02*
D03*
D39*
X355500Y744500D02*
D03*
X361405D02*
D03*
X744213D02*
D03*
X750118D02*
D03*
X821811D02*
D03*
X827717D02*
D03*
X900213D02*
D03*
X906118D02*
D03*
X432547D02*
D03*
X438453D02*
D03*
X510713D02*
D03*
X516618D02*
D03*
X588713D02*
D03*
X594618D02*
D03*
X666811D02*
D03*
X672717D02*
D03*
D40*
X1319500Y245453D02*
D03*
Y239547D02*
D03*
X1268240Y494390D02*
D03*
Y500295D02*
D03*
Y573130D02*
D03*
Y579035D02*
D03*
X1189500Y494390D02*
D03*
Y500295D02*
D03*
Y573130D02*
D03*
Y579035D02*
D03*
X1268240Y533760D02*
D03*
Y539665D02*
D03*
Y612500D02*
D03*
Y618405D02*
D03*
X1189500Y533760D02*
D03*
Y539665D02*
D03*
Y612547D02*
D03*
Y618453D02*
D03*
X1369500Y526000D02*
D03*
Y520094D02*
D03*
X1337500Y99756D02*
D03*
Y105661D02*
D03*
X1386500Y99756D02*
D03*
Y105661D02*
D03*
D41*
X635240Y818043D02*
D03*
X637209D02*
D03*
X639177D02*
D03*
X641146D02*
D03*
X643114D02*
D03*
X645083D02*
D03*
X647051D02*
D03*
X649020D02*
D03*
X650988D02*
D03*
X652957D02*
D03*
X654925D02*
D03*
X656894D02*
D03*
X658862D02*
D03*
X660831D02*
D03*
X662799D02*
D03*
X664768D02*
D03*
X666736D02*
D03*
X668705D02*
D03*
X670673D02*
D03*
D42*
X1381500Y75709D02*
D03*
Y89292D02*
D03*
D43*
X1065925Y819024D02*
D03*
X1069075D02*
D03*
Y822173D02*
D03*
X1065925D02*
D03*
X1185925Y820024D02*
D03*
X1189075D02*
D03*
Y823173D02*
D03*
X1185925D02*
D03*
X1288925Y820024D02*
D03*
X1292075D02*
D03*
Y823173D02*
D03*
X1288925D02*
D03*
X1393925Y820024D02*
D03*
X1397075D02*
D03*
Y823173D02*
D03*
X1393925D02*
D03*
X1066350Y804714D02*
D03*
X1069500D02*
D03*
Y807864D02*
D03*
X1066350D02*
D03*
X1186327Y805962D02*
D03*
X1189476D02*
D03*
Y809112D02*
D03*
X1186327D02*
D03*
X1289350Y806037D02*
D03*
X1292500D02*
D03*
Y809186D02*
D03*
X1289350D02*
D03*
X1394350Y805887D02*
D03*
X1397500D02*
D03*
Y809037D02*
D03*
X1394350D02*
D03*
X1066425Y791024D02*
D03*
X1069575D02*
D03*
Y794173D02*
D03*
X1066425D02*
D03*
X1186425Y792024D02*
D03*
X1189575D02*
D03*
Y795173D02*
D03*
X1186425D02*
D03*
X1289425Y792024D02*
D03*
X1292575D02*
D03*
Y795173D02*
D03*
X1289425D02*
D03*
X1394000Y791850D02*
D03*
X1397150D02*
D03*
Y795000D02*
D03*
X1394000D02*
D03*
X1066350Y776441D02*
D03*
X1069500D02*
D03*
Y779591D02*
D03*
X1066350D02*
D03*
X1186327Y777689D02*
D03*
X1189476D02*
D03*
Y780839D02*
D03*
X1186327D02*
D03*
X1289350Y777764D02*
D03*
X1292500D02*
D03*
Y780914D02*
D03*
X1289350D02*
D03*
X1394350Y777614D02*
D03*
X1397500D02*
D03*
Y780764D02*
D03*
X1394350D02*
D03*
X1066500Y762850D02*
D03*
X1069650D02*
D03*
Y766000D02*
D03*
X1066500D02*
D03*
X1185925Y763524D02*
D03*
X1189075D02*
D03*
Y766673D02*
D03*
X1185925D02*
D03*
X1289425Y763524D02*
D03*
X1292575D02*
D03*
Y766673D02*
D03*
X1289425D02*
D03*
X1394425Y763024D02*
D03*
X1397575D02*
D03*
Y766173D02*
D03*
X1394425D02*
D03*
X1066350Y748169D02*
D03*
X1069500D02*
D03*
Y751318D02*
D03*
X1066350D02*
D03*
X1186425Y749524D02*
D03*
X1189575D02*
D03*
Y752673D02*
D03*
X1186425D02*
D03*
X1289350Y749491D02*
D03*
X1292500D02*
D03*
Y752641D02*
D03*
X1289350D02*
D03*
X1394350Y749342D02*
D03*
X1397500D02*
D03*
Y752491D02*
D03*
X1394350D02*
D03*
X1066350Y734032D02*
D03*
X1069500D02*
D03*
Y737182D02*
D03*
X1066350D02*
D03*
X1186500Y735350D02*
D03*
X1189650D02*
D03*
Y738500D02*
D03*
X1186500D02*
D03*
X1289350Y735355D02*
D03*
X1292500D02*
D03*
Y738505D02*
D03*
X1289350D02*
D03*
X1394500Y735350D02*
D03*
X1397650D02*
D03*
Y738500D02*
D03*
X1394500D02*
D03*
X1066350Y719896D02*
D03*
X1069500D02*
D03*
Y723045D02*
D03*
X1066350D02*
D03*
X1186327Y721144D02*
D03*
X1189476D02*
D03*
Y724294D02*
D03*
X1186327D02*
D03*
X1289350Y721219D02*
D03*
X1292500D02*
D03*
Y724368D02*
D03*
X1289350D02*
D03*
X1394350Y721069D02*
D03*
X1397500D02*
D03*
Y724219D02*
D03*
X1394350D02*
D03*
X1066425Y706024D02*
D03*
X1069575D02*
D03*
Y709173D02*
D03*
X1066425D02*
D03*
X1186425Y707024D02*
D03*
X1189575D02*
D03*
Y710173D02*
D03*
X1186425D02*
D03*
X1289350Y707082D02*
D03*
X1292500D02*
D03*
Y710232D02*
D03*
X1289350D02*
D03*
X1393925Y707024D02*
D03*
X1397075D02*
D03*
Y710173D02*
D03*
X1393925D02*
D03*
X1066425Y692024D02*
D03*
X1069575D02*
D03*
Y695173D02*
D03*
X1066425D02*
D03*
X1186425Y693024D02*
D03*
X1189575D02*
D03*
Y696173D02*
D03*
X1186425D02*
D03*
X1289350Y692946D02*
D03*
X1292500D02*
D03*
Y696096D02*
D03*
X1289350D02*
D03*
X1393925Y693024D02*
D03*
X1397075D02*
D03*
Y696173D02*
D03*
X1393925D02*
D03*
X1066500Y677850D02*
D03*
X1069650D02*
D03*
Y681000D02*
D03*
X1066500D02*
D03*
X1186425Y678524D02*
D03*
X1189575D02*
D03*
Y681673D02*
D03*
X1186425D02*
D03*
X1289425Y678524D02*
D03*
X1292575D02*
D03*
Y681673D02*
D03*
X1289425D02*
D03*
X1393925Y678524D02*
D03*
X1397075D02*
D03*
Y681673D02*
D03*
X1393925D02*
D03*
X1066350Y663350D02*
D03*
X1069500D02*
D03*
Y666500D02*
D03*
X1066350D02*
D03*
X1186327Y664598D02*
D03*
X1189476D02*
D03*
Y667748D02*
D03*
X1186327D02*
D03*
X1289350Y664673D02*
D03*
X1292500D02*
D03*
Y667823D02*
D03*
X1289350D02*
D03*
X1394350Y664524D02*
D03*
X1397500D02*
D03*
Y667673D02*
D03*
X1394350D02*
D03*
D44*
X1007500Y753776D02*
D03*
Y758500D02*
D03*
X1123500Y756000D02*
D03*
Y760724D02*
D03*
X1232500Y762276D02*
D03*
Y767000D02*
D03*
X1326000Y765138D02*
D03*
Y769862D02*
D03*
X1022500Y753638D02*
D03*
Y758362D02*
D03*
X1141000Y754638D02*
D03*
Y759362D02*
D03*
X1246500Y761500D02*
D03*
Y766224D02*
D03*
X1342000Y764638D02*
D03*
Y769362D02*
D03*
X1250500Y152862D02*
D03*
Y148138D02*
D03*
X1240000Y152724D02*
D03*
Y148000D02*
D03*
X1373000Y98933D02*
D03*
Y94208D02*
D03*
X1380000Y105346D02*
D03*
Y110071D02*
D03*
X1374500Y105346D02*
D03*
Y110071D02*
D03*
X1369500Y176362D02*
D03*
Y171638D02*
D03*
X1226500Y309362D02*
D03*
Y304638D02*
D03*
X1227000Y388862D02*
D03*
Y384138D02*
D03*
X1148000Y309862D02*
D03*
Y305138D02*
D03*
X1147500Y388362D02*
D03*
Y383638D02*
D03*
X1227000Y349000D02*
D03*
Y344276D02*
D03*
X1226500Y427362D02*
D03*
Y422638D02*
D03*
X1147500Y349362D02*
D03*
Y344638D02*
D03*
Y427362D02*
D03*
Y422638D02*
D03*
X1354500Y546138D02*
D03*
Y550862D02*
D03*
X1360000Y546138D02*
D03*
Y550862D02*
D03*
X1382000Y548138D02*
D03*
Y552862D02*
D03*
D45*
X1015000Y762661D02*
D03*
Y754000D02*
D03*
X1132000Y764500D02*
D03*
Y755839D02*
D03*
X1239500Y770661D02*
D03*
Y762000D02*
D03*
X1334000Y773831D02*
D03*
Y765169D02*
D03*
X1008000Y743657D02*
D03*
Y734996D02*
D03*
X1127976Y744906D02*
D03*
Y736244D02*
D03*
X1231000Y744980D02*
D03*
Y736319D02*
D03*
X1336000Y744831D02*
D03*
Y736169D02*
D03*
X1023500Y62169D02*
D03*
Y70831D02*
D03*
X1012500Y62169D02*
D03*
Y70831D02*
D03*
X1116000Y107669D02*
D03*
Y116331D02*
D03*
X1127500Y107669D02*
D03*
Y116331D02*
D03*
X1126500Y172669D02*
D03*
Y181331D02*
D03*
X1116000Y172669D02*
D03*
Y181331D02*
D03*
X1339500Y213331D02*
D03*
Y204669D02*
D03*
X1328000Y213331D02*
D03*
Y204669D02*
D03*
X1317500Y213331D02*
D03*
Y204669D02*
D03*
X1239000Y190669D02*
D03*
Y199331D02*
D03*
X1207000Y175169D02*
D03*
Y183831D02*
D03*
X1196000Y175169D02*
D03*
Y183831D02*
D03*
X1170000Y236169D02*
D03*
Y244831D02*
D03*
X1159000Y236169D02*
D03*
Y244831D02*
D03*
X1014000Y179169D02*
D03*
Y187831D02*
D03*
X1004500Y179169D02*
D03*
Y187831D02*
D03*
X1205500Y109169D02*
D03*
Y117831D02*
D03*
X1194500Y108669D02*
D03*
Y117331D02*
D03*
X1389000Y556831D02*
D03*
Y548169D02*
D03*
D46*
X356000Y87020D02*
D03*
X360724D02*
D03*
X746000Y87000D02*
D03*
X750724D02*
D03*
X823000D02*
D03*
X827724D02*
D03*
X902000D02*
D03*
X906724D02*
D03*
X434000D02*
D03*
X438724D02*
D03*
X512000Y86500D02*
D03*
X516724D02*
D03*
X590000D02*
D03*
X594724D02*
D03*
X668000D02*
D03*
X672724D02*
D03*
X356276Y244500D02*
D03*
X361000D02*
D03*
X745500D02*
D03*
X750224D02*
D03*
X823000D02*
D03*
X827724D02*
D03*
X901500D02*
D03*
X906224D02*
D03*
X433500Y245000D02*
D03*
X438224D02*
D03*
X512000D02*
D03*
X516724D02*
D03*
X589500Y244500D02*
D03*
X594224D02*
D03*
X668000D02*
D03*
X672724D02*
D03*
X357776Y166000D02*
D03*
X362500D02*
D03*
X746000Y165000D02*
D03*
X750724D02*
D03*
X823500Y164500D02*
D03*
X828224D02*
D03*
X902000Y165500D02*
D03*
X906724D02*
D03*
X434000Y165000D02*
D03*
X438724D02*
D03*
X512000Y165500D02*
D03*
X516724D02*
D03*
X590000Y165000D02*
D03*
X594724D02*
D03*
X668500Y164500D02*
D03*
X673224D02*
D03*
D47*
X1269169Y165500D02*
D03*
X1277831D02*
D03*
X1269169Y156500D02*
D03*
X1277831D02*
D03*
X1269169Y147500D02*
D03*
X1277831D02*
D03*
X1280831Y243500D02*
D03*
X1272169D02*
D03*
X1280831Y261500D02*
D03*
X1272169D02*
D03*
X1280831Y252500D02*
D03*
X1272169D02*
D03*
D48*
X981500Y188000D02*
D03*
X980500Y70831D02*
D03*
D49*
X991441Y194890D02*
D03*
X991165Y181110D02*
D03*
X971559D02*
D03*
Y194890D02*
D03*
X990158Y77720D02*
D03*
Y63941D02*
D03*
X970472D02*
D03*
Y77720D02*
D03*
D50*
X990654Y192921D02*
D03*
Y190953D02*
D03*
Y188984D02*
D03*
Y187016D02*
D03*
Y185047D02*
D03*
Y183079D02*
D03*
X972346D02*
D03*
Y185047D02*
D03*
Y187016D02*
D03*
Y188984D02*
D03*
Y190953D02*
D03*
Y192921D02*
D03*
X989653Y75752D02*
D03*
Y73783D02*
D03*
Y71815D02*
D03*
Y69846D02*
D03*
Y67878D02*
D03*
Y65909D02*
D03*
X971346D02*
D03*
Y67878D02*
D03*
Y69846D02*
D03*
Y71815D02*
D03*
Y73783D02*
D03*
Y75752D02*
D03*
D51*
X988390Y178847D02*
D03*
X986421D02*
D03*
X984453D02*
D03*
X982484D02*
D03*
X980516D02*
D03*
X978547D02*
D03*
X976579D02*
D03*
X974610D02*
D03*
Y197153D02*
D03*
X976579D02*
D03*
X978547D02*
D03*
X980516D02*
D03*
X982484D02*
D03*
X984453D02*
D03*
X986421D02*
D03*
X988390D02*
D03*
X987390Y61677D02*
D03*
X985421D02*
D03*
X983453D02*
D03*
X981484D02*
D03*
X979516D02*
D03*
X977547D02*
D03*
X975579D02*
D03*
X973610D02*
D03*
Y79984D02*
D03*
X975579D02*
D03*
X977547D02*
D03*
X979516D02*
D03*
X981484D02*
D03*
X983453D02*
D03*
X985421D02*
D03*
X987390D02*
D03*
D52*
X1322500Y393500D02*
D03*
D53*
Y383500D02*
D03*
Y373500D02*
D03*
Y363500D02*
D03*
Y353500D02*
D03*
Y343500D02*
D03*
Y333500D02*
D03*
Y323500D02*
D03*
X1352500Y393500D02*
D03*
Y383500D02*
D03*
Y373500D02*
D03*
Y363500D02*
D03*
Y353500D02*
D03*
Y343500D02*
D03*
Y333500D02*
D03*
Y323500D02*
D03*
X1394000Y584000D02*
D03*
X1404000D02*
D03*
X1394000Y614000D02*
D03*
D54*
X1404000D02*
D03*
D55*
X343000Y334000D02*
D03*
X372528D02*
D03*
X357764D02*
D03*
X732402D02*
D03*
X761929D02*
D03*
X747165D02*
D03*
X810000D02*
D03*
X839528D02*
D03*
X824764D02*
D03*
X888402Y334429D02*
D03*
X917929D02*
D03*
X903165D02*
D03*
X420902Y334000D02*
D03*
X450429D02*
D03*
X435665D02*
D03*
X498902Y334500D02*
D03*
X528429D02*
D03*
X513665D02*
D03*
X576902Y334000D02*
D03*
X606429D02*
D03*
X591665D02*
D03*
X655000Y334000D02*
D03*
X684528D02*
D03*
X669764D02*
D03*
X343000Y491480D02*
D03*
X372528D02*
D03*
X357764D02*
D03*
X732402D02*
D03*
X761929D02*
D03*
X747165D02*
D03*
X810000D02*
D03*
X839528D02*
D03*
X824764D02*
D03*
X888402Y491910D02*
D03*
X917929D02*
D03*
X903165D02*
D03*
X420902Y491480D02*
D03*
X450429D02*
D03*
X435665D02*
D03*
X498902Y491980D02*
D03*
X528429D02*
D03*
X513665D02*
D03*
X576902Y491480D02*
D03*
X606429D02*
D03*
X591665D02*
D03*
X655000Y491480D02*
D03*
X684528D02*
D03*
X669764D02*
D03*
X343000Y648961D02*
D03*
X372528D02*
D03*
X357764D02*
D03*
X732402D02*
D03*
X761929D02*
D03*
X747165D02*
D03*
X810000D02*
D03*
X839528D02*
D03*
X824764D02*
D03*
X888402Y649390D02*
D03*
X917929D02*
D03*
X903165D02*
D03*
X420902Y648961D02*
D03*
X450429D02*
D03*
X435665D02*
D03*
X498902Y649461D02*
D03*
X528429D02*
D03*
X513665D02*
D03*
X576902Y648961D02*
D03*
X606429D02*
D03*
X591665D02*
D03*
X655000Y648961D02*
D03*
X684528D02*
D03*
X669764D02*
D03*
X1083740Y281650D02*
D03*
X1113268D02*
D03*
X1098504D02*
D03*
X1083740Y478500D02*
D03*
X1113268D02*
D03*
X1098504D02*
D03*
X1005000Y281650D02*
D03*
X1034528D02*
D03*
X1019764D02*
D03*
X1005000Y478500D02*
D03*
X1034528D02*
D03*
X1019764D02*
D03*
X1083740Y380075D02*
D03*
X1113268D02*
D03*
X1098504D02*
D03*
X1083740Y576925D02*
D03*
X1113268D02*
D03*
X1098504D02*
D03*
X1005000Y380075D02*
D03*
X1034528D02*
D03*
X1019764D02*
D03*
X1005000Y576925D02*
D03*
X1034528D02*
D03*
X1019764D02*
D03*
D56*
X337500Y373500D02*
D03*
X378028D02*
D03*
X726902D02*
D03*
X767429D02*
D03*
X804500D02*
D03*
X845028D02*
D03*
X882902Y373929D02*
D03*
X923429D02*
D03*
X415402Y373500D02*
D03*
X455929D02*
D03*
X493402Y374000D02*
D03*
X533929D02*
D03*
X571402Y373500D02*
D03*
X611929D02*
D03*
X649500Y373500D02*
D03*
X690028D02*
D03*
X337500Y530980D02*
D03*
X378028D02*
D03*
X726902D02*
D03*
X767429D02*
D03*
X804500D02*
D03*
X845028D02*
D03*
X882902Y531410D02*
D03*
X923429D02*
D03*
X415402Y530980D02*
D03*
X455929D02*
D03*
X493402Y531480D02*
D03*
X533929D02*
D03*
X571402Y530980D02*
D03*
X611929D02*
D03*
X649500Y530980D02*
D03*
X690028D02*
D03*
X337500Y688461D02*
D03*
X378028D02*
D03*
X726902D02*
D03*
X767429D02*
D03*
X804500D02*
D03*
X845028D02*
D03*
X882902Y688890D02*
D03*
X923429D02*
D03*
X415402Y688461D02*
D03*
X455929D02*
D03*
X493402Y688961D02*
D03*
X533929D02*
D03*
X571402Y688461D02*
D03*
X611929D02*
D03*
X649500Y688461D02*
D03*
X690028D02*
D03*
X1078240Y321150D02*
D03*
X1118768D02*
D03*
X1078240Y518000D02*
D03*
X1118768D02*
D03*
X999500Y321150D02*
D03*
X1040028D02*
D03*
X999500Y518000D02*
D03*
X1040028D02*
D03*
X1078240Y419575D02*
D03*
X1118768D02*
D03*
X1078240Y616425D02*
D03*
X1118768D02*
D03*
X999500Y419575D02*
D03*
X1040028D02*
D03*
X999500Y616425D02*
D03*
X1040028D02*
D03*
D57*
X1407000Y516000D02*
D03*
X1401500Y389000D02*
D03*
Y399000D02*
D03*
Y409000D02*
D03*
Y379000D02*
D03*
X1411500D02*
D03*
Y409000D02*
D03*
Y399000D02*
D03*
Y389000D02*
D03*
X1264000Y58000D02*
D03*
X1254000D02*
D03*
X1244000D02*
D03*
X1274000D02*
D03*
Y68000D02*
D03*
X1244000D02*
D03*
X1254000D02*
D03*
X1264000D02*
D03*
X1407000Y545000D02*
D03*
X1402500Y200500D02*
D03*
X1412500Y210500D02*
D03*
X1402500D02*
D03*
X1412500Y220500D02*
D03*
X1402500D02*
D03*
X1412500Y230500D02*
D03*
X1402500D02*
D03*
X1412500Y240500D02*
D03*
X1402500D02*
D03*
Y254500D02*
D03*
X1412500Y264500D02*
D03*
X1402500D02*
D03*
X1412500Y274500D02*
D03*
X1402500D02*
D03*
X1412500Y284500D02*
D03*
X1402500D02*
D03*
X1412500Y294500D02*
D03*
X1402500D02*
D03*
D58*
X1407000Y506000D02*
D03*
X1401500Y419000D02*
D03*
X1411500D02*
D03*
X1407000Y535000D02*
D03*
D59*
X1234000Y58000D02*
D03*
Y68000D02*
D03*
X1412500Y200500D02*
D03*
Y254500D02*
D03*
D60*
X423500Y58000D02*
D03*
X415000D02*
D03*
X406500D02*
D03*
X1345500Y198500D02*
D03*
Y190000D02*
D03*
Y182000D02*
D03*
D61*
X1012500Y845827D02*
D03*
Y831327D02*
D03*
X1012000Y816827D02*
D03*
X1405500Y565500D02*
D03*
D62*
X681500Y844500D02*
D03*
X624413D02*
D03*
D63*
X681500Y821035D02*
D03*
X624413D02*
D03*
D64*
X1361480Y105929D02*
D03*
X1355575D02*
D03*
X1358527Y108881D02*
D03*
Y102976D02*
D03*
D65*
X335185Y843315D02*
D03*
X1398815D02*
D03*
X335185Y61685D02*
D03*
X1398815D02*
D03*
D66*
X977169Y183669D02*
D03*
Y188000D02*
D03*
Y192331D02*
D03*
X981500Y183669D02*
D03*
Y192331D02*
D03*
X985831Y183669D02*
D03*
Y188000D02*
D03*
Y192331D02*
D03*
X976169Y66500D02*
D03*
Y70831D02*
D03*
Y75161D02*
D03*
X980500Y66500D02*
D03*
Y75161D02*
D03*
X984831Y66500D02*
D03*
Y70831D02*
D03*
Y75161D02*
D03*
M02*
