G04*
G04 #@! TF.GenerationSoftware,Altium Limited,Altium Designer,20.1.12 (249)*
G04*
G04 Layer_Color=32896*
%FSLAX25Y25*%
%MOIN*%
G70*
G04*
G04 #@! TF.SameCoordinates,4A7F9F3E-6CFA-4FBA-8C7F-EFD49E1ADEB1*
G04*
G04*
G04 #@! TF.FilePolarity,Positive*
G04*
G01*
G75*
%ADD15C,0.00591*%
G36*
X1352035Y89223D02*
X1352096Y89134D01*
X1352168Y89045D01*
X1352235Y88967D01*
X1352302Y88901D01*
X1352351Y88845D01*
X1352374Y88829D01*
X1352390Y88812D01*
X1352396Y88806D01*
X1352401Y88801D01*
X1352518Y88707D01*
X1352635Y88618D01*
X1352746Y88540D01*
X1352857Y88479D01*
X1352951Y88424D01*
X1352990Y88401D01*
X1353023Y88385D01*
X1353051Y88368D01*
X1353073Y88362D01*
X1353084Y88351D01*
X1353090D01*
Y87896D01*
X1353006Y87930D01*
X1352923Y87968D01*
X1352840Y88007D01*
X1352762Y88046D01*
X1352695Y88079D01*
X1352640Y88107D01*
X1352607Y88129D01*
X1352601Y88135D01*
X1352596D01*
X1352496Y88196D01*
X1352407Y88257D01*
X1352329Y88313D01*
X1352268Y88362D01*
X1352213Y88401D01*
X1352179Y88435D01*
X1352152Y88457D01*
X1352146Y88462D01*
Y85460D01*
X1351674D01*
Y89317D01*
X1351980D01*
X1352035Y89223D01*
D02*
G37*
G36*
X1349049D02*
X1349110Y89134D01*
X1349182Y89045D01*
X1349249Y88967D01*
X1349316Y88901D01*
X1349366Y88845D01*
X1349388Y88829D01*
X1349404Y88812D01*
X1349410Y88806D01*
X1349415Y88801D01*
X1349532Y88707D01*
X1349649Y88618D01*
X1349760Y88540D01*
X1349871Y88479D01*
X1349965Y88424D01*
X1350004Y88401D01*
X1350037Y88385D01*
X1350065Y88368D01*
X1350087Y88362D01*
X1350098Y88351D01*
X1350104D01*
Y87896D01*
X1350020Y87930D01*
X1349937Y87968D01*
X1349854Y88007D01*
X1349776Y88046D01*
X1349710Y88079D01*
X1349654Y88107D01*
X1349621Y88129D01*
X1349615Y88135D01*
X1349610D01*
X1349510Y88196D01*
X1349421Y88257D01*
X1349343Y88313D01*
X1349282Y88362D01*
X1349227Y88401D01*
X1349193Y88435D01*
X1349166Y88457D01*
X1349160Y88462D01*
Y85460D01*
X1348688D01*
Y89317D01*
X1348994D01*
X1349049Y89223D01*
D02*
G37*
G36*
X1357124Y87080D02*
Y86969D01*
X1357119Y86864D01*
X1357113Y86764D01*
X1357102Y86670D01*
X1357091Y86586D01*
X1357080Y86509D01*
X1357063Y86437D01*
X1357052Y86370D01*
X1357041Y86309D01*
X1357024Y86259D01*
X1357013Y86215D01*
X1357002Y86181D01*
X1356991Y86154D01*
X1356986Y86131D01*
X1356980Y86120D01*
Y86115D01*
X1356919Y85993D01*
X1356841Y85882D01*
X1356764Y85793D01*
X1356680Y85715D01*
X1356608Y85654D01*
X1356547Y85610D01*
X1356525Y85599D01*
X1356508Y85588D01*
X1356497Y85576D01*
X1356492D01*
X1356353Y85515D01*
X1356209Y85471D01*
X1356059Y85438D01*
X1355920Y85415D01*
X1355859Y85410D01*
X1355798Y85404D01*
X1355742Y85399D01*
X1355698D01*
X1355659Y85393D01*
X1355609D01*
X1355410Y85404D01*
X1355321Y85415D01*
X1355237Y85426D01*
X1355154Y85443D01*
X1355082Y85460D01*
X1355015Y85476D01*
X1354954Y85499D01*
X1354899Y85521D01*
X1354854Y85537D01*
X1354810Y85554D01*
X1354777Y85571D01*
X1354749Y85588D01*
X1354732Y85593D01*
X1354721Y85604D01*
X1354716D01*
X1354594Y85687D01*
X1354494Y85782D01*
X1354416Y85871D01*
X1354349Y85959D01*
X1354300Y86037D01*
X1354266Y86098D01*
X1354255Y86120D01*
X1354244Y86137D01*
X1354238Y86148D01*
Y86154D01*
X1354216Y86220D01*
X1354194Y86292D01*
X1354161Y86442D01*
X1354138Y86598D01*
X1354122Y86747D01*
X1354116Y86814D01*
X1354111Y86881D01*
Y86936D01*
X1354105Y86986D01*
Y87025D01*
Y87053D01*
Y87075D01*
Y87080D01*
Y89301D01*
X1354616D01*
Y87080D01*
Y86953D01*
X1354627Y86831D01*
X1354638Y86725D01*
X1354655Y86625D01*
X1354671Y86537D01*
X1354694Y86453D01*
X1354710Y86381D01*
X1354732Y86320D01*
X1354755Y86270D01*
X1354777Y86220D01*
X1354799Y86187D01*
X1354816Y86154D01*
X1354832Y86131D01*
X1354843Y86115D01*
X1354849Y86109D01*
X1354854Y86104D01*
X1354904Y86059D01*
X1354960Y86020D01*
X1355082Y85959D01*
X1355210Y85915D01*
X1355343Y85887D01*
X1355465Y85865D01*
X1355515Y85860D01*
X1355565D01*
X1355598Y85854D01*
X1355654D01*
X1355770Y85860D01*
X1355876Y85876D01*
X1355976Y85893D01*
X1356053Y85921D01*
X1356120Y85943D01*
X1356170Y85959D01*
X1356198Y85976D01*
X1356209Y85982D01*
X1356286Y86032D01*
X1356353Y86093D01*
X1356409Y86154D01*
X1356447Y86209D01*
X1356481Y86265D01*
X1356508Y86303D01*
X1356520Y86331D01*
X1356525Y86342D01*
X1356542Y86392D01*
X1356553Y86442D01*
X1356575Y86559D01*
X1356592Y86681D01*
X1356603Y86803D01*
X1356608Y86908D01*
Y86958D01*
X1356614Y86997D01*
Y87031D01*
Y87058D01*
Y87075D01*
Y87080D01*
Y89301D01*
X1357124D01*
Y87080D01*
D02*
G37*
G36*
X1395929Y229805D02*
X1394119D01*
Y227818D01*
X1395929D01*
Y227307D01*
X1392088D01*
Y227818D01*
X1393664D01*
Y229805D01*
X1392088D01*
Y230315D01*
X1395929D01*
Y229805D01*
D02*
G37*
G36*
Y223583D02*
X1395473D01*
Y225942D01*
X1394169D01*
Y223816D01*
X1393714D01*
Y225942D01*
X1392543D01*
Y223672D01*
X1392088D01*
Y226453D01*
X1395929D01*
Y223583D01*
D02*
G37*
G36*
Y222762D02*
X1394763Y222346D01*
Y220736D01*
X1395929Y220287D01*
Y219709D01*
X1392088Y221280D01*
Y221835D01*
X1395929Y223300D01*
Y222762D01*
D02*
G37*
G36*
Y217917D02*
X1395923Y217789D01*
X1395918Y217673D01*
X1395906Y217567D01*
X1395895Y217478D01*
X1395884Y217401D01*
X1395879Y217345D01*
X1395873Y217329D01*
X1395868Y217312D01*
Y217301D01*
X1395840Y217201D01*
X1395807Y217112D01*
X1395779Y217034D01*
X1395745Y216968D01*
X1395718Y216912D01*
X1395695Y216873D01*
X1395679Y216851D01*
X1395673Y216840D01*
X1395623Y216768D01*
X1395562Y216707D01*
X1395507Y216646D01*
X1395451Y216596D01*
X1395401Y216551D01*
X1395362Y216518D01*
X1395335Y216496D01*
X1395324Y216490D01*
X1395235Y216435D01*
X1395140Y216379D01*
X1395052Y216335D01*
X1394963Y216302D01*
X1394885Y216268D01*
X1394824Y216246D01*
X1394802Y216241D01*
X1394785Y216235D01*
X1394774Y216230D01*
X1394769D01*
X1394635Y216196D01*
X1394502Y216168D01*
X1394375Y216152D01*
X1394252Y216135D01*
X1394147Y216130D01*
X1394103D01*
X1394064Y216124D01*
X1394036D01*
X1394008D01*
X1393997D01*
X1393992D01*
X1393803Y216130D01*
X1393631Y216146D01*
X1393476Y216174D01*
X1393403Y216185D01*
X1393342Y216202D01*
X1393281Y216218D01*
X1393231Y216230D01*
X1393187Y216241D01*
X1393148Y216257D01*
X1393115Y216263D01*
X1393093Y216274D01*
X1393081Y216280D01*
X1393076D01*
X1392932Y216340D01*
X1392804Y216413D01*
X1392693Y216490D01*
X1392599Y216563D01*
X1392521Y216629D01*
X1392465Y216685D01*
X1392449Y216707D01*
X1392432Y216723D01*
X1392427Y216729D01*
X1392421Y216735D01*
X1392349Y216823D01*
X1392293Y216918D01*
X1392243Y217012D01*
X1392205Y217101D01*
X1392177Y217179D01*
X1392160Y217240D01*
X1392149Y217262D01*
Y217279D01*
X1392144Y217290D01*
Y217295D01*
X1392127Y217389D01*
X1392110Y217500D01*
X1392099Y217612D01*
X1392094Y217723D01*
X1392088Y217822D01*
Y219299D01*
X1395929D01*
Y217917D01*
D02*
G37*
G36*
Y212550D02*
X1395473D01*
Y214909D01*
X1394169D01*
Y212783D01*
X1393714D01*
Y214909D01*
X1392543D01*
Y212639D01*
X1392088D01*
Y215419D01*
X1395929D01*
Y212550D01*
D02*
G37*
G36*
Y211329D02*
X1394225D01*
Y210674D01*
X1394230Y210613D01*
Y210569D01*
X1394236Y210530D01*
X1394241Y210502D01*
Y210480D01*
X1394247Y210469D01*
Y210463D01*
X1394275Y210374D01*
X1394291Y210335D01*
X1394308Y210302D01*
X1394325Y210269D01*
X1394336Y210247D01*
X1394341Y210236D01*
X1394347Y210230D01*
X1394380Y210186D01*
X1394419Y210141D01*
X1394502Y210058D01*
X1394541Y210019D01*
X1394574Y209991D01*
X1394597Y209975D01*
X1394602Y209969D01*
X1394680Y209914D01*
X1394763Y209853D01*
X1394852Y209792D01*
X1394935Y209731D01*
X1395013Y209681D01*
X1395074Y209642D01*
X1395096Y209625D01*
X1395113Y209614D01*
X1395124Y209603D01*
X1395129D01*
X1395929Y209098D01*
Y208465D01*
X1394885Y209126D01*
X1394774Y209203D01*
X1394674Y209275D01*
X1394591Y209348D01*
X1394513Y209409D01*
X1394458Y209464D01*
X1394413Y209508D01*
X1394386Y209536D01*
X1394375Y209547D01*
X1394341Y209592D01*
X1394302Y209642D01*
X1394241Y209742D01*
X1394219Y209786D01*
X1394197Y209819D01*
X1394186Y209841D01*
X1394180Y209853D01*
X1394164Y209753D01*
X1394147Y209658D01*
X1394119Y209575D01*
X1394097Y209492D01*
X1394069Y209420D01*
X1394036Y209353D01*
X1394008Y209292D01*
X1393981Y209237D01*
X1393947Y209192D01*
X1393919Y209148D01*
X1393897Y209114D01*
X1393875Y209087D01*
X1393859Y209065D01*
X1393842Y209048D01*
X1393836Y209042D01*
X1393831Y209037D01*
X1393775Y208992D01*
X1393720Y208948D01*
X1393603Y208881D01*
X1393487Y208837D01*
X1393376Y208804D01*
X1393281Y208781D01*
X1393242Y208776D01*
X1393204D01*
X1393176Y208770D01*
X1393154D01*
X1393143D01*
X1393137D01*
X1393020Y208776D01*
X1392915Y208792D01*
X1392815Y208820D01*
X1392732Y208848D01*
X1392660Y208881D01*
X1392604Y208904D01*
X1392571Y208926D01*
X1392565Y208931D01*
X1392560D01*
X1392471Y208998D01*
X1392393Y209065D01*
X1392327Y209137D01*
X1392277Y209203D01*
X1392238Y209264D01*
X1392216Y209314D01*
X1392199Y209348D01*
X1392194Y209353D01*
Y209359D01*
X1392177Y209409D01*
X1392160Y209470D01*
X1392132Y209592D01*
X1392116Y209725D01*
X1392099Y209847D01*
X1392094Y209964D01*
Y210014D01*
X1392088Y210058D01*
Y211840D01*
X1395929D01*
Y211329D01*
D02*
G37*
G36*
Y205684D02*
X1395473D01*
Y207577D01*
X1395379Y207510D01*
X1395340Y207477D01*
X1395302Y207449D01*
X1395268Y207422D01*
X1395246Y207400D01*
X1395229Y207383D01*
X1395224Y207377D01*
X1395196Y207349D01*
X1395168Y207316D01*
X1395096Y207239D01*
X1395013Y207150D01*
X1394930Y207055D01*
X1394858Y206967D01*
X1394824Y206928D01*
X1394791Y206894D01*
X1394769Y206867D01*
X1394752Y206844D01*
X1394741Y206833D01*
X1394735Y206828D01*
X1394658Y206739D01*
X1394586Y206650D01*
X1394513Y206573D01*
X1394452Y206500D01*
X1394391Y206434D01*
X1394336Y206378D01*
X1394286Y206323D01*
X1394241Y206278D01*
X1394197Y206234D01*
X1394164Y206201D01*
X1394136Y206173D01*
X1394108Y206145D01*
X1394075Y206118D01*
X1394064Y206106D01*
X1393970Y206029D01*
X1393886Y205962D01*
X1393803Y205907D01*
X1393736Y205862D01*
X1393675Y205829D01*
X1393631Y205807D01*
X1393603Y205796D01*
X1393592Y205790D01*
X1393509Y205757D01*
X1393426Y205734D01*
X1393348Y205712D01*
X1393281Y205701D01*
X1393220Y205696D01*
X1393176Y205690D01*
X1393148D01*
X1393137D01*
X1393054Y205696D01*
X1392976Y205707D01*
X1392898Y205718D01*
X1392832Y205740D01*
X1392698Y205796D01*
X1392593Y205851D01*
X1392543Y205884D01*
X1392504Y205912D01*
X1392465Y205940D01*
X1392438Y205968D01*
X1392416Y205990D01*
X1392393Y206001D01*
X1392388Y206012D01*
X1392382Y206017D01*
X1392327Y206079D01*
X1392277Y206145D01*
X1392238Y206217D01*
X1392205Y206290D01*
X1392149Y206434D01*
X1392110Y206578D01*
X1392099Y206639D01*
X1392088Y206700D01*
X1392083Y206756D01*
X1392077Y206800D01*
X1392071Y206839D01*
Y206894D01*
X1392077Y206994D01*
X1392083Y207089D01*
X1392099Y207177D01*
X1392116Y207261D01*
X1392138Y207339D01*
X1392160Y207411D01*
X1392188Y207477D01*
X1392216Y207538D01*
X1392243Y207594D01*
X1392271Y207638D01*
X1392293Y207677D01*
X1392316Y207710D01*
X1392332Y207738D01*
X1392349Y207755D01*
X1392354Y207766D01*
X1392360Y207771D01*
X1392416Y207827D01*
X1392476Y207877D01*
X1392543Y207927D01*
X1392610Y207966D01*
X1392743Y208032D01*
X1392876Y208077D01*
X1392937Y208093D01*
X1392998Y208110D01*
X1393048Y208121D01*
X1393093Y208132D01*
X1393131Y208138D01*
X1393159D01*
X1393176Y208143D01*
X1393181D01*
X1393231Y207660D01*
X1393104Y207649D01*
X1392993Y207627D01*
X1392893Y207594D01*
X1392815Y207555D01*
X1392749Y207522D01*
X1392704Y207488D01*
X1392676Y207466D01*
X1392665Y207455D01*
X1392599Y207372D01*
X1392549Y207283D01*
X1392510Y207189D01*
X1392488Y207105D01*
X1392471Y207028D01*
X1392465Y206961D01*
X1392460Y206939D01*
Y206906D01*
X1392465Y206789D01*
X1392488Y206684D01*
X1392521Y206595D01*
X1392554Y206517D01*
X1392593Y206456D01*
X1392621Y206417D01*
X1392643Y206389D01*
X1392654Y206378D01*
X1392732Y206312D01*
X1392809Y206262D01*
X1392887Y206223D01*
X1392965Y206201D01*
X1393026Y206184D01*
X1393081Y206178D01*
X1393115Y206173D01*
X1393120D01*
X1393126D01*
X1393226Y206184D01*
X1393331Y206206D01*
X1393426Y206245D01*
X1393514Y206284D01*
X1393587Y206328D01*
X1393648Y206367D01*
X1393670Y206378D01*
X1393686Y206389D01*
X1393692Y206400D01*
X1393697D01*
X1393759Y206445D01*
X1393820Y206500D01*
X1393886Y206561D01*
X1393953Y206628D01*
X1394086Y206767D01*
X1394219Y206906D01*
X1394280Y206978D01*
X1394336Y207039D01*
X1394386Y207100D01*
X1394430Y207150D01*
X1394463Y207189D01*
X1394491Y207222D01*
X1394508Y207244D01*
X1394513Y207250D01*
X1394630Y207388D01*
X1394741Y207516D01*
X1394841Y207622D01*
X1394924Y207705D01*
X1394996Y207777D01*
X1395046Y207827D01*
X1395080Y207855D01*
X1395085Y207866D01*
X1395091D01*
X1395185Y207943D01*
X1395274Y208004D01*
X1395362Y208060D01*
X1395440Y208104D01*
X1395507Y208138D01*
X1395557Y208160D01*
X1395590Y208171D01*
X1395596Y208176D01*
X1395601D01*
X1395662Y208199D01*
X1395718Y208210D01*
X1395773Y208221D01*
X1395823Y208226D01*
X1395868Y208232D01*
X1395901D01*
X1395923D01*
X1395929D01*
Y205684D01*
D02*
G37*
G36*
Y283452D02*
X1394119D01*
Y281466D01*
X1395929D01*
Y280955D01*
X1392088D01*
Y281466D01*
X1393664D01*
Y283452D01*
X1392088D01*
Y283963D01*
X1395929D01*
Y283452D01*
D02*
G37*
G36*
Y277231D02*
X1395473D01*
Y279590D01*
X1394169D01*
Y277464D01*
X1393714D01*
Y279590D01*
X1392543D01*
Y277320D01*
X1392088D01*
Y280100D01*
X1395929D01*
Y277231D01*
D02*
G37*
G36*
Y276410D02*
X1394763Y275993D01*
Y274384D01*
X1395929Y273934D01*
Y273357D01*
X1392088Y274928D01*
Y275483D01*
X1395929Y276948D01*
Y276410D01*
D02*
G37*
G36*
Y271564D02*
X1395923Y271437D01*
X1395918Y271320D01*
X1395906Y271215D01*
X1395895Y271126D01*
X1395884Y271048D01*
X1395879Y270993D01*
X1395873Y270976D01*
X1395868Y270959D01*
Y270948D01*
X1395840Y270848D01*
X1395807Y270760D01*
X1395779Y270682D01*
X1395745Y270615D01*
X1395718Y270560D01*
X1395695Y270521D01*
X1395679Y270499D01*
X1395673Y270488D01*
X1395623Y270415D01*
X1395562Y270354D01*
X1395507Y270293D01*
X1395451Y270243D01*
X1395401Y270199D01*
X1395362Y270166D01*
X1395335Y270144D01*
X1395324Y270138D01*
X1395235Y270082D01*
X1395140Y270027D01*
X1395052Y269983D01*
X1394963Y269949D01*
X1394885Y269916D01*
X1394824Y269894D01*
X1394802Y269888D01*
X1394785Y269883D01*
X1394774Y269877D01*
X1394769D01*
X1394635Y269844D01*
X1394502Y269816D01*
X1394375Y269799D01*
X1394252Y269783D01*
X1394147Y269777D01*
X1394103D01*
X1394064Y269772D01*
X1394036D01*
X1394008D01*
X1393997D01*
X1393992D01*
X1393803Y269777D01*
X1393631Y269794D01*
X1393476Y269822D01*
X1393403Y269833D01*
X1393342Y269849D01*
X1393281Y269866D01*
X1393231Y269877D01*
X1393187Y269888D01*
X1393148Y269905D01*
X1393115Y269910D01*
X1393093Y269921D01*
X1393081Y269927D01*
X1393076D01*
X1392932Y269988D01*
X1392804Y270060D01*
X1392693Y270138D01*
X1392599Y270210D01*
X1392521Y270277D01*
X1392465Y270332D01*
X1392449Y270354D01*
X1392432Y270371D01*
X1392427Y270377D01*
X1392421Y270382D01*
X1392349Y270471D01*
X1392293Y270565D01*
X1392243Y270660D01*
X1392205Y270748D01*
X1392177Y270826D01*
X1392160Y270887D01*
X1392149Y270909D01*
Y270926D01*
X1392144Y270937D01*
Y270943D01*
X1392127Y271037D01*
X1392110Y271148D01*
X1392099Y271259D01*
X1392094Y271370D01*
X1392088Y271470D01*
Y272946D01*
X1395929D01*
Y271564D01*
D02*
G37*
G36*
Y266197D02*
X1395473D01*
Y268556D01*
X1394169D01*
Y266431D01*
X1393714D01*
Y268556D01*
X1392543D01*
Y266286D01*
X1392088D01*
Y269067D01*
X1395929D01*
Y266197D01*
D02*
G37*
G36*
Y264977D02*
X1394225D01*
Y264322D01*
X1394230Y264261D01*
Y264216D01*
X1394236Y264177D01*
X1394241Y264149D01*
Y264127D01*
X1394247Y264116D01*
Y264111D01*
X1394275Y264022D01*
X1394291Y263983D01*
X1394308Y263950D01*
X1394325Y263916D01*
X1394336Y263894D01*
X1394341Y263883D01*
X1394347Y263878D01*
X1394380Y263833D01*
X1394419Y263789D01*
X1394502Y263705D01*
X1394541Y263667D01*
X1394574Y263639D01*
X1394597Y263622D01*
X1394602Y263617D01*
X1394680Y263561D01*
X1394763Y263500D01*
X1394852Y263439D01*
X1394935Y263378D01*
X1395013Y263328D01*
X1395074Y263289D01*
X1395096Y263273D01*
X1395113Y263262D01*
X1395124Y263250D01*
X1395129D01*
X1395929Y262745D01*
Y262113D01*
X1394885Y262773D01*
X1394774Y262851D01*
X1394674Y262923D01*
X1394591Y262995D01*
X1394513Y263056D01*
X1394458Y263112D01*
X1394413Y263156D01*
X1394386Y263184D01*
X1394375Y263195D01*
X1394341Y263239D01*
X1394302Y263289D01*
X1394241Y263389D01*
X1394219Y263434D01*
X1394197Y263467D01*
X1394186Y263489D01*
X1394180Y263500D01*
X1394164Y263400D01*
X1394147Y263306D01*
X1394119Y263223D01*
X1394097Y263139D01*
X1394069Y263067D01*
X1394036Y263001D01*
X1394008Y262940D01*
X1393981Y262884D01*
X1393947Y262840D01*
X1393919Y262795D01*
X1393897Y262762D01*
X1393875Y262734D01*
X1393859Y262712D01*
X1393842Y262695D01*
X1393836Y262690D01*
X1393831Y262684D01*
X1393775Y262640D01*
X1393720Y262596D01*
X1393603Y262529D01*
X1393487Y262485D01*
X1393376Y262451D01*
X1393281Y262429D01*
X1393242Y262423D01*
X1393204D01*
X1393176Y262418D01*
X1393154D01*
X1393143D01*
X1393137D01*
X1393020Y262423D01*
X1392915Y262440D01*
X1392815Y262468D01*
X1392732Y262496D01*
X1392660Y262529D01*
X1392604Y262551D01*
X1392571Y262573D01*
X1392565Y262579D01*
X1392560D01*
X1392471Y262646D01*
X1392393Y262712D01*
X1392327Y262784D01*
X1392277Y262851D01*
X1392238Y262912D01*
X1392216Y262962D01*
X1392199Y262995D01*
X1392194Y263001D01*
Y263006D01*
X1392177Y263056D01*
X1392160Y263117D01*
X1392132Y263239D01*
X1392116Y263372D01*
X1392099Y263495D01*
X1392094Y263611D01*
Y263661D01*
X1392088Y263705D01*
Y265487D01*
X1395929D01*
Y264977D01*
D02*
G37*
G36*
X1393459Y261369D02*
X1393420Y261286D01*
X1393381Y261203D01*
X1393342Y261125D01*
X1393309Y261058D01*
X1393281Y261003D01*
X1393259Y260969D01*
X1393254Y260964D01*
Y260958D01*
X1393192Y260858D01*
X1393131Y260770D01*
X1393076Y260692D01*
X1393026Y260631D01*
X1392987Y260575D01*
X1392954Y260542D01*
X1392932Y260514D01*
X1392926Y260509D01*
X1395929D01*
Y260037D01*
X1392071D01*
Y260342D01*
X1392166Y260398D01*
X1392255Y260459D01*
X1392343Y260531D01*
X1392421Y260597D01*
X1392488Y260664D01*
X1392543Y260714D01*
X1392560Y260736D01*
X1392576Y260753D01*
X1392582Y260758D01*
X1392587Y260764D01*
X1392682Y260881D01*
X1392771Y260997D01*
X1392848Y261108D01*
X1392909Y261219D01*
X1392965Y261314D01*
X1392987Y261352D01*
X1393004Y261386D01*
X1393020Y261413D01*
X1393026Y261436D01*
X1393037Y261447D01*
Y261452D01*
X1393492D01*
X1393459Y261369D01*
D02*
G37*
%LPC*%
G36*
X1394347Y222196D02*
X1393226Y221780D01*
X1393087Y221730D01*
X1392954Y221691D01*
X1392832Y221652D01*
X1392721Y221624D01*
X1392626Y221602D01*
X1392587Y221591D01*
X1392549Y221585D01*
X1392527Y221574D01*
X1392504D01*
X1392493Y221569D01*
X1392488D01*
X1392615Y221530D01*
X1392749Y221485D01*
X1392882Y221441D01*
X1393009Y221397D01*
X1393065Y221374D01*
X1393120Y221358D01*
X1393170Y221341D01*
X1393209Y221324D01*
X1393242Y221313D01*
X1393270Y221302D01*
X1393287Y221297D01*
X1393292D01*
X1394347Y220897D01*
Y222196D01*
D02*
G37*
G36*
X1395473Y218788D02*
X1392543D01*
Y217900D01*
X1392549Y217828D01*
Y217756D01*
X1392554Y217689D01*
X1392571Y217578D01*
X1392582Y217489D01*
X1392599Y217417D01*
X1392615Y217367D01*
X1392621Y217340D01*
X1392626Y217329D01*
X1392676Y217229D01*
X1392737Y217134D01*
X1392809Y217051D01*
X1392882Y216979D01*
X1392948Y216923D01*
X1393004Y216879D01*
X1393026Y216868D01*
X1393043Y216857D01*
X1393054Y216846D01*
X1393059D01*
X1393120Y216812D01*
X1393192Y216779D01*
X1393337Y216729D01*
X1393492Y216696D01*
X1393642Y216668D01*
X1393709Y216662D01*
X1393775Y216657D01*
X1393831Y216651D01*
X1393881D01*
X1393925Y216646D01*
X1393953D01*
X1393975D01*
X1393981D01*
X1394136Y216651D01*
X1394280Y216662D01*
X1394408Y216679D01*
X1394519Y216696D01*
X1394563Y216707D01*
X1394602Y216718D01*
X1394641Y216729D01*
X1394669Y216735D01*
X1394691Y216740D01*
X1394708Y216746D01*
X1394719Y216751D01*
X1394724D01*
X1394830Y216790D01*
X1394924Y216834D01*
X1395007Y216884D01*
X1395080Y216929D01*
X1395135Y216968D01*
X1395174Y217001D01*
X1395196Y217023D01*
X1395207Y217029D01*
X1395251Y217084D01*
X1395290Y217140D01*
X1395324Y217195D01*
X1395357Y217251D01*
X1395379Y217301D01*
X1395396Y217340D01*
X1395401Y217367D01*
X1395407Y217378D01*
X1395429Y217462D01*
X1395446Y217562D01*
X1395457Y217661D01*
X1395462Y217756D01*
X1395468Y217839D01*
X1395473Y217878D01*
Y218788D01*
D02*
G37*
G36*
X1393786Y211329D02*
X1392515D01*
Y210119D01*
X1392521Y209969D01*
X1392543Y209841D01*
X1392571Y209731D01*
X1392604Y209647D01*
X1392638Y209575D01*
X1392665Y209531D01*
X1392687Y209503D01*
X1392693Y209492D01*
X1392765Y209425D01*
X1392837Y209375D01*
X1392915Y209342D01*
X1392982Y209314D01*
X1393048Y209303D01*
X1393098Y209298D01*
X1393131Y209292D01*
X1393137D01*
X1393143D01*
X1393209Y209298D01*
X1393276Y209309D01*
X1393331Y209325D01*
X1393381Y209342D01*
X1393426Y209364D01*
X1393459Y209381D01*
X1393481Y209392D01*
X1393487Y209398D01*
X1393542Y209436D01*
X1393592Y209486D01*
X1393631Y209536D01*
X1393664Y209586D01*
X1393686Y209631D01*
X1393703Y209664D01*
X1393714Y209686D01*
X1393720Y209697D01*
X1393742Y209775D01*
X1393759Y209864D01*
X1393770Y209952D01*
X1393775Y210041D01*
X1393781Y210119D01*
X1393786Y210186D01*
Y211329D01*
D02*
G37*
G36*
X1394347Y275843D02*
X1393226Y275427D01*
X1393087Y275377D01*
X1392954Y275338D01*
X1392832Y275300D01*
X1392721Y275272D01*
X1392626Y275250D01*
X1392587Y275238D01*
X1392549Y275233D01*
X1392527Y275222D01*
X1392504D01*
X1392493Y275216D01*
X1392488D01*
X1392615Y275177D01*
X1392749Y275133D01*
X1392882Y275089D01*
X1393009Y275044D01*
X1393065Y275022D01*
X1393120Y275005D01*
X1393170Y274989D01*
X1393209Y274972D01*
X1393242Y274961D01*
X1393270Y274950D01*
X1393287Y274944D01*
X1393292D01*
X1394347Y274545D01*
Y275843D01*
D02*
G37*
G36*
X1395473Y272436D02*
X1392543D01*
Y271548D01*
X1392549Y271476D01*
Y271403D01*
X1392554Y271337D01*
X1392571Y271226D01*
X1392582Y271137D01*
X1392599Y271065D01*
X1392615Y271015D01*
X1392621Y270987D01*
X1392626Y270976D01*
X1392676Y270876D01*
X1392737Y270782D01*
X1392809Y270698D01*
X1392882Y270626D01*
X1392948Y270571D01*
X1393004Y270527D01*
X1393026Y270515D01*
X1393043Y270504D01*
X1393054Y270493D01*
X1393059D01*
X1393120Y270460D01*
X1393192Y270427D01*
X1393337Y270377D01*
X1393492Y270343D01*
X1393642Y270316D01*
X1393709Y270310D01*
X1393775Y270304D01*
X1393831Y270299D01*
X1393881D01*
X1393925Y270293D01*
X1393953D01*
X1393975D01*
X1393981D01*
X1394136Y270299D01*
X1394280Y270310D01*
X1394408Y270327D01*
X1394519Y270343D01*
X1394563Y270354D01*
X1394602Y270366D01*
X1394641Y270377D01*
X1394669Y270382D01*
X1394691Y270388D01*
X1394708Y270393D01*
X1394719Y270399D01*
X1394724D01*
X1394830Y270438D01*
X1394924Y270482D01*
X1395007Y270532D01*
X1395080Y270576D01*
X1395135Y270615D01*
X1395174Y270649D01*
X1395196Y270671D01*
X1395207Y270676D01*
X1395251Y270732D01*
X1395290Y270787D01*
X1395324Y270843D01*
X1395357Y270898D01*
X1395379Y270948D01*
X1395396Y270987D01*
X1395401Y271015D01*
X1395407Y271026D01*
X1395429Y271109D01*
X1395446Y271209D01*
X1395457Y271309D01*
X1395462Y271403D01*
X1395468Y271487D01*
X1395473Y271526D01*
Y272436D01*
D02*
G37*
G36*
X1393786Y264977D02*
X1392515D01*
Y263767D01*
X1392521Y263617D01*
X1392543Y263489D01*
X1392571Y263378D01*
X1392604Y263295D01*
X1392638Y263223D01*
X1392665Y263178D01*
X1392687Y263151D01*
X1392693Y263139D01*
X1392765Y263073D01*
X1392837Y263023D01*
X1392915Y262990D01*
X1392982Y262962D01*
X1393048Y262951D01*
X1393098Y262945D01*
X1393131Y262940D01*
X1393137D01*
X1393143D01*
X1393209Y262945D01*
X1393276Y262956D01*
X1393331Y262973D01*
X1393381Y262990D01*
X1393426Y263012D01*
X1393459Y263028D01*
X1393481Y263039D01*
X1393487Y263045D01*
X1393542Y263084D01*
X1393592Y263134D01*
X1393631Y263184D01*
X1393664Y263234D01*
X1393686Y263278D01*
X1393703Y263312D01*
X1393714Y263334D01*
X1393720Y263345D01*
X1393742Y263422D01*
X1393759Y263511D01*
X1393770Y263600D01*
X1393775Y263689D01*
X1393781Y263767D01*
X1393786Y263833D01*
Y264977D01*
D02*
G37*
%LPD*%
D15*
X1349000Y70898D02*
X1365000D01*
X1349000D02*
Y83102D01*
X1363898D01*
X1365000Y82000D01*
Y70898D02*
Y82000D01*
M02*
