G04*
G04 #@! TF.GenerationSoftware,Altium Limited,Altium Designer,20.1.12 (249)*
G04*
G04 Layer_Physical_Order=2*
G04 Layer_Color=16711680*
%FSLAX25Y25*%
%MOIN*%
G70*
G04*
G04 #@! TF.SameCoordinates,17CD68B3-A26F-4FE0-94F3-A569FC1E460E*
G04*
G04*
G04 #@! TF.FilePolarity,Positive*
G04*
G01*
G75*
%ADD12C,0.01000*%
%ADD66R,0.05906X0.03150*%
%ADD67R,0.06102X0.05315*%
%ADD68R,0.03740X0.03543*%
%ADD70C,0.00600*%
%ADD71C,0.02000*%
%ADD72O,0.12992X0.05906*%
%ADD73O,0.09055X0.05906*%
%ADD74C,0.05906*%
%ADD75R,0.05906X0.05906*%
%ADD76C,0.11417*%
%ADD77C,0.12598*%
%ADD78C,0.05118*%
%ADD79R,0.05118X0.05118*%
%ADD80C,0.09000*%
%ADD81R,0.05906X0.05906*%
%ADD82C,0.04724*%
%ADD83O,0.09843X0.05906*%
%ADD84O,0.05906X0.09843*%
%ADD85C,0.03543*%
%ADD86C,0.23622*%
%ADD87R,0.05315X0.06102*%
%ADD88R,0.03150X0.05906*%
G36*
X571450Y917982D02*
X571452Y917784D01*
X571500Y917153D01*
X571523Y917035D01*
X571549Y916933D01*
X571579Y916848D01*
X571613Y916778D01*
X571651Y916725D01*
X569177Y916900D01*
X569229Y916954D01*
X569275Y917024D01*
X569316Y917110D01*
X569352Y917212D01*
X569382Y917329D01*
X569406Y917462D01*
X569425Y917611D01*
X569447Y917957D01*
X569450Y918153D01*
X571450Y917982D01*
D02*
G37*
G36*
X586060Y782810D02*
X586005Y782856D01*
X585934Y782896D01*
X585848Y782932D01*
X585745Y782964D01*
X585627Y782990D01*
X585493Y783012D01*
X585178Y783040D01*
X584800Y783050D01*
Y785050D01*
X584997Y785052D01*
X585493Y785088D01*
X585627Y785110D01*
X585745Y785137D01*
X585848Y785168D01*
X585934Y785204D01*
X586005Y785245D01*
X586060Y785290D01*
Y782810D01*
D02*
G37*
G36*
X588872Y784934D02*
X588937Y784879D01*
X589018Y784831D01*
X589116Y784790D01*
X589230Y784755D01*
X589360Y784726D01*
X589507Y784704D01*
X589670Y784688D01*
X590046Y784675D01*
X589505Y782675D01*
X589305Y782674D01*
X588475Y782624D01*
X588398Y782608D01*
X588340Y782590D01*
X588299Y782570D01*
X588824Y784994D01*
X588872Y784934D01*
D02*
G37*
G36*
X775016Y100094D02*
X372516D01*
Y565094D01*
X364043D01*
X363765Y565510D01*
X364160Y566464D01*
X363224Y568724D01*
X360964Y569660D01*
X360023Y569270D01*
X359219Y569603D01*
X335016D01*
Y573897D01*
X343099D01*
X344233Y574366D01*
X348634Y578767D01*
X349103Y579901D01*
Y589000D01*
X348634Y590134D01*
X343634Y595134D01*
X342500Y595603D01*
X338344D01*
X337969Y595979D01*
X337954Y596029D01*
X337933Y596130D01*
X337917Y596246D01*
X337899Y596509D01*
X338036Y596840D01*
X337100Y599100D01*
X335016Y599963D01*
Y643401D01*
X335512Y643512D01*
X337772Y642576D01*
X340032Y643512D01*
X340968Y645772D01*
X340032Y648032D01*
X337772Y648968D01*
X335512Y648032D01*
X335016Y648142D01*
Y682492D01*
X335478Y682683D01*
X338331Y679831D01*
X340000Y679139D01*
X348500D01*
X348510Y679143D01*
X348768Y679036D01*
X350784Y679871D01*
X390732D01*
X392401Y680563D01*
X401669Y689831D01*
X402361Y691500D01*
Y715522D01*
X407978Y721139D01*
X561835D01*
X563957Y719017D01*
Y705932D01*
X564649Y704262D01*
X567280Y701631D01*
X568115Y699615D01*
X570375Y698679D01*
X572635Y699615D01*
X573571Y701875D01*
X572736Y703891D01*
Y705397D01*
X573978Y706639D01*
X632022D01*
X636139Y702522D01*
Y573978D01*
X634522Y572361D01*
X589748D01*
X589635Y572635D01*
X587375Y573571D01*
X585660Y572861D01*
X575000D01*
X573331Y572169D01*
X567706Y566544D01*
X567014Y564875D01*
Y491391D01*
X566179Y489375D01*
X567115Y487115D01*
X569375Y486179D01*
X571635Y487115D01*
X572571Y489375D01*
X571736Y491391D01*
Y492897D01*
X572978Y494139D01*
X631022D01*
X635139Y490022D01*
Y361478D01*
X633522Y359861D01*
X588749D01*
X588635Y360135D01*
X586375Y361071D01*
X584115Y360135D01*
X584001Y359861D01*
X573000D01*
X571331Y359169D01*
X567206Y355044D01*
X566514Y353375D01*
Y278391D01*
X565679Y276375D01*
X566615Y274115D01*
X568875Y273179D01*
X571135Y274115D01*
X572071Y276375D01*
X571236Y278391D01*
Y279897D01*
X572478Y281139D01*
X630522D01*
X634639Y277022D01*
Y148478D01*
X633022Y146861D01*
X588248D01*
X588135Y147135D01*
X585875Y148071D01*
X583615Y147135D01*
X582679Y144875D01*
X583615Y142615D01*
X585875Y141679D01*
X586986Y142139D01*
X634000D01*
X635669Y142831D01*
X638669Y145831D01*
X639361Y147500D01*
Y278000D01*
X638669Y279669D01*
X633169Y285169D01*
X631500Y285861D01*
X571500D01*
X571236Y286037D01*
Y352397D01*
X573978Y355139D01*
X585264D01*
X586375Y354679D01*
X587486Y355139D01*
X634500D01*
X636169Y355831D01*
X639169Y358831D01*
X639861Y360500D01*
Y491000D01*
X639169Y492669D01*
X633669Y498169D01*
X632000Y498861D01*
X572000D01*
X571736Y499037D01*
Y563897D01*
X575978Y568139D01*
X585105D01*
X585115Y568115D01*
X587375Y567179D01*
X588486Y567639D01*
X635500D01*
X637169Y568331D01*
X640169Y571331D01*
X640861Y573000D01*
Y703500D01*
X640169Y705169D01*
X634669Y710669D01*
X633000Y711361D01*
X573000D01*
X572736Y711537D01*
Y778897D01*
X575528Y781689D01*
X585309D01*
X587325Y780854D01*
X588436Y781314D01*
X635450D01*
X637119Y782006D01*
X640119Y785006D01*
X640811Y786675D01*
Y917175D01*
X640119Y918844D01*
X634619Y924344D01*
X632950Y925036D01*
X572950D01*
X571281Y924344D01*
X568781Y921844D01*
X568089Y920175D01*
Y917820D01*
X568065Y917810D01*
X567129Y915550D01*
X568065Y913290D01*
X570325Y912354D01*
X572585Y913290D01*
X573521Y915550D01*
X572811Y917265D01*
Y919197D01*
X573928Y920314D01*
X631972D01*
X636089Y916197D01*
Y787653D01*
X634472Y786036D01*
X589699D01*
X589585Y786310D01*
X587325Y787246D01*
X585309Y786411D01*
X574550D01*
X572881Y785719D01*
X568706Y781544D01*
X568014Y779875D01*
Y722345D01*
X567514Y722138D01*
X564482Y725169D01*
X562813Y725861D01*
X407000D01*
X405331Y725169D01*
X398331Y718169D01*
X397639Y716500D01*
Y692478D01*
X389754Y684593D01*
X350784D01*
X348768Y685428D01*
X346508Y684492D01*
X346247Y683861D01*
X340978D01*
X335861Y688978D01*
Y767866D01*
X337634D01*
Y776134D01*
X329366D01*
Y767866D01*
X331139D01*
Y722624D01*
X330677Y722433D01*
X327315Y725795D01*
X285495D01*
Y751553D01*
X285995Y751652D01*
X287652Y747652D01*
X292000Y745851D01*
X296348Y747652D01*
X298149Y752000D01*
X296348Y756348D01*
X292000Y758149D01*
X287652Y756348D01*
X285995Y752348D01*
X285495Y752447D01*
Y799072D01*
X285516Y799094D01*
X283946D01*
X283500Y799278D01*
X241500D01*
X241054Y799094D01*
X239516D01*
Y782594D01*
X237516Y780594D01*
X203016D01*
Y958094D01*
X775016D01*
Y100094D01*
D02*
G37*
G36*
X335310Y769039D02*
X335140Y768979D01*
X334990Y768879D01*
X334860Y768739D01*
X334750Y768559D01*
X334660Y768339D01*
X334590Y768079D01*
X334540Y767779D01*
X334510Y767439D01*
X334500Y767059D01*
X332500D01*
X332490Y767439D01*
X332460Y767779D01*
X332410Y768079D01*
X332340Y768339D01*
X332250Y768559D01*
X332140Y768739D01*
X332010Y768879D01*
X331860Y768979D01*
X331690Y769039D01*
X331500Y769059D01*
X335500D01*
X335310Y769039D01*
D02*
G37*
G36*
X571377Y704203D02*
X571413Y703707D01*
X571435Y703573D01*
X571461Y703455D01*
X571493Y703352D01*
X571529Y703266D01*
X571569Y703195D01*
X571615Y703140D01*
X569851D01*
X568603Y701893D01*
X568597Y701964D01*
X568576Y702043D01*
X568540Y702129D01*
X568490Y702224D01*
X568425Y702326D01*
X568345Y702436D01*
X568143Y702679D01*
X567882Y702954D01*
X569296Y704368D01*
X569372Y704294D01*
X569375Y704400D01*
X571375D01*
X571377Y704203D01*
D02*
G37*
G36*
X350088Y683427D02*
X350159Y683386D01*
X350245Y683350D01*
X350348Y683319D01*
X350466Y683292D01*
X350600Y683271D01*
X350915Y683242D01*
X351293Y683232D01*
Y681232D01*
X351096Y681230D01*
X350600Y681194D01*
X350466Y681172D01*
X350348Y681146D01*
X350245Y681114D01*
X350159Y681078D01*
X350088Y681038D01*
X350033Y680992D01*
Y683472D01*
X350088Y683427D01*
D02*
G37*
G36*
X348114Y680585D02*
X347333Y680500D01*
X345954Y682500D01*
X346150Y682503D01*
X346488Y682530D01*
X346630Y682554D01*
X346754Y682585D01*
X346860Y682622D01*
X346948Y682666D01*
X347018Y682717D01*
X347070Y682774D01*
X347103Y682839D01*
X348114Y680585D01*
D02*
G37*
G36*
X256673Y676209D02*
X256387Y676492D01*
X255611Y677163D01*
X255379Y677327D01*
X255161Y677461D01*
X254956Y677566D01*
X254765Y677640D01*
X254587Y677685D01*
X254423Y677700D01*
Y678300D01*
X254587Y678315D01*
X254765Y678360D01*
X254956Y678434D01*
X255161Y678539D01*
X255379Y678673D01*
X255611Y678837D01*
X255856Y679031D01*
X256387Y679508D01*
X256673Y679791D01*
Y676209D01*
D02*
G37*
G36*
X275064Y676553D02*
X274938Y676407D01*
X274827Y676260D01*
X274731Y676111D01*
X274649Y675962D01*
X274583Y675812D01*
X274531Y675661D01*
X274494Y675508D01*
X274472Y675355D01*
X274464Y675202D01*
X273464D01*
X273457Y675355D01*
X273435Y675508D01*
X273398Y675661D01*
X273346Y675812D01*
X273279Y675962D01*
X273198Y676111D01*
X273101Y676260D01*
X272990Y676407D01*
X272865Y676553D01*
X272724Y676699D01*
X275204D01*
X275064Y676553D01*
D02*
G37*
G36*
X274472Y670573D02*
X274494Y670420D01*
X274531Y670268D01*
X274583Y670117D01*
X274649Y669967D01*
X274731Y669817D01*
X274827Y669669D01*
X274938Y669521D01*
X275064Y669375D01*
X275204Y669229D01*
X272724D01*
X272865Y669375D01*
X272990Y669521D01*
X273101Y669669D01*
X273198Y669817D01*
X273279Y669967D01*
X273346Y670117D01*
X273398Y670268D01*
X273435Y670420D01*
X273457Y670573D01*
X273464Y670727D01*
X274464D01*
X274472Y670573D01*
D02*
G37*
G36*
X256673Y666209D02*
X256387Y666492D01*
X255611Y667163D01*
X255379Y667327D01*
X255161Y667461D01*
X254956Y667566D01*
X254765Y667640D01*
X254587Y667685D01*
X254423Y667700D01*
Y668300D01*
X254587Y668315D01*
X254765Y668360D01*
X254956Y668434D01*
X255161Y668539D01*
X255379Y668673D01*
X255611Y668837D01*
X255856Y669031D01*
X256387Y669508D01*
X256673Y669791D01*
Y666209D01*
D02*
G37*
G36*
X275064Y666553D02*
X274938Y666407D01*
X274827Y666259D01*
X274731Y666111D01*
X274649Y665962D01*
X274583Y665812D01*
X274531Y665660D01*
X274494Y665508D01*
X274472Y665355D01*
X274464Y665202D01*
X273464D01*
X273457Y665355D01*
X273435Y665508D01*
X273398Y665660D01*
X273346Y665812D01*
X273279Y665962D01*
X273198Y666111D01*
X273101Y666259D01*
X272990Y666407D01*
X272865Y666553D01*
X272724Y666699D01*
X275204D01*
X275064Y666553D01*
D02*
G37*
G36*
X274472Y660573D02*
X274494Y660420D01*
X274531Y660268D01*
X274583Y660117D01*
X274649Y659967D01*
X274731Y659817D01*
X274827Y659669D01*
X274938Y659521D01*
X275064Y659375D01*
X275204Y659229D01*
X272724D01*
X272865Y659375D01*
X272990Y659521D01*
X273101Y659669D01*
X273198Y659817D01*
X273279Y659967D01*
X273346Y660117D01*
X273398Y660268D01*
X273435Y660420D01*
X273457Y660573D01*
X273464Y660727D01*
X274464D01*
X274472Y660573D01*
D02*
G37*
G36*
X275064Y656553D02*
X274938Y656407D01*
X274827Y656259D01*
X274731Y656111D01*
X274649Y655962D01*
X274583Y655812D01*
X274531Y655660D01*
X274494Y655508D01*
X274472Y655356D01*
X274464Y655201D01*
X273464D01*
X273457Y655356D01*
X273435Y655508D01*
X273398Y655660D01*
X273346Y655812D01*
X273279Y655962D01*
X273198Y656111D01*
X273101Y656259D01*
X272990Y656407D01*
X272865Y656553D01*
X272724Y656699D01*
X275204D01*
X275064Y656553D01*
D02*
G37*
G36*
X274472Y650573D02*
X274494Y650420D01*
X274531Y650268D01*
X274583Y650117D01*
X274649Y649966D01*
X274731Y649817D01*
X274827Y649669D01*
X274938Y649521D01*
X275064Y649375D01*
X275204Y649229D01*
X272724D01*
X272865Y649375D01*
X272990Y649521D01*
X273101Y649669D01*
X273198Y649817D01*
X273279Y649966D01*
X273346Y650117D01*
X273398Y650268D01*
X273435Y650420D01*
X273457Y650573D01*
X273464Y650727D01*
X274464D01*
X274472Y650573D01*
D02*
G37*
G36*
X283500Y724000D02*
X326000D01*
X331276Y718724D01*
Y688000D01*
X331276Y688000D01*
X331445Y687149D01*
X331927Y686427D01*
X332500Y685855D01*
Y647486D01*
X319634D01*
Y648087D01*
X311366D01*
X311232Y648177D01*
Y648177D01*
X302768D01*
Y646053D01*
X278300D01*
X277072Y647280D01*
X277051Y647315D01*
X277028Y647362D01*
X277006Y647420D01*
X276985Y647492D01*
X276966Y647578D01*
X276952Y647681D01*
X276943Y647800D01*
X276940Y647947D01*
X276942Y647964D01*
X276841Y648735D01*
X276543Y649453D01*
X276070Y650070D01*
X276056Y650081D01*
X275954Y650186D01*
X275877Y650277D01*
X275814Y650360D01*
X275766Y650434D01*
X275730Y650500D01*
X275705Y650557D01*
X275688Y650606D01*
X275678Y650646D01*
Y655283D01*
X275688Y655322D01*
X275705Y655371D01*
X275730Y655429D01*
X275766Y655494D01*
X275814Y655569D01*
X275876Y655652D01*
X275954Y655742D01*
X276056Y655848D01*
X276070Y655858D01*
X276543Y656475D01*
X276841Y657193D01*
X276942Y657964D01*
X276841Y658735D01*
X276543Y659453D01*
X276070Y660070D01*
X276056Y660081D01*
X275954Y660186D01*
X275877Y660277D01*
X275814Y660360D01*
X275766Y660434D01*
X275730Y660500D01*
X275705Y660557D01*
X275688Y660606D01*
X275678Y660646D01*
Y665283D01*
X275688Y665322D01*
X275705Y665371D01*
X275730Y665429D01*
X275766Y665494D01*
X275814Y665569D01*
X275876Y665652D01*
X275954Y665742D01*
X276056Y665848D01*
X276070Y665858D01*
X276543Y666475D01*
X276841Y667193D01*
X276942Y667964D01*
X276841Y668735D01*
X276543Y669453D01*
X276070Y670070D01*
X276056Y670081D01*
X275954Y670186D01*
X275877Y670277D01*
X275814Y670360D01*
X275766Y670434D01*
X275730Y670500D01*
X275705Y670557D01*
X275688Y670606D01*
X275678Y670646D01*
Y675283D01*
X275688Y675322D01*
X275705Y675371D01*
X275730Y675429D01*
X275766Y675494D01*
X275814Y675569D01*
X275876Y675652D01*
X275954Y675742D01*
X276056Y675848D01*
X276070Y675858D01*
X276543Y676475D01*
X276841Y677193D01*
X276942Y677964D01*
X276841Y678735D01*
X276543Y679453D01*
X276070Y680070D01*
X275453Y680543D01*
X274735Y680841D01*
X273964Y680942D01*
X273193Y680841D01*
X272475Y680543D01*
X271858Y680070D01*
X271385Y679453D01*
X271087Y678735D01*
X270986Y677964D01*
X271087Y677193D01*
X271385Y676475D01*
X271858Y675858D01*
X271872Y675848D01*
X271974Y675742D01*
X272052Y675652D01*
X272114Y675569D01*
X272162Y675494D01*
X272198Y675429D01*
X272224Y675372D01*
X272240Y675322D01*
X272250Y675283D01*
Y670646D01*
X272240Y670606D01*
X272224Y670557D01*
X272198Y670500D01*
X272162Y670434D01*
X272114Y670360D01*
X272052Y670277D01*
X271974Y670186D01*
X271872Y670081D01*
X271858Y670070D01*
X271385Y669453D01*
X271087Y668735D01*
X270986Y667964D01*
X271087Y667193D01*
X271385Y666475D01*
X271858Y665858D01*
X271872Y665848D01*
X271974Y665742D01*
X272052Y665652D01*
X272114Y665569D01*
X272162Y665494D01*
X272198Y665429D01*
X272224Y665372D01*
X272240Y665322D01*
X272250Y665283D01*
Y660646D01*
X272240Y660606D01*
X272224Y660557D01*
X272198Y660500D01*
X272162Y660434D01*
X272114Y660360D01*
X272052Y660277D01*
X271974Y660186D01*
X271872Y660081D01*
X271858Y660070D01*
X271385Y659453D01*
X271087Y658735D01*
X270986Y657964D01*
X271087Y657193D01*
X271385Y656475D01*
X271858Y655858D01*
X271872Y655848D01*
X271974Y655742D01*
X272052Y655652D01*
X272114Y655569D01*
X272162Y655494D01*
X272198Y655429D01*
X272224Y655372D01*
X272240Y655322D01*
X272250Y655283D01*
Y650646D01*
X272240Y650606D01*
X272224Y650557D01*
X272198Y650500D01*
X272162Y650434D01*
X272114Y650360D01*
X272052Y650277D01*
X271974Y650186D01*
X271872Y650081D01*
X271858Y650070D01*
X271385Y649453D01*
X271087Y648735D01*
X270986Y647964D01*
X271087Y647193D01*
X271385Y646475D01*
X271858Y645858D01*
X271872Y645848D01*
X271974Y645742D01*
X272052Y645652D01*
X272114Y645569D01*
X272162Y645494D01*
X272198Y645429D01*
X272224Y645371D01*
X272240Y645322D01*
X272250Y645283D01*
Y640646D01*
X272240Y640606D01*
X272224Y640557D01*
X272198Y640500D01*
X272162Y640434D01*
X272114Y640360D01*
X272052Y640277D01*
X271974Y640186D01*
X271872Y640081D01*
X271858Y640070D01*
X271385Y639453D01*
X271087Y638735D01*
X270986Y637964D01*
X271087Y637193D01*
X271385Y636475D01*
X271858Y635858D01*
X271872Y635848D01*
X271974Y635742D01*
X272052Y635652D01*
X272114Y635569D01*
X272162Y635494D01*
X272198Y635429D01*
X272224Y635371D01*
X272240Y635322D01*
X272250Y635283D01*
Y630146D01*
X272240Y630106D01*
X272224Y630057D01*
X272198Y630000D01*
X272162Y629934D01*
X272114Y629860D01*
X272052Y629777D01*
X271974Y629686D01*
X271872Y629581D01*
X271858Y629570D01*
X271385Y628953D01*
X271087Y628235D01*
X270986Y627464D01*
X271087Y626693D01*
X271385Y625975D01*
X271858Y625358D01*
X271872Y625348D01*
X271974Y625242D01*
X272052Y625152D01*
X272114Y625069D01*
X272162Y624994D01*
X272198Y624929D01*
X272224Y624871D01*
X272240Y624822D01*
X272250Y624783D01*
Y620146D01*
X272240Y620106D01*
X272224Y620057D01*
X272198Y620000D01*
X272162Y619934D01*
X272114Y619860D01*
X272052Y619777D01*
X271974Y619686D01*
X271872Y619581D01*
X271858Y619570D01*
X271385Y618953D01*
X271087Y618235D01*
X270986Y617464D01*
X271087Y616693D01*
X271385Y615975D01*
X271757Y615490D01*
X271795Y615428D01*
X271910Y615301D01*
X271988Y615204D01*
X272052Y615115D01*
X272102Y615035D01*
X272140Y614963D01*
X272166Y614901D01*
X272184Y614847D01*
X272195Y614802D01*
Y610163D01*
X272186Y610129D01*
X272171Y610084D01*
X272147Y610033D01*
X272113Y609973D01*
X272067Y609904D01*
X272006Y609828D01*
X271930Y609744D01*
X271813Y609629D01*
X271799Y609609D01*
X271748Y609570D01*
X271275Y608953D01*
X270977Y608235D01*
X270876Y607464D01*
X270977Y606693D01*
X271275Y605975D01*
X271748Y605358D01*
X272365Y604885D01*
X273083Y604587D01*
X273854Y604486D01*
X274625Y604587D01*
X275343Y604885D01*
X275960Y605358D01*
X276433Y605975D01*
X276731Y606693D01*
X276832Y607464D01*
X276731Y608235D01*
X276433Y608953D01*
X276061Y609438D01*
X276024Y609501D01*
X275908Y609627D01*
X275830Y609724D01*
X275766Y609813D01*
X275716Y609894D01*
X275678Y609965D01*
X275652Y610028D01*
X275634Y610082D01*
X275623Y610126D01*
Y614765D01*
X275632Y614800D01*
X275647Y614844D01*
X275671Y614896D01*
X275705Y614956D01*
X275751Y615024D01*
X275812Y615101D01*
X275888Y615185D01*
X276005Y615299D01*
X276019Y615319D01*
X276070Y615358D01*
X276543Y615975D01*
X276841Y616693D01*
X276942Y617464D01*
X276841Y618235D01*
X276543Y618953D01*
X276070Y619570D01*
X276056Y619581D01*
X275954Y619686D01*
X275877Y619777D01*
X275814Y619860D01*
X275766Y619934D01*
X275730Y620000D01*
X275705Y620057D01*
X275688Y620106D01*
X275678Y620146D01*
Y624783D01*
X275688Y624822D01*
X275705Y624871D01*
X275730Y624929D01*
X275766Y624994D01*
X275814Y625069D01*
X275876Y625151D01*
X275954Y625242D01*
X276056Y625348D01*
X276070Y625358D01*
X276543Y625975D01*
X276841Y626693D01*
X276942Y627464D01*
X276841Y628235D01*
X276543Y628953D01*
X276070Y629570D01*
X276056Y629581D01*
X275954Y629686D01*
X275877Y629777D01*
X275814Y629860D01*
X275766Y629934D01*
X275730Y630000D01*
X275705Y630057D01*
X275688Y630106D01*
X275678Y630146D01*
Y635283D01*
X275688Y635322D01*
X275705Y635371D01*
X275730Y635429D01*
X275766Y635494D01*
X275814Y635569D01*
X275876Y635651D01*
X275954Y635742D01*
X276056Y635848D01*
X276070Y635858D01*
X276543Y636475D01*
X276841Y637193D01*
X276942Y637964D01*
X276841Y638735D01*
X276543Y639453D01*
X276070Y640070D01*
X276056Y640081D01*
X275954Y640186D01*
X275877Y640277D01*
X275814Y640360D01*
X275766Y640434D01*
X275730Y640500D01*
X275705Y640557D01*
X275688Y640606D01*
X275678Y640646D01*
Y643173D01*
X276140Y643364D01*
X276378Y643127D01*
X276934Y642755D01*
X277590Y642625D01*
X302768D01*
X302768Y640500D01*
X302949Y640075D01*
Y637161D01*
X307000D01*
Y636661D01*
X307500D01*
Y633004D01*
X311051D01*
Y634085D01*
X311547Y634094D01*
X311551Y634094D01*
X315000D01*
Y636669D01*
Y639244D01*
X311551D01*
X311547Y639244D01*
X311051Y639254D01*
Y640075D01*
X311232Y640500D01*
X311232Y640744D01*
Y642130D01*
X311366Y642575D01*
X319634D01*
Y644058D01*
X332500D01*
Y598641D01*
X332261Y598329D01*
X331963Y597611D01*
X331862Y596840D01*
X331963Y596069D01*
X332261Y595351D01*
X332500Y595040D01*
Y581010D01*
X254626D01*
X252010Y583626D01*
Y603374D01*
X254902Y606266D01*
X254925Y606250D01*
X255074Y606126D01*
X255466Y605745D01*
X255677Y605511D01*
X255702Y605493D01*
X255719Y605467D01*
X255739Y605454D01*
X255833Y605333D01*
X256614Y604733D01*
X257524Y604356D01*
X258500Y604228D01*
X259476Y604356D01*
X260386Y604733D01*
X261168Y605333D01*
X261767Y606114D01*
X262144Y607024D01*
X262272Y608000D01*
X262144Y608976D01*
X261767Y609886D01*
X261168Y610668D01*
X260386Y611267D01*
X259476Y611644D01*
X258500Y611772D01*
X257524Y611644D01*
X256614Y611267D01*
X255833Y610668D01*
X255739Y610546D01*
X255719Y610533D01*
X255709Y610517D01*
X255694Y610506D01*
X255254Y610039D01*
X255086Y609883D01*
X254925Y609750D01*
X254784Y609649D01*
X254667Y609578D01*
X254578Y609534D01*
X254521Y609513D01*
X254507Y609510D01*
X254500D01*
X254482Y609507D01*
X254406Y609501D01*
X254296Y609470D01*
X253922Y609395D01*
X253432Y609068D01*
X253432Y609068D01*
X250472Y606108D01*
X250010Y606299D01*
Y613874D01*
X252625Y616490D01*
X254401D01*
X254463Y616466D01*
X254571Y616410D01*
X254715Y616322D01*
X254867Y616214D01*
X255568Y615608D01*
X255790Y615388D01*
X255833Y615333D01*
X256614Y614733D01*
X257524Y614356D01*
X258500Y614228D01*
X259476Y614356D01*
X260386Y614733D01*
X261168Y615333D01*
X261767Y616114D01*
X262144Y617024D01*
X262272Y618000D01*
X262144Y618976D01*
X261767Y619886D01*
X261168Y620668D01*
X260386Y621267D01*
X259476Y621644D01*
X258500Y621772D01*
X257524Y621644D01*
X256614Y621267D01*
X255833Y620668D01*
X255790Y620612D01*
X255560Y620384D01*
X255079Y619952D01*
X254889Y619801D01*
X254715Y619678D01*
X254571Y619590D01*
X254463Y619534D01*
X254401Y619510D01*
X252000D01*
X252000Y619510D01*
X251422Y619395D01*
X250932Y619068D01*
X250932Y619068D01*
X248472Y616608D01*
X248010Y616799D01*
Y622374D01*
X252126Y626490D01*
X254401D01*
X254463Y626466D01*
X254571Y626410D01*
X254715Y626322D01*
X254867Y626214D01*
X255568Y625608D01*
X255790Y625388D01*
X255833Y625332D01*
X256614Y624733D01*
X257524Y624356D01*
X258500Y624228D01*
X259476Y624356D01*
X260386Y624733D01*
X261168Y625332D01*
X261767Y626114D01*
X262144Y627024D01*
X262272Y628000D01*
X262144Y628976D01*
X261767Y629886D01*
X261168Y630667D01*
X260386Y631267D01*
X259476Y631644D01*
X258500Y631772D01*
X257524Y631644D01*
X256614Y631267D01*
X255833Y630667D01*
X255790Y630612D01*
X255560Y630384D01*
X255079Y629952D01*
X254889Y629801D01*
X254715Y629678D01*
X254571Y629590D01*
X254463Y629534D01*
X254401Y629510D01*
X251500D01*
X251500Y629510D01*
X250922Y629395D01*
X250432Y629068D01*
X250432Y629068D01*
X245432Y624068D01*
X245105Y623578D01*
X244990Y623000D01*
X244990Y623000D01*
Y581000D01*
X244990Y581000D01*
X245105Y580422D01*
X245432Y579932D01*
X250132Y575232D01*
X250132Y575232D01*
X250132Y575232D01*
X250932Y574432D01*
X251422Y574105D01*
X252000Y573990D01*
X332500D01*
Y569510D01*
X247126D01*
X240010Y576625D01*
Y654875D01*
X251625Y666490D01*
X254401D01*
X254463Y666466D01*
X254571Y666410D01*
X254715Y666322D01*
X254867Y666214D01*
X255568Y665608D01*
X255790Y665388D01*
X255833Y665333D01*
X256614Y664733D01*
X257524Y664356D01*
X258500Y664228D01*
X259476Y664356D01*
X260386Y664733D01*
X261168Y665333D01*
X261767Y666114D01*
X262144Y667024D01*
X262272Y668000D01*
X262144Y668976D01*
X261767Y669886D01*
X261168Y670668D01*
X260386Y671267D01*
X259476Y671644D01*
X258500Y671772D01*
X257524Y671644D01*
X256614Y671267D01*
X255833Y670668D01*
X255790Y670612D01*
X255560Y670384D01*
X255079Y669952D01*
X254889Y669801D01*
X254715Y669678D01*
X254571Y669590D01*
X254463Y669534D01*
X254401Y669510D01*
X251000D01*
X251000Y669510D01*
X250422Y669395D01*
X249932Y669068D01*
X238472Y657608D01*
X238010Y657799D01*
Y662374D01*
X252126Y676490D01*
X254401D01*
X254463Y676466D01*
X254571Y676410D01*
X254715Y676322D01*
X254867Y676214D01*
X255568Y675608D01*
X255790Y675388D01*
X255833Y675332D01*
X256614Y674733D01*
X257524Y674356D01*
X258500Y674228D01*
X259476Y674356D01*
X260386Y674733D01*
X261168Y675332D01*
X261767Y676114D01*
X262144Y677024D01*
X262272Y678000D01*
X262144Y678976D01*
X261767Y679886D01*
X261168Y680667D01*
X260386Y681267D01*
X259476Y681644D01*
X258500Y681772D01*
X257524Y681644D01*
X256614Y681267D01*
X255833Y680667D01*
X255790Y680612D01*
X255560Y680384D01*
X255079Y679952D01*
X254889Y679801D01*
X254715Y679678D01*
X254571Y679590D01*
X254463Y679534D01*
X254401Y679510D01*
X251500D01*
X250922Y679395D01*
X250432Y679068D01*
X250432Y679068D01*
X235432Y664068D01*
X235105Y663578D01*
X234990Y663000D01*
X234990Y663000D01*
Y574500D01*
X234990Y574500D01*
X235105Y573922D01*
X235432Y573432D01*
X245432Y563432D01*
X245432Y563432D01*
X245922Y563105D01*
X246500Y562990D01*
X246500Y562990D01*
X332500D01*
Y562500D01*
X352723D01*
X352812Y562409D01*
X352828Y562398D01*
X352858Y562358D01*
X353475Y561885D01*
X354193Y561587D01*
X354964Y561486D01*
X355735Y561587D01*
X356453Y561885D01*
X357070Y562358D01*
X357179Y562500D01*
X370000D01*
Y100000D01*
X203000D01*
Y779000D01*
X238000D01*
X241500Y782500D01*
Y798000D01*
X283500D01*
Y724000D01*
D02*
G37*
G36*
X275739Y647744D02*
X275754Y647551D01*
X275780Y647369D01*
X275816Y647196D01*
X275864Y647033D01*
X275923Y646879D01*
X275994Y646736D01*
X276075Y646602D01*
X276168Y646478D01*
X276271Y646364D01*
X275564Y645657D01*
X275450Y645761D01*
X275326Y645853D01*
X275192Y645935D01*
X275049Y646005D01*
X274896Y646064D01*
X274732Y646112D01*
X274731Y646112D01*
X274731Y646111D01*
X274649Y645962D01*
X274583Y645812D01*
X274531Y645660D01*
X274494Y645508D01*
X274472Y645356D01*
X274464Y645201D01*
X273464D01*
X273457Y645356D01*
X273435Y645508D01*
X273398Y645660D01*
X273346Y645812D01*
X273279Y645962D01*
X273198Y646111D01*
X273101Y646259D01*
X272990Y646407D01*
X272865Y646553D01*
X272724Y646699D01*
X274488D01*
X275736Y647947D01*
X275739Y647744D01*
D02*
G37*
G36*
X318439Y646677D02*
X318469Y646592D01*
X318520Y646517D01*
X318591Y646452D01*
X318682Y646397D01*
X318793Y646352D01*
X318925Y646317D01*
X319076Y646292D01*
X319249Y646277D01*
X319441Y646272D01*
Y645272D01*
X319249Y645267D01*
X319076Y645252D01*
X318925Y645227D01*
X318793Y645192D01*
X318682Y645147D01*
X318591Y645092D01*
X318520Y645027D01*
X318469Y644952D01*
X318439Y644867D01*
X318429Y644772D01*
Y646772D01*
X318439Y646677D01*
D02*
G37*
G36*
X336506Y644531D02*
X336361Y644672D01*
X336214Y644798D01*
X336067Y644909D01*
X335919Y645005D01*
X335769Y645087D01*
X335619Y645153D01*
X335468Y645205D01*
X335316Y645242D01*
X335163Y645264D01*
X335009Y645272D01*
Y646272D01*
X335163Y646279D01*
X335316Y646301D01*
X335468Y646338D01*
X335619Y646390D01*
X335769Y646457D01*
X335919Y646538D01*
X336067Y646634D01*
X336214Y646745D01*
X336361Y646871D01*
X336506Y647012D01*
Y644531D01*
D02*
G37*
G36*
X312571Y644331D02*
X312561Y644426D01*
X312531Y644511D01*
X312480Y644586D01*
X312409Y644651D01*
X312318Y644706D01*
X312207Y644751D01*
X312075Y644786D01*
X311924Y644811D01*
X311752Y644826D01*
X311559Y644831D01*
Y645831D01*
X311752Y645836D01*
X311924Y645851D01*
X312075Y645876D01*
X312207Y645911D01*
X312318Y645956D01*
X312409Y646011D01*
X312480Y646076D01*
X312531Y646151D01*
X312561Y646236D01*
X312571Y646331D01*
Y644331D01*
D02*
G37*
G36*
X310037Y646236D02*
X310068Y646151D01*
X310118Y646076D01*
X310189Y646011D01*
X310280Y645956D01*
X310391Y645911D01*
X310523Y645876D01*
X310675Y645851D01*
X310847Y645836D01*
X311039Y645831D01*
Y644831D01*
X310847Y644826D01*
X310675Y644811D01*
X310523Y644786D01*
X310391Y644751D01*
X310280Y644706D01*
X310189Y644651D01*
X310118Y644586D01*
X310068Y644511D01*
X310037Y644426D01*
X310027Y644331D01*
Y646331D01*
X310037Y646236D01*
D02*
G37*
G36*
X303973Y643339D02*
X303963Y643434D01*
X303932Y643519D01*
X303882Y643594D01*
X303811Y643659D01*
X303720Y643714D01*
X303608Y643759D01*
X303477Y643794D01*
X303325Y643819D01*
X303153Y643834D01*
X302961Y643839D01*
Y644839D01*
X303153Y644844D01*
X303325Y644859D01*
X303477Y644884D01*
X303608Y644919D01*
X303720Y644964D01*
X303811Y645019D01*
X303882Y645084D01*
X303932Y645159D01*
X303963Y645244D01*
X303973Y645339D01*
Y643339D01*
D02*
G37*
G36*
X274472Y640573D02*
X274494Y640420D01*
X274531Y640268D01*
X274583Y640117D01*
X274649Y639966D01*
X274731Y639817D01*
X274827Y639669D01*
X274938Y639521D01*
X275064Y639375D01*
X275204Y639229D01*
X272724D01*
X272865Y639375D01*
X272990Y639521D01*
X273101Y639669D01*
X273198Y639817D01*
X273279Y639966D01*
X273346Y640117D01*
X273398Y640268D01*
X273435Y640420D01*
X273457Y640573D01*
X273464Y640727D01*
X274464D01*
X274472Y640573D01*
D02*
G37*
G36*
X275064Y636553D02*
X274938Y636407D01*
X274827Y636260D01*
X274731Y636111D01*
X274649Y635962D01*
X274583Y635812D01*
X274531Y635661D01*
X274494Y635508D01*
X274472Y635356D01*
X274464Y635202D01*
X273464D01*
X273457Y635356D01*
X273435Y635508D01*
X273398Y635661D01*
X273346Y635812D01*
X273279Y635962D01*
X273198Y636111D01*
X273101Y636260D01*
X272990Y636407D01*
X272865Y636553D01*
X272724Y636699D01*
X275204D01*
X275064Y636553D01*
D02*
G37*
G36*
X274472Y630073D02*
X274494Y629920D01*
X274531Y629768D01*
X274583Y629617D01*
X274649Y629466D01*
X274731Y629317D01*
X274827Y629169D01*
X274938Y629021D01*
X275064Y628875D01*
X275204Y628729D01*
X272724D01*
X272865Y628875D01*
X272990Y629021D01*
X273101Y629169D01*
X273198Y629317D01*
X273279Y629466D01*
X273346Y629617D01*
X273398Y629768D01*
X273435Y629920D01*
X273457Y630073D01*
X273464Y630227D01*
X274464D01*
X274472Y630073D01*
D02*
G37*
G36*
X256673Y626209D02*
X256387Y626492D01*
X255611Y627163D01*
X255379Y627327D01*
X255161Y627461D01*
X254956Y627566D01*
X254765Y627640D01*
X254587Y627685D01*
X254423Y627700D01*
Y628300D01*
X254587Y628315D01*
X254765Y628360D01*
X254956Y628434D01*
X255161Y628539D01*
X255379Y628673D01*
X255611Y628837D01*
X255856Y629031D01*
X256387Y629508D01*
X256673Y629791D01*
Y626209D01*
D02*
G37*
G36*
X275064Y626053D02*
X274938Y625907D01*
X274827Y625760D01*
X274731Y625611D01*
X274649Y625462D01*
X274583Y625312D01*
X274531Y625161D01*
X274494Y625008D01*
X274472Y624856D01*
X274464Y624701D01*
X273464D01*
X273457Y624856D01*
X273435Y625008D01*
X273398Y625161D01*
X273346Y625312D01*
X273279Y625462D01*
X273198Y625611D01*
X273101Y625760D01*
X272990Y625907D01*
X272865Y626053D01*
X272724Y626199D01*
X275204D01*
X275064Y626053D01*
D02*
G37*
G36*
X274472Y620073D02*
X274494Y619920D01*
X274531Y619768D01*
X274583Y619617D01*
X274649Y619466D01*
X274731Y619317D01*
X274827Y619169D01*
X274938Y619021D01*
X275064Y618875D01*
X275204Y618729D01*
X272724D01*
X272865Y618875D01*
X272990Y619021D01*
X273101Y619169D01*
X273198Y619317D01*
X273279Y619466D01*
X273346Y619617D01*
X273398Y619768D01*
X273435Y619920D01*
X273457Y620073D01*
X273464Y620227D01*
X274464D01*
X274472Y620073D01*
D02*
G37*
G36*
X256673Y616209D02*
X256387Y616492D01*
X255611Y617163D01*
X255379Y617327D01*
X255161Y617461D01*
X254956Y617566D01*
X254765Y617640D01*
X254587Y617685D01*
X254423Y617700D01*
Y618300D01*
X254587Y618315D01*
X254765Y618360D01*
X254956Y618434D01*
X255161Y618539D01*
X255379Y618673D01*
X255611Y618837D01*
X255856Y619031D01*
X256387Y619508D01*
X256673Y619791D01*
Y616209D01*
D02*
G37*
G36*
X275164Y616161D02*
X275021Y616021D01*
X274892Y615879D01*
X274779Y615736D01*
X274681Y615591D01*
X274598Y615445D01*
X274530Y615296D01*
X274477Y615146D01*
X274439Y614995D01*
X274417Y614841D01*
X274409Y614686D01*
X273409Y614719D01*
X273402Y614872D01*
X273380Y615024D01*
X273344Y615176D01*
X273293Y615329D01*
X273228Y615481D01*
X273148Y615633D01*
X273054Y615784D01*
X272946Y615936D01*
X272823Y616087D01*
X272685Y616238D01*
X275164Y616161D01*
D02*
G37*
G36*
X274409Y610210D02*
X274416Y610057D01*
X274438Y609904D01*
X274474Y609752D01*
X274525Y609600D01*
X274590Y609448D01*
X274670Y609296D01*
X274764Y609144D01*
X274872Y608993D01*
X274995Y608841D01*
X275133Y608690D01*
X272654Y608767D01*
X272797Y608907D01*
X272926Y609049D01*
X273039Y609192D01*
X273137Y609337D01*
X273220Y609484D01*
X273288Y609632D01*
X273341Y609782D01*
X273379Y609934D01*
X273401Y610087D01*
X273409Y610242D01*
X274409Y610210D01*
D02*
G37*
G36*
X256571Y606319D02*
X256333Y606581D01*
X255879Y607023D01*
X255662Y607203D01*
X255451Y607355D01*
X255248Y607479D01*
X255051Y607576D01*
X254860Y607645D01*
X254677Y607686D01*
X254500Y607700D01*
Y608300D01*
X254677Y608314D01*
X254860Y608355D01*
X255051Y608424D01*
X255248Y608521D01*
X255451Y608645D01*
X255662Y608797D01*
X255879Y608977D01*
X256103Y609184D01*
X256571Y609681D01*
Y606319D01*
D02*
G37*
G36*
X336614Y596568D02*
X336645Y596111D01*
X336674Y595910D01*
X336712Y595725D01*
X336759Y595558D01*
X336815Y595409D01*
X336881Y595277D01*
X336955Y595163D01*
X337039Y595066D01*
X336614Y594642D01*
X336518Y594725D01*
X336403Y594800D01*
X336271Y594865D01*
X336122Y594921D01*
X335955Y594969D01*
X335771Y595007D01*
X335569Y595036D01*
X335112Y595067D01*
X334858Y595069D01*
X336612Y596822D01*
X336614Y596568D01*
D02*
G37*
G36*
X337771Y590886D02*
X338116Y590585D01*
X338279Y590463D01*
X338436Y590359D01*
X338588Y590275D01*
X338733Y590209D01*
X338873Y590162D01*
X339006Y590134D01*
X339134Y590124D01*
Y589524D01*
X339006Y589515D01*
X338873Y589487D01*
X338733Y589440D01*
X338588Y589374D01*
X338436Y589289D01*
X338279Y589186D01*
X338116Y589064D01*
X337771Y588763D01*
X337590Y588584D01*
Y591065D01*
X337771Y590886D01*
D02*
G37*
G36*
X337947Y580193D02*
X337692Y580191D01*
X337235Y580160D01*
X337034Y580131D01*
X336849Y580092D01*
X336682Y580045D01*
X336533Y579989D01*
X336401Y579924D01*
X336287Y579849D01*
X336190Y579766D01*
X335766Y580190D01*
X335849Y580287D01*
X335924Y580401D01*
X335989Y580533D01*
X336045Y580682D01*
X336092Y580849D01*
X336131Y581034D01*
X336160Y581236D01*
X336191Y581692D01*
X336193Y581947D01*
X337947Y580193D01*
D02*
G37*
G36*
X586025Y569227D02*
X585971Y569279D01*
X585901Y569325D01*
X585815Y569366D01*
X585713Y569402D01*
X585596Y569432D01*
X585463Y569456D01*
X585314Y569476D01*
X584968Y569497D01*
X584771Y569500D01*
X584943Y571500D01*
X585141Y571502D01*
X585773Y571550D01*
X585890Y571572D01*
X585992Y571599D01*
X586077Y571629D01*
X586147Y571663D01*
X586200Y571701D01*
X586025Y569227D01*
D02*
G37*
G36*
X588923Y571259D02*
X588987Y571204D01*
X589069Y571156D01*
X589166Y571115D01*
X589280Y571080D01*
X589410Y571051D01*
X589557Y571029D01*
X589720Y571013D01*
X590096Y571000D01*
X589555Y569000D01*
X589355Y568999D01*
X588524Y568949D01*
X588448Y568933D01*
X588390Y568915D01*
X588349Y568895D01*
X588874Y571319D01*
X588923Y571259D01*
D02*
G37*
G36*
X353674Y563250D02*
X353498Y563430D01*
X353161Y563734D01*
X353001Y563858D01*
X352846Y563963D01*
X352696Y564048D01*
X352551Y564115D01*
X352412Y564162D01*
X352278Y564190D01*
X352149Y564200D01*
X352162Y564800D01*
X352288Y564809D01*
X352421Y564837D01*
X352560Y564884D01*
X352706Y564949D01*
X352859Y565032D01*
X353019Y565135D01*
X353185Y565255D01*
X353538Y565553D01*
X353724Y565730D01*
X353674Y563250D01*
D02*
G37*
G36*
X570377Y491703D02*
X570413Y491207D01*
X570435Y491073D01*
X570462Y490955D01*
X570493Y490852D01*
X570529Y490766D01*
X570570Y490695D01*
X570615Y490640D01*
X568135D01*
X568181Y490695D01*
X568221Y490766D01*
X568257Y490852D01*
X568289Y490955D01*
X568315Y491073D01*
X568337Y491207D01*
X568365Y491522D01*
X568375Y491900D01*
X570375D01*
X570377Y491703D01*
D02*
G37*
G36*
X587922Y358759D02*
X587987Y358704D01*
X588068Y358656D01*
X588166Y358615D01*
X588280Y358580D01*
X588410Y358551D01*
X588557Y358529D01*
X588720Y358513D01*
X589096Y358500D01*
X588555Y356500D01*
X588355Y356499D01*
X587525Y356449D01*
X587448Y356433D01*
X587390Y356415D01*
X587349Y356395D01*
X587874Y358819D01*
X587922Y358759D01*
D02*
G37*
G36*
X585401Y356395D02*
X585360Y356415D01*
X585302Y356433D01*
X585225Y356449D01*
X585132Y356462D01*
X584890Y356483D01*
X584395Y356499D01*
X584195Y356500D01*
X583654Y358500D01*
X583850Y358503D01*
X584193Y358529D01*
X584340Y358551D01*
X584470Y358580D01*
X584584Y358615D01*
X584682Y358656D01*
X584763Y358704D01*
X584828Y358759D01*
X584876Y358819D01*
X585401Y356395D01*
D02*
G37*
G36*
X569877Y278703D02*
X569913Y278207D01*
X569935Y278073D01*
X569962Y277955D01*
X569993Y277853D01*
X570029Y277766D01*
X570070Y277695D01*
X570115Y277640D01*
X567635D01*
X567681Y277695D01*
X567721Y277766D01*
X567757Y277853D01*
X567789Y277955D01*
X567815Y278073D01*
X567837Y278207D01*
X567865Y278522D01*
X567875Y278900D01*
X569875D01*
X569877Y278703D01*
D02*
G37*
G36*
X587423Y145759D02*
X587487Y145704D01*
X587569Y145656D01*
X587666Y145615D01*
X587780Y145580D01*
X587910Y145551D01*
X588057Y145529D01*
X588220Y145513D01*
X588596Y145500D01*
X588055Y143500D01*
X587855Y143499D01*
X587024Y143449D01*
X586948Y143433D01*
X586890Y143415D01*
X586849Y143395D01*
X587374Y145819D01*
X587423Y145759D01*
D02*
G37*
%LPC*%
G36*
X684500Y924626D02*
X679413Y922519D01*
X684500Y917432D01*
X689587Y922519D01*
X684500Y924626D01*
D02*
G37*
G36*
X664400D02*
X659313Y922519D01*
X664400Y917432D01*
X669487Y922519D01*
X664400Y924626D01*
D02*
G37*
G36*
X464584Y922309D02*
X456316D01*
Y914041D01*
X464584D01*
Y922309D01*
D02*
G37*
G36*
X450450Y922649D02*
X447286Y921339D01*
X445976Y918175D01*
X447286Y915011D01*
X450450Y913700D01*
X453614Y915011D01*
X454924Y918175D01*
X453614Y921339D01*
X450450Y922649D01*
D02*
G37*
G36*
X433950Y924324D02*
X429602Y922523D01*
X427801Y918175D01*
X428164Y917297D01*
X428149Y916836D01*
X428051Y915765D01*
X427983Y915357D01*
X427901Y915006D01*
X427814Y914730D01*
X427728Y914533D01*
X427719Y914517D01*
X420663Y907462D01*
X420130Y906175D01*
Y832675D01*
X420663Y831388D01*
X428219Y823833D01*
X428228Y823817D01*
X428314Y823620D01*
X428401Y823344D01*
X428483Y822993D01*
X428533Y822696D01*
X428123Y822386D01*
X427809Y822182D01*
X427544Y822035D01*
X427353Y821951D01*
X427319Y821941D01*
X417858D01*
X417851Y821945D01*
X417784Y821994D01*
X417713Y822055D01*
X417477Y822295D01*
X417429Y822351D01*
X417260Y822760D01*
X415000Y823696D01*
X412740Y822760D01*
X411804Y820500D01*
X412740Y818240D01*
X415000Y817304D01*
X417260Y818240D01*
X417357Y818475D01*
X417594Y818637D01*
X417688Y818692D01*
X417770Y818734D01*
X417772Y818734D01*
X427311D01*
X427350Y818723D01*
X427528Y818641D01*
X427773Y818497D01*
X428073Y818288D01*
X428399Y818029D01*
X429701Y816794D01*
X430102Y815827D01*
X434450Y814026D01*
X438798Y815827D01*
X440599Y820175D01*
X438798Y824523D01*
X434450Y826324D01*
X433572Y825961D01*
X433111Y825976D01*
X432040Y826074D01*
X431632Y826142D01*
X431281Y826224D01*
X431005Y826311D01*
X430808Y826397D01*
X430793Y826406D01*
X423770Y833429D01*
Y905421D01*
X430293Y911944D01*
X430308Y911953D01*
X430505Y912039D01*
X430781Y912126D01*
X431132Y912208D01*
X431527Y912274D01*
X433086Y912384D01*
X433950Y912026D01*
X438298Y913827D01*
X440099Y918175D01*
X438298Y922523D01*
X433950Y924324D01*
D02*
G37*
G36*
X658606Y921811D02*
X656499Y916725D01*
X658606Y911638D01*
X663693Y916725D01*
X658606Y921811D01*
D02*
G37*
G36*
X690294Y921812D02*
X685207Y916725D01*
X690294Y911638D01*
X692401Y916725D01*
X690294Y921812D01*
D02*
G37*
G36*
X733950Y912422D02*
X731425Y911376D01*
X733950Y908851D01*
X736475Y911376D01*
X733950Y912422D01*
D02*
G37*
G36*
X670194Y921812D02*
X664753Y916371D01*
X659313Y910931D01*
X664400Y908824D01*
X668001Y910316D01*
X668354Y909962D01*
X666993Y906675D01*
X668354Y903388D01*
X668001Y903034D01*
X664400Y904526D01*
X659313Y902419D01*
X664753Y896978D01*
X670194Y891538D01*
X672301Y896625D01*
X670809Y900226D01*
X671163Y900579D01*
X674450Y899218D01*
X677737Y900579D01*
X678091Y900226D01*
X676599Y896625D01*
X678706Y891538D01*
X684146Y896978D01*
X689587Y902419D01*
X684500Y904526D01*
X680899Y903034D01*
X680546Y903388D01*
X681907Y906675D01*
X680546Y909962D01*
X680899Y910316D01*
X684500Y908824D01*
X689586Y910931D01*
X684146Y916371D01*
X678706Y921811D01*
X676599Y916725D01*
X678091Y913124D01*
X677737Y912771D01*
X674450Y914132D01*
X671163Y912771D01*
X670809Y913124D01*
X672301Y916725D01*
X670194Y921812D01*
D02*
G37*
G36*
X737182Y910669D02*
X734304Y907790D01*
X733950Y908144D01*
X733597Y907790D01*
X730718Y910669D01*
X729672Y908144D01*
Y904206D01*
X730718Y901681D01*
X733597Y904560D01*
X733950Y904207D01*
X734304Y904560D01*
X737182Y901681D01*
X738228Y904206D01*
Y908144D01*
X737182Y910669D01*
D02*
G37*
G36*
X635584Y911309D02*
X627316D01*
Y903041D01*
X635584D01*
Y911309D01*
D02*
G37*
G36*
X621450Y911650D02*
X618286Y910339D01*
X616976Y907175D01*
X618286Y904011D01*
X621450Y902701D01*
X624614Y904011D01*
X625924Y907175D01*
X624614Y910339D01*
X621450Y911650D01*
D02*
G37*
G36*
X724450Y910010D02*
X721738Y908887D01*
X720615Y906175D01*
X721738Y903463D01*
X724450Y902340D01*
X727162Y903463D01*
X728285Y906175D01*
X727162Y908887D01*
X724450Y910010D01*
D02*
G37*
G36*
X604450Y913324D02*
X600102Y911523D01*
X598301Y907175D01*
X600102Y902827D01*
X600927Y902485D01*
X600830Y901995D01*
X583047D01*
X583018Y902007D01*
X582958Y902040D01*
X582888Y902086D01*
X582839Y902122D01*
X582710Y902435D01*
X580450Y903371D01*
X578190Y902435D01*
X577254Y900175D01*
X578190Y897915D01*
X580450Y896979D01*
X582710Y897915D01*
X582839Y898228D01*
X582888Y898264D01*
X582958Y898310D01*
X583018Y898343D01*
X583047Y898355D01*
X602950D01*
X604237Y898888D01*
X605737Y900388D01*
X606270Y901675D01*
Y901779D01*
X608798Y902827D01*
X610599Y907175D01*
X608798Y911523D01*
X604450Y913324D01*
D02*
G37*
G36*
X647450Y912824D02*
X643102Y911023D01*
X641301Y906675D01*
X643102Y902327D01*
X647450Y900526D01*
X651798Y902327D01*
X653599Y906675D01*
X651798Y911023D01*
X647450Y912824D01*
D02*
G37*
G36*
X733950Y903500D02*
X731425Y900974D01*
X733950Y899928D01*
X736475Y900974D01*
X733950Y903500D01*
D02*
G37*
G36*
X713950Y920675D02*
X697950D01*
Y892175D01*
X713950D01*
Y894417D01*
X716576D01*
X719740Y895728D01*
X721050Y898892D01*
X719740Y902055D01*
X716576Y903366D01*
X713950D01*
Y908984D01*
X716576D01*
X719740Y910295D01*
X721050Y913459D01*
X719740Y916622D01*
X716576Y917933D01*
X713950D01*
Y920675D01*
D02*
G37*
G36*
X658606Y901711D02*
X656499Y896625D01*
X658606Y891538D01*
X663693Y896625D01*
X658606Y901711D01*
D02*
G37*
G36*
X690294Y901712D02*
X685207Y896625D01*
X690294Y891538D01*
X692401Y896625D01*
X690294Y901712D01*
D02*
G37*
G36*
X684500Y895918D02*
X679413Y890831D01*
X684500Y888724D01*
X689586Y890831D01*
X684500Y895918D01*
D02*
G37*
G36*
X664400D02*
X659313Y890831D01*
X664400Y888724D01*
X669487Y890831D01*
X664400Y895918D01*
D02*
G37*
G36*
X455084Y891309D02*
X446816D01*
Y883041D01*
X455084D01*
Y891309D01*
D02*
G37*
G36*
X460950Y891650D02*
X457786Y890339D01*
X456476Y887175D01*
X457786Y884011D01*
X460950Y882701D01*
X464114Y884011D01*
X465424Y887175D01*
X464114Y890339D01*
X460950Y891650D01*
D02*
G37*
G36*
X433950Y892824D02*
X429602Y891023D01*
X427801Y886675D01*
X429602Y882327D01*
X433950Y880526D01*
X438298Y882327D01*
X440099Y886675D01*
X438298Y891023D01*
X433950Y892824D01*
D02*
G37*
G36*
X570200Y879621D02*
X567940Y878685D01*
X567004Y876425D01*
X567940Y874165D01*
X570200Y873229D01*
X572460Y874165D01*
X573396Y876425D01*
X572460Y878685D01*
X570200Y879621D01*
D02*
G37*
G36*
X684500Y855501D02*
X679413Y853394D01*
X684500Y848307D01*
X689587Y853394D01*
X684500Y855501D01*
D02*
G37*
G36*
X664400D02*
X659313Y853394D01*
X664400Y848307D01*
X669487Y853394D01*
X664400Y855501D01*
D02*
G37*
G36*
X658606Y852687D02*
X656499Y847600D01*
X658606Y842513D01*
X663693Y847600D01*
X658606Y852687D01*
D02*
G37*
G36*
X690294Y852687D02*
X685207Y847600D01*
X690294Y842513D01*
X692401Y847600D01*
X690294Y852687D01*
D02*
G37*
G36*
X670194D02*
X664753Y847246D01*
X659313Y841806D01*
X664400Y839699D01*
X668001Y841191D01*
X668354Y840837D01*
X666993Y837550D01*
X668354Y834263D01*
X668001Y833909D01*
X664400Y835401D01*
X659313Y833294D01*
X664753Y827853D01*
X670194Y822413D01*
X672301Y827500D01*
X670809Y831101D01*
X671163Y831454D01*
X674450Y830093D01*
X677737Y831454D01*
X678091Y831101D01*
X676599Y827500D01*
X678706Y822413D01*
X684146Y827853D01*
X689587Y833294D01*
X684500Y835401D01*
X680899Y833909D01*
X680546Y834263D01*
X681907Y837550D01*
X680546Y840837D01*
X680899Y841191D01*
X684500Y839699D01*
X689587Y841806D01*
X684146Y847246D01*
X678706Y852687D01*
X676599Y847600D01*
X678091Y843999D01*
X677737Y843646D01*
X674450Y845007D01*
X671163Y843646D01*
X670809Y843999D01*
X672301Y847600D01*
X670194Y852687D01*
D02*
G37*
G36*
X649450Y843324D02*
X645102Y841523D01*
X643301Y837175D01*
X645102Y832827D01*
X649450Y831026D01*
X653798Y832827D01*
X655599Y837175D01*
X653798Y841523D01*
X649450Y843324D01*
D02*
G37*
G36*
X658606Y832587D02*
X656499Y827500D01*
X658606Y822413D01*
X663693Y827500D01*
X658606Y832587D01*
D02*
G37*
G36*
X690294Y832587D02*
X685207Y827500D01*
X690294Y822413D01*
X692401Y827500D01*
X690294Y832587D01*
D02*
G37*
G36*
X684500Y826793D02*
X679413Y821706D01*
X684500Y819599D01*
X689587Y821706D01*
X684500Y826793D01*
D02*
G37*
G36*
X664400D02*
X659313Y821706D01*
X664400Y819599D01*
X669487Y821706D01*
X664400Y826793D01*
D02*
G37*
G36*
X635084Y824809D02*
X626816D01*
Y816541D01*
X635084D01*
Y824809D01*
D02*
G37*
G36*
X620950Y825150D02*
X617786Y823839D01*
X616476Y820675D01*
X617786Y817511D01*
X620950Y816201D01*
X624114Y817511D01*
X625424Y820675D01*
X624114Y823839D01*
X620950Y825150D01*
D02*
G37*
G36*
X466584Y824309D02*
X458316D01*
Y816041D01*
X466584D01*
Y824309D01*
D02*
G37*
G36*
X452450Y824650D02*
X449286Y823339D01*
X447976Y820175D01*
X449286Y817011D01*
X452450Y815701D01*
X455614Y817011D01*
X456924Y820175D01*
X455614Y823339D01*
X452450Y824650D01*
D02*
G37*
G36*
X602950Y826824D02*
X598602Y825023D01*
X596801Y820675D01*
X598602Y816327D01*
X602950Y814526D01*
X607298Y816327D01*
X609099Y820675D01*
X607298Y825023D01*
X602950Y826824D01*
D02*
G37*
G36*
X733950Y809922D02*
X731425Y808876D01*
X733950Y806351D01*
X736475Y808876D01*
X733950Y809922D01*
D02*
G37*
G36*
X737182Y808169D02*
X734304Y805290D01*
X733950Y805644D01*
X733597Y805290D01*
X730718Y808169D01*
X729672Y805643D01*
Y801707D01*
X730718Y799181D01*
X733597Y802060D01*
X733950Y801707D01*
X734304Y802060D01*
X737182Y799181D01*
X738228Y801707D01*
Y805643D01*
X737182Y808169D01*
D02*
G37*
G36*
X724450Y807510D02*
X721738Y806387D01*
X720615Y803675D01*
X721738Y800963D01*
X724450Y799840D01*
X727162Y800963D01*
X728285Y803675D01*
X727162Y806387D01*
X724450Y807510D01*
D02*
G37*
G36*
X733950Y801000D02*
X731425Y798474D01*
X733950Y797428D01*
X736475Y798474D01*
X733950Y801000D01*
D02*
G37*
G36*
X215500Y804974D02*
X212336Y803664D01*
X211026Y800500D01*
X212336Y797336D01*
X215500Y796026D01*
X218664Y797336D01*
X219974Y800500D01*
X218664Y803664D01*
X215500Y804974D01*
D02*
G37*
G36*
X218746Y794453D02*
X212254D01*
X215500Y791207D01*
X218746Y794453D01*
D02*
G37*
G36*
X713950Y818175D02*
X697950D01*
Y789675D01*
X713950D01*
Y791917D01*
X716576D01*
X719740Y793228D01*
X721050Y796391D01*
X719740Y799555D01*
X716576Y800866D01*
X713950D01*
Y806484D01*
X716576D01*
X719740Y807794D01*
X721050Y810958D01*
X719740Y814122D01*
X716576Y815433D01*
X713950D01*
Y818175D01*
D02*
G37*
G36*
X588660Y795411D02*
X586400Y794475D01*
X585464Y792215D01*
X586400Y789955D01*
X588660Y789019D01*
X590920Y789955D01*
X591856Y792215D01*
X590920Y794475D01*
X588660Y795411D01*
D02*
G37*
G36*
X219453Y793746D02*
X216207Y790500D01*
X219453Y787254D01*
Y788680D01*
X229932D01*
X230015Y788675D01*
X230325Y788635D01*
X230595Y788583D01*
X230716Y788553D01*
X230733Y788555D01*
X230747Y788545D01*
X231215Y788626D01*
X231684Y788694D01*
X231694Y788708D01*
X231711Y788711D01*
X231985Y789099D01*
X232268Y789479D01*
X232266Y789496D01*
X232276Y789510D01*
X232248Y789674D01*
X232787Y790213D01*
X233320Y791500D01*
X232787Y792787D01*
X231500Y793320D01*
X230344Y792841D01*
X230047Y793054D01*
X230042Y793053D01*
X230037Y793056D01*
X229561Y792975D01*
X229082Y792896D01*
X229079Y792892D01*
X229073Y792891D01*
X228794Y792495D01*
X228668Y792320D01*
X219453D01*
Y793746D01*
D02*
G37*
G36*
X625084Y796809D02*
X616816D01*
Y788541D01*
X625084D01*
Y796809D01*
D02*
G37*
G36*
X630950Y797149D02*
X627786Y795839D01*
X626476Y792675D01*
X627786Y789511D01*
X630950Y788201D01*
X634114Y789511D01*
X635424Y792675D01*
X634114Y795839D01*
X630950Y797149D01*
D02*
G37*
G36*
X211547Y793746D02*
Y787254D01*
X214793Y790500D01*
X211547Y793746D01*
D02*
G37*
G36*
X215500Y789793D02*
X212254Y786547D01*
X218746D01*
X215500Y789793D01*
D02*
G37*
G36*
X603450Y798824D02*
X599102Y797023D01*
X597301Y792675D01*
X599102Y788327D01*
X603450Y786526D01*
X607798Y788327D01*
X609599Y792675D01*
X607798Y797023D01*
X603450Y798824D01*
D02*
G37*
G36*
X435950Y784324D02*
X431602Y782523D01*
X431270Y781722D01*
X430892Y781375D01*
X430440Y780992D01*
X429619Y780367D01*
X429307Y780164D01*
X429043Y780017D01*
X428853Y779933D01*
X428818Y779923D01*
X414819D01*
X414807Y779929D01*
X414738Y779980D01*
X414665Y780042D01*
X414424Y780283D01*
X414392Y780320D01*
X414224Y780724D01*
X411964Y781660D01*
X409704Y780724D01*
X408768Y778464D01*
X409704Y776204D01*
X411964Y775268D01*
X414224Y776204D01*
X414326Y776451D01*
X414571Y776621D01*
X414663Y776676D01*
X414742Y776716D01*
X428811D01*
X428850Y776705D01*
X429029Y776623D01*
X429275Y776479D01*
X429576Y776270D01*
X429904Y776011D01*
X431205Y774784D01*
X431602Y773827D01*
X435950Y772026D01*
X440298Y773827D01*
X442099Y778175D01*
X440298Y782523D01*
X435950Y784324D01*
D02*
G37*
G36*
X684500Y786376D02*
X679414Y784269D01*
X684500Y779182D01*
X689587Y784269D01*
X684500Y786376D01*
D02*
G37*
G36*
X664400D02*
X659313Y784269D01*
X664400Y779182D01*
X669487Y784269D01*
X664400Y786376D01*
D02*
G37*
G36*
X458084Y783309D02*
X449816D01*
Y775041D01*
X458084D01*
Y783309D01*
D02*
G37*
G36*
X463950Y783649D02*
X460786Y782339D01*
X459476Y779175D01*
X460786Y776011D01*
X463950Y774701D01*
X467114Y776011D01*
X468424Y779175D01*
X467114Y782339D01*
X463950Y783649D01*
D02*
G37*
G36*
X678706Y783562D02*
X676599Y778475D01*
X678091Y774874D01*
X677737Y774521D01*
X674450Y775882D01*
X671163Y774521D01*
X670809Y774874D01*
X672301Y778475D01*
X670194Y783562D01*
X664754Y778122D01*
X659313Y772681D01*
X664400Y770574D01*
X668001Y772066D01*
X668354Y771712D01*
X666993Y768425D01*
X668354Y765138D01*
X668001Y764784D01*
X664400Y766276D01*
X659313Y764169D01*
X664754Y758729D01*
X670194Y753289D01*
X672301Y758375D01*
X670809Y761976D01*
X671163Y762329D01*
X674450Y760968D01*
X677737Y762329D01*
X678091Y761976D01*
X676599Y758375D01*
X678706Y753288D01*
X684146Y758729D01*
X684500Y758375D01*
D01*
X684146Y758729D01*
X689587Y764169D01*
X684500Y766276D01*
X680899Y764784D01*
X680546Y765138D01*
X681907Y768425D01*
X680546Y771712D01*
X680899Y772066D01*
X684500Y770574D01*
X689587Y772681D01*
X684146Y778122D01*
X678706Y783562D01*
D02*
G37*
G36*
X690294Y783562D02*
X685207Y778475D01*
X690294Y773388D01*
X692401Y778475D01*
X690294Y783562D01*
D02*
G37*
G36*
X658606Y783562D02*
X656499Y778475D01*
X658606Y773388D01*
X663693Y778475D01*
X658606Y783562D01*
D02*
G37*
G36*
X323500Y776278D02*
X320975Y775232D01*
X323500Y772707D01*
X326025Y775232D01*
X323500Y776278D01*
D02*
G37*
G36*
X326732Y774525D02*
X324207Y772000D01*
X326732Y769475D01*
X327778Y772000D01*
X326732Y774525D01*
D02*
G37*
G36*
X320268D02*
X319222Y772000D01*
X320268Y769475D01*
X322793Y772000D01*
X320268Y774525D01*
D02*
G37*
G36*
X323500Y771293D02*
X320975Y768768D01*
X323500Y767722D01*
X326025Y768768D01*
X323500Y771293D01*
D02*
G37*
G36*
X648950Y774324D02*
X644602Y772523D01*
X642801Y768175D01*
X644602Y763827D01*
X648950Y762026D01*
X653298Y763827D01*
X655099Y768175D01*
X653298Y772523D01*
X648950Y774324D01*
D02*
G37*
G36*
X386500Y766048D02*
X383637Y764863D01*
X382452Y762000D01*
X383637Y759137D01*
X386500Y757952D01*
X389363Y759137D01*
X390548Y762000D01*
X389363Y764863D01*
X386500Y766048D01*
D02*
G37*
G36*
X356500D02*
X353637Y764863D01*
X352452Y762000D01*
X353637Y759137D01*
X356500Y757952D01*
X359363Y759137D01*
X360548Y762000D01*
X359363Y764863D01*
X356500Y766048D01*
D02*
G37*
G36*
X690294Y763462D02*
X685207Y758375D01*
X690294Y753289D01*
X692401Y758375D01*
X690294Y763462D01*
D02*
G37*
G36*
X658606Y763462D02*
X656499Y758375D01*
X658606Y753288D01*
X663693Y758375D01*
X658606Y763462D01*
D02*
G37*
G36*
X684500Y757668D02*
X679413Y752581D01*
X684500Y750474D01*
X689587Y752581D01*
X684500Y757668D01*
D02*
G37*
G36*
X664400D02*
X659313Y752581D01*
X664400Y750474D01*
X669487Y752581D01*
X664400Y757668D01*
D02*
G37*
G36*
X390240Y755740D02*
X382760D01*
Y748260D01*
X390240D01*
Y755740D01*
D02*
G37*
G36*
X356500Y756048D02*
X353637Y754863D01*
X352452Y752000D01*
X353637Y749137D01*
X356500Y747952D01*
X359363Y749137D01*
X360548Y752000D01*
X359363Y754863D01*
X356500Y756048D01*
D02*
G37*
G36*
X664450Y710951D02*
X659363Y708844D01*
X664450Y703757D01*
X669537Y708844D01*
X664450Y710951D01*
D02*
G37*
G36*
X684550D02*
X679463Y708844D01*
X684550Y703757D01*
X689637Y708844D01*
X684550Y710951D01*
D02*
G37*
G36*
X464634Y708634D02*
X456366D01*
Y700366D01*
X464634D01*
Y708634D01*
D02*
G37*
G36*
X450500Y708974D02*
X447336Y707664D01*
X446026Y704500D01*
X447336Y701336D01*
X450500Y700026D01*
X453664Y701336D01*
X454974Y704500D01*
X453664Y707664D01*
X450500Y708974D01*
D02*
G37*
G36*
X434000Y710649D02*
X429652Y708848D01*
X429196Y707747D01*
X429026Y707536D01*
X428226Y706641D01*
X427887Y706310D01*
X427574Y706037D01*
X427301Y705831D01*
X427077Y705692D01*
X426914Y705615D01*
X426874Y705603D01*
X421000D01*
X419866Y705134D01*
X413366Y698634D01*
X412897Y697500D01*
Y661164D01*
X411336Y659603D01*
X402870D01*
X402840Y659636D01*
X402777Y659715D01*
X402705Y659821D01*
X402608Y659984D01*
X402496Y660068D01*
X402224Y660724D01*
X399964Y661660D01*
X397704Y660724D01*
X396768Y658464D01*
X397515Y656661D01*
X397663Y656183D01*
X397490Y655765D01*
X396727Y653923D01*
X397663Y651663D01*
X399923Y650727D01*
X402183Y651663D01*
X402320Y651994D01*
X402518Y652167D01*
X402612Y652237D01*
X402699Y652294D01*
X402744Y652320D01*
X415923D01*
X417056Y652789D01*
X419634Y655366D01*
X419680Y655479D01*
X420180Y655380D01*
Y619000D01*
X420713Y617713D01*
X428269Y610157D01*
X428278Y610142D01*
X428364Y609945D01*
X428451Y609669D01*
X428533Y609318D01*
X428599Y608923D01*
X428709Y607364D01*
X428351Y606500D01*
X430152Y602152D01*
X434500Y600351D01*
X438848Y602152D01*
X440649Y606500D01*
X438848Y610848D01*
X434500Y612649D01*
X433622Y612286D01*
X433161Y612301D01*
X432090Y612399D01*
X431682Y612467D01*
X431331Y612549D01*
X431055Y612636D01*
X430858Y612722D01*
X430842Y612731D01*
X423820Y619754D01*
Y691746D01*
X430342Y698269D01*
X430358Y698278D01*
X430555Y698364D01*
X430831Y698451D01*
X431182Y698533D01*
X431577Y698599D01*
X433136Y698709D01*
X434000Y698351D01*
X438348Y700152D01*
X440149Y704500D01*
X438348Y708848D01*
X434000Y710649D01*
D02*
G37*
G36*
X658656Y708137D02*
X656549Y703050D01*
X658656Y697963D01*
X663743Y703050D01*
X658656Y708137D01*
D02*
G37*
G36*
X690344Y708137D02*
X685257Y703050D01*
X690344Y697963D01*
X692451Y703050D01*
X690344Y708137D01*
D02*
G37*
G36*
X734000Y698747D02*
X731475Y697701D01*
X734000Y695176D01*
X736525Y697701D01*
X734000Y698747D01*
D02*
G37*
G36*
X670244Y708137D02*
X664804Y702697D01*
X659363Y697256D01*
X664450Y695149D01*
X668051Y696641D01*
X668404Y696287D01*
X667043Y693000D01*
X668404Y689713D01*
X668051Y689359D01*
X664450Y690851D01*
X659363Y688744D01*
X664804Y683303D01*
X670244Y677863D01*
X672351Y682950D01*
X670859Y686551D01*
X671213Y686904D01*
X674500Y685543D01*
X677787Y686904D01*
X678141Y686551D01*
X676649Y682950D01*
X678756Y677863D01*
X684197Y683303D01*
X689637Y688744D01*
X684550Y690851D01*
X680949Y689359D01*
X680596Y689713D01*
X681957Y693000D01*
X680596Y696287D01*
X680949Y696641D01*
X684550Y695149D01*
X689637Y697256D01*
X684197Y702697D01*
X678756Y708137D01*
X676649Y703050D01*
X678141Y699449D01*
X677787Y699096D01*
X674500Y700457D01*
X671213Y699096D01*
X670859Y699449D01*
X672351Y703050D01*
X670244Y708137D01*
D02*
G37*
G36*
X737232Y696994D02*
X734353Y694115D01*
X734000Y694468D01*
X733646Y694115D01*
X730768Y696994D01*
X729722Y694468D01*
Y690531D01*
X730768Y688006D01*
X733646Y690885D01*
X734000Y690531D01*
X734353Y690885D01*
X737232Y688006D01*
X738278Y690531D01*
Y694468D01*
X737232Y696994D01*
D02*
G37*
G36*
X635634Y697634D02*
X627366D01*
Y689366D01*
X635634D01*
Y697634D01*
D02*
G37*
G36*
X621500Y697974D02*
X618336Y696664D01*
X617026Y693500D01*
X618336Y690336D01*
X621500Y689026D01*
X624664Y690336D01*
X625974Y693500D01*
X624664Y696664D01*
X621500Y697974D01*
D02*
G37*
G36*
X724500Y696335D02*
X721788Y695212D01*
X720665Y692500D01*
X721788Y689788D01*
X724500Y688665D01*
X727212Y689788D01*
X728335Y692500D01*
X727212Y695212D01*
X724500Y696335D01*
D02*
G37*
G36*
X604500Y699649D02*
X600152Y697848D01*
X598351Y693500D01*
X600152Y689152D01*
X600977Y688810D01*
X600880Y688320D01*
X583097D01*
X583069Y688332D01*
X583008Y688366D01*
X582938Y688411D01*
X582889Y688447D01*
X582760Y688760D01*
X580500Y689696D01*
X578240Y688760D01*
X577304Y686500D01*
X578240Y684240D01*
X580500Y683304D01*
X582760Y684240D01*
X582889Y684553D01*
X582938Y684589D01*
X583008Y684634D01*
X583069Y684668D01*
X583097Y684680D01*
X603000D01*
X604287Y685213D01*
X605787Y686713D01*
X606320Y688000D01*
Y688104D01*
X608848Y689152D01*
X610649Y693500D01*
X608848Y697848D01*
X604500Y699649D01*
D02*
G37*
G36*
X647500Y699149D02*
X643152Y697348D01*
X641351Y693000D01*
X643152Y688652D01*
X647500Y686851D01*
X651848Y688652D01*
X653649Y693000D01*
X651848Y697348D01*
X647500Y699149D01*
D02*
G37*
G36*
X734000Y689824D02*
X731475Y687299D01*
X734000Y686253D01*
X736525Y687299D01*
X734000Y689824D01*
D02*
G37*
G36*
X714000Y707000D02*
X698000D01*
Y678500D01*
X714000D01*
Y680742D01*
X716626D01*
X719790Y682053D01*
X721100Y685217D01*
X719790Y688380D01*
X716626Y689691D01*
X714000D01*
Y695309D01*
X716626D01*
X719790Y696620D01*
X721100Y699784D01*
X719790Y702947D01*
X716626Y704258D01*
X714000D01*
Y707000D01*
D02*
G37*
G36*
X658656Y688037D02*
X656549Y682950D01*
X658656Y677863D01*
X663743Y682950D01*
X658656Y688037D01*
D02*
G37*
G36*
X690344Y688037D02*
X685257Y682950D01*
X690344Y677863D01*
X692451Y682950D01*
X690344Y688037D01*
D02*
G37*
G36*
X684550Y682243D02*
X679463Y677156D01*
X684550Y675049D01*
X689637Y677156D01*
X684550Y682243D01*
D02*
G37*
G36*
X664450D02*
X659363Y677156D01*
X664450Y675049D01*
X669537Y677156D01*
X664450Y682243D01*
D02*
G37*
G36*
X377870Y675331D02*
X375500D01*
Y673059D01*
X377870D01*
Y675331D01*
D02*
G37*
G36*
X374500D02*
X372130D01*
Y673059D01*
X374500D01*
Y675331D01*
D02*
G37*
G36*
X455134Y677634D02*
X446866D01*
Y669366D01*
X455134D01*
Y677634D01*
D02*
G37*
G36*
X461000Y677974D02*
X457836Y676664D01*
X456526Y673500D01*
X457836Y670336D01*
X461000Y669026D01*
X464164Y670336D01*
X465474Y673500D01*
X464164Y676664D01*
X461000Y677974D01*
D02*
G37*
G36*
X434000Y679149D02*
X429652Y677348D01*
X427851Y673000D01*
X429652Y668652D01*
X434000Y666851D01*
X438348Y668652D01*
X440149Y673000D01*
X438348Y677348D01*
X434000Y679149D01*
D02*
G37*
G36*
X377870Y672059D02*
X372130D01*
Y670394D01*
X371949D01*
Y667850D01*
X371804Y667500D01*
X371949Y667150D01*
Y664488D01*
X374555D01*
X375000Y664304D01*
X375445Y664488D01*
X378051D01*
Y667150D01*
X378196Y667500D01*
X378051Y667850D01*
Y670394D01*
X377870D01*
Y672059D01*
D02*
G37*
G36*
X570250Y665946D02*
X567990Y665010D01*
X567054Y662750D01*
X567990Y660490D01*
X570250Y659554D01*
X572510Y660490D01*
X573446Y662750D01*
X572510Y665010D01*
X570250Y665946D01*
D02*
G37*
G36*
X384677Y663051D02*
Y659500D01*
X387835D01*
Y663051D01*
X384677D01*
D02*
G37*
G36*
X380339Y663232D02*
X380095Y663232D01*
X372661D01*
Y654768D01*
X372799D01*
X373244Y654634D01*
Y652103D01*
X359946D01*
X359260Y653760D01*
X357000Y654696D01*
X354740Y653760D01*
X353804Y651500D01*
X354740Y649240D01*
X357000Y648304D01*
X358614Y648973D01*
X358797Y648897D01*
X373244D01*
Y646366D01*
X374397D01*
Y644756D01*
X357890D01*
X357875Y644768D01*
X357813Y644829D01*
X357737Y644916D01*
X357650Y645029D01*
X357537Y645193D01*
X357479Y645230D01*
X357260Y645760D01*
X355000Y646696D01*
X352740Y645760D01*
X351804Y643500D01*
X352740Y641240D01*
X355000Y640304D01*
X356527Y640937D01*
X356707Y640972D01*
X356860Y641075D01*
X357260Y641240D01*
X357306Y641350D01*
X357586Y641499D01*
X357678Y641540D01*
X357704Y641550D01*
X373244D01*
Y636366D01*
X373161Y636232D01*
X373161D01*
Y627768D01*
X380595D01*
X380839Y627768D01*
X381264Y627949D01*
X384177D01*
Y632000D01*
X384677D01*
Y632500D01*
X388335D01*
Y636051D01*
X387246D01*
X387236Y636547D01*
X387236Y636551D01*
Y640000D01*
X384661D01*
X382087D01*
Y636551D01*
X382087Y636547D01*
X382077Y636051D01*
X381264D01*
X380839Y636232D01*
X380595Y636232D01*
X379201D01*
X378756Y636366D01*
Y637346D01*
X378841Y637546D01*
X378808Y637627D01*
X378832Y637712D01*
X378756Y637847D01*
Y644634D01*
X377603D01*
Y646366D01*
X378756D01*
Y654634D01*
X379201Y654768D01*
X380339Y654768D01*
X380764Y654949D01*
X382077D01*
X382087Y654453D01*
X382087Y654449D01*
Y651000D01*
X384661D01*
X387236D01*
Y654449D01*
X387236Y654453D01*
X387246Y654949D01*
X387835D01*
Y658500D01*
X384177D01*
Y659000D01*
X383677D01*
Y663051D01*
X380764D01*
X380339Y663232D01*
D02*
G37*
G36*
X387236Y650000D02*
X385161D01*
Y646547D01*
X387236D01*
Y650000D01*
D02*
G37*
G36*
X384161D02*
X382087D01*
Y646547D01*
X384161D01*
Y650000D01*
D02*
G37*
G36*
X408856Y646052D02*
X406596Y645116D01*
X406272Y644334D01*
X406121Y644206D01*
X406039Y644046D01*
X405980Y643948D01*
X405936Y643887D01*
X402605D01*
X402559Y643912D01*
X402473Y643969D01*
X402379Y644039D01*
X402181Y644212D01*
X402044Y644544D01*
X399784Y645480D01*
X397524Y644544D01*
X396588Y642284D01*
X397524Y640024D01*
X397524Y640023D01*
X396603Y637799D01*
X397539Y635539D01*
X399799Y634603D01*
X402059Y635539D01*
X402196Y635870D01*
X402394Y636043D01*
X402488Y636113D01*
X402574Y636170D01*
X402620Y636196D01*
X407232D01*
X408251Y635760D01*
X408487Y635642D01*
X408489Y635642D01*
X408491Y635640D01*
X408769Y635621D01*
X409864Y635168D01*
X412123Y636104D01*
X413060Y638364D01*
X412123Y640624D01*
X411273Y640976D01*
X412052Y642856D01*
X411116Y645116D01*
X408856Y646052D01*
D02*
G37*
G36*
X387236Y644453D02*
X385161D01*
Y641000D01*
X387236D01*
Y644453D01*
D02*
G37*
G36*
X384161D02*
X382087D01*
Y641000D01*
X384161D01*
Y644453D01*
D02*
G37*
G36*
X684550Y641826D02*
X679463Y639719D01*
X684550Y634632D01*
X689637Y639719D01*
X684550Y641826D01*
D02*
G37*
G36*
X664450D02*
X659363Y639719D01*
X664450Y634632D01*
X669537Y639719D01*
X664450Y641826D01*
D02*
G37*
G36*
X658656Y639012D02*
X656549Y633925D01*
X658656Y628838D01*
X663743Y633925D01*
X658656Y639012D01*
D02*
G37*
G36*
X690344Y639012D02*
X685257Y633925D01*
X690344Y628838D01*
X692451Y633925D01*
X690344Y639012D01*
D02*
G37*
G36*
X388335Y631500D02*
X385177D01*
Y627949D01*
X388335D01*
Y631500D01*
D02*
G37*
G36*
X670244Y639012D02*
X664804Y633571D01*
X659363Y628131D01*
X664450Y626024D01*
X668051Y627516D01*
X668404Y627162D01*
X667043Y623875D01*
X668404Y620588D01*
X668051Y620234D01*
X664450Y621726D01*
X659363Y619619D01*
X664804Y614179D01*
X670244Y608738D01*
X672351Y613825D01*
X670859Y617426D01*
X671213Y617779D01*
X674500Y616418D01*
X677787Y617779D01*
X678141Y617426D01*
X676649Y613825D01*
X678756Y608738D01*
X684197Y614179D01*
X689637Y619619D01*
X684550Y621726D01*
X680949Y620234D01*
X680596Y620588D01*
X681957Y623875D01*
X680596Y627162D01*
X680949Y627516D01*
X684550Y626024D01*
X689637Y628131D01*
X684197Y633571D01*
X678756Y639012D01*
X676649Y633925D01*
X678141Y630324D01*
X677787Y629971D01*
X674500Y631332D01*
X671213Y629971D01*
X670859Y630324D01*
X672351Y633925D01*
X670244Y639012D01*
D02*
G37*
G36*
X649500Y629649D02*
X645152Y627848D01*
X643351Y623500D01*
X645152Y619152D01*
X649500Y617351D01*
X653848Y619152D01*
X655649Y623500D01*
X653848Y627848D01*
X649500Y629649D01*
D02*
G37*
G36*
X658656Y618912D02*
X656549Y613825D01*
X658656Y608738D01*
X663743Y613825D01*
X658656Y618912D01*
D02*
G37*
G36*
X690344Y618912D02*
X685257Y613825D01*
X690344Y608738D01*
X692451Y613825D01*
X690344Y618912D01*
D02*
G37*
G36*
X684550Y613118D02*
X679463Y608031D01*
X684550Y605924D01*
X689637Y608031D01*
X684550Y613118D01*
D02*
G37*
G36*
X664450D02*
X659363Y608031D01*
X664450Y605924D01*
X669537Y608031D01*
X664450Y613118D01*
D02*
G37*
G36*
X348500Y605244D02*
X345047D01*
Y603169D01*
X348500D01*
Y605244D01*
D02*
G37*
G36*
X635134Y611134D02*
X626866D01*
Y602866D01*
X635134D01*
Y611134D01*
D02*
G37*
G36*
X621000Y611474D02*
X617836Y610164D01*
X616526Y607000D01*
X617836Y603836D01*
X621000Y602526D01*
X624164Y603836D01*
X625474Y607000D01*
X624164Y610164D01*
X621000Y611474D01*
D02*
G37*
G36*
X466634Y610634D02*
X458366D01*
Y602366D01*
X466634D01*
Y610634D01*
D02*
G37*
G36*
X452500Y610974D02*
X449336Y609664D01*
X448026Y606500D01*
X449336Y603336D01*
X452500Y602026D01*
X455664Y603336D01*
X456974Y606500D01*
X455664Y609664D01*
X452500Y610974D01*
D02*
G37*
G36*
X603000Y613149D02*
X598652Y611348D01*
X596851Y607000D01*
X598652Y602652D01*
X603000Y600851D01*
X607348Y602652D01*
X609149Y607000D01*
X607348Y611348D01*
X603000Y613149D01*
D02*
G37*
G36*
X348500Y602169D02*
X345047D01*
Y600095D01*
X348500D01*
Y602169D01*
D02*
G37*
G36*
X360551Y602323D02*
X357000D01*
Y599165D01*
X360551D01*
Y602323D01*
D02*
G37*
G36*
X349516Y615212D02*
X347256Y614276D01*
X347178Y614087D01*
X344866D01*
Y608575D01*
X352268D01*
X352268Y606661D01*
X352449Y606236D01*
Y605598D01*
X352095Y605244D01*
X349500D01*
Y602669D01*
Y600095D01*
X352449D01*
Y599165D01*
X356000D01*
Y602823D01*
X356500D01*
Y603323D01*
X360551D01*
Y606236D01*
X360732Y606661D01*
X360732Y606905D01*
Y614339D01*
X352268D01*
Y614339D01*
X351776Y614276D01*
X349516Y615212D01*
D02*
G37*
G36*
X734000Y596247D02*
X731475Y595201D01*
X734000Y592676D01*
X736525Y595201D01*
X734000Y596247D01*
D02*
G37*
G36*
X737232Y594494D02*
X734353Y591615D01*
X734000Y591968D01*
X733646Y591615D01*
X730768Y594494D01*
X729722Y591968D01*
Y588031D01*
X730768Y585506D01*
X733646Y588385D01*
X734000Y588031D01*
X734353Y588385D01*
X737232Y585506D01*
X738278Y588031D01*
Y591968D01*
X737232Y594494D01*
D02*
G37*
G36*
X724500Y593835D02*
X721788Y592712D01*
X720665Y590000D01*
X721788Y587288D01*
X724500Y586165D01*
X727212Y587288D01*
X728335Y590000D01*
X727212Y592712D01*
X724500Y593835D01*
D02*
G37*
G36*
X734000Y587324D02*
X731475Y584799D01*
X734000Y583753D01*
X736525Y584799D01*
X734000Y587324D01*
D02*
G37*
G36*
X714000Y604500D02*
X698000D01*
Y576000D01*
X714000D01*
Y578242D01*
X716626D01*
X719790Y579553D01*
X721100Y582717D01*
X719790Y585881D01*
X716626Y587191D01*
X714000D01*
Y592809D01*
X716626D01*
X719790Y594120D01*
X721100Y597284D01*
X719790Y600447D01*
X716626Y601758D01*
X714000D01*
Y604500D01*
D02*
G37*
G36*
X588710Y581736D02*
X586450Y580800D01*
X585514Y578540D01*
X586450Y576280D01*
X588710Y575344D01*
X590970Y576280D01*
X591906Y578540D01*
X590970Y580800D01*
X588710Y581736D01*
D02*
G37*
G36*
X625134Y583134D02*
X616866D01*
Y574866D01*
X625134D01*
Y583134D01*
D02*
G37*
G36*
X631000Y583474D02*
X627836Y582164D01*
X626526Y579000D01*
X627836Y575836D01*
X631000Y574526D01*
X634164Y575836D01*
X635474Y579000D01*
X634164Y582164D01*
X631000Y583474D01*
D02*
G37*
G36*
X603500Y585149D02*
X599152Y583348D01*
X597351Y579000D01*
X599152Y574652D01*
X603500Y572851D01*
X607848Y574652D01*
X609649Y579000D01*
X607848Y583348D01*
X603500Y585149D01*
D02*
G37*
G36*
X684550Y572701D02*
X679463Y570594D01*
X684550Y565507D01*
X689637Y570594D01*
X684550Y572701D01*
D02*
G37*
G36*
X664450D02*
X659363Y570594D01*
X664450Y565507D01*
X669537Y570594D01*
X664450Y572701D01*
D02*
G37*
G36*
X458134Y569634D02*
X449866D01*
Y561366D01*
X458134D01*
Y569634D01*
D02*
G37*
G36*
X464000Y569974D02*
X460836Y568664D01*
X459526Y565500D01*
X460836Y562336D01*
X464000Y561026D01*
X467164Y562336D01*
X468474Y565500D01*
X467164Y568664D01*
X464000Y569974D01*
D02*
G37*
G36*
X658656Y569887D02*
X656549Y564800D01*
X658656Y559713D01*
X663743Y564800D01*
X658656Y569887D01*
D02*
G37*
G36*
X690344Y569887D02*
X685257Y564800D01*
X690344Y559713D01*
X692451Y564800D01*
X690344Y569887D01*
D02*
G37*
G36*
X436000Y570649D02*
X431652Y568848D01*
X429851Y564500D01*
X431652Y560152D01*
X436000Y558351D01*
X440348Y560152D01*
X442149Y564500D01*
X440348Y568848D01*
X436000Y570649D01*
D02*
G37*
G36*
X670244Y569887D02*
X664804Y564446D01*
X659363Y559006D01*
X664450Y556899D01*
X668051Y558391D01*
X668404Y558037D01*
X667043Y554750D01*
X668404Y551463D01*
X668051Y551109D01*
X664450Y552601D01*
X659363Y550494D01*
X664804Y545053D01*
X670244Y539613D01*
X672351Y544700D01*
X670859Y548301D01*
X671213Y548654D01*
X674500Y547293D01*
X677787Y548654D01*
X678141Y548301D01*
X676649Y544700D01*
X678756Y539613D01*
X684197Y545053D01*
X689637Y550494D01*
X684550Y552601D01*
X680949Y551109D01*
X680596Y551463D01*
X681957Y554750D01*
X680596Y558037D01*
X680949Y558391D01*
X684550Y556899D01*
X689637Y559006D01*
X684197Y564446D01*
X678756Y569887D01*
X676649Y564800D01*
X678141Y561199D01*
X677787Y560846D01*
X674500Y562207D01*
X671213Y560846D01*
X670859Y561199D01*
X672351Y564800D01*
X670244Y569887D01*
D02*
G37*
G36*
X649000Y560649D02*
X644652Y558848D01*
X642851Y554500D01*
X644652Y550152D01*
X649000Y548351D01*
X653348Y550152D01*
X655149Y554500D01*
X653348Y558848D01*
X649000Y560649D01*
D02*
G37*
G36*
X658656Y549787D02*
X656549Y544700D01*
X658656Y539613D01*
X663743Y544700D01*
X658656Y549787D01*
D02*
G37*
G36*
X690344Y549787D02*
X685257Y544700D01*
X690344Y539613D01*
X692451Y544700D01*
X690344Y549787D01*
D02*
G37*
G36*
X684550Y543993D02*
X679463Y538906D01*
X684550Y536799D01*
X689637Y538906D01*
X684550Y543993D01*
D02*
G37*
G36*
X664450D02*
X659363Y538906D01*
X664450Y536799D01*
X669537Y538906D01*
X664450Y543993D01*
D02*
G37*
G36*
X683550Y498451D02*
X678463Y496344D01*
X683550Y491257D01*
X688637Y496344D01*
X683550Y498451D01*
D02*
G37*
G36*
X663450D02*
X658363Y496344D01*
X663450Y491257D01*
X668537Y496344D01*
X663450Y498451D01*
D02*
G37*
G36*
X463634Y496134D02*
X455366D01*
Y487866D01*
X463634D01*
Y496134D01*
D02*
G37*
G36*
X449500Y496474D02*
X446336Y495164D01*
X445026Y492000D01*
X446336Y488836D01*
X449500Y487526D01*
X452664Y488836D01*
X453974Y492000D01*
X452664Y495164D01*
X449500Y496474D01*
D02*
G37*
G36*
X433000Y498149D02*
X428652Y496348D01*
X426851Y492000D01*
X427214Y491122D01*
X427199Y490661D01*
X427101Y489590D01*
X427033Y489182D01*
X426951Y488831D01*
X426864Y488555D01*
X426778Y488358D01*
X426769Y488343D01*
X419713Y481287D01*
X419180Y480000D01*
Y406500D01*
X419713Y405213D01*
X427269Y397657D01*
X427278Y397642D01*
X427364Y397445D01*
X427451Y397169D01*
X427533Y396818D01*
X427599Y396423D01*
X427709Y394864D01*
X427351Y394000D01*
X429152Y389652D01*
X433500Y387851D01*
X437848Y389652D01*
X439649Y394000D01*
X437848Y398348D01*
X433500Y400149D01*
X432622Y399786D01*
X432161Y399801D01*
X431090Y399899D01*
X430682Y399967D01*
X430331Y400049D01*
X430055Y400136D01*
X429858Y400222D01*
X429843Y400231D01*
X422820Y407254D01*
Y479246D01*
X429343Y485769D01*
X429358Y485778D01*
X429555Y485864D01*
X429831Y485951D01*
X430182Y486033D01*
X430577Y486099D01*
X432136Y486209D01*
X433000Y485851D01*
X437348Y487652D01*
X439149Y492000D01*
X437348Y496348D01*
X433000Y498149D01*
D02*
G37*
G36*
X657656Y495637D02*
X655549Y490550D01*
X657656Y485463D01*
X662743Y490550D01*
X657656Y495637D01*
D02*
G37*
G36*
X689344Y495637D02*
X684257Y490550D01*
X689344Y485463D01*
X691451Y490550D01*
X689344Y495637D01*
D02*
G37*
G36*
X733000Y486247D02*
X730475Y485201D01*
X733000Y482676D01*
X735525Y485201D01*
X733000Y486247D01*
D02*
G37*
G36*
X669244Y495637D02*
X663803Y490197D01*
X658363Y484756D01*
X663450Y482649D01*
X667051Y484141D01*
X667404Y483787D01*
X666043Y480500D01*
X667404Y477213D01*
X667051Y476859D01*
X663450Y478351D01*
X658363Y476244D01*
X663803Y470803D01*
X669244Y465363D01*
X671351Y470450D01*
X669859Y474051D01*
X670213Y474404D01*
X673500Y473043D01*
X676787Y474404D01*
X677141Y474051D01*
X675649Y470450D01*
X677756Y465363D01*
X683196Y470803D01*
X688637Y476244D01*
X683550Y478351D01*
X679949Y476859D01*
X679596Y477213D01*
X680957Y480500D01*
X679596Y483787D01*
X679949Y484141D01*
X683550Y482649D01*
X688637Y484756D01*
X683196Y490197D01*
X677756Y495637D01*
X675649Y490550D01*
X677141Y486949D01*
X676787Y486596D01*
X673500Y487957D01*
X670213Y486596D01*
X669859Y486949D01*
X671351Y490550D01*
X669244Y495637D01*
D02*
G37*
G36*
X736232Y484494D02*
X733354Y481615D01*
X733000Y481968D01*
X732647Y481615D01*
X729768Y484494D01*
X728722Y481968D01*
Y478031D01*
X729768Y475506D01*
X732647Y478385D01*
X733000Y478031D01*
X733354Y478385D01*
X736232Y475506D01*
X737278Y478031D01*
Y481968D01*
X736232Y484494D01*
D02*
G37*
G36*
X412000Y481696D02*
X409740Y480760D01*
X409603Y480429D01*
X409404Y480256D01*
X409311Y480186D01*
X409224Y480129D01*
X409179Y480103D01*
X395321D01*
X395276Y480129D01*
X395189Y480186D01*
X395096Y480256D01*
X394897Y480429D01*
X394760Y480760D01*
X392500Y481696D01*
X390240Y480760D01*
X389304Y478500D01*
X390240Y476240D01*
Y475946D01*
X389704Y475724D01*
X388768Y473464D01*
X389704Y471204D01*
X391964Y470268D01*
X394224Y471204D01*
X394369Y471553D01*
X394468Y471651D01*
X394574Y471743D01*
X394675Y471820D01*
X394758Y471876D01*
X394795Y471897D01*
X409179D01*
X409224Y471871D01*
X409311Y471814D01*
X409404Y471744D01*
X409603Y471571D01*
X409740Y471240D01*
X412000Y470304D01*
X414260Y471240D01*
X415196Y473500D01*
X414260Y475760D01*
X414260Y476240D01*
X415196Y478500D01*
X414260Y480760D01*
X412000Y481696D01*
D02*
G37*
G36*
X634634Y485134D02*
X626366D01*
Y476866D01*
X634634D01*
Y485134D01*
D02*
G37*
G36*
X620500Y485474D02*
X617336Y484164D01*
X616026Y481000D01*
X617336Y477836D01*
X620500Y476526D01*
X623664Y477836D01*
X624974Y481000D01*
X623664Y484164D01*
X620500Y485474D01*
D02*
G37*
G36*
X723500Y483835D02*
X720788Y482712D01*
X719665Y480000D01*
X720788Y477288D01*
X723500Y476165D01*
X726212Y477288D01*
X727335Y480000D01*
X726212Y482712D01*
X723500Y483835D01*
D02*
G37*
G36*
X603500Y487149D02*
X599152Y485348D01*
X597351Y481000D01*
X599152Y476652D01*
X599977Y476310D01*
X599880Y475820D01*
X582097D01*
X582068Y475832D01*
X582008Y475866D01*
X581938Y475911D01*
X581889Y475947D01*
X581760Y476260D01*
X579500Y477196D01*
X577240Y476260D01*
X576304Y474000D01*
X577240Y471740D01*
X579500Y470804D01*
X581760Y471740D01*
X581889Y472053D01*
X581938Y472089D01*
X582008Y472134D01*
X582068Y472168D01*
X582097Y472180D01*
X602000D01*
X603287Y472713D01*
X604787Y474213D01*
X605320Y475500D01*
Y475604D01*
X607848Y476652D01*
X609649Y481000D01*
X607848Y485348D01*
X603500Y487149D01*
D02*
G37*
G36*
X646500Y486649D02*
X642152Y484848D01*
X640351Y480500D01*
X642152Y476152D01*
X646500Y474351D01*
X650848Y476152D01*
X652649Y480500D01*
X650848Y484848D01*
X646500Y486649D01*
D02*
G37*
G36*
X733000Y477324D02*
X730475Y474799D01*
X733000Y473753D01*
X735525Y474799D01*
X733000Y477324D01*
D02*
G37*
G36*
X713000Y494500D02*
X697000D01*
Y466000D01*
X713000D01*
Y468242D01*
X715626D01*
X718790Y469553D01*
X720100Y472717D01*
X718790Y475880D01*
X715626Y477191D01*
X713000D01*
Y482809D01*
X715626D01*
X718790Y484120D01*
X720100Y487284D01*
X718790Y490447D01*
X715626Y491758D01*
X713000D01*
Y494500D01*
D02*
G37*
G36*
X657656Y475537D02*
X655549Y470450D01*
X657656Y465363D01*
X662743Y470450D01*
X657656Y475537D01*
D02*
G37*
G36*
X689344Y475537D02*
X684257Y470450D01*
X689344Y465363D01*
X691451Y470450D01*
X689344Y475537D01*
D02*
G37*
G36*
X683550Y469743D02*
X678463Y464656D01*
X683550Y462549D01*
X688637Y464656D01*
X683550Y469743D01*
D02*
G37*
G36*
X663450D02*
X658363Y464656D01*
X663450Y462549D01*
X668537Y464656D01*
X663450Y469743D01*
D02*
G37*
G36*
X454134Y465134D02*
X445866D01*
Y456866D01*
X454134D01*
Y465134D01*
D02*
G37*
G36*
X460000Y465474D02*
X456836Y464164D01*
X455526Y461000D01*
X456836Y457836D01*
X460000Y456526D01*
X463164Y457836D01*
X464474Y461000D01*
X463164Y464164D01*
X460000Y465474D01*
D02*
G37*
G36*
X433000Y466649D02*
X428652Y464848D01*
X426851Y460500D01*
X428652Y456152D01*
X433000Y454351D01*
X437348Y456152D01*
X439149Y460500D01*
X437348Y464848D01*
X433000Y466649D01*
D02*
G37*
G36*
X569250Y453446D02*
X566990Y452510D01*
X566054Y450250D01*
X566990Y447990D01*
X569250Y447054D01*
X571510Y447990D01*
X572446Y450250D01*
X571510Y452510D01*
X569250Y453446D01*
D02*
G37*
G36*
X663450Y429326D02*
X658363Y427219D01*
X663450Y422132D01*
X668537Y427219D01*
X663450Y429326D01*
D02*
G37*
G36*
X683550D02*
X678463Y427219D01*
X683550Y422132D01*
X688637Y427219D01*
X683550Y429326D01*
D02*
G37*
G36*
X657656Y426512D02*
X655549Y421425D01*
X657656Y416338D01*
X662743Y421425D01*
X657656Y426512D01*
D02*
G37*
G36*
X689344Y426512D02*
X684257Y421425D01*
X689344Y416338D01*
X691451Y421425D01*
X689344Y426512D01*
D02*
G37*
G36*
X669244D02*
X663803Y421071D01*
X658363Y415631D01*
X663450Y413524D01*
X667051Y415016D01*
X667404Y414662D01*
X666043Y411375D01*
X667404Y408088D01*
X667051Y407734D01*
X663450Y409226D01*
X658363Y407119D01*
X663803Y401679D01*
X669244Y396238D01*
X671351Y401325D01*
X669859Y404926D01*
X670213Y405279D01*
X673500Y403918D01*
X676787Y405279D01*
X677141Y404926D01*
X675649Y401325D01*
X677756Y396238D01*
X683196Y401679D01*
X688637Y407119D01*
X683550Y409226D01*
X679949Y407734D01*
X679596Y408088D01*
X680957Y411375D01*
X679596Y414662D01*
X679949Y415016D01*
X683550Y413524D01*
X688637Y415631D01*
X683196Y421071D01*
X677756Y426512D01*
X675649Y421425D01*
X677141Y417824D01*
X676787Y417471D01*
X673500Y418832D01*
X670213Y417471D01*
X669859Y417824D01*
X671351Y421425D01*
X669244Y426512D01*
D02*
G37*
G36*
X648500Y417149D02*
X644152Y415348D01*
X642351Y411000D01*
X644152Y406652D01*
X648500Y404851D01*
X652848Y406652D01*
X654649Y411000D01*
X652848Y415348D01*
X648500Y417149D01*
D02*
G37*
G36*
X657656Y406412D02*
X655549Y401325D01*
X657656Y396238D01*
X662743Y401325D01*
X657656Y406412D01*
D02*
G37*
G36*
X689344Y406412D02*
X684257Y401325D01*
X689344Y396238D01*
X691451Y401325D01*
X689344Y406412D01*
D02*
G37*
G36*
X683550Y400618D02*
X678463Y395531D01*
X683550Y393424D01*
X688637Y395531D01*
X683550Y400618D01*
D02*
G37*
G36*
X663450D02*
X658363Y395531D01*
X663450Y393424D01*
X668537Y395531D01*
X663450Y400618D01*
D02*
G37*
G36*
X634134Y398634D02*
X625866D01*
Y390366D01*
X634134D01*
Y398634D01*
D02*
G37*
G36*
X620000Y398974D02*
X616836Y397664D01*
X615526Y394500D01*
X616836Y391336D01*
X620000Y390026D01*
X623164Y391336D01*
X624474Y394500D01*
X623164Y397664D01*
X620000Y398974D01*
D02*
G37*
G36*
X465634Y398134D02*
X457366D01*
Y389866D01*
X465634D01*
Y398134D01*
D02*
G37*
G36*
X451500Y398474D02*
X448336Y397164D01*
X447026Y394000D01*
X448336Y390836D01*
X451500Y389526D01*
X454664Y390836D01*
X455974Y394000D01*
X454664Y397164D01*
X451500Y398474D01*
D02*
G37*
G36*
X602000Y400649D02*
X597652Y398848D01*
X595851Y394500D01*
X597652Y390152D01*
X602000Y388351D01*
X606348Y390152D01*
X608149Y394500D01*
X606348Y398848D01*
X602000Y400649D01*
D02*
G37*
G36*
X733000Y383747D02*
X730475Y382701D01*
X733000Y380176D01*
X735525Y382701D01*
X733000Y383747D01*
D02*
G37*
G36*
X736232Y381994D02*
X733354Y379115D01*
X733000Y379468D01*
X732647Y379115D01*
X729768Y381994D01*
X728722Y379468D01*
Y375532D01*
X729768Y373006D01*
X732647Y375885D01*
X733000Y375532D01*
X733354Y375885D01*
X736232Y373006D01*
X737278Y375532D01*
Y379468D01*
X736232Y381994D01*
D02*
G37*
G36*
X723500Y381335D02*
X720788Y380212D01*
X719665Y377500D01*
X720788Y374788D01*
X723500Y373665D01*
X726212Y374788D01*
X727335Y377500D01*
X726212Y380212D01*
X723500Y381335D01*
D02*
G37*
G36*
X733000Y374824D02*
X730475Y372299D01*
X733000Y371253D01*
X735525Y372299D01*
X733000Y374824D01*
D02*
G37*
G36*
X713000Y392000D02*
X697000D01*
Y363500D01*
X713000D01*
Y365742D01*
X715626D01*
X718790Y367053D01*
X720100Y370216D01*
X718790Y373380D01*
X715626Y374691D01*
X713000D01*
Y380309D01*
X715626D01*
X718790Y381620D01*
X720100Y384784D01*
X718790Y387947D01*
X715626Y389258D01*
X713000D01*
Y392000D01*
D02*
G37*
G36*
X587710Y369236D02*
X585450Y368300D01*
X584514Y366040D01*
X585450Y363780D01*
X587710Y362844D01*
X589970Y363780D01*
X590906Y366040D01*
X589970Y368300D01*
X587710Y369236D01*
D02*
G37*
G36*
X624134Y370634D02*
X615866D01*
Y362366D01*
X624134D01*
Y370634D01*
D02*
G37*
G36*
X630000Y370974D02*
X626836Y369664D01*
X625526Y366500D01*
X626836Y363336D01*
X630000Y362026D01*
X633164Y363336D01*
X634474Y366500D01*
X633164Y369664D01*
X630000Y370974D01*
D02*
G37*
G36*
X602500Y372649D02*
X598152Y370848D01*
X596351Y366500D01*
X598152Y362152D01*
X602500Y360351D01*
X606848Y362152D01*
X608649Y366500D01*
X606848Y370848D01*
X602500Y372649D01*
D02*
G37*
G36*
X663450Y360201D02*
X658363Y358094D01*
X663450Y353007D01*
X668537Y358094D01*
X663450Y360201D01*
D02*
G37*
G36*
X683550D02*
X678463Y358094D01*
X683550Y353007D01*
X688637Y358094D01*
X683550Y360201D01*
D02*
G37*
G36*
X457134Y357134D02*
X448866D01*
Y348866D01*
X457134D01*
Y357134D01*
D02*
G37*
G36*
X463000Y357474D02*
X459836Y356164D01*
X458526Y353000D01*
X459836Y349836D01*
X463000Y348526D01*
X466164Y349836D01*
X467474Y353000D01*
X466164Y356164D01*
X463000Y357474D01*
D02*
G37*
G36*
X657656Y357387D02*
X655549Y352300D01*
X657656Y347213D01*
X662743Y352300D01*
X657656Y357387D01*
D02*
G37*
G36*
X689344Y357387D02*
X684257Y352300D01*
X689344Y347213D01*
X691451Y352300D01*
X689344Y357387D01*
D02*
G37*
G36*
X435000Y358149D02*
X430652Y356348D01*
X428851Y352000D01*
X430652Y347652D01*
X435000Y345851D01*
X439348Y347652D01*
X441149Y352000D01*
X439348Y356348D01*
X435000Y358149D01*
D02*
G37*
G36*
X669244Y357387D02*
X663803Y351946D01*
X658363Y346506D01*
X663450Y344399D01*
X667051Y345891D01*
X667404Y345537D01*
X666043Y342250D01*
X667404Y338963D01*
X667051Y338609D01*
X663450Y340101D01*
X658363Y337994D01*
X663803Y332554D01*
X669244Y327113D01*
X671351Y332200D01*
X669859Y335801D01*
X670213Y336154D01*
X673500Y334793D01*
X676787Y336154D01*
X677141Y335801D01*
X675649Y332200D01*
X677756Y327113D01*
X683196Y332554D01*
X688637Y337994D01*
X683550Y340101D01*
X679949Y338609D01*
X679596Y338963D01*
X680957Y342250D01*
X679596Y345537D01*
X679949Y345891D01*
X683550Y344399D01*
X688637Y346506D01*
X683196Y351946D01*
X677756Y357387D01*
X675649Y352300D01*
X677141Y348699D01*
X676787Y348346D01*
X673500Y349707D01*
X670213Y348346D01*
X669859Y348699D01*
X671351Y352300D01*
X669244Y357387D01*
D02*
G37*
G36*
X648000Y348149D02*
X643652Y346348D01*
X641851Y342000D01*
X643652Y337652D01*
X648000Y335851D01*
X652348Y337652D01*
X654149Y342000D01*
X652348Y346348D01*
X648000Y348149D01*
D02*
G37*
G36*
X657656Y337287D02*
X655549Y332200D01*
X657656Y327113D01*
X662743Y332200D01*
X657656Y337287D01*
D02*
G37*
G36*
X689344Y337287D02*
X684257Y332200D01*
X689344Y327113D01*
X691451Y332200D01*
X689344Y337287D01*
D02*
G37*
G36*
X683550Y331493D02*
X678463Y326406D01*
X683550Y324299D01*
X688637Y326406D01*
X683550Y331493D01*
D02*
G37*
G36*
X663450D02*
X658363Y326406D01*
X663450Y324299D01*
X668537Y326406D01*
X663450Y331493D01*
D02*
G37*
G36*
X432500Y285149D02*
X428152Y283348D01*
X427696Y282246D01*
X427526Y282036D01*
X426726Y281141D01*
X426387Y280810D01*
X426074Y280537D01*
X425801Y280331D01*
X425577Y280192D01*
X425414Y280115D01*
X425374Y280103D01*
X403164D01*
X403119Y280149D01*
X403100Y280211D01*
X403076Y280318D01*
X403056Y280441D01*
X403035Y280663D01*
X403160Y280964D01*
X402224Y283224D01*
X399964Y284160D01*
X397704Y283224D01*
X396768Y280964D01*
X397704Y278704D01*
X399964Y277768D01*
X400320Y277916D01*
X400475Y277916D01*
X400613Y277906D01*
X400738Y277891D01*
X400833Y277872D01*
X400870Y277862D01*
X401366Y277366D01*
X402500Y276897D01*
X425396D01*
X425421Y276889D01*
X425623Y276803D01*
X425865Y276676D01*
X426537Y276204D01*
X426533Y276182D01*
X426451Y275831D01*
X426364Y275555D01*
X426278Y275358D01*
X426269Y275342D01*
X419213Y268287D01*
X418680Y267000D01*
Y193500D01*
X419213Y192213D01*
X426769Y184658D01*
X426778Y184642D01*
X426864Y184445D01*
X426951Y184169D01*
X427033Y183818D01*
X427099Y183423D01*
X427209Y181864D01*
X426851Y181000D01*
X428652Y176652D01*
X433000Y174851D01*
X437348Y176652D01*
X439149Y181000D01*
X437348Y185348D01*
X433000Y187149D01*
X432122Y186785D01*
X431661Y186801D01*
X430590Y186899D01*
X430182Y186967D01*
X429831Y187049D01*
X429555Y187136D01*
X429358Y187222D01*
X429343Y187231D01*
X422320Y194254D01*
Y266246D01*
X428842Y272769D01*
X428858Y272778D01*
X429055Y272864D01*
X429331Y272951D01*
X429682Y273033D01*
X430077Y273099D01*
X431636Y273209D01*
X432500Y272851D01*
X436848Y274652D01*
X438649Y279000D01*
X436848Y283348D01*
X432500Y285149D01*
D02*
G37*
G36*
X662950Y285451D02*
X657863Y283344D01*
X662950Y278257D01*
X668037Y283344D01*
X662950Y285451D01*
D02*
G37*
G36*
X683050D02*
X677963Y283344D01*
X683050Y278257D01*
X688137Y283344D01*
X683050Y285451D01*
D02*
G37*
G36*
X463134Y283134D02*
X454866D01*
Y274866D01*
X463134D01*
Y283134D01*
D02*
G37*
G36*
X449000Y283474D02*
X445836Y282164D01*
X444526Y279000D01*
X445836Y275836D01*
X449000Y274526D01*
X452164Y275836D01*
X453474Y279000D01*
X452164Y282164D01*
X449000Y283474D01*
D02*
G37*
G36*
X657156Y282637D02*
X655049Y277550D01*
X657156Y272463D01*
X662243Y277550D01*
X657156Y282637D01*
D02*
G37*
G36*
X688844Y282637D02*
X683757Y277550D01*
X688844Y272463D01*
X690951Y277550D01*
X688844Y282637D01*
D02*
G37*
G36*
X732500Y273247D02*
X729975Y272201D01*
X732500Y269676D01*
X735025Y272201D01*
X732500Y273247D01*
D02*
G37*
G36*
X668744Y282637D02*
X663304Y277197D01*
X657863Y271756D01*
X662950Y269649D01*
X666551Y271141D01*
X666904Y270787D01*
X665543Y267500D01*
X666904Y264213D01*
X666551Y263859D01*
X662950Y265351D01*
X657863Y263244D01*
X663304Y257804D01*
X668744Y252363D01*
X670851Y257450D01*
X669359Y261051D01*
X669713Y261404D01*
X673000Y260043D01*
X676287Y261404D01*
X676641Y261051D01*
X675149Y257450D01*
X677256Y252363D01*
X682696Y257804D01*
X688137Y263244D01*
X683050Y265351D01*
X679449Y263859D01*
X679096Y264213D01*
X680457Y267500D01*
X679096Y270787D01*
X679449Y271141D01*
X683050Y269649D01*
X688137Y271756D01*
X682696Y277197D01*
X677256Y282637D01*
X675149Y277550D01*
X676641Y273949D01*
X676287Y273596D01*
X673000Y274957D01*
X669713Y273596D01*
X669359Y273949D01*
X670851Y277550D01*
X668744Y282637D01*
D02*
G37*
G36*
X735732Y271494D02*
X732854Y268615D01*
X732500Y268969D01*
X732147Y268615D01*
X729268Y271494D01*
X728222Y268969D01*
Y265032D01*
X729268Y262506D01*
X732147Y265385D01*
X732500Y265032D01*
X732854Y265385D01*
X735732Y262506D01*
X736778Y265032D01*
Y268969D01*
X735732Y271494D01*
D02*
G37*
G36*
X634134Y272134D02*
X625866D01*
Y263866D01*
X634134D01*
Y272134D01*
D02*
G37*
G36*
X620000Y272474D02*
X616836Y271164D01*
X615526Y268000D01*
X616836Y264836D01*
X620000Y263526D01*
X623164Y264836D01*
X624474Y268000D01*
X623164Y271164D01*
X620000Y272474D01*
D02*
G37*
G36*
X723000Y270835D02*
X720288Y269712D01*
X719165Y267000D01*
X720288Y264288D01*
X723000Y263165D01*
X725712Y264288D01*
X726835Y267000D01*
X725712Y269712D01*
X723000Y270835D01*
D02*
G37*
G36*
X603000Y274149D02*
X598652Y272348D01*
X596851Y268000D01*
X598652Y263652D01*
X599477Y263310D01*
X599380Y262820D01*
X581597D01*
X581568Y262832D01*
X581508Y262865D01*
X581438Y262911D01*
X581389Y262947D01*
X581260Y263260D01*
X579000Y264196D01*
X576740Y263260D01*
X575804Y261000D01*
X576740Y258740D01*
X579000Y257804D01*
X581260Y258740D01*
X581389Y259053D01*
X581438Y259089D01*
X581508Y259135D01*
X581568Y259168D01*
X581597Y259180D01*
X601500D01*
X602787Y259713D01*
X604287Y261213D01*
X604820Y262500D01*
Y262604D01*
X607348Y263652D01*
X609149Y268000D01*
X607348Y272348D01*
X603000Y274149D01*
D02*
G37*
G36*
X646000Y273649D02*
X641652Y271848D01*
X639851Y267500D01*
X641652Y263152D01*
X646000Y261351D01*
X650348Y263152D01*
X652149Y267500D01*
X650348Y271848D01*
X646000Y273649D01*
D02*
G37*
G36*
X732500Y264324D02*
X729975Y261799D01*
X732500Y260753D01*
X735025Y261799D01*
X732500Y264324D01*
D02*
G37*
G36*
X712500Y281500D02*
X696500D01*
Y253000D01*
X712500D01*
Y255242D01*
X715126D01*
X718290Y256553D01*
X719600Y259717D01*
X718290Y262880D01*
X715126Y264191D01*
X712500D01*
Y269809D01*
X715126D01*
X718290Y271119D01*
X719600Y274284D01*
X718290Y277447D01*
X715126Y278758D01*
X712500D01*
Y281500D01*
D02*
G37*
G36*
X657156Y262537D02*
X655049Y257450D01*
X657156Y252363D01*
X662243Y257450D01*
X657156Y262537D01*
D02*
G37*
G36*
X688844Y262537D02*
X683757Y257450D01*
X688844Y252363D01*
X690951Y257450D01*
X688844Y262537D01*
D02*
G37*
G36*
X683050Y256743D02*
X677963Y251656D01*
X683050Y249549D01*
X688137Y251656D01*
X683050Y256743D01*
D02*
G37*
G36*
X662950D02*
X657863Y251656D01*
X662950Y249549D01*
X668037Y251656D01*
X662950Y256743D01*
D02*
G37*
G36*
X453634Y252134D02*
X445366D01*
Y243866D01*
X453634D01*
Y252134D01*
D02*
G37*
G36*
X459500Y252474D02*
X456336Y251164D01*
X455026Y248000D01*
X456336Y244836D01*
X459500Y243526D01*
X462664Y244836D01*
X463974Y248000D01*
X462664Y251164D01*
X459500Y252474D01*
D02*
G37*
G36*
X432500Y253649D02*
X428152Y251848D01*
X426351Y247500D01*
X428152Y243152D01*
X432500Y241351D01*
X436848Y243152D01*
X438649Y247500D01*
X436848Y251848D01*
X432500Y253649D01*
D02*
G37*
G36*
X568750Y240446D02*
X566490Y239510D01*
X565554Y237250D01*
X566490Y234990D01*
X568750Y234054D01*
X571010Y234990D01*
X571946Y237250D01*
X571010Y239510D01*
X568750Y240446D01*
D02*
G37*
G36*
X662950Y216326D02*
X657863Y214219D01*
X662950Y209132D01*
X668037Y214219D01*
X662950Y216326D01*
D02*
G37*
G36*
X683050D02*
X677963Y214219D01*
X683050Y209132D01*
X688137Y214219D01*
X683050Y216326D01*
D02*
G37*
G36*
X657156Y213512D02*
X655049Y208425D01*
X657156Y203338D01*
X662243Y208425D01*
X657156Y213512D01*
D02*
G37*
G36*
X688844Y213512D02*
X683757Y208425D01*
X688844Y203338D01*
X690951Y208425D01*
X688844Y213512D01*
D02*
G37*
G36*
X668744D02*
X663304Y208071D01*
X657863Y202631D01*
X662950Y200524D01*
X666551Y202016D01*
X666904Y201662D01*
X665543Y198375D01*
X666904Y195088D01*
X666551Y194734D01*
X662950Y196226D01*
X657863Y194119D01*
X663304Y188679D01*
X668744Y183238D01*
X670851Y188325D01*
X669359Y191926D01*
X669713Y192279D01*
X673000Y190918D01*
X676287Y192279D01*
X676641Y191926D01*
X675149Y188325D01*
X677256Y183238D01*
X682696Y188679D01*
X688137Y194119D01*
X683050Y196226D01*
X679449Y194734D01*
X679096Y195088D01*
X680457Y198375D01*
X679096Y201662D01*
X679449Y202016D01*
X683050Y200524D01*
X688137Y202631D01*
X682696Y208071D01*
X677256Y213512D01*
X675149Y208425D01*
X676641Y204824D01*
X676287Y204471D01*
X673000Y205832D01*
X669713Y204471D01*
X669359Y204824D01*
X670851Y208425D01*
X668744Y213512D01*
D02*
G37*
G36*
X648000Y204149D02*
X643652Y202348D01*
X641851Y198000D01*
X643652Y193652D01*
X648000Y191851D01*
X652348Y193652D01*
X654149Y198000D01*
X652348Y202348D01*
X648000Y204149D01*
D02*
G37*
G36*
X657156Y193412D02*
X655049Y188325D01*
X657156Y183238D01*
X662243Y188325D01*
X657156Y193412D01*
D02*
G37*
G36*
X688844Y193412D02*
X683757Y188325D01*
X688844Y183238D01*
X690951Y188325D01*
X688844Y193412D01*
D02*
G37*
G36*
X683050Y187618D02*
X677963Y182531D01*
X683050Y180424D01*
X688137Y182531D01*
X683050Y187618D01*
D02*
G37*
G36*
X662950D02*
X657863Y182531D01*
X662950Y180424D01*
X668037Y182531D01*
X662950Y187618D01*
D02*
G37*
G36*
X633634Y185634D02*
X625366D01*
Y177366D01*
X633634D01*
Y185634D01*
D02*
G37*
G36*
X619500Y185975D02*
X616336Y184664D01*
X615026Y181500D01*
X616336Y178336D01*
X619500Y177025D01*
X622664Y178336D01*
X623974Y181500D01*
X622664Y184664D01*
X619500Y185975D01*
D02*
G37*
G36*
X465134Y185134D02*
X456866D01*
Y176866D01*
X465134D01*
Y185134D01*
D02*
G37*
G36*
X451000Y185475D02*
X447836Y184164D01*
X446526Y181000D01*
X447836Y177836D01*
X451000Y176525D01*
X454164Y177836D01*
X455474Y181000D01*
X454164Y184164D01*
X451000Y185475D01*
D02*
G37*
G36*
X601500Y187649D02*
X597152Y185848D01*
X595351Y181500D01*
X597152Y177152D01*
X601500Y175351D01*
X605848Y177152D01*
X607649Y181500D01*
X605848Y185848D01*
X601500Y187649D01*
D02*
G37*
G36*
X732500Y170747D02*
X729975Y169701D01*
X732500Y167176D01*
X735025Y169701D01*
X732500Y170747D01*
D02*
G37*
G36*
X735732Y168994D02*
X732854Y166115D01*
X732500Y166469D01*
X732147Y166115D01*
X729268Y168994D01*
X728222Y166469D01*
Y162531D01*
X729268Y160006D01*
X732147Y162885D01*
X732500Y162531D01*
X732854Y162885D01*
X735732Y160006D01*
X736778Y162531D01*
Y166469D01*
X735732Y168994D01*
D02*
G37*
G36*
X723000Y168335D02*
X720288Y167212D01*
X719165Y164500D01*
X720288Y161788D01*
X723000Y160665D01*
X725712Y161788D01*
X726835Y164500D01*
X725712Y167212D01*
X723000Y168335D01*
D02*
G37*
G36*
X732500Y161824D02*
X729975Y159299D01*
X732500Y158253D01*
X735025Y159299D01*
X732500Y161824D01*
D02*
G37*
G36*
X712500Y179000D02*
X696500D01*
Y150500D01*
X712500D01*
Y152742D01*
X715126D01*
X718290Y154053D01*
X719600Y157217D01*
X718290Y160380D01*
X715126Y161691D01*
X712500D01*
Y167309D01*
X715126D01*
X718290Y168620D01*
X719600Y171783D01*
X718290Y174947D01*
X715126Y176258D01*
X712500D01*
Y179000D01*
D02*
G37*
G36*
X587210Y156236D02*
X584950Y155300D01*
X584014Y153040D01*
X584950Y150780D01*
X587210Y149844D01*
X589470Y150780D01*
X590406Y153040D01*
X589470Y155300D01*
X587210Y156236D01*
D02*
G37*
G36*
X623634Y157634D02*
X615366D01*
Y149366D01*
X623634D01*
Y157634D01*
D02*
G37*
G36*
X629500Y157975D02*
X626336Y156664D01*
X625026Y153500D01*
X626336Y150336D01*
X629500Y149025D01*
X632664Y150336D01*
X633974Y153500D01*
X632664Y156664D01*
X629500Y157975D01*
D02*
G37*
G36*
X602000Y159649D02*
X597652Y157848D01*
X595851Y153500D01*
X597652Y149152D01*
X602000Y147351D01*
X606348Y149152D01*
X608149Y153500D01*
X606348Y157848D01*
X602000Y159649D01*
D02*
G37*
G36*
X683050Y147201D02*
X677963Y145094D01*
X683050Y140007D01*
X688137Y145094D01*
X683050Y147201D01*
D02*
G37*
G36*
X662950D02*
X657863Y145094D01*
X662950Y140007D01*
X668037Y145094D01*
X662950Y147201D01*
D02*
G37*
G36*
X456634Y144134D02*
X448366D01*
Y135866D01*
X456634D01*
Y144134D01*
D02*
G37*
G36*
X462500Y144474D02*
X459336Y143164D01*
X458026Y140000D01*
X459336Y136836D01*
X462500Y135526D01*
X465664Y136836D01*
X466974Y140000D01*
X465664Y143164D01*
X462500Y144474D01*
D02*
G37*
G36*
X657156Y144387D02*
X655049Y139300D01*
X657156Y134213D01*
X662243Y139300D01*
X657156Y144387D01*
D02*
G37*
G36*
X688844Y144387D02*
X683757Y139300D01*
X688844Y134213D01*
X690951Y139300D01*
X688844Y144387D01*
D02*
G37*
G36*
X434500Y145149D02*
X430152Y143348D01*
X428351Y139000D01*
X430152Y134652D01*
X434500Y132851D01*
X438848Y134652D01*
X440649Y139000D01*
X438848Y143348D01*
X434500Y145149D01*
D02*
G37*
G36*
X668744Y144387D02*
X663304Y138946D01*
X657863Y133506D01*
X662950Y131399D01*
X666551Y132891D01*
X666904Y132537D01*
X665543Y129250D01*
X666904Y125963D01*
X666551Y125609D01*
X662950Y127101D01*
X657863Y124994D01*
X663304Y119553D01*
X668744Y114113D01*
X670851Y119200D01*
X669359Y122801D01*
X669713Y123154D01*
X673000Y121793D01*
X676287Y123154D01*
X676641Y122801D01*
X675149Y119200D01*
X677256Y114113D01*
X682696Y119553D01*
X688137Y124994D01*
X683050Y127101D01*
X679449Y125609D01*
X679096Y125963D01*
X680457Y129250D01*
X679096Y132537D01*
X679449Y132891D01*
X683050Y131399D01*
X688137Y133506D01*
X682696Y138946D01*
X677256Y144387D01*
X675149Y139300D01*
X676641Y135699D01*
X676287Y135346D01*
X673000Y136707D01*
X669713Y135346D01*
X669359Y135699D01*
X670851Y139300D01*
X668744Y144387D01*
D02*
G37*
G36*
X647500Y135149D02*
X643152Y133348D01*
X641351Y129000D01*
X643152Y124652D01*
X647500Y122851D01*
X651848Y124652D01*
X653649Y129000D01*
X651848Y133348D01*
X647500Y135149D01*
D02*
G37*
G36*
X657156Y124287D02*
X655049Y119200D01*
X657156Y114113D01*
X662243Y119200D01*
X657156Y124287D01*
D02*
G37*
G36*
X688844Y124287D02*
X683757Y119200D01*
X688844Y114113D01*
X690951Y119200D01*
X688844Y124287D01*
D02*
G37*
G36*
X683050Y118493D02*
X677963Y113406D01*
X683050Y111299D01*
X688137Y113406D01*
X683050Y118493D01*
D02*
G37*
G36*
X662950D02*
X657863Y113406D01*
X662950Y111299D01*
X668037Y113406D01*
X662950Y118493D01*
D02*
G37*
%LPD*%
G36*
X433905Y913675D02*
X433190Y913673D01*
X431376Y913545D01*
X430882Y913463D01*
X430442Y913360D01*
X430057Y913237D01*
X429727Y913095D01*
X429452Y912932D01*
X429232Y912750D01*
X428525Y913457D01*
X428708Y913677D01*
X428870Y913952D01*
X429012Y914282D01*
X429135Y914667D01*
X429238Y915106D01*
X429320Y915601D01*
X429425Y916756D01*
X429448Y917415D01*
X429450Y918130D01*
X433905Y913675D01*
D02*
G37*
G36*
X433934Y819984D02*
X433914Y819994D01*
X433875Y820003D01*
X433817Y820011D01*
X433646Y820024D01*
X432888Y820037D01*
Y820638D01*
X433934Y820691D01*
Y819984D01*
D02*
G37*
G36*
X416532Y821432D02*
X416840Y821118D01*
X416990Y820991D01*
X417137Y820883D01*
X417281Y820794D01*
X417423Y820726D01*
X417561Y820677D01*
X417697Y820647D01*
X417829Y820638D01*
X417773Y820037D01*
X417653Y820029D01*
X417523Y820002D01*
X417383Y819958D01*
X417235Y819895D01*
X417076Y819815D01*
X416909Y819718D01*
X416546Y819469D01*
X416351Y819318D01*
X416146Y819149D01*
X416374Y821619D01*
X416532Y821432D01*
D02*
G37*
G36*
X429952Y825418D02*
X430227Y825255D01*
X430557Y825113D01*
X430942Y824990D01*
X431382Y824887D01*
X431876Y824805D01*
X433031Y824700D01*
X433690Y824677D01*
X434405Y824675D01*
X431284Y821554D01*
X431125Y817143D01*
X430611Y817693D01*
X429238Y818995D01*
X428837Y819314D01*
X428464Y819574D01*
X428119Y819777D01*
X427802Y819922D01*
X427513Y820009D01*
X427252Y820037D01*
X427274Y820638D01*
X427517Y820665D01*
X427798Y820750D01*
X428114Y820890D01*
X428467Y821086D01*
X428857Y821338D01*
X429745Y822010D01*
X429865Y822114D01*
X429820Y822749D01*
X429738Y823244D01*
X429635Y823683D01*
X429512Y824068D01*
X429370Y824398D01*
X429208Y824673D01*
X429025Y824893D01*
X429732Y825600D01*
X429952Y825418D01*
D02*
G37*
G36*
X605490Y902785D02*
X605377Y902725D01*
X605277Y902650D01*
X605190Y902558D01*
X605117Y902451D01*
X605057Y902328D01*
X605010Y902188D01*
X604977Y902033D01*
X604957Y901862D01*
X604950Y901675D01*
X603950D01*
X603943Y901862D01*
X603923Y902033D01*
X603890Y902188D01*
X603843Y902328D01*
X603783Y902451D01*
X603710Y902558D01*
X603623Y902650D01*
X603523Y902725D01*
X603410Y902785D01*
X603283Y902829D01*
X605617D01*
X605490Y902785D01*
D02*
G37*
G36*
X581861Y901274D02*
X582007Y901149D01*
X582155Y901038D01*
X582303Y900941D01*
X582452Y900860D01*
X582603Y900793D01*
X582754Y900742D01*
X582906Y900705D01*
X583059Y900682D01*
X583213Y900675D01*
Y899675D01*
X583059Y899668D01*
X582906Y899645D01*
X582754Y899608D01*
X582603Y899557D01*
X582452Y899490D01*
X582303Y899409D01*
X582155Y899312D01*
X582007Y899201D01*
X581861Y899076D01*
X581715Y898935D01*
Y901415D01*
X581861Y901274D01*
D02*
G37*
G36*
X231029Y789792D02*
X230873Y789832D01*
X230527Y789898D01*
X230138Y789948D01*
X229473Y789992D01*
X228975Y790000D01*
X228737Y791000D01*
X228905Y791008D01*
X229058Y791032D01*
X229196Y791073D01*
X229320Y791129D01*
X229429Y791202D01*
X229524Y791291D01*
X229604Y791397D01*
X229669Y791518D01*
X229720Y791656D01*
X229756Y791810D01*
X231029Y789792D01*
D02*
G37*
G36*
X218439Y791405D02*
X218469Y791320D01*
X218520Y791245D01*
X218591Y791180D01*
X218682Y791125D01*
X218793Y791080D01*
X218925Y791045D01*
X219076Y791020D01*
X219249Y791005D01*
X219441Y791000D01*
Y790000D01*
X219249Y789995D01*
X219076Y789980D01*
X218925Y789955D01*
X218793Y789920D01*
X218682Y789875D01*
X218591Y789820D01*
X218520Y789755D01*
X218469Y789680D01*
X218439Y789595D01*
X218429Y789500D01*
Y791500D01*
X218439Y791405D01*
D02*
G37*
G36*
X413487Y779411D02*
X413800Y779099D01*
X413951Y778971D01*
X414099Y778864D01*
X414244Y778776D01*
X414386Y778708D01*
X414524Y778659D01*
X414660Y778629D01*
X414792Y778620D01*
X414742Y778020D01*
X414621Y778011D01*
X414490Y777984D01*
X414351Y777939D01*
X414202Y777876D01*
X414045Y777796D01*
X413879Y777698D01*
X413519Y777447D01*
X413326Y777295D01*
X413124Y777125D01*
X413326Y779597D01*
X413487Y779411D01*
D02*
G37*
G36*
X432637Y775130D02*
X432120Y775679D01*
X430740Y776979D01*
X430338Y777297D01*
X429964Y777557D01*
X429618Y777760D01*
X429301Y777904D01*
X429013Y777991D01*
X428753Y778020D01*
X428772Y778620D01*
X429017Y778648D01*
X429297Y778732D01*
X429614Y778872D01*
X429967Y779069D01*
X430355Y779321D01*
X431241Y779995D01*
X431738Y780416D01*
X432839Y781427D01*
X432637Y775130D01*
D02*
G37*
G36*
X434212Y704288D02*
X434175Y704249D01*
X434110Y704174D01*
X434084Y704137D01*
X434060Y704102D01*
X434040Y704067D01*
X434024Y704033D01*
X434011Y703999D01*
X434002Y703966D01*
X433996Y703934D01*
X433434Y704496D01*
X433466Y704502D01*
X433499Y704511D01*
X433532Y704524D01*
X433567Y704540D01*
X433602Y704560D01*
X433637Y704584D01*
X433674Y704610D01*
X433749Y704675D01*
X433788Y704712D01*
X434212Y704288D01*
D02*
G37*
G36*
X433147Y703646D02*
X433126Y703656D01*
X433088Y703666D01*
X433030Y703674D01*
X432858Y703687D01*
X432100Y703700D01*
Y704300D01*
X433147Y704354D01*
Y703646D01*
D02*
G37*
G36*
X430931Y703024D02*
X433955Y700000D01*
X433240Y699998D01*
X431426Y699870D01*
X430932Y699788D01*
X430492Y699685D01*
X430107Y699562D01*
X429777Y699420D01*
X429502Y699258D01*
X429282Y699075D01*
X428575Y699782D01*
X428757Y700002D01*
X428920Y700277D01*
X429062Y700607D01*
X429185Y700992D01*
X429287Y701432D01*
X429370Y701926D01*
X429405Y702306D01*
X428032Y703270D01*
X427672Y703458D01*
X427359Y703592D01*
X427093Y703673D01*
X426872Y703700D01*
X426804Y704300D01*
X427079Y704330D01*
X427374Y704419D01*
X427690Y704568D01*
X428025Y704776D01*
X428380Y705043D01*
X428755Y705370D01*
X429150Y705757D01*
X430001Y706708D01*
X430456Y707273D01*
X430931Y703024D01*
D02*
G37*
G36*
X426921Y702389D02*
X427123Y702303D01*
X427365Y702176D01*
X428037Y701704D01*
X428033Y701682D01*
X427951Y701331D01*
X427864Y701055D01*
X427778Y700858D01*
X427769Y700843D01*
X420713Y693787D01*
X420180Y692500D01*
Y675399D01*
X419765Y675121D01*
X418464Y675660D01*
X416603Y674889D01*
X416103Y675223D01*
Y696836D01*
X421664Y702397D01*
X426896D01*
X426921Y702389D01*
D02*
G37*
G36*
X419553Y671038D02*
X419255Y670685D01*
X419135Y670519D01*
X419032Y670359D01*
X418949Y670206D01*
X418884Y670060D01*
X418837Y669921D01*
X418809Y669788D01*
X418800Y669662D01*
X418200Y669649D01*
X418190Y669778D01*
X418162Y669912D01*
X418115Y670051D01*
X418048Y670196D01*
X417963Y670346D01*
X417858Y670501D01*
X417734Y670661D01*
X417592Y670827D01*
X417250Y671174D01*
X419730Y671224D01*
X419553Y671038D01*
D02*
G37*
G36*
X401627Y659134D02*
X401746Y658959D01*
X401867Y658805D01*
X401992Y658671D01*
X402118Y658557D01*
X402248Y658465D01*
X402380Y658393D01*
X402514Y658341D01*
X402652Y658310D01*
X402791Y658300D01*
X402626Y657700D01*
X402525Y657692D01*
X402407Y657669D01*
X402273Y657631D01*
X402121Y657578D01*
X401768Y657425D01*
X401348Y657211D01*
X400860Y656936D01*
X401510Y659330D01*
X401627Y659134D01*
D02*
G37*
G36*
X416738Y669765D02*
X416843Y669720D01*
X416876Y669671D01*
X416897Y669634D01*
Y657164D01*
X415259Y655526D01*
X402744D01*
X402699Y655551D01*
X402612Y655608D01*
X402518Y655678D01*
X402429Y655756D01*
X402395Y655831D01*
X402379Y655913D01*
X402404Y656251D01*
X402617Y656397D01*
X412000D01*
X413134Y656866D01*
X415634Y659366D01*
X416103Y660500D01*
Y669396D01*
X416568Y669791D01*
X416738Y669765D01*
D02*
G37*
G36*
X401369Y654984D02*
X401714Y654683D01*
X401877Y654561D01*
X402035Y654458D01*
X402186Y654373D01*
X402332Y654307D01*
X402471Y654260D01*
X402604Y654232D01*
X402732Y654223D01*
Y653623D01*
X402604Y653613D01*
X402471Y653585D01*
X402332Y653538D01*
X402186Y653472D01*
X402035Y653388D01*
X401877Y653284D01*
X401714Y653162D01*
X401369Y652861D01*
X401188Y652683D01*
Y655163D01*
X401369Y654984D01*
D02*
G37*
G36*
X430002Y611742D02*
X430277Y611580D01*
X430607Y611438D01*
X430992Y611315D01*
X431431Y611212D01*
X431926Y611130D01*
X433081Y611025D01*
X433740Y611002D01*
X434455Y611000D01*
X430000Y606545D01*
X429998Y607260D01*
X429870Y609074D01*
X429787Y609569D01*
X429685Y610008D01*
X429562Y610393D01*
X429420Y610723D01*
X429257Y610998D01*
X429075Y611218D01*
X429782Y611925D01*
X430002Y611742D01*
D02*
G37*
G36*
X605540Y689110D02*
X605427Y689050D01*
X605327Y688975D01*
X605240Y688883D01*
X605167Y688776D01*
X605107Y688653D01*
X605060Y688513D01*
X605027Y688358D01*
X605007Y688187D01*
X605000Y688000D01*
X604000D01*
X603993Y688187D01*
X603973Y688358D01*
X603940Y688513D01*
X603893Y688653D01*
X603833Y688776D01*
X603760Y688883D01*
X603673Y688975D01*
X603573Y689050D01*
X603460Y689110D01*
X603333Y689154D01*
X605667D01*
X605540Y689110D01*
D02*
G37*
G36*
X581911Y687600D02*
X582057Y687474D01*
X582205Y687363D01*
X582353Y687266D01*
X582502Y687185D01*
X582653Y687118D01*
X582804Y687067D01*
X582956Y687030D01*
X583109Y687007D01*
X583263Y687000D01*
Y686000D01*
X583109Y685993D01*
X582956Y685970D01*
X582804Y685933D01*
X582653Y685882D01*
X582502Y685815D01*
X582353Y685734D01*
X582205Y685637D01*
X582057Y685526D01*
X581911Y685400D01*
X581765Y685260D01*
Y687740D01*
X581911Y687600D01*
D02*
G37*
G36*
X376543Y655967D02*
X376492Y655948D01*
X376447Y655918D01*
X376408Y655875D01*
X376375Y655820D01*
X376348Y655753D01*
X376327Y655673D01*
X376312Y655581D01*
X376303Y655477D01*
X376300Y655361D01*
X375700D01*
X375697Y655477D01*
X375688Y655581D01*
X375673Y655673D01*
X375652Y655753D01*
X375625Y655820D01*
X375592Y655875D01*
X375553Y655918D01*
X375508Y655948D01*
X375457Y655967D01*
X375400Y655973D01*
X376600D01*
X376543Y655967D01*
D02*
G37*
G36*
X376303Y653925D02*
X376312Y653820D01*
X376327Y653729D01*
X376348Y653649D01*
X376375Y653582D01*
X376408Y653527D01*
X376447Y653484D01*
X376492Y653453D01*
X376543Y653435D01*
X376600Y653429D01*
X375400D01*
X375457Y653435D01*
X375508Y653453D01*
X375553Y653484D01*
X375592Y653527D01*
X375625Y653582D01*
X375652Y653649D01*
X375673Y653729D01*
X375688Y653820D01*
X375697Y653925D01*
X375700Y654041D01*
X376300D01*
X376303Y653925D01*
D02*
G37*
G36*
X358712Y651030D02*
X358720Y651017D01*
X358734Y650999D01*
X358782Y650945D01*
X359009Y650712D01*
X358584Y650288D01*
X358401Y650415D01*
X358710Y651037D01*
X358712Y651030D01*
D02*
G37*
G36*
X374437Y649900D02*
X374431Y649957D01*
X374413Y650008D01*
X374383Y650053D01*
X374341Y650092D01*
X374287Y650125D01*
X374221Y650152D01*
X374143Y650173D01*
X374053Y650188D01*
X373951Y650197D01*
X373837Y650200D01*
Y650800D01*
X373951Y650803D01*
X374053Y650812D01*
X374143Y650827D01*
X374221Y650848D01*
X374287Y650875D01*
X374341Y650908D01*
X374383Y650947D01*
X374413Y650992D01*
X374431Y651043D01*
X374437Y651100D01*
Y649900D01*
D02*
G37*
G36*
X376543Y647565D02*
X376492Y647547D01*
X376447Y647516D01*
X376408Y647473D01*
X376375Y647418D01*
X376348Y647351D01*
X376327Y647271D01*
X376312Y647180D01*
X376303Y647076D01*
X376300Y646959D01*
X375700D01*
X375697Y647076D01*
X375688Y647180D01*
X375673Y647271D01*
X375652Y647351D01*
X375625Y647418D01*
X375592Y647473D01*
X375553Y647516D01*
X375508Y647547D01*
X375457Y647565D01*
X375400Y647571D01*
X376600D01*
X376543Y647565D01*
D02*
G37*
G36*
X376303Y643925D02*
X376312Y643820D01*
X376327Y643729D01*
X376348Y643649D01*
X376375Y643582D01*
X376408Y643527D01*
X376447Y643484D01*
X376492Y643453D01*
X376543Y643435D01*
X376600Y643429D01*
X375400D01*
X375457Y643435D01*
X375508Y643453D01*
X375553Y643484D01*
X375592Y643527D01*
X375625Y643582D01*
X375652Y643649D01*
X375673Y643729D01*
X375688Y643820D01*
X375697Y643925D01*
X375700Y644041D01*
X376300D01*
X376303Y643925D01*
D02*
G37*
G36*
X374437Y643441D02*
Y642553D01*
X374431Y642610D01*
X374413Y642661D01*
X374383Y642706D01*
X374341Y642745D01*
X374287Y642778D01*
X374221Y642805D01*
X374143Y642826D01*
X374053Y642841D01*
X373951Y642850D01*
X373837Y642853D01*
Y643453D01*
X374437Y643441D01*
D02*
G37*
G36*
X356616Y644275D02*
X356750Y644103D01*
X356884Y643950D01*
X357018Y643818D01*
X357153Y643707D01*
X357288Y643615D01*
X357424Y643544D01*
X357560Y643493D01*
X357697Y643463D01*
X357834Y643453D01*
X357712Y642853D01*
X357602Y642845D01*
X357478Y642820D01*
X357341Y642779D01*
X357190Y642722D01*
X357026Y642649D01*
X356655Y642452D01*
X356230Y642191D01*
X355998Y642036D01*
X356484Y644468D01*
X356616Y644275D01*
D02*
G37*
G36*
X377563Y637559D02*
X377513Y637553D01*
X377468Y637535D01*
X377429Y637505D01*
X377395Y637463D01*
X377366Y637409D01*
X377342Y637343D01*
X377324Y637265D01*
X377310Y637175D01*
X377303Y637073D01*
X377300Y636959D01*
X376700D01*
X376697Y637075D01*
X376688Y637179D01*
X376673Y637270D01*
X376652Y637349D01*
X376625Y637417D01*
X376592Y637472D01*
X376553Y637515D01*
X376508Y637546D01*
X376457Y637565D01*
X376400Y637571D01*
X377563Y637559D01*
D02*
G37*
G36*
X377303Y635523D02*
X377312Y635419D01*
X377327Y635327D01*
X377348Y635248D01*
X377375Y635180D01*
X377408Y635125D01*
X377447Y635082D01*
X377492Y635052D01*
X377543Y635033D01*
X377600Y635027D01*
X376400D01*
X376457Y635033D01*
X376508Y635052D01*
X376553Y635082D01*
X376592Y635125D01*
X376625Y635180D01*
X376652Y635248D01*
X376673Y635327D01*
X376688Y635419D01*
X376697Y635523D01*
X376700Y635639D01*
X377300D01*
X377303Y635523D01*
D02*
G37*
G36*
X408059Y641274D02*
X407787Y641408D01*
X406581Y641920D01*
X406451Y641955D01*
X406341Y641976D01*
X406251Y641984D01*
X406042Y642584D01*
X406184Y642594D01*
X406321Y642625D01*
X406454Y642677D01*
X406582Y642750D01*
X406706Y642843D01*
X406825Y642957D01*
X406940Y643092D01*
X407051Y643248D01*
X407156Y643424D01*
X407258Y643621D01*
X408059Y641274D01*
D02*
G37*
G36*
X401230Y643345D02*
X401575Y643044D01*
X401738Y642922D01*
X401896Y642819D01*
X402047Y642734D01*
X402192Y642668D01*
X402332Y642621D01*
X402465Y642593D01*
X402593Y642584D01*
Y641984D01*
X402465Y641974D01*
X402332Y641946D01*
X402192Y641899D01*
X402047Y641833D01*
X401896Y641749D01*
X401738Y641645D01*
X401575Y641523D01*
X401230Y641222D01*
X401049Y641044D01*
Y643524D01*
X401230Y643345D01*
D02*
G37*
G36*
X409060Y636785D02*
X408789Y636920D01*
X407586Y637435D01*
X407455Y637470D01*
X407345Y637492D01*
X407254Y637499D01*
X407049Y638099D01*
X407190Y638109D01*
X407327Y638140D01*
X407460Y638192D01*
X407589Y638265D01*
X407713Y638358D01*
X407833Y638472D01*
X407948Y638607D01*
X408060Y638762D01*
X408167Y638939D01*
X408269Y639136D01*
X409060Y636785D01*
D02*
G37*
G36*
X401245Y638860D02*
X401590Y638559D01*
X401753Y638437D01*
X401911Y638334D01*
X402062Y638249D01*
X402208Y638183D01*
X402347Y638136D01*
X402480Y638108D01*
X402608Y638099D01*
Y637499D01*
X402480Y637489D01*
X402347Y637461D01*
X402208Y637414D01*
X402062Y637348D01*
X401911Y637264D01*
X401753Y637160D01*
X401590Y637038D01*
X401245Y636737D01*
X401064Y636559D01*
Y639039D01*
X401245Y638860D01*
D02*
G37*
G36*
X351027Y611083D02*
X351023Y611054D01*
X351026Y611023D01*
X351036Y610988D01*
X351053Y610950D01*
X351078Y610909D01*
X351109Y610864D01*
X351147Y610817D01*
X351244Y610712D01*
X350819Y610288D01*
X350765Y610340D01*
X350667Y610423D01*
X350623Y610454D01*
X350582Y610478D01*
X350544Y610495D01*
X350509Y610505D01*
X350477Y610509D01*
X350449Y610505D01*
X350424Y610494D01*
X351037Y611108D01*
X351027Y611083D01*
D02*
G37*
G36*
X353473Y609900D02*
X353467Y609957D01*
X353448Y610008D01*
X353418Y610053D01*
X353375Y610092D01*
X353320Y610125D01*
X353253Y610152D01*
X353173Y610173D01*
X353081Y610188D01*
X352977Y610197D01*
X352861Y610200D01*
Y610800D01*
X352977Y610803D01*
X353081Y610812D01*
X353173Y610827D01*
X353253Y610848D01*
X353320Y610875D01*
X353375Y610908D01*
X353418Y610947D01*
X353448Y610992D01*
X353467Y611043D01*
X353473Y611100D01*
Y609900D01*
D02*
G37*
G36*
X351935Y611043D02*
X351953Y610992D01*
X351984Y610947D01*
X352027Y610908D01*
X352082Y610875D01*
X352149Y610848D01*
X352229Y610827D01*
X352320Y610812D01*
X352425Y610803D01*
X352541Y610800D01*
Y610200D01*
X352425Y610197D01*
X352320Y610188D01*
X352229Y610173D01*
X352149Y610152D01*
X352082Y610125D01*
X352027Y610092D01*
X351984Y610053D01*
X351953Y610008D01*
X351935Y609957D01*
X351929Y609900D01*
Y611100D01*
X351935Y611043D01*
D02*
G37*
G36*
X432955Y487500D02*
X432240Y487498D01*
X430426Y487370D01*
X429931Y487288D01*
X429492Y487185D01*
X429107Y487062D01*
X428777Y486920D01*
X428502Y486758D01*
X428282Y486575D01*
X427575Y487282D01*
X427758Y487502D01*
X427920Y487777D01*
X428062Y488107D01*
X428185Y488492D01*
X428288Y488932D01*
X428370Y489426D01*
X428475Y490581D01*
X428498Y491240D01*
X428500Y491955D01*
X432955Y487500D01*
D02*
G37*
G36*
X429002Y399242D02*
X429277Y399080D01*
X429607Y398938D01*
X429992Y398815D01*
X430432Y398712D01*
X430926Y398630D01*
X432081Y398525D01*
X432740Y398502D01*
X433455Y398500D01*
X429000Y394045D01*
X428998Y394760D01*
X428870Y396574D01*
X428788Y397069D01*
X428685Y397508D01*
X428562Y397893D01*
X428420Y398223D01*
X428258Y398498D01*
X428075Y398718D01*
X428782Y399425D01*
X429002Y399242D01*
D02*
G37*
G36*
X410735Y477260D02*
X410554Y477438D01*
X410209Y477739D01*
X410045Y477861D01*
X409888Y477965D01*
X409737Y478050D01*
X409591Y478115D01*
X409452Y478162D01*
X409318Y478191D01*
X409191Y478200D01*
Y478800D01*
X409318Y478809D01*
X409452Y478838D01*
X409591Y478885D01*
X409737Y478950D01*
X409888Y479035D01*
X410045Y479139D01*
X410209Y479261D01*
X410554Y479562D01*
X410735Y479740D01*
Y477260D01*
D02*
G37*
G36*
X393947Y479562D02*
X394291Y479261D01*
X394455Y479139D01*
X394612Y479035D01*
X394763Y478950D01*
X394909Y478885D01*
X395048Y478838D01*
X395182Y478809D01*
X395309Y478800D01*
Y478200D01*
X395182Y478191D01*
X395048Y478162D01*
X394909Y478115D01*
X394763Y478050D01*
X394612Y477965D01*
X394455Y477861D01*
X394291Y477739D01*
X393947Y477438D01*
X393765Y477260D01*
Y479740D01*
X393947Y479562D01*
D02*
G37*
G36*
X409224Y476871D02*
X409311Y476815D01*
X409404Y476745D01*
X409603Y476571D01*
X409740Y476240D01*
X409740Y475760D01*
X409603Y475429D01*
X409404Y475255D01*
X409311Y475185D01*
X409224Y475129D01*
X409179Y475103D01*
X394776D01*
X394722Y475133D01*
X394631Y475191D01*
X394532Y475263D01*
X394353Y475414D01*
X394311Y475513D01*
X394478Y476123D01*
X394760Y476240D01*
X394897Y476571D01*
X395096Y476745D01*
X395189Y476815D01*
X395276Y476871D01*
X395321Y476897D01*
X409179D01*
X409224Y476871D01*
D02*
G37*
G36*
X410735Y472260D02*
X410554Y472438D01*
X410209Y472739D01*
X410045Y472861D01*
X409888Y472965D01*
X409737Y473050D01*
X409591Y473115D01*
X409452Y473162D01*
X409318Y473191D01*
X409191Y473200D01*
Y473800D01*
X409318Y473809D01*
X409452Y473838D01*
X409591Y473885D01*
X409737Y473950D01*
X409888Y474035D01*
X410045Y474138D01*
X410209Y474261D01*
X410554Y474562D01*
X410735Y474740D01*
Y472260D01*
D02*
G37*
G36*
X393390Y474553D02*
X393743Y474256D01*
X393910Y474135D01*
X394069Y474032D01*
X394222Y473949D01*
X394368Y473884D01*
X394508Y473837D01*
X394641Y473809D01*
X394767Y473800D01*
X394779Y473200D01*
X394650Y473190D01*
X394516Y473162D01*
X394377Y473114D01*
X394232Y473048D01*
X394083Y472963D01*
X393928Y472858D01*
X393767Y472734D01*
X393601Y472592D01*
X393254Y472250D01*
X393204Y474730D01*
X393390Y474553D01*
D02*
G37*
G36*
X604540Y476610D02*
X604427Y476550D01*
X604327Y476475D01*
X604240Y476383D01*
X604167Y476276D01*
X604107Y476153D01*
X604060Y476013D01*
X604027Y475858D01*
X604007Y475687D01*
X604000Y475500D01*
X603000D01*
X602993Y475687D01*
X602973Y475858D01*
X602940Y476013D01*
X602893Y476153D01*
X602833Y476276D01*
X602760Y476383D01*
X602673Y476475D01*
X602573Y476550D01*
X602460Y476610D01*
X602333Y476654D01*
X604667D01*
X604540Y476610D01*
D02*
G37*
G36*
X580911Y475100D02*
X581057Y474974D01*
X581205Y474863D01*
X581353Y474766D01*
X581502Y474685D01*
X581652Y474618D01*
X581804Y474567D01*
X581956Y474530D01*
X582109Y474507D01*
X582263Y474500D01*
Y473500D01*
X582109Y473493D01*
X581956Y473470D01*
X581804Y473433D01*
X581652Y473382D01*
X581502Y473315D01*
X581353Y473234D01*
X581205Y473137D01*
X581057Y473026D01*
X580911Y472900D01*
X580765Y472760D01*
Y475240D01*
X580911Y475100D01*
D02*
G37*
G36*
X401745Y280739D02*
X401787Y280278D01*
X401820Y280075D01*
X401862Y279889D01*
X401912Y279722D01*
X401969Y279573D01*
X402035Y279441D01*
X402109Y279328D01*
X402192Y279233D01*
X401780Y278796D01*
X401682Y278881D01*
X401567Y278955D01*
X401434Y279020D01*
X401285Y279075D01*
X401119Y279119D01*
X400936Y279154D01*
X400735Y279179D01*
X400518Y279194D01*
X400033Y279194D01*
X401735Y280997D01*
X401745Y280739D01*
D02*
G37*
G36*
X432712Y278788D02*
X432675Y278749D01*
X432611Y278674D01*
X432584Y278637D01*
X432560Y278602D01*
X432540Y278567D01*
X432524Y278533D01*
X432511Y278499D01*
X432502Y278466D01*
X432496Y278434D01*
X431934Y278996D01*
X431966Y279002D01*
X431999Y279011D01*
X432032Y279024D01*
X432067Y279040D01*
X432102Y279060D01*
X432137Y279084D01*
X432174Y279111D01*
X432249Y279175D01*
X432288Y279212D01*
X432712Y278788D01*
D02*
G37*
G36*
X431647Y278146D02*
X431627Y278156D01*
X431588Y278166D01*
X431530Y278174D01*
X431358Y278187D01*
X430600Y278200D01*
Y278800D01*
X431647Y278854D01*
Y278146D01*
D02*
G37*
G36*
X429431Y277524D02*
X432455Y274500D01*
X431740Y274498D01*
X429926Y274370D01*
X429431Y274288D01*
X428992Y274185D01*
X428607Y274062D01*
X428277Y273920D01*
X428002Y273758D01*
X427782Y273575D01*
X427075Y274282D01*
X427257Y274502D01*
X427420Y274777D01*
X427562Y275107D01*
X427685Y275492D01*
X427787Y275932D01*
X427870Y276426D01*
X427905Y276806D01*
X426532Y277770D01*
X426172Y277958D01*
X425859Y278093D01*
X425593Y278173D01*
X425372Y278200D01*
X425304Y278800D01*
X425579Y278830D01*
X425874Y278919D01*
X426190Y279068D01*
X426525Y279276D01*
X426880Y279543D01*
X427255Y279870D01*
X427650Y280257D01*
X428501Y281208D01*
X428956Y281773D01*
X429431Y277524D01*
D02*
G37*
G36*
X428502Y186242D02*
X428777Y186080D01*
X429107Y185938D01*
X429492Y185815D01*
X429931Y185713D01*
X430426Y185630D01*
X431581Y185525D01*
X432240Y185502D01*
X432955Y185500D01*
X428500Y181045D01*
X428498Y181760D01*
X428370Y183574D01*
X428288Y184069D01*
X428185Y184508D01*
X428062Y184893D01*
X427920Y185223D01*
X427758Y185498D01*
X427575Y185718D01*
X428282Y186425D01*
X428502Y186242D01*
D02*
G37*
G36*
X604040Y263610D02*
X603927Y263550D01*
X603827Y263475D01*
X603740Y263383D01*
X603667Y263276D01*
X603607Y263153D01*
X603560Y263013D01*
X603527Y262858D01*
X603507Y262687D01*
X603500Y262500D01*
X602500D01*
X602493Y262687D01*
X602473Y262858D01*
X602440Y263013D01*
X602393Y263153D01*
X602333Y263276D01*
X602260Y263383D01*
X602173Y263475D01*
X602073Y263550D01*
X601960Y263610D01*
X601833Y263654D01*
X604167D01*
X604040Y263610D01*
D02*
G37*
G36*
X580411Y262100D02*
X580557Y261974D01*
X580705Y261863D01*
X580853Y261767D01*
X581002Y261685D01*
X581152Y261618D01*
X581304Y261567D01*
X581456Y261530D01*
X581609Y261507D01*
X581763Y261500D01*
Y260500D01*
X581609Y260493D01*
X581456Y260470D01*
X581304Y260433D01*
X581152Y260382D01*
X581002Y260315D01*
X580853Y260233D01*
X580705Y260137D01*
X580557Y260026D01*
X580411Y259900D01*
X580265Y259760D01*
Y262240D01*
X580411Y262100D01*
D02*
G37*
%LPC*%
G36*
X264000Y774987D02*
X262968Y774851D01*
X262007Y774453D01*
X261581Y774126D01*
X264000Y771707D01*
X266419Y774126D01*
X265993Y774453D01*
X265032Y774851D01*
X264000Y774987D01*
D02*
G37*
G36*
X267126Y773419D02*
X264707Y771000D01*
X267126Y768581D01*
X267453Y769007D01*
X267851Y769968D01*
X267987Y771000D01*
X267851Y772032D01*
X267453Y772993D01*
X267126Y773419D01*
D02*
G37*
G36*
X260874D02*
X260547Y772993D01*
X260149Y772032D01*
X260013Y771000D01*
X260149Y769968D01*
X260547Y769007D01*
X260874Y768581D01*
X263293Y771000D01*
X260874Y773419D01*
D02*
G37*
G36*
X264000Y770293D02*
X261581Y767874D01*
X262007Y767547D01*
X262968Y767149D01*
X264000Y767013D01*
X265032Y767149D01*
X265993Y767547D01*
X266419Y767874D01*
X264000Y770293D01*
D02*
G37*
G36*
X278134Y775134D02*
X269866D01*
Y766866D01*
X278134D01*
Y775134D01*
D02*
G37*
G36*
X256500Y763478D02*
X255729Y763377D01*
X255011Y763079D01*
X254394Y762606D01*
X253921Y761989D01*
X253623Y761271D01*
X253522Y760500D01*
X253623Y759729D01*
X253921Y759011D01*
X254394Y758394D01*
X255011Y757921D01*
X255729Y757623D01*
X256500Y757522D01*
X257271Y757623D01*
X257989Y757921D01*
X258606Y758394D01*
X259079Y759011D01*
X259377Y759729D01*
X259478Y760500D01*
X259377Y761271D01*
X259079Y761989D01*
X258606Y762606D01*
X257989Y763079D01*
X257271Y763377D01*
X256500Y763478D01*
D02*
G37*
G36*
X228500Y718590D02*
X227571Y718467D01*
X226705Y718109D01*
X226362Y717845D01*
X228500Y715707D01*
X230638Y717845D01*
X230295Y718109D01*
X229429Y718467D01*
X228500Y718590D01*
D02*
G37*
G36*
X225655Y717138D02*
X225391Y716795D01*
X225033Y715929D01*
X224910Y715000D01*
X225033Y714071D01*
X225391Y713205D01*
X225655Y712862D01*
X227793Y715000D01*
X225655Y717138D01*
D02*
G37*
G36*
X231345Y717138D02*
X229207Y715000D01*
X231345Y712862D01*
X231609Y713205D01*
X231967Y714071D01*
X232090Y715000D01*
X231967Y715929D01*
X231609Y716795D01*
X231345Y717138D01*
D02*
G37*
G36*
X228500Y714293D02*
X226362Y712155D01*
X226705Y711891D01*
X227571Y711533D01*
X228500Y711410D01*
X229429Y711533D01*
X230295Y711891D01*
X230638Y712155D01*
X228500Y714293D01*
D02*
G37*
G36*
X258500Y718772D02*
X257524Y718644D01*
X256614Y718267D01*
X255833Y717667D01*
X255233Y716886D01*
X254856Y715976D01*
X254728Y715000D01*
X254856Y714024D01*
X255233Y713114D01*
X255833Y712332D01*
X256614Y711733D01*
X257524Y711356D01*
X258500Y711228D01*
X259476Y711356D01*
X260386Y711733D01*
X261168Y712332D01*
X261767Y713114D01*
X262144Y714024D01*
X262272Y715000D01*
X262144Y715976D01*
X261767Y716886D01*
X261168Y717667D01*
X260386Y718267D01*
X259476Y718644D01*
X258500Y718772D01*
D02*
G37*
G36*
X228500Y708590D02*
X227571Y708467D01*
X226705Y708109D01*
X226362Y707845D01*
X228500Y705707D01*
X230638Y707845D01*
X230295Y708109D01*
X229429Y708467D01*
X228500Y708590D01*
D02*
G37*
G36*
X225655Y707138D02*
X225391Y706795D01*
X225033Y705929D01*
X224910Y705000D01*
X225033Y704071D01*
X225391Y703205D01*
X225655Y702862D01*
X227793Y705000D01*
X225655Y707138D01*
D02*
G37*
G36*
X231345Y707138D02*
X229207Y705000D01*
X231345Y702862D01*
X231609Y703205D01*
X231967Y704071D01*
X232090Y705000D01*
X231967Y705929D01*
X231609Y706795D01*
X231345Y707138D01*
D02*
G37*
G36*
X228500Y704293D02*
X226362Y702155D01*
X226705Y701891D01*
X227571Y701533D01*
X228500Y701410D01*
X229429Y701533D01*
X230295Y701891D01*
X230638Y702155D01*
X228500Y704293D01*
D02*
G37*
G36*
X262240Y708740D02*
X254760D01*
Y701260D01*
X262240D01*
Y708740D01*
D02*
G37*
G36*
X274000Y757730D02*
X272517Y757535D01*
X271135Y756962D01*
X269948Y756052D01*
X269038Y754865D01*
X268465Y753483D01*
X268270Y752000D01*
X268465Y750517D01*
X269038Y749135D01*
X269948Y747948D01*
X270104Y747829D01*
X270486Y747444D01*
X270901Y747000D01*
X271592Y746170D01*
X271835Y745829D01*
X272028Y745519D01*
X272164Y745256D01*
X272247Y745048D01*
X272283Y744905D01*
X272286Y744877D01*
Y706182D01*
X272276Y706142D01*
X272259Y706093D01*
X272234Y706036D01*
X272198Y705970D01*
X272150Y705895D01*
X272088Y705813D01*
X272010Y705722D01*
X271908Y705617D01*
X271894Y705606D01*
X271421Y704989D01*
X271123Y704271D01*
X271022Y703500D01*
X271123Y702729D01*
X271421Y702011D01*
X271894Y701394D01*
X272511Y700921D01*
X273229Y700623D01*
X274000Y700522D01*
X274771Y700623D01*
X275489Y700921D01*
X276106Y701394D01*
X276579Y702011D01*
X276877Y702729D01*
X276978Y703500D01*
X276877Y704271D01*
X276579Y704989D01*
X276106Y705606D01*
X276092Y705617D01*
X275990Y705722D01*
X275912Y705813D01*
X275850Y705895D01*
X275802Y705970D01*
X275766Y706036D01*
X275741Y706093D01*
X275724Y706142D01*
X275714Y706182D01*
Y744877D01*
X275717Y744905D01*
X275753Y745048D01*
X275836Y745256D01*
X275972Y745519D01*
X276165Y745829D01*
X276401Y746160D01*
X277529Y747459D01*
X277896Y747829D01*
X278052Y747948D01*
X278962Y749135D01*
X279535Y750517D01*
X279730Y752000D01*
X279535Y753483D01*
X278962Y754865D01*
X278052Y756052D01*
X276865Y756962D01*
X275483Y757535D01*
X274000Y757730D01*
D02*
G37*
G36*
X231352Y681559D02*
X225648D01*
X228500Y678707D01*
X231352Y681559D01*
D02*
G37*
G36*
X232059Y680852D02*
X229207Y678000D01*
X232059Y675148D01*
Y680852D01*
D02*
G37*
G36*
X224941Y680852D02*
Y675148D01*
X227793Y678000D01*
X224941Y680852D01*
D02*
G37*
G36*
X228500Y677293D02*
X225648Y674441D01*
X231352D01*
X228500Y677293D01*
D02*
G37*
G36*
Y671590D02*
X227571Y671467D01*
X226705Y671109D01*
X226362Y670845D01*
X228500Y668707D01*
X230638Y670845D01*
X230295Y671109D01*
X229429Y671467D01*
X228500Y671590D01*
D02*
G37*
G36*
X231345Y670138D02*
X229207Y668000D01*
X231345Y665862D01*
X231609Y666205D01*
X231967Y667071D01*
X232090Y668000D01*
X231967Y668929D01*
X231609Y669795D01*
X231345Y670138D01*
D02*
G37*
G36*
X225655D02*
X225391Y669795D01*
X225033Y668929D01*
X224910Y668000D01*
X225033Y667071D01*
X225391Y666205D01*
X225655Y665862D01*
X227793Y668000D01*
X225655Y670138D01*
D02*
G37*
G36*
X228500Y667293D02*
X226362Y665155D01*
X226705Y664891D01*
X227571Y664533D01*
X228500Y664410D01*
X229429Y664533D01*
X230295Y664891D01*
X230638Y665155D01*
X228500Y667293D01*
D02*
G37*
G36*
Y661590D02*
X227571Y661467D01*
X226705Y661109D01*
X226362Y660845D01*
X228500Y658707D01*
X230638Y660845D01*
X230295Y661109D01*
X229429Y661467D01*
X228500Y661590D01*
D02*
G37*
G36*
X231345Y660138D02*
X229207Y658000D01*
X231345Y655862D01*
X231609Y656205D01*
X231967Y657071D01*
X232090Y658000D01*
X231967Y658929D01*
X231609Y659795D01*
X231345Y660138D01*
D02*
G37*
G36*
X225655D02*
X225391Y659795D01*
X225033Y658929D01*
X224910Y658000D01*
X225033Y657071D01*
X225391Y656205D01*
X225655Y655862D01*
X227793Y658000D01*
X225655Y660138D01*
D02*
G37*
G36*
X228500Y657293D02*
X226362Y655155D01*
X226705Y654891D01*
X227571Y654533D01*
X228500Y654410D01*
X229429Y654533D01*
X230295Y654891D01*
X230638Y655155D01*
X228500Y657293D01*
D02*
G37*
G36*
X258500Y661772D02*
X257524Y661644D01*
X256614Y661267D01*
X255833Y660668D01*
X255233Y659886D01*
X254856Y658976D01*
X254728Y658000D01*
X254856Y657024D01*
X255233Y656114D01*
X255833Y655333D01*
X256614Y654733D01*
X257524Y654356D01*
X258500Y654228D01*
X259476Y654356D01*
X260386Y654733D01*
X261168Y655333D01*
X261767Y656114D01*
X262144Y657024D01*
X262272Y658000D01*
X262144Y658976D01*
X261767Y659886D01*
X261168Y660668D01*
X260386Y661267D01*
X259476Y661644D01*
X258500Y661772D01*
D02*
G37*
G36*
X228500Y651590D02*
X227571Y651467D01*
X226705Y651109D01*
X226362Y650845D01*
X228500Y648707D01*
X230638Y650845D01*
X230295Y651109D01*
X229429Y651467D01*
X228500Y651590D01*
D02*
G37*
G36*
X231345Y650138D02*
X229207Y648000D01*
X231345Y645862D01*
X231609Y646205D01*
X231967Y647071D01*
X232090Y648000D01*
X231967Y648929D01*
X231609Y649795D01*
X231345Y650138D01*
D02*
G37*
G36*
X225655D02*
X225391Y649795D01*
X225033Y648929D01*
X224910Y648000D01*
X225033Y647071D01*
X225391Y646205D01*
X225655Y645862D01*
X227793Y648000D01*
X225655Y650138D01*
D02*
G37*
G36*
X228500Y647293D02*
X226362Y645155D01*
X226705Y644891D01*
X227571Y644533D01*
X228500Y644410D01*
X229429Y644533D01*
X230295Y644891D01*
X230638Y645155D01*
X228500Y647293D01*
D02*
G37*
G36*
X258500Y651772D02*
X257524Y651644D01*
X256614Y651267D01*
X255833Y650667D01*
X255233Y649886D01*
X254856Y648976D01*
X254728Y648000D01*
X254856Y647024D01*
X255233Y646114D01*
X255833Y645332D01*
X256614Y644733D01*
X257524Y644356D01*
X258500Y644228D01*
X259476Y644356D01*
X260386Y644733D01*
X261168Y645332D01*
X261767Y646114D01*
X262144Y647024D01*
X262272Y648000D01*
X262144Y648976D01*
X261767Y649886D01*
X261168Y650667D01*
X260386Y651267D01*
X259476Y651644D01*
X258500Y651772D01*
D02*
G37*
G36*
X228500Y641590D02*
X227571Y641467D01*
X226705Y641109D01*
X226362Y640845D01*
X228500Y638707D01*
X230638Y640845D01*
X230295Y641109D01*
X229429Y641467D01*
X228500Y641590D01*
D02*
G37*
G36*
X316000Y639244D02*
Y637169D01*
X319453D01*
Y639244D01*
X316000D01*
D02*
G37*
G36*
X231345Y640138D02*
X229207Y638000D01*
X231345Y635862D01*
X231609Y636205D01*
X231967Y637071D01*
X232090Y638000D01*
X231967Y638929D01*
X231609Y639795D01*
X231345Y640138D01*
D02*
G37*
G36*
X225655D02*
X225391Y639795D01*
X225033Y638929D01*
X224910Y638000D01*
X225033Y637071D01*
X225391Y636205D01*
X225655Y635862D01*
X227793Y638000D01*
X225655Y640138D01*
D02*
G37*
G36*
X228500Y637293D02*
X226362Y635155D01*
X226705Y634891D01*
X227571Y634533D01*
X228500Y634410D01*
X229429Y634533D01*
X230295Y634891D01*
X230638Y635155D01*
X228500Y637293D01*
D02*
G37*
G36*
X258500Y641772D02*
X257524Y641644D01*
X256614Y641267D01*
X255833Y640667D01*
X255233Y639886D01*
X254856Y638976D01*
X254728Y638000D01*
X254856Y637024D01*
X255233Y636114D01*
X255833Y635332D01*
X256614Y634733D01*
X257524Y634356D01*
X258500Y634228D01*
X259476Y634356D01*
X260386Y634733D01*
X261168Y635332D01*
X261767Y636114D01*
X262144Y637024D01*
X262272Y638000D01*
X262144Y638976D01*
X261767Y639886D01*
X261168Y640667D01*
X260386Y641267D01*
X259476Y641644D01*
X258500Y641772D01*
D02*
G37*
G36*
X319453Y636169D02*
X316000D01*
Y634094D01*
X319453D01*
Y636169D01*
D02*
G37*
G36*
X306500Y636162D02*
X302949D01*
Y633004D01*
X306500D01*
Y636162D01*
D02*
G37*
G36*
X228500Y631590D02*
X227571Y631467D01*
X226705Y631109D01*
X226362Y630845D01*
X228500Y628707D01*
X230638Y630845D01*
X230295Y631109D01*
X229429Y631467D01*
X228500Y631590D01*
D02*
G37*
G36*
X231345Y630138D02*
X229207Y628000D01*
X231345Y625862D01*
X231609Y626205D01*
X231967Y627071D01*
X232090Y628000D01*
X231967Y628929D01*
X231609Y629795D01*
X231345Y630138D01*
D02*
G37*
G36*
X225655D02*
X225391Y629795D01*
X225033Y628929D01*
X224910Y628000D01*
X225033Y627071D01*
X225391Y626205D01*
X225655Y625862D01*
X227793Y628000D01*
X225655Y630138D01*
D02*
G37*
G36*
X228500Y627293D02*
X226362Y625155D01*
X226705Y624891D01*
X227571Y624533D01*
X228500Y624410D01*
X229429Y624533D01*
X230295Y624891D01*
X230638Y625155D01*
X228500Y627293D01*
D02*
G37*
G36*
Y621590D02*
X227571Y621467D01*
X226705Y621109D01*
X226362Y620845D01*
X228500Y618707D01*
X230638Y620845D01*
X230295Y621109D01*
X229429Y621467D01*
X228500Y621590D01*
D02*
G37*
G36*
X231345Y620138D02*
X229207Y618000D01*
X231345Y615862D01*
X231609Y616205D01*
X231967Y617071D01*
X232090Y618000D01*
X231967Y618929D01*
X231609Y619795D01*
X231345Y620138D01*
D02*
G37*
G36*
X225655D02*
X225391Y619795D01*
X225033Y618929D01*
X224910Y618000D01*
X225033Y617071D01*
X225391Y616205D01*
X225655Y615862D01*
X227793Y618000D01*
X225655Y620138D01*
D02*
G37*
G36*
X228500Y617293D02*
X226362Y615155D01*
X226705Y614891D01*
X227571Y614533D01*
X228500Y614410D01*
X229429Y614533D01*
X230295Y614891D01*
X230638Y615155D01*
X228500Y617293D01*
D02*
G37*
G36*
Y611590D02*
X227571Y611467D01*
X226705Y611109D01*
X226362Y610845D01*
X228500Y608707D01*
X230638Y610845D01*
X230295Y611109D01*
X229429Y611467D01*
X228500Y611590D01*
D02*
G37*
G36*
X231345Y610138D02*
X229207Y608000D01*
X231345Y605862D01*
X231609Y606205D01*
X231967Y607071D01*
X232090Y608000D01*
X231967Y608929D01*
X231609Y609795D01*
X231345Y610138D01*
D02*
G37*
G36*
X225655D02*
X225391Y609795D01*
X225033Y608929D01*
X224910Y608000D01*
X225033Y607071D01*
X225391Y606205D01*
X225655Y605862D01*
X227793Y608000D01*
X225655Y610138D01*
D02*
G37*
G36*
X228500Y607293D02*
X226362Y605155D01*
X226705Y604891D01*
X227571Y604533D01*
X228500Y604410D01*
X229429Y604533D01*
X230295Y604891D01*
X230638Y605155D01*
X228500Y607293D01*
D02*
G37*
G36*
X341000Y553487D02*
X339968Y553351D01*
X339007Y552953D01*
X338581Y552626D01*
X341000Y550207D01*
X343419Y552626D01*
X342993Y552953D01*
X342032Y553351D01*
X341000Y553487D01*
D02*
G37*
G36*
X351000D02*
X349968Y553351D01*
X349007Y552953D01*
X348581Y552626D01*
X351000Y550207D01*
X353419Y552626D01*
X352993Y552953D01*
X352032Y553351D01*
X351000Y553487D01*
D02*
G37*
G36*
X347874Y551919D02*
X347547Y551493D01*
X347149Y550532D01*
X347013Y549500D01*
X347149Y548468D01*
X347547Y547507D01*
X347874Y547081D01*
X350293Y549500D01*
X347874Y551919D01*
D02*
G37*
G36*
X337874D02*
X337547Y551493D01*
X337149Y550532D01*
X337013Y549500D01*
X337149Y548468D01*
X337547Y547507D01*
X337874Y547081D01*
X340293Y549500D01*
X337874Y551919D01*
D02*
G37*
G36*
X344126D02*
X341707Y549500D01*
X344126Y547081D01*
X344453Y547507D01*
X344851Y548468D01*
X344987Y549500D01*
X344851Y550532D01*
X344453Y551493D01*
X344126Y551919D01*
D02*
G37*
G36*
X354126D02*
X351707Y549500D01*
X354126Y547081D01*
X354453Y547507D01*
X354851Y548468D01*
X354987Y549500D01*
X354851Y550532D01*
X354453Y551493D01*
X354126Y551919D01*
D02*
G37*
G36*
X351000Y548793D02*
X348581Y546374D01*
X349007Y546047D01*
X349968Y545649D01*
X351000Y545513D01*
X352032Y545649D01*
X352993Y546047D01*
X353419Y546374D01*
X351000Y548793D01*
D02*
G37*
G36*
X341000D02*
X338581Y546374D01*
X339007Y546047D01*
X339968Y545649D01*
X341000Y545513D01*
X342032Y545649D01*
X342993Y546047D01*
X343419Y546374D01*
X341000Y548793D01*
D02*
G37*
G36*
X249051Y553618D02*
X241965D01*
X240885Y553476D01*
X239880Y553060D01*
X239016Y552397D01*
X238354Y551534D01*
X237937Y550528D01*
X237795Y549449D01*
X237937Y548370D01*
X238354Y547364D01*
X239016Y546500D01*
X239880Y545838D01*
X240885Y545421D01*
X241965Y545279D01*
X249051D01*
X250130Y545421D01*
X251136Y545838D01*
X251999Y546500D01*
X252662Y547364D01*
X253079Y548370D01*
X253221Y549449D01*
X253079Y550528D01*
X252662Y551534D01*
X251999Y552397D01*
X251136Y553060D01*
X250130Y553476D01*
X249051Y553618D01*
D02*
G37*
G36*
X223618D02*
X220468D01*
X219389Y553476D01*
X218384Y553060D01*
X217520Y552397D01*
X216858Y551534D01*
X216441Y550528D01*
X216299Y549449D01*
X216441Y548370D01*
X216858Y547364D01*
X217520Y546500D01*
X218384Y545838D01*
X219389Y545421D01*
X220468Y545279D01*
X223618D01*
X224697Y545421D01*
X225703Y545838D01*
X226566Y546500D01*
X227229Y547364D01*
X227646Y548370D01*
X227788Y549449D01*
X227646Y550528D01*
X227229Y551534D01*
X226566Y552397D01*
X225703Y553060D01*
X224697Y553476D01*
X223618Y553618D01*
D02*
G37*
G36*
X351000Y543670D02*
X349921Y543528D01*
X348915Y543111D01*
X348052Y542448D01*
X347389Y541585D01*
X346973Y540579D01*
X346831Y539500D01*
X346843Y539405D01*
X346842Y539016D01*
X346829Y538627D01*
X346769Y537937D01*
X346729Y537689D01*
X346683Y537481D01*
X346636Y537330D01*
X346598Y537240D01*
X346589Y537224D01*
X345374Y536010D01*
X344020D01*
X343860Y536484D01*
X343948Y536552D01*
X344611Y537415D01*
X345027Y538421D01*
X345169Y539500D01*
X345027Y540579D01*
X344611Y541585D01*
X343948Y542448D01*
X343085Y543111D01*
X342079Y543528D01*
X341000Y543670D01*
X339921Y543528D01*
X338915Y543111D01*
X338052Y542448D01*
X337389Y541585D01*
X336973Y540579D01*
X336830Y539500D01*
X336973Y538421D01*
X337389Y537415D01*
X338052Y536552D01*
X338141Y536484D01*
X337980Y536010D01*
X315628D01*
X315430Y536570D01*
X315379Y536755D01*
X315377Y536771D01*
X315356Y536822D01*
X315353Y536840D01*
X315334Y536874D01*
X315079Y537489D01*
X314606Y538106D01*
X313989Y538579D01*
X313271Y538877D01*
X312500Y538978D01*
X311729Y538877D01*
X311011Y538579D01*
X310394Y538106D01*
X309921Y537489D01*
X309623Y536771D01*
X309522Y536000D01*
X309623Y535229D01*
X309921Y534511D01*
X310394Y533894D01*
X310427Y533869D01*
X310298Y533386D01*
X310229Y533377D01*
X309511Y533079D01*
X308894Y532606D01*
X308421Y531989D01*
X308123Y531271D01*
X308022Y530500D01*
X308123Y529729D01*
X308421Y529011D01*
X308894Y528394D01*
X309511Y527921D01*
X310229Y527623D01*
X310448Y527594D01*
X310516Y527081D01*
X310511Y527079D01*
X309894Y526606D01*
X309421Y525989D01*
X309123Y525271D01*
X309022Y524500D01*
X309123Y523729D01*
X309421Y523011D01*
X309894Y522394D01*
X309909Y522383D01*
X310055Y522234D01*
X310302Y521951D01*
X310375Y521853D01*
X310435Y521763D01*
X310473Y521694D01*
X310490Y521658D01*
Y521500D01*
X310490Y521500D01*
X310605Y520922D01*
X310619Y520901D01*
X310329Y520435D01*
X310000Y520478D01*
X309229Y520377D01*
X308511Y520079D01*
X307894Y519606D01*
X307421Y518989D01*
X307123Y518271D01*
X307022Y517500D01*
X307123Y516729D01*
X307421Y516011D01*
X307894Y515394D01*
X308511Y514921D01*
X309229Y514623D01*
X310000Y514522D01*
X310771Y514623D01*
X311489Y514921D01*
X312106Y515394D01*
X312579Y516011D01*
X312877Y516729D01*
X312978Y517500D01*
X312935Y517829D01*
X313401Y518119D01*
X313422Y518105D01*
X314000Y517990D01*
X314000Y517990D01*
X321657D01*
X321694Y517974D01*
X321763Y517935D01*
X321853Y517875D01*
X321951Y517802D01*
X322234Y517555D01*
X322383Y517409D01*
X322394Y517394D01*
X323011Y516921D01*
X323729Y516623D01*
X324500Y516522D01*
X325271Y516623D01*
X325989Y516921D01*
X326606Y517394D01*
X327079Y518011D01*
X327377Y518729D01*
X327478Y519500D01*
X327377Y520271D01*
X327079Y520989D01*
X326606Y521606D01*
X325989Y522079D01*
X325271Y522377D01*
X324500Y522478D01*
X323729Y522377D01*
X323011Y522079D01*
X322394Y521606D01*
X322383Y521591D01*
X322234Y521445D01*
X321951Y521198D01*
X321853Y521125D01*
X321763Y521065D01*
X321694Y521027D01*
X321657Y521010D01*
X314626D01*
X313692Y521944D01*
X313698Y521951D01*
X313945Y522234D01*
X314091Y522383D01*
X314106Y522394D01*
X314579Y523011D01*
X314877Y523729D01*
X314978Y524500D01*
X314877Y525271D01*
X314579Y525989D01*
X314539Y526041D01*
X314760Y526490D01*
X318657D01*
X318694Y526474D01*
X318763Y526435D01*
X318853Y526375D01*
X318951Y526302D01*
X319234Y526055D01*
X319383Y525909D01*
X319394Y525894D01*
X320011Y525421D01*
X320729Y525123D01*
X321500Y525022D01*
X321518Y525024D01*
X321727Y525023D01*
X322102Y524997D01*
X322223Y524980D01*
X322329Y524958D01*
X322405Y524936D01*
X322442Y524922D01*
X323932Y523432D01*
X323932Y523432D01*
X324422Y523105D01*
X325000Y522990D01*
X325000Y522990D01*
X337980D01*
X338141Y522516D01*
X338052Y522448D01*
X337389Y521585D01*
X336973Y520579D01*
X336830Y519500D01*
X336973Y518421D01*
X337389Y517415D01*
X338052Y516552D01*
X338915Y515889D01*
X339921Y515473D01*
X341000Y515331D01*
X342079Y515473D01*
X343085Y515889D01*
X343948Y516552D01*
X344611Y517415D01*
X345027Y518421D01*
X345169Y519500D01*
X345027Y520579D01*
X344611Y521585D01*
X343948Y522448D01*
X343860Y522516D01*
X344020Y522990D01*
X346000D01*
X346000Y522990D01*
X346578Y523105D01*
X347068Y523432D01*
X348724Y525089D01*
X348740Y525098D01*
X348830Y525136D01*
X348981Y525183D01*
X349189Y525229D01*
X349425Y525267D01*
X350536Y525342D01*
X350905Y525343D01*
X351000Y525330D01*
X352079Y525472D01*
X353085Y525889D01*
X353948Y526552D01*
X354611Y527415D01*
X355027Y528421D01*
X355170Y529500D01*
X355027Y530579D01*
X354611Y531585D01*
X353948Y532448D01*
X353085Y533111D01*
X352079Y533528D01*
X351000Y533670D01*
X349921Y533528D01*
X348915Y533111D01*
X348052Y532448D01*
X347389Y531585D01*
X346973Y530579D01*
X346831Y529500D01*
X346843Y529405D01*
X346842Y529016D01*
X346829Y528627D01*
X346769Y527937D01*
X346729Y527689D01*
X346683Y527482D01*
X346636Y527330D01*
X346598Y527240D01*
X346589Y527224D01*
X345374Y526010D01*
X344020D01*
X343860Y526484D01*
X343948Y526552D01*
X344611Y527415D01*
X345027Y528421D01*
X345169Y529500D01*
X345027Y530579D01*
X344611Y531585D01*
X343948Y532448D01*
X343860Y532516D01*
X344020Y532990D01*
X346000D01*
X346000Y532990D01*
X346578Y533105D01*
X347068Y533432D01*
X348724Y535089D01*
X348740Y535098D01*
X348830Y535136D01*
X348981Y535183D01*
X349189Y535229D01*
X349425Y535267D01*
X350536Y535342D01*
X350905Y535343D01*
X351000Y535330D01*
X352079Y535472D01*
X353085Y535889D01*
X353948Y536552D01*
X354611Y537415D01*
X355027Y538421D01*
X355170Y539500D01*
X355027Y540579D01*
X354611Y541585D01*
X353948Y542448D01*
X353085Y543111D01*
X352079Y543528D01*
X351000Y543670D01*
D02*
G37*
G36*
Y523669D02*
X349921Y523527D01*
X348915Y523111D01*
X348052Y522448D01*
X347389Y521585D01*
X346973Y520579D01*
X346831Y519500D01*
X346973Y518421D01*
X347389Y517415D01*
X348052Y516552D01*
X348915Y515889D01*
X349921Y515473D01*
X351000Y515331D01*
X352079Y515473D01*
X353085Y515889D01*
X353948Y516552D01*
X354611Y517415D01*
X355027Y518421D01*
X355170Y519500D01*
X355027Y520579D01*
X354611Y521585D01*
X353948Y522448D01*
X353085Y523111D01*
X352079Y523527D01*
X351000Y523669D01*
D02*
G37*
G36*
X355134Y513634D02*
X346866D01*
Y505366D01*
X355134D01*
Y513634D01*
D02*
G37*
G36*
X345134D02*
X336866D01*
Y505366D01*
X345134D01*
Y513634D01*
D02*
G37*
G36*
X249051Y496532D02*
X241965D01*
X240885Y496390D01*
X239880Y495973D01*
X239016Y495310D01*
X238354Y494447D01*
X237937Y493441D01*
X237795Y492362D01*
X237937Y491283D01*
X238354Y490277D01*
X239016Y489414D01*
X239880Y488751D01*
X240885Y488335D01*
X241965Y488193D01*
X249051D01*
X250130Y488335D01*
X251136Y488751D01*
X251999Y489414D01*
X252662Y490277D01*
X253079Y491283D01*
X253221Y492362D01*
X253079Y493441D01*
X252662Y494447D01*
X251999Y495310D01*
X251136Y495973D01*
X250130Y496390D01*
X249051Y496532D01*
D02*
G37*
G36*
X223618D02*
X220468D01*
X219389Y496390D01*
X218384Y495973D01*
X217520Y495310D01*
X216858Y494447D01*
X216441Y493441D01*
X216299Y492362D01*
X216441Y491283D01*
X216858Y490277D01*
X217520Y489414D01*
X218384Y488751D01*
X219389Y488335D01*
X220468Y488193D01*
X223618D01*
X224697Y488335D01*
X225703Y488751D01*
X226566Y489414D01*
X227229Y490277D01*
X227646Y491283D01*
X227788Y492362D01*
X227646Y493441D01*
X227229Y494447D01*
X226566Y495310D01*
X225703Y495973D01*
X224697Y496390D01*
X223618Y496532D01*
D02*
G37*
G36*
X351000Y488669D02*
X349921Y488527D01*
X348915Y488111D01*
X348052Y487448D01*
X347389Y486585D01*
X346973Y485579D01*
X346831Y484500D01*
X346973Y483421D01*
X347389Y482415D01*
X348052Y481552D01*
X348915Y480889D01*
X349921Y480473D01*
X351000Y480331D01*
X352079Y480473D01*
X353085Y480889D01*
X353948Y481552D01*
X354611Y482415D01*
X355027Y483421D01*
X355170Y484500D01*
X355027Y485579D01*
X354611Y486585D01*
X353948Y487448D01*
X353085Y488111D01*
X352079Y488527D01*
X351000Y488669D01*
D02*
G37*
G36*
X341000D02*
X339921Y488527D01*
X338915Y488111D01*
X338052Y487448D01*
X337389Y486585D01*
X336973Y485579D01*
X336830Y484500D01*
X336973Y483421D01*
X337389Y482415D01*
X338052Y481552D01*
X338915Y480889D01*
X339921Y480473D01*
X341000Y480331D01*
X342079Y480473D01*
X343085Y480889D01*
X343948Y481552D01*
X344611Y482415D01*
X345027Y483421D01*
X345169Y484500D01*
X345027Y485579D01*
X344611Y486585D01*
X343948Y487448D01*
X343085Y488111D01*
X342079Y488527D01*
X341000Y488669D01*
D02*
G37*
G36*
X351000Y478670D02*
X349921Y478527D01*
X348915Y478111D01*
X348052Y477448D01*
X347389Y476585D01*
X346973Y475579D01*
X346831Y474500D01*
X346973Y473421D01*
X347389Y472415D01*
X348052Y471552D01*
X348915Y470889D01*
X349921Y470472D01*
X351000Y470330D01*
X352079Y470472D01*
X353085Y470889D01*
X353948Y471552D01*
X354611Y472415D01*
X355027Y473421D01*
X355170Y474500D01*
X355027Y475579D01*
X354611Y476585D01*
X353948Y477448D01*
X353085Y478111D01*
X352079Y478527D01*
X351000Y478670D01*
D02*
G37*
G36*
X341000D02*
X339921Y478527D01*
X338915Y478111D01*
X338052Y477448D01*
X337389Y476585D01*
X336973Y475579D01*
X336830Y474500D01*
X336973Y473421D01*
X337389Y472415D01*
X338052Y471552D01*
X338915Y470889D01*
X339921Y470472D01*
X341000Y470330D01*
X342079Y470472D01*
X343085Y470889D01*
X343948Y471552D01*
X344611Y472415D01*
X345027Y473421D01*
X345169Y474500D01*
X345027Y475579D01*
X344611Y476585D01*
X343948Y477448D01*
X343085Y478111D01*
X342079Y478527D01*
X341000Y478670D01*
D02*
G37*
G36*
X351000Y468670D02*
X349921Y468528D01*
X348915Y468111D01*
X348052Y467448D01*
X347389Y466585D01*
X346973Y465579D01*
X346831Y464500D01*
X346973Y463421D01*
X347389Y462415D01*
X348052Y461552D01*
X348915Y460889D01*
X349921Y460472D01*
X351000Y460330D01*
X352079Y460472D01*
X353085Y460889D01*
X353948Y461552D01*
X354611Y462415D01*
X355027Y463421D01*
X355170Y464500D01*
X355027Y465579D01*
X354611Y466585D01*
X353948Y467448D01*
X353085Y468111D01*
X352079Y468528D01*
X351000Y468670D01*
D02*
G37*
G36*
X285464Y552442D02*
X284693Y552341D01*
X283975Y552043D01*
X283358Y551570D01*
X282885Y550953D01*
X282587Y550235D01*
X282486Y549464D01*
X282488Y549446D01*
X282487Y549237D01*
X282461Y548862D01*
X282444Y548741D01*
X282422Y548635D01*
X282400Y548559D01*
X282386Y548522D01*
X277432Y543568D01*
X277105Y543078D01*
X276990Y542500D01*
X276990Y542500D01*
Y508843D01*
X276974Y508806D01*
X276935Y508737D01*
X276875Y508647D01*
X276802Y508549D01*
X276555Y508266D01*
X276409Y508117D01*
X276394Y508106D01*
X275921Y507489D01*
X275623Y506771D01*
X275522Y506000D01*
X275623Y505229D01*
X275921Y504511D01*
X276394Y503894D01*
X276409Y503883D01*
X276555Y503734D01*
X276802Y503451D01*
X276875Y503353D01*
X276935Y503263D01*
X276974Y503194D01*
X276990Y503158D01*
Y449000D01*
X276990Y449000D01*
X277105Y448422D01*
X277432Y447932D01*
X281932Y443432D01*
X282422Y443105D01*
X283000Y442990D01*
X336866D01*
Y440366D01*
X345134D01*
Y447523D01*
X345634Y447730D01*
X346866Y446498D01*
Y440366D01*
X355134D01*
Y448634D01*
X349002D01*
X347068Y450568D01*
X346578Y450895D01*
X346000Y451010D01*
X346000Y451010D01*
X344020D01*
X343860Y451484D01*
X343948Y451552D01*
X344611Y452415D01*
X345027Y453421D01*
X345169Y454500D01*
X345027Y455579D01*
X344611Y456585D01*
X343948Y457448D01*
X343860Y457516D01*
X344020Y457990D01*
X345374D01*
X346589Y456776D01*
X346598Y456760D01*
X346636Y456670D01*
X346683Y456519D01*
X346729Y456311D01*
X346767Y456075D01*
X346842Y454963D01*
X346843Y454595D01*
X346831Y454500D01*
X346973Y453421D01*
X347389Y452415D01*
X348052Y451552D01*
X348915Y450889D01*
X349921Y450472D01*
X351000Y450330D01*
X352079Y450472D01*
X353085Y450889D01*
X353948Y451552D01*
X354611Y452415D01*
X355027Y453421D01*
X355170Y454500D01*
X355027Y455579D01*
X354611Y456585D01*
X353948Y457448D01*
X353085Y458111D01*
X352079Y458528D01*
X351000Y458670D01*
X350905Y458657D01*
X350516Y458658D01*
X350127Y458671D01*
X349437Y458731D01*
X349189Y458771D01*
X348981Y458817D01*
X348830Y458864D01*
X348740Y458902D01*
X348724Y458911D01*
X347068Y460568D01*
X346578Y460895D01*
X346000Y461010D01*
X346000Y461010D01*
X344020D01*
X343860Y461484D01*
X343948Y461552D01*
X344611Y462415D01*
X345027Y463421D01*
X345169Y464500D01*
X345027Y465579D01*
X344611Y466585D01*
X343948Y467448D01*
X343085Y468111D01*
X342079Y468528D01*
X341000Y468670D01*
X339921Y468528D01*
X338915Y468111D01*
X338052Y467448D01*
X337389Y466585D01*
X336973Y465579D01*
X336830Y464500D01*
X336973Y463421D01*
X337389Y462415D01*
X338052Y461552D01*
X338141Y461484D01*
X337980Y461010D01*
X305125D01*
X303010Y463126D01*
Y510928D01*
X303010Y510928D01*
X302895Y511506D01*
X302568Y511996D01*
X302568Y511996D01*
X302542Y512022D01*
X302528Y512059D01*
X302506Y512135D01*
X302484Y512242D01*
X302467Y512362D01*
X302442Y512737D01*
X302440Y512946D01*
X302442Y512964D01*
X302341Y513735D01*
X302043Y514453D01*
X301570Y515070D01*
X301556Y515081D01*
X301409Y515230D01*
X301162Y515513D01*
X301089Y515611D01*
X301029Y515701D01*
X300991Y515770D01*
X300974Y515807D01*
Y529122D01*
X300991Y529158D01*
X301029Y529227D01*
X301089Y529318D01*
X301162Y529415D01*
X301409Y529698D01*
X301556Y529847D01*
X301570Y529858D01*
X302043Y530475D01*
X302341Y531193D01*
X302442Y531964D01*
X302341Y532735D01*
X302043Y533453D01*
X301570Y534070D01*
X300953Y534543D01*
X300235Y534841D01*
X299464Y534942D01*
X299081Y534892D01*
X298657Y534950D01*
X298541Y535303D01*
X298484Y535731D01*
X298187Y536449D01*
X297713Y537066D01*
X297097Y537539D01*
X296378Y537837D01*
X295768Y537917D01*
X295546Y538061D01*
X295370Y538412D01*
X295442Y538964D01*
X295341Y539735D01*
X295043Y540453D01*
X294570Y541070D01*
X293953Y541543D01*
X293235Y541841D01*
X292867Y541889D01*
X292942Y542464D01*
X292841Y543235D01*
X292543Y543953D01*
X292070Y544570D01*
X291453Y545043D01*
X290735Y545341D01*
X290613Y545357D01*
X290692Y545964D01*
X290591Y546735D01*
X290293Y547453D01*
X289820Y548070D01*
X289203Y548543D01*
X288485Y548841D01*
X288363Y548857D01*
X288442Y549464D01*
X288341Y550235D01*
X288043Y550953D01*
X287570Y551570D01*
X286953Y552043D01*
X286235Y552341D01*
X285464Y552442D01*
D02*
G37*
G36*
X310000Y116574D02*
X309075Y116452D01*
X308213Y116095D01*
X307473Y115527D01*
X306905Y114787D01*
X306548Y113925D01*
X306502Y113577D01*
X305998D01*
X305952Y113925D01*
X305595Y114787D01*
X305027Y115527D01*
X304287Y116095D01*
X303425Y116452D01*
X302500Y116574D01*
X301575Y116452D01*
X300713Y116095D01*
X299973Y115527D01*
X299405Y114787D01*
X299048Y113925D01*
X299002Y113577D01*
X298498D01*
X298452Y113925D01*
X298095Y114787D01*
X297527Y115527D01*
X296787Y116095D01*
X295925Y116452D01*
X295000Y116574D01*
X294075Y116452D01*
X293213Y116095D01*
X292473Y115527D01*
X291905Y114787D01*
X291548Y113925D01*
X291426Y113000D01*
X291548Y112075D01*
X291905Y111213D01*
X292473Y110473D01*
X293213Y109905D01*
X294075Y109548D01*
X295000Y109426D01*
X295925Y109548D01*
X296787Y109905D01*
X297527Y110473D01*
X298095Y111213D01*
X298452Y112075D01*
X298498Y112423D01*
X299002D01*
X299048Y112075D01*
X299405Y111213D01*
X299973Y110473D01*
X300713Y109905D01*
X301575Y109548D01*
X302500Y109426D01*
X303425Y109548D01*
X304287Y109905D01*
X305027Y110473D01*
X305595Y111213D01*
X305952Y112075D01*
X305998Y112423D01*
X306502D01*
X306548Y112075D01*
X306905Y111213D01*
X307473Y110473D01*
X308213Y109905D01*
X309075Y109548D01*
X310000Y109426D01*
X310925Y109548D01*
X311787Y109905D01*
X312527Y110473D01*
X313095Y111213D01*
X313452Y112075D01*
X313574Y113000D01*
X313452Y113925D01*
X313095Y114787D01*
X312527Y115527D01*
X311787Y116095D01*
X310925Y116452D01*
X310000Y116574D01*
D02*
G37*
%LPD*%
G36*
X276646Y748279D02*
X275454Y746906D01*
X275163Y746498D01*
X274924Y746114D01*
X274739Y745756D01*
X274606Y745422D01*
X274527Y745112D01*
X274500Y744828D01*
X273500D01*
X273474Y745112D01*
X273394Y745422D01*
X273261Y745756D01*
X273076Y746114D01*
X272837Y746498D01*
X272546Y746906D01*
X271804Y747797D01*
X271354Y748279D01*
X270850Y748786D01*
X277150D01*
X276646Y748279D01*
D02*
G37*
G36*
X274507Y706109D02*
X274530Y705956D01*
X274567Y705804D01*
X274618Y705653D01*
X274685Y705502D01*
X274766Y705353D01*
X274863Y705205D01*
X274974Y705057D01*
X275099Y704911D01*
X275240Y704765D01*
X272760D01*
X272901Y704911D01*
X273026Y705057D01*
X273137Y705205D01*
X273234Y705353D01*
X273315Y705502D01*
X273382Y705653D01*
X273433Y705804D01*
X273470Y705956D01*
X273493Y706109D01*
X273500Y706263D01*
X274500D01*
X274507Y706109D01*
D02*
G37*
G36*
X350971Y536547D02*
X350494Y536546D01*
X349289Y536465D01*
X348961Y536412D01*
X348671Y536347D01*
X348418Y536269D01*
X348202Y536178D01*
X348024Y536074D01*
X347882Y535958D01*
X347458Y536382D01*
X347574Y536524D01*
X347678Y536702D01*
X347769Y536918D01*
X347847Y537171D01*
X347912Y537461D01*
X347965Y537789D01*
X348032Y538555D01*
X348046Y538994D01*
X348047Y539470D01*
X350971Y536547D01*
D02*
G37*
G36*
X314281Y536207D02*
X314571Y535387D01*
X314646Y535227D01*
X314722Y535084D01*
X314799Y534960D01*
X314877Y534853D01*
X314956Y534765D01*
X314584Y534288D01*
X314487Y534371D01*
X314381Y534438D01*
X314264Y534487D01*
X314137Y534520D01*
X314000Y534536D01*
X313853Y534534D01*
X313697Y534516D01*
X313530Y534480D01*
X313353Y534428D01*
X313167Y534359D01*
X314212Y536457D01*
X314281Y536207D01*
D02*
G37*
G36*
X312773Y530228D02*
X312805Y529771D01*
X312834Y529569D01*
X312872Y529385D01*
X312919Y529218D01*
X312975Y529069D01*
X313040Y528937D01*
X313115Y528823D01*
X313198Y528726D01*
X312774Y528302D01*
X312677Y528385D01*
X312563Y528460D01*
X312431Y528525D01*
X312282Y528581D01*
X312115Y528628D01*
X311931Y528666D01*
X311729Y528695D01*
X311272Y528726D01*
X311018Y528728D01*
X312772Y530482D01*
X312773Y530228D01*
D02*
G37*
G36*
X320235Y526760D02*
X320054Y526938D01*
X319709Y527239D01*
X319545Y527361D01*
X319388Y527465D01*
X319237Y527550D01*
X319091Y527615D01*
X318952Y527662D01*
X318818Y527691D01*
X318691Y527700D01*
Y528300D01*
X318818Y528309D01*
X318952Y528338D01*
X319091Y528385D01*
X319237Y528450D01*
X319388Y528535D01*
X319545Y528639D01*
X319709Y528761D01*
X320054Y529062D01*
X320235Y529240D01*
Y526760D01*
D02*
G37*
G36*
X313947Y533286D02*
X314219Y533105D01*
X314796Y532990D01*
X314796Y532990D01*
X337980D01*
X338141Y532516D01*
X338052Y532448D01*
X337389Y531585D01*
X336973Y530579D01*
X336830Y529500D01*
X336973Y528421D01*
X337389Y527415D01*
X338052Y526552D01*
X338141Y526484D01*
X337980Y526010D01*
X325625D01*
X324578Y527058D01*
X324564Y527095D01*
X324542Y527171D01*
X324520Y527277D01*
X324503Y527398D01*
X324477Y527773D01*
X324476Y527982D01*
X324478Y528000D01*
X324377Y528771D01*
X324079Y529489D01*
X323606Y530106D01*
X322989Y530579D01*
X322271Y530877D01*
X321500Y530978D01*
X320729Y530877D01*
X320011Y530579D01*
X319394Y530106D01*
X319383Y530091D01*
X319234Y529945D01*
X318951Y529698D01*
X318853Y529625D01*
X318763Y529565D01*
X318694Y529527D01*
X318657Y529510D01*
X314125D01*
X314078Y529558D01*
X314064Y529595D01*
X314042Y529671D01*
X314020Y529777D01*
X314003Y529898D01*
X313977Y530273D01*
X313976Y530482D01*
X313978Y530500D01*
X313877Y531271D01*
X313579Y531989D01*
X313106Y532606D01*
X313073Y532631D01*
X313202Y533114D01*
X313271Y533123D01*
X313473Y533207D01*
X313550Y533217D01*
X313567Y533227D01*
X313586Y533230D01*
X313735Y533285D01*
X313827Y533312D01*
X313875Y533322D01*
X313947Y533286D01*
D02*
G37*
G36*
X350971Y526547D02*
X350494Y526546D01*
X349289Y526465D01*
X348961Y526412D01*
X348671Y526347D01*
X348418Y526269D01*
X348202Y526178D01*
X348024Y526074D01*
X347882Y525958D01*
X347458Y526382D01*
X347574Y526524D01*
X347678Y526702D01*
X347769Y526918D01*
X347847Y527171D01*
X347912Y527461D01*
X347965Y527789D01*
X348032Y528555D01*
X348046Y528994D01*
X348047Y529470D01*
X350971Y526547D01*
D02*
G37*
G36*
X323273Y527728D02*
X323305Y527271D01*
X323334Y527069D01*
X323372Y526885D01*
X323419Y526718D01*
X323475Y526569D01*
X323540Y526437D01*
X323615Y526323D01*
X323698Y526226D01*
X323274Y525802D01*
X323177Y525885D01*
X323063Y525959D01*
X322931Y526025D01*
X322782Y526081D01*
X322615Y526128D01*
X322431Y526166D01*
X322229Y526195D01*
X321772Y526227D01*
X321518Y526228D01*
X323272Y527982D01*
X323273Y527728D01*
D02*
G37*
G36*
X313061Y523054D02*
X312761Y522709D01*
X312638Y522545D01*
X312535Y522388D01*
X312450Y522237D01*
X312385Y522091D01*
X312338Y521952D01*
X312309Y521818D01*
X312300Y521691D01*
X311700D01*
X311691Y521818D01*
X311662Y521952D01*
X311615Y522091D01*
X311550Y522237D01*
X311465Y522388D01*
X311362Y522545D01*
X311239Y522709D01*
X310939Y523054D01*
X310760Y523235D01*
X313240D01*
X313061Y523054D01*
D02*
G37*
G36*
X323235Y518260D02*
X323054Y518438D01*
X322709Y518739D01*
X322545Y518861D01*
X322388Y518965D01*
X322237Y519050D01*
X322091Y519115D01*
X321952Y519162D01*
X321818Y519191D01*
X321691Y519200D01*
Y519800D01*
X321818Y519809D01*
X321952Y519838D01*
X322091Y519885D01*
X322237Y519950D01*
X322388Y520035D01*
X322545Y520139D01*
X322709Y520261D01*
X323054Y520562D01*
X323235Y520740D01*
Y518260D01*
D02*
G37*
G36*
X285447Y547693D02*
X285192Y547691D01*
X284735Y547660D01*
X284534Y547631D01*
X284349Y547592D01*
X284182Y547545D01*
X284033Y547489D01*
X283901Y547424D01*
X283787Y547349D01*
X283690Y547266D01*
X283266Y547690D01*
X283349Y547787D01*
X283424Y547901D01*
X283489Y548033D01*
X283545Y548182D01*
X283593Y548349D01*
X283631Y548533D01*
X283660Y548736D01*
X283691Y549192D01*
X283693Y549446D01*
X285447Y547693D01*
D02*
G37*
G36*
X287697Y544193D02*
X287442Y544191D01*
X286985Y544160D01*
X286784Y544131D01*
X286599Y544093D01*
X286432Y544045D01*
X286283Y543989D01*
X286151Y543924D01*
X286037Y543849D01*
X285940Y543766D01*
X285516Y544190D01*
X285599Y544287D01*
X285674Y544401D01*
X285739Y544533D01*
X285795Y544682D01*
X285842Y544849D01*
X285881Y545034D01*
X285910Y545235D01*
X285941Y545692D01*
X285943Y545947D01*
X287697Y544193D01*
D02*
G37*
G36*
X290346Y540734D02*
X290124Y540682D01*
X289720Y540563D01*
X289538Y540497D01*
X289215Y540351D01*
X289073Y540272D01*
X288945Y540189D01*
X288830Y540101D01*
X288729Y540008D01*
X288288Y540416D01*
X288371Y540511D01*
X288437Y540614D01*
X288486Y540726D01*
X288518Y540845D01*
X288533Y540972D01*
X288531Y541107D01*
X288512Y541250D01*
X288476Y541401D01*
X288423Y541560D01*
X288353Y541726D01*
X290346Y540734D01*
D02*
G37*
G36*
X293330Y537418D02*
X293134Y537302D01*
X292959Y537183D01*
X292805Y537061D01*
X292671Y536937D01*
X292557Y536810D01*
X292465Y536680D01*
X292393Y536549D01*
X292341Y536414D01*
X292310Y536277D01*
X292300Y536137D01*
X291700Y536303D01*
X291692Y536404D01*
X291669Y536521D01*
X291631Y536656D01*
X291578Y536807D01*
X291425Y537160D01*
X291211Y537580D01*
X290936Y538068D01*
X293330Y537418D01*
D02*
G37*
G36*
X296591Y533487D02*
X296399Y533352D01*
X296227Y533216D01*
X296075Y533080D01*
X295943Y532945D01*
X295832Y532809D01*
X295741Y532672D01*
X295670Y532536D01*
X295619Y532400D01*
X295589Y532263D01*
X295579Y532126D01*
X294979Y532241D01*
X294971Y532352D01*
X294946Y532477D01*
X294905Y532614D01*
X294847Y532765D01*
X294773Y532929D01*
X294575Y533297D01*
X294311Y533717D01*
X294154Y533947D01*
X296591Y533487D01*
D02*
G37*
G36*
X300526Y530518D02*
X300225Y530173D01*
X300103Y530010D01*
X299999Y529852D01*
X299915Y529701D01*
X299849Y529555D01*
X299802Y529416D01*
X299774Y529283D01*
X299764Y529155D01*
X299164D01*
X299155Y529283D01*
X299127Y529416D01*
X299080Y529555D01*
X299014Y529701D01*
X298929Y529852D01*
X298826Y530010D01*
X298704Y530173D01*
X298403Y530518D01*
X298224Y530699D01*
X300704D01*
X300526Y530518D01*
D02*
G37*
G36*
X286815Y542518D02*
X286994Y542401D01*
X287087Y541693D01*
X287203Y541416D01*
X287212Y541343D01*
X287234Y541305D01*
X287243Y541262D01*
X287295Y541137D01*
X287311Y541089D01*
X287105Y540781D01*
X286990Y540204D01*
X286990Y540204D01*
Y520314D01*
X286976Y520284D01*
X286939Y520218D01*
X286881Y520132D01*
X286809Y520039D01*
X286562Y519766D01*
X286409Y519616D01*
X286398Y519601D01*
X286358Y519570D01*
X286010Y519116D01*
X285510Y519286D01*
Y541624D01*
X286502Y542616D01*
X286815Y542518D01*
D02*
G37*
G36*
X288800Y520267D02*
X288809Y520141D01*
X288837Y520008D01*
X288884Y519868D01*
X288949Y519722D01*
X289032Y519569D01*
X289135Y519410D01*
X289255Y519243D01*
X289553Y518890D01*
X289730Y518704D01*
X287250Y518754D01*
X287430Y518930D01*
X287734Y519267D01*
X287858Y519427D01*
X287963Y519583D01*
X288048Y519732D01*
X288115Y519877D01*
X288162Y520016D01*
X288191Y520150D01*
X288200Y520279D01*
X288800Y520267D01*
D02*
G37*
G36*
X284604Y546005D02*
X284738Y545895D01*
X284737Y545737D01*
X284711Y545362D01*
X284694Y545241D01*
X284672Y545135D01*
X284650Y545059D01*
X284636Y545022D01*
X282932Y543318D01*
X282605Y542828D01*
X282490Y542250D01*
X282490Y542250D01*
Y518752D01*
X282114Y518423D01*
X281964Y518442D01*
X281193Y518341D01*
X280475Y518043D01*
X280459Y518031D01*
X280010Y518252D01*
Y541875D01*
X284252Y546116D01*
X284604Y546005D01*
D02*
G37*
G36*
X284212Y516288D02*
X284121Y516194D01*
X283968Y516014D01*
X283906Y515928D01*
X283854Y515845D01*
X283811Y515765D01*
X283778Y515689D01*
X283754Y515614D01*
X283740Y515543D01*
X283736Y515475D01*
X283268Y516664D01*
X283314Y516620D01*
X283361Y516587D01*
X283410Y516565D01*
X283460Y516554D01*
X283511Y516553D01*
X283564Y516563D01*
X283618Y516584D01*
X283673Y516616D01*
X283730Y516659D01*
X283788Y516712D01*
X284212Y516288D01*
D02*
G37*
G36*
X289526Y516018D02*
X289225Y515673D01*
X289103Y515510D01*
X288999Y515352D01*
X288915Y515201D01*
X288849Y515055D01*
X288802Y514916D01*
X288774Y514783D01*
X288764Y514655D01*
X288164D01*
X288155Y514783D01*
X288127Y514916D01*
X288080Y515055D01*
X288014Y515201D01*
X287929Y515352D01*
X287826Y515510D01*
X287703Y515673D01*
X287403Y516018D01*
X287224Y516199D01*
X289704D01*
X289526Y516018D01*
D02*
G37*
G36*
X299774Y515646D02*
X299802Y515512D01*
X299849Y515373D01*
X299915Y515228D01*
X299999Y515076D01*
X300103Y514919D01*
X300225Y514755D01*
X300526Y514411D01*
X300704Y514229D01*
X298224D01*
X298403Y514411D01*
X298704Y514755D01*
X298826Y514919D01*
X298929Y515076D01*
X299014Y515228D01*
X299080Y515373D01*
X299127Y515512D01*
X299155Y515646D01*
X299164Y515773D01*
X299764D01*
X299774Y515646D01*
D02*
G37*
G36*
X283547Y514634D02*
X283500Y514464D01*
X283468Y514304D01*
X283454Y514152D01*
X283455Y514010D01*
X283474Y513877D01*
X283509Y513752D01*
X283560Y513637D01*
X283628Y513531D01*
X283712Y513434D01*
X283268Y513029D01*
X283169Y513120D01*
X283054Y513205D01*
X282926Y513286D01*
X282783Y513363D01*
X282625Y513435D01*
X282453Y513502D01*
X282066Y513623D01*
X281851Y513677D01*
X281621Y513726D01*
X283611Y514812D01*
X283547Y514634D01*
D02*
G37*
G36*
X301238Y512692D02*
X301269Y512235D01*
X301298Y512034D01*
X301336Y511849D01*
X301383Y511682D01*
X301439Y511533D01*
X301505Y511401D01*
X301579Y511287D01*
X301663Y511190D01*
X301238Y510766D01*
X301142Y510849D01*
X301027Y510924D01*
X300895Y510989D01*
X300746Y511045D01*
X300579Y511093D01*
X300395Y511131D01*
X300193Y511160D01*
X299736Y511191D01*
X299482Y511193D01*
X301236Y512947D01*
X301238Y512692D01*
D02*
G37*
G36*
X295579Y511306D02*
X295588Y511180D01*
X295616Y511047D01*
X295663Y510907D01*
X295728Y510761D01*
X295811Y510608D01*
X295914Y510449D01*
X296034Y510282D01*
X296332Y509930D01*
X296509Y509743D01*
X294029Y509793D01*
X294209Y509969D01*
X294513Y510306D01*
X294637Y510466D01*
X294741Y510622D01*
X294827Y510771D01*
X294893Y510916D01*
X294941Y511055D01*
X294969Y511189D01*
X294979Y511318D01*
X295579Y511306D01*
D02*
G37*
G36*
X278809Y508682D02*
X278838Y508548D01*
X278885Y508409D01*
X278950Y508263D01*
X279035Y508112D01*
X279138Y507955D01*
X279261Y507791D01*
X279561Y507446D01*
X279740Y507265D01*
X277260D01*
X277438Y507446D01*
X277739Y507791D01*
X277861Y507955D01*
X277965Y508112D01*
X278050Y508263D01*
X278115Y508409D01*
X278162Y508548D01*
X278191Y508682D01*
X278200Y508809D01*
X278800D01*
X278809Y508682D01*
D02*
G37*
G36*
X297017Y508231D02*
X297047Y507774D01*
X297077Y507573D01*
X297115Y507388D01*
X297162Y507221D01*
X297218Y507072D01*
X297284Y506940D01*
X297358Y506826D01*
X297442Y506729D01*
X297017Y506305D01*
X296920Y506388D01*
X296806Y506463D01*
X296674Y506528D01*
X296525Y506584D01*
X296358Y506632D01*
X296174Y506670D01*
X295972Y506699D01*
X295515Y506730D01*
X295261Y506732D01*
X297015Y508486D01*
X297017Y508231D01*
D02*
G37*
G36*
X292300Y506267D02*
X292309Y506141D01*
X292337Y506008D01*
X292384Y505868D01*
X292449Y505722D01*
X292532Y505569D01*
X292635Y505409D01*
X292756Y505243D01*
X293053Y504890D01*
X293230Y504704D01*
X290750Y504754D01*
X290930Y504930D01*
X291234Y505267D01*
X291358Y505428D01*
X291462Y505583D01*
X291548Y505732D01*
X291615Y505877D01*
X291662Y506016D01*
X291690Y506150D01*
X291700Y506279D01*
X292300Y506267D01*
D02*
G37*
G36*
X279561Y504554D02*
X279261Y504209D01*
X279138Y504045D01*
X279035Y503888D01*
X278950Y503737D01*
X278885Y503591D01*
X278838Y503452D01*
X278809Y503318D01*
X278800Y503191D01*
X278200D01*
X278191Y503318D01*
X278162Y503452D01*
X278115Y503591D01*
X278050Y503737D01*
X277965Y503888D01*
X277861Y504045D01*
X277739Y504209D01*
X277438Y504554D01*
X277260Y504735D01*
X279740D01*
X279561Y504554D01*
D02*
G37*
G36*
X293026Y502018D02*
X292725Y501673D01*
X292603Y501510D01*
X292499Y501352D01*
X292415Y501201D01*
X292349Y501055D01*
X292302Y500916D01*
X292274Y500783D01*
X292264Y500655D01*
X291664D01*
X291655Y500783D01*
X291627Y500916D01*
X291580Y501055D01*
X291514Y501201D01*
X291429Y501352D01*
X291326Y501510D01*
X291203Y501673D01*
X290903Y502018D01*
X290724Y502199D01*
X293204D01*
X293026Y502018D01*
D02*
G37*
G36*
X292275Y495905D02*
X292306Y495768D01*
X292358Y495639D01*
X292430Y495516D01*
X292524Y495401D01*
X292638Y495293D01*
X292773Y495192D01*
X292929Y495098D01*
X293105Y495012D01*
X293303Y494933D01*
X291050Y493922D01*
X291166Y494219D01*
X291658Y495698D01*
X291664Y495771D01*
X292264Y496049D01*
X292275Y495905D01*
D02*
G37*
G36*
X288823Y488615D02*
X288937Y488541D01*
X289069Y488475D01*
X289218Y488419D01*
X289385Y488372D01*
X289569Y488334D01*
X289771Y488305D01*
X290228Y488273D01*
X290482Y488272D01*
X288728Y486518D01*
X288726Y486772D01*
X288696Y487229D01*
X288666Y487431D01*
X288628Y487615D01*
X288581Y487782D01*
X288525Y487931D01*
X288459Y488063D01*
X288385Y488177D01*
X288302Y488274D01*
X288726Y488698D01*
X288823Y488615D01*
D02*
G37*
G36*
X284323Y480615D02*
X284437Y480541D01*
X284569Y480475D01*
X284718Y480419D01*
X284885Y480372D01*
X285069Y480334D01*
X285271Y480304D01*
X285728Y480273D01*
X285982Y480272D01*
X284228Y478518D01*
X284226Y478772D01*
X284195Y479229D01*
X284166Y479431D01*
X284128Y479615D01*
X284081Y479782D01*
X284025Y479931D01*
X283960Y480063D01*
X283885Y480177D01*
X283802Y480274D01*
X284226Y480698D01*
X284323Y480615D01*
D02*
G37*
G36*
X285909Y515943D02*
X286358Y515358D01*
X286373Y515347D01*
X286519Y515198D01*
X286766Y514915D01*
X286840Y514818D01*
X286899Y514727D01*
X286938Y514658D01*
X286954Y514622D01*
Y488536D01*
X286954Y488536D01*
X287069Y487958D01*
X287396Y487468D01*
X287422Y487442D01*
X287436Y487405D01*
X287458Y487329D01*
X287480Y487223D01*
X287497Y487102D01*
X287523Y486727D01*
X287524Y486518D01*
X287522Y486500D01*
X287623Y485729D01*
X287921Y485011D01*
X288394Y484394D01*
X289011Y483921D01*
X289729Y483623D01*
X290500Y483522D01*
X291271Y483623D01*
X291989Y483921D01*
X292606Y484394D01*
X293079Y485011D01*
X293377Y485729D01*
X293478Y486500D01*
X293377Y487271D01*
X293079Y487989D01*
X292606Y488606D01*
X291989Y489079D01*
X291271Y489377D01*
X290500Y489478D01*
X290482Y489476D01*
X290273Y489477D01*
X289974Y489498D01*
Y491144D01*
X290474Y491313D01*
X290590Y491162D01*
X291207Y490689D01*
X291925Y490391D01*
X292696Y490290D01*
X293467Y490391D01*
X294185Y490689D01*
X294802Y491162D01*
X295275Y491779D01*
X295573Y492497D01*
X295674Y493268D01*
X295573Y494039D01*
X295275Y494757D01*
X294802Y495374D01*
X294185Y495847D01*
X293849Y495987D01*
X293752Y496050D01*
X293595Y496113D01*
X293505Y496157D01*
X293474Y496175D01*
Y500622D01*
X293491Y500658D01*
X293529Y500727D01*
X293589Y500818D01*
X293662Y500915D01*
X293909Y501198D01*
X294056Y501347D01*
X294070Y501358D01*
X294543Y501975D01*
X294841Y502693D01*
X294942Y503464D01*
X294841Y504235D01*
X294543Y504953D01*
X294407Y505131D01*
X294678Y505599D01*
X295243Y505525D01*
X295261Y505527D01*
X295470Y505526D01*
X295845Y505500D01*
X295966Y505483D01*
X296072Y505461D01*
X296148Y505439D01*
X296185Y505425D01*
X296490Y505121D01*
Y452500D01*
X296490Y452500D01*
X296605Y451922D01*
X296932Y451432D01*
X299932Y448432D01*
X300422Y448105D01*
X301000Y447990D01*
X301000Y447990D01*
X336866D01*
Y446010D01*
X283626D01*
X280010Y449625D01*
Y503158D01*
X280027Y503194D01*
X280065Y503263D01*
X280125Y503353D01*
X280198Y503451D01*
X280445Y503734D01*
X280591Y503883D01*
X280606Y503894D01*
X281079Y504511D01*
X281377Y505229D01*
X281478Y506000D01*
X281377Y506771D01*
X281079Y507489D01*
X280606Y508106D01*
X280591Y508117D01*
X280445Y508266D01*
X280198Y508549D01*
X280125Y508647D01*
X280065Y508737D01*
X280027Y508806D01*
X280010Y508843D01*
Y512676D01*
X280459Y512898D01*
X280475Y512885D01*
X281193Y512587D01*
X281268Y512578D01*
X281281Y512571D01*
X281327Y512567D01*
X281369Y512548D01*
X281579Y512504D01*
X281740Y512463D01*
X281990Y512385D01*
Y481000D01*
X281990Y481000D01*
X282105Y480422D01*
X282432Y479932D01*
X282922Y479442D01*
X282936Y479405D01*
X282958Y479329D01*
X282980Y479223D01*
X282997Y479102D01*
X283023Y478727D01*
X283024Y478518D01*
X283022Y478500D01*
X283123Y477729D01*
X283421Y477011D01*
X283894Y476394D01*
X284511Y475921D01*
X285229Y475623D01*
X286000Y475522D01*
X286771Y475623D01*
X287489Y475921D01*
X288106Y476394D01*
X288579Y477011D01*
X288877Y477729D01*
X288978Y478500D01*
X288877Y479271D01*
X288579Y479989D01*
X288106Y480606D01*
X287489Y481079D01*
X286771Y481377D01*
X286000Y481478D01*
X285982Y481476D01*
X285773Y481477D01*
X285398Y481503D01*
X285277Y481520D01*
X285171Y481542D01*
X285095Y481564D01*
X285058Y481578D01*
X285010Y481626D01*
Y513222D01*
X285010Y513222D01*
X284895Y513800D01*
X284677Y514127D01*
X284665Y514147D01*
X284672Y514186D01*
X284695Y514266D01*
X284745Y514405D01*
X284750Y514441D01*
X284767Y514473D01*
X284772Y514526D01*
X284841Y514693D01*
X284917Y515270D01*
X284979Y515344D01*
X285068Y515432D01*
X285068Y515432D01*
X285377Y515895D01*
X285700Y515955D01*
X285714Y515956D01*
X285909Y515943D01*
D02*
G37*
G36*
X348024Y457926D02*
X348202Y457822D01*
X348418Y457731D01*
X348671Y457653D01*
X348961Y457588D01*
X349289Y457535D01*
X350055Y457468D01*
X350494Y457454D01*
X350971Y457453D01*
X348047Y454529D01*
X348046Y455006D01*
X347965Y456211D01*
X347912Y456539D01*
X347847Y456829D01*
X347769Y457082D01*
X347678Y457298D01*
X347574Y457476D01*
X347458Y457618D01*
X347882Y458042D01*
X348024Y457926D01*
D02*
G37*
G36*
X300105Y461922D02*
X300432Y461432D01*
X303432Y458432D01*
X303922Y458105D01*
X304500Y457990D01*
X304500Y457990D01*
X337980D01*
X338141Y457516D01*
X338052Y457448D01*
X337389Y456585D01*
X336973Y455579D01*
X336830Y454500D01*
X336973Y453421D01*
X337389Y452415D01*
X338052Y451552D01*
X338141Y451484D01*
X337980Y451010D01*
X301625D01*
X299510Y453125D01*
Y462349D01*
X300010Y462398D01*
X300105Y461922D01*
D02*
G37*
G36*
X348183Y447745D02*
X348405Y447556D01*
X348503Y447487D01*
X348593Y447435D01*
X348673Y447400D01*
X348745Y447381D01*
X348808Y447380D01*
X348862Y447396D01*
X348908Y447429D01*
X348071Y446592D01*
X348104Y446638D01*
X348120Y446692D01*
X348119Y446755D01*
X348100Y446827D01*
X348065Y446907D01*
X348013Y446997D01*
X347944Y447095D01*
X347858Y447201D01*
X347635Y447441D01*
X348059Y447865D01*
X348183Y447745D01*
D02*
G37*
G36*
X338071Y443900D02*
X338065Y443957D01*
X338047Y444008D01*
X338016Y444053D01*
X337973Y444092D01*
X337918Y444125D01*
X337851Y444152D01*
X337771Y444173D01*
X337680Y444188D01*
X337576Y444197D01*
X337459Y444200D01*
Y444800D01*
X337576Y444803D01*
X337680Y444812D01*
X337771Y444827D01*
X337851Y444848D01*
X337918Y444875D01*
X337973Y444908D01*
X338016Y444947D01*
X338047Y444992D01*
X338065Y445043D01*
X338071Y445100D01*
Y443900D01*
D02*
G37*
D12*
X215500Y790500D02*
X230500D01*
X231500Y791500D01*
X273964Y647964D02*
X277590Y644339D01*
X273964Y657964D02*
Y667964D01*
X307992Y645331D02*
X315500D01*
X273964Y667964D02*
Y677964D01*
X273909Y607519D02*
Y617409D01*
X273964Y617464D02*
Y627464D01*
X273854Y607464D02*
X273909Y607519D01*
X273964Y637964D02*
Y647964D01*
Y657964D01*
X273909Y617409D02*
X273964Y617464D01*
Y627464D02*
Y637964D01*
X277590Y644339D02*
X307000D01*
X307992Y645331D01*
X315500D02*
X315941Y645772D01*
X337772D01*
X274000Y703500D02*
Y752000D01*
X422000Y692500D02*
X433500Y704000D01*
X421950Y832675D02*
X434288Y820337D01*
X420500Y267000D02*
X432000Y278500D01*
X421950Y906175D02*
X433950Y918175D01*
X604450Y901675D02*
Y907175D01*
X602950Y900175D02*
X604450Y901675D01*
X421950Y832675D02*
Y906175D01*
X580450Y900175D02*
X602950D01*
X579000Y261000D02*
X601500D01*
X603000Y262500D02*
Y268000D01*
X601500Y261000D02*
X603000Y262500D01*
X420500Y193500D02*
X433000Y181000D01*
X420500Y193500D02*
Y267000D01*
X579500Y474000D02*
X602000D01*
X603500Y475500D02*
Y481000D01*
X602000Y474000D02*
X603500Y475500D01*
X421000Y406500D02*
X433500Y394000D01*
X421000Y406500D02*
Y480000D01*
X433000Y492000D01*
X422000Y619000D02*
X434500Y606500D01*
X422000Y619000D02*
Y692500D01*
X603000Y686500D02*
X604500Y688000D01*
Y693500D01*
X580500Y686500D02*
X603000D01*
D66*
X349000Y611331D02*
D03*
Y602669D02*
D03*
X315500Y645331D02*
D03*
Y636669D02*
D03*
D67*
X356500Y602823D02*
D03*
Y610500D02*
D03*
X307000Y636661D02*
D03*
Y644339D02*
D03*
D68*
X375000Y672559D02*
D03*
Y667441D02*
D03*
D70*
X238500Y576000D02*
X246500Y568000D01*
X360755Y566464D02*
X360964D01*
X246500Y568000D02*
X359219D01*
X360755Y566464D01*
X349516Y612016D02*
X351031Y610500D01*
X356500D01*
X282111Y514611D02*
X284000Y516500D01*
X282000Y514500D02*
X282111Y514611D01*
X292000Y503464D02*
Y538500D01*
X291964Y494036D02*
X293500Y492500D01*
X291964Y494036D02*
Y503464D01*
X299464Y512964D02*
Y531964D01*
X346000Y534500D02*
X351000Y539500D01*
X314796Y534500D02*
X346000D01*
X313297Y536000D02*
X314796Y534500D01*
X312500Y536000D02*
X313297D01*
X292000Y538500D02*
X292464Y538964D01*
X283500Y481000D02*
Y513222D01*
Y481000D02*
X286000Y478500D01*
X295279Y508539D02*
Y534632D01*
X295607Y534960D01*
X312000Y521500D02*
Y524500D01*
Y521500D02*
X314000Y519500D01*
X324500D01*
X288464Y488536D02*
Y517464D01*
Y488536D02*
X290500Y486500D01*
X278500Y506000D02*
Y542500D01*
X285464Y549464D01*
X284000Y516500D02*
Y542250D01*
X287714Y545964D01*
X301500Y462500D02*
Y510928D01*
X346000Y459500D02*
X351000Y454500D01*
X299464Y512964D02*
X301500Y510928D01*
X304500Y459500D02*
X346000D01*
X301500Y462500D02*
X304500Y459500D01*
X278500Y449000D02*
Y506000D01*
X283000Y444500D02*
X341000D01*
X278500Y449000D02*
X283000Y444500D01*
X288500Y517500D02*
Y540204D01*
X289964Y541668D02*
Y542464D01*
X288500Y540204D02*
X289964Y541668D01*
X301000Y449500D02*
X346000D01*
X351000Y444500D01*
X313500Y528000D02*
X321500D01*
X311000Y530500D02*
X313500Y528000D01*
X321500D02*
X325000Y524500D01*
X282111Y514611D02*
X283500Y513222D01*
X281964Y514757D02*
X282111Y514611D01*
X281964Y514757D02*
Y515464D01*
X295243Y508503D02*
X298000Y505746D01*
Y452500D02*
Y505746D01*
Y452500D02*
X301000Y449500D01*
X399964Y658464D02*
X400428Y658000D01*
X358797Y650500D02*
X376000D01*
X357797Y651500D02*
X358797Y650500D01*
X357000Y651500D02*
X357797D01*
X376000Y641878D02*
Y650500D01*
Y640500D02*
Y641878D01*
X374725Y643153D02*
X376000Y641878D01*
X355347Y643153D02*
X374725D01*
X355000Y643500D02*
X355347Y643153D01*
X376000Y650500D02*
Y658500D01*
X376500Y659000D01*
X377000Y632000D02*
Y639500D01*
X376000Y640500D02*
X377000Y639500D01*
X346000Y524500D02*
X351000Y529500D01*
X325000Y524500D02*
X346000D01*
X418500Y656500D02*
Y672500D01*
X433500Y704000D02*
X434000Y704500D01*
X421000Y704000D02*
X433500D01*
X414500Y660500D02*
Y697500D01*
X421000Y704000D01*
X412000Y658000D02*
X414500Y660500D01*
X400428Y658000D02*
X412000D01*
X399923Y653923D02*
X415923D01*
X418500Y656500D01*
X435805Y778320D02*
X435950Y778175D01*
X412109Y778320D02*
X435805D01*
X411964Y778464D02*
X412109Y778320D01*
X434288Y820337D02*
X434450Y820175D01*
X415163Y820337D02*
X434288D01*
X415000Y820500D02*
X415163Y820337D01*
X408856Y642856D02*
X409500Y643500D01*
X408284Y642284D02*
X408856Y642856D01*
X409864Y638364D02*
X410500Y639000D01*
X409299Y637799D02*
X409864Y638364D01*
X399799Y637799D02*
X409299D01*
X399784Y642284D02*
X408284D01*
X392500Y478500D02*
X412000D01*
X391500D02*
X392500D01*
X391500Y473500D02*
X412000D01*
X400000Y281000D02*
X402500Y278500D01*
X432000D01*
X432500Y279000D01*
X354928Y564500D02*
X354964Y564464D01*
X246500Y564500D02*
X354928D01*
X236500Y574500D02*
X246500Y564500D01*
X236500Y574500D02*
Y663000D01*
X238500Y655500D02*
X251000Y668000D01*
X238500Y576000D02*
Y655500D01*
X236500Y663000D02*
X251500Y678000D01*
X334840Y596840D02*
X337680Y594000D01*
X342500D01*
X347500Y579901D02*
Y589000D01*
X342500Y594000D02*
X347500Y589000D01*
X343099Y575500D02*
X347500Y579901D01*
X336324Y589824D02*
X340176D01*
X344000Y586000D01*
X340047Y577500D02*
X344000Y581453D01*
Y586000D01*
X253000Y577500D02*
X340047D01*
X335500Y579500D02*
X337964Y581964D01*
X254000Y579500D02*
X335500D01*
X251500Y678000D02*
X258500D01*
X251000Y668000D02*
X258500D01*
X252000Y575500D02*
X343099D01*
X251200Y576300D02*
X252000Y575500D01*
X251200Y576300D02*
X251200D01*
X246500Y581000D02*
X251200Y576300D01*
X246500Y581000D02*
Y623000D01*
X251500Y628000D01*
X248500Y582000D02*
X253000Y577500D01*
X248500Y582000D02*
Y614500D01*
X250500Y583000D02*
X254000Y579500D01*
X250500Y583000D02*
Y604000D01*
X254500Y608000D02*
X258500D01*
X250500Y604000D02*
X254500Y608000D01*
X251500Y628000D02*
X258500D01*
X248500Y614500D02*
X252000Y618000D01*
X258500D01*
D71*
X570375Y779875D02*
X574550Y784050D01*
X566318Y705932D02*
X570375Y701875D01*
X566318Y705932D02*
Y719995D01*
X562813Y723500D02*
X566318Y719995D01*
X400000Y716500D02*
X407000Y723500D01*
X562813D01*
X400000Y691500D02*
Y716500D01*
X348768Y682232D02*
X390732D01*
X400000Y691500D01*
X574550Y784050D02*
X587325D01*
X570375Y701875D02*
Y779875D01*
X587250Y570500D02*
X587375Y570375D01*
X575000Y570500D02*
X587250D01*
X569375Y489375D02*
Y564875D01*
X575000Y570500D01*
X586000Y357500D02*
X586375Y357875D01*
X573000Y357500D02*
X586000D01*
X568875Y276375D02*
Y353375D01*
X573000Y357500D01*
X340000Y681500D02*
X348500D01*
X333500Y688000D02*
X340000Y681500D01*
X333500Y688000D02*
Y772000D01*
X570325Y915550D02*
X570450Y915675D01*
Y920175D02*
X572950Y922675D01*
X587325Y784050D02*
X587700Y783675D01*
X570450Y915675D02*
Y920175D01*
X638450Y786675D02*
Y917175D01*
X635450Y783675D02*
X638450Y786675D01*
X587700Y783675D02*
X635450D01*
X632950Y922675D02*
X638450Y917175D01*
X572950Y922675D02*
X632950D01*
X569000Y281000D02*
X571500Y283500D01*
X585875Y144875D02*
X586250Y144500D01*
X571500Y283500D02*
X631500D01*
X586250Y144500D02*
X634000D01*
X637000Y147500D01*
X631500Y283500D02*
X637000Y278000D01*
Y147500D02*
Y278000D01*
X586375Y357875D02*
X586750Y357500D01*
X634500D01*
X637500Y360500D02*
Y491000D01*
X634500Y357500D02*
X637500Y360500D01*
X569500Y494000D02*
X572000Y496500D01*
X632000D01*
X637500Y491000D01*
X633000Y709000D02*
X638500Y703500D01*
X573000Y709000D02*
X633000D01*
X570500Y706500D02*
X573000Y709000D01*
X638500Y573000D02*
Y703500D01*
X635500Y570000D02*
X638500Y573000D01*
X587375Y570375D02*
X587750Y570000D01*
X635500D01*
D72*
X245508Y492362D02*
D03*
Y549449D02*
D03*
D73*
X222043Y492362D02*
D03*
Y549449D02*
D03*
D74*
X351000Y474500D02*
D03*
Y464500D02*
D03*
Y454500D02*
D03*
Y484500D02*
D03*
X341000D02*
D03*
Y454500D02*
D03*
Y464500D02*
D03*
Y474500D02*
D03*
X351000Y539500D02*
D03*
Y529500D02*
D03*
Y519500D02*
D03*
Y549500D02*
D03*
X341000D02*
D03*
Y519500D02*
D03*
Y529500D02*
D03*
Y539500D02*
D03*
X451000Y181000D02*
D03*
X451500Y394000D02*
D03*
X452500Y606500D02*
D03*
X452450Y820175D02*
D03*
X619500Y181500D02*
D03*
X620000Y394500D02*
D03*
X621000Y607000D02*
D03*
X620950Y820675D02*
D03*
X629500Y153500D02*
D03*
X630000Y366500D02*
D03*
X631000Y579000D02*
D03*
X630950Y792675D02*
D03*
X462500Y140000D02*
D03*
X463000Y353000D02*
D03*
X464000Y565500D02*
D03*
X463950Y779175D02*
D03*
X449000Y279000D02*
D03*
X449500Y492000D02*
D03*
X450500Y704500D02*
D03*
X450450Y918175D02*
D03*
X620000Y268000D02*
D03*
X620500Y481000D02*
D03*
X621500Y693500D02*
D03*
X621450Y907175D02*
D03*
X459500Y248000D02*
D03*
X460000Y461000D02*
D03*
X461000Y673500D02*
D03*
X460950Y887175D02*
D03*
X264000Y771000D02*
D03*
X323500Y772000D02*
D03*
X215500Y800500D02*
D03*
D75*
X351000Y444500D02*
D03*
X341000D02*
D03*
X351000Y509500D02*
D03*
X341000D02*
D03*
X215500Y790500D02*
D03*
D76*
X673000Y198375D02*
D03*
X673500Y411375D02*
D03*
X674500Y623875D02*
D03*
X674450Y837550D02*
D03*
X673000Y129250D02*
D03*
X673500Y342250D02*
D03*
X674500Y554750D02*
D03*
X674450Y768425D02*
D03*
X673000Y267500D02*
D03*
X673500Y480500D02*
D03*
X674500Y693000D02*
D03*
X674450Y906675D02*
D03*
D77*
X683050Y208425D02*
D03*
X662950D02*
D03*
X683050Y188325D02*
D03*
X662950D02*
D03*
X683550Y421425D02*
D03*
X663450D02*
D03*
X683550Y401325D02*
D03*
X663450D02*
D03*
X684550Y633925D02*
D03*
X664450D02*
D03*
X684550Y613825D02*
D03*
X664450D02*
D03*
X684500Y847600D02*
D03*
X664400D02*
D03*
X684500Y827500D02*
D03*
X664400D02*
D03*
X683050Y139300D02*
D03*
X662950D02*
D03*
X683050Y119200D02*
D03*
X662950D02*
D03*
X683550Y352300D02*
D03*
X663450D02*
D03*
X683550Y332200D02*
D03*
X663450D02*
D03*
X684550Y564800D02*
D03*
X664450D02*
D03*
X684550Y544700D02*
D03*
X664450D02*
D03*
X684500Y778475D02*
D03*
X664400D02*
D03*
X684500Y758375D02*
D03*
X664400D02*
D03*
X683050Y277550D02*
D03*
X662950D02*
D03*
X683050Y257450D02*
D03*
X662950D02*
D03*
X683550Y490550D02*
D03*
X663450D02*
D03*
X683550Y470450D02*
D03*
X663450D02*
D03*
X684550Y703050D02*
D03*
X664450D02*
D03*
X684550Y682950D02*
D03*
X664450D02*
D03*
X684500Y916725D02*
D03*
X664400D02*
D03*
X684500Y896625D02*
D03*
X664400D02*
D03*
D78*
X228500Y715000D02*
D03*
Y705000D02*
D03*
X258500Y715000D02*
D03*
X356500Y762000D02*
D03*
Y752000D02*
D03*
X386500Y762000D02*
D03*
X228500Y668000D02*
D03*
Y658000D02*
D03*
Y648000D02*
D03*
Y638000D02*
D03*
Y628000D02*
D03*
Y618000D02*
D03*
Y608000D02*
D03*
X258500Y678000D02*
D03*
Y668000D02*
D03*
Y658000D02*
D03*
Y648000D02*
D03*
Y638000D02*
D03*
Y628000D02*
D03*
Y618000D02*
D03*
Y608000D02*
D03*
D79*
Y705000D02*
D03*
X386500Y752000D02*
D03*
X228500Y678000D02*
D03*
D80*
X433000Y181000D02*
D03*
X433500Y394000D02*
D03*
X434500Y606500D02*
D03*
X434450Y820175D02*
D03*
X601500Y181500D02*
D03*
X602000Y394500D02*
D03*
X603000Y607000D02*
D03*
X602950Y820675D02*
D03*
X648000Y198000D02*
D03*
X648500Y411000D02*
D03*
X649500Y623500D02*
D03*
X649450Y837175D02*
D03*
X602000Y153500D02*
D03*
X602500Y366500D02*
D03*
X603500Y579000D02*
D03*
X603450Y792675D02*
D03*
X434500Y139000D02*
D03*
X435000Y352000D02*
D03*
X436000Y564500D02*
D03*
X435950Y778175D02*
D03*
X647500Y129000D02*
D03*
X648000Y342000D02*
D03*
X649000Y554500D02*
D03*
X648950Y768175D02*
D03*
X432500Y279000D02*
D03*
X433000Y492000D02*
D03*
X434000Y704500D02*
D03*
X433950Y918175D02*
D03*
X603000Y268000D02*
D03*
X603500Y481000D02*
D03*
X604500Y693500D02*
D03*
X604450Y907175D02*
D03*
X432500Y247500D02*
D03*
X433000Y460500D02*
D03*
X434000Y673000D02*
D03*
X433950Y886675D02*
D03*
X646000Y267500D02*
D03*
X646500Y480500D02*
D03*
X647500Y693000D02*
D03*
X647450Y906675D02*
D03*
X274000Y752000D02*
D03*
X292000D02*
D03*
D81*
X461000Y181000D02*
D03*
X461500Y394000D02*
D03*
X462500Y606500D02*
D03*
X462450Y820175D02*
D03*
X629500Y181500D02*
D03*
X630000Y394500D02*
D03*
X631000Y607000D02*
D03*
X630950Y820675D02*
D03*
X619500Y153500D02*
D03*
X620000Y366500D02*
D03*
X621000Y579000D02*
D03*
X620950Y792675D02*
D03*
X452500Y140000D02*
D03*
X453000Y353000D02*
D03*
X454000Y565500D02*
D03*
X453950Y779175D02*
D03*
X459000Y279000D02*
D03*
X459500Y492000D02*
D03*
X460500Y704500D02*
D03*
X460450Y918175D02*
D03*
X630000Y268000D02*
D03*
X630500Y481000D02*
D03*
X631500Y693500D02*
D03*
X631450Y907175D02*
D03*
X449500Y248000D02*
D03*
X450000Y461000D02*
D03*
X451000Y673500D02*
D03*
X450950Y887175D02*
D03*
X274000Y771000D02*
D03*
X333500Y772000D02*
D03*
D82*
X310000Y113000D02*
D03*
X302500D02*
D03*
X295000D02*
D03*
X724450Y803675D02*
D03*
Y906175D02*
D03*
X724500Y590000D02*
D03*
Y692500D02*
D03*
X723500Y377500D02*
D03*
Y480000D02*
D03*
X723000Y164500D02*
D03*
Y267000D02*
D03*
D83*
X714607Y796391D02*
D03*
Y810958D02*
D03*
Y898892D02*
D03*
Y913459D02*
D03*
X714657Y582717D02*
D03*
Y597284D02*
D03*
Y685217D02*
D03*
Y699784D02*
D03*
X713658Y370216D02*
D03*
Y384784D02*
D03*
Y472717D02*
D03*
Y487284D02*
D03*
X713158Y157217D02*
D03*
Y171783D02*
D03*
Y259717D02*
D03*
Y274284D02*
D03*
D84*
X706734Y803675D02*
D03*
X733950D02*
D03*
X706734Y906175D02*
D03*
X733950D02*
D03*
X706783Y590000D02*
D03*
X734000D02*
D03*
X706783Y692500D02*
D03*
X734000D02*
D03*
X705784Y377500D02*
D03*
X733000D02*
D03*
X705784Y480000D02*
D03*
X733000D02*
D03*
X705283Y164500D02*
D03*
X732500D02*
D03*
X705283Y267000D02*
D03*
X732500D02*
D03*
D85*
X294500Y771500D02*
D03*
X353177Y656987D02*
D03*
X368500Y578000D02*
D03*
Y591500D02*
D03*
X353500Y675000D02*
D03*
X310500Y607500D02*
D03*
X314961Y669291D02*
D03*
X334646Y551181D02*
D03*
X314961Y511811D02*
D03*
X334646Y472441D02*
D03*
X314961Y433071D02*
D03*
X334646Y393701D02*
D03*
X314961Y354331D02*
D03*
X334646Y314961D02*
D03*
X314961Y275591D02*
D03*
X334646Y236221D02*
D03*
X314961Y196850D02*
D03*
X334646Y157480D02*
D03*
X314961Y118110D02*
D03*
X295276Y708661D02*
D03*
X275591Y433071D02*
D03*
X295276Y393701D02*
D03*
X275591Y354331D02*
D03*
X295276Y314961D02*
D03*
X275591Y275591D02*
D03*
X295276Y236221D02*
D03*
X275591Y196850D02*
D03*
X295276Y157480D02*
D03*
X275591Y118110D02*
D03*
X236221Y669291D02*
D03*
X255906Y551181D02*
D03*
X236221Y511811D02*
D03*
X255906Y472441D02*
D03*
X236221Y433071D02*
D03*
X255906Y393701D02*
D03*
X236221Y354331D02*
D03*
X255906Y314961D02*
D03*
X236221Y275591D02*
D03*
X255906Y236221D02*
D03*
X236221Y196850D02*
D03*
X255906Y157480D02*
D03*
X748032Y905512D02*
D03*
X767717Y866142D02*
D03*
X748032Y826772D02*
D03*
X767717Y787402D02*
D03*
X748032Y748032D02*
D03*
X767717Y708661D02*
D03*
X748032Y669291D02*
D03*
X767717Y629921D02*
D03*
X748032Y590551D02*
D03*
X767717Y551181D02*
D03*
X748032Y511811D02*
D03*
X767717Y472441D02*
D03*
X748032Y433071D02*
D03*
X767717Y393701D02*
D03*
X748032Y354331D02*
D03*
X767717Y314961D02*
D03*
X748032Y275591D02*
D03*
X767717Y236221D02*
D03*
X748032Y196850D02*
D03*
X767717Y157480D02*
D03*
X728346Y866142D02*
D03*
X708661Y826772D02*
D03*
X728346Y787402D02*
D03*
X708661Y748032D02*
D03*
X728346Y708661D02*
D03*
X708661Y669291D02*
D03*
X728346Y629921D02*
D03*
Y551181D02*
D03*
X708661Y511811D02*
D03*
X728346Y472441D02*
D03*
X708661Y433071D02*
D03*
X728346Y393701D02*
D03*
X708661Y354331D02*
D03*
X728346Y314961D02*
D03*
Y236221D02*
D03*
X708661Y196850D02*
D03*
Y118110D02*
D03*
X688976Y866142D02*
D03*
Y787402D02*
D03*
X669291Y748032D02*
D03*
Y669291D02*
D03*
Y590551D02*
D03*
Y511811D02*
D03*
Y433071D02*
D03*
X688976Y393701D02*
D03*
Y314961D02*
D03*
Y236221D02*
D03*
Y157480D02*
D03*
X649606Y866142D02*
D03*
Y787402D02*
D03*
X629921Y748032D02*
D03*
X649606Y708661D02*
D03*
X629921Y669291D02*
D03*
Y590551D02*
D03*
Y511811D02*
D03*
X649606Y472441D02*
D03*
X629921Y433071D02*
D03*
X649606Y393701D02*
D03*
Y314961D02*
D03*
X629921Y275591D02*
D03*
X649606Y236221D02*
D03*
Y157480D02*
D03*
X629921Y118110D02*
D03*
X590551Y905512D02*
D03*
X610236Y866142D02*
D03*
X590551Y826772D02*
D03*
X610236Y787402D02*
D03*
Y629921D02*
D03*
X590551Y590551D02*
D03*
X610236Y551181D02*
D03*
X590551Y511811D02*
D03*
X610236Y472441D02*
D03*
X590551Y433071D02*
D03*
X610236Y314961D02*
D03*
X590551Y275591D02*
D03*
X610236Y236221D02*
D03*
X590551Y196850D02*
D03*
X610236Y157480D02*
D03*
X570866Y866142D02*
D03*
X551181Y748032D02*
D03*
Y669291D02*
D03*
Y590551D02*
D03*
Y433071D02*
D03*
Y354331D02*
D03*
Y196850D02*
D03*
Y118110D02*
D03*
X531496Y787402D02*
D03*
X511811Y748032D02*
D03*
Y669291D02*
D03*
X531496Y629921D02*
D03*
X511811Y590551D02*
D03*
X531496Y551181D02*
D03*
X511811Y511811D02*
D03*
Y433071D02*
D03*
X531496Y393701D02*
D03*
Y314961D02*
D03*
X511811Y275591D02*
D03*
Y196850D02*
D03*
X531496Y157480D02*
D03*
X511811Y118110D02*
D03*
X492126Y866142D02*
D03*
X472441Y826772D02*
D03*
Y748032D02*
D03*
X492126Y708661D02*
D03*
Y629921D02*
D03*
Y551181D02*
D03*
X472441Y511811D02*
D03*
X492126Y472441D02*
D03*
X472441Y433071D02*
D03*
X492126Y314961D02*
D03*
Y236221D02*
D03*
X472441Y196850D02*
D03*
X492126Y157480D02*
D03*
X472441Y118110D02*
D03*
X433071Y905512D02*
D03*
X452756Y866142D02*
D03*
Y787402D02*
D03*
X433071Y748032D02*
D03*
X452756Y629921D02*
D03*
X433071Y590551D02*
D03*
X452756Y551181D02*
D03*
X433071Y511811D02*
D03*
X452756Y472441D02*
D03*
X433071Y433071D02*
D03*
X452756Y314961D02*
D03*
Y236221D02*
D03*
X433071Y196850D02*
D03*
X452756Y157480D02*
D03*
X433071Y118110D02*
D03*
X393701Y905512D02*
D03*
X413386Y866142D02*
D03*
X393701Y826772D02*
D03*
Y748032D02*
D03*
Y669291D02*
D03*
X413386Y629921D02*
D03*
X393701Y590551D02*
D03*
X413386Y551181D02*
D03*
X393701Y511811D02*
D03*
Y433071D02*
D03*
X413386Y393701D02*
D03*
X393701Y354331D02*
D03*
X413386Y314961D02*
D03*
X393701Y275591D02*
D03*
X413386Y236221D02*
D03*
X393701Y196850D02*
D03*
X413386Y157480D02*
D03*
X393701Y118110D02*
D03*
X354331Y905512D02*
D03*
X374016Y866142D02*
D03*
X354331Y826772D02*
D03*
X374016Y787402D02*
D03*
Y708661D02*
D03*
Y472441D02*
D03*
Y393701D02*
D03*
Y314961D02*
D03*
Y236221D02*
D03*
Y157480D02*
D03*
X314961Y905512D02*
D03*
X334646Y866142D02*
D03*
X314961Y826772D02*
D03*
X334646Y787402D02*
D03*
X275591Y905512D02*
D03*
X295276Y866142D02*
D03*
X275591Y826772D02*
D03*
X295276Y787402D02*
D03*
X236221Y905512D02*
D03*
X255906Y866142D02*
D03*
X236221Y826772D02*
D03*
X587500Y561000D02*
D03*
X231500Y791500D02*
D03*
X259500D02*
D03*
X243797Y761000D02*
D03*
X256500Y760500D02*
D03*
X581000Y803500D02*
D03*
X587450Y775344D02*
D03*
X579500Y589000D02*
D03*
Y163000D02*
D03*
X579000Y377500D02*
D03*
X586000Y136169D02*
D03*
X586500Y349169D02*
D03*
X349516Y612016D02*
D03*
X385000Y650000D02*
D03*
X375000Y667500D02*
D03*
X295243Y508503D02*
D03*
X278500Y506000D02*
D03*
X281964Y515464D02*
D03*
X312000Y524500D02*
D03*
X312500Y536000D02*
D03*
X291964Y503464D02*
D03*
X299464Y512964D02*
D03*
X288464Y517464D02*
D03*
X311000Y530500D02*
D03*
X299464Y531964D02*
D03*
X295607Y534960D02*
D03*
X292464Y538964D02*
D03*
X348768Y682232D02*
D03*
X399964Y658464D02*
D03*
X274000Y703500D02*
D03*
X355000Y643500D02*
D03*
X357000Y651500D02*
D03*
X337772Y645772D02*
D03*
X286000Y478500D02*
D03*
X290500Y486500D02*
D03*
X292696Y493268D02*
D03*
X310000Y517500D02*
D03*
X418464Y672464D02*
D03*
X399923Y653923D02*
D03*
X415000Y820500D02*
D03*
X411964Y778464D02*
D03*
X408856Y642856D02*
D03*
X409864Y638364D02*
D03*
X399784Y642284D02*
D03*
X399799Y637799D02*
D03*
X392500Y478500D02*
D03*
X391964Y473464D02*
D03*
X412000Y473500D02*
D03*
Y478500D02*
D03*
X399964Y280964D02*
D03*
X273854Y607464D02*
D03*
X273964Y617464D02*
D03*
Y627464D02*
D03*
Y637964D02*
D03*
Y647964D02*
D03*
Y657964D02*
D03*
Y667964D02*
D03*
Y677964D02*
D03*
X285464Y549464D02*
D03*
X287714Y545964D02*
D03*
X289964Y542464D02*
D03*
X354964Y564464D02*
D03*
X360964Y566464D02*
D03*
X334840Y596840D02*
D03*
X336324Y589824D02*
D03*
X337964Y581964D02*
D03*
X321500Y528000D02*
D03*
X324500Y519500D02*
D03*
X587210Y153040D02*
D03*
X570325Y915550D02*
D03*
X587325Y784050D02*
D03*
X570200Y876425D02*
D03*
X588660Y792215D02*
D03*
X580450Y900175D02*
D03*
X579000Y261000D02*
D03*
X568750Y237250D02*
D03*
X568875Y276375D02*
D03*
X585875Y144875D02*
D03*
X587710Y366040D02*
D03*
X579500Y474000D02*
D03*
X569250Y450250D02*
D03*
X569375Y489375D02*
D03*
X586375Y357875D02*
D03*
X570375Y701875D02*
D03*
X587375Y570375D02*
D03*
X570250Y662750D02*
D03*
X580500Y686500D02*
D03*
X588710Y578540D02*
D03*
D86*
X755315Y119685D02*
D03*
X222685Y938815D02*
D03*
Y119685D02*
D03*
X755315Y938315D02*
D03*
D87*
X384177Y659000D02*
D03*
X376500D02*
D03*
X384677Y632000D02*
D03*
X377000D02*
D03*
D88*
X376000Y650500D02*
D03*
X384661D02*
D03*
X376000Y640500D02*
D03*
X384661D02*
D03*
M02*
