G04*
G04 #@! TF.GenerationSoftware,Altium Limited,Altium Designer,20.1.12 (249)*
G04*
G04 Layer_Color=16711935*
%FSLAX25Y25*%
%MOIN*%
G70*
G04*
G04 #@! TF.SameCoordinates,17CD68B3-A26F-4FE0-94F3-A569FC1E460E*
G04*
G04*
G04 #@! TF.FilePolarity,Positive*
G04*
G01*
G75*
%ADD91C,0.01181*%
%ADD92C,0.00394*%
D91*
X203000Y100000D02*
X775000D01*
Y958000D01*
X203000D02*
X775000D01*
X203000D02*
X203000Y100000D01*
D92*
X573139Y158000D02*
X575106D01*
X575500Y158394D01*
Y159181D01*
X575106Y159574D01*
X573139D01*
Y161936D02*
Y160361D01*
X574319D01*
X573926Y161149D01*
Y161542D01*
X574319Y161936D01*
X575106D01*
X575500Y161542D01*
Y160755D01*
X575106Y160361D01*
X575894Y162723D02*
Y164297D01*
X575500Y166265D02*
X573139D01*
X574319Y165084D01*
Y166659D01*
X573639Y371000D02*
X575606D01*
X576000Y371394D01*
Y372181D01*
X575606Y372574D01*
X573639D01*
Y374936D02*
Y373361D01*
X574819D01*
X574426Y374149D01*
Y374542D01*
X574819Y374936D01*
X575606D01*
X576000Y374542D01*
Y373755D01*
X575606Y373361D01*
X576394Y375723D02*
Y377297D01*
X574032Y378084D02*
X573639Y378478D01*
Y379265D01*
X574032Y379659D01*
X574426D01*
X574819Y379265D01*
Y378871D01*
Y379265D01*
X575213Y379659D01*
X575606D01*
X576000Y379265D01*
Y378478D01*
X575606Y378084D01*
X574639Y583500D02*
X576606D01*
X577000Y583894D01*
Y584681D01*
X576606Y585074D01*
X574639D01*
Y587436D02*
Y585861D01*
X575819D01*
X575426Y586649D01*
Y587042D01*
X575819Y587436D01*
X576606D01*
X577000Y587042D01*
Y586255D01*
X576606Y585861D01*
X577394Y588223D02*
Y589797D01*
X577000Y592159D02*
Y590584D01*
X575426Y592159D01*
X575032D01*
X574639Y591765D01*
Y590978D01*
X575032Y590584D01*
X574589Y797175D02*
X576556D01*
X576950Y797569D01*
Y798356D01*
X576556Y798749D01*
X574589D01*
Y801111D02*
Y799536D01*
X575769D01*
X575376Y800324D01*
Y800717D01*
X575769Y801111D01*
X576556D01*
X576950Y800717D01*
Y799930D01*
X576556Y799536D01*
X577344Y801898D02*
Y803472D01*
X576950Y804259D02*
Y805046D01*
Y804653D01*
X574589D01*
X574982Y804259D01*
X570139Y253500D02*
X572106D01*
X572500Y253894D01*
Y254681D01*
X572106Y255074D01*
X570139D01*
X572500Y257042D02*
X570139D01*
X571319Y255861D01*
Y257436D01*
X572894Y258223D02*
Y259797D01*
X572500Y261765D02*
X570139D01*
X571319Y260584D01*
Y262159D01*
X570639Y466500D02*
X572606D01*
X573000Y466894D01*
Y467681D01*
X572606Y468074D01*
X570639D01*
X573000Y470042D02*
X570639D01*
X571819Y468861D01*
Y470436D01*
X573394Y471223D02*
Y472797D01*
X571032Y473584D02*
X570639Y473978D01*
Y474765D01*
X571032Y475159D01*
X571426D01*
X571819Y474765D01*
Y474371D01*
Y474765D01*
X572213Y475159D01*
X572606D01*
X573000Y474765D01*
Y473978D01*
X572606Y473584D01*
X571639Y679000D02*
X573606D01*
X574000Y679394D01*
Y680181D01*
X573606Y680574D01*
X571639D01*
X574000Y682542D02*
X571639D01*
X572819Y681361D01*
Y682936D01*
X574394Y683723D02*
Y685297D01*
X574000Y687659D02*
Y686084D01*
X572426Y687659D01*
X572032D01*
X571639Y687265D01*
Y686478D01*
X572032Y686084D01*
X571589Y892675D02*
X573556D01*
X573950Y893069D01*
Y893856D01*
X573556Y894249D01*
X571589D01*
X573950Y896217D02*
X571589D01*
X572769Y895036D01*
Y896611D01*
X574344Y897398D02*
Y898972D01*
X573950Y899759D02*
Y900546D01*
Y900153D01*
X571589D01*
X571982Y899759D01*
M02*
