G04*
G04 #@! TF.GenerationSoftware,Altium Limited,Altium Designer,20.1.12 (249)*
G04*
G04 Layer_Color=16711935*
%FSLAX25Y25*%
%MOIN*%
G70*
G04*
G04 #@! TF.SameCoordinates,17CD68B3-A26F-4FE0-94F3-A569FC1E460E*
G04*
G04*
G04 #@! TF.FilePolarity,Negative*
G04*
G01*
G75*
%ADD34R,0.06706X0.03950*%
%ADD35R,0.06902X0.06115*%
%ADD36R,0.04540X0.04343*%
%ADD37O,0.13792X0.06706*%
%ADD38O,0.09855X0.06706*%
%ADD39C,0.06706*%
%ADD40R,0.06706X0.06706*%
%ADD41C,0.12217*%
%ADD42C,0.13398*%
%ADD43C,0.05918*%
%ADD44R,0.05918X0.05918*%
%ADD45C,0.11000*%
%ADD46R,0.06706X0.06706*%
%ADD47C,0.05524*%
%ADD48O,0.10642X0.06706*%
%ADD49O,0.06706X0.10642*%
%ADD50C,0.04343*%
%ADD51C,0.24422*%
%ADD89R,0.06115X0.06902*%
%ADD90R,0.03950X0.06706*%
D34*
X349000Y611331D02*
D03*
Y602669D02*
D03*
X315500Y645331D02*
D03*
Y636669D02*
D03*
D35*
X356500Y602823D02*
D03*
Y610500D02*
D03*
X307000Y636661D02*
D03*
Y644339D02*
D03*
D36*
X375000Y672559D02*
D03*
Y667441D02*
D03*
D37*
X245508Y492362D02*
D03*
Y549449D02*
D03*
D38*
X222043Y492362D02*
D03*
Y549449D02*
D03*
D39*
X351000Y474500D02*
D03*
Y464500D02*
D03*
Y454500D02*
D03*
Y484500D02*
D03*
X341000D02*
D03*
Y454500D02*
D03*
Y464500D02*
D03*
Y474500D02*
D03*
X351000Y539500D02*
D03*
Y529500D02*
D03*
Y519500D02*
D03*
Y549500D02*
D03*
X341000D02*
D03*
Y519500D02*
D03*
Y529500D02*
D03*
Y539500D02*
D03*
X451000Y181000D02*
D03*
X451500Y394000D02*
D03*
X452500Y606500D02*
D03*
X452450Y820175D02*
D03*
X619500Y181500D02*
D03*
X620000Y394500D02*
D03*
X621000Y607000D02*
D03*
X620950Y820675D02*
D03*
X629500Y153500D02*
D03*
X630000Y366500D02*
D03*
X631000Y579000D02*
D03*
X630950Y792675D02*
D03*
X462500Y140000D02*
D03*
X463000Y353000D02*
D03*
X464000Y565500D02*
D03*
X463950Y779175D02*
D03*
X449000Y279000D02*
D03*
X449500Y492000D02*
D03*
X450500Y704500D02*
D03*
X450450Y918175D02*
D03*
X620000Y268000D02*
D03*
X620500Y481000D02*
D03*
X621500Y693500D02*
D03*
X621450Y907175D02*
D03*
X459500Y248000D02*
D03*
X460000Y461000D02*
D03*
X461000Y673500D02*
D03*
X460950Y887175D02*
D03*
X264000Y771000D02*
D03*
X323500Y772000D02*
D03*
X215500Y800500D02*
D03*
D40*
X351000Y444500D02*
D03*
X341000D02*
D03*
X351000Y509500D02*
D03*
X341000D02*
D03*
X215500Y790500D02*
D03*
D41*
X673000Y198375D02*
D03*
X673500Y411375D02*
D03*
X674500Y623875D02*
D03*
X674450Y837550D02*
D03*
X673000Y129250D02*
D03*
X673500Y342250D02*
D03*
X674500Y554750D02*
D03*
X674450Y768425D02*
D03*
X673000Y267500D02*
D03*
X673500Y480500D02*
D03*
X674500Y693000D02*
D03*
X674450Y906675D02*
D03*
D42*
X683050Y208425D02*
D03*
X662950D02*
D03*
X683050Y188325D02*
D03*
X662950D02*
D03*
X683550Y421425D02*
D03*
X663450D02*
D03*
X683550Y401325D02*
D03*
X663450D02*
D03*
X684550Y633925D02*
D03*
X664450D02*
D03*
X684550Y613825D02*
D03*
X664450D02*
D03*
X684500Y847600D02*
D03*
X664400D02*
D03*
X684500Y827500D02*
D03*
X664400D02*
D03*
X683050Y139300D02*
D03*
X662950D02*
D03*
X683050Y119200D02*
D03*
X662950D02*
D03*
X683550Y352300D02*
D03*
X663450D02*
D03*
X683550Y332200D02*
D03*
X663450D02*
D03*
X684550Y564800D02*
D03*
X664450D02*
D03*
X684550Y544700D02*
D03*
X664450D02*
D03*
X684500Y778475D02*
D03*
X664400D02*
D03*
X684500Y758375D02*
D03*
X664400D02*
D03*
X683050Y277550D02*
D03*
X662950D02*
D03*
X683050Y257450D02*
D03*
X662950D02*
D03*
X683550Y490550D02*
D03*
X663450D02*
D03*
X683550Y470450D02*
D03*
X663450D02*
D03*
X684550Y703050D02*
D03*
X664450D02*
D03*
X684550Y682950D02*
D03*
X664450D02*
D03*
X684500Y916725D02*
D03*
X664400D02*
D03*
X684500Y896625D02*
D03*
X664400D02*
D03*
D43*
X228500Y715000D02*
D03*
Y705000D02*
D03*
X258500Y715000D02*
D03*
X356500Y762000D02*
D03*
Y752000D02*
D03*
X386500Y762000D02*
D03*
X228500Y668000D02*
D03*
Y658000D02*
D03*
Y648000D02*
D03*
Y638000D02*
D03*
Y628000D02*
D03*
Y618000D02*
D03*
Y608000D02*
D03*
X258500Y678000D02*
D03*
Y668000D02*
D03*
Y658000D02*
D03*
Y648000D02*
D03*
Y638000D02*
D03*
Y628000D02*
D03*
Y618000D02*
D03*
Y608000D02*
D03*
D44*
Y705000D02*
D03*
X386500Y752000D02*
D03*
X228500Y678000D02*
D03*
D45*
X433000Y181000D02*
D03*
X433500Y394000D02*
D03*
X434500Y606500D02*
D03*
X434450Y820175D02*
D03*
X601500Y181500D02*
D03*
X602000Y394500D02*
D03*
X603000Y607000D02*
D03*
X602950Y820675D02*
D03*
X648000Y198000D02*
D03*
X648500Y411000D02*
D03*
X649500Y623500D02*
D03*
X649450Y837175D02*
D03*
X602000Y153500D02*
D03*
X602500Y366500D02*
D03*
X603500Y579000D02*
D03*
X603450Y792675D02*
D03*
X434500Y139000D02*
D03*
X435000Y352000D02*
D03*
X436000Y564500D02*
D03*
X435950Y778175D02*
D03*
X647500Y129000D02*
D03*
X648000Y342000D02*
D03*
X649000Y554500D02*
D03*
X648950Y768175D02*
D03*
X432500Y279000D02*
D03*
X433000Y492000D02*
D03*
X434000Y704500D02*
D03*
X433950Y918175D02*
D03*
X603000Y268000D02*
D03*
X603500Y481000D02*
D03*
X604500Y693500D02*
D03*
X604450Y907175D02*
D03*
X432500Y247500D02*
D03*
X433000Y460500D02*
D03*
X434000Y673000D02*
D03*
X433950Y886675D02*
D03*
X646000Y267500D02*
D03*
X646500Y480500D02*
D03*
X647500Y693000D02*
D03*
X647450Y906675D02*
D03*
X274000Y752000D02*
D03*
X292000D02*
D03*
D46*
X461000Y181000D02*
D03*
X461500Y394000D02*
D03*
X462500Y606500D02*
D03*
X462450Y820175D02*
D03*
X629500Y181500D02*
D03*
X630000Y394500D02*
D03*
X631000Y607000D02*
D03*
X630950Y820675D02*
D03*
X619500Y153500D02*
D03*
X620000Y366500D02*
D03*
X621000Y579000D02*
D03*
X620950Y792675D02*
D03*
X452500Y140000D02*
D03*
X453000Y353000D02*
D03*
X454000Y565500D02*
D03*
X453950Y779175D02*
D03*
X459000Y279000D02*
D03*
X459500Y492000D02*
D03*
X460500Y704500D02*
D03*
X460450Y918175D02*
D03*
X630000Y268000D02*
D03*
X630500Y481000D02*
D03*
X631500Y693500D02*
D03*
X631450Y907175D02*
D03*
X449500Y248000D02*
D03*
X450000Y461000D02*
D03*
X451000Y673500D02*
D03*
X450950Y887175D02*
D03*
X274000Y771000D02*
D03*
X333500Y772000D02*
D03*
D47*
X310000Y113000D02*
D03*
X302500D02*
D03*
X295000D02*
D03*
X724450Y803675D02*
D03*
Y906175D02*
D03*
X724500Y590000D02*
D03*
Y692500D02*
D03*
X723500Y377500D02*
D03*
Y480000D02*
D03*
X723000Y164500D02*
D03*
Y267000D02*
D03*
D48*
X714607Y796391D02*
D03*
Y810958D02*
D03*
Y898892D02*
D03*
Y913459D02*
D03*
X714657Y582717D02*
D03*
Y597284D02*
D03*
Y685217D02*
D03*
Y699784D02*
D03*
X713658Y370216D02*
D03*
Y384784D02*
D03*
Y472717D02*
D03*
Y487284D02*
D03*
X713158Y157217D02*
D03*
Y171783D02*
D03*
Y259717D02*
D03*
Y274284D02*
D03*
D49*
X706734Y803675D02*
D03*
X733950D02*
D03*
X706734Y906175D02*
D03*
X733950D02*
D03*
X706783Y590000D02*
D03*
X734000D02*
D03*
X706783Y692500D02*
D03*
X734000D02*
D03*
X705784Y377500D02*
D03*
X733000D02*
D03*
X705784Y480000D02*
D03*
X733000D02*
D03*
X705283Y164500D02*
D03*
X732500D02*
D03*
X705283Y267000D02*
D03*
X732500D02*
D03*
D50*
X334646Y551181D02*
D03*
X236221Y669291D02*
D03*
X255906Y551181D02*
D03*
X236221Y511811D02*
D03*
X255906Y157480D02*
D03*
X570325Y915550D02*
D03*
X587325Y784050D02*
D03*
X570200Y876425D02*
D03*
X588660Y792215D02*
D03*
X580450Y900175D02*
D03*
D51*
X755315Y119685D02*
D03*
X222685Y938815D02*
D03*
Y119685D02*
D03*
X755315Y938315D02*
D03*
D89*
X384177Y659000D02*
D03*
X376500D02*
D03*
X384677Y632000D02*
D03*
X377000D02*
D03*
D90*
X376000Y650500D02*
D03*
X384661D02*
D03*
X376000Y640500D02*
D03*
X384661D02*
D03*
M02*
