M48
;Layer_Color=9474304
;FILE_FORMAT=2:5
INCH,TZ
;TYPE=PLATED
T1F00S00C0.01575
T2F00S00C0.03150
T4F00S00C0.03543
T6F00S00C0.04016
T7F00S00C0.04724
T8F00S00C0.05000
T9F00S00C0.06102
T10F00S00C0.06890
T11F00S00C0.12402
%
T01
X275591Y118110
X314961
X393701
X433071
X472441
X511811
X551181
X586000Y136169
X585875Y144875
X587210Y153040
X629921Y118110
X708661
X688976Y157480
X649606
Y236221
X688976
X728346
X767717
X748032Y275591
Y196850
X708661
X767717Y157480
X629921Y275591
X590551
X568875Y276375
X579000Y261000
X568750Y237250
X610236Y236221
X590551Y196850
X551181
X511811
X472441
X492126Y236221
X511811Y275591
X531496Y157480
X492126
X579500Y163000
X610236Y157480
X452756
X413386
X374016
X334646
X314961Y196850
X334646Y236221
X374016
X413386
X452756
X433071Y196850
X393701
Y275591
X399964Y280964
X314961Y275591
X275591
X236221
X255906Y236221
X295276
X275591Y196850
X236221
X255906Y157480
X295276
Y314961
X255906
X275591Y354331
X236221
X255906Y393701
X295276
X275591Y433071
X236221
X314961
X334646Y393701
X374016
X413386
X433071Y433071
X393701
Y354331
X413386Y314961
X452756
X374016
X334646
X314961Y354331
X492126Y314961
X531496
X551181Y354331
X586375Y357875
X586500Y349169
X587710Y366040
X579000Y377500
X531496Y393701
X551181Y433071
X569250Y450250
X590551Y433071
X511811
X472441
X610236Y314961
X649606
X688976
X728346
X767717
X748032Y354331
X708661
X728346Y393701
X767717
X748032Y433071
X708661
X669291
X629921
X649606Y393701
X688976
X728346Y472441
X767717
X748032Y511811
X708661
X669291
X629921
X649606Y472441
X669291Y590551
X629921
X748032
X767717Y551181
X728346
X610236
X587500Y561000
X587375Y570375
X588710Y578540
X590551Y590551
X579500Y589000
X551181Y590551
X511811
X531496Y551181
X492126
X511811Y511811
X472441
X492126Y472441
X579500Y474000
X569375Y489375
X590551Y511811
X610236Y472441
X452756
X412000Y473500
Y478500
X392500
X391964Y473464
X374016Y472441
X334646
X324500Y519500
X321500Y528000
X312500Y536000
X314961Y511811
X334646Y551181
X354964Y564464
X360964Y566464
X368500Y578000
Y591500
X393701Y590551
X433071
X452756Y551181
X413386
X433071Y511811
X393701
X337964Y581964
X336324Y589824
X334840Y596840
X349516Y612016
X310500Y607500
X273854Y607464
X273964Y617464
X285464Y549464
X287714Y545964
X289964Y542464
X292464Y538964
X295607Y534960
X299464Y531964
X311000Y530500
X312000Y524500
X310000Y517500
X299464Y512964
X295243Y508503
X291964Y503464
X292696Y493268
X290500Y486500
X286000Y478500
X278500Y506000
X281964Y515464
X288464Y517464
X236221Y511811
X255906Y551181
Y472441
X273964Y627464
Y637964
Y647964
Y657964
Y667964
Y677964
X274000Y703500
X295276Y708661
X294500Y771500
X256500Y760500
X243797Y761000
X236221Y669291
X314961
X353500Y675000
X348768Y682232
X353177Y656987
X357000Y651500
X355000Y643500
X337772Y645772
X385000Y650000
X399923Y653923
X399964Y658464
X399784Y642284
X399799Y637799
X409864Y638364
X408856Y642856
X413386Y629921
X452756
X418464Y672464
X393701Y669291
X375000Y667500
X374016Y708661
X393701Y748032
X433071
X411964Y778464
X472441Y748032
X511811
X551181
X587450Y775344
X570375Y701875
X580500Y686500
X570250Y662750
X551181Y669291
X511811
X531496Y629921
X492126
Y708661
X610236Y629921
X629921Y669291
X669291
X708661
X748032
X767717Y708661
X728346
X748032Y748032
X708661
X669291
X629921
X649606Y708661
X728346Y629921
X767717
Y787402
X728346
X688976
X649606
Y866142
X688976
X728346
X767717
X748032Y905512
Y826772
X708661
X590551
X581000Y803500
X588660Y792215
X587325Y784050
X610236Y787402
Y866142
X570866
X570200Y876425
X580450Y900175
X590551Y905512
X570325Y915550
X492126Y866142
X472441Y826772
X531496Y787402
X452756
X415000Y820500
X393701Y826772
X354331
X314961
X334646Y866142
X374016
X413386
X452756
X433071Y905512
X393701
X354331
X314961
X334646Y787402
X374016
X295276
X259500Y791500
X231500
X236221Y826772
X275591
X295276Y866142
X255906
X275591Y905512
X236221
T02
X228500Y608000
Y618000
X258500
Y608000
Y628000
Y638000
Y648000
Y658000
Y668000
Y678000
Y705000
Y715000
X228500
Y705000
Y678000
Y668000
Y658000
Y648000
Y638000
Y628000
X356500Y752000
Y762000
X386500
Y752000
T04
X295000Y113000
X302500
X310000
T06
X452500Y140000
X462500
X619500Y153500
X629500
Y181500
X630000Y268000
X620000
X619500Y181500
X461000Y181000
X451000
X449500Y248000
X459500
X459000Y279000
X449000
X453000Y353000
X463000
X461500Y394000
X451500
X450000Y461000
X460000
X351000Y464500
Y454500
Y444500
X341000
Y454500
Y464500
X620000Y394500
Y366500
X630000
Y394500
X630500Y481000
X631000Y579000
Y607000
X621000
Y579000
X620500Y481000
X459500Y492000
X449500
X454000Y565500
X464000
X462500Y606500
X452500
X351000Y549500
Y539500
Y529500
Y519500
Y509500
X341000
Y519500
Y529500
Y539500
Y549500
Y484500
X351000
Y474500
X341000
X274000Y771000
X264000
X323500Y772000
X333500
X453950Y779175
X463950
X460500Y704500
X450500
X451000Y673500
X461000
X621500Y693500
X631500
X630950Y792675
Y820675
X631450Y907175
X621450
X620950Y820675
Y792675
X462450Y820175
X452450
X450950Y887175
X460950
X460450Y918175
X450450
X215500Y800500
Y790500
T07
X723000Y164500
Y267000
X723500Y377500
Y480000
X724500Y590000
Y692500
X724450Y803675
Y906175
T08
X434500Y139000
X602000Y153500
X647500Y129000
X648000Y198000
X646000Y267500
X603000Y268000
X601500Y181500
X433000Y181000
X432500Y247500
Y279000
X435000Y352000
X433500Y394000
X433000Y460500
X602000Y394500
X602500Y366500
X648000Y342000
X648500Y411000
X646500Y480500
X649000Y554500
X649500Y623500
X603000Y607000
X603500Y579000
Y481000
X433000Y492000
X436000Y564500
X434500Y606500
X292000Y752000
X274000
X435950Y778175
X434000Y704500
Y673000
X604500Y693500
X647500Y693000
X648950Y768175
X649450Y837175
X647450Y906675
X604450Y907175
X602950Y820675
X603450Y792675
X434450Y820175
X433950Y886675
Y918175
T09
X673000Y129250
Y198375
Y267500
X673500Y342250
Y411375
Y480500
X674500Y554750
Y623875
Y693000
X674450Y768425
Y837550
Y906675
T10
X662950Y119200
Y139300
X683050
Y119200
Y188325
Y208425
X662950
Y188325
Y257450
Y277550
X683050
Y257450
X683550Y332200
Y352300
X663450
Y332200
Y401325
Y421425
X683550
Y401325
Y470450
Y490550
X663450
Y470450
X664450Y544700
Y564800
X684550
Y544700
Y613825
X664450
Y633925
X684550
Y682950
Y703050
X664450
Y682950
X664400Y758375
Y778475
X684500
Y758375
Y827500
Y847600
X664400
Y827500
Y896625
Y916725
X684500
Y896625
T11
X222685Y119685
X755315
X222685Y938815
X755315Y938315
M30
