G04*
G04 #@! TF.GenerationSoftware,Altium Limited,Altium Designer,20.1.12 (249)*
G04*
G04 Layer_Color=32768*
%FSLAX25Y25*%
%MOIN*%
G70*
G04*
G04 #@! TF.SameCoordinates,17CD68B3-A26F-4FE0-94F3-A569FC1E460E*
G04*
G04*
G04 #@! TF.FilePolarity,Positive*
G04*
G01*
G75*
%ADD11C,0.00787*%
%ADD12C,0.01000*%
%ADD14C,0.00315*%
%ADD17C,0.00197*%
%ADD92C,0.00394*%
%ADD93C,0.00709*%
D11*
X237301Y754504D02*
X250294D01*
X237301D02*
Y767496D01*
X250294D01*
Y754504D02*
Y767496D01*
X336000Y489500D02*
X356000D01*
Y439500D02*
Y489500D01*
X336000Y439500D02*
Y489500D01*
Y439500D02*
X356000D01*
X336000Y554500D02*
X356000D01*
Y504500D02*
Y554500D01*
X336000Y504500D02*
Y554500D01*
Y504500D02*
X356000D01*
X446000Y176000D02*
Y186000D01*
Y176000D02*
X466000D01*
Y186000D01*
X446000D02*
X466000D01*
X446500Y389000D02*
Y399000D01*
Y389000D02*
X466500D01*
Y399000D01*
X446500D02*
X466500D01*
X447500Y601500D02*
Y611500D01*
Y601500D02*
X467500D01*
Y611500D01*
X447500D02*
X467500D01*
X447450Y815175D02*
Y825175D01*
Y815175D02*
X467450D01*
Y825175D01*
X447450D02*
X467450D01*
X614500Y176500D02*
Y186500D01*
Y176500D02*
X634500D01*
Y186500D01*
X614500D02*
X634500D01*
X615000Y389500D02*
Y399500D01*
Y389500D02*
X635000D01*
Y399500D01*
X615000D02*
X635000D01*
X616000Y602000D02*
Y612000D01*
Y602000D02*
X636000D01*
Y612000D01*
X616000D02*
X636000D01*
X615950Y815675D02*
Y825675D01*
Y815675D02*
X635950D01*
Y825675D01*
X615950D02*
X635950D01*
X634500Y148500D02*
Y158500D01*
X614500D02*
X634500D01*
X614500Y148500D02*
Y158500D01*
Y148500D02*
X634500D01*
X635000Y361500D02*
Y371500D01*
X615000D02*
X635000D01*
X615000Y361500D02*
Y371500D01*
Y361500D02*
X635000D01*
X636000Y574000D02*
Y584000D01*
X616000D02*
X636000D01*
X616000Y574000D02*
Y584000D01*
Y574000D02*
X636000D01*
X635950Y787675D02*
Y797675D01*
X615950D02*
X635950D01*
X615950Y787675D02*
Y797675D01*
Y787675D02*
X635950D01*
X467500Y135000D02*
Y145000D01*
X447500D02*
X467500D01*
X447500Y135000D02*
Y145000D01*
Y135000D02*
X467500D01*
X468000Y348000D02*
Y358000D01*
X448000D02*
X468000D01*
X448000Y348000D02*
Y358000D01*
Y348000D02*
X468000D01*
X469000Y560500D02*
Y570500D01*
X449000D02*
X469000D01*
X449000Y560500D02*
Y570500D01*
Y560500D02*
X469000D01*
X468950Y774175D02*
Y784175D01*
X448950D02*
X468950D01*
X448950Y774175D02*
Y784175D01*
Y774175D02*
X468950D01*
X444000Y274000D02*
Y284000D01*
Y274000D02*
X464000D01*
Y284000D01*
X444000D02*
X464000D01*
X444500Y487000D02*
Y497000D01*
Y487000D02*
X464500D01*
Y497000D01*
X444500D02*
X464500D01*
X445500Y699500D02*
Y709500D01*
Y699500D02*
X465500D01*
Y709500D01*
X445500D02*
X465500D01*
X445450Y913175D02*
Y923175D01*
Y913175D02*
X465450D01*
Y923175D01*
X445450D02*
X465450D01*
X615000Y263000D02*
Y273000D01*
Y263000D02*
X635000D01*
Y273000D01*
X615000D02*
X635000D01*
X615500Y476000D02*
Y486000D01*
Y476000D02*
X635500D01*
Y486000D01*
X615500D02*
X635500D01*
X616500Y688500D02*
Y698500D01*
Y688500D02*
X636500D01*
Y698500D01*
X616500D02*
X636500D01*
X616450Y902175D02*
Y912175D01*
Y902175D02*
X636450D01*
Y912175D01*
X616450D02*
X636450D01*
X464500Y243000D02*
Y253000D01*
X444500D02*
X464500D01*
X444500Y243000D02*
Y253000D01*
Y243000D02*
X464500D01*
X465000Y456000D02*
Y466000D01*
X445000D02*
X465000D01*
X445000Y456000D02*
Y466000D01*
Y456000D02*
X465000D01*
X466000Y668500D02*
Y678500D01*
X446000D02*
X466000D01*
X446000Y668500D02*
Y678500D01*
Y668500D02*
X466000D01*
X465950Y882175D02*
Y892175D01*
X445950D02*
X465950D01*
X445950Y882175D02*
Y892175D01*
Y882175D02*
X465950D01*
X259000Y766000D02*
Y776000D01*
Y766000D02*
X279000D01*
Y776000D01*
X259000D02*
X279000D01*
X318500Y767000D02*
Y777000D01*
Y767000D02*
X338500D01*
Y777000D01*
X318500D02*
X338500D01*
X210500Y805500D02*
X220500D01*
X210500Y785500D02*
Y805500D01*
Y785500D02*
X220500D01*
Y805500D01*
D12*
X439103Y181000D02*
X439020Y182005D01*
X438773Y182982D01*
X438368Y183905D01*
X437816Y184749D01*
X437134Y185490D01*
X436338Y186109D01*
X435452Y186589D01*
X434498Y186916D01*
X433504Y187082D01*
X432496D01*
X431502Y186916D01*
X430548Y186589D01*
X429662Y186109D01*
X428866Y185490D01*
X428184Y184749D01*
X427632Y183905D01*
X427227Y182982D01*
X426980Y182005D01*
X426897Y181000D01*
X426980Y179995D01*
X427227Y179018D01*
X427632Y178095D01*
X428184Y177251D01*
X428866Y176510D01*
X429662Y175891D01*
X430548Y175411D01*
X431502Y175083D01*
X432496Y174918D01*
X433504D01*
X434498Y175083D01*
X435452Y175411D01*
X436338Y175891D01*
X437134Y176510D01*
X437816Y177251D01*
X438368Y178095D01*
X438773Y179018D01*
X439020Y179995D01*
X439103Y181000D01*
X439603Y394000D02*
X439520Y395005D01*
X439273Y395982D01*
X438868Y396905D01*
X438316Y397749D01*
X437634Y398490D01*
X436838Y399110D01*
X435952Y399589D01*
X434998Y399917D01*
X434004Y400082D01*
X432996D01*
X432002Y399917D01*
X431048Y399589D01*
X430162Y399110D01*
X429366Y398490D01*
X428684Y397749D01*
X428132Y396905D01*
X427727Y395982D01*
X427480Y395005D01*
X427397Y394000D01*
X427480Y392995D01*
X427727Y392018D01*
X428132Y391095D01*
X428684Y390251D01*
X429366Y389510D01*
X430162Y388891D01*
X431048Y388411D01*
X432002Y388084D01*
X432996Y387918D01*
X434004D01*
X434998Y388084D01*
X435952Y388411D01*
X436838Y388891D01*
X437634Y389510D01*
X438316Y390251D01*
X438868Y391095D01*
X439273Y392018D01*
X439520Y392995D01*
X439603Y394000D01*
X440603Y606500D02*
X440520Y607505D01*
X440273Y608482D01*
X439868Y609405D01*
X439316Y610249D01*
X438634Y610990D01*
X437838Y611610D01*
X436952Y612089D01*
X435998Y612417D01*
X435004Y612582D01*
X433996D01*
X433002Y612417D01*
X432048Y612089D01*
X431162Y611610D01*
X430366Y610990D01*
X429684Y610249D01*
X429132Y609405D01*
X428727Y608482D01*
X428480Y607505D01*
X428397Y606500D01*
X428480Y605495D01*
X428727Y604518D01*
X429132Y603595D01*
X429684Y602751D01*
X430366Y602010D01*
X431162Y601391D01*
X432048Y600911D01*
X433002Y600584D01*
X433996Y600418D01*
X435004D01*
X435998Y600584D01*
X436952Y600911D01*
X437838Y601391D01*
X438634Y602010D01*
X439316Y602751D01*
X439868Y603595D01*
X440273Y604518D01*
X440520Y605495D01*
X440603Y606500D01*
X440553Y820175D02*
X440470Y821180D01*
X440223Y822157D01*
X439818Y823080D01*
X439266Y823924D01*
X438584Y824665D01*
X437788Y825284D01*
X436902Y825764D01*
X435948Y826091D01*
X434954Y826257D01*
X433946D01*
X432952Y826091D01*
X431998Y825764D01*
X431112Y825284D01*
X430316Y824665D01*
X429634Y823924D01*
X429082Y823080D01*
X428677Y822157D01*
X428430Y821180D01*
X428347Y820175D01*
X428430Y819170D01*
X428677Y818193D01*
X429082Y817270D01*
X429634Y816426D01*
X430316Y815685D01*
X431112Y815065D01*
X431998Y814586D01*
X432952Y814258D01*
X433946Y814093D01*
X434954D01*
X435948Y814258D01*
X436902Y814586D01*
X437788Y815065D01*
X438584Y815685D01*
X439266Y816426D01*
X439818Y817270D01*
X440223Y818193D01*
X440470Y819170D01*
X440553Y820175D01*
X607603Y181500D02*
X607520Y182505D01*
X607273Y183482D01*
X606868Y184405D01*
X606316Y185249D01*
X605634Y185990D01*
X604838Y186609D01*
X603952Y187089D01*
X602998Y187417D01*
X602004Y187582D01*
X600996D01*
X600002Y187417D01*
X599048Y187089D01*
X598162Y186609D01*
X597366Y185990D01*
X596684Y185249D01*
X596132Y184405D01*
X595727Y183482D01*
X595480Y182505D01*
X595397Y181500D01*
X595480Y180495D01*
X595727Y179518D01*
X596132Y178595D01*
X596684Y177751D01*
X597366Y177010D01*
X598162Y176391D01*
X599048Y175911D01*
X600002Y175584D01*
X600996Y175418D01*
X602004D01*
X602998Y175584D01*
X603952Y175911D01*
X604838Y176391D01*
X605634Y177010D01*
X606316Y177751D01*
X606868Y178595D01*
X607273Y179518D01*
X607520Y180495D01*
X607603Y181500D01*
X608103Y394500D02*
X608020Y395505D01*
X607773Y396482D01*
X607368Y397405D01*
X606816Y398249D01*
X606134Y398990D01*
X605338Y399609D01*
X604452Y400089D01*
X603498Y400417D01*
X602504Y400582D01*
X601496D01*
X600502Y400417D01*
X599548Y400089D01*
X598662Y399609D01*
X597866Y398990D01*
X597184Y398249D01*
X596632Y397405D01*
X596227Y396482D01*
X595980Y395505D01*
X595897Y394500D01*
X595980Y393495D01*
X596227Y392518D01*
X596632Y391595D01*
X597184Y390751D01*
X597866Y390010D01*
X598662Y389390D01*
X599548Y388911D01*
X600502Y388583D01*
X601496Y388418D01*
X602504D01*
X603498Y388583D01*
X604452Y388911D01*
X605338Y389390D01*
X606134Y390010D01*
X606816Y390751D01*
X607368Y391595D01*
X607773Y392518D01*
X608020Y393495D01*
X608103Y394500D01*
X609103Y607000D02*
X609020Y608005D01*
X608773Y608982D01*
X608368Y609905D01*
X607816Y610749D01*
X607134Y611490D01*
X606338Y612110D01*
X605452Y612589D01*
X604498Y612917D01*
X603504Y613082D01*
X602496D01*
X601502Y612917D01*
X600548Y612589D01*
X599662Y612110D01*
X598866Y611490D01*
X598184Y610749D01*
X597632Y609905D01*
X597227Y608982D01*
X596980Y608005D01*
X596897Y607000D01*
X596980Y605995D01*
X597227Y605018D01*
X597632Y604095D01*
X598184Y603251D01*
X598866Y602510D01*
X599662Y601891D01*
X600548Y601411D01*
X601502Y601084D01*
X602496Y600918D01*
X603504D01*
X604498Y601084D01*
X605452Y601411D01*
X606338Y601891D01*
X607134Y602510D01*
X607816Y603251D01*
X608368Y604095D01*
X608773Y605018D01*
X609020Y605995D01*
X609103Y607000D01*
X609053Y820675D02*
X608970Y821680D01*
X608723Y822657D01*
X608318Y823580D01*
X607766Y824424D01*
X607084Y825165D01*
X606288Y825784D01*
X605402Y826264D01*
X604448Y826591D01*
X603454Y826757D01*
X602446D01*
X601452Y826591D01*
X600498Y826264D01*
X599612Y825784D01*
X598816Y825165D01*
X598134Y824424D01*
X597582Y823580D01*
X597177Y822657D01*
X596930Y821680D01*
X596847Y820675D01*
X596930Y819670D01*
X597177Y818693D01*
X597582Y817770D01*
X598134Y816926D01*
X598816Y816185D01*
X599612Y815565D01*
X600498Y815086D01*
X601452Y814758D01*
X602446Y814593D01*
X603454D01*
X604448Y814758D01*
X605402Y815086D01*
X606288Y815565D01*
X607084Y816185D01*
X607766Y816926D01*
X608318Y817770D01*
X608723Y818693D01*
X608970Y819670D01*
X609053Y820675D01*
X654103Y198000D02*
X654020Y199005D01*
X653773Y199982D01*
X653368Y200905D01*
X652816Y201749D01*
X652134Y202490D01*
X651338Y203110D01*
X650452Y203589D01*
X649498Y203917D01*
X648504Y204082D01*
X647496D01*
X646502Y203917D01*
X645548Y203589D01*
X644662Y203110D01*
X643866Y202490D01*
X643184Y201749D01*
X642632Y200905D01*
X642227Y199982D01*
X641980Y199005D01*
X641897Y198000D01*
X641980Y196995D01*
X642227Y196018D01*
X642632Y195095D01*
X643184Y194251D01*
X643866Y193510D01*
X644662Y192891D01*
X645548Y192411D01*
X646502Y192084D01*
X647496Y191918D01*
X648504D01*
X649498Y192084D01*
X650452Y192411D01*
X651338Y192891D01*
X652134Y193510D01*
X652816Y194251D01*
X653368Y195095D01*
X653773Y196018D01*
X654020Y196995D01*
X654103Y198000D01*
X654603Y411000D02*
X654520Y412005D01*
X654273Y412982D01*
X653868Y413905D01*
X653316Y414749D01*
X652634Y415490D01*
X651838Y416110D01*
X650952Y416589D01*
X649998Y416917D01*
X649004Y417082D01*
X647996D01*
X647002Y416917D01*
X646048Y416589D01*
X645162Y416110D01*
X644366Y415490D01*
X643684Y414749D01*
X643132Y413905D01*
X642727Y412982D01*
X642480Y412005D01*
X642397Y411000D01*
X642480Y409995D01*
X642727Y409018D01*
X643132Y408095D01*
X643684Y407251D01*
X644366Y406510D01*
X645162Y405891D01*
X646048Y405411D01*
X647002Y405084D01*
X647996Y404918D01*
X649004D01*
X649998Y405084D01*
X650952Y405411D01*
X651838Y405891D01*
X652634Y406510D01*
X653316Y407251D01*
X653868Y408095D01*
X654273Y409018D01*
X654520Y409995D01*
X654603Y411000D01*
X655603Y623500D02*
X655520Y624505D01*
X655273Y625482D01*
X654868Y626405D01*
X654316Y627249D01*
X653634Y627990D01*
X652838Y628610D01*
X651952Y629089D01*
X650998Y629417D01*
X650004Y629582D01*
X648996D01*
X648002Y629417D01*
X647048Y629089D01*
X646162Y628610D01*
X645366Y627990D01*
X644684Y627249D01*
X644132Y626405D01*
X643727Y625482D01*
X643480Y624505D01*
X643397Y623500D01*
X643480Y622495D01*
X643727Y621518D01*
X644132Y620595D01*
X644684Y619751D01*
X645366Y619010D01*
X646162Y618391D01*
X647048Y617911D01*
X648002Y617584D01*
X648996Y617418D01*
X650004D01*
X650998Y617584D01*
X651952Y617911D01*
X652838Y618391D01*
X653634Y619010D01*
X654316Y619751D01*
X654868Y620595D01*
X655273Y621518D01*
X655520Y622495D01*
X655603Y623500D01*
X655553Y837175D02*
X655470Y838180D01*
X655223Y839157D01*
X654818Y840080D01*
X654266Y840924D01*
X653584Y841665D01*
X652788Y842284D01*
X651902Y842764D01*
X650948Y843091D01*
X649954Y843257D01*
X648946D01*
X647952Y843091D01*
X646998Y842764D01*
X646112Y842284D01*
X645316Y841665D01*
X644634Y840924D01*
X644082Y840080D01*
X643677Y839157D01*
X643430Y838180D01*
X643347Y837175D01*
X643430Y836170D01*
X643677Y835193D01*
X644082Y834270D01*
X644634Y833426D01*
X645316Y832685D01*
X646112Y832065D01*
X646998Y831586D01*
X647952Y831258D01*
X648946Y831093D01*
X649954D01*
X650948Y831258D01*
X651902Y831586D01*
X652788Y832065D01*
X653584Y832685D01*
X654266Y833426D01*
X654818Y834270D01*
X655223Y835193D01*
X655470Y836170D01*
X655553Y837175D01*
X608103Y153500D02*
X608020Y154505D01*
X607773Y155482D01*
X607368Y156405D01*
X606816Y157249D01*
X606134Y157990D01*
X605338Y158609D01*
X604452Y159089D01*
X603498Y159416D01*
X602504Y159582D01*
X601496D01*
X600502Y159416D01*
X599548Y159089D01*
X598662Y158609D01*
X597866Y157990D01*
X597184Y157249D01*
X596632Y156405D01*
X596227Y155482D01*
X595980Y154505D01*
X595897Y153500D01*
X595980Y152495D01*
X596227Y151518D01*
X596632Y150595D01*
X597184Y149751D01*
X597866Y149010D01*
X598662Y148390D01*
X599548Y147911D01*
X600502Y147583D01*
X601496Y147418D01*
X602504D01*
X603498Y147583D01*
X604452Y147911D01*
X605338Y148390D01*
X606134Y149010D01*
X606816Y149751D01*
X607368Y150595D01*
X607773Y151518D01*
X608020Y152495D01*
X608103Y153500D01*
X608603Y366500D02*
X608520Y367505D01*
X608273Y368482D01*
X607868Y369405D01*
X607316Y370249D01*
X606634Y370990D01*
X605838Y371609D01*
X604952Y372089D01*
X603998Y372416D01*
X603004Y372582D01*
X601996D01*
X601002Y372416D01*
X600048Y372089D01*
X599162Y371609D01*
X598366Y370990D01*
X597684Y370249D01*
X597132Y369405D01*
X596727Y368482D01*
X596480Y367505D01*
X596397Y366500D01*
X596480Y365495D01*
X596727Y364518D01*
X597132Y363595D01*
X597684Y362751D01*
X598366Y362010D01*
X599162Y361390D01*
X600048Y360911D01*
X601002Y360583D01*
X601996Y360418D01*
X603004D01*
X603998Y360583D01*
X604952Y360911D01*
X605838Y361390D01*
X606634Y362010D01*
X607316Y362751D01*
X607868Y363595D01*
X608273Y364518D01*
X608520Y365495D01*
X608603Y366500D01*
X609603Y579000D02*
X609520Y580005D01*
X609273Y580982D01*
X608868Y581905D01*
X608316Y582749D01*
X607634Y583490D01*
X606838Y584109D01*
X605952Y584589D01*
X604998Y584916D01*
X604004Y585082D01*
X602996D01*
X602002Y584916D01*
X601048Y584589D01*
X600162Y584109D01*
X599366Y583490D01*
X598684Y582749D01*
X598132Y581905D01*
X597727Y580982D01*
X597480Y580005D01*
X597397Y579000D01*
X597480Y577995D01*
X597727Y577018D01*
X598132Y576095D01*
X598684Y575251D01*
X599366Y574510D01*
X600162Y573890D01*
X601048Y573411D01*
X602002Y573083D01*
X602996Y572918D01*
X604004D01*
X604998Y573083D01*
X605952Y573411D01*
X606838Y573890D01*
X607634Y574510D01*
X608316Y575251D01*
X608868Y576095D01*
X609273Y577018D01*
X609520Y577995D01*
X609603Y579000D01*
X609553Y792675D02*
X609470Y793680D01*
X609223Y794657D01*
X608818Y795580D01*
X608266Y796424D01*
X607584Y797165D01*
X606788Y797785D01*
X605902Y798264D01*
X604948Y798592D01*
X603954Y798757D01*
X602946D01*
X601952Y798592D01*
X600998Y798264D01*
X600112Y797785D01*
X599316Y797165D01*
X598634Y796424D01*
X598082Y795580D01*
X597677Y794657D01*
X597430Y793680D01*
X597347Y792675D01*
X597430Y791670D01*
X597677Y790693D01*
X598082Y789770D01*
X598634Y788926D01*
X599316Y788185D01*
X600112Y787566D01*
X600998Y787086D01*
X601952Y786759D01*
X602946Y786593D01*
X603954D01*
X604948Y786759D01*
X605902Y787086D01*
X606788Y787566D01*
X607584Y788185D01*
X608266Y788926D01*
X608818Y789770D01*
X609223Y790693D01*
X609470Y791670D01*
X609553Y792675D01*
X440603Y139000D02*
X440520Y140005D01*
X440273Y140982D01*
X439868Y141905D01*
X439316Y142749D01*
X438634Y143490D01*
X437838Y144109D01*
X436952Y144589D01*
X435998Y144916D01*
X435004Y145082D01*
X433996D01*
X433002Y144916D01*
X432048Y144589D01*
X431162Y144109D01*
X430366Y143490D01*
X429684Y142749D01*
X429132Y141905D01*
X428727Y140982D01*
X428480Y140005D01*
X428397Y139000D01*
X428480Y137995D01*
X428727Y137018D01*
X429132Y136095D01*
X429684Y135251D01*
X430366Y134510D01*
X431162Y133890D01*
X432048Y133411D01*
X433002Y133083D01*
X433996Y132918D01*
X435004D01*
X435998Y133083D01*
X436952Y133411D01*
X437838Y133890D01*
X438634Y134510D01*
X439316Y135251D01*
X439868Y136095D01*
X440273Y137018D01*
X440520Y137995D01*
X440603Y139000D01*
X441103Y352000D02*
X441020Y353005D01*
X440773Y353982D01*
X440368Y354905D01*
X439816Y355749D01*
X439134Y356490D01*
X438338Y357109D01*
X437452Y357589D01*
X436498Y357916D01*
X435504Y358082D01*
X434496D01*
X433502Y357916D01*
X432548Y357589D01*
X431662Y357109D01*
X430866Y356490D01*
X430184Y355749D01*
X429632Y354905D01*
X429227Y353982D01*
X428980Y353005D01*
X428897Y352000D01*
X428980Y350995D01*
X429227Y350018D01*
X429632Y349095D01*
X430184Y348251D01*
X430866Y347510D01*
X431662Y346890D01*
X432548Y346411D01*
X433502Y346083D01*
X434496Y345918D01*
X435504D01*
X436498Y346083D01*
X437452Y346411D01*
X438338Y346890D01*
X439134Y347510D01*
X439816Y348251D01*
X440368Y349095D01*
X440773Y350018D01*
X441020Y350995D01*
X441103Y352000D01*
X442103Y564500D02*
X442020Y565505D01*
X441773Y566482D01*
X441368Y567405D01*
X440816Y568249D01*
X440134Y568990D01*
X439338Y569609D01*
X438452Y570089D01*
X437498Y570416D01*
X436504Y570582D01*
X435496D01*
X434502Y570416D01*
X433548Y570089D01*
X432662Y569609D01*
X431866Y568990D01*
X431184Y568249D01*
X430632Y567405D01*
X430227Y566482D01*
X429980Y565505D01*
X429897Y564500D01*
X429980Y563495D01*
X430227Y562518D01*
X430632Y561595D01*
X431184Y560751D01*
X431866Y560010D01*
X432662Y559390D01*
X433548Y558911D01*
X434502Y558583D01*
X435496Y558418D01*
X436504D01*
X437498Y558583D01*
X438452Y558911D01*
X439338Y559390D01*
X440134Y560010D01*
X440816Y560751D01*
X441368Y561595D01*
X441773Y562518D01*
X442020Y563495D01*
X442103Y564500D01*
X442053Y778175D02*
X441970Y779180D01*
X441723Y780157D01*
X441318Y781080D01*
X440766Y781924D01*
X440084Y782665D01*
X439288Y783285D01*
X438402Y783764D01*
X437448Y784092D01*
X436454Y784257D01*
X435446D01*
X434452Y784092D01*
X433498Y783764D01*
X432612Y783285D01*
X431816Y782665D01*
X431134Y781924D01*
X430582Y781080D01*
X430177Y780157D01*
X429930Y779180D01*
X429847Y778175D01*
X429930Y777170D01*
X430177Y776193D01*
X430582Y775270D01*
X431134Y774426D01*
X431816Y773685D01*
X432612Y773066D01*
X433498Y772586D01*
X434452Y772259D01*
X435446Y772093D01*
X436454D01*
X437448Y772259D01*
X438402Y772586D01*
X439288Y773066D01*
X440084Y773685D01*
X440766Y774426D01*
X441318Y775270D01*
X441723Y776193D01*
X441970Y777170D01*
X442053Y778175D01*
X653603Y129000D02*
X653520Y130005D01*
X653273Y130982D01*
X652868Y131905D01*
X652316Y132749D01*
X651634Y133490D01*
X650838Y134109D01*
X649952Y134589D01*
X648998Y134916D01*
X648004Y135082D01*
X646996D01*
X646002Y134916D01*
X645048Y134589D01*
X644162Y134109D01*
X643366Y133490D01*
X642684Y132749D01*
X642132Y131905D01*
X641727Y130982D01*
X641480Y130005D01*
X641397Y129000D01*
X641480Y127995D01*
X641727Y127018D01*
X642132Y126095D01*
X642684Y125251D01*
X643366Y124510D01*
X644162Y123890D01*
X645048Y123411D01*
X646002Y123083D01*
X646996Y122918D01*
X648004D01*
X648998Y123083D01*
X649952Y123411D01*
X650838Y123890D01*
X651634Y124510D01*
X652316Y125251D01*
X652868Y126095D01*
X653273Y127018D01*
X653520Y127995D01*
X653603Y129000D01*
X654103Y342000D02*
X654020Y343005D01*
X653773Y343982D01*
X653368Y344905D01*
X652816Y345749D01*
X652134Y346490D01*
X651338Y347110D01*
X650452Y347589D01*
X649498Y347917D01*
X648504Y348082D01*
X647496D01*
X646502Y347917D01*
X645548Y347589D01*
X644662Y347110D01*
X643866Y346490D01*
X643184Y345749D01*
X642632Y344905D01*
X642227Y343982D01*
X641980Y343005D01*
X641897Y342000D01*
X641980Y340995D01*
X642227Y340018D01*
X642632Y339095D01*
X643184Y338251D01*
X643866Y337510D01*
X644662Y336891D01*
X645548Y336411D01*
X646502Y336084D01*
X647496Y335918D01*
X648504D01*
X649498Y336084D01*
X650452Y336411D01*
X651338Y336891D01*
X652134Y337510D01*
X652816Y338251D01*
X653368Y339095D01*
X653773Y340018D01*
X654020Y340995D01*
X654103Y342000D01*
X655103Y554500D02*
X655020Y555505D01*
X654773Y556482D01*
X654368Y557405D01*
X653816Y558249D01*
X653134Y558990D01*
X652338Y559610D01*
X651452Y560089D01*
X650498Y560417D01*
X649504Y560582D01*
X648496D01*
X647502Y560417D01*
X646548Y560089D01*
X645662Y559610D01*
X644866Y558990D01*
X644184Y558249D01*
X643632Y557405D01*
X643227Y556482D01*
X642980Y555505D01*
X642897Y554500D01*
X642980Y553495D01*
X643227Y552518D01*
X643632Y551595D01*
X644184Y550751D01*
X644866Y550010D01*
X645662Y549391D01*
X646548Y548911D01*
X647502Y548584D01*
X648496Y548418D01*
X649504D01*
X650498Y548584D01*
X651452Y548911D01*
X652338Y549391D01*
X653134Y550010D01*
X653816Y550751D01*
X654368Y551595D01*
X654773Y552518D01*
X655020Y553495D01*
X655103Y554500D01*
X655053Y768175D02*
X654970Y769180D01*
X654723Y770157D01*
X654318Y771080D01*
X653766Y771924D01*
X653084Y772665D01*
X652288Y773284D01*
X651402Y773764D01*
X650448Y774091D01*
X649454Y774257D01*
X648446D01*
X647452Y774091D01*
X646498Y773764D01*
X645612Y773284D01*
X644816Y772665D01*
X644134Y771924D01*
X643582Y771080D01*
X643177Y770157D01*
X642930Y769180D01*
X642847Y768175D01*
X642930Y767170D01*
X643177Y766193D01*
X643582Y765270D01*
X644134Y764426D01*
X644816Y763685D01*
X645612Y763065D01*
X646498Y762586D01*
X647452Y762258D01*
X648446Y762093D01*
X649454D01*
X650448Y762258D01*
X651402Y762586D01*
X652288Y763065D01*
X653084Y763685D01*
X653766Y764426D01*
X654318Y765270D01*
X654723Y766193D01*
X654970Y767170D01*
X655053Y768175D01*
X438603Y279000D02*
X438520Y280005D01*
X438273Y280982D01*
X437868Y281905D01*
X437316Y282749D01*
X436634Y283490D01*
X435838Y284109D01*
X434952Y284589D01*
X433998Y284916D01*
X433004Y285082D01*
X431996D01*
X431002Y284916D01*
X430048Y284589D01*
X429162Y284109D01*
X428366Y283490D01*
X427684Y282749D01*
X427132Y281905D01*
X426727Y280982D01*
X426480Y280005D01*
X426397Y279000D01*
X426480Y277995D01*
X426727Y277018D01*
X427132Y276095D01*
X427684Y275251D01*
X428366Y274510D01*
X429162Y273890D01*
X430048Y273411D01*
X431002Y273083D01*
X431996Y272918D01*
X433004D01*
X433998Y273083D01*
X434952Y273411D01*
X435838Y273890D01*
X436634Y274510D01*
X437316Y275251D01*
X437868Y276095D01*
X438273Y277018D01*
X438520Y277995D01*
X438603Y279000D01*
X439103Y492000D02*
X439020Y493005D01*
X438773Y493982D01*
X438368Y494905D01*
X437816Y495749D01*
X437134Y496490D01*
X436338Y497110D01*
X435452Y497589D01*
X434498Y497917D01*
X433504Y498082D01*
X432496D01*
X431502Y497917D01*
X430548Y497589D01*
X429662Y497110D01*
X428866Y496490D01*
X428184Y495749D01*
X427632Y494905D01*
X427227Y493982D01*
X426980Y493005D01*
X426897Y492000D01*
X426980Y490995D01*
X427227Y490018D01*
X427632Y489095D01*
X428184Y488251D01*
X428866Y487510D01*
X429662Y486891D01*
X430548Y486411D01*
X431502Y486084D01*
X432496Y485918D01*
X433504D01*
X434498Y486084D01*
X435452Y486411D01*
X436338Y486891D01*
X437134Y487510D01*
X437816Y488251D01*
X438368Y489095D01*
X438773Y490018D01*
X439020Y490995D01*
X439103Y492000D01*
X440103Y704500D02*
X440020Y705505D01*
X439773Y706482D01*
X439368Y707405D01*
X438816Y708249D01*
X438134Y708990D01*
X437338Y709610D01*
X436452Y710089D01*
X435498Y710417D01*
X434504Y710582D01*
X433496D01*
X432502Y710417D01*
X431548Y710089D01*
X430662Y709610D01*
X429866Y708990D01*
X429184Y708249D01*
X428632Y707405D01*
X428227Y706482D01*
X427980Y705505D01*
X427897Y704500D01*
X427980Y703495D01*
X428227Y702518D01*
X428632Y701595D01*
X429184Y700751D01*
X429866Y700010D01*
X430662Y699391D01*
X431548Y698911D01*
X432502Y698584D01*
X433496Y698418D01*
X434504D01*
X435498Y698584D01*
X436452Y698911D01*
X437338Y699391D01*
X438134Y700010D01*
X438816Y700751D01*
X439368Y701595D01*
X439773Y702518D01*
X440020Y703495D01*
X440103Y704500D01*
X440053Y918175D02*
X439970Y919180D01*
X439723Y920157D01*
X439318Y921080D01*
X438766Y921924D01*
X438084Y922665D01*
X437288Y923285D01*
X436402Y923764D01*
X435448Y924092D01*
X434454Y924257D01*
X433446D01*
X432452Y924092D01*
X431498Y923764D01*
X430612Y923285D01*
X429816Y922665D01*
X429134Y921924D01*
X428582Y921080D01*
X428177Y920157D01*
X427930Y919180D01*
X427847Y918175D01*
X427930Y917170D01*
X428177Y916193D01*
X428582Y915270D01*
X429134Y914426D01*
X429816Y913685D01*
X430612Y913066D01*
X431498Y912586D01*
X432452Y912259D01*
X433446Y912093D01*
X434454D01*
X435448Y912259D01*
X436402Y912586D01*
X437288Y913066D01*
X438084Y913685D01*
X438766Y914426D01*
X439318Y915270D01*
X439723Y916193D01*
X439970Y917170D01*
X440053Y918175D01*
X609103Y268000D02*
X609020Y269005D01*
X608773Y269982D01*
X608368Y270905D01*
X607816Y271749D01*
X607134Y272490D01*
X606338Y273110D01*
X605452Y273589D01*
X604498Y273917D01*
X603504Y274082D01*
X602496D01*
X601502Y273917D01*
X600548Y273589D01*
X599662Y273110D01*
X598866Y272490D01*
X598184Y271749D01*
X597632Y270905D01*
X597227Y269982D01*
X596980Y269005D01*
X596897Y268000D01*
X596980Y266995D01*
X597227Y266018D01*
X597632Y265095D01*
X598184Y264251D01*
X598866Y263510D01*
X599662Y262891D01*
X600548Y262411D01*
X601502Y262084D01*
X602496Y261918D01*
X603504D01*
X604498Y262084D01*
X605452Y262411D01*
X606338Y262891D01*
X607134Y263510D01*
X607816Y264251D01*
X608368Y265095D01*
X608773Y266018D01*
X609020Y266995D01*
X609103Y268000D01*
X609603Y481000D02*
X609520Y482005D01*
X609273Y482982D01*
X608868Y483905D01*
X608316Y484749D01*
X607634Y485490D01*
X606838Y486109D01*
X605952Y486589D01*
X604998Y486916D01*
X604004Y487082D01*
X602996D01*
X602002Y486916D01*
X601048Y486589D01*
X600162Y486109D01*
X599366Y485490D01*
X598684Y484749D01*
X598132Y483905D01*
X597727Y482982D01*
X597480Y482005D01*
X597397Y481000D01*
X597480Y479995D01*
X597727Y479018D01*
X598132Y478095D01*
X598684Y477251D01*
X599366Y476510D01*
X600162Y475890D01*
X601048Y475411D01*
X602002Y475083D01*
X602996Y474918D01*
X604004D01*
X604998Y475083D01*
X605952Y475411D01*
X606838Y475890D01*
X607634Y476510D01*
X608316Y477251D01*
X608868Y478095D01*
X609273Y479018D01*
X609520Y479995D01*
X609603Y481000D01*
X610603Y693500D02*
X610520Y694505D01*
X610273Y695482D01*
X609868Y696405D01*
X609316Y697249D01*
X608634Y697990D01*
X607838Y698609D01*
X606952Y699089D01*
X605998Y699416D01*
X605004Y699582D01*
X603996D01*
X603002Y699416D01*
X602048Y699089D01*
X601162Y698609D01*
X600366Y697990D01*
X599684Y697249D01*
X599132Y696405D01*
X598727Y695482D01*
X598480Y694505D01*
X598397Y693500D01*
X598480Y692495D01*
X598727Y691518D01*
X599132Y690595D01*
X599684Y689751D01*
X600366Y689010D01*
X601162Y688390D01*
X602048Y687911D01*
X603002Y687583D01*
X603996Y687418D01*
X605004D01*
X605998Y687583D01*
X606952Y687911D01*
X607838Y688390D01*
X608634Y689010D01*
X609316Y689751D01*
X609868Y690595D01*
X610273Y691518D01*
X610520Y692495D01*
X610603Y693500D01*
X610553Y907175D02*
X610470Y908180D01*
X610223Y909157D01*
X609818Y910080D01*
X609266Y910924D01*
X608584Y911665D01*
X607788Y912284D01*
X606902Y912764D01*
X605948Y913091D01*
X604954Y913257D01*
X603946D01*
X602952Y913091D01*
X601998Y912764D01*
X601112Y912284D01*
X600316Y911665D01*
X599634Y910924D01*
X599082Y910080D01*
X598677Y909157D01*
X598430Y908180D01*
X598347Y907175D01*
X598430Y906170D01*
X598677Y905193D01*
X599082Y904270D01*
X599634Y903426D01*
X600316Y902685D01*
X601112Y902065D01*
X601998Y901586D01*
X602952Y901258D01*
X603946Y901093D01*
X604954D01*
X605948Y901258D01*
X606902Y901586D01*
X607788Y902065D01*
X608584Y902685D01*
X609266Y903426D01*
X609818Y904270D01*
X610223Y905193D01*
X610470Y906170D01*
X610553Y907175D01*
X438603Y247500D02*
X438520Y248505D01*
X438273Y249482D01*
X437868Y250405D01*
X437316Y251249D01*
X436634Y251990D01*
X435838Y252609D01*
X434952Y253089D01*
X433998Y253416D01*
X433004Y253582D01*
X431996D01*
X431002Y253416D01*
X430048Y253089D01*
X429162Y252609D01*
X428366Y251990D01*
X427684Y251249D01*
X427132Y250405D01*
X426727Y249482D01*
X426480Y248505D01*
X426397Y247500D01*
X426480Y246495D01*
X426727Y245518D01*
X427132Y244595D01*
X427684Y243751D01*
X428366Y243010D01*
X429162Y242390D01*
X430048Y241911D01*
X431002Y241583D01*
X431996Y241418D01*
X433004D01*
X433998Y241583D01*
X434952Y241911D01*
X435838Y242390D01*
X436634Y243010D01*
X437316Y243751D01*
X437868Y244595D01*
X438273Y245518D01*
X438520Y246495D01*
X438603Y247500D01*
X439103Y460500D02*
X439020Y461505D01*
X438773Y462482D01*
X438368Y463405D01*
X437816Y464249D01*
X437134Y464990D01*
X436338Y465610D01*
X435452Y466089D01*
X434498Y466417D01*
X433504Y466582D01*
X432496D01*
X431502Y466417D01*
X430548Y466089D01*
X429662Y465610D01*
X428866Y464990D01*
X428184Y464249D01*
X427632Y463405D01*
X427227Y462482D01*
X426980Y461505D01*
X426897Y460500D01*
X426980Y459495D01*
X427227Y458518D01*
X427632Y457595D01*
X428184Y456751D01*
X428866Y456010D01*
X429662Y455391D01*
X430548Y454911D01*
X431502Y454584D01*
X432496Y454418D01*
X433504D01*
X434498Y454584D01*
X435452Y454911D01*
X436338Y455391D01*
X437134Y456010D01*
X437816Y456751D01*
X438368Y457595D01*
X438773Y458518D01*
X439020Y459495D01*
X439103Y460500D01*
X440103Y673000D02*
X440020Y674005D01*
X439773Y674982D01*
X439368Y675905D01*
X438816Y676749D01*
X438134Y677490D01*
X437338Y678110D01*
X436452Y678589D01*
X435498Y678917D01*
X434504Y679082D01*
X433496D01*
X432502Y678917D01*
X431548Y678589D01*
X430662Y678110D01*
X429866Y677490D01*
X429184Y676749D01*
X428632Y675905D01*
X428227Y674982D01*
X427980Y674005D01*
X427897Y673000D01*
X427980Y671995D01*
X428227Y671018D01*
X428632Y670095D01*
X429184Y669251D01*
X429866Y668510D01*
X430662Y667891D01*
X431548Y667411D01*
X432502Y667084D01*
X433496Y666918D01*
X434504D01*
X435498Y667084D01*
X436452Y667411D01*
X437338Y667891D01*
X438134Y668510D01*
X438816Y669251D01*
X439368Y670095D01*
X439773Y671018D01*
X440020Y671995D01*
X440103Y673000D01*
X440053Y886675D02*
X439970Y887680D01*
X439723Y888657D01*
X439318Y889580D01*
X438766Y890424D01*
X438084Y891165D01*
X437288Y891784D01*
X436402Y892264D01*
X435448Y892591D01*
X434454Y892757D01*
X433446D01*
X432452Y892591D01*
X431498Y892264D01*
X430612Y891784D01*
X429816Y891165D01*
X429134Y890424D01*
X428582Y889580D01*
X428177Y888657D01*
X427930Y887680D01*
X427847Y886675D01*
X427930Y885670D01*
X428177Y884693D01*
X428582Y883770D01*
X429134Y882926D01*
X429816Y882185D01*
X430612Y881565D01*
X431498Y881086D01*
X432452Y880758D01*
X433446Y880593D01*
X434454D01*
X435448Y880758D01*
X436402Y881086D01*
X437288Y881565D01*
X438084Y882185D01*
X438766Y882926D01*
X439318Y883770D01*
X439723Y884693D01*
X439970Y885670D01*
X440053Y886675D01*
X652103Y267500D02*
X652020Y268505D01*
X651773Y269482D01*
X651368Y270405D01*
X650816Y271249D01*
X650134Y271990D01*
X649338Y272609D01*
X648452Y273089D01*
X647498Y273416D01*
X646504Y273582D01*
X645496D01*
X644502Y273416D01*
X643548Y273089D01*
X642662Y272609D01*
X641866Y271990D01*
X641184Y271249D01*
X640632Y270405D01*
X640227Y269482D01*
X639980Y268505D01*
X639897Y267500D01*
X639980Y266495D01*
X640227Y265518D01*
X640632Y264595D01*
X641184Y263751D01*
X641866Y263010D01*
X642662Y262390D01*
X643548Y261911D01*
X644502Y261583D01*
X645496Y261418D01*
X646504D01*
X647498Y261583D01*
X648452Y261911D01*
X649338Y262390D01*
X650134Y263010D01*
X650816Y263751D01*
X651368Y264595D01*
X651773Y265518D01*
X652020Y266495D01*
X652103Y267500D01*
X652603Y480500D02*
X652520Y481505D01*
X652273Y482482D01*
X651868Y483405D01*
X651316Y484249D01*
X650634Y484990D01*
X649838Y485609D01*
X648952Y486089D01*
X647998Y486416D01*
X647004Y486582D01*
X645996D01*
X645002Y486416D01*
X644048Y486089D01*
X643162Y485609D01*
X642366Y484990D01*
X641684Y484249D01*
X641132Y483405D01*
X640727Y482482D01*
X640480Y481505D01*
X640397Y480500D01*
X640480Y479495D01*
X640727Y478518D01*
X641132Y477595D01*
X641684Y476751D01*
X642366Y476010D01*
X643162Y475390D01*
X644048Y474911D01*
X645002Y474583D01*
X645996Y474418D01*
X647004D01*
X647998Y474583D01*
X648952Y474911D01*
X649838Y475390D01*
X650634Y476010D01*
X651316Y476751D01*
X651868Y477595D01*
X652273Y478518D01*
X652520Y479495D01*
X652603Y480500D01*
X653603Y693000D02*
X653520Y694005D01*
X653273Y694982D01*
X652868Y695905D01*
X652316Y696749D01*
X651634Y697490D01*
X650838Y698109D01*
X649952Y698589D01*
X648998Y698916D01*
X648004Y699082D01*
X646996D01*
X646002Y698916D01*
X645048Y698589D01*
X644162Y698109D01*
X643366Y697490D01*
X642684Y696749D01*
X642132Y695905D01*
X641727Y694982D01*
X641480Y694005D01*
X641397Y693000D01*
X641480Y691995D01*
X641727Y691018D01*
X642132Y690095D01*
X642684Y689251D01*
X643366Y688510D01*
X644162Y687890D01*
X645048Y687411D01*
X646002Y687083D01*
X646996Y686918D01*
X648004D01*
X648998Y687083D01*
X649952Y687411D01*
X650838Y687890D01*
X651634Y688510D01*
X652316Y689251D01*
X652868Y690095D01*
X653273Y691018D01*
X653520Y691995D01*
X653603Y693000D01*
X653553Y906675D02*
X653470Y907680D01*
X653223Y908657D01*
X652818Y909580D01*
X652266Y910424D01*
X651584Y911165D01*
X650788Y911784D01*
X649902Y912264D01*
X648948Y912591D01*
X647954Y912757D01*
X646946D01*
X645952Y912591D01*
X644998Y912264D01*
X644112Y911784D01*
X643316Y911165D01*
X642634Y910424D01*
X642082Y909580D01*
X641677Y908657D01*
X641430Y907680D01*
X641347Y906675D01*
X641430Y905670D01*
X641677Y904693D01*
X642082Y903770D01*
X642634Y902926D01*
X643316Y902185D01*
X644112Y901565D01*
X644998Y901086D01*
X645952Y900758D01*
X646946Y900593D01*
X647954D01*
X648948Y900758D01*
X649902Y901086D01*
X650788Y901565D01*
X651584Y902185D01*
X652266Y902926D01*
X652818Y903770D01*
X653223Y904693D01*
X653470Y905670D01*
X653553Y906675D01*
X280103Y752000D02*
X280020Y753005D01*
X279773Y753982D01*
X279368Y754905D01*
X278816Y755749D01*
X278134Y756490D01*
X277338Y757109D01*
X276452Y757589D01*
X275498Y757916D01*
X274504Y758082D01*
X273496D01*
X272502Y757916D01*
X271548Y757589D01*
X270662Y757109D01*
X269866Y756490D01*
X269184Y755749D01*
X268632Y754905D01*
X268227Y753982D01*
X267980Y753005D01*
X267897Y752000D01*
X267980Y750995D01*
X268227Y750018D01*
X268632Y749095D01*
X269184Y748251D01*
X269866Y747510D01*
X270662Y746890D01*
X271548Y746411D01*
X272502Y746083D01*
X273496Y745918D01*
X274504D01*
X275498Y746083D01*
X276452Y746411D01*
X277338Y746890D01*
X278134Y747510D01*
X278816Y748251D01*
X279368Y749095D01*
X279773Y750018D01*
X280020Y750995D01*
X280103Y752000D01*
X298103D02*
X298020Y753005D01*
X297773Y753982D01*
X297368Y754905D01*
X296816Y755749D01*
X296134Y756490D01*
X295338Y757109D01*
X294452Y757589D01*
X293498Y757916D01*
X292504Y758082D01*
X291496D01*
X290502Y757916D01*
X289548Y757589D01*
X288662Y757109D01*
X287866Y756490D01*
X287184Y755749D01*
X286632Y754905D01*
X286227Y753982D01*
X285980Y753005D01*
X285897Y752000D01*
X285980Y750995D01*
X286227Y750018D01*
X286632Y749095D01*
X287184Y748251D01*
X287866Y747510D01*
X288662Y746890D01*
X289548Y746411D01*
X290502Y746083D01*
X291496Y745918D01*
X292504D01*
X293498Y746083D01*
X294452Y746411D01*
X295338Y746890D01*
X296134Y747510D01*
X296816Y748251D01*
X297368Y749095D01*
X297773Y750018D01*
X298020Y750995D01*
X298103Y752000D01*
X207909Y551506D02*
X253787D01*
X207909Y490506D02*
Y551506D01*
Y490506D02*
X253787D01*
Y551506D01*
X654400Y179975D02*
X691500Y179871D01*
X691500Y179975D02*
Y216775D01*
X654510Y216879D02*
X691500Y216775D01*
X654400Y179975D02*
X654510Y216876D01*
X654900Y392975D02*
X692000Y392871D01*
X692000Y392975D02*
Y429775D01*
X655011Y429879D02*
X692000Y429775D01*
X654900Y392975D02*
X655011Y429876D01*
X655900Y605475D02*
X693000Y605371D01*
X693000Y605475D02*
Y642275D01*
X656010Y642379D02*
X693000Y642275D01*
X655900Y605475D02*
X656010Y642376D01*
X655850Y819150D02*
X692950Y819046D01*
X692950Y819150D02*
Y855950D01*
X655961Y856054D02*
X692950Y855950D01*
X655850Y819150D02*
X655961Y856051D01*
X654400Y110850D02*
X691500Y110746D01*
X691500Y110850D02*
Y147650D01*
X654510Y147754D02*
X691500Y147650D01*
X654400Y110850D02*
X654510Y147751D01*
X654900Y323850D02*
X692000Y323746D01*
X692000Y323850D02*
Y360650D01*
X655011Y360754D02*
X692000Y360650D01*
X654900Y323850D02*
X655011Y360751D01*
X655900Y536350D02*
X693000Y536246D01*
X693000Y536350D02*
Y573150D01*
X656010Y573254D02*
X693000Y573150D01*
X655900Y536350D02*
X656010Y573251D01*
X655850Y750025D02*
X692950Y749921D01*
X692950Y750025D02*
Y786825D01*
X655961Y786929D02*
X692950Y786825D01*
X655850Y750025D02*
X655961Y786926D01*
X654400Y249100D02*
X691500Y248996D01*
X691500Y249100D02*
Y285900D01*
X654510Y286004D02*
X691500Y285900D01*
X654400Y249100D02*
X654510Y286001D01*
X654900Y462100D02*
X692000Y461996D01*
X692000Y462100D02*
Y498900D01*
X655011Y499004D02*
X692000Y498900D01*
X654900Y462100D02*
X655011Y499001D01*
X655900Y674600D02*
X693000Y674496D01*
X693000Y674600D02*
Y711400D01*
X656010Y711504D02*
X693000Y711400D01*
X655900Y674600D02*
X656010Y711501D01*
X655850Y888275D02*
X692950Y888171D01*
X692950Y888275D02*
Y925075D01*
X655961Y925179D02*
X692950Y925075D01*
X655850Y888275D02*
X655961Y925176D01*
D14*
X290500Y769453D02*
X292000Y767953D01*
X290500Y766953D02*
X291000D01*
X290500D02*
Y767453D01*
Y780453D01*
X298500D01*
Y766953D02*
Y780453D01*
X291000Y766953D02*
X298500D01*
X292000Y767953D02*
X293000Y766953D01*
X217500Y765453D02*
X219000Y763953D01*
X217500Y762953D02*
X218000D01*
X217500D02*
Y763453D01*
Y776453D01*
X225500D01*
Y762953D02*
Y776453D01*
X218000Y762953D02*
X225500D01*
X219000Y763953D02*
X220000Y762953D01*
X569736Y180130D02*
Y183476D01*
X570130Y183870D01*
X578988D01*
Y180130D02*
Y183870D01*
X569736Y180130D02*
X578988D01*
X570236Y393130D02*
Y396476D01*
X570630Y396870D01*
X579488D01*
Y393130D02*
Y396870D01*
X570236Y393130D02*
X579488D01*
X571236Y605630D02*
Y608976D01*
X571630Y609370D01*
X580488D01*
Y605630D02*
Y609370D01*
X571236Y605630D02*
X580488D01*
X571186Y819305D02*
Y822651D01*
X571580Y823045D01*
X580438D01*
Y819305D02*
Y823045D01*
X571186Y819305D02*
X580438D01*
X522524Y159012D02*
X525870D01*
X522130Y159406D02*
X522524Y159012D01*
X522130Y159406D02*
Y168264D01*
X525870D01*
Y159012D02*
Y168264D01*
X523024Y372012D02*
X526370D01*
X522630Y372406D02*
X523024Y372012D01*
X522630Y372406D02*
Y381264D01*
X526370D01*
Y372012D02*
Y381264D01*
X524024Y584512D02*
X527370D01*
X523630Y584905D02*
X524024Y584512D01*
X523630Y584905D02*
Y593764D01*
X527370D01*
Y584512D02*
Y593764D01*
X523974Y798187D02*
X527320D01*
X523580Y798581D02*
X523974Y798187D01*
X523580Y798581D02*
Y807439D01*
X527320D01*
Y798187D02*
Y807439D01*
X533524Y159374D02*
X536870D01*
X533130Y159768D02*
X533524Y159374D01*
X533130Y159768D02*
Y168626D01*
X536870D01*
Y159374D02*
Y168626D01*
X534024Y372374D02*
X537370D01*
X533630Y372768D02*
X534024Y372374D01*
X533630Y372768D02*
Y381626D01*
X537370D01*
Y372374D02*
Y381626D01*
X535024Y584874D02*
X538370D01*
X534630Y585268D02*
X535024Y584874D01*
X534630Y585268D02*
Y594126D01*
X538370D01*
Y584874D02*
Y594126D01*
X534974Y798549D02*
X538320D01*
X534580Y798943D02*
X534974Y798549D01*
X534580Y798943D02*
Y807801D01*
X538320D01*
Y798549D02*
Y807801D01*
X474339Y154209D02*
Y167791D01*
X466661D02*
X474339D01*
X466661Y156177D02*
Y167791D01*
Y156177D02*
X468630Y154209D01*
X474339D01*
X474839Y367209D02*
Y380791D01*
X467161D02*
X474839D01*
X467161Y369177D02*
Y380791D01*
Y369177D02*
X469130Y367209D01*
X474839D01*
X475839Y579709D02*
Y593291D01*
X468161D02*
X475839D01*
X468161Y581677D02*
Y593291D01*
Y581677D02*
X470130Y579709D01*
X475839D01*
X475789Y793384D02*
Y806966D01*
X468111D02*
X475789D01*
X468111Y795352D02*
Y806966D01*
Y795352D02*
X470080Y793384D01*
X475789D01*
X582161Y133709D02*
Y147291D01*
Y133709D02*
X589839D01*
Y145323D01*
X587870Y147291D02*
X589839Y145323D01*
X582161Y147291D02*
X587870D01*
X582661Y346709D02*
Y360291D01*
Y346709D02*
X590339D01*
Y358323D01*
X588370Y360291D02*
X590339Y358323D01*
X582661Y360291D02*
X588370D01*
X583661Y559209D02*
Y572791D01*
Y559209D02*
X591339D01*
Y570823D01*
X589370Y572791D02*
X591339Y570823D01*
X583661Y572791D02*
X589370D01*
X583611Y772884D02*
Y786466D01*
Y772884D02*
X591289D01*
Y784498D01*
X589320Y786466D02*
X591289Y784498D01*
X583611Y786466D02*
X589320D01*
X570374Y140130D02*
Y143476D01*
X570768Y143870D01*
X579626D01*
Y140130D02*
Y143870D01*
X570374Y140130D02*
X579626D01*
X570874Y353130D02*
Y356476D01*
X571268Y356870D01*
X580126D01*
Y353130D02*
Y356870D01*
X570874Y353130D02*
X580126D01*
X571874Y565630D02*
Y568976D01*
X572268Y569370D01*
X581126D01*
Y565630D02*
Y569370D01*
X571874Y565630D02*
X581126D01*
X571824Y779305D02*
Y782651D01*
X572218Y783045D01*
X581076D01*
Y779305D02*
Y783045D01*
X571824Y779305D02*
X581076D01*
X549024Y295512D02*
X552370D01*
X548630Y295905D02*
X549024Y295512D01*
X548630Y295905D02*
Y304764D01*
X552370D01*
Y295512D02*
Y304764D01*
X549524Y508512D02*
X552870D01*
X549130Y508906D02*
X549524Y508512D01*
X549130Y508906D02*
Y517764D01*
X552870D01*
Y508512D02*
Y517764D01*
X550524Y721012D02*
X553870D01*
X550130Y721406D02*
X550524Y721012D01*
X550130Y721406D02*
Y730264D01*
X553870D01*
Y721012D02*
Y730264D01*
X550474Y934687D02*
X553820D01*
X550080Y935081D02*
X550474Y934687D01*
X550080Y935081D02*
Y943939D01*
X553820D01*
Y934687D02*
Y943939D01*
X529024Y261374D02*
X532370D01*
X528630Y261768D02*
X529024Y261374D01*
X528630Y261768D02*
Y270626D01*
X532370D01*
Y261374D02*
Y270626D01*
X529524Y474374D02*
X532870D01*
X529130Y474768D02*
X529524Y474374D01*
X529130Y474768D02*
Y483626D01*
X532870D01*
Y474374D02*
Y483626D01*
X530524Y686874D02*
X533870D01*
X530130Y687268D02*
X530524Y686874D01*
X530130Y687268D02*
Y696126D01*
X533870D01*
Y686874D02*
Y696126D01*
X530474Y900549D02*
X533820D01*
X530080Y900943D02*
X530474Y900549D01*
X530080Y900943D02*
Y909801D01*
X533820D01*
Y900549D02*
Y909801D01*
X518024Y261374D02*
X521370D01*
X517630Y261768D02*
X518024Y261374D01*
X517630Y261768D02*
Y270626D01*
X521370D01*
Y261374D02*
Y270626D01*
X518524Y474374D02*
X521870D01*
X518130Y474768D02*
X518524Y474374D01*
X518130Y474768D02*
Y483626D01*
X521870D01*
Y474374D02*
Y483626D01*
X519524Y686874D02*
X522870D01*
X519130Y687268D02*
X519524Y686874D01*
X519130Y687268D02*
Y696126D01*
X522870D01*
Y686874D02*
Y696126D01*
X519474Y900549D02*
X522820D01*
X519080Y900943D02*
X519474Y900549D01*
X519080Y900943D02*
Y909801D01*
X522820D01*
Y900549D02*
Y909801D01*
X477339Y256709D02*
Y270291D01*
X469661D02*
X477339D01*
X469661Y258677D02*
Y270291D01*
Y258677D02*
X471630Y256709D01*
X477339D01*
X477839Y469709D02*
Y483291D01*
X470161D02*
X477839D01*
X470161Y471677D02*
Y483291D01*
Y471677D02*
X472130Y469709D01*
X477839D01*
X478839Y682209D02*
Y695791D01*
X471161D02*
X478839D01*
X471161Y684177D02*
Y695791D01*
Y684177D02*
X473130Y682209D01*
X478839D01*
X478789Y895884D02*
Y909466D01*
X471111D02*
X478789D01*
X471111Y897852D02*
Y909466D01*
Y897852D02*
X473080Y895884D01*
X478789D01*
X573339Y274209D02*
Y287791D01*
X565661D02*
X573339D01*
X565661Y276177D02*
Y287791D01*
Y276177D02*
X567630Y274209D01*
X573339D01*
X573839Y487209D02*
Y500791D01*
X566161D02*
X573839D01*
X566161Y489177D02*
Y500791D01*
Y489177D02*
X568130Y487209D01*
X573839D01*
X574839Y699709D02*
Y713291D01*
X567161D02*
X574839D01*
X567161Y701677D02*
Y713291D01*
Y701677D02*
X569130Y699709D01*
X574839D01*
X574789Y913384D02*
Y926966D01*
X567111D02*
X574789D01*
X567111Y915352D02*
Y926966D01*
Y915352D02*
X569080Y913384D01*
X574789D01*
X584524Y253012D02*
X587870D01*
X584130Y253405D02*
X584524Y253012D01*
X584130Y253405D02*
Y262264D01*
X587870D01*
Y253012D02*
Y262264D01*
X585024Y466012D02*
X588370D01*
X584630Y466405D02*
X585024Y466012D01*
X584630Y466405D02*
Y475264D01*
X588370D01*
Y466012D02*
Y475264D01*
X586024Y678512D02*
X589370D01*
X585630Y678905D02*
X586024Y678512D01*
X585630Y678905D02*
Y687764D01*
X589370D01*
Y678512D02*
Y687764D01*
X585974Y892187D02*
X589320D01*
X585580Y892581D02*
X585974Y892187D01*
X585580Y892581D02*
Y901439D01*
X589320D01*
Y892187D02*
Y901439D01*
X361339Y679039D02*
Y692622D01*
X353661D02*
X361339D01*
X353661Y681008D02*
Y692622D01*
Y681008D02*
X355630Y679039D01*
X361339D01*
X375342Y625618D02*
X380067D01*
X380658Y625028D01*
Y615480D02*
Y625028D01*
X375342Y615480D02*
X380658D01*
X375342D02*
Y625618D01*
X310524Y746736D02*
X313870D01*
X310130Y747130D02*
X310524Y746736D01*
X310130Y747130D02*
Y755988D01*
X313870D01*
Y746736D02*
Y755988D01*
X315524Y746874D02*
X318870D01*
X315130Y747268D02*
X315524Y746874D01*
X315130Y747268D02*
Y756126D01*
X318870D01*
Y746874D02*
Y756126D01*
X345524Y747736D02*
X348870D01*
X345130Y748130D02*
X345524Y747736D01*
X345130Y748130D02*
Y756988D01*
X348870D01*
Y747736D02*
Y756988D01*
X340524Y747512D02*
X343870D01*
X340130Y747905D02*
X340524Y747512D01*
X340130Y747905D02*
Y756764D01*
X343870D01*
Y747512D02*
Y756764D01*
X224630Y756488D02*
X227976D01*
X228370Y756095D01*
Y747236D02*
Y756095D01*
X224630Y747236D02*
X228370D01*
X224630D02*
Y756488D01*
X261130Y756764D02*
X264476D01*
X264870Y756370D01*
Y747512D02*
Y756370D01*
X261130Y747512D02*
X264870D01*
X261130D02*
Y756764D01*
X255130D02*
X258476D01*
X258870Y756370D01*
Y747512D02*
Y756370D01*
X255130Y747512D02*
X258870D01*
X255130D02*
Y756764D01*
X231130Y756626D02*
X234476D01*
X234870Y756232D01*
Y747374D02*
Y756232D01*
X231130Y747374D02*
X234870D01*
X231130D02*
Y756626D01*
D17*
X235972Y784630D02*
X245028D01*
Y788370D01*
X235972D02*
X245028D01*
X235972Y784630D02*
Y788370D01*
Y789630D02*
X245028D01*
Y793370D01*
X235972D02*
X245028D01*
X235972Y789630D02*
Y793370D01*
Y794130D02*
X245028D01*
Y797870D01*
X235972D02*
X245028D01*
X235972Y794130D02*
Y797870D01*
X564264Y150311D02*
X584736D01*
X564264Y176689D02*
X584736D01*
X564264Y150311D02*
Y176689D01*
X584736Y150311D02*
Y176689D01*
X564764Y363311D02*
X585236D01*
X564764Y389689D02*
X585236D01*
X564764Y363311D02*
Y389689D01*
X585236Y363311D02*
Y389689D01*
X565764Y575811D02*
X586236D01*
X565764Y602189D02*
X586236D01*
X565764Y575811D02*
Y602189D01*
X586236Y575811D02*
Y602189D01*
X565714Y789486D02*
X586186D01*
X565714Y815864D02*
X586186D01*
X565714Y789486D02*
Y815864D01*
X586186Y789486D02*
Y815864D01*
X561264Y245811D02*
X581736D01*
X561264Y272189D02*
X581736D01*
X561264Y245811D02*
Y272189D01*
X581736Y245811D02*
Y272189D01*
X561764Y458811D02*
X582236D01*
X561764Y485189D02*
X582236D01*
X561764Y458811D02*
Y485189D01*
X582236Y458811D02*
Y485189D01*
X562764Y671311D02*
X583236D01*
X562764Y697689D02*
X583236D01*
X562764Y671311D02*
Y697689D01*
X583236Y671311D02*
Y697689D01*
X562714Y884986D02*
X583186D01*
X562714Y911364D02*
X583186D01*
X562714Y884986D02*
Y911364D01*
X583186Y884986D02*
Y911364D01*
X321291Y672315D02*
X372866D01*
X321291Y620740D02*
X372866D01*
Y672315D01*
X321291Y620740D02*
Y672315D01*
X336768Y746110D02*
Y759890D01*
X320232Y746110D02*
Y759890D01*
Y746110D02*
X336768D01*
X320232Y759890D02*
X336768D01*
X568945Y198000D02*
Y205000D01*
X555945Y198000D02*
Y205000D01*
Y198000D02*
X568945D01*
X555945Y205000D02*
X568945D01*
X569445Y411000D02*
Y418000D01*
X556445Y411000D02*
Y418000D01*
Y411000D02*
X569445D01*
X556445Y418000D02*
X569445D01*
X570445Y623500D02*
Y630500D01*
X557445Y623500D02*
Y630500D01*
Y623500D02*
X570445D01*
X557445Y630500D02*
X570445D01*
X570395Y837175D02*
Y844175D01*
X557395Y837175D02*
Y844175D01*
Y837175D02*
X570395D01*
X557395Y844175D02*
X570395D01*
X568945Y185000D02*
Y192000D01*
X555945Y185000D02*
Y192000D01*
Y185000D02*
X568945D01*
X555945Y192000D02*
X568945D01*
X569445Y398000D02*
Y405000D01*
X556445Y398000D02*
Y405000D01*
Y398000D02*
X569445D01*
X556445Y405000D02*
X569445D01*
X570445Y610500D02*
Y617500D01*
X557445Y610500D02*
Y617500D01*
Y610500D02*
X570445D01*
X557445Y617500D02*
X570445D01*
X570395Y824175D02*
Y831175D01*
X557395Y824175D02*
Y831175D01*
Y824175D02*
X570395D01*
X557395Y831175D02*
X570395D01*
X498500Y172000D02*
Y179000D01*
X511500Y172000D02*
Y179000D01*
X498500D02*
X511500D01*
X498500Y172000D02*
X511500D01*
X499000Y385000D02*
Y392000D01*
X512000Y385000D02*
Y392000D01*
X499000D02*
X512000D01*
X499000Y385000D02*
X512000D01*
X500000Y597500D02*
Y604500D01*
X513000Y597500D02*
Y604500D01*
X500000D02*
X513000D01*
X500000Y597500D02*
X513000D01*
X499950Y811175D02*
Y818175D01*
X512950Y811175D02*
Y818175D01*
X499950D02*
X512950D01*
X499950Y811175D02*
X512950D01*
X547835Y173130D02*
X556890D01*
Y176870D01*
X547835D02*
X556890D01*
X547835Y173130D02*
Y176870D01*
X548335Y386130D02*
X557390D01*
Y389870D01*
X548335D02*
X557390D01*
X548335Y386130D02*
Y389870D01*
X549335Y598630D02*
X558390D01*
Y602370D01*
X549335D02*
X558390D01*
X549335Y598630D02*
Y602370D01*
X549285Y812305D02*
X558340D01*
Y816045D01*
X549285D02*
X558340D01*
X549285Y812305D02*
Y816045D01*
X532972Y173130D02*
X542028D01*
Y176870D01*
X532972D02*
X542028D01*
X532972Y173130D02*
Y176870D01*
X533472Y386130D02*
X542528D01*
Y389870D01*
X533472D02*
X542528D01*
X533472Y386130D02*
Y389870D01*
X534472Y598630D02*
X543528D01*
Y602370D01*
X534472D02*
X543528D01*
X534472Y598630D02*
Y602370D01*
X534422Y812305D02*
X543478D01*
Y816045D01*
X534422D02*
X543478D01*
X534422Y812305D02*
Y816045D01*
X498555Y185000D02*
Y192000D01*
X511555Y185000D02*
Y192000D01*
X498555D02*
X511555D01*
X498555Y185000D02*
X511555D01*
X499055Y398000D02*
Y405000D01*
X512055Y398000D02*
Y405000D01*
X499055D02*
X512055D01*
X499055Y398000D02*
X512055D01*
X500055Y610500D02*
Y617500D01*
X513055Y610500D02*
Y617500D01*
X500055D02*
X513055D01*
X500055Y610500D02*
X513055D01*
X500005Y824175D02*
Y831175D01*
X513005Y824175D02*
Y831175D01*
X500005D02*
X513005D01*
X500005Y824175D02*
X513005D01*
X575370Y115835D02*
Y124890D01*
X571630D02*
X575370D01*
X571630Y115835D02*
Y124890D01*
Y115835D02*
X575370D01*
X575870Y328835D02*
Y337890D01*
X572130D02*
X575870D01*
X572130Y328835D02*
Y337890D01*
Y328835D02*
X575870D01*
X576870Y541335D02*
Y550390D01*
X573130D02*
X576870D01*
X573130Y541335D02*
Y550390D01*
Y541335D02*
X576870D01*
X576820Y755010D02*
Y764065D01*
X573080D02*
X576820D01*
X573080Y755010D02*
Y764065D01*
Y755010D02*
X576820D01*
X499000Y148500D02*
Y155500D01*
X512000Y148500D02*
Y155500D01*
X499000D02*
X512000D01*
X499000Y148500D02*
X512000D01*
X499500Y361500D02*
Y368500D01*
X512500Y361500D02*
Y368500D01*
X499500D02*
X512500D01*
X499500Y361500D02*
X512500D01*
X500500Y574000D02*
Y581000D01*
X513500Y574000D02*
Y581000D01*
X500500D02*
X513500D01*
X500500Y574000D02*
X513500D01*
X500450Y787675D02*
Y794675D01*
X513450Y787675D02*
Y794675D01*
X500450D02*
X513450D01*
X500450Y787675D02*
X513450D01*
X548472Y149130D02*
X557528D01*
Y152870D01*
X548472D02*
X557528D01*
X548472Y149130D02*
Y152870D01*
X548972Y362130D02*
X558028D01*
Y365870D01*
X548972D02*
X558028D01*
X548972Y362130D02*
Y365870D01*
X549972Y574630D02*
X559028D01*
Y578370D01*
X549972D02*
X559028D01*
X549972Y574630D02*
Y578370D01*
X549922Y788305D02*
X558978D01*
Y792045D01*
X549922D02*
X558978D01*
X549922Y788305D02*
Y792045D01*
X533335Y149130D02*
X542390D01*
Y152870D01*
X533335D02*
X542390D01*
X533335Y149130D02*
Y152870D01*
X533835Y362130D02*
X542890D01*
Y365870D01*
X533835D02*
X542890D01*
X533835Y362130D02*
Y365870D01*
X534835Y574630D02*
X543890D01*
Y578370D01*
X534835D02*
X543890D01*
X534835Y574630D02*
Y578370D01*
X534785Y788305D02*
X543840D01*
Y792045D01*
X534785D02*
X543840D01*
X534785Y788305D02*
Y792045D01*
X499055Y132500D02*
Y139500D01*
X512055Y132500D02*
Y139500D01*
X499055D02*
X512055D01*
X499055Y132500D02*
X512055D01*
X499555Y345500D02*
Y352500D01*
X512555Y345500D02*
Y352500D01*
X499555D02*
X512555D01*
X499555Y345500D02*
X512555D01*
X500555Y558000D02*
Y565000D01*
X513555Y558000D02*
Y565000D01*
X500555D02*
X513555D01*
X500555Y558000D02*
X513555D01*
X500505Y771675D02*
Y778675D01*
X513505Y771675D02*
Y778675D01*
X500505D02*
X513505D01*
X500505Y771675D02*
X513505D01*
X554555Y131500D02*
Y138500D01*
X567555Y131500D02*
Y138500D01*
X554555D02*
X567555D01*
X554555Y131500D02*
X567555D01*
X555055Y344500D02*
Y351500D01*
X568055Y344500D02*
Y351500D01*
X555055D02*
X568055D01*
X555055Y344500D02*
X568055D01*
X556055Y557000D02*
Y564000D01*
X569055Y557000D02*
Y564000D01*
X556055D02*
X569055D01*
X556055Y557000D02*
X569055D01*
X556005Y770675D02*
Y777675D01*
X569005Y770675D02*
Y777675D01*
X556005D02*
X569005D01*
X556005Y770675D02*
X569005D01*
X554500Y117000D02*
Y124000D01*
X567500Y117000D02*
Y124000D01*
X554500D02*
X567500D01*
X554500Y117000D02*
X567500D01*
X555000Y330000D02*
Y337000D01*
X568000Y330000D02*
Y337000D01*
X555000D02*
X568000D01*
X555000Y330000D02*
X568000D01*
X556000Y542500D02*
Y549500D01*
X569000Y542500D02*
Y549500D01*
X556000D02*
X569000D01*
X556000Y542500D02*
X569000D01*
X555950Y756175D02*
Y763175D01*
X568950Y756175D02*
Y763175D01*
X555950D02*
X568950D01*
X555950Y756175D02*
X568950D01*
X522000Y307000D02*
X529000D01*
X522000Y294000D02*
X529000D01*
Y307000D01*
X522000Y294000D02*
Y307000D01*
X522500Y520000D02*
X529500D01*
X522500Y507000D02*
X529500D01*
Y520000D01*
X522500Y507000D02*
Y520000D01*
X523500Y732500D02*
X530500D01*
X523500Y719500D02*
X530500D01*
Y732500D01*
X523500Y719500D02*
Y732500D01*
X523450Y946175D02*
X530450D01*
X523450Y933175D02*
X530450D01*
Y946175D01*
X523450Y933175D02*
Y946175D01*
X536500Y306945D02*
X543500D01*
X536500Y293945D02*
X543500D01*
Y306945D01*
X536500Y293945D02*
Y306945D01*
X537000Y519945D02*
X544000D01*
X537000Y506945D02*
X544000D01*
Y519945D01*
X537000Y506945D02*
Y519945D01*
X538000Y732445D02*
X545000D01*
X538000Y719445D02*
X545000D01*
Y732445D01*
X538000Y719445D02*
Y732445D01*
X537950Y946120D02*
X544950D01*
X537950Y933120D02*
X544950D01*
Y946120D01*
X537950Y933120D02*
Y946120D01*
X495000Y269500D02*
Y276500D01*
X508000Y269500D02*
Y276500D01*
X495000D02*
X508000D01*
X495000Y269500D02*
X508000D01*
X495500Y482500D02*
Y489500D01*
X508500Y482500D02*
Y489500D01*
X495500D02*
X508500D01*
X495500Y482500D02*
X508500D01*
X496500Y695000D02*
Y702000D01*
X509500Y695000D02*
Y702000D01*
X496500D02*
X509500D01*
X496500Y695000D02*
X509500D01*
X496450Y908675D02*
Y915675D01*
X509450Y908675D02*
Y915675D01*
X496450D02*
X509450D01*
X496450Y908675D02*
X509450D01*
X543472Y278630D02*
X552528D01*
Y282370D01*
X543472D02*
X552528D01*
X543472Y278630D02*
Y282370D01*
X543972Y491630D02*
X553028D01*
Y495370D01*
X543972D02*
X553028D01*
X543972Y491630D02*
Y495370D01*
X544972Y704130D02*
X554028D01*
Y707870D01*
X544972D02*
X554028D01*
X544972Y704130D02*
Y707870D01*
X544922Y917805D02*
X553978D01*
Y921545D01*
X544922D02*
X553978D01*
X544922Y917805D02*
Y921545D01*
X525972Y278630D02*
X535028D01*
Y282370D01*
X525972D02*
X535028D01*
X525972Y278630D02*
Y282370D01*
X526472Y491630D02*
X535528D01*
Y495370D01*
X526472D02*
X535528D01*
X526472Y491630D02*
Y495370D01*
X527472Y704130D02*
X536528D01*
Y707870D01*
X527472D02*
X536528D01*
X527472Y704130D02*
Y707870D01*
X527422Y917805D02*
X536478D01*
Y921545D01*
X527422D02*
X536478D01*
X527422Y917805D02*
Y921545D01*
X495000Y283000D02*
Y290000D01*
X508000Y283000D02*
Y290000D01*
X495000D02*
X508000D01*
X495000Y283000D02*
X508000D01*
X495500Y496000D02*
Y503000D01*
X508500Y496000D02*
Y503000D01*
X495500D02*
X508500D01*
X495500Y496000D02*
X508500D01*
X496500Y708500D02*
Y715500D01*
X509500Y708500D02*
Y715500D01*
X496500D02*
X509500D01*
X496500Y708500D02*
X509500D01*
X496450Y922175D02*
Y929175D01*
X509450Y922175D02*
Y929175D01*
X496450D02*
X509450D01*
X496450Y922175D02*
X509450D01*
X495000Y239000D02*
Y246000D01*
X508000Y239000D02*
Y246000D01*
X495000D02*
X508000D01*
X495000Y239000D02*
X508000D01*
X495500Y452000D02*
Y459000D01*
X508500Y452000D02*
Y459000D01*
X495500D02*
X508500D01*
X495500Y452000D02*
X508500D01*
X496500Y664500D02*
Y671500D01*
X509500Y664500D02*
Y671500D01*
X496500D02*
X509500D01*
X496500Y664500D02*
X509500D01*
X496450Y878175D02*
Y885175D01*
X509450Y878175D02*
Y885175D01*
X496450D02*
X509450D01*
X496450Y878175D02*
X509450D01*
X543335Y248630D02*
X552390D01*
Y252370D01*
X543335D02*
X552390D01*
X543335Y248630D02*
Y252370D01*
X543835Y461630D02*
X552890D01*
Y465370D01*
X543835D02*
X552890D01*
X543835Y461630D02*
Y465370D01*
X544835Y674130D02*
X553890D01*
Y677870D01*
X544835D02*
X553890D01*
X544835Y674130D02*
Y677870D01*
X544785Y887805D02*
X553840D01*
Y891545D01*
X544785D02*
X553840D01*
X544785Y887805D02*
Y891545D01*
X526472Y248630D02*
X535528D01*
Y252370D01*
X526472D02*
X535528D01*
X526472Y248630D02*
Y252370D01*
X526972Y461630D02*
X536028D01*
Y465370D01*
X526972D02*
X536028D01*
X526972Y461630D02*
Y465370D01*
X527972Y674130D02*
X537028D01*
Y677870D01*
X527972D02*
X537028D01*
X527972Y674130D02*
Y677870D01*
X527922Y887805D02*
X536978D01*
Y891545D01*
X527922D02*
X536978D01*
X527922Y887805D02*
Y891545D01*
X495000Y253000D02*
Y260000D01*
X508000Y253000D02*
Y260000D01*
X495000D02*
X508000D01*
X495000Y253000D02*
X508000D01*
X495500Y466000D02*
Y473000D01*
X508500Y466000D02*
Y473000D01*
X495500D02*
X508500D01*
X495500Y466000D02*
X508500D01*
X496500Y678500D02*
Y685500D01*
X509500Y678500D02*
Y685500D01*
X496500D02*
X509500D01*
X496500Y678500D02*
X509500D01*
X496450Y892175D02*
Y899175D01*
X509450Y892175D02*
Y899175D01*
X496450D02*
X509450D01*
X496450Y892175D02*
X509450D01*
X522500Y214000D02*
Y221000D01*
X535500Y214000D02*
Y221000D01*
X522500D02*
X535500D01*
X522500Y214000D02*
X535500D01*
X523000Y427000D02*
Y434000D01*
X536000Y427000D02*
Y434000D01*
X523000D02*
X536000D01*
X523000Y427000D02*
X536000D01*
X524000Y639500D02*
Y646500D01*
X537000Y639500D02*
Y646500D01*
X524000D02*
X537000D01*
X524000Y639500D02*
X537000D01*
X523950Y853175D02*
Y860175D01*
X536950Y853175D02*
Y860175D01*
X523950D02*
X536950D01*
X523950Y853175D02*
X536950D01*
X522555Y228500D02*
Y235500D01*
X535555Y228500D02*
Y235500D01*
X522555D02*
X535555D01*
X522555Y228500D02*
X535555D01*
X523055Y441500D02*
Y448500D01*
X536055Y441500D02*
Y448500D01*
X523055D02*
X536055D01*
X523055Y441500D02*
X536055D01*
X524055Y654000D02*
Y661000D01*
X537055Y654000D02*
Y661000D01*
X524055D02*
X537055D01*
X524055Y654000D02*
X537055D01*
X524005Y867675D02*
Y874675D01*
X537005Y867675D02*
Y874675D01*
X524005D02*
X537005D01*
X524005Y867675D02*
X537005D01*
X264055Y674500D02*
Y681500D01*
X277055Y674500D02*
Y681500D01*
X264055D02*
X277055D01*
X264055Y674500D02*
X277055D01*
X264055Y664500D02*
Y671500D01*
X277055Y664500D02*
Y671500D01*
X264055D02*
X277055D01*
X264055Y664500D02*
X277055D01*
X264055Y654500D02*
Y661500D01*
X277055Y654500D02*
Y661500D01*
X264055D02*
X277055D01*
X264055Y654500D02*
X277055D01*
X264055Y644500D02*
Y651500D01*
X277055Y644500D02*
Y651500D01*
X264055D02*
X277055D01*
X264055Y644500D02*
X277055D01*
X264055Y634500D02*
Y641500D01*
X277055Y634500D02*
Y641500D01*
X264055D02*
X277055D01*
X264055Y634500D02*
X277055D01*
X264055Y624000D02*
Y631000D01*
X277055Y624000D02*
Y631000D01*
X264055D02*
X277055D01*
X264055Y624000D02*
X277055D01*
X264500Y711000D02*
Y718000D01*
X277500Y711000D02*
Y718000D01*
X264500D02*
X277500D01*
X264500Y711000D02*
X277500D01*
X264055Y614000D02*
Y621000D01*
X277055Y614000D02*
Y621000D01*
X264055D02*
X277055D01*
X264055Y614000D02*
X277055D01*
X264500Y700000D02*
Y707000D01*
X277500Y700000D02*
Y707000D01*
X264500D02*
X277500D01*
X264500Y700000D02*
X277500D01*
X263945Y604000D02*
Y611000D01*
X276945Y604000D02*
Y611000D01*
X263945D02*
X276945D01*
X263945Y604000D02*
X276945D01*
X300845Y781095D02*
X308127D01*
Y766553D02*
Y781095D01*
X300845Y766553D02*
Y781095D01*
Y766553D02*
X308127D01*
X227845Y776756D02*
X235127D01*
Y762215D02*
Y776756D01*
X227845Y762215D02*
Y776756D01*
Y762215D02*
X235127D01*
X300845Y761095D02*
X308127D01*
Y746553D02*
Y761095D01*
X300845Y746553D02*
Y761095D01*
Y746553D02*
X308127D01*
X238972Y773630D02*
X248028D01*
Y777370D01*
X238972D02*
X248028D01*
X238972Y773630D02*
Y777370D01*
X346342Y678717D02*
X352740D01*
X345161Y679898D02*
X346342Y678717D01*
X345161Y679898D02*
Y693284D01*
X352740D01*
Y678717D02*
Y693284D01*
D92*
X574500Y161531D02*
Y165469D01*
X572532Y163500D02*
X576469D01*
X575000Y374532D02*
Y378468D01*
X573032Y376500D02*
X576968D01*
X576000Y587032D02*
Y590969D01*
X574031Y589000D02*
X577969D01*
X575950Y800706D02*
Y804644D01*
X573982Y802675D02*
X577918D01*
X571500Y257031D02*
Y260968D01*
X569531Y259000D02*
X573468D01*
X572000Y470031D02*
Y473969D01*
X570031Y472000D02*
X573969D01*
X573000Y682531D02*
Y686469D01*
X571032Y684500D02*
X574968D01*
X572950Y896206D02*
Y900144D01*
X570982Y898175D02*
X574919D01*
X347079Y644559D02*
Y648496D01*
X345110Y646528D02*
X349047D01*
X326532Y753000D02*
X330469D01*
X328500Y751031D02*
Y754969D01*
X560476Y201500D02*
X564413D01*
X562445Y199531D02*
Y203468D01*
X560976Y414500D02*
X564913D01*
X562945Y412532D02*
Y416468D01*
X561976Y627000D02*
X565913D01*
X563945Y625032D02*
Y628968D01*
X561926Y840675D02*
X565863D01*
X563895Y838706D02*
Y842644D01*
X560476Y188500D02*
X564413D01*
X562445Y186531D02*
Y190469D01*
X560976Y401500D02*
X564913D01*
X562945Y399532D02*
Y403469D01*
X561976Y614000D02*
X565913D01*
X563945Y612032D02*
Y615969D01*
X561926Y827675D02*
X565863D01*
X563895Y825706D02*
Y829644D01*
X503031Y175500D02*
X506968D01*
X505000Y173531D02*
Y177469D01*
X503532Y388500D02*
X507469D01*
X505500Y386531D02*
Y390469D01*
X504531Y601000D02*
X508468D01*
X506500Y599031D02*
Y602969D01*
X504482Y814675D02*
X508419D01*
X506450Y812706D02*
Y816644D01*
X503087Y188500D02*
X507024D01*
X505055Y186531D02*
Y190469D01*
X503587Y401500D02*
X507524D01*
X505555Y399532D02*
Y403469D01*
X504587Y614000D02*
X508524D01*
X506555Y612032D02*
Y615969D01*
X504537Y827675D02*
X508474D01*
X506505Y825706D02*
Y829644D01*
X503532Y152000D02*
X507469D01*
X505500Y150031D02*
Y153969D01*
X504032Y365000D02*
X507969D01*
X506000Y363032D02*
Y366968D01*
X505031Y577500D02*
X508968D01*
X507000Y575531D02*
Y579468D01*
X504982Y791175D02*
X508919D01*
X506950Y789207D02*
Y793144D01*
X503587Y136000D02*
X507524D01*
X505555Y134031D02*
Y137969D01*
X504087Y349000D02*
X508024D01*
X506055Y347031D02*
Y350969D01*
X505087Y561500D02*
X509024D01*
X507055Y559531D02*
Y563469D01*
X505037Y775175D02*
X508974D01*
X507005Y773207D02*
Y777143D01*
X559087Y135000D02*
X563024D01*
X561055Y133031D02*
Y136969D01*
X559587Y348000D02*
X563524D01*
X561555Y346031D02*
Y349969D01*
X560587Y560500D02*
X564524D01*
X562555Y558532D02*
Y562468D01*
X560537Y774175D02*
X564474D01*
X562505Y772206D02*
Y776144D01*
X559031Y120500D02*
X562968D01*
X561000Y118532D02*
Y122468D01*
X559531Y333500D02*
X563469D01*
X561500Y331532D02*
Y335469D01*
X560532Y546000D02*
X564468D01*
X562500Y544031D02*
Y547968D01*
X560482Y759675D02*
X564419D01*
X562450Y757706D02*
Y761644D01*
X525500Y298532D02*
Y302468D01*
X523531Y300500D02*
X527468D01*
X526000Y511531D02*
Y515469D01*
X524031Y513500D02*
X527969D01*
X527000Y724031D02*
Y727969D01*
X525032Y726000D02*
X528968D01*
X526950Y937706D02*
Y941644D01*
X524981Y939675D02*
X528919D01*
X540000Y298476D02*
Y302413D01*
X538031Y300445D02*
X541968D01*
X540500Y511476D02*
Y515413D01*
X538531Y513445D02*
X542469D01*
X541500Y723976D02*
Y727913D01*
X539532Y725945D02*
X543469D01*
X541450Y937651D02*
Y941588D01*
X539481Y939620D02*
X543419D01*
X499532Y273000D02*
X503469D01*
X501500Y271031D02*
Y274969D01*
X500032Y486000D02*
X503968D01*
X502000Y484031D02*
Y487968D01*
X501031Y698500D02*
X504969D01*
X503000Y696531D02*
Y700468D01*
X500982Y912175D02*
X504918D01*
X502950Y910207D02*
Y914143D01*
X499532Y286500D02*
X503469D01*
X501500Y284531D02*
Y288469D01*
X500032Y499500D02*
X503968D01*
X502000Y497532D02*
Y501469D01*
X501031Y712000D02*
X504969D01*
X503000Y710032D02*
Y713969D01*
X500982Y925675D02*
X504918D01*
X502950Y923707D02*
Y927643D01*
X499532Y242500D02*
X503469D01*
X501500Y240531D02*
Y244468D01*
X500032Y455500D02*
X503968D01*
X502000Y453532D02*
Y457469D01*
X501031Y668000D02*
X504969D01*
X503000Y666032D02*
Y669969D01*
X500982Y881675D02*
X504918D01*
X502950Y879706D02*
Y883644D01*
X499532Y256500D02*
X503469D01*
X501500Y254532D02*
Y258469D01*
X500032Y469500D02*
X503968D01*
X502000Y467531D02*
Y471468D01*
X501031Y682000D02*
X504969D01*
X503000Y680031D02*
Y683968D01*
X500982Y895675D02*
X504918D01*
X502950Y893707D02*
Y897643D01*
X527032Y217500D02*
X530969D01*
X529000Y215531D02*
Y219468D01*
X527531Y430500D02*
X531468D01*
X529500Y428532D02*
Y432469D01*
X528532Y643000D02*
X532469D01*
X530500Y641032D02*
Y644969D01*
X528481Y856675D02*
X532418D01*
X530450Y854706D02*
Y858644D01*
X527087Y232000D02*
X531024D01*
X529055Y230031D02*
Y233968D01*
X527587Y445000D02*
X531524D01*
X529555Y443032D02*
Y446969D01*
X528587Y657500D02*
X532524D01*
X530555Y655532D02*
Y659469D01*
X528537Y871175D02*
X532474D01*
X530505Y869207D02*
Y873143D01*
X268587Y678000D02*
X272524D01*
X270555Y676031D02*
Y679969D01*
X268587Y668000D02*
X272524D01*
X270555Y666032D02*
Y669969D01*
X268587Y658000D02*
X272524D01*
X270555Y656032D02*
Y659969D01*
X268587Y648000D02*
X272524D01*
X270555Y646032D02*
Y649968D01*
X268587Y638000D02*
X272524D01*
X270555Y636031D02*
Y639968D01*
X268587Y627500D02*
X272524D01*
X270555Y625531D02*
Y629468D01*
X269032Y714500D02*
X272969D01*
X271000Y712532D02*
Y716468D01*
X268587Y617500D02*
X272524D01*
X270555Y615531D02*
Y619468D01*
X269032Y703500D02*
X272969D01*
X271000Y701532D02*
Y705469D01*
X268476Y607500D02*
X272413D01*
X270445Y605532D02*
Y609469D01*
X302532Y773839D02*
X306469D01*
X304500Y771870D02*
Y775807D01*
X229532Y769500D02*
X233469D01*
X231500Y767531D02*
Y771468D01*
X302532Y753839D02*
X306469D01*
X304500Y751870D02*
Y755807D01*
X292000Y774453D02*
X294500Y771953D01*
X292000Y774453D02*
X296500D01*
X297000D01*
X294500Y771953D02*
X297000Y774453D01*
X292000Y771953D02*
X294500D01*
X297000D01*
X294500Y769453D02*
Y771953D01*
Y774453D02*
Y777453D01*
X219000Y770453D02*
X221500Y767953D01*
X219000Y770453D02*
X223500D01*
X224000D01*
X221500Y767953D02*
X224000Y770453D01*
X219000Y767953D02*
X221500D01*
X224000D01*
X221500Y765453D02*
Y767953D01*
Y770453D02*
Y773453D01*
X306949Y116051D02*
X313051D01*
Y109949D02*
Y116051D01*
X306949Y109949D02*
Y116051D01*
Y109949D02*
X313051D01*
X299449Y116051D02*
X305551D01*
Y109949D02*
Y116051D01*
X299449Y109949D02*
Y116051D01*
Y109949D02*
X305551D01*
X291949Y116051D02*
X298051D01*
Y109949D02*
Y116051D01*
X291949Y109949D02*
Y116051D01*
Y109949D02*
X298051D01*
X494146Y176760D02*
Y186996D01*
X491390Y174004D02*
X494146Y176760D01*
X474854Y174004D02*
X491390D01*
X474854Y186996D02*
X494146D01*
X474854Y174004D02*
Y186996D01*
X494646Y389760D02*
Y399996D01*
X491890Y387004D02*
X494646Y389760D01*
X475354Y387004D02*
X491890D01*
X475354Y399996D02*
X494646D01*
X475354Y387004D02*
Y399996D01*
X495646Y602260D02*
Y612496D01*
X492890Y599504D02*
X495646Y602260D01*
X476354Y599504D02*
X492890D01*
X476354Y612496D02*
X495646D01*
X476354Y599504D02*
Y612496D01*
X495596Y815935D02*
Y826171D01*
X492840Y813179D02*
X495596Y815935D01*
X476304Y813179D02*
X492840D01*
X476304Y826171D02*
X495596D01*
X476304Y813179D02*
Y826171D01*
X470500Y159228D02*
Y162772D01*
X468728Y161000D02*
X472272D01*
X471000Y372228D02*
Y375772D01*
X469228Y374000D02*
X472772D01*
X472000Y584728D02*
Y588272D01*
X470228Y586500D02*
X473772D01*
X471950Y798403D02*
Y801947D01*
X470178Y800175D02*
X473722D01*
X586000Y138728D02*
Y142272D01*
X584228Y140500D02*
X587772D01*
X586500Y351728D02*
Y355272D01*
X584728Y353500D02*
X588272D01*
X587500Y564228D02*
Y567772D01*
X585728Y566000D02*
X589272D01*
X587450Y777903D02*
Y781447D01*
X585678Y779675D02*
X589222D01*
X494646Y136760D02*
Y146996D01*
X491890Y134004D02*
X494646Y136760D01*
X475354Y134004D02*
X491890D01*
X475354Y146996D02*
X494646D01*
X475354Y134004D02*
Y146996D01*
X495146Y349760D02*
Y359996D01*
X492390Y347004D02*
X495146Y349760D01*
X475854Y347004D02*
X492390D01*
X475854Y359996D02*
X495146D01*
X475854Y347004D02*
Y359996D01*
X496146Y562260D02*
Y572496D01*
X493390Y559504D02*
X496146Y562260D01*
X476854Y559504D02*
X493390D01*
X476854Y572496D02*
X496146D01*
X476854Y559504D02*
Y572496D01*
X496096Y775935D02*
Y786171D01*
X493340Y773179D02*
X496096Y775935D01*
X476804Y773179D02*
X493340D01*
X476804Y786171D02*
X496096D01*
X476804Y773179D02*
Y786171D01*
X489146Y275260D02*
Y285496D01*
X486390Y272504D02*
X489146Y275260D01*
X469854Y272504D02*
X486390D01*
X469854Y285496D02*
X489146D01*
X469854Y272504D02*
Y285496D01*
X489646Y488260D02*
Y498496D01*
X486890Y485504D02*
X489646Y488260D01*
X470354Y485504D02*
X486890D01*
X470354Y498496D02*
X489646D01*
X470354Y485504D02*
Y498496D01*
X490646Y700760D02*
Y710996D01*
X487890Y698004D02*
X490646Y700760D01*
X471354Y698004D02*
X487890D01*
X471354Y710996D02*
X490646D01*
X471354Y698004D02*
Y710996D01*
X490596Y914435D02*
Y924671D01*
X487840Y911679D02*
X490596Y914435D01*
X471304Y911679D02*
X487840D01*
X471304Y924671D02*
X490596D01*
X471304Y911679D02*
Y924671D01*
X473500Y261728D02*
Y265272D01*
X471728Y263500D02*
X475272D01*
X474000Y474728D02*
Y478272D01*
X472228Y476500D02*
X475772D01*
X475000Y687228D02*
Y690772D01*
X473228Y689000D02*
X476772D01*
X474950Y900903D02*
Y904447D01*
X473178Y902675D02*
X476722D01*
X569500Y279228D02*
Y282772D01*
X567728Y281000D02*
X571272D01*
X570000Y492228D02*
Y495772D01*
X568228Y494000D02*
X571772D01*
X571000Y704728D02*
Y708272D01*
X569228Y706500D02*
X572772D01*
X570950Y918403D02*
Y921947D01*
X569178Y920175D02*
X572722D01*
X489146Y244260D02*
Y254496D01*
X486390Y241504D02*
X489146Y244260D01*
X469854Y241504D02*
X486390D01*
X469854Y254496D02*
X489146D01*
X469854Y241504D02*
Y254496D01*
X489646Y457260D02*
Y467496D01*
X486890Y454504D02*
X489646Y457260D01*
X470354Y454504D02*
X486890D01*
X470354Y467496D02*
X489646D01*
X470354Y454504D02*
Y467496D01*
X490646Y669760D02*
Y679996D01*
X487890Y667004D02*
X490646Y669760D01*
X471354Y667004D02*
X487890D01*
X471354Y679996D02*
X490646D01*
X471354Y667004D02*
Y679996D01*
X490596Y883435D02*
Y893671D01*
X487840Y880679D02*
X490596Y883435D01*
X471304Y880679D02*
X487840D01*
X471304Y893671D02*
X490596D01*
X471304Y880679D02*
Y893671D01*
X349000Y684031D02*
Y687968D01*
X347031Y686000D02*
X350969D01*
X357500Y684059D02*
Y687602D01*
X355728Y685831D02*
X359272D01*
D93*
X225000Y723500D02*
X262000D01*
X225000Y696500D02*
Y723500D01*
Y696500D02*
X258500D01*
X262000Y700000D01*
Y723500D01*
X353000Y770500D02*
X390000D01*
X353000Y743500D02*
Y770500D01*
Y743500D02*
X386500D01*
X390000Y747000D01*
Y770500D01*
X226532Y599653D02*
Y681543D01*
X230469Y685480D01*
X260390D01*
Y599653D02*
Y685480D01*
X226532Y599653D02*
X260390D01*
M02*
