M48
;Layer_Color=9474304
;FILE_FORMAT=2:5
INCH,TZ
;TYPE=PLATED
T3F00S00C0.03150
T5F00S00C0.03543
%
G90
G05
T03
G00X705283Y165878
M15
G01Y163122
M16
G00X711779Y157217
M15
G01X714535
M16
G00X711779Y171783
M15
G01X714535
M16
G00X732500Y165878
M15
G01Y163122
M16
G00X732500Y268378
M15
G01Y265622
M16
G00X711779Y259717
M15
G01X714535
M16
G00X711779Y274284
M15
G01X714535
M16
G00X705283Y268378
M15
G01Y265622
M16
G00X705784Y378878
M15
G01Y376122
M16
G00X712280Y370216
M15
G01X715035
M16
G00X712280Y384784
M15
G01X715035
M16
G00X733000Y378878
M15
G01Y376122
M16
G00X733000Y481378
M15
G01Y478622
M16
G00X712280Y472717
M15
G01X715035
M16
G00X712280Y487284
M15
G01X715035
M16
G00X705784Y481378
M15
G01Y478622
M16
G00X706783Y591378
M15
G01Y588622
M16
G00X713279Y582717
M15
G01X716035
M16
G00X713279Y597284
M15
G01X716035
M16
G00X734000Y591378
M15
G01Y588622
M16
G00X734000Y693878
M15
G01Y691122
M16
G00X713279Y685217
M15
G01X716035
M16
G00X713279Y699784
M15
G01X716035
M16
G00X706783Y693878
M15
G01Y691122
M16
G00X706734Y805053
M15
G01Y802297
M16
G00X713230Y796391
M15
G01X715985
M16
G00X713230Y810958
M15
G01X715985
M16
G00X733950Y805053
M15
G01Y802297
M16
G00X733950Y907553
M15
G01Y904797
M16
G00X713230Y898892
M15
G01X715985
M16
G00X713230Y913459
M15
G01X715985
M16
G00X706734Y907553
M15
G01Y904797
M16
T05
G00X220468Y492362
M15
G01X223618
M16
G00X241965Y492362
M15
G01X249051
M16
G00X241965Y549449
M15
G01X249051
M16
G00X220468Y549449
M15
G01X223618
M16
M17
M30
