G04*
G04 #@! TF.GenerationSoftware,Altium Limited,Altium Designer,20.1.12 (249)*
G04*
G04 Layer_Color=16711935*
%FSLAX25Y25*%
%MOIN*%
G70*
G04*
G04 #@! TF.SameCoordinates,0DC69EFF-8178-42D1-8DC1-E705200A60BA*
G04*
G04*
G04 #@! TF.FilePolarity,Positive*
G04*
G01*
G75*
%ADD12C,0.00787*%
%ADD13C,0.01000*%
%ADD89C,0.00394*%
%ADD90R,0.12598X0.03177*%
%ADD91R,0.12598X0.03177*%
D12*
X223291Y209850D02*
X234709D01*
Y216150D01*
X223291D02*
X234709D01*
X223291Y209850D02*
Y216150D01*
X221898Y283898D02*
X234102D01*
Y296102D01*
X221898D02*
X234102D01*
X221898Y283898D02*
Y296102D01*
D13*
X190500Y570500D02*
X1279500D01*
X1279500Y65000D01*
X190500D02*
X1279500D01*
X190500Y570500D02*
X190500Y65000D01*
D89*
X1131638Y357299D02*
X1131374Y358283D01*
X1130653Y359004D01*
X1129669Y359268D01*
X1128685Y359004D01*
X1127964Y358283D01*
X1127701Y357299D01*
X1127964Y356315D01*
X1128685Y355594D01*
X1129669Y355331D01*
X1130653Y355594D01*
X1131374Y356315D01*
X1131638Y357299D01*
X875304Y356968D02*
X875041Y357953D01*
X874320Y358673D01*
X873336Y358937D01*
X872352Y358673D01*
X871631Y357953D01*
X871367Y356968D01*
X871631Y355984D01*
X872352Y355264D01*
X873336Y355000D01*
X874320Y355264D01*
X875041Y355984D01*
X875304Y356968D01*
X618971Y357469D02*
X618707Y358453D01*
X617987Y359173D01*
X617003Y359437D01*
X616018Y359173D01*
X615298Y358453D01*
X615034Y357469D01*
X615298Y356484D01*
X616018Y355764D01*
X617003Y355500D01*
X617987Y355764D01*
X618707Y356484D01*
X618971Y357469D01*
X362638Y357299D02*
X362374Y358283D01*
X361653Y359004D01*
X360669Y359268D01*
X359685Y359004D01*
X358964Y358283D01*
X358701Y357299D01*
X358964Y356315D01*
X359685Y355594D01*
X360669Y355331D01*
X361653Y355594D01*
X362374Y356315D01*
X362638Y357299D01*
X1226138Y234299D02*
X1225874Y235283D01*
X1225154Y236004D01*
X1224169Y236268D01*
X1223185Y236004D01*
X1222464Y235283D01*
X1222201Y234299D01*
X1222464Y233315D01*
X1223185Y232594D01*
X1224169Y232331D01*
X1225154Y232594D01*
X1225874Y233315D01*
X1226138Y234299D01*
X969804Y233968D02*
X969541Y234953D01*
X968820Y235673D01*
X967836Y235937D01*
X966852Y235673D01*
X966131Y234953D01*
X965867Y233968D01*
X966131Y232984D01*
X966852Y232264D01*
X967836Y232000D01*
X968820Y232264D01*
X969541Y232984D01*
X969804Y233968D01*
X713471Y234469D02*
X713207Y235453D01*
X712487Y236173D01*
X711503Y236437D01*
X710518Y236173D01*
X709798Y235453D01*
X709534Y234469D01*
X709798Y233484D01*
X710518Y232764D01*
X711503Y232500D01*
X712487Y232764D01*
X713207Y233484D01*
X713471Y234469D01*
X457138Y234299D02*
X456874Y235283D01*
X456153Y236004D01*
X455169Y236268D01*
X454185Y236004D01*
X453465Y235283D01*
X453201Y234299D01*
X453465Y233315D01*
X454185Y232594D01*
X455169Y232331D01*
X456153Y232594D01*
X456874Y233315D01*
X457138Y234299D01*
X1135138Y181299D02*
X1134874Y182283D01*
X1134153Y183004D01*
X1133169Y183268D01*
X1132185Y183004D01*
X1131464Y182283D01*
X1131201Y181299D01*
X1131464Y180315D01*
X1132185Y179594D01*
X1133169Y179331D01*
X1134153Y179594D01*
X1134874Y180315D01*
X1135138Y181299D01*
X878804Y180968D02*
X878541Y181953D01*
X877820Y182673D01*
X876836Y182937D01*
X875852Y182673D01*
X875131Y181953D01*
X874867Y180968D01*
X875131Y179984D01*
X875852Y179264D01*
X876836Y179000D01*
X877820Y179264D01*
X878541Y179984D01*
X878804Y180968D01*
X622471Y181468D02*
X622207Y182453D01*
X621487Y183173D01*
X620503Y183437D01*
X619518Y183173D01*
X618798Y182453D01*
X618534Y181468D01*
X618798Y180484D01*
X619518Y179764D01*
X620503Y179500D01*
X621487Y179764D01*
X622207Y180484D01*
X622471Y181468D01*
X366138Y181299D02*
X365874Y182283D01*
X365154Y183004D01*
X364169Y183268D01*
X363185Y183004D01*
X362464Y182283D01*
X362201Y181299D01*
X362464Y180315D01*
X363185Y179594D01*
X364169Y179331D01*
X365154Y179594D01*
X365874Y180315D01*
X366138Y181299D01*
X1230527Y307028D02*
X1230264Y308012D01*
X1229543Y308732D01*
X1228559Y308996D01*
X1227575Y308732D01*
X1226854Y308012D01*
X1226591Y307028D01*
X1226854Y306043D01*
X1227575Y305323D01*
X1228559Y305059D01*
X1229543Y305323D01*
X1230264Y306043D01*
X1230527Y307028D01*
X974028Y306528D02*
X973764Y307512D01*
X973043Y308232D01*
X972059Y308496D01*
X971075Y308232D01*
X970354Y307512D01*
X970091Y306528D01*
X970354Y305543D01*
X971075Y304823D01*
X972059Y304559D01*
X973043Y304823D01*
X973764Y305543D01*
X974028Y306528D01*
X718027Y307528D02*
X717764Y308512D01*
X717043Y309232D01*
X716059Y309496D01*
X715075Y309232D01*
X714354Y308512D01*
X714090Y307528D01*
X714354Y306543D01*
X715075Y305823D01*
X716059Y305559D01*
X717043Y305823D01*
X717764Y306543D01*
X718027Y307528D01*
X462028Y308028D02*
X461764Y309012D01*
X461043Y309732D01*
X460059Y309996D01*
X459075Y309732D01*
X458354Y309012D01*
X458090Y308028D01*
X458354Y307043D01*
X459075Y306323D01*
X460059Y306059D01*
X461043Y306323D01*
X461764Y307043D01*
X462028Y308028D01*
X1051638Y179799D02*
X1051374Y180783D01*
X1050653Y181504D01*
X1049669Y181768D01*
X1048685Y181504D01*
X1047964Y180783D01*
X1047701Y179799D01*
X1047964Y178815D01*
X1048685Y178094D01*
X1049669Y177831D01*
X1050653Y178094D01*
X1051374Y178815D01*
X1051638Y179799D01*
X795304Y179469D02*
X795041Y180453D01*
X794320Y181173D01*
X793336Y181437D01*
X792352Y181173D01*
X791631Y180453D01*
X791367Y179469D01*
X791631Y178484D01*
X792352Y177764D01*
X793336Y177500D01*
X794320Y177764D01*
X795041Y178484D01*
X795304Y179469D01*
X538971Y179969D02*
X538707Y180953D01*
X537987Y181673D01*
X537003Y181937D01*
X536018Y181673D01*
X535298Y180953D01*
X535034Y179969D01*
X535298Y178984D01*
X536018Y178264D01*
X537003Y178000D01*
X537987Y178264D01*
X538707Y178984D01*
X538971Y179969D01*
X282638Y179799D02*
X282374Y180783D01*
X281653Y181504D01*
X280669Y181768D01*
X279685Y181504D01*
X278964Y180783D01*
X278701Y179799D01*
X278964Y178815D01*
X279685Y178094D01*
X280669Y177831D01*
X281653Y178094D01*
X282374Y178815D01*
X282638Y179799D01*
X1050339Y246799D02*
X1050075Y247783D01*
X1049354Y248504D01*
X1048370Y248768D01*
X1047386Y248504D01*
X1046665Y247783D01*
X1046402Y246799D01*
X1046665Y245815D01*
X1047386Y245094D01*
X1048370Y244831D01*
X1049354Y245094D01*
X1050075Y245815D01*
X1050339Y246799D01*
X794005Y246468D02*
X793742Y247453D01*
X793021Y248173D01*
X792037Y248437D01*
X791052Y248173D01*
X790332Y247453D01*
X790068Y246468D01*
X790332Y245484D01*
X791052Y244764D01*
X792037Y244500D01*
X793021Y244764D01*
X793742Y245484D01*
X794005Y246468D01*
X537672Y246969D02*
X537408Y247953D01*
X536688Y248673D01*
X535703Y248937D01*
X534719Y248673D01*
X533999Y247953D01*
X533735Y246969D01*
X533999Y245984D01*
X534719Y245264D01*
X535703Y245000D01*
X536688Y245264D01*
X537408Y245984D01*
X537672Y246969D01*
X281339Y246799D02*
X281075Y247783D01*
X280354Y248504D01*
X279370Y248768D01*
X278386Y248504D01*
X277665Y247783D01*
X277402Y246799D01*
X277665Y245815D01*
X278386Y245094D01*
X279370Y244831D01*
X280354Y245094D01*
X281075Y245815D01*
X281339Y246799D01*
X1061488Y525173D02*
X1061224Y526158D01*
X1060504Y526878D01*
X1059520Y527142D01*
X1058535Y526878D01*
X1057815Y526158D01*
X1057551Y525173D01*
X1057815Y524189D01*
X1058535Y523468D01*
X1059520Y523205D01*
X1060504Y523468D01*
X1061224Y524189D01*
X1061488Y525173D01*
X547988Y521173D02*
X547724Y522157D01*
X547004Y522878D01*
X546020Y523142D01*
X545035Y522878D01*
X544315Y522157D01*
X544051Y521173D01*
X544315Y520189D01*
X545035Y519468D01*
X546020Y519205D01*
X547004Y519468D01*
X547724Y520189D01*
X547988Y521173D01*
X1126126Y341158D02*
Y360842D01*
X1141874Y341158D02*
Y360842D01*
X1126126D02*
X1141874D01*
X1126126Y341158D02*
X1141874D01*
X869793Y340827D02*
Y360512D01*
X885541Y340827D02*
Y360512D01*
X869793D02*
X885541D01*
X869793Y340827D02*
X885541D01*
X613459Y341327D02*
Y361012D01*
X629207Y341327D02*
Y361012D01*
X613459D02*
X629207D01*
X613459Y341327D02*
X629207D01*
X357126Y341158D02*
Y360842D01*
X372874Y341158D02*
Y360842D01*
X357126D02*
X372874D01*
X357126Y341158D02*
X372874D01*
X1220626Y218158D02*
Y237842D01*
X1236374Y218158D02*
Y237842D01*
X1220626D02*
X1236374D01*
X1220626Y218158D02*
X1236374D01*
X964293Y217827D02*
Y237512D01*
X980041Y217827D02*
Y237512D01*
X964293D02*
X980041D01*
X964293Y217827D02*
X980041D01*
X707959Y218327D02*
Y238012D01*
X723707Y218327D02*
Y238012D01*
X707959D02*
X723707D01*
X707959Y218327D02*
X723707D01*
X451626Y218158D02*
Y237842D01*
X467374Y218158D02*
Y237842D01*
X451626D02*
X467374D01*
X451626Y218158D02*
X467374D01*
X1129626Y165157D02*
Y184843D01*
X1145374Y165157D02*
Y184843D01*
X1129626D02*
X1145374D01*
X1129626Y165157D02*
X1145374D01*
X873293Y164827D02*
Y184512D01*
X889041Y164827D02*
Y184512D01*
X873293D02*
X889041D01*
X873293Y164827D02*
X889041D01*
X616959Y165327D02*
Y185012D01*
X632707Y165327D02*
Y185012D01*
X616959D02*
X632707D01*
X616959Y165327D02*
X632707D01*
X360626Y165157D02*
Y184843D01*
X376374Y165157D02*
Y184843D01*
X360626D02*
X376374D01*
X360626Y165157D02*
X376374D01*
X1219898Y310571D02*
X1232102D01*
X1219898Y294429D02*
X1232102D01*
Y310571D01*
X1219898Y294429D02*
Y310571D01*
X963398Y310071D02*
X975602D01*
X963398Y293929D02*
X975602D01*
Y310071D01*
X963398Y293929D02*
Y310071D01*
X707398Y311071D02*
X719602D01*
X707398Y294929D02*
X719602D01*
Y311071D01*
X707398Y294929D02*
Y311071D01*
X451398Y311571D02*
X463602D01*
X451398Y295429D02*
X463602D01*
Y311571D01*
X451398Y295429D02*
Y311571D01*
X1046126Y163657D02*
Y183343D01*
X1061874Y163657D02*
Y183343D01*
X1046126D02*
X1061874D01*
X1046126Y163657D02*
X1061874D01*
X789793Y163327D02*
Y183012D01*
X805541Y163327D02*
Y183012D01*
X789793D02*
X805541D01*
X789793Y163327D02*
X805541D01*
X533459Y163827D02*
Y183512D01*
X549207Y163827D02*
Y183512D01*
X533459D02*
X549207D01*
X533459Y163827D02*
X549207D01*
X277126Y163657D02*
Y183343D01*
X292874Y163657D02*
Y183343D01*
X277126D02*
X292874D01*
X277126Y163657D02*
X292874D01*
X1044827Y230658D02*
Y250342D01*
X1060575Y230658D02*
Y250342D01*
X1044827D02*
X1060575D01*
X1044827Y230658D02*
X1060575D01*
X788493Y230327D02*
Y250012D01*
X804241Y230327D02*
Y250012D01*
X788493D02*
X804241D01*
X788493Y230327D02*
X804241D01*
X532160Y230827D02*
Y250512D01*
X547908Y230827D02*
Y250512D01*
X532160D02*
X547908D01*
X532160Y230827D02*
X547908D01*
X275827Y230658D02*
Y250342D01*
X291575Y230658D02*
Y250342D01*
X275827D02*
X291575D01*
X275827Y230658D02*
X291575D01*
X222094Y131154D02*
X233906D01*
X222094Y137847D02*
X233906D01*
X222094Y131154D02*
Y137847D01*
X233906Y131154D02*
Y137847D01*
X1055976Y487378D02*
X1078024D01*
X1055976Y528717D02*
X1078024D01*
Y487378D02*
Y528717D01*
X1055976Y487378D02*
Y528717D01*
X542476Y483378D02*
X564524D01*
X542476Y524717D02*
X564524D01*
Y483378D02*
Y524717D01*
X542476Y483378D02*
Y524717D01*
X778083Y488933D02*
Y493067D01*
X775917Y488933D02*
Y493067D01*
X778083D01*
X775917Y488933D02*
X778083D01*
X766083D02*
Y493067D01*
X763917Y488933D02*
Y493067D01*
X766083D01*
X763917Y488933D02*
X766083D01*
X209768Y228842D02*
X218232D01*
X209768Y234157D02*
X218232D01*
Y228842D02*
Y234157D01*
X209768Y228842D02*
Y234157D01*
X1185083Y159933D02*
Y164067D01*
X1182917Y159933D02*
Y164067D01*
X1185083D01*
X1182917Y159933D02*
X1185083D01*
X928749Y159602D02*
Y163736D01*
X926584Y159602D02*
Y163736D01*
X928749D01*
X926584Y159602D02*
X928749D01*
X672416Y160102D02*
Y164236D01*
X670251Y160102D02*
Y164236D01*
X672416D01*
X670251Y160102D02*
X672416D01*
X416083Y159933D02*
Y164067D01*
X413917Y159933D02*
Y164067D01*
X416083D01*
X413917Y159933D02*
X416083D01*
X1035917Y157433D02*
Y161567D01*
X1038083Y157433D02*
Y161567D01*
X1035917Y157433D02*
X1038083D01*
X1035917Y161567D02*
X1038083D01*
X779584Y157102D02*
Y161236D01*
X781749Y157102D02*
Y161236D01*
X779584Y157102D02*
X781749D01*
X779584Y161236D02*
X781749D01*
X523251Y157602D02*
Y161736D01*
X525416Y157602D02*
Y161736D01*
X523251Y157602D02*
X525416D01*
X523251Y161736D02*
X525416D01*
X266917Y157433D02*
Y161567D01*
X269083Y157433D02*
Y161567D01*
X266917Y157433D02*
X269083D01*
X266917Y161567D02*
X269083D01*
X1157917Y159933D02*
Y164067D01*
X1160083Y159933D02*
Y164067D01*
X1157917Y159933D02*
X1160083D01*
X1157917Y164067D02*
X1160083D01*
X901584Y159602D02*
Y163736D01*
X903749Y159602D02*
Y163736D01*
X901584Y159602D02*
X903749D01*
X901584Y163736D02*
X903749D01*
X645251Y160102D02*
Y164236D01*
X647416Y160102D02*
Y164236D01*
X645251Y160102D02*
X647416D01*
X645251Y164236D02*
X647416D01*
X388917Y159933D02*
Y164067D01*
X391083Y159933D02*
Y164067D01*
X388917Y159933D02*
X391083D01*
X388917Y164067D02*
X391083D01*
X1043433Y161083D02*
X1047567D01*
X1043433Y158917D02*
X1047567D01*
X1043433D02*
Y161083D01*
X1047567Y158917D02*
Y161083D01*
X787100Y160752D02*
X791234D01*
X787100Y158587D02*
X791234D01*
X787100D02*
Y160752D01*
X791234Y158587D02*
Y160752D01*
X530766Y161252D02*
X534900D01*
X530766Y159087D02*
X534900D01*
X530766D02*
Y161252D01*
X534900Y159087D02*
Y161252D01*
X274433Y161083D02*
X278567D01*
X274433Y158917D02*
X278567D01*
X274433D02*
Y161083D01*
X278567Y158917D02*
Y161083D01*
X1267417Y211571D02*
Y215705D01*
X1269583Y211571D02*
Y215705D01*
X1267417Y211571D02*
X1269583D01*
X1267417Y215705D02*
X1269583D01*
X1011084Y211240D02*
Y215374D01*
X1013249Y211240D02*
Y215374D01*
X1011084Y211240D02*
X1013249D01*
X1011084Y215374D02*
X1013249D01*
X754751Y211740D02*
Y215874D01*
X756916Y211740D02*
Y215874D01*
X754751Y211740D02*
X756916D01*
X754751Y215874D02*
X756916D01*
X498417Y211571D02*
Y215705D01*
X500583Y211571D02*
Y215705D01*
X498417Y211571D02*
X500583D01*
X498417Y215705D02*
X500583D01*
X1246083Y210933D02*
Y215067D01*
X1243917Y210933D02*
Y215067D01*
X1246083D01*
X1243917Y210933D02*
X1246083D01*
X989749Y210602D02*
Y214736D01*
X987584Y210602D02*
Y214736D01*
X989749D01*
X987584Y210602D02*
X989749D01*
X733416Y211102D02*
Y215236D01*
X731251Y211102D02*
Y215236D01*
X733416D01*
X731251Y211102D02*
X733416D01*
X477083Y210933D02*
Y215067D01*
X474917Y210933D02*
Y215067D01*
X477083D01*
X474917Y210933D02*
X477083D01*
X1163933Y192083D02*
X1168067D01*
X1163933Y189917D02*
X1168067D01*
X1163933D02*
Y192083D01*
X1168067Y189917D02*
Y192083D01*
X907600Y191752D02*
X911734D01*
X907600Y189587D02*
X911734D01*
X907600D02*
Y191752D01*
X911734Y189587D02*
Y191752D01*
X651266Y192252D02*
X655400D01*
X651266Y190087D02*
X655400D01*
X651266D02*
Y192252D01*
X655400Y190087D02*
Y192252D01*
X394933Y192083D02*
X399067D01*
X394933Y189917D02*
X399067D01*
X394933D02*
Y192083D01*
X399067Y189917D02*
Y192083D01*
X1157583Y341295D02*
Y345429D01*
X1155417Y341295D02*
Y345429D01*
X1157583D01*
X1155417Y341295D02*
X1157583D01*
X901249Y340965D02*
Y345098D01*
X899084Y340965D02*
Y345098D01*
X901249D01*
X899084Y340965D02*
X901249D01*
X644916Y341465D02*
Y345598D01*
X642751Y341465D02*
Y345598D01*
X644916D01*
X642751Y341465D02*
X644916D01*
X388583Y341295D02*
Y345429D01*
X386417Y341295D02*
Y345429D01*
X388583D01*
X386417Y341295D02*
X388583D01*
X1160417D02*
Y345429D01*
X1162583Y341295D02*
Y345429D01*
X1160417Y341295D02*
X1162583D01*
X1160417Y345429D02*
X1162583D01*
X904084Y340965D02*
Y345098D01*
X906249Y340965D02*
Y345098D01*
X904084Y340965D02*
X906249D01*
X904084Y345098D02*
X906249D01*
X647751Y341465D02*
Y345598D01*
X649916Y341465D02*
Y345598D01*
X647751Y341465D02*
X649916D01*
X647751Y345598D02*
X649916D01*
X391417Y341295D02*
Y345429D01*
X393583Y341295D02*
Y345429D01*
X391417Y341295D02*
X393583D01*
X391417Y345429D02*
X393583D01*
X1039232Y303343D02*
Y308658D01*
X1030768Y303343D02*
Y308658D01*
Y303343D02*
X1039232D01*
X1030768Y308658D02*
X1039232D01*
X782899Y303012D02*
Y308327D01*
X774434Y303012D02*
Y308327D01*
Y303012D02*
X782899D01*
X774434Y308327D02*
X782899D01*
X526566Y303512D02*
Y308827D01*
X518101Y303512D02*
Y308827D01*
Y303512D02*
X526566D01*
X518101Y308827D02*
X526566D01*
X270232Y303343D02*
Y308658D01*
X261768Y303343D02*
Y308658D01*
Y303343D02*
X270232D01*
X261768Y308658D02*
X270232D01*
X1047768Y303343D02*
Y308658D01*
X1056232Y303343D02*
Y308658D01*
X1047768D02*
X1056232D01*
X1047768Y303343D02*
X1056232D01*
X791434Y303012D02*
Y308327D01*
X799899Y303012D02*
Y308327D01*
X791434D02*
X799899D01*
X791434Y303012D02*
X799899D01*
X535101Y303512D02*
Y308827D01*
X543566Y303512D02*
Y308827D01*
X535101D02*
X543566D01*
X535101Y303512D02*
X543566D01*
X278768Y303343D02*
Y308658D01*
X287232Y303343D02*
Y308658D01*
X278768D02*
X287232D01*
X278768Y303343D02*
X287232D01*
X450674Y323933D02*
Y328067D01*
X448508Y323933D02*
Y328067D01*
X450674D01*
X448508Y323933D02*
X450674D01*
X438628D02*
Y328067D01*
X436463Y323933D02*
Y328067D01*
X438628D01*
X436463Y323933D02*
X438628D01*
X426583D02*
Y328067D01*
X424417Y323933D02*
Y328067D01*
X426583D01*
X424417Y323933D02*
X426583D01*
X450492Y335295D02*
Y339429D01*
X448326Y335295D02*
Y339429D01*
X450492D01*
X448326Y335295D02*
X450492D01*
X438537D02*
Y339429D01*
X436372Y335295D02*
Y339429D01*
X438537D01*
X436372Y335295D02*
X438537D01*
X426583D02*
Y339429D01*
X424417Y335295D02*
Y339429D01*
X426583D01*
X424417Y335295D02*
X426583D01*
X706810Y324571D02*
Y328705D01*
X704645Y324571D02*
Y328705D01*
X706810D01*
X704645Y324571D02*
X706810D01*
X694765D02*
Y328705D01*
X692599Y324571D02*
Y328705D01*
X694765D01*
X692599Y324571D02*
X694765D01*
X682583Y324433D02*
Y328567D01*
X680417Y324433D02*
Y328567D01*
X682583D01*
X680417Y324433D02*
X682583D01*
X706355Y335933D02*
Y340067D01*
X704190Y335933D02*
Y340067D01*
X706355D01*
X704190Y335933D02*
X706355D01*
X694401D02*
Y340067D01*
X692236Y335933D02*
Y340067D01*
X694401D01*
X692236Y335933D02*
X694401D01*
X682446D02*
Y340067D01*
X680281Y335933D02*
Y340067D01*
X682446D01*
X680281Y335933D02*
X682446D01*
X964583Y323933D02*
Y328067D01*
X962417Y323933D02*
Y328067D01*
X964583D01*
X962417Y323933D02*
X964583D01*
X953401Y323571D02*
Y327705D01*
X951235Y323571D02*
Y327705D01*
X953401D01*
X951235Y323571D02*
X953401D01*
X941355D02*
Y327705D01*
X939190Y323571D02*
Y327705D01*
X941355D01*
X939190Y323571D02*
X941355D01*
X964719Y334933D02*
Y339067D01*
X962554Y334933D02*
Y339067D01*
X964719D01*
X962554Y334933D02*
X964719D01*
X952765D02*
Y339067D01*
X950599Y334933D02*
Y339067D01*
X952765D01*
X950599Y334933D02*
X952765D01*
X940810D02*
Y339067D01*
X938645Y334933D02*
Y339067D01*
X940810D01*
X938645Y334933D02*
X940810D01*
X1220083Y323571D02*
Y327705D01*
X1217917Y323571D02*
Y327705D01*
X1220083D01*
X1217917Y323571D02*
X1220083D01*
X1208037D02*
Y327705D01*
X1205872Y323571D02*
Y327705D01*
X1208037D01*
X1205872Y323571D02*
X1208037D01*
X1195992D02*
Y327705D01*
X1193826Y323571D02*
Y327705D01*
X1195992D01*
X1193826Y323571D02*
X1195992D01*
X1219083Y334933D02*
Y339067D01*
X1216917Y334933D02*
Y339067D01*
X1219083D01*
X1216917Y334933D02*
X1219083D01*
X1207128D02*
Y339067D01*
X1204963Y334933D02*
Y339067D01*
X1207128D01*
X1204963Y334933D02*
X1207128D01*
X1195173D02*
Y339067D01*
X1193008Y334933D02*
Y339067D01*
X1195173D01*
X1193008Y334933D02*
X1195173D01*
X1149917Y341571D02*
Y345705D01*
X1152083Y341571D02*
Y345705D01*
X1149917Y341571D02*
X1152083D01*
X1149917Y345705D02*
X1152083D01*
X893584Y341240D02*
Y345374D01*
X895749Y341240D02*
Y345374D01*
X893584Y341240D02*
X895749D01*
X893584Y345374D02*
X895749D01*
X637251Y341740D02*
Y345874D01*
X639416Y341740D02*
Y345874D01*
X637251Y341740D02*
X639416D01*
X637251Y345874D02*
X639416D01*
X380917Y341571D02*
Y345705D01*
X383083Y341571D02*
Y345705D01*
X380917Y341571D02*
X383083D01*
X380917Y345705D02*
X383083D01*
X1089323Y358842D02*
Y364158D01*
X1097787Y358842D02*
Y364158D01*
X1089323D02*
X1097787D01*
X1089323Y358842D02*
X1097787D01*
X832990Y358512D02*
Y363827D01*
X841454Y358512D02*
Y363827D01*
X832990D02*
X841454D01*
X832990Y358512D02*
X841454D01*
X576656Y359012D02*
Y364327D01*
X585121Y359012D02*
Y364327D01*
X576656D02*
X585121D01*
X576656Y359012D02*
X585121D01*
X320323Y358842D02*
Y364158D01*
X328787Y358842D02*
Y364158D01*
X320323D02*
X328787D01*
X320323Y358842D02*
X328787D01*
X1138842Y325606D02*
Y334071D01*
X1144158Y325606D02*
Y334071D01*
X1138842Y325606D02*
X1144158D01*
X1138842Y334071D02*
X1144158D01*
X882509Y325276D02*
Y333740D01*
X887824Y325276D02*
Y333740D01*
X882509Y325276D02*
X887824D01*
X882509Y333740D02*
X887824D01*
X626176Y325776D02*
Y334240D01*
X631491Y325776D02*
Y334240D01*
X626176Y325776D02*
X631491D01*
X626176Y334240D02*
X631491D01*
X369843Y325606D02*
Y334071D01*
X375157Y325606D02*
Y334071D01*
X369843Y325606D02*
X375157D01*
X369843Y334071D02*
X375157D01*
X1134917Y369933D02*
Y374067D01*
X1137083Y369933D02*
Y374067D01*
X1134917Y369933D02*
X1137083D01*
X1134917Y374067D02*
X1137083D01*
X878584Y369602D02*
Y373736D01*
X880749Y369602D02*
Y373736D01*
X878584Y369602D02*
X880749D01*
X878584Y373736D02*
X880749D01*
X622251Y370102D02*
Y374236D01*
X624416Y370102D02*
Y374236D01*
X622251Y370102D02*
X624416D01*
X622251Y374236D02*
X624416D01*
X365917Y369933D02*
Y374067D01*
X368083Y369933D02*
Y374067D01*
X365917Y369933D02*
X368083D01*
X365917Y374067D02*
X368083D01*
X1129417Y369933D02*
Y374067D01*
X1131583Y369933D02*
Y374067D01*
X1129417Y369933D02*
X1131583D01*
X1129417Y374067D02*
X1131583D01*
X873084Y369602D02*
Y373736D01*
X875249Y369602D02*
Y373736D01*
X873084Y369602D02*
X875249D01*
X873084Y373736D02*
X875249D01*
X616751Y370102D02*
Y374236D01*
X618916Y370102D02*
Y374236D01*
X616751Y370102D02*
X618916D01*
X616751Y374236D02*
X618916D01*
X360417Y369933D02*
Y374067D01*
X362583Y369933D02*
Y374067D01*
X360417Y369933D02*
X362583D01*
X360417Y374067D02*
X362583D01*
X1124842Y325606D02*
Y334071D01*
X1130157Y325606D02*
Y334071D01*
X1124842Y325606D02*
X1130157D01*
X1124842Y334071D02*
X1130157D01*
X868509Y325276D02*
Y333740D01*
X873824Y325276D02*
Y333740D01*
X868509Y325276D02*
X873824D01*
X868509Y333740D02*
X873824D01*
X612176Y325776D02*
Y334240D01*
X617491Y325776D02*
Y334240D01*
X612176Y325776D02*
X617491D01*
X612176Y334240D02*
X617491D01*
X355842Y325606D02*
Y334071D01*
X361157Y325606D02*
Y334071D01*
X355842Y325606D02*
X361157D01*
X355842Y334071D02*
X361157D01*
X1090583Y383571D02*
Y387705D01*
X1088417Y383571D02*
Y387705D01*
X1090583D01*
X1088417Y383571D02*
X1090583D01*
X834249Y383240D02*
Y387374D01*
X832084Y383240D02*
Y387374D01*
X834249D01*
X832084Y383240D02*
X834249D01*
X577916Y383740D02*
Y387874D01*
X575751Y383740D02*
Y387874D01*
X577916D01*
X575751Y383740D02*
X577916D01*
X321583Y383571D02*
Y387705D01*
X319417Y383571D02*
Y387705D01*
X321583D01*
X319417Y383571D02*
X321583D01*
X1101917Y351295D02*
Y355429D01*
X1104083Y351295D02*
Y355429D01*
X1101917Y351295D02*
X1104083D01*
X1101917Y355429D02*
X1104083D01*
X845584Y350965D02*
Y355098D01*
X847749Y350965D02*
Y355098D01*
X845584Y350965D02*
X847749D01*
X845584Y355098D02*
X847749D01*
X589251Y351465D02*
Y355598D01*
X591416Y351465D02*
Y355598D01*
X589251Y351465D02*
X591416D01*
X589251Y355598D02*
X591416D01*
X332917Y351295D02*
Y355429D01*
X335083Y351295D02*
Y355429D01*
X332917Y351295D02*
X335083D01*
X332917Y355429D02*
X335083D01*
X1245571Y235417D02*
X1249705D01*
X1245571Y237583D02*
X1249705D01*
Y235417D02*
Y237583D01*
X1245571Y235417D02*
Y237583D01*
X989237Y235087D02*
X993371D01*
X989237Y237252D02*
X993371D01*
Y235087D02*
Y237252D01*
X989237Y235087D02*
Y237252D01*
X732904Y235587D02*
X737038D01*
X732904Y237752D02*
X737038D01*
Y235587D02*
Y237752D01*
X732904Y235587D02*
Y237752D01*
X476571Y235417D02*
X480705D01*
X476571Y237583D02*
X480705D01*
Y235417D02*
Y237583D01*
X476571Y235417D02*
Y237583D01*
X1250232Y240843D02*
Y246158D01*
X1241768Y240843D02*
Y246158D01*
Y240843D02*
X1250232D01*
X1241768Y246158D02*
X1250232D01*
X993899Y240512D02*
Y245827D01*
X985434Y240512D02*
Y245827D01*
Y240512D02*
X993899D01*
X985434Y245827D02*
X993899D01*
X737566Y241012D02*
Y246327D01*
X729101Y241012D02*
Y246327D01*
Y241012D02*
X737566D01*
X729101Y246327D02*
X737566D01*
X481232Y240843D02*
Y246158D01*
X472768Y240843D02*
Y246158D01*
Y240843D02*
X481232D01*
X472768Y246158D02*
X481232D01*
X1241823Y248843D02*
Y254157D01*
X1250287Y248843D02*
Y254157D01*
X1241823D02*
X1250287D01*
X1241823Y248843D02*
X1250287D01*
X985489Y248512D02*
Y253827D01*
X993954Y248512D02*
Y253827D01*
X985489D02*
X993954D01*
X985489Y248512D02*
X993954D01*
X729156Y249012D02*
Y254327D01*
X737621Y249012D02*
Y254327D01*
X729156D02*
X737621D01*
X729156Y249012D02*
X737621D01*
X472823Y248843D02*
Y254157D01*
X481287Y248843D02*
Y254157D01*
X472823D02*
X481287D01*
X472823Y248843D02*
X481287D01*
X1230842Y212787D02*
X1236158D01*
X1230842Y204323D02*
X1236158D01*
Y212787D01*
X1230842Y204323D02*
Y212787D01*
X974509Y212457D02*
X979824D01*
X974509Y203992D02*
X979824D01*
Y212457D01*
X974509Y203992D02*
Y212457D01*
X718176Y212957D02*
X723491D01*
X718176Y204492D02*
X723491D01*
Y212957D01*
X718176Y204492D02*
Y212957D01*
X461842Y212787D02*
X467158D01*
X461842Y204323D02*
X467158D01*
Y212787D01*
X461842Y204323D02*
Y212787D01*
X1217342Y212677D02*
X1222657D01*
X1217342Y204213D02*
X1222657D01*
Y212677D01*
X1217342Y204213D02*
Y212677D01*
X961009Y212347D02*
X966324D01*
X961009Y203882D02*
X966324D01*
Y212347D01*
X961009Y203882D02*
Y212347D01*
X704676Y212846D02*
X709991D01*
X704676Y204382D02*
X709991D01*
Y212846D01*
X704676Y204382D02*
Y212846D01*
X448343Y212677D02*
X453657D01*
X448343Y204213D02*
X453657D01*
Y212677D01*
X448343Y204213D02*
Y212677D01*
X1206433Y238083D02*
X1210567D01*
X1206433Y235917D02*
X1210567D01*
X1206433D02*
Y238083D01*
X1210567Y235917D02*
Y238083D01*
X950100Y237752D02*
X954234D01*
X950100Y235587D02*
X954234D01*
X950100D02*
Y237752D01*
X954234Y235587D02*
Y237752D01*
X693766Y238252D02*
X697900D01*
X693766Y236087D02*
X697900D01*
X693766D02*
Y238252D01*
X697900Y236087D02*
Y238252D01*
X437433Y238083D02*
X441567D01*
X437433Y235917D02*
X441567D01*
X437433D02*
Y238083D01*
X441567Y235917D02*
Y238083D01*
X1206213Y241342D02*
Y246657D01*
X1214677Y241342D02*
Y246657D01*
X1206213D02*
X1214677D01*
X1206213Y241342D02*
X1214677D01*
X949879Y241012D02*
Y246327D01*
X958344Y241012D02*
Y246327D01*
X949879D02*
X958344D01*
X949879Y241012D02*
X958344D01*
X693546Y241512D02*
Y246827D01*
X702010Y241512D02*
Y246827D01*
X693546D02*
X702010D01*
X693546Y241512D02*
X702010D01*
X437213Y241342D02*
Y246657D01*
X445677Y241342D02*
Y246657D01*
X437213D02*
X445677D01*
X437213Y241342D02*
X445677D01*
X1214732Y249342D02*
Y254658D01*
X1206268Y249342D02*
Y254658D01*
Y249342D02*
X1214732D01*
X1206268Y254658D02*
X1214732D01*
X958399Y249012D02*
Y254327D01*
X949934Y249012D02*
Y254327D01*
Y249012D02*
X958399D01*
X949934Y254327D02*
X958399D01*
X702066Y249512D02*
Y254827D01*
X693601Y249512D02*
Y254827D01*
Y249512D02*
X702066D01*
X693601Y254827D02*
X702066D01*
X445732Y249342D02*
Y254658D01*
X437268Y249342D02*
Y254658D01*
Y249342D02*
X445732D01*
X437268Y254658D02*
X445732D01*
X1120917Y177933D02*
Y182067D01*
X1123083Y177933D02*
Y182067D01*
X1120917Y177933D02*
X1123083D01*
X1120917Y182067D02*
X1123083D01*
X864584Y177602D02*
Y181736D01*
X866749Y177602D02*
Y181736D01*
X864584Y177602D02*
X866749D01*
X864584Y181736D02*
X866749D01*
X608251Y178102D02*
Y182236D01*
X610416Y178102D02*
Y182236D01*
X608251Y178102D02*
X610416D01*
X608251Y182236D02*
X610416D01*
X351917Y177933D02*
Y182067D01*
X354083Y177933D02*
Y182067D01*
X351917Y177933D02*
X354083D01*
X351917Y182067D02*
X354083D01*
X1229583Y286433D02*
Y290567D01*
X1227417Y286433D02*
Y290567D01*
X1229583D01*
X1227417Y286433D02*
X1229583D01*
X973249Y286102D02*
Y290236D01*
X971084Y286102D02*
Y290236D01*
X973249D01*
X971084Y286102D02*
X973249D01*
X716916Y286602D02*
Y290736D01*
X714751Y286602D02*
Y290736D01*
X716916D01*
X714751Y286602D02*
X716916D01*
X460583Y286433D02*
Y290567D01*
X458417Y286433D02*
Y290567D01*
X460583D01*
X458417Y286433D02*
X460583D01*
X1224341Y286537D02*
Y290671D01*
X1222175Y286537D02*
Y290671D01*
X1224341D01*
X1222175Y286537D02*
X1224341D01*
X968007Y286207D02*
Y290340D01*
X965842Y286207D02*
Y290340D01*
X968007D01*
X965842Y286207D02*
X968007D01*
X711674Y286707D02*
Y290841D01*
X709509Y286707D02*
Y290841D01*
X711674D01*
X709509Y286707D02*
X711674D01*
X455341Y286537D02*
Y290671D01*
X453175Y286537D02*
Y290671D01*
X455341D01*
X453175Y286537D02*
X455341D01*
X1100433Y170917D02*
X1104567D01*
X1100433Y173083D02*
X1104567D01*
Y170917D02*
Y173083D01*
X1100433Y170917D02*
Y173083D01*
X844100Y170587D02*
X848234D01*
X844100Y172752D02*
X848234D01*
Y170587D02*
Y172752D01*
X844100Y170587D02*
Y172752D01*
X587766Y171087D02*
X591900D01*
X587766Y173252D02*
X591900D01*
Y171087D02*
Y173252D01*
X587766Y171087D02*
Y173252D01*
X331433Y170917D02*
X335567D01*
X331433Y173083D02*
X335567D01*
Y170917D02*
Y173083D01*
X331433Y170917D02*
Y173083D01*
X1100571Y166417D02*
X1104705D01*
X1100571Y168583D02*
X1104705D01*
Y166417D02*
Y168583D01*
X1100571Y166417D02*
Y168583D01*
X844238Y166087D02*
X848371D01*
X844238Y168252D02*
X848371D01*
Y166087D02*
Y168252D01*
X844238Y166087D02*
Y168252D01*
X587904Y166587D02*
X592038D01*
X587904Y168752D02*
X592038D01*
Y166587D02*
Y168752D01*
X587904Y166587D02*
Y168752D01*
X331571Y166417D02*
X335705D01*
X331571Y168583D02*
X335705D01*
Y166417D02*
Y168583D01*
X331571Y166417D02*
Y168583D01*
X1152417Y178433D02*
Y182567D01*
X1154583Y178433D02*
Y182567D01*
X1152417Y178433D02*
X1154583D01*
X1152417Y182567D02*
X1154583D01*
X896084Y178102D02*
Y182236D01*
X898249Y178102D02*
Y182236D01*
X896084Y178102D02*
X898249D01*
X896084Y182236D02*
X898249D01*
X639751Y178602D02*
Y182736D01*
X641916Y178602D02*
Y182736D01*
X639751Y178602D02*
X641916D01*
X639751Y182736D02*
X641916D01*
X383417Y178433D02*
Y182567D01*
X385583Y178433D02*
Y182567D01*
X383417Y178433D02*
X385583D01*
X383417Y182567D02*
X385583D01*
X1087024Y222843D02*
Y228157D01*
X1095488Y222843D02*
Y228157D01*
X1087024D02*
X1095488D01*
X1087024Y222843D02*
X1095488D01*
X830690Y222512D02*
Y227827D01*
X839155Y222512D02*
Y227827D01*
X830690D02*
X839155D01*
X830690Y222512D02*
X839155D01*
X574357Y223012D02*
Y228327D01*
X582822Y223012D02*
Y228327D01*
X574357D02*
X582822D01*
X574357Y223012D02*
X582822D01*
X318024Y222843D02*
Y228157D01*
X326488Y222843D02*
Y228157D01*
X318024D02*
X326488D01*
X318024Y222843D02*
X326488D01*
X218657Y122929D02*
Y131394D01*
X213342Y122929D02*
Y131394D01*
X218657D01*
X213342Y122929D02*
X218657D01*
X238843Y285929D02*
Y294394D01*
X244158Y285929D02*
Y294394D01*
X238843Y285929D02*
X244158D01*
X238843Y294394D02*
X244158D01*
X218657Y139106D02*
Y147571D01*
X213342Y139106D02*
Y147571D01*
X218657D01*
X213342Y139106D02*
X218657D01*
X249083Y285433D02*
Y289567D01*
X246917Y285433D02*
Y289567D01*
X249083D01*
X246917Y285433D02*
X249083D01*
X1072342Y474780D02*
X1077658D01*
X1072342Y466315D02*
X1077658D01*
Y474780D01*
X1072342Y466315D02*
Y474780D01*
X558843Y470780D02*
X564157D01*
X558843Y462315D02*
X564157D01*
Y470780D01*
X558843Y462315D02*
Y470780D01*
X1050842Y474780D02*
X1056157D01*
X1050842Y466315D02*
X1056157D01*
Y474780D01*
X1050842Y466315D02*
Y474780D01*
X537343Y470780D02*
X542658D01*
X537343Y462315D02*
X542658D01*
Y470780D01*
X537343Y462315D02*
Y470780D01*
X992768Y470890D02*
Y476205D01*
X1001232Y470890D02*
Y476205D01*
X992768D02*
X1001232D01*
X992768Y470890D02*
X1001232D01*
X479268Y466890D02*
Y472205D01*
X487732Y466890D02*
Y472205D01*
X479268D02*
X487732D01*
X479268Y466890D02*
X487732D01*
X992768Y481033D02*
Y486348D01*
X1001232Y481033D02*
Y486348D01*
X992768D02*
X1001232D01*
X992768Y481033D02*
X1001232D01*
X479268Y477033D02*
Y482348D01*
X487732Y477033D02*
Y482348D01*
X479268D02*
X487732D01*
X479268Y477033D02*
X487732D01*
X992768Y491176D02*
Y496490D01*
X1001232Y491176D02*
Y496490D01*
X992768D02*
X1001232D01*
X992768Y491176D02*
X1001232D01*
X479268Y487176D02*
Y492490D01*
X487732Y487176D02*
Y492490D01*
X479268D02*
X487732D01*
X479268Y487176D02*
X487732D01*
X992768Y501318D02*
Y506633D01*
X1001232Y501318D02*
Y506633D01*
X992768D02*
X1001232D01*
X992768Y501318D02*
X1001232D01*
X479268Y497318D02*
Y502633D01*
X487732Y497318D02*
Y502633D01*
X479268D02*
X487732D01*
X479268Y497318D02*
X487732D01*
X992768Y511461D02*
Y516776D01*
X1001232Y511461D02*
Y516776D01*
X992768D02*
X1001232D01*
X992768Y511461D02*
X1001232D01*
X479268Y507461D02*
Y512776D01*
X487732Y507461D02*
Y512776D01*
X479268D02*
X487732D01*
X479268Y507461D02*
X487732D01*
X992768Y521604D02*
Y526919D01*
X1001232Y521604D02*
Y526919D01*
X992768D02*
X1001232D01*
X992768Y521604D02*
X1001232D01*
X479268Y517604D02*
Y522919D01*
X487732Y517604D02*
Y522919D01*
X479268D02*
X487732D01*
X479268Y517604D02*
X487732D01*
X992768Y531747D02*
Y537062D01*
X1001232Y531747D02*
Y537062D01*
X992768D02*
X1001232D01*
X992768Y531747D02*
X1001232D01*
X479268Y527747D02*
Y533062D01*
X487732Y527747D02*
Y533062D01*
X479268D02*
X487732D01*
X479268Y527747D02*
X487732D01*
X992768Y541890D02*
Y547205D01*
X1001232Y541890D02*
Y547205D01*
X992768D02*
X1001232D01*
X992768Y541890D02*
X1001232D01*
X479268Y537890D02*
Y543205D01*
X487732Y537890D02*
Y543205D01*
X479268D02*
X487732D01*
X479268Y537890D02*
X487732D01*
X1088701Y524736D02*
X1101299D01*
X1088701Y548358D02*
X1101299D01*
X1088701Y524736D02*
Y548358D01*
X1101299Y524736D02*
Y548358D01*
X575201Y520736D02*
X587799D01*
X575201Y544358D02*
X587799D01*
X575201Y520736D02*
Y544358D01*
X587799Y520736D02*
Y544358D01*
X1033701Y525736D02*
X1046299D01*
X1033701Y549358D02*
X1046299D01*
X1033701Y525736D02*
Y549358D01*
X1046299Y525736D02*
Y549358D01*
X520201Y521736D02*
X532799D01*
X520201Y545358D02*
X532799D01*
X520201Y521736D02*
Y545358D01*
X532799Y521736D02*
Y545358D01*
D90*
X1095000Y526325D02*
D03*
X1040000Y527325D02*
D03*
D91*
X581500Y522325D02*
D03*
X526500Y523325D02*
D03*
M02*
