G04*
G04 #@! TF.GenerationSoftware,Altium Limited,Altium Designer,20.1.12 (249)*
G04*
G04 Layer_Color=16711935*
%FSLAX25Y25*%
%MOIN*%
G70*
G04*
G04 #@! TF.SameCoordinates,0DC69EFF-8178-42D1-8DC1-E705200A60BA*
G04*
G04*
G04 #@! TF.FilePolarity,Positive*
G04*
G01*
G75*
%ADD12C,0.00787*%
%ADD89C,0.00394*%
D12*
X190500Y65000D02*
X1279500D01*
X1279500Y570500D02*
X1279500Y65000D01*
X190500Y570500D02*
X1279500D01*
X190500D02*
X190500Y65000D01*
D89*
X1128500Y352361D02*
Y350394D01*
X1128894Y350000D01*
X1129681D01*
X1130074Y350394D01*
Y352361D01*
X1130861Y350000D02*
X1131649D01*
X1131255D01*
Y352361D01*
X1130861Y351968D01*
X1132829D02*
X1133223Y352361D01*
X1134010D01*
X1134404Y351968D01*
Y350394D01*
X1134010Y350000D01*
X1133223D01*
X1132829Y350394D01*
Y351968D01*
X1135191Y349606D02*
X1136765D01*
X1138733Y350000D02*
Y352361D01*
X1137552Y351181D01*
X1139126D01*
X872167Y352031D02*
Y350063D01*
X872560Y349669D01*
X873347D01*
X873741Y350063D01*
Y352031D01*
X874528Y349669D02*
X875315D01*
X874922D01*
Y352031D01*
X874528Y351637D01*
X876496D02*
X876890Y352031D01*
X877677D01*
X878070Y351637D01*
Y350063D01*
X877677Y349669D01*
X876890D01*
X876496Y350063D01*
Y351637D01*
X878857Y349276D02*
X880432D01*
X881219Y351637D02*
X881612Y352031D01*
X882400D01*
X882793Y351637D01*
Y351244D01*
X882400Y350850D01*
X882006D01*
X882400D01*
X882793Y350456D01*
Y350063D01*
X882400Y349669D01*
X881612D01*
X881219Y350063D01*
X615833Y352531D02*
Y350563D01*
X616227Y350169D01*
X617014D01*
X617408Y350563D01*
Y352531D01*
X618195Y350169D02*
X618982D01*
X618588D01*
Y352531D01*
X618195Y352137D01*
X620163D02*
X620556Y352531D01*
X621343D01*
X621737Y352137D01*
Y350563D01*
X621343Y350169D01*
X620556D01*
X620163Y350563D01*
Y352137D01*
X622524Y349776D02*
X624098D01*
X626460Y350169D02*
X624886D01*
X626460Y351744D01*
Y352137D01*
X626066Y352531D01*
X625279D01*
X624886Y352137D01*
X359500Y352361D02*
Y350394D01*
X359894Y350000D01*
X360681D01*
X361074Y350394D01*
Y352361D01*
X361861Y350000D02*
X362649D01*
X362255D01*
Y352361D01*
X361861Y351968D01*
X363829D02*
X364223Y352361D01*
X365010D01*
X365404Y351968D01*
Y350394D01*
X365010Y350000D01*
X364223D01*
X363829Y350394D01*
Y351968D01*
X366191Y349606D02*
X367765D01*
X368552Y350000D02*
X369339D01*
X368946D01*
Y352361D01*
X368552Y351968D01*
X1223000Y229361D02*
Y227394D01*
X1223394Y227000D01*
X1224181D01*
X1224574Y227394D01*
Y229361D01*
X1225361Y227394D02*
X1225755Y227000D01*
X1226542D01*
X1226936Y227394D01*
Y228968D01*
X1226542Y229361D01*
X1225755D01*
X1225361Y228968D01*
Y228574D01*
X1225755Y228181D01*
X1226936D01*
X1227723Y226606D02*
X1229297D01*
X1231265Y227000D02*
Y229361D01*
X1230084Y228181D01*
X1231659D01*
X966667Y229031D02*
Y227063D01*
X967060Y226669D01*
X967847D01*
X968241Y227063D01*
Y229031D01*
X969028Y227063D02*
X969422Y226669D01*
X970209D01*
X970602Y227063D01*
Y228637D01*
X970209Y229031D01*
X969422D01*
X969028Y228637D01*
Y228244D01*
X969422Y227850D01*
X970602D01*
X971389Y226276D02*
X972964D01*
X973751Y228637D02*
X974144Y229031D01*
X974932D01*
X975325Y228637D01*
Y228244D01*
X974932Y227850D01*
X974538D01*
X974932D01*
X975325Y227456D01*
Y227063D01*
X974932Y226669D01*
X974144D01*
X973751Y227063D01*
X710333Y229531D02*
Y227563D01*
X710727Y227169D01*
X711514D01*
X711908Y227563D01*
Y229531D01*
X712695Y227563D02*
X713088Y227169D01*
X713875D01*
X714269Y227563D01*
Y229137D01*
X713875Y229531D01*
X713088D01*
X712695Y229137D01*
Y228744D01*
X713088Y228350D01*
X714269D01*
X715056Y226776D02*
X716631D01*
X718992Y227169D02*
X717418D01*
X718992Y228744D01*
Y229137D01*
X718598Y229531D01*
X717811D01*
X717418Y229137D01*
X454000Y229361D02*
Y227394D01*
X454394Y227000D01*
X455181D01*
X455574Y227394D01*
Y229361D01*
X456361Y227394D02*
X456755Y227000D01*
X457542D01*
X457936Y227394D01*
Y228968D01*
X457542Y229361D01*
X456755D01*
X456361Y228968D01*
Y228574D01*
X456755Y228181D01*
X457936D01*
X458723Y226606D02*
X460297D01*
X461084Y227000D02*
X461871D01*
X461478D01*
Y229361D01*
X461084Y228968D01*
X1132000Y176361D02*
Y174394D01*
X1132394Y174000D01*
X1133181D01*
X1133574Y174394D01*
Y176361D01*
X1134361Y175968D02*
X1134755Y176361D01*
X1135542D01*
X1135936Y175968D01*
Y175574D01*
X1135542Y175181D01*
X1135936Y174787D01*
Y174394D01*
X1135542Y174000D01*
X1134755D01*
X1134361Y174394D01*
Y174787D01*
X1134755Y175181D01*
X1134361Y175574D01*
Y175968D01*
X1134755Y175181D02*
X1135542D01*
X1136723Y173606D02*
X1138297D01*
X1140265Y174000D02*
Y176361D01*
X1139084Y175181D01*
X1140659D01*
X875667Y176031D02*
Y174063D01*
X876060Y173669D01*
X876847D01*
X877241Y174063D01*
Y176031D01*
X878028Y175637D02*
X878422Y176031D01*
X879209D01*
X879602Y175637D01*
Y175244D01*
X879209Y174850D01*
X879602Y174456D01*
Y174063D01*
X879209Y173669D01*
X878422D01*
X878028Y174063D01*
Y174456D01*
X878422Y174850D01*
X878028Y175244D01*
Y175637D01*
X878422Y174850D02*
X879209D01*
X880389Y173276D02*
X881964D01*
X882751Y175637D02*
X883144Y176031D01*
X883932D01*
X884325Y175637D01*
Y175244D01*
X883932Y174850D01*
X883538D01*
X883932D01*
X884325Y174456D01*
Y174063D01*
X883932Y173669D01*
X883144D01*
X882751Y174063D01*
X619333Y176531D02*
Y174563D01*
X619727Y174169D01*
X620514D01*
X620908Y174563D01*
Y176531D01*
X621695Y176137D02*
X622088Y176531D01*
X622875D01*
X623269Y176137D01*
Y175744D01*
X622875Y175350D01*
X623269Y174956D01*
Y174563D01*
X622875Y174169D01*
X622088D01*
X621695Y174563D01*
Y174956D01*
X622088Y175350D01*
X621695Y175744D01*
Y176137D01*
X622088Y175350D02*
X622875D01*
X624056Y173776D02*
X625631D01*
X627992Y174169D02*
X626418D01*
X627992Y175744D01*
Y176137D01*
X627598Y176531D01*
X626811D01*
X626418Y176137D01*
X363000Y176361D02*
Y174394D01*
X363394Y174000D01*
X364181D01*
X364574Y174394D01*
Y176361D01*
X365361Y175968D02*
X365755Y176361D01*
X366542D01*
X366936Y175968D01*
Y175574D01*
X366542Y175181D01*
X366936Y174787D01*
Y174394D01*
X366542Y174000D01*
X365755D01*
X365361Y174394D01*
Y174787D01*
X365755Y175181D01*
X365361Y175574D01*
Y175968D01*
X365755Y175181D02*
X366542D01*
X367723Y173606D02*
X369297D01*
X370084Y174000D02*
X370871D01*
X370478D01*
Y176361D01*
X370084Y175968D01*
X1048500Y174861D02*
Y172894D01*
X1048894Y172500D01*
X1049681D01*
X1050074Y172894D01*
Y174861D01*
X1052436D02*
X1051649Y174468D01*
X1050861Y173681D01*
Y172894D01*
X1051255Y172500D01*
X1052042D01*
X1052436Y172894D01*
Y173287D01*
X1052042Y173681D01*
X1050861D01*
X1053223Y172106D02*
X1054797D01*
X1056765Y172500D02*
Y174861D01*
X1055584Y173681D01*
X1057159D01*
X792167Y174531D02*
Y172563D01*
X792560Y172169D01*
X793347D01*
X793741Y172563D01*
Y174531D01*
X796102D02*
X795315Y174137D01*
X794528Y173350D01*
Y172563D01*
X794922Y172169D01*
X795709D01*
X796102Y172563D01*
Y172956D01*
X795709Y173350D01*
X794528D01*
X796889Y171776D02*
X798464D01*
X799251Y174137D02*
X799645Y174531D01*
X800432D01*
X800825Y174137D01*
Y173744D01*
X800432Y173350D01*
X800038D01*
X800432D01*
X800825Y172956D01*
Y172563D01*
X800432Y172169D01*
X799645D01*
X799251Y172563D01*
X535833Y175031D02*
Y173063D01*
X536227Y172669D01*
X537014D01*
X537408Y173063D01*
Y175031D01*
X539769D02*
X538982Y174637D01*
X538195Y173850D01*
Y173063D01*
X538588Y172669D01*
X539375D01*
X539769Y173063D01*
Y173456D01*
X539375Y173850D01*
X538195D01*
X540556Y172276D02*
X542131D01*
X544492Y172669D02*
X542918D01*
X544492Y174244D01*
Y174637D01*
X544098Y175031D01*
X543311D01*
X542918Y174637D01*
X279500Y174861D02*
Y172894D01*
X279894Y172500D01*
X280681D01*
X281074Y172894D01*
Y174861D01*
X283436D02*
X282649Y174468D01*
X281861Y173681D01*
Y172894D01*
X282255Y172500D01*
X283042D01*
X283436Y172894D01*
Y173287D01*
X283042Y173681D01*
X281861D01*
X284223Y172106D02*
X285797D01*
X286584Y172500D02*
X287371D01*
X286978D01*
Y174861D01*
X286584Y174468D01*
X1047201Y241861D02*
Y239894D01*
X1047594Y239500D01*
X1048382D01*
X1048775Y239894D01*
Y241861D01*
X1051136D02*
X1049562D01*
Y240681D01*
X1050349Y241074D01*
X1050743D01*
X1051136Y240681D01*
Y239894D01*
X1050743Y239500D01*
X1049956D01*
X1049562Y239894D01*
X1051924Y239106D02*
X1053498D01*
X1055466Y239500D02*
Y241861D01*
X1054285Y240681D01*
X1055859D01*
X790868Y241531D02*
Y239563D01*
X791261Y239169D01*
X792048D01*
X792442Y239563D01*
Y241531D01*
X794803D02*
X793229D01*
Y240350D01*
X794016Y240744D01*
X794410D01*
X794803Y240350D01*
Y239563D01*
X794410Y239169D01*
X793622D01*
X793229Y239563D01*
X795590Y238776D02*
X797165D01*
X797952Y241137D02*
X798345Y241531D01*
X799132D01*
X799526Y241137D01*
Y240744D01*
X799132Y240350D01*
X798739D01*
X799132D01*
X799526Y239956D01*
Y239563D01*
X799132Y239169D01*
X798345D01*
X797952Y239563D01*
X534534Y242031D02*
Y240063D01*
X534928Y239669D01*
X535715D01*
X536108Y240063D01*
Y242031D01*
X538470D02*
X536896D01*
Y240850D01*
X537683Y241244D01*
X538076D01*
X538470Y240850D01*
Y240063D01*
X538076Y239669D01*
X537289D01*
X536896Y240063D01*
X539257Y239276D02*
X540831D01*
X543193Y239669D02*
X541618D01*
X543193Y241244D01*
Y241637D01*
X542799Y242031D01*
X542012D01*
X541618Y241637D01*
X278201Y241861D02*
Y239894D01*
X278594Y239500D01*
X279381D01*
X279775Y239894D01*
Y241861D01*
X282137D02*
X280562D01*
Y240681D01*
X281349Y241074D01*
X281743D01*
X282137Y240681D01*
Y239894D01*
X281743Y239500D01*
X280956D01*
X280562Y239894D01*
X282924Y239106D02*
X284498D01*
X285285Y239500D02*
X286072D01*
X285679D01*
Y241861D01*
X285285Y241468D01*
M02*
