M48
;Layer_Color=9474304
;FILE_FORMAT=2:5
INCH,LZ
;TYPE=PLATED
T1F00S00C0.01575
T2F00S00C0.03150
T3F00S00C0.03543
T5F00S00C0.04016
T6F00S00C0.05000
T7F00S00C0.06102
T8F00S00C0.06890
T9F00S00C0.12402
%
T01
X0243543Y0078311
X0282913
X0263228Y0117681
X0274Y0144
X0229362Y0154
X0228Y0134
X0341968Y0117681
X0358Y0123
X03605Y0151839
X0394Y0144
X04065Y0155669
X0401024Y0078311
X0440394
X0361654
X0322284
X0479764
X0519134
X0558504
X0597874
X0617559Y0117681
X0616833Y0152008
X0530333Y0144169
X04955Y01445
X0499449Y0117681
X0637244Y0078311
X0676614
X0715984
X0755354
X0775039Y0117681
X0735669
X0751833Y0144669
X0662833Y0155839
X0650333Y0144169
X0786667Y0143669
X0794724Y0078311
X0834095
X0873465
X0912835
X0906667Y0143669
X0919167Y0155339
X0873167Y0151508
X085378Y0117681
X0952205Y0078311
X0991575
X1030945
X1070315
X1043Y0144
X1008167Y0144169
X101126Y0117681
X112937
X11295Y0151839
X1163Y0144
X11755Y0155669
X1188425Y0078311
X1227795
X124748Y0117681
X1149055Y0078311
X1109685
X12615Y0216
X1257Y02715
X125118Y0275391
X1266Y03105
X1247
X12465Y03
X12285Y0286138
X12125Y0288669
X1203
X11945Y0303
X11965Y03095
X1184Y0309
X1198Y023
X12105Y02315
X1225Y0241
X123
X1246Y02315
X12335Y0212
X122Y021189
X1198Y0214831
X120811Y0196421
X1233Y0198
X1233146Y0190854
X124748Y0196421
X116874
X11685Y01805
X1174Y01855
X1159669Y0172
X11665Y0164
X1149055Y0157051
X11395Y0187
X1135
X1113863Y0187297
X1107588Y01795
X1094862Y0171983
X1095Y0204
X1109685Y0235791
X11025Y0283
X10915
X107275Y028675
X10655Y02885
X10595Y02685
X105063Y0275161
X1071701Y02475
X1030945Y0235791
X1005167Y0215669
X0989667Y0231169
X0973667Y0240669
X0968667
X0955Y02315
X0941667Y0229669
Y02145
X0963667Y0211559
X0977167Y0211669
X0976667Y0197669
X0976813Y0190523
X105063Y0196421
X109
X1072335Y0174665
X1070315Y0157051
X10005Y02705
X0994846Y027506
X0995818Y0296803
X0982Y0301
X0990667Y0310169
X10095Y03105
X0972167Y0285807
X09385Y03035
X09375Y03115
X0927Y0311
X09325Y0297
X0844965Y0271608
X0836476Y0271399
X0819Y0282
X0815368Y0247169
X0838667Y0203669
X0838529Y0171652
X0834095Y0157051
X0816001Y0174335
X0851255Y0179169
X085753Y0186966
X0878667Y0186669
X0883167
X0903336Y0171669
X0911997
X0910167Y0163669
X0917667Y0185169
X0873465Y0235791
X0775039Y0275161
X0744Y02715
X0738513Y027556
X07355Y03005
X0734333Y0310669
X0752645Y0311214
X0715833Y0286307
X0706Y0278
X0699333Y0291339
X0676Y0291
X06795Y02995
X06805Y03055
Y03115
X06685
X0685333Y0230169
X0698333Y0231169
X0712333Y0241169
X0717333
X0733333Y0231669
X0748833Y0216169
X0720833Y0212169
X0707333Y0212059
X0685333Y0215
X0696299Y0196421
X0720333Y0198169
X0720479Y0191023
X0735669Y0196421
X0775039
X0656929
X0661333Y0185669
X06555Y01805
X0647003Y0172169
X0653833Y0164169
X0637244Y0157051
X0626833Y0187169
X0622333
X0601196Y0187466
X0594921Y0179669
X0582195Y0172152
X0559668Y0174835
X0558504Y0157051
X0578189Y0196421
X0582333Y0204169
X0597874Y0235791
X0594Y027
X058004Y0269835
X057875Y027975
X0538819Y0275161
X0559034Y0247669
X0538819Y0196421
X04925Y0216
X0477Y02315
X04775Y027127
X0482179Y0275391
X04875Y0271
X048Y0287
X0469Y0281
X0478Y03105
X0497Y03115
X06195Y02935
X06245
X04595Y0286138
X04415Y02805
X04335Y0274
X04275Y0281
X0421Y02735
X0423169Y0299161
X0424Y0304
X0426Y0309
X04125Y03095
X0434Y02905
X0429Y023
X04415Y0232
X0456Y0241
X0461
X04645Y0212
X0451Y021189
X0429Y0214831
X0464Y0198
X0464146Y0190854
X0405Y01855
X0399331Y01805
Y0172
X0390669
X03975Y0164
X03705Y0187
X0366
X0344863Y0187297
X0338588Y01795
X0325862Y0171983
X0322284Y0157051
X0326Y0204
X0361654Y0235791
X0337392Y0271875
X03225Y02715
X03245Y03095
X03005Y0308
X02905Y02965
X0278Y03
X0263228Y0275161
X0235193Y02785
X02275Y02895
X0232161Y03055
X0243543Y0235791
X0210161Y02315
X02175Y01975
X0226402Y0190647
X0236Y01935
X0243Y01845
X0256Y01735
X0243543Y0157051
X02305Y0162
X0263228Y0196421
X0303335Y0174665
X0302701Y02475
X0286Y02495
X0303Y03415
X03085
X0282913Y0393272
X0243543
X02365Y0367
X0230453Y03215
X02055Y0334
X0198Y03335
X0204173Y0393272
X02125Y0401
X0223858Y0432642
X0263228
X0301Y04275
X03085Y0431
X0322284Y0393272
X0348Y03465
X03495Y0339
X0366Y03505
X03995Y0346
X0399Y0361331
X04065Y038
X0420709Y0353902
X0437Y03555
X04365Y03685
X0440394Y0393272
X0438Y04135
X04295Y042
X04365Y0443
X0431Y03425
X04255Y0323638
X043Y03175
X04415Y0317
X04505Y03175
X0437899Y0323696
X0401024Y0314531
X0322284
X0478Y0319
X0469Y0341274
X0469034Y0350037
X0469Y03605
Y037
X048Y03545
X04975
X0503Y0326
X0512Y0318
X0552Y0313
X0562Y03405
X0567143Y0340549
X06035Y0338
X0604333Y0346669
X0622Y03505
X0597874Y0314531
Y0393272
X0558504
X0561Y04065
X0567
X0568Y0431986
X0562Y0443595
X0569426Y0452092
X05705Y04575
X0574Y0462
X0578Y0468
X0586Y04455
X0509Y0434
X0514Y04225
X0519134Y0393272
X0536Y0406
X0538819Y0353902
X048Y0393768
Y0421
Y04345
X0637244Y0393272
X0676614
X0686Y03945
X068Y0384
Y0375339
X06885Y0368
X068Y0356
X0677602Y0344921
X06885Y0345
X0696299Y0353902
X07Y0333
X0705727Y0324276
X0693682
X06815Y0324138
X0715984Y0314531
X0725Y0319
X0734333Y0319169
X0759333Y0326169
X0754312Y0353055
X0765275Y0353378
X0775039Y0353902
X07775Y0368
X0758669
X0755354Y0393272
X0715984
X06815Y0416
Y0439
X0771Y0433844
X0773Y0444
X07375Y03535
X0655833Y0346169
X0655333Y03615
X07915Y0351
X0818Y03355
X08225Y0336
X0834095Y0314531
X0785Y03145
X0860667Y0346169
X0861Y03535
X08505Y03655
X0834095Y0393272
X0873465
X0911667Y0361
X0912167Y0345669
X093252Y0353902
X09305Y0321
X0912835Y0314531
X09335Y04385
X0925Y0455
X08245Y0432
X08155
X07855Y04305
X09435Y042
X09455Y04085
X0952205Y0393272
X0959Y0394
X0946Y0382
X09635Y03695
X097189Y0353902
X09915Y0354
X0997
X09965Y03415
X09955Y033
X09885Y03315
X098879Y032121
X0982Y0318844
X0997Y03145
X1019Y03215
X1015667Y0325669
X1009429Y0333464
X10095Y03435
X1012418Y03545
X0988Y03655
X0991575Y0393272
X1030945
X10365Y04325
X109Y0432642
X108Y04555
X1084Y04605
X1088Y0467
X107925Y036575
X1075Y03655
X10755Y034
X1081637Y0340165
X10835Y0332
X1084791Y0317859
X10585Y03225
X1052Y0317
X1030945Y0314531
X1048Y0341
X10535Y03595
X1089169Y03525
X0959Y034275
X09395Y03395
X09405Y0323
X0952318Y0323276
X0971Y03305
X0962Y04195
X0963Y04375
X10995Y0452
Y04585
X11Y04645
X112937Y0432642
X1149055Y0393272
X1188425
X1227795
X124748Y0432642
X120811
Y0353902
X1206954Y0323276
X12185Y0322776
X1227795Y0314531
X1247Y0319
X124748Y0353902
X1194409Y0323276
X11845Y03215
X1189Y03155
X11695Y03195
X11685Y0346
X1168Y0361331
X1135Y0353
X1117Y03465
X1118Y0339
X11085Y0319
X1109685Y0393272
X1272Y0326
X1227795Y0472012
X124748Y0511382
X120811
X116874
X11145Y0507886
X1098669Y0516547
X11005Y047
X1149055Y0472012
X10925Y047
X10885Y0514
X1072Y05125
X10695Y051598
X10635Y0516
X1061Y0512547
X1062061Y0522561
X1035796Y0519592
X1028453Y0511047
X10275Y0534
X1000445Y0534404
Y05445
Y0524262
Y0514119
Y0503976
Y0493833
Y048369
Y0473547
X10135Y04855
X1030945Y0472012
X1043307Y0472441
X0952205Y0472012
X0925197Y0472441
X0912835Y0472012
X0885827Y0472441
X0873465Y0472012
X0846457Y0472441
X0834095Y0472012
X0807087Y0472441
X0794724Y0472012
X0787402Y0511811
X081441Y0511382
X0826772Y0511811
X085378Y0511382
X0866142Y0511811
X089315Y0511382
X0905512Y0511811
X0777Y0493657
X0772Y0491
X0765Y04935
X07695Y0484
X0773Y0534
X07585Y05345
X0757Y05515
X0756982Y0556482
X07475Y0556
X0744Y05515
X0708661Y0511811
X06305Y0518
X06145Y05045
X06015Y0504
X05745Y0509047
X0558Y0508547
X05555Y0513
X05495Y0512
X0547Y0508
X0552061Y0518561
X05225Y0515709
Y0507047
X0522Y0488
X0486945Y0489833
Y047969
Y0469547
Y0499976
Y0510119
Y0520261
Y0530404
Y0540547
X0472441Y0511811
X0597874Y0472012
X0401024
X0361654
X0322284
X0433071Y0511811
X0282913Y0472012
X0243543
X0204173
T02
X01975Y03505
Y03605
Y0384
Y0394
X02275
Y0384
Y03605
Y03505
X02645Y03385
Y03285
X02945
Y03385
X0520833Y0338669
Y0328669
X0550833
Y0338669
X0777167Y0338169
Y0328169
X0807167
Y0338169
X10335Y03385
Y03285
X10635
Y03385
X09695Y0474047
Y0484047
Y0494047
Y0504047
Y0514047
Y0524047
Y0534047
Y0544047
X09395
Y0534047
Y0524047
Y0514047
Y0504047
Y0494047
Y0484047
Y0474047
X0456Y0470047
Y0480047
Y0490047
Y0500047
Y0510047
Y0520047
Y0530047
Y0540047
X0426
Y0530047
Y0520047
Y0510047
Y0500047
Y0490047
Y0480047
Y0470047
T03
X02435Y0531
X0251
X02585
T05
X03295Y01145
Y01245
X0585833Y0124669
Y0114669
X0842167Y0114169
Y0124169
X10985Y01245
Y01145
X1259Y01755
Y01855
X1205
Y01755
X11705Y02105
Y02205
Y0247
Y0257
X1122Y02575
Y02475
Y02225
Y02125
X11175Y0306
X11275
X11415
X11515
X1072201Y02295
Y02195
X1055201Y02235
X1045201
X1002667Y0185169
Y0175169
X0948667
Y0185169
X0914167Y0210169
Y0220169
Y0246669
Y0256669
X0865667Y0257169
Y0247169
Y0222169
Y0212169
X0815868Y0219169
Y0229169
X0798868Y0223169
X0788868
X0861167Y0305669
X0871167
X0885167
X0895167
X0638833Y0306169
X0628833
X0657833Y0257169
Y0247169
Y0220669
Y0210669
X0692333Y0185669
Y0175669
X0746333
Y0185669
X0609333Y0212669
Y0222669
Y0247669
Y0257669
X0604833Y0306169
X0614833
X0559534Y0229669
Y0219669
X0542534Y0223669
X0532534
X049Y01855
Y01755
X0436
Y01855
X04015Y02105
Y02205
Y0247
Y0257
X0353Y02575
Y02475
Y02225
Y02125
X03485Y0306
X03585
X03725
X03825
X0303201Y02295
Y02195
X0286201Y02235
X0276201
X0231Y02425
X0221
X0231Y02645
X0241
X0237Y0174
X0227
X0197Y04115
Y04215
X035Y0418
Y0408
X03505Y03815
Y03715
X03775Y03725
Y03825
X0377Y04085
Y04185
X0606333Y0418169
Y0408169
X0606833Y0381669
Y0371669
X0633833Y0372669
Y0382669
X0633333Y0408669
Y0418669
X0862667Y0417669
Y0407669
X0863167Y0381169
Y0371169
X0890167Y0372169
Y0382169
X0889667Y0408169
Y0418169
X1119Y0418
Y0408
X11195Y03815
Y03715
X11465Y03725
Y03825
X1146Y04085
Y04185
X0669Y04785
X0659
Y04885
Y04985
Y05085
Y05185
X0669
Y05085
Y04985
Y04885
T06
X028Y0118
X0536333Y0118169
X0792667Y0117669
X1049Y0118
X1137Y022
X1157Y02195
X11575Y02465
X1137Y0247
X11515Y0285
X1118Y02855
X1223Y01765
X12405
X109Y02425
X1046201Y0209
X0984167Y0176169
X0966667
X09025Y0219169
X0880667Y0219669
Y0246669
X0901167Y0246169
X0895167Y0284669
X0861667Y0285169
X0833667Y0242169
X0789867Y0208669
X0727833Y0176669
X0710333
X0644Y0219669
X0644833Y0246669
X0638833Y0285169
X0605333Y0285669
X0624333Y0247169
Y0220169
X0577333Y0242669
X0533534Y0209169
X04715Y01765
X0454
X03855Y0219
X0368Y022
Y0247
X03885Y02465
X03825Y0285
X0349Y02855
X0321Y02425
X0277201Y0209
X02135Y022
X021Y0265
X02135Y0159
X03315Y0388
X0331Y0411
X0396Y0412
X03965Y03875
X0587833Y0388169
X0587333Y0411169
X0652333Y0412169
X0652833Y0387669
X0844167
X0843667Y0410669
X0908667Y0411669
X0909167Y0387169
X11005Y0388
X11Y0411
X1165Y0412
X11655Y03875
T07
X030355Y011895
X038Y01185
X045645Y011895
X0559883Y0119119
X0636333Y0118669
X0712783Y0119119
X0816217Y0118619
X0892667Y0118169
X0969117Y0118619
X107255Y011895
X1149Y01185
X122545Y011895
T08
X02935Y01089
Y0129
X03136
Y01089
X036995Y010845
X039005
Y012855
X036995
X04464Y0129
X04665
Y01089
X04464
X0549833Y0109069
X0569933
Y0129169
X0549833
X0626283Y0128719
X0646383
Y0108619
X0626283
X0702733Y0109069
X0722833
Y0129169
X0702733
X0806167Y0128669
X0826267
Y0108569
X0806167
X0882617Y0108119
X0902717
Y0128219
X0882617
X0959067Y0128669
X0979167
Y0108569
X0959067
X10625Y01089
X10826
Y0129
X10625
X113895Y012855
X115905
Y010845
X113895
X12154Y01089
X12355
Y0129
X12154
T09
X0210185Y0084685
X1259815
Y0550815
X0210185
M30
