G04*
G04 #@! TF.GenerationSoftware,Altium Limited,Altium Designer,20.1.12 (249)*
G04*
G04 Layer_Color=16711935*
%FSLAX25Y25*%
%MOIN*%
G70*
G04*
G04 #@! TF.SameCoordinates,0DC69EFF-8178-42D1-8DC1-E705200A60BA*
G04*
G04*
G04 #@! TF.FilePolarity,Negative*
G04*
G01*
G75*
%ADD41C,0.05918*%
%ADD42R,0.05918X0.05918*%
%ADD43C,0.06706*%
%ADD44R,0.06706X0.06706*%
%ADD45R,0.06706X0.06706*%
%ADD46C,0.05524*%
%ADD47O,0.06706X0.09855*%
%ADD48O,0.06706X0.13792*%
%ADD49C,0.12217*%
%ADD50C,0.13398*%
%ADD51C,0.11000*%
%ADD52C,0.04343*%
%ADD53C,0.24422*%
D41*
X1063500Y328500D02*
D03*
Y338500D02*
D03*
X1033500Y328500D02*
D03*
X807167Y328169D02*
D03*
Y338169D02*
D03*
X777167Y328169D02*
D03*
X550833Y328669D02*
D03*
Y338669D02*
D03*
X520833Y328669D02*
D03*
X294500Y328500D02*
D03*
Y338500D02*
D03*
X264500Y328500D02*
D03*
X227500Y384000D02*
D03*
Y394000D02*
D03*
X197500Y384000D02*
D03*
X227500Y350500D02*
D03*
Y360500D02*
D03*
X197500Y350500D02*
D03*
X969500Y484047D02*
D03*
Y494047D02*
D03*
Y504047D02*
D03*
Y514047D02*
D03*
Y524047D02*
D03*
Y534047D02*
D03*
Y544047D02*
D03*
X939500Y474047D02*
D03*
Y484047D02*
D03*
Y494047D02*
D03*
Y504047D02*
D03*
Y514047D02*
D03*
Y524047D02*
D03*
Y534047D02*
D03*
Y544047D02*
D03*
X456000Y480047D02*
D03*
Y490047D02*
D03*
Y500047D02*
D03*
Y510047D02*
D03*
Y520047D02*
D03*
Y530047D02*
D03*
Y540047D02*
D03*
X426000Y470047D02*
D03*
Y480047D02*
D03*
Y490047D02*
D03*
Y500047D02*
D03*
Y510047D02*
D03*
Y520047D02*
D03*
Y530047D02*
D03*
Y540047D02*
D03*
D42*
X1033500Y338500D02*
D03*
X777167Y338169D02*
D03*
X520833Y338669D02*
D03*
X264500Y338500D02*
D03*
X197500Y394000D02*
D03*
Y360500D02*
D03*
X969500Y474047D02*
D03*
X456000Y470047D02*
D03*
D43*
X197000Y411500D02*
D03*
X659000Y488500D02*
D03*
Y498500D02*
D03*
Y508500D02*
D03*
Y478500D02*
D03*
X669000D02*
D03*
Y508500D02*
D03*
Y498500D02*
D03*
Y488500D02*
D03*
X1141500Y306000D02*
D03*
X885167Y305669D02*
D03*
X628833Y306169D02*
D03*
X372500Y306000D02*
D03*
X1146500Y382500D02*
D03*
X890167Y382169D02*
D03*
X633833Y382669D02*
D03*
X377500Y382500D02*
D03*
X1117500Y306000D02*
D03*
X861167Y305669D02*
D03*
X604833Y306169D02*
D03*
X348500Y306000D02*
D03*
X1119500Y371500D02*
D03*
X863167Y371169D02*
D03*
X606833Y371669D02*
D03*
X350500Y371500D02*
D03*
X1119000Y418000D02*
D03*
X862667Y417669D02*
D03*
X606333Y418169D02*
D03*
X350000Y418000D02*
D03*
X1205000Y175500D02*
D03*
X948667Y175169D02*
D03*
X692333Y175669D02*
D03*
X436000Y175500D02*
D03*
X1146000Y408500D02*
D03*
X889667Y408169D02*
D03*
X633333Y408669D02*
D03*
X377000Y408500D02*
D03*
X1259000Y185500D02*
D03*
X1002667Y185169D02*
D03*
X746333Y185669D02*
D03*
X490000Y185500D02*
D03*
X1122000Y212500D02*
D03*
X865667Y212169D02*
D03*
X609333Y212669D02*
D03*
X353000Y212500D02*
D03*
X1170500Y247000D02*
D03*
X914167Y246669D02*
D03*
X657833Y247169D02*
D03*
X401500Y247000D02*
D03*
X1122000Y257500D02*
D03*
X865667Y257169D02*
D03*
X609333Y257669D02*
D03*
X353000Y257500D02*
D03*
X1170500Y220500D02*
D03*
X914167Y220169D02*
D03*
X657833Y220669D02*
D03*
X401500Y220500D02*
D03*
X1098500Y124500D02*
D03*
X842167Y124169D02*
D03*
X585833Y124669D02*
D03*
X329500Y124500D02*
D03*
X1055201Y223500D02*
D03*
X798868Y223169D02*
D03*
X542534Y223669D02*
D03*
X286201Y223500D02*
D03*
X1072201Y219500D02*
D03*
X815868Y219169D02*
D03*
X559534Y219669D02*
D03*
X303201Y219500D02*
D03*
X221000Y242500D02*
D03*
X241000Y264500D02*
D03*
X237000Y174000D02*
D03*
D44*
X197000Y421500D02*
D03*
X659000Y518500D02*
D03*
X669000D02*
D03*
X1146500Y372500D02*
D03*
X890167Y372169D02*
D03*
X633833Y372669D02*
D03*
X377500Y372500D02*
D03*
X1119500Y381500D02*
D03*
X863167Y381169D02*
D03*
X606833Y381669D02*
D03*
X350500Y381500D02*
D03*
X1119000Y408000D02*
D03*
X862667Y407669D02*
D03*
X606333Y408169D02*
D03*
X350000Y408000D02*
D03*
X1205000Y185500D02*
D03*
X948667Y185169D02*
D03*
X692333Y185669D02*
D03*
X436000Y185500D02*
D03*
X1146000Y418500D02*
D03*
X889667Y418169D02*
D03*
X633333Y418669D02*
D03*
X377000Y418500D02*
D03*
X1259000Y175500D02*
D03*
X1002667Y175169D02*
D03*
X746333Y175669D02*
D03*
X490000Y175500D02*
D03*
X1122000Y222500D02*
D03*
X865667Y222169D02*
D03*
X609333Y222669D02*
D03*
X353000Y222500D02*
D03*
X1170500Y257000D02*
D03*
X914167Y256669D02*
D03*
X657833Y257169D02*
D03*
X401500Y257000D02*
D03*
X1122000Y247500D02*
D03*
X865667Y247169D02*
D03*
X609333Y247669D02*
D03*
X353000Y247500D02*
D03*
X1170500Y210500D02*
D03*
X914167Y210169D02*
D03*
X657833Y210669D02*
D03*
X401500Y210500D02*
D03*
X1098500Y114500D02*
D03*
X842167Y114169D02*
D03*
X585833Y114669D02*
D03*
X329500Y114500D02*
D03*
X1072201Y229500D02*
D03*
X815868Y229169D02*
D03*
X559534Y229669D02*
D03*
X303201Y229500D02*
D03*
D45*
X1151500Y306000D02*
D03*
X895167Y305669D02*
D03*
X638833Y306169D02*
D03*
X382500Y306000D02*
D03*
X1127500D02*
D03*
X871167Y305669D02*
D03*
X614833Y306169D02*
D03*
X358500Y306000D02*
D03*
X1045201Y223500D02*
D03*
X788868Y223169D02*
D03*
X532534Y223669D02*
D03*
X276201Y223500D02*
D03*
X231000Y242500D02*
D03*
Y264500D02*
D03*
X227000Y174000D02*
D03*
D46*
X258500Y531000D02*
D03*
X251000D02*
D03*
X243500D02*
D03*
D47*
X788138Y549457D02*
D03*
X731051D02*
D03*
D48*
X788138Y525992D02*
D03*
X731051D02*
D03*
D49*
X1149000Y118500D02*
D03*
X892667Y118169D02*
D03*
X636333Y118669D02*
D03*
X380000Y118500D02*
D03*
X1225450Y118950D02*
D03*
X969117Y118619D02*
D03*
X712783Y119119D02*
D03*
X456450Y118950D02*
D03*
X1072550D02*
D03*
X816217Y118619D02*
D03*
X559883Y119119D02*
D03*
X303550Y118950D02*
D03*
D50*
X1159050Y108450D02*
D03*
Y128550D02*
D03*
X1138950Y108450D02*
D03*
Y128550D02*
D03*
X902717Y108119D02*
D03*
Y128219D02*
D03*
X882617Y108119D02*
D03*
Y128219D02*
D03*
X646383Y108619D02*
D03*
Y128719D02*
D03*
X626283Y108619D02*
D03*
Y128719D02*
D03*
X390050Y108450D02*
D03*
Y128550D02*
D03*
X369950Y108450D02*
D03*
Y128550D02*
D03*
X1235500Y108900D02*
D03*
Y129000D02*
D03*
X1215400Y108900D02*
D03*
Y129000D02*
D03*
X979167Y108569D02*
D03*
Y128669D02*
D03*
X959067Y108569D02*
D03*
Y128669D02*
D03*
X722833Y109069D02*
D03*
Y129169D02*
D03*
X702733Y109069D02*
D03*
Y129169D02*
D03*
X466500Y108900D02*
D03*
Y129000D02*
D03*
X446400Y108900D02*
D03*
Y129000D02*
D03*
X1082600Y108900D02*
D03*
Y129000D02*
D03*
X1062500Y108900D02*
D03*
Y129000D02*
D03*
X826267Y108569D02*
D03*
Y128669D02*
D03*
X806167Y108569D02*
D03*
Y128669D02*
D03*
X569933Y109069D02*
D03*
Y129169D02*
D03*
X549833Y109069D02*
D03*
Y129169D02*
D03*
X313600Y108900D02*
D03*
Y129000D02*
D03*
X293500Y108900D02*
D03*
Y129000D02*
D03*
D51*
X1151500Y285000D02*
D03*
X895167Y284669D02*
D03*
X638833Y285169D02*
D03*
X382500Y285000D02*
D03*
X1165500Y387500D02*
D03*
X909167Y387169D02*
D03*
X652833Y387669D02*
D03*
X396500Y387500D02*
D03*
X1118000Y285500D02*
D03*
X861667Y285169D02*
D03*
X605333Y285669D02*
D03*
X349000Y285500D02*
D03*
X1100500Y388000D02*
D03*
X844167Y387669D02*
D03*
X587833Y388169D02*
D03*
X331500Y388000D02*
D03*
X1100000Y411000D02*
D03*
X843667Y410669D02*
D03*
X587333Y411169D02*
D03*
X331000Y411000D02*
D03*
X1223000Y176500D02*
D03*
X966667Y176169D02*
D03*
X710333Y176669D02*
D03*
X454000Y176500D02*
D03*
X1165000Y412000D02*
D03*
X908667Y411669D02*
D03*
X652333Y412169D02*
D03*
X396000Y412000D02*
D03*
X1240500Y176500D02*
D03*
X984167Y176169D02*
D03*
X727833Y176669D02*
D03*
X471500Y176500D02*
D03*
X1137000Y220000D02*
D03*
X880667Y219669D02*
D03*
X624333Y220169D02*
D03*
X368000Y220000D02*
D03*
X1157500Y246500D02*
D03*
X901167Y246169D02*
D03*
X644833Y246669D02*
D03*
X388500Y246500D02*
D03*
X1137000Y247000D02*
D03*
X880667Y246669D02*
D03*
X624333Y247169D02*
D03*
X368000Y247000D02*
D03*
X1157000Y219500D02*
D03*
X902500Y219169D02*
D03*
X644000Y219669D02*
D03*
X385500Y219000D02*
D03*
X1049000Y118000D02*
D03*
X792667Y117669D02*
D03*
X536333Y118169D02*
D03*
X280000Y118000D02*
D03*
X1046201Y209000D02*
D03*
X789867Y208669D02*
D03*
X533534Y209169D02*
D03*
X277201Y209000D02*
D03*
X1090000Y242500D02*
D03*
X833667Y242169D02*
D03*
X577333Y242669D02*
D03*
X321000Y242500D02*
D03*
X213500Y220000D02*
D03*
X210000Y265000D02*
D03*
X213500Y159000D02*
D03*
D52*
X437899Y323696D02*
D03*
X693682Y324276D02*
D03*
X1088500Y514000D02*
D03*
X210161Y231500D02*
D03*
X758500Y534500D02*
D03*
X773000Y534000D02*
D03*
X1089169Y352500D02*
D03*
X226402Y190647D02*
D03*
X228000Y134000D02*
D03*
X229362Y154000D02*
D03*
X1013500Y485500D02*
D03*
X1043307Y472441D02*
D03*
X905512Y511811D02*
D03*
X925197Y472441D02*
D03*
X866142Y511811D02*
D03*
X885827Y472441D02*
D03*
X826772Y511811D02*
D03*
X846457Y472441D02*
D03*
X787402Y511811D02*
D03*
X807087Y472441D02*
D03*
X708661Y511811D02*
D03*
X472441D02*
D03*
X433071D02*
D03*
D53*
X210185Y550815D02*
D03*
X1259815D02*
D03*
Y84685D02*
D03*
X210185D02*
D03*
M02*
